<svg width="40" height="40" viewBox="0 0 40 40" fill="none" xmlns="http://www.w3.org/2000/svg">
<g clip-path="url(#clip0_102_657)">
<path d="M33.8615 7.4863C31.3115 6.3363 28.5782 5.4863 25.7198 5.00296C25.6944 4.99808 25.668 5.00123 25.6444 5.01198C25.6208 5.02273 25.6012 5.04054 25.5882 5.06296C25.2382 5.67796 24.8482 6.47963 24.5748 7.11296C21.5433 6.66003 18.4613 6.66003 15.4298 7.11296C15.1254 6.41106 14.7821 5.72667 14.4015 5.06296C14.3886 5.04027 14.3691 5.02205 14.3455 5.01073C14.322 4.99941 14.2956 4.99554 14.2698 4.99963C11.4132 5.48296 8.67982 6.33296 6.12816 7.48463C6.10621 7.49384 6.08759 7.50954 6.07482 7.52963C0.888158 15.1546 -0.533509 22.5913 0.164824 29.9346C0.166768 29.9526 0.17235 29.97 0.181233 29.9858C0.190115 30.0015 0.202111 30.0153 0.216491 30.0263C3.24381 32.2303 6.62039 33.9093 10.2048 34.993C10.2298 35.0007 10.2565 35.0006 10.2815 34.9929C10.3065 34.9852 10.3286 34.9701 10.3448 34.9496C11.1161 33.9181 11.7997 32.8237 12.3882 31.678C12.3963 31.6623 12.401 31.6451 12.402 31.6274C12.4029 31.6098 12.4 31.5921 12.3935 31.5757C12.3871 31.5593 12.3771 31.5444 12.3644 31.5322C12.3517 31.5199 12.3365 31.5105 12.3198 31.5046C11.2432 31.0992 10.2 30.6099 9.19982 30.0413C9.18185 30.031 9.16671 30.0165 9.15575 29.9989C9.1448 29.9814 9.13837 29.9614 9.13705 29.9407C9.13573 29.9201 9.13955 29.8994 9.14818 29.8806C9.15681 29.8618 9.16997 29.8454 9.18649 29.833C9.39649 29.678 9.60649 29.5163 9.80649 29.3546C9.82449 29.3401 9.84618 29.3308 9.86913 29.3279C9.89208 29.325 9.9154 29.3284 9.93649 29.338C16.4815 32.278 23.5698 32.278 30.0382 29.338C30.0593 29.3279 30.0829 29.3239 30.1061 29.3266C30.1294 29.3292 30.1515 29.3384 30.1698 29.353C30.3698 29.5163 30.5782 29.678 30.7898 29.833C30.8065 29.8452 30.8199 29.8613 30.8288 29.88C30.8377 29.8986 30.8418 29.9192 30.8408 29.9398C30.8399 29.9605 30.8338 29.9805 30.8231 29.9982C30.8125 30.0159 30.7976 30.0307 30.7798 30.0413C29.7832 30.6146 28.7465 31.0996 27.6582 31.503C27.6414 31.509 27.6262 31.5186 27.6135 31.531C27.6008 31.5434 27.5908 31.5584 27.5844 31.575C27.5779 31.5916 27.575 31.6093 27.576 31.6271C27.5769 31.6448 27.5816 31.6622 27.5898 31.678C28.1898 32.823 28.8765 33.913 29.6315 34.948C29.6472 34.9692 29.6691 34.9851 29.6941 34.9934C29.7192 35.0018 29.7462 35.0022 29.7715 34.9946C33.3621 33.914 36.7442 32.2343 39.7748 30.0263C39.7896 30.016 39.802 30.0026 39.8112 29.9871C39.8204 29.9715 39.8262 29.9542 39.8282 29.9363C40.6615 21.4463 38.4315 14.0696 33.9132 7.53296C33.9021 7.51172 33.8837 7.49516 33.8615 7.4863ZM13.3665 25.463C11.3965 25.463 9.77149 23.6813 9.77149 21.4963C9.77149 19.3096 11.3648 17.5296 13.3665 17.5296C15.3832 17.5296 16.9932 19.3246 16.9615 21.4963C16.9615 23.683 15.3682 25.463 13.3665 25.463ZM26.6582 25.463C24.6865 25.463 23.0632 23.6813 23.0632 21.4963C23.0632 19.3096 24.6548 17.5296 26.6582 17.5296C28.6748 17.5296 30.2848 19.3246 30.2532 21.4963C30.2532 23.683 28.6765 25.463 26.6582 25.463Z" fill="white"/>
</g>
<defs>
<clipPath id="clip0_102_657">
<rect width="40" height="40" fill="white"/>
</clipPath>
</defs>
</svg>
