<svg width="40" height="40" viewBox="0 0 40 40" fill="none" xmlns="http://www.w3.org/2000/svg">
<path fill-rule="evenodd" clip-rule="evenodd" d="M12.4415 1.77602C14.3965 1.68602 15.0198 1.66602 19.9998 1.66602C24.9798 1.66602 25.6032 1.68768 27.5565 1.77602C29.5098 1.86435 30.8432 2.17602 32.0098 2.62768C33.2315 3.08935 34.3398 3.81102 35.2565 4.74435C36.1898 5.65935 36.9098 6.76602 37.3698 7.98935C37.8232 9.15601 38.1332 10.4893 38.2232 12.4393C38.3132 14.3977 38.3332 15.021 38.3332 19.9993C38.3332 24.9793 38.3115 25.6027 38.2232 27.5577C38.1348 29.5077 37.8232 30.841 37.3698 32.0077C36.9098 33.2312 36.1886 34.3397 35.2565 35.256C34.3398 36.1893 33.2315 36.9093 32.0098 37.3693C30.8432 37.8227 29.5098 38.1327 27.5598 38.2227C25.6032 38.3127 24.9798 38.3327 19.9998 38.3327C15.0198 38.3327 14.3965 38.311 12.4415 38.2227C10.4915 38.1343 9.15817 37.8227 7.9915 37.3693C6.76804 36.9093 5.65954 36.1881 4.74317 35.256C3.81047 34.3405 3.08869 33.2325 2.62817 32.0093C2.1765 30.8427 1.8665 29.5093 1.7765 27.5593C1.6865 25.601 1.6665 24.9777 1.6665 19.9993C1.6665 15.0193 1.68817 14.396 1.7765 12.4427C1.86484 10.4893 2.1765 9.15601 2.62817 7.98935C3.08938 6.76615 3.8117 5.6582 4.74484 4.74268C5.6599 3.81018 6.76729 3.08842 7.98984 2.62768C9.1565 2.17602 10.4898 1.86602 12.4398 1.77602H12.4415ZM27.4082 5.07602C25.4748 4.98768 24.8948 4.96935 19.9998 4.96935C15.1048 4.96935 14.5248 4.98768 12.5915 5.07602C10.8032 5.15768 9.83317 5.45602 9.1865 5.70768C8.3315 6.04102 7.71984 6.43602 7.07817 7.07768C6.46991 7.66943 6.0018 8.38982 5.70817 9.18602C5.4565 9.83268 5.15817 10.8027 5.0765 12.591C4.98817 14.5243 4.96984 15.1043 4.96984 19.9993C4.96984 24.8943 4.98817 25.4743 5.0765 27.4077C5.15817 29.196 5.4565 30.166 5.70817 30.8127C6.0015 31.6077 6.46984 32.3293 7.07817 32.921C7.66984 33.5293 8.3915 33.9977 9.1865 34.291C9.83317 34.5427 10.8032 34.841 12.5915 34.9227C14.5248 35.011 15.1032 35.0293 19.9998 35.0293C24.8965 35.0293 25.4748 35.011 27.4082 34.9227C29.1965 34.841 30.1665 34.5427 30.8132 34.291C31.6682 33.9577 32.2798 33.5627 32.9215 32.921C33.5298 32.3293 33.9982 31.6077 34.2915 30.8127C34.5432 30.166 34.8415 29.196 34.9232 27.4077C35.0115 25.4743 35.0298 24.8943 35.0298 19.9993C35.0298 15.1043 35.0115 14.5243 34.9232 12.591C34.8415 10.8027 34.5432 9.83268 34.2915 9.18602C33.9582 8.33102 33.5632 7.71935 32.9215 7.07768C32.3297 6.46947 31.6093 6.00137 30.8132 5.70768C30.1665 5.45602 29.1965 5.15768 27.4082 5.07602ZM17.6582 25.651C18.9659 26.1954 20.4221 26.2689 21.778 25.8589C23.134 25.4489 24.3055 24.5809 25.0925 23.4031C25.8795 22.2253 26.2333 20.8108 26.0932 19.4012C25.9532 17.9916 25.3282 16.6743 24.3248 15.6743C23.6852 15.0351 22.9119 14.5457 22.0604 14.2413C21.2089 13.9368 20.3006 13.8249 19.4007 13.9137C18.5008 14.0025 17.6318 14.2896 16.8562 14.7546C16.0806 15.2195 15.4177 15.8506 14.9153 16.6024C14.4129 17.3543 14.0835 18.2082 13.9507 19.1026C13.8179 19.9971 13.8851 20.9098 14.1474 21.7752C14.4097 22.6406 14.8606 23.437 15.4677 24.1072C16.0748 24.7774 16.8229 25.3047 17.6582 25.651ZM13.3365 13.336C14.2115 12.461 15.2504 11.7669 16.3937 11.2933C17.537 10.8197 18.7623 10.576 19.9998 10.576C21.2373 10.576 22.4627 10.8197 23.606 11.2933C24.7493 11.7669 25.7881 12.461 26.6632 13.336C27.5382 14.2111 28.2323 15.2499 28.7059 16.3932C29.1795 17.5365 29.4232 18.7619 29.4232 19.9993C29.4232 21.2368 29.1795 22.4622 28.7059 23.6055C28.2323 24.7488 27.5382 25.7876 26.6632 26.6627C24.8959 28.4299 22.4991 29.4227 19.9998 29.4227C17.5006 29.4227 15.1037 28.4299 13.3365 26.6627C11.5693 24.8955 10.5765 22.4986 10.5765 19.9993C10.5765 17.5001 11.5693 15.1032 13.3365 13.336ZM31.5132 11.9793C31.73 11.7748 31.9036 11.5288 32.0237 11.256C32.1437 10.9831 32.2079 10.689 32.2122 10.3909C32.2165 10.0928 32.161 9.79693 32.049 9.5207C31.9369 9.24447 31.7706 8.99353 31.5598 8.78275C31.349 8.57196 31.098 8.40561 30.8218 8.29354C30.5456 8.18148 30.2497 8.12597 29.9516 8.13032C29.6536 8.13467 29.3594 8.19877 29.0865 8.31884C28.8137 8.43891 28.5677 8.61251 28.3632 8.82935C27.9654 9.25106 27.7476 9.81122 27.756 10.3909C27.7645 10.9706 27.9985 11.5241 28.4084 11.9341C28.8184 12.344 29.3719 12.5781 29.9516 12.5865C30.5313 12.595 31.0915 12.3772 31.5132 11.9793Z" fill="white"/>
</svg>
