<svg width="40" height="40" viewBox="0 0 40 40" fill="none" xmlns="http://www.w3.org/2000/svg">
<path d="M7.28683 12.106C7.30725 11.9031 7.2799 11.6983 7.20697 11.5078C7.13404 11.3174 7.01755 11.1467 6.86683 11.0093L3.7535 7.23102V6.66602H13.4168L20.8868 23.1743L27.4535 6.66602H36.6668V7.23102L34.0052 9.79935C33.8924 9.88643 33.8054 10.0025 33.7534 10.1352C33.7014 10.2679 33.6865 10.4122 33.7102 10.5527V29.4427C33.6865 29.5832 33.7014 29.7275 33.7534 29.8602C33.8054 29.9929 33.8924 30.1089 34.0052 30.196L36.6052 32.766V33.3327H23.5318V32.7677L26.2252 30.1343C26.4902 29.8677 26.4902 29.7893 26.4902 29.3827V14.1127L19.0035 33.2693H17.9935L9.27683 14.1127V26.9527C9.20516 27.491 9.3835 28.036 9.76016 28.426L13.2618 32.706V33.2693H3.3335V32.706L6.8335 28.426C7.01868 28.2328 7.15612 27.9989 7.23483 27.7431C7.31355 27.4873 7.33135 27.2166 7.28683 26.9527V12.106Z" fill="white"/>
</svg>
