<svg width="40" height="40" viewBox="0 0 40 40" fill="none" xmlns="http://www.w3.org/2000/svg">
<path d="M39.4049 8.22927C38.0132 8.84594 36.5182 9.26261 34.9465 9.45094C36.5682 8.4806 37.7814 6.95339 38.3599 5.15428C36.8363 6.05926 35.1688 6.69627 33.4299 7.03761C32.2605 5.78905 30.7116 4.96149 29.0237 4.6834C27.3358 4.40531 25.6034 4.69226 24.0953 5.4997C22.5872 6.30713 21.3878 7.58988 20.6834 9.14878C19.9791 10.7077 19.8091 12.4555 20.1999 14.1209C17.1127 13.9659 14.0926 13.1635 11.3356 11.7658C8.57856 10.368 6.14626 8.40621 4.19652 6.00761C3.52986 7.15761 3.14652 8.49094 3.14652 9.91094C3.14578 11.1893 3.46058 12.448 4.06299 13.5755C4.6654 14.703 5.53679 15.6643 6.59986 16.3743C5.36698 16.335 4.16131 16.0019 3.08319 15.4026V15.5026C3.08307 17.2955 3.70324 19.0332 4.8385 20.4209C5.97375 21.8086 7.55414 22.7608 9.31152 23.1159C8.16783 23.4255 6.96875 23.4711 5.80486 23.2493C6.30069 24.792 7.26652 26.141 8.56714 27.1075C9.86775 28.074 11.4381 28.6096 13.0582 28.6393C10.3079 30.7983 6.91134 31.9694 3.41486 31.9643C2.79549 31.9644 2.17665 31.9283 1.56152 31.8559C5.11065 34.1379 9.24209 35.349 13.4615 35.3443C27.7449 35.3443 35.5532 23.5143 35.5532 13.2543C35.5532 12.9209 35.5449 12.5843 35.5299 12.2509C37.0487 11.1526 38.3597 9.79243 39.4015 8.23428L39.4049 8.22927Z" fill="white"/>
</svg>
