<svg width="300" height="80" viewBox="0 0 300 80" fill="none" xmlns="http://www.w3.org/2000/svg">
<path fill-rule="evenodd" clip-rule="evenodd" d="M188.786 14.8064C193.807 15.8897 197.37 18.1322 199.041 21.2602C199.977 23.0122 200.786 26.4193 200.779 28.5763C200.769 31.8002 199.514 35.9005 197.987 37.7014C196.337 39.6476 194.856 40.8327 192.951 41.7325C188.989 43.6043 187.851 43.8267 181.379 43.9955L175.454 44.1504L175.38 53.3811C175.339 58.458 175.306 62.7795 175.306 62.9841C175.306 63.2556 174.546 63.3563 172.492 63.3563H169.677V38.7671V14.1778L178.343 14.3002C183.832 14.378 187.66 14.5634 188.786 14.8064ZM175.376 29.5625C175.333 24.323 175.362 19.8679 175.441 19.6618C175.635 19.1523 183.897 19.1815 186.712 19.7014C191.886 20.6572 194.415 23.2585 194.77 27.9876C195.04 31.5852 193.83 35.0316 191.762 36.5573C189.271 38.3954 186.969 38.9085 180.779 39.0053L175.454 39.0883L175.376 29.5625Z" fill="#D8D8D8"/>
<path fill-rule="evenodd" clip-rule="evenodd" d="M226.789 26.2734C230.948 26.5706 233.907 28.4027 235.44 31.6299C236.731 34.3503 236.961 37.5459 236.863 51.4456L236.78 63.2074H234.712H232.645L232.097 60.8268C231.795 59.5172 231.503 58.4 231.447 58.3437C231.391 58.2874 230.852 58.7891 230.25 59.4591C227.495 62.524 224.377 63.933 219.814 64.1754C217.513 64.2975 216.722 64.2115 214.926 63.6436C213.747 63.2711 212.572 62.786 212.315 62.5657C212.058 62.3454 211.703 62.1652 211.525 62.1652C210.895 62.1652 208.792 59.396 208.168 57.7425C207.696 56.4943 207.527 55.3616 207.512 53.3451C207.494 50.9802 207.593 50.4189 208.283 49.0016C208.72 48.1062 209.377 47.0414 209.744 46.6349C210.571 45.722 212.778 44.0012 213.122 44.0024C213.261 44.0027 213.909 43.7466 214.56 43.433C216.58 42.4611 219.683 41.932 225.184 41.6208C228.095 41.4562 230.661 41.3216 230.887 41.3216C231.417 41.3216 231.459 37.3372 230.949 35.5497C229.715 31.2297 225.617 29.6605 219.541 31.1815C216.864 31.8518 214.683 32.6077 214.279 33.005C213.579 33.6943 213.056 33.2119 212.292 31.1713L211.504 29.0685L212.884 28.4736C215.754 27.2367 217.904 26.6149 220.485 26.2758C221.952 26.0828 223.418 25.964 223.744 26.0116C224.07 26.0593 225.44 26.1772 226.789 26.2734ZM215.826 47.9746C217.71 46.5307 219.851 46.0254 225.67 45.6526C228.521 45.4698 230.955 45.3664 231.077 45.4227C231.416 45.5796 231.341 49.7269 230.966 51.5055C230.284 54.7479 228.602 56.9427 225.74 58.3267C223.87 59.231 223.536 59.2933 220.437 59.3141C217.224 59.3359 217.093 59.3108 215.845 58.4393C213.938 57.1071 213.151 55.3812 213.312 52.8842C213.465 50.527 214.091 49.305 215.826 47.9746Z" fill="#D8D8D8"/>
<path d="M248.696 27.401C248.987 28.2997 250.461 32.179 254.154 41.7682C256.405 47.614 259.443 56.5428 259.443 57.3137C259.443 58.8681 259.985 57.6859 261.759 52.2577C262.788 49.1088 263.998 45.5275 264.447 44.2993C264.896 43.071 266.514 38.5488 268.044 34.2496L270.824 26.4333H273.76C276.416 26.4333 276.681 26.483 276.544 26.9544C276.392 27.4779 275.4 30.1914 273.74 34.6219C258.966 74.077 260.021 71.4064 258.001 74.4758C254.991 79.0521 250.69 80.7461 244.729 79.7027L242.853 79.3746V77.1583V74.9421L243.907 75.141C247.177 75.7576 249.881 75.2234 251.973 73.5476C253.517 72.3104 254.541 70.5604 256.022 66.632L257.148 63.6436L249.957 45.5594C246.002 35.6134 242.703 27.2411 242.627 26.9544C242.501 26.4836 242.772 26.4333 245.435 26.4333H248.382L248.696 27.401Z" fill="#D8D8D8"/>
<path fill-rule="evenodd" clip-rule="evenodd" d="M293.16 0.279313C297.107 1.26492 299.763 4.58502 299.984 8.80883C300.217 13.2848 297.939 16.6165 293.624 18.1089C291.533 18.8316 290.207 18.8438 288.317 18.1575C285.188 17.0209 283.856 15.8692 282.525 13.1526C281.556 11.1737 281.52 7.58591 282.448 5.55336C284.36 1.36825 288.789 -0.812297 293.16 0.279313ZM285.754 4.1434C286.518 3.38321 287.743 2.53637 288.477 2.26183C290.209 1.61329 290.895 1.61002 293.02 2.2398C295.152 2.87196 297.055 4.60705 297.819 6.61578C298.642 8.78352 298.304 11.4816 296.964 13.431C295.754 15.1914 295.138 15.6548 293.069 16.3605C291.178 17.0048 290.594 17.0135 288.857 16.4224C283.397 14.564 281.766 8.11084 285.754 4.1434Z" fill="#D8D8D8"/>
<path fill-rule="evenodd" clip-rule="evenodd" d="M293.168 5.06709C294.868 5.93359 295.046 8.2669 293.513 9.56396L292.667 10.2792L293.339 11.2842C293.708 11.8371 294.247 12.6577 294.536 13.1083L295.062 13.9271L293.917 13.9188C292.832 13.9108 292.71 13.8098 291.587 11.9958C290.71 10.5785 290.229 10.0779 289.736 10.0687C289.112 10.057 289.069 10.1794 289.069 11.9916V13.9271H288.18H287.292L287.291 9.2373L287.29 4.54749L289.883 4.63087C291.309 4.67673 292.787 4.87294 293.168 5.06709ZM290.822 8.26956C289.072 8.26956 289.069 8.26807 289.069 7.37626C289.069 6.49279 289.087 6.48297 290.688 6.48297C291.931 6.48297 292.369 6.60416 292.574 7.00406C293.069 7.97239 292.658 8.26956 290.822 8.26956Z" fill="#D8D8D8"/>
<path d="M33.2337 14.4259C37.5869 15.516 40.2077 16.7044 43.0482 18.8769C44.2003 19.7582 45.4538 20.8386 45.8339 21.2778L46.5248 22.0763L44.4797 23.9877C43.3548 25.0388 41.8148 26.4884 41.0573 27.2084C40.2998 27.9287 39.552 28.5179 39.3956 28.5179C39.2389 28.5179 38.6588 28.0504 38.1063 27.479C37.5541 26.9076 36.9355 26.4386 36.7317 26.4368C36.5281 26.4351 36.3613 26.3329 36.3613 26.2097C36.3613 25.9634 34.5088 24.9882 32.6581 24.2602C28.5197 22.6323 21.8228 23.2969 17.9113 25.7237C11.0899 29.9561 9.13819 40.6748 13.8967 47.773C14.8086 49.1329 17.0904 51.4376 17.53 51.4426C17.6823 51.4444 18.0822 51.6892 18.4188 51.9864C19.8607 53.2605 23.8936 54.295 27.1773 54.2324C29.3525 54.1913 31.7705 53.7048 34.1394 52.8317L35.3244 52.3949L35.4038 45.2208L35.4832 38.0464H40.5143H45.5453V47.8525V57.6585L44.5866 58.3487C43.4979 59.1328 43.0331 59.4013 40.9533 60.4489C34.0807 63.9101 24.7459 64.7492 17.549 62.5523C15.237 61.8463 12.0765 60.3822 11.156 59.5901C10.8989 59.3689 10.5478 59.1878 10.3759 59.1878C10.2044 59.1878 8.86949 58.0155 7.40982 56.5824C4.31334 53.5428 2.34943 50.4326 1.25209 46.8305C-1.51496 37.749 0.366275 28.4608 6.28106 22.0016C7.4344 20.7421 10.3816 18.3123 11.617 17.603C15.0631 15.6235 19.3538 14.2174 22.8816 13.9122C26.0664 13.6365 31.0734 13.8851 33.2337 14.4259Z" fill="#5A554F"/>
<path d="M83.8085 14.5459C84.8931 14.8609 85.9232 15.1185 86.098 15.1185C86.6393 15.1185 90.9525 17.2344 92.2862 18.1539C92.9821 18.6339 94.2152 19.6413 95.0266 20.3922C96.4368 21.6979 96.8163 22.3971 96.2324 22.6123C96.0843 22.6668 94.6056 23.9845 92.9466 25.5403C91.2875 27.0961 89.8081 28.414 89.6587 28.4691C89.5091 28.5242 88.7189 27.9653 87.9022 27.2274C84.5346 24.1843 79.5856 22.8506 74.4305 23.5971C70.3125 24.1935 68.0283 25.28 65.5673 27.8137C63.833 29.5991 62.3719 32.2674 61.8203 34.6567C61.2722 37.0302 61.4156 41.4779 62.1127 43.7255C63.0779 46.8383 65.3753 49.9625 67.9504 51.6639C70.4677 53.3272 75.4597 54.6189 78.0445 54.2759C80.0854 54.0049 83.4109 53.2644 83.9999 52.9493C84.2769 52.8013 84.7364 52.6078 85.0217 52.5191C85.4966 52.3714 85.5401 51.7568 85.5401 45.1952V38.0325L90.6506 38.1137L95.761 38.1953V48.0178V57.8399L95.0204 58.2305C94.613 58.4452 93.8798 58.8778 93.391 59.1917C85.696 64.1334 73.2919 65.2015 65.0983 61.6283C61.7963 60.1883 57.9642 57.4789 56.264 55.3827C55.7242 54.7172 54.9764 53.8144 54.6019 53.3764C53.421 51.995 51.4791 47.6568 50.8344 44.9603C50.0547 41.698 49.9936 36.2548 50.7005 33.0243C51.5668 29.0658 53.7523 24.7824 56.3205 22.0082C57.371 20.8737 61.1036 17.7984 61.4301 17.7984C61.548 17.7984 61.8552 17.6209 62.1124 17.4041C62.6998 16.9089 66.4546 15.3647 68.8016 14.6531C72.3733 13.5701 80.2552 13.5138 83.8085 14.5459Z" fill="#5A554F"/>
<path d="M133.83 14.5706C136.102 15.1774 136.764 15.4317 139.254 16.6532C141.677 17.8416 141.914 18.0086 144.188 20.1233L146.399 22.1791L144.202 24.2319C140.857 27.3572 140.785 27.4251 139.947 28.1967L139.165 28.9172L138.066 27.8125C136.782 26.5217 134.059 24.647 133.469 24.647C133.244 24.647 132.915 24.5014 132.738 24.3233C132.561 24.1452 131.201 23.8171 129.716 23.5944C119.538 22.0659 111.752 28.6674 111.793 38.7909C111.824 46.5179 116.232 52.2112 123.461 53.8629C128.226 54.9512 133.062 53.7932 136.908 50.642C137.867 49.8559 138.821 49.0876 139.027 48.9349C139.289 48.7398 139.82 49.051 140.804 49.977C142.652 51.7154 143.552 52.5518 145.04 53.9138C146.219 54.9941 146.253 55.0715 145.818 55.7382C145.303 56.5285 143.078 58.506 141.533 59.5478C136.337 63.0502 128.456 64.5622 121.535 63.3843C119.289 63.0019 116.312 62.1554 115.22 61.5893C114.946 61.447 114.109 61.0158 113.362 60.6314C107.368 57.5498 103.002 52.0099 101.197 45.1928C100.358 42.0246 100.289 36.091 101.055 32.8865C102.408 27.2212 105.226 22.8008 109.754 19.241C111.791 17.6396 116.426 15.1185 117.333 15.1185C117.567 15.1185 118.341 14.902 119.054 14.6373C121.897 13.5826 129.995 13.546 133.83 14.5706Z" fill="#5A554F"/>
</svg>
