<svg width="318" height="80" viewBox="0 0 318 80" fill="none" xmlns="http://www.w3.org/2000/svg">
<path fill-rule="evenodd" clip-rule="evenodd" d="M15.0371 0.17977C11.8702 0.840355 9.47059 1.96515 6.60423 4.13248C3.2988 6.63217 0.926237 10.6876 0.254092 14.9874C0.0251588 16.4515 -0.0406284 23.5778 0.0229641 40.0229L0.112 63.0118L0.885879 65.1326C3.16802 71.3847 7.97258 75.6845 14.2622 77.104C15.9852 77.4926 18.6409 77.5529 34.056 77.5529C53.8958 77.5529 53.7197 77.5674 57.9082 75.5878C60.4494 74.3869 64.7256 70.1824 65.8841 67.7458C67.9038 63.4979 67.8081 64.3124 67.9077 50.5479L67.9981 38.084L67.3694 37.0022C67.0235 36.4072 66.3895 35.6594 65.9604 35.3403C65.2011 34.7758 64.8619 34.7581 53.3583 34.6828L41.5367 34.6049L36.9962 39.1144L32.456 43.6235L45.9348 43.6955L59.4137 43.7673V50.21C59.4137 55.875 59.3445 56.9025 58.841 58.7242C57.7119 62.8088 55.407 65.5527 51.4665 67.5037L49.3508 68.5513H33.991H18.6315L16.5578 67.5447C12.5996 65.6234 10.1693 62.8201 9.09513 58.9375C8.56565 57.0239 8.53965 56.1046 8.53965 39.3758C8.53965 19.6378 8.5062 20.0164 10.5558 16.5686C12.4346 13.4089 14.0857 11.9315 16.9242 10.8713L19.3341 9.97109L41.7933 9.97025L64.2522 9.96971L69.2235 4.9847L74.1945 0L44.8924 0.0321199C28.7762 0.0498463 15.3413 0.116066 15.0371 0.17977ZM78.2863 6.66569C78.2509 10.1797 78.127 13.2189 78.0111 13.4194C77.895 13.6202 75.1564 14.6326 71.9248 15.6693C68.6935 16.706 66.0494 17.6441 66.0494 17.7543C66.0494 17.8646 66.5778 18.0441 67.2234 18.1535C68.2055 18.3197 74.8183 20.5258 77.4496 21.5653L78.205 21.8636L78.2791 28.4445L78.3532 35.0257L79.2581 33.6123C79.7561 32.8351 80.4205 31.9028 80.7351 31.5408C81.0498 31.1788 82.3009 29.4806 83.5152 27.767L85.7235 24.651L86.8771 24.8338C87.5113 24.9341 90.2511 25.8066 92.9654 26.7724C95.68 27.7382 98.0118 28.5284 98.1479 28.5284C98.3718 28.5284 97.6889 27.5233 95.7438 24.9912C95.3611 24.4929 94.2306 22.8726 93.2319 21.3905C92.2329 19.9084 91.2508 18.5615 91.049 18.3975C90.7556 18.159 90.984 17.6474 92.1903 15.8427C93.0195 14.6016 93.6983 13.5033 93.6983 13.402C93.6983 13.3009 94.3539 12.3941 95.1552 11.3867C97.7777 8.0907 98.4559 7.16645 98.3381 7.04845C98.2742 6.98447 95.618 7.81347 92.435 8.89034C89.2521 9.96722 86.4908 10.869 86.2989 10.8945C85.9671 10.9383 83.7735 7.97716 80.2435 2.72045C79.356 1.39845 78.5669 0.308002 78.4903 0.296923C78.4134 0.285844 78.3217 3.15198 78.2863 6.66569ZM24.2995 17.1744C21.0187 17.7688 18.725 19.5514 17.3235 22.5956C16.6964 23.9578 16.6961 23.963 16.6961 38.638C16.6961 52.3524 16.7306 53.4174 17.2222 54.8322C17.8573 56.6605 19.9061 58.8297 21.9494 59.8373L23.3318 60.519H33.9767H44.6215L45.856 59.8598C47.7425 58.8524 49.3414 57.39 50.1167 55.9633C50.777 54.7479 51.4787 51.6929 51.1688 51.3824C51.0908 51.3043 45.8386 51.2403 39.4976 51.2403C28.0838 51.2403 27.9608 51.2342 27.2052 50.639C26.7855 50.308 26.2115 49.5292 25.9297 48.9079C25.4655 47.8834 25.4176 46.9517 25.4176 38.915C25.4176 30.901 25.4663 29.9457 25.9256 28.9439C26.5297 27.626 27.1463 27.0355 28.5171 26.4616C29.3654 26.1065 31.0995 26.0356 38.9175 26.0356H48.2999L52.7508 21.5799C55.1989 19.1295 57.2017 17.0846 57.2017 17.0359C57.2017 16.834 25.4406 16.9675 24.2995 17.1744ZM82.6252 39.9669C80.2134 40.6524 78.5392 42.0603 77.3266 44.4223C76.5123 46.008 76.4941 49.2168 77.2892 50.9775C78.1162 52.8083 79.4185 54.1583 81.206 55.0377C82.5727 55.7099 83.1013 55.8104 85.2712 55.8104C87.5362 55.8104 87.9366 55.7259 89.6259 54.8928L91.4864 53.9755V50.8074V47.6397H89.8275H88.1685V49.8283V52.017L87.2979 52.3211C84.9275 53.149 81.7053 52.0513 80.836 50.1203C80.1376 48.5684 80.3566 45.6906 81.2455 44.7428C82.3902 43.5222 84.1404 42.8494 85.8098 42.9882C87.127 43.0976 87.6233 43.3133 89.1678 44.4484C89.4368 44.6461 89.8369 44.4259 90.6473 43.633L91.7582 42.5464L91.1383 41.8803C89.4426 40.058 85.4559 39.162 82.6252 39.9669ZM100.472 39.8498C98.1675 40.4632 95.9329 42.3109 94.8336 44.5126C94.0138 46.1545 94.0127 49.548 94.8313 51.106C95.6567 52.6759 97.2078 54.2173 98.8134 55.0631C100.015 55.696 100.521 55.7899 102.684 55.7816C105.674 55.77 107.086 55.2252 108.813 53.4162C110.614 51.5292 111.209 50.1344 111.209 47.7967C111.209 46.2695 111.06 45.5086 110.566 44.5182C109.713 42.8067 107.951 41.0493 106.417 40.3802C105.055 39.7861 101.802 39.4958 100.472 39.8498ZM158.6 39.8913C156.148 40.5109 154.088 42.1957 152.879 44.5694C152.038 46.2218 152.087 49.4242 152.981 51.1913C153.771 52.7551 155.73 54.643 157.203 55.2609C159.753 56.3311 163.895 55.9401 166.208 54.4109L167.244 53.7254V50.6825C167.244 48.8517 167.134 47.6319 166.968 47.62C166.816 47.6089 166.101 47.5909 165.378 47.5796L164.065 47.5591L163.984 49.6956L163.903 51.8325L162.956 52.2289C161.554 52.8155 160.063 52.7127 158.474 51.9195C156.897 51.132 156.315 50.418 156.036 48.9248C155.715 47.2101 156.113 45.5599 157.076 44.6168C158.964 42.7677 161.805 42.4611 163.939 43.8761L165.048 44.6112L166.141 43.7019C166.743 43.2017 167.237 42.643 167.239 42.4605C167.246 42.0212 165.684 40.8441 164.358 40.2893C163.061 39.7462 160.009 39.5354 158.6 39.8913ZM114.159 47.7782V55.6719H119.965H125.771V54.1486V52.6252H121.762H117.753V46.2548V39.8844H115.956H114.159V47.7782ZM127.983 47.805V55.7257L132.891 55.6229C137.128 55.534 137.968 55.4415 139.043 54.9474C140.736 54.168 141.888 53.1418 142.821 51.5816C143.527 50.4014 143.605 50.0228 143.605 47.7782C143.605 45.3707 143.57 45.2311 142.578 43.7036C140.57 40.6089 138.632 39.8844 132.363 39.8844H127.983V47.805ZM170.569 44.8007C170.577 50.3449 170.784 51.6281 171.948 53.3221C174.203 56.6056 180.447 56.8125 183.114 53.6918C184.48 52.0926 184.663 51.0869 184.663 45.184V39.8844H182.866H181.069V45.248C181.069 50.1615 181.023 50.6698 180.525 51.304C179.253 52.9238 176.65 53.0349 175.15 51.5331L174.295 50.677L174.205 45.2807L174.114 39.8844H172.339H170.562L170.569 44.8007ZM192.564 41.2011C192.271 41.924 191.556 43.5363 190.974 44.7838C190.392 46.0313 189.917 47.1156 189.917 47.1937C189.917 47.2716 189.188 48.9307 188.297 50.8806C185.926 56.07 185.945 55.6719 188.065 55.6719H189.844L190.564 54.0101L191.283 52.3482H194.893H198.503L199.223 54.0101L199.942 55.6719H201.828H203.713L203.283 54.6333C203.047 54.0622 202.564 52.9714 202.21 52.2098C201.136 49.9034 198.514 44.0268 197.606 41.8924L196.752 39.8844L194.924 39.8855L193.096 39.8863L192.564 41.2011ZM205.4 47.7782V55.6719H207.197H208.994V53.4561V51.2403H210.757H212.519L213.971 53.4561L215.423 55.6719H217.34C218.798 55.6719 219.208 55.5888 219.054 55.3257C218.271 53.9874 216.588 51.5957 216.227 51.3057C215.842 50.9971 215.913 50.8542 216.824 50.1017C219.665 47.756 219.676 43.6551 216.849 41.3205C215.436 40.1536 214.044 39.8844 209.425 39.8844H205.4V47.7782ZM226.214 41.8924C225.279 44.0744 222.292 50.8063 220.928 53.8024L220.077 55.6719H221.978H223.88L224.524 54.0032L225.169 52.3344L228.857 52.4105L232.545 52.4867L233.187 54.0101L233.828 55.5334L235.65 55.6154C236.894 55.6711 237.473 55.5955 237.473 55.3764C237.473 55.2 236.92 53.8544 236.244 52.3864C233.683 46.8231 230.837 40.3743 230.837 40.1342C230.837 39.9968 229.99 39.8844 228.955 39.8844H227.073L226.214 41.8924ZM239.408 47.7643V55.6719H241.199H242.989L243.065 50.9318L243.141 46.1916L245.072 48.6467C246.134 49.997 247.088 51.1401 247.192 51.1866C247.296 51.2334 248.146 52.2616 249.08 53.4717L250.78 55.6719H252.283H253.786V47.7782V39.8844H251.988H250.191L250.178 44.6622L250.165 49.44L249.418 48.4831C249.007 47.9565 248.048 46.7957 247.288 45.9036C246.528 45.0112 245.146 43.323 244.218 42.152L242.531 40.0229L240.969 39.9398L239.408 39.8567V47.7643ZM255.997 41.4077V42.9311H258.486H260.974V49.3015V55.6719H262.771H264.569V49.3015V42.9311H267.057H269.545V41.4077V39.8844H262.771H255.997V41.4077ZM271.757 47.7782V55.6719H277.84H283.923V54.1486V52.6252H279.637H275.352V50.9634V49.3015H278.946H282.54V47.7782V46.2548H278.946H275.352V44.5929V42.9311H279.499H283.646V41.4077V39.8844H277.702H271.757V47.7782ZM286.964 47.7782V55.6719H293.047H299.13V54.1486V52.6252H294.844H290.559V50.9634V49.3015H294.153H297.747V47.7782V46.2548H294.153H290.559V44.5929V42.9311H294.706H298.853V41.4077V39.8844H292.909H286.964V47.7782ZM302.171 47.7513V55.6719H306.545C312.738 55.6719 314.768 54.9274 316.854 51.8912C317.658 50.7202 317.773 50.3144 317.88 48.2789C317.988 46.2202 317.925 45.8319 317.263 44.4774C316.421 42.7524 315.061 41.4448 313.245 40.6128C312.156 40.1143 311.325 40.0226 307.079 39.9334L302.171 39.8306V47.7513ZM104.559 43.3117C106.597 44.1839 107.523 45.587 107.523 47.805C107.523 49.5984 106.914 50.8094 105.56 51.7068C104.59 52.3502 104.085 52.4867 102.681 52.4867C99.7728 52.4867 97.8457 50.6653 97.8457 47.9166C97.8457 44.375 101.379 41.9512 104.559 43.3117ZM137.254 43.3324C139.221 44.1556 140.385 46.3265 140.035 48.5191C139.777 50.1341 139.333 50.8783 138.129 51.7151C137.131 52.4083 136.742 52.4964 134.298 52.582L131.577 52.677V47.8042V42.9311H133.936C135.371 42.9311 136.671 43.0884 137.254 43.3324ZM214.551 43.7914C215.455 44.7602 215.585 45.8346 214.947 47.0694C214.429 48.0734 213.278 48.4706 210.889 48.4706H208.994V45.7008V42.9311H211.372C213.675 42.9311 213.774 42.9579 214.551 43.7914ZM312.3 43.8313C313.894 44.8987 314.442 46.1761 314.266 48.4127C314.131 50.1313 313.497 51.1174 311.961 51.9976C311.065 52.5105 310.456 52.6169 308.392 52.6205L305.904 52.6247V47.7779V42.9308H308.43C310.82 42.9311 311.029 42.9796 312.3 43.8313ZM196.421 47.0857C196.822 48.0759 197.215 49.042 197.295 49.2323C197.406 49.4946 196.832 49.5785 194.927 49.5785H192.413L192.979 48.1244C193.291 47.3245 193.856 45.9859 194.235 45.1494L194.924 43.6285L195.308 44.457C195.52 44.9126 196.02 46.0955 196.421 47.0857ZM229.269 44.3852C229.351 44.5758 229.854 45.8222 230.385 47.155L231.353 49.5785H228.853C226.721 49.5785 226.378 49.5162 226.517 49.1539C227.303 47.1012 228.733 44.039 228.905 44.039C229.023 44.039 229.186 44.1949 229.269 44.3852ZM249.966 65.1583C250.039 65.9084 250.18 66.0732 250.813 66.146C251.517 66.2272 251.574 66.1601 251.574 65.2459C251.574 64.3285 251.513 64.2582 250.727 64.2582C249.938 64.2582 249.886 64.3196 249.966 65.1583ZM311.07 65.1583C311.147 65.9546 311.253 66.0585 311.987 66.0585C312.72 66.0585 312.826 65.9546 312.902 65.1583C312.986 64.2922 312.951 64.2582 311.987 64.2582C311.022 64.2582 310.987 64.2922 311.07 65.1583ZM212.125 66.6506C211.146 66.8678 209.061 68.8936 208.705 69.9738C207.874 72.4987 209.059 75.6247 211.279 76.7591C213.627 77.9593 216.9 77.1633 218.295 75.0524C219.374 73.4186 219.514 70.9457 218.614 69.4085C217.547 67.5871 216.223 66.7188 214.347 66.6108C213.456 66.5593 212.456 66.5775 212.125 66.6506ZM232.081 66.8675C231.625 67.0722 230.854 67.6361 230.369 68.1206C227.93 70.5541 228.652 75.1812 231.713 76.7459C233.272 77.5427 235.875 77.4081 237.258 76.4589C240.77 74.0476 240.355 68.7413 236.516 66.9947C235.206 66.3981 233.253 66.3421 232.081 66.8675ZM293.963 67.014C292.852 67.6926 292.494 68.3624 292.494 69.7594C292.494 71.1684 293.255 71.8082 295.877 72.6062C298.112 73.2864 298.766 74.0849 297.887 75.0591C297.221 75.7952 295.772 75.7784 294.2 75.0158C293.005 74.4364 292.954 74.4339 292.592 74.9303C292.386 75.2122 292.218 75.5457 292.218 75.6712C292.218 76.0047 293.892 76.9943 294.775 77.1829C295.193 77.2721 295.535 77.502 295.535 77.6937C295.535 77.8853 295.784 78.1075 296.088 78.1872C296.393 78.2667 296.641 78.5307 296.641 78.7733C296.641 79.2203 296.367 79.3228 295.436 79.2242C295.116 79.1904 294.967 79.3095 295.042 79.5383C295.203 80.0272 296.57 80.1728 297.073 79.7549C297.604 79.3131 297.577 78.4063 297.013 77.7825C296.581 77.3034 296.597 77.276 297.317 77.276C297.815 77.276 298.405 76.9494 299.019 76.3342C299.787 75.5648 299.959 75.1815 299.959 74.2387C299.959 73.6041 299.825 72.8333 299.66 72.5256C299.289 71.8312 297.341 70.9197 296.21 70.9116C294.488 70.8992 293.611 69.3357 294.864 68.5131C295.599 68.0306 297.526 68.1607 298.223 68.7402C298.494 68.9659 298.727 68.9166 299.135 68.5466C299.918 67.8367 299.83 67.6215 298.508 67.0204C296.979 66.3252 295.095 66.3227 293.963 67.014ZM76.2143 67.6511C76.5073 68.146 77.0396 69.0498 77.3973 69.6592C77.7548 70.2685 78.1229 70.8294 78.2149 70.9055C78.307 70.9817 78.6556 71.495 78.9899 72.0461C79.4752 72.8466 79.5974 73.4737 79.5974 75.1621V77.276H80.4268H81.2563V75.0987C81.2563 72.9646 81.2829 72.8804 82.5882 70.8748C83.3206 69.7492 84.2017 68.361 84.546 67.7896L85.1722 66.7509H84.1893C83.2515 66.7509 83.1483 66.8523 81.9307 68.9667C81.2289 70.1854 80.543 71.1825 80.4064 71.1825C80.2695 71.1825 79.5794 70.1854 78.8724 68.9667C77.6592 66.8747 77.5342 66.7509 76.6342 66.7509H75.6815L76.2143 67.6511ZM87.9465 68.759C87.4781 69.8633 86.4656 72.1943 85.6964 73.9387C84.927 75.6831 84.2977 77.1475 84.2977 77.1932C84.2977 77.2386 84.7229 77.276 85.2425 77.276C86.1076 77.276 86.2276 77.1707 86.6625 76.0296L87.1378 74.7832H89.7365H92.3355L92.8689 76.0296C93.3336 77.1156 93.5101 77.276 94.2414 77.276C94.7031 77.276 95.0808 77.1909 95.0808 77.0871C95.0808 76.8176 93.025 71.86 92.2307 70.2131C91.863 69.4514 91.396 68.361 91.1925 67.7896C90.8563 66.8459 90.7297 66.7509 89.8103 66.7509C88.8166 66.7509 88.7826 66.7872 87.9465 68.759ZM96.1867 67.5818V68.4128H99.0995C102.383 68.4128 102.403 68.4394 100.559 70.3516C98.5513 72.4333 96.1867 75.7726 96.1867 76.5257V77.276H100.472H104.758V76.4542V75.6324L101.71 75.554L98.6624 75.4756L99.8002 73.9523C100.426 73.1144 101.331 71.9971 101.811 71.4692C103.721 69.3711 104.476 68.2505 104.479 67.5126L104.481 66.7509H100.334H96.1867V67.5818ZM106.97 72.0135V77.276H107.799H108.629V72.0135V66.7509H107.799H106.97V72.0135ZM111.394 72.0135V77.276H114.711H118.029V76.4558V75.6357L115.61 75.5557L113.191 75.4756L113.115 71.1133L113.038 66.7509H112.216H111.394V72.0135ZM119.965 72.0135V77.276H120.794H121.624V72.0135V66.7509H120.794H119.965V72.0135ZM124.389 72.0135V77.276H125.218H126.048V73.3983C126.048 71.2656 126.141 69.5248 126.255 69.5298C126.369 69.5348 127.209 71.0299 128.121 72.8521C130.313 77.2291 130.362 77.2267 132.604 72.6281L134.322 69.1052L134.332 73.1906L134.342 77.276H135.16H135.978L136.059 72.0132L136.139 66.7504L134.741 66.7507C133.359 66.7509 133.337 66.7648 132.841 67.9281C132.352 69.0759 130.486 72.8995 130.334 73.0665C130.292 73.1128 129.551 71.7104 128.687 69.9505L127.116 66.7509H125.753H124.389V72.0135ZM142.084 67.0177C142.084 67.3124 142.996 69.7384 143.603 71.0562C143.817 71.5201 144.359 72.8912 144.81 74.1029C145.26 75.315 145.715 76.5245 145.821 76.7913C145.957 77.1319 146.313 77.2729 147.021 77.2657L148.028 77.2552L149.894 72.4879C150.92 69.8658 151.835 67.5024 151.928 67.2356C152.067 66.8362 151.932 66.7509 151.16 66.7509H150.224L148.605 70.6191L146.986 74.4874L145.754 71.5193C145.077 69.8868 144.389 68.146 144.225 67.6511C143.968 66.8753 143.799 66.7509 143.005 66.7509C142.498 66.7509 142.084 66.8709 142.084 67.0177ZM153.696 72.0135V77.276H157.363H161.029L161.063 76.445L161.097 75.6141H158.226H155.355V74.0908V72.5674H157.844C160.314 72.5674 160.332 72.5621 160.332 71.875C160.332 71.4941 160.239 71.1767 160.125 71.1698C160.011 71.1626 158.891 71.1446 157.636 71.1296L155.355 71.1025V69.7575V68.4128H158.12H160.885V67.5818V66.7509H157.291H153.696V72.0135ZM166.415 67.5818C166.415 68.4045 166.43 68.4128 167.936 68.4128H169.456V72.8444V77.276H170.424H171.392V72.8444V68.4128H172.912C174.418 68.4128 174.433 68.4045 174.433 67.5818V66.7509H170.424H166.415V67.5818ZM176.369 72.0135V77.276H180.101H183.834V76.4548V75.6335L181 75.5546L178.166 75.4756V74.0908V72.7059L180.588 72.5674C181.92 72.4912 183.009 72.3353 183.007 72.2212C183.006 72.1071 183.005 71.7955 183.005 71.5287C183.005 71.0983 182.744 71.054 180.665 71.1332C178.375 71.2207 178.321 71.208 178.153 70.5383C178.059 70.1619 178.023 69.5609 178.074 69.2027C178.163 68.5732 178.261 68.5485 181 68.4723L183.834 68.3934V67.5721V66.7509H180.101H176.369V72.0135ZM186.046 72.0135V77.276H186.875C187.702 77.276 187.705 77.2702 187.705 75.6659C187.705 74.2644 187.805 73.9597 188.479 73.3133L189.252 72.5707L190.96 74.9233C192.554 77.1195 192.734 77.276 193.659 77.276C194.374 77.276 194.594 77.1799 194.448 76.9297C194.074 76.2874 191.234 72.1555 190.878 71.7365C190.58 71.3855 190.843 70.9765 192.564 69.1052L194.602 66.8894L193.587 66.8002C192.633 66.7163 192.431 66.8573 190.208 69.1545L187.843 71.598L187.763 69.1745L187.683 66.7509H186.864H186.046V72.0135ZM196.552 72.0135V77.276H197.382H198.211L198.215 73.4676L198.219 69.6592L199.252 70.8125C199.82 71.4467 201.156 73.1565 202.22 74.612C204.064 77.133 204.205 77.2588 205.193 77.2671L206.229 77.276V72.0135V66.7509H205.269H204.309L204.233 70.5222L204.156 74.2932L203.226 72.9959C202.715 72.2821 201.987 71.3642 201.609 70.9557C201.23 70.5471 200.349 69.4343 199.651 68.482C198.537 66.9639 198.268 66.7509 197.467 66.7509H196.552V72.0135ZM221.436 72.0135V77.276H224.754H228.072V76.445V75.6141H225.722H223.372V71.1825V66.7509H222.404H221.436V72.0135ZM242.016 67.3741C242.08 67.7167 242.141 68.0909 242.153 68.205C242.164 68.3192 242.857 68.4128 243.694 68.4128H245.214V71.555C245.214 74.2475 245.142 74.763 244.709 75.1557C244.064 75.7399 243.432 75.7357 242.427 75.141C241.661 74.6882 241.61 74.691 241.217 75.2103C240.639 75.9764 240.679 76.1063 241.689 76.7414C243.04 77.5911 245.359 77.3687 246.203 76.3085C247.029 75.2709 247.15 74.5068 247.15 70.317V66.7509H244.525C241.953 66.7509 241.902 66.7634 242.016 67.3741ZM249.915 72.0135V77.276H250.744H251.574V72.0135V66.7509H250.744H249.915V72.0135ZM258.762 72.0135V77.276H261.942H265.122V76.445V75.6141H262.771H260.421V71.1825V66.7509H259.592H258.762V72.0135ZM264.845 67.5818C264.845 68.4045 264.861 68.4128 266.366 68.4128H267.887V72.8444V77.276H268.854H269.822V72.8444V68.4128H271.343C272.848 68.4128 272.863 68.4045 272.863 67.5818V66.7509H268.854H264.845V67.5818ZM274.799 71.9827V77.276L277.08 77.2743C281.211 77.2715 283.023 76.3501 283.81 73.8506C284.637 71.221 283.805 68.6881 281.71 67.4608C280.94 67.0099 280.138 66.8736 277.771 66.7922L274.799 66.6897V71.9827ZM301.065 67.5818V68.4128H302.724H304.383V72.8444V77.276H305.213H306.042V72.8444V68.4128H307.563C309.068 68.4128 309.083 68.4045 309.083 67.5818V66.7509H305.074H301.065V67.5818ZM311.295 72.0135V77.276H312.125H312.954V72.0135V66.7509H312.125H311.295V72.0135ZM216.21 69.1312C217.445 70.3164 217.761 71.6966 217.16 73.2742C216.352 75.3931 214.052 76.2428 212 75.1804C211.121 74.7247 210.117 72.9288 210.106 71.7919C210.095 70.6219 211.401 68.7936 212.589 68.3167C213.547 67.9322 215.393 68.3474 216.21 69.1312ZM236.637 69.0994C239.068 71.4324 237.567 75.6161 234.301 75.613C231.61 75.6105 229.748 72.7186 230.949 70.407C231.371 69.5946 232.388 68.582 233.049 68.3167C233.987 67.94 235.853 68.3471 236.637 69.0994ZM280.601 68.898C281.765 69.4827 282.255 70.3774 282.26 71.9312C282.268 74.3777 281.219 75.3471 278.341 75.5535L276.458 75.6886V72.0506V68.4128L278.047 68.4133C279.009 68.4133 280.019 68.6053 280.601 68.898ZM91.4358 72.9873C91.3467 73.0765 90.5195 73.1119 89.5974 73.0662L87.9205 72.9829L88.805 70.9911L89.6892 68.9991L90.6434 70.9122C91.1684 71.9644 91.5248 72.8981 91.4358 72.9873ZM286.467 75.3925C285.484 76.3763 286.624 77.8992 287.751 77.1087C288.457 76.6134 288.509 76.093 287.912 75.4953C287.393 74.9749 286.917 74.9411 286.467 75.3925ZM315.498 75.3925C314.991 75.9002 315.101 76.6453 315.751 77.1009C316.486 77.6164 317.058 77.4092 317.273 76.5495C317.565 75.3848 316.317 74.5719 315.498 75.3925Z" fill="#5A554F"/>
</svg>
