<svg width="506" height="120" viewBox="0 0 506 120" fill="none" xmlns="http://www.w3.org/2000/svg">
<path d="M56.8002 0.716937C57.1003 1.36896 57.2657 1.34736 57.5713 0.616964C57.9204 -0.217807 58.6575 -0.203206 59.1016 0.646961L59.4306 1.27699L59.8334 0.646961C60.3353 -0.137824 61.0425 -0.197813 61.3714 0.516992C61.4981 0.791917 61.679 1.01686 61.7737 1.01686C61.8682 1.01686 62.0673 0.791917 62.216 0.516992C62.61 -0.212009 63.3869 -0.158223 63.6599 0.616964C63.917 1.34756 64.085 1.36896 64.4374 0.716937C64.8554 -0.0562514 65.7434 0.026526 66.0441 0.866896L66.2767 1.51672L66.6866 0.966869C67.2474 0.214275 67.9478 0.236469 68.2743 1.01686C68.4123 1.34676 68.5641 1.61669 68.6114 1.61669C68.6588 1.61669 68.903 1.38015 69.1542 1.09122C69.738 0.419208 70.4099 0.574785 70.5987 1.42575C70.7589 2.14735 70.8021 2.15113 71.3756 1.49111C71.9594 0.819099 72.6313 0.974675 72.8201 1.82564C72.9784 2.53925 73.2097 2.57362 73.6255 1.94519C73.8547 1.59908 74.0703 1.49893 74.4379 1.56851C74.7133 1.6207 74.9385 1.73686 74.9385 1.82684C74.9385 1.91701 75.0292 2.22653 75.1401 2.51525L75.3414 3.03969L75.8081 2.50246C76.438 1.77766 77.0945 1.9674 77.2762 2.92673L77.4065 3.61453L77.9846 3.13288C78.7544 2.49145 79.3306 2.64561 79.4998 3.53816C79.6491 4.32635 79.7155 4.35055 80.2824 3.82309C80.8991 3.24965 81.5322 3.48159 81.695 4.34075L81.8252 5.02836L82.4155 4.61228C83.1855 4.06943 83.8241 4.34615 83.8241 5.22271C83.8241 5.91272 83.9464 5.9441 84.6254 5.42744C85.3187 4.89998 85.8435 5.19932 85.8435 6.12246C85.8435 6.91725 85.9936 6.97062 86.6941 6.42497C87.1487 6.07087 87.2353 6.06267 87.6299 6.3364C87.914 6.53334 88.0649 6.85006 88.0649 7.24955V7.86098L88.5888 7.52108C88.9109 7.31214 89.2998 7.22775 89.5985 7.30193C89.9953 7.4005 90.0844 7.55028 90.0844 8.11872C90.0844 8.9147 90.1189 8.9325 90.8035 8.48842C91.2712 8.1851 91.3336 8.18649 91.6955 8.5108C91.9782 8.76413 92.0527 9.01748 91.9681 9.43696C91.8384 10.0784 91.9689 10.1296 92.7064 9.72526C93.4385 9.32397 93.9213 9.64889 93.9213 10.5426C93.9213 11.1445 93.9768 11.2343 94.2747 11.1129C95.5019 10.6126 96.0203 10.8903 95.8212 11.9415C95.678 12.697 95.735 12.7292 96.5098 12.3326C96.9749 12.0944 97.1167 12.0932 97.4364 12.3248C97.7314 12.5383 97.7878 12.7562 97.6949 13.3233C97.5919 13.9513 97.6219 14.0299 97.9196 13.9083C99.1335 13.4125 99.6788 13.7066 99.481 14.7503C99.3405 15.4927 99.3395 15.4919 100.096 15.2074C100.892 14.9075 101.423 15.4131 101.182 16.2433L101.008 16.8445L101.772 16.7168C102.781 16.548 103.148 16.9309 102.833 17.8249L102.614 18.4457L103.383 18.3171C104.403 18.1466 104.764 18.5277 104.444 19.4374C104.321 19.7861 104.22 20.0966 104.22 20.1274C104.22 20.1584 104.514 20.1004 104.872 19.9987C105.403 19.8479 105.594 19.8829 105.902 20.1882C106.206 20.4891 106.237 20.6437 106.058 20.9738C105.68 21.673 105.782 21.8394 106.505 21.705C107.559 21.5092 107.857 22.0491 107.356 23.251C107.234 23.5429 107.311 23.5757 107.897 23.4815C108.979 23.3078 109.27 23.8452 108.76 25.0743C108.626 25.3986 108.687 25.4238 109.326 25.3052C109.924 25.194 110.079 25.2408 110.268 25.5893C110.442 25.9124 110.422 26.142 110.179 26.608L109.865 27.2097H110.664C111.557 27.2097 111.888 27.6748 111.502 28.3886C111.162 29.0172 111.247 29.1701 111.917 29.1386C112.809 29.0968 113.117 29.6234 112.661 30.4126L112.317 31.0086H113.007C113.917 31.0086 114.294 31.6089 113.827 32.3147C113.398 32.9631 113.417 33.0081 114.12 33.0081C114.934 33.0081 115.367 33.8119 114.855 34.3727C114.335 34.9412 114.449 35.2075 115.213 35.2075C116.125 35.2075 116.334 35.7699 115.731 36.6073L115.3 37.207H115.99C116.508 37.207 116.732 37.3187 116.889 37.6568C117.064 38.0295 117.012 38.1993 116.59 38.646L116.08 39.1852L116.663 39.3124C116.984 39.3826 117.36 39.4743 117.498 39.5167C117.889 39.6361 117.797 40.4321 117.335 40.9185L116.919 41.3568L117.626 41.4882C118.535 41.6569 118.77 42.2574 118.174 42.8854C117.621 43.4684 117.637 43.5488 118.348 43.7032C119.14 43.8755 119.335 44.4992 118.779 45.0848C118.226 45.6678 118.243 45.7482 118.953 45.9026C119.826 46.0923 119.97 46.7551 119.268 47.3528C118.643 47.8854 118.641 47.879 119.467 48.1422C120.292 48.4051 120.38 49.0859 119.661 49.6458L119.117 50.0692L119.848 50.3576C120.757 50.7167 120.84 51.3873 120.039 51.9067L119.5 52.2562L120.09 52.556C120.802 52.9179 120.704 52.8201 120.862 53.3292C120.966 53.6649 120.853 53.8446 120.332 54.1743L119.669 54.5932L120.309 54.8355C121.216 55.1784 121.337 55.9344 120.556 56.3745C119.824 56.7862 119.827 56.8936 120.578 57.2015C121.382 57.531 121.407 58.2726 120.629 58.6763L120.074 58.9642L120.629 59.2147C121.033 59.3971 121.184 59.6104 121.184 60.0007C121.184 60.391 121.033 60.6044 120.629 60.7867L120.074 61.0372L120.629 61.3252C121.407 61.7288 121.382 62.4704 120.578 62.7999C119.84 63.1025 119.819 63.2662 120.477 63.5633C121.266 63.9192 121.179 64.838 120.326 65.1577L119.669 65.4038L120.275 65.7981C120.608 66.0151 120.872 66.284 120.861 66.3958C120.85 66.5075 120.827 66.7229 120.81 66.8746C120.793 67.0262 120.494 67.2673 120.145 67.4105L119.511 67.6708L120.062 68.1061C120.823 68.7071 120.706 69.3884 119.79 69.6927L119.102 69.9206L119.654 70.3499C120.38 70.9155 120.296 71.5953 119.467 71.8593C118.641 72.1224 118.643 72.116 119.268 72.6486C119.97 73.2463 119.826 73.9091 118.953 74.0989C118.249 74.252 118.213 74.4064 118.769 74.9046C119.364 75.4371 119.201 76.0441 118.404 76.2695C118.041 76.372 117.703 76.4152 117.652 76.3654C117.602 76.3154 117.823 75.2239 118.144 73.9399C119.34 69.1528 119.67 66.0944 119.661 59.9007C119.654 55.1124 119.587 53.8828 119.198 51.4031C117.799 42.4803 114.718 34.6648 109.617 27.0953C107.703 24.2555 105.896 22.0791 103.01 19.1357C93.8763 9.82125 82.3697 3.97484 69.2849 2.00018C65.7458 1.46613 58.9845 1.27239 55.4238 1.6029C34.6764 3.52957 16.8065 15.6231 7.68907 33.9079C4.7538 39.7944 2.97649 45.3963 2.0114 51.803C1.34498 56.2267 1.34054 63.7007 2.00171 68.1581C2.53868 71.7773 3.52759 75.795 4.78106 79.4494C5.80008 82.42 8.6774 88.3683 10.4129 91.0922C13.5586 96.0295 17.6629 100.721 22.4329 104.831L23.7455 105.962L23.0387 106.259C22.0843 106.66 21.6017 106.285 21.7677 105.273L21.8793 104.591L21.2432 104.811C20.3571 105.117 19.9326 104.757 20.1051 103.848L20.2313 103.181L19.4544 103.304C18.4675 103.46 18.0834 103.098 18.3897 102.301C18.6809 101.542 18.6795 101.54 17.8227 101.683C16.8424 101.847 16.4684 101.497 16.7742 100.701C17.0666 99.939 17.0563 99.9252 16.2861 100.049C15.3933 100.193 15.071 99.837 15.2479 98.9037C15.3785 98.2139 15.3779 98.2133 14.7061 98.3212C13.8131 98.4648 13.3823 98.0079 13.7196 97.2751C14.0604 96.5345 14.0178 96.4633 13.2835 96.5483C12.3956 96.6509 11.9766 96.1912 12.3059 95.4756C12.6565 94.7138 12.5937 94.59 11.9233 94.7228C11.0323 94.8994 10.6665 94.3671 11.0517 93.4545L11.3313 92.7917H10.5345C9.57404 92.7917 9.29959 92.2933 9.82384 91.5013C10.1783 90.9656 10.1389 90.9289 9.27051 90.9846C8.49201 91.0346 8.18182 90.3926 8.59864 89.5944L8.91287 88.9928H8.24947C7.26277 88.9928 6.92976 88.3707 7.49541 87.5842L7.9203 86.9933H7.20684C6.20257 86.9933 5.86755 86.3701 6.45137 85.5881C6.81063 85.1073 6.82496 85.0145 6.55597 84.9123C6.38452 84.8473 6.07312 84.7939 5.8639 84.7939C5.65489 84.7939 5.38185 84.6056 5.25745 84.3752C5.07166 84.0317 5.1068 83.8766 5.45212 83.5125C6.01676 82.9174 5.98446 82.7945 5.26332 82.7945C4.80773 82.7945 4.59447 82.6673 4.42221 82.2926C4.22491 81.8641 4.25663 81.7218 4.63932 81.3185C5.03392 80.9026 5.04805 80.831 4.75705 80.7207C4.5755 80.6517 4.25863 80.5951 4.05305 80.5951C3.46822 80.5951 3.33919 79.8381 3.83496 79.3154C4.40101 78.719 4.37416 78.6354 3.56962 78.4859C2.64067 78.3133 2.47487 77.6907 3.16775 76.9749L3.67946 76.4458L2.98114 76.316C2.03603 76.1405 1.86137 75.4993 2.56191 74.7755L3.07363 74.2464L2.35309 74.1126C1.73716 73.9983 1.63255 73.8999 1.63255 73.436C1.63255 73.1099 1.7937 72.7938 2.03644 72.6437C2.60249 72.2936 2.5397 72.0508 1.84359 71.8995C0.956855 71.7065 0.827995 71.0463 1.55621 70.4263C1.87568 70.1539 2.04634 69.8998 1.93547 69.8616C0.633532 69.4117 0.261965 68.6572 1.11882 68.2033C1.7919 67.8466 1.76745 67.6244 1.02672 67.3687C0.238125 67.0966 0.209033 66.3852 0.964104 65.8405L1.50735 65.4488L0.863132 65.1189C0.0555547 64.7054 -0.0100655 63.9886 0.723802 63.5997C1.37931 63.2524 1.36033 63.1025 0.622829 62.7999C-0.164755 62.477 -0.207175 61.7293 0.540222 61.3416L1.06347 61.0702L0.540222 60.7307C-0.127811 60.2974 -0.136281 59.6614 0.521857 59.3645C0.799531 59.2393 1.02672 59.0756 1.02672 59.001C1.02672 58.9264 0.799531 58.7627 0.521857 58.6375C-0.216251 58.3046 -0.161322 57.523 0.622829 57.2015C1.36033 56.899 1.37931 56.749 0.723802 56.4017C-0.0100655 56.0128 0.0555547 55.296 0.863132 54.8825L1.50735 54.5526L0.964104 54.1609C0.187828 53.6009 0.238528 52.9058 1.07721 52.6113L1.73353 52.3806L1.16383 51.8893C0.458437 51.2809 0.529326 50.798 1.38234 50.3991L2.03583 50.0936L1.50976 49.573C0.847789 48.9176 0.990782 48.2875 1.84359 48.102C2.5708 47.9438 2.58352 47.8348 1.93628 47.3118C1.22604 46.7377 1.43484 46.0593 2.3753 45.8848L3.07363 45.755L2.56191 45.2259C1.86137 44.5021 2.03603 43.8609 2.98114 43.6854L3.67946 43.5556L3.16775 43.0266C2.48154 42.3175 2.64248 41.7279 3.58798 41.4874L4.30125 41.3058L3.86181 40.757C3.35897 40.129 3.46136 39.4063 4.05305 39.4063C4.25863 39.4063 4.5755 39.3498 4.75705 39.2808C5.04805 39.1704 5.03392 39.0988 4.63932 38.6829C4.25663 38.2796 4.22491 38.1373 4.42221 37.7088C4.59447 37.3341 4.80773 37.207 5.26332 37.207C5.98446 37.207 6.01676 37.084 5.45212 36.489C4.88062 35.8865 5.21445 35.2075 6.08241 35.2075C6.75873 35.2075 6.82212 35.0065 6.36391 34.3141C5.89115 33.5999 6.27325 33.0081 7.20684 33.0081H7.9203L7.52933 32.4583C6.9653 31.6655 7.29184 31.0086 8.24987 31.0086H8.94901L8.60187 30.484C8.32116 30.0599 8.29834 29.8646 8.48312 29.4631C8.68284 29.0288 8.79916 28.983 9.41287 29.097C10.1902 29.2413 10.2665 29.1136 9.7984 28.4518C9.30202 27.7499 9.59058 27.2425 10.5268 27.1707L11.3231 27.1097L11.0274 26.5481C10.5926 25.7223 10.9834 25.1433 11.8812 25.283C12.5961 25.3942 12.6563 25.287 12.3059 24.5258C11.9766 23.8102 12.3956 23.3505 13.2835 23.4531C14.0178 23.5381 14.0604 23.4669 13.7196 22.7263C13.3799 21.9881 13.808 21.54 14.6956 21.705C15.4131 21.8382 15.4787 21.7342 15.1754 20.9442C14.8959 20.216 15.4652 19.7535 16.3364 20.0009C17.0351 20.1992 17.0872 20.1158 16.7742 19.3004C16.4684 18.5045 16.8424 18.154 17.8227 18.3179C18.6795 18.4613 18.6809 18.4597 18.3897 17.7009C18.0852 16.9083 18.4586 16.5544 19.4281 16.7168L20.1913 16.8443L20.0806 16.1693C19.9342 15.2759 20.3922 14.8481 21.1358 15.1836C21.8616 15.5111 21.8923 15.4887 21.7673 14.7255C21.6124 13.781 21.9971 13.4752 22.9686 13.7706L23.6902 13.9897L23.565 13.3691C23.4777 12.9378 23.5399 12.6387 23.7685 12.3885C24.0664 12.0626 24.1514 12.0562 24.6688 12.3212C25.4521 12.7222 25.462 12.7161 25.462 11.8273C25.462 10.9483 25.9336 10.622 26.6527 11.0031C27.2377 11.313 27.2795 11.2809 27.2795 10.5213C27.2795 9.6495 27.7699 9.32817 28.4944 9.72526C29.2342 10.1308 29.3545 10.0796 29.2541 9.40277C29.1283 8.5534 29.7659 8.07872 30.443 8.518C31.1327 8.96548 31.3184 8.88271 31.3184 8.12831C31.3184 7.28854 31.8891 7.01541 32.6339 7.49848C33.3015 7.93156 33.3379 7.91218 33.3379 7.12219C33.3379 6.17885 33.9015 5.86772 34.6103 6.41977C35.2891 6.94843 35.3232 6.93304 35.3957 6.06547C35.449 5.42725 35.5361 5.30668 35.9805 5.25549C36.2709 5.2221 36.6179 5.33307 36.7625 5.50542C37.1548 5.97349 37.3186 5.88493 37.4622 5.12694C37.6306 4.23878 38.2405 4.01044 38.873 4.59888C39.3946 5.08395 39.5982 4.97376 39.5982 4.20597C39.5982 3.46258 40.3096 3.27923 41.0657 3.82768L41.6243 4.23277L41.7507 3.60755C41.9327 2.7068 42.5769 2.51743 43.2699 3.16146L43.8115 3.66493L43.9452 2.95912C44.1248 2.01178 44.7449 1.84323 45.481 2.54144L46.0202 3.05289L46.1604 2.42148C46.3639 1.50373 47.018 1.31617 47.7244 1.97299L48.2775 2.48725L48.4064 1.84942C48.5901 0.939464 49.3448 0.775932 49.9347 1.51833L50.3689 2.06496L50.6892 1.39356C51.11 0.511 51.6442 0.426017 52.2379 1.14702L52.707 1.71666L52.9621 1.06684C53.2892 0.233269 54.1295 0.153491 54.5421 0.916882C54.891 1.56251 55.0098 1.54671 55.2881 0.81691C55.5886 0.0285254 56.4569 -0.0288589 56.8002 0.716937Z" fill="#FEC267"/>
<path d="M113.93 85.4937C115.136 83.0032 116.875 78.632 117.253 77.1406C117.422 76.472 117.554 76.463 118.139 77.079C118.769 77.7437 118.556 78.3405 117.626 78.5133L116.919 78.6446L117.352 79.1005C118.005 79.7889 117.816 80.4145 116.875 80.6781L116.1 80.895L116.608 81.3665C117.038 81.7652 117.083 81.9101 116.901 82.3058C116.746 82.6421 116.489 82.7907 115.986 82.8341L115.287 82.8944L115.725 83.4433C116.253 84.1047 116.121 84.7925 115.465 84.7969C115.223 84.7987 114.892 84.8831 114.73 84.9847C114.477 85.1428 114.489 85.229 114.812 85.5823C115.365 86.1873 114.97 86.9933 114.12 86.9933C113.417 86.9933 113.398 87.0383 113.827 87.6867C114.298 88.3977 113.918 88.9928 112.993 88.9928C112.289 88.9928 112.289 88.9928 112.619 89.4912C112.832 89.8132 112.902 90.1745 112.816 90.5118C112.7 90.971 112.6 91.0242 111.986 90.9533C111.245 90.8675 111.161 90.982 111.502 91.6129C111.886 92.3237 111.557 92.7917 110.672 92.7917H109.881L110.214 93.482C110.666 94.4211 110.321 94.881 109.305 94.6924C108.688 94.5776 108.626 94.6041 108.76 94.9272C109.27 96.1562 108.979 96.6937 107.897 96.5199C107.311 96.4257 107.234 96.4585 107.356 96.7505C107.857 97.9523 107.559 98.4922 106.505 98.2964C105.784 98.1625 105.681 98.3286 106.054 99.0198C106.395 99.6507 105.795 100.191 104.911 100.049L104.223 99.938L104.445 100.568C104.757 101.454 104.392 101.866 103.451 101.691L102.757 101.562L102.887 102.248C103.055 103.139 102.692 103.461 101.72 103.28L101.006 103.147L101.194 103.8C101.348 104.328 101.318 104.502 101.035 104.719C100.69 104.985 100.434 104.977 99.7046 104.681C99.369 104.545 99.3437 104.598 99.4712 105.172C99.5756 105.643 99.5233 105.914 99.2759 106.185C98.9675 106.522 98.8774 106.529 98.2441 106.267L97.5502 105.98L97.6771 106.765C97.8348 107.742 97.3594 108.124 96.5434 107.677C95.7917 107.265 95.6816 107.323 95.8212 108.06C96.0203 109.111 95.5019 109.389 94.2747 108.889C93.9779 108.768 93.9213 108.856 93.9213 109.441C93.9213 110.41 93.5186 110.701 92.7341 110.3C91.9037 109.874 91.8336 109.899 91.9681 110.564C92.0527 110.984 91.9782 111.237 91.6955 111.491C91.3336 111.815 91.2712 111.816 90.8035 111.513C90.1189 111.069 90.0844 111.087 90.0844 111.883C90.0844 112.451 89.9953 112.601 89.5985 112.7C89.2998 112.774 88.9109 112.689 88.5888 112.48L88.0649 112.14V112.815C88.0649 113.8 87.4435 114.145 86.6616 113.593C85.8946 113.053 85.8435 113.07 85.8435 113.879C85.8435 114.802 85.3187 115.101 84.6254 114.574C83.9464 114.057 83.8241 114.089 83.8241 114.779C83.8241 115.662 83.1496 115.958 82.3953 115.406L81.8226 114.987L81.6915 115.679C81.5239 116.564 80.9371 116.787 80.3102 116.204C79.7133 115.649 79.6503 115.669 79.4998 116.463C79.3306 117.356 78.7544 117.51 77.9846 116.869L77.4065 116.387L77.2762 117.075C77.0945 118.034 76.438 118.224 75.8081 117.499L75.3414 116.962L75.1401 117.486C75.0292 117.775 74.9385 118.084 74.9385 118.174C74.9385 118.265 74.7339 118.392 74.4841 118.458C74.1485 118.547 73.933 118.449 73.6596 118.082C73.1759 117.433 72.98 117.455 72.8201 118.176C72.6319 119.024 72.0091 119.154 71.3098 118.491L70.7481 117.958L70.606 118.519C70.358 119.498 69.5219 119.698 69.0821 118.885C68.7313 118.236 68.5799 118.254 68.2743 118.985C67.9478 119.765 67.2474 119.787 66.6866 119.035L66.2767 118.485L66.0441 119.135C65.7434 119.975 64.8554 120.058 64.4374 119.285C64.085 118.632 63.917 118.654 63.6599 119.384C63.3869 120.16 62.61 120.213 62.216 119.484C62.0673 119.21 61.8682 118.985 61.7737 118.985C61.679 118.985 61.4981 119.21 61.3714 119.484C61.0457 120.192 60.3153 120.145 59.8631 119.387L59.5069 118.79L59.125 119.387C58.6103 120.192 57.9087 120.191 57.5713 119.384C57.2657 118.654 57.1003 118.632 56.8002 119.285C56.4569 120.03 55.5886 119.973 55.2881 119.185C55.0098 118.455 54.891 118.439 54.5421 119.085C54.1295 119.848 53.2892 119.768 52.9621 118.935L52.707 118.285L52.2379 118.854C51.6442 119.575 51.11 119.49 50.6892 118.608L50.3689 117.936L49.9347 118.483C49.5936 118.913 49.3915 119.003 48.992 118.903C48.696 118.83 48.4825 118.633 48.4807 118.431C48.4789 118.241 48.3963 117.958 48.2971 117.803C48.1509 117.574 48.0267 117.619 47.6438 118.038C47.0346 118.705 46.3639 118.498 46.1604 117.58L46.0202 116.949L45.481 117.46C44.7449 118.158 44.1248 117.99 43.9452 117.042L43.8115 116.337L43.2699 116.84C42.5769 117.484 41.9327 117.295 41.7507 116.394L41.6243 115.769L41.0657 116.174C40.3096 116.722 39.5982 116.539 39.5982 115.795C39.5982 115.028 39.3946 114.917 38.873 115.403C38.2405 115.991 37.6306 115.763 37.4622 114.874C37.3097 114.069 37.2942 114.064 36.6298 114.581C35.921 115.133 35.3573 114.822 35.3573 113.879C35.3573 113.075 35.2937 113.049 34.6103 113.582C33.9015 114.134 33.3379 113.823 33.3379 112.879C33.3379 112.089 33.3015 112.07 32.6339 112.503C31.8891 112.986 31.3184 112.713 31.3184 111.873C31.3184 111.107 31.1343 111.035 30.3974 111.513C29.9325 111.815 29.867 111.815 29.5306 111.513C29.2828 111.291 29.1952 110.996 29.2558 110.587C29.3557 109.913 29.1893 109.845 28.5397 110.296C27.8642 110.764 27.2795 110.376 27.2795 109.459C27.2795 108.854 27.2254 108.768 26.9261 108.897C26.7317 108.98 26.3455 109.057 26.0679 109.068C25.6147 109.085 25.5567 109.001 25.501 108.238L25.4388 107.389L24.8477 107.692C24.3612 107.941 24.1823 107.95 23.8388 107.741C23.4959 107.533 23.4444 107.362 23.5508 106.788C23.6221 106.403 23.7088 106.06 23.7431 106.025C23.7774 105.99 24.5822 106.53 25.5315 107.225C32.3296 112.199 40.6862 115.844 49.0896 117.501C61.8436 120.016 75.5613 118.202 87.074 112.477C98.7094 106.691 108.364 96.9912 113.93 85.4937Z" fill="#FEC267"/>
<path fill-rule="evenodd" clip-rule="evenodd" d="M56.4606 1.9532C49.4809 2.39887 40.8767 4.74924 34.3476 7.99395C22.9541 13.656 14.0497 22.442 8.28763 33.7079C4.61325 40.8919 2.58594 48.2069 2.01221 56.3517C1.23008 67.4577 3.98118 79.1687 9.68066 88.9928C19.2254 105.445 36.1996 116.208 55.4242 117.998C58.6755 118.301 65.753 118.135 68.6782 117.688C75.5185 116.642 81.6313 114.71 87.5227 111.733C101.093 104.876 111.581 92.7334 116.403 78.2957C117.392 75.3363 118.459 70.8443 118.897 67.7986C119.451 63.95 119.402 55.4722 118.805 51.703C116.586 37.7058 110.031 25.6703 99.6317 16.4992C90.3033 8.27227 78.192 3.12308 65.5681 2.01658C63.4913 1.83443 58.8275 1.80204 56.4606 1.9532ZM94.7519 31.8118C87.5504 23.3375 77.8031 17.928 66.8526 16.3289C64.7033 16.015 59.6515 15.7886 57.9751 15.9312C49.9232 16.616 43.3529 18.7044 36.9896 22.6017C32.8938 25.1105 28.0655 29.5037 25.1133 33.408C15.155 46.5782 13.4019 64.1726 20.5865 78.8402C26.9778 91.8886 38.7809 100.646 53.4314 103.21C57.2116 103.872 63.9507 103.87 67.7695 103.206C77.5074 101.515 85.938 97.0732 92.6965 90.0737C99.2474 83.2893 103.451 74.451 104.623 64.9993C105.12 60.992 104.803 54.5874 103.898 50.3146C102.581 44.1021 98.9459 36.7471 94.7519 31.8118ZM44.9497 33.2154C37.898 33.3522 37.3061 33.4362 34.8652 34.6474C31.1217 36.5047 28.2509 40.2923 27.3872 44.5132C27.0974 45.9296 27.0675 47.9624 27.1293 62.1051C27.1324 62.8172 27.1353 63.4988 27.1381 64.1515L27.1381 64.1599L27.1384 64.2416L27.1385 64.2662C27.1908 76.6176 27.1989 78.5225 27.8558 80.1745C27.9756 80.4757 28.117 80.7685 28.2842 81.1148C28.3352 81.2204 28.3886 81.3311 28.4446 81.4484C30.025 84.7643 32.6779 87.0265 36.2748 88.1254C37.3962 88.4679 38.4842 88.4929 52.3207 88.4929C52.9518 88.4929 53.5575 88.493 54.139 88.4931C65.7765 88.4946 67.7254 88.4949 69.3939 87.8177C69.7295 87.6815 70.0537 87.5179 70.4432 87.3213C70.5398 87.2726 70.6405 87.2218 70.7463 87.1689C72.4314 86.3269 74.8492 83.8552 75.722 82.0827C76.877 79.7375 76.9816 78.5614 76.9156 68.6637C76.8574 59.9545 76.8541 59.8963 76.3994 59.1721C75.5393 57.8027 75.5286 57.8013 66.4536 57.8013H58.3326L54.8218 61.1252C52.8908 62.9533 51.311 64.5279 51.311 64.6243C51.311 64.722 55.5094 64.7994 60.8115 64.7994H70.3117L70.2524 70.3479C70.1956 75.6254 70.1698 75.9528 69.7213 77.0531C69.0756 78.6366 67.3781 80.4183 65.7821 81.1871C63.7199 82.1805 62.7742 82.2354 50.9071 82.0525L40.103 81.8857L38.8914 81.3037C37.4376 80.6055 35.7667 78.9563 35.0601 77.5223C34.7129 76.8181 34.4914 75.9006 34.3535 74.5967C34.0998 72.1974 34.0895 48.9445 34.3413 47.2192C34.8385 43.8127 37.5123 41.0451 40.9056 40.4239C41.7006 40.2785 47.4637 40.2061 58.2667 40.2061H74.4379L78.0686 36.6071L81.6994 33.0081L66.5558 33.0491C58.2266 33.0717 48.5039 33.1465 44.9497 33.2154ZM80.2935 43.2189C78.3487 45.1184 76.7883 46.703 76.8259 46.7404C76.8636 46.7775 79.4608 46.8395 82.5979 46.8779L88.3014 46.9477L88.8396 47.4799L89.3775 48.0124L89.4785 53.6454L89.5795 59.2785L90.1591 58.5899C90.4779 58.2112 91.9546 56.6686 93.4407 55.1618L96.1427 52.4224V47.5269C96.1427 42.4529 96.066 41.8825 95.2709 41.0369C94.2783 39.9814 93.9653 39.9242 88.7241 39.842L83.8295 39.7653L80.2935 43.2189ZM45.3342 45.4075C42.8949 45.846 41.1962 47.0778 40.162 49.1581L39.4972 50.4953V61.0964V71.6975L40.0626 72.8378C40.7709 74.2654 42.2899 75.6426 43.7554 76.1855C44.8001 76.5726 45.2904 76.596 52.2779 76.5938C60.288 76.5912 61.1166 76.5052 62.6215 75.5191C63.7712 74.7659 64.5123 73.1313 64.5268 71.3166L64.5383 69.898L56.2241 69.798L47.91 69.6981L47.3632 69.1982C46.3038 68.2299 46.2623 67.9261 46.2623 61.1004C46.2623 54.1153 46.3064 53.8264 47.5017 52.9824L48.1808 52.5028L55.1413 52.4384L62.1017 52.3742L65.4404 48.9709C67.2767 47.0993 68.8016 45.5087 68.8291 45.4363C68.908 45.2283 46.4827 45.201 45.3342 45.4075ZM67.786 5.29969C88.968 8.11292 106.487 22.303 113.351 42.2056C117.459 54.1181 117.288 67.4841 112.877 79.1755C109.822 87.2763 105.06 94.3895 98.8255 100.167C90.0632 108.287 79.7452 113.107 67.4665 114.815C64.5389 115.222 56.054 115.166 53.1285 114.72C46.5 113.71 41.6176 112.202 35.8622 109.388C22.5581 102.885 12.644 91.6339 7.84699 77.5963C4.55105 67.9513 4.06599 56.9783 6.4972 47.064C8.40073 39.301 12.0087 31.9982 17.1457 25.5102C18.6995 23.5477 24.2168 18.1456 26.2698 16.5766C35.0203 9.88922 45.0656 5.9921 56.0567 5.02057C58.7532 4.78223 65.0113 4.93119 67.786 5.29969ZM56.5615 13.2317C56.5615 13.0573 58.9847 7.56286 59.4023 6.79028C59.5459 6.52475 59.8286 6.41538 60.3718 6.41538H61.1386L62.6364 9.74606C63.4604 11.578 64.1647 13.1525 64.2017 13.2451C64.2389 13.3377 63.8913 13.4135 63.4295 13.4135C62.6415 13.4135 62.569 13.3645 62.2515 12.6157L61.9131 11.8179L60.352 11.8159L58.7912 11.8139L58.379 12.6137C58.0176 13.3153 57.8808 13.4135 57.2643 13.4135C56.8778 13.4135 56.5615 13.3317 56.5615 13.2317ZM65.9889 13.6104C64.9562 13.6032 64.9414 13.5042 65.4445 9.93241C65.7724 7.60465 65.9891 6.61532 66.1711 6.61532C66.9994 6.61532 67.4746 7.0918 68.6768 9.12804C70.0474 11.45 70.1476 11.4786 70.3754 9.6145L70.3966 9.44032C70.5735 7.99091 70.6323 7.50961 70.8752 7.38749C70.996 7.32678 71.1623 7.35485 71.4112 7.39687L71.4118 7.39697L71.4133 7.39722L71.4373 7.40127L71.4709 7.4069C72.1066 7.51287 72.2062 7.60064 72.17 8.02273C72.1198 8.60817 71.2742 14.3016 71.2318 14.3394C71.2157 14.354 70.9234 14.3236 70.5823 14.272C70.0387 14.1898 69.7921 13.8973 68.5799 11.8965C67.8193 10.6414 67.1774 9.6145 67.1531 9.6145C67.1289 9.6145 67.0029 10.3569 66.8732 11.2641C66.558 13.4678 66.5031 13.614 65.9889 13.6104ZM48.5625 7.98694C48.4876 7.71962 48.7612 7.60405 50.0422 7.36212C52.1478 6.96442 52.5786 6.96063 53.5128 7.33073C54.9134 7.88558 55.3898 9.70049 54.4536 10.9158L53.9611 11.555L54.8618 12.4301C55.634 13.1805 55.7113 13.3253 55.4048 13.4453C54.5899 13.7642 54.0441 13.6052 53.2264 12.8108C52.4956 12.1004 52.3235 12.0232 51.7326 12.1402C51.066 12.2724 51.065 12.2742 51.1916 13.2185C51.3075 14.0839 51.2792 14.1751 50.8602 14.2862L50.8458 14.29C50.5017 14.3813 50.2709 14.4426 50.0954 14.3709C49.7378 14.2249 49.6099 13.5271 49.2215 11.4071L49.2136 11.364C48.906 9.68688 48.6132 8.1673 48.5625 7.98694ZM73.6075 9.20947C73.0833 9.06426 72.8491 8.99936 72.7757 8.85456C72.7165 8.73757 72.7622 8.56842 72.8449 8.2626L72.8496 8.24547C73.0029 7.67822 73.1485 7.69762 76.4876 8.72973C78.7845 9.43954 78.8094 9.45376 78.6757 9.98061C78.6014 10.2737 78.5091 10.5448 78.4703 10.583C78.4317 10.6212 77.94 10.5191 77.3778 10.3559L76.3555 10.0592L75.7354 12.0862C74.8194 15.0794 74.7107 15.4129 74.6501 15.4129C74.3002 15.4129 73.3238 14.9192 73.326 14.7435C73.3276 14.6167 73.6422 13.4419 74.0251 12.1326C74.408 10.8232 74.6816 9.68827 74.6332 9.61069C74.5847 9.53292 74.1338 9.35536 73.6311 9.216L73.6075 9.20947ZM42.6075 9.6549C42.6184 9.62211 42.9228 9.46634 43.2837 9.30858L43.94 9.02226L46.5071 11.6677C47.9191 13.1228 49.0779 14.385 49.0819 14.4728C49.0861 14.5605 48.7941 14.7599 48.4333 14.9159C47.7991 15.1896 47.7573 15.178 47.1961 14.5749L46.6155 13.9507L45.1767 14.4076C43.5783 14.9151 43.4426 15.0352 43.4381 15.9472C43.4355 16.4962 43.338 16.6132 42.7148 16.8169C42.3186 16.9465 41.9696 17.0209 41.9391 16.9825C41.8945 16.9259 42.5387 9.86124 42.6075 9.6549ZM77.0139 16.1347C76.9793 16.1005 77.5539 14.6605 78.2904 12.9346C79.0269 11.2087 79.6971 9.82304 79.7797 9.85543C82.9959 11.1191 84.4257 11.7559 84.4275 11.9257C84.4289 12.042 84.3021 12.3106 84.1458 12.5221C83.8687 12.8972 83.8224 12.8906 82.3044 12.2632C81.4478 11.9093 80.6759 11.6631 80.5889 11.7163C80.5019 11.7697 80.3371 12.0792 80.2226 12.4041C80.0412 12.9196 80.0667 13.0116 80.4221 13.1233C80.6463 13.1937 81.3175 13.4724 81.9139 13.7428C82.9426 14.209 82.9864 14.2592 82.7727 14.7237C82.4951 15.3269 82.4803 15.3269 81.0784 14.7131C80.4506 14.4382 79.8207 14.2132 79.6788 14.2132C79.3773 14.2132 78.8993 15.4269 79.1262 15.6159C79.2111 15.6864 79.9768 16.0383 80.828 16.3979C82.3737 17.0507 82.3755 17.0523 82.1714 17.6319C82.0591 17.951 81.9498 18.2121 81.9286 18.2121C81.8482 18.2121 77.0737 16.1939 77.0139 16.1347ZM37.1758 11.6502L37.8318 11.2657C37.8723 11.2419 37.9104 11.219 37.9464 11.1974C38.142 11.0801 38.2754 11.0002 38.4002 11.0116C38.6676 11.0362 38.8957 11.4806 39.6126 12.8776C39.6743 12.9979 39.7397 13.1252 39.809 13.2599C40.4978 14.5993 40.8098 15.4469 40.8098 15.9796C40.8098 18.2229 37.6149 19.8047 35.7887 18.4657C35.3002 18.1074 33.1519 14.3996 33.1408 13.8955C33.1363 13.6946 33.9657 13.2135 34.3165 13.2135C34.4001 13.2135 34.9512 14.1065 35.5411 15.198C36.8067 17.5391 37.3251 17.9116 38.4311 17.2746C39.4667 16.678 39.4225 15.9804 38.1987 13.6216L37.1758 11.6502ZM82.8539 18.5137C82.8877 18.3711 83.6423 17.0353 84.5309 15.5449C85.4194 14.0545 86.2028 12.8304 86.2718 12.8244C86.4211 12.8116 90.2792 15.126 90.5416 15.3857C90.7318 15.5741 90.3158 16.4126 90.032 16.4126C89.9458 16.4126 89.2768 16.0527 88.5455 15.6129C87.8141 15.173 87.1446 14.8131 87.0578 14.8131C86.9708 14.8131 86.7418 15.0518 86.5487 15.3435C86.207 15.8598 86.2104 15.8836 86.6769 16.2375C86.9405 16.4374 87.5423 16.8059 88.0144 17.0563C88.9381 17.5463 89.0139 17.7109 88.5781 18.2803C88.3099 18.6308 88.2303 18.6102 86.9197 17.8498L85.543 17.0515L85.1898 17.5817C84.9953 17.8735 84.8374 18.2022 84.8387 18.3121C84.8399 18.4221 85.4073 18.8492 86.0994 19.2613C86.244 19.3473 86.3772 19.4264 86.4999 19.4991L86.504 19.5015C87.5142 20.1006 87.8072 20.2744 87.8161 20.4613C87.8197 20.5377 87.7759 20.6162 87.7142 20.7269C87.6956 20.7601 87.6755 20.7962 87.6546 20.836C87.517 21.0974 87.3795 21.3407 87.349 21.3765C87.2042 21.5472 82.7996 18.7422 82.8539 18.5137ZM14.7368 59.8008C14.76 36.6117 32.2389 17.2702 55.5518 14.6361C56.3848 14.5422 58.5384 14.4534 60.3377 14.4392C85.6882 14.238 106.442 34.7024 106.442 59.9007C106.442 67.9613 103.91 76.8211 99.6737 83.5863C95.0243 91.0104 88.5908 96.7786 80.6939 100.603C76.0205 102.866 71.3402 104.255 66.2123 104.901C62.2832 105.396 56.0629 105.223 52.2906 104.513C45.7235 103.276 39.973 100.919 34.5495 97.2383C25.9998 91.4365 19.5176 82.6251 16.6669 72.9298C15.2398 68.0759 14.7319 64.6205 14.7368 59.8008ZM27.082 19.3748C27.0931 18.2197 28.2452 16.6514 29.6019 15.9446C29.9351 15.771 30.5939 15.6253 31.066 15.6209C31.7803 15.6143 31.9243 15.6772 31.9243 15.9963C31.9243 16.7429 31.6912 17.0125 31.0444 17.0139C29.8737 17.0163 28.7151 18.103 28.701 19.2119C28.6915 19.9539 29.4205 20.9986 30.1617 21.3051C31.0036 21.6534 31.7223 21.5075 32.5557 20.8184L33.2254 20.265L32.6757 19.4428C32.3736 18.9905 32.1262 18.5431 32.1262 18.4485C32.1262 18.3005 32.9845 17.8123 33.2444 17.8123C33.2934 17.8123 33.667 18.3091 34.0744 18.9165C34.7565 19.9339 34.7933 20.0606 34.5411 20.5273C33.7299 22.0279 31.6288 23.178 30.1366 22.9382C28.6134 22.6933 27.0675 20.8902 27.082 19.3748ZM88.1077 22.1063L90.1439 19.3594C91.2639 17.8487 92.2229 16.6126 92.2755 16.6126C92.5455 16.6126 95.3741 18.8896 95.8149 19.4616C96.4387 20.2716 96.6704 21.5334 96.364 22.453C96.0161 23.4967 94.7422 24.62 93.7579 24.7506C92.3827 24.9333 91.6028 24.6566 89.814 23.3513L88.1077 22.1063ZM18.2534 26.7098C19.1173 25.6097 19.79 24.9699 20.4082 24.6604C21.5469 24.0903 22.0772 24.0969 23.3806 24.6978C24.6631 25.289 25.2601 26.2729 25.2601 27.7959C25.2601 28.6965 25.1325 28.983 23.9979 30.6279C23.3039 31.6345 22.68 32.4693 22.612 32.483C22.4393 32.5182 16.9783 28.5847 16.9888 28.4327C16.9937 28.365 17.5628 27.5896 18.2534 26.7098ZM97.4047 29.4831C97.4814 28.0726 98.0812 27.0961 99.2082 26.5463C99.577 26.3663 100.34 26.2169 100.904 26.2145C102.673 26.2068 104.456 27.7727 104.656 29.5091C104.718 30.0479 104.663 30.1149 104.116 30.1681C103.563 30.2219 103.48 30.1493 103.208 29.3747C103.011 28.8164 102.664 28.3592 102.201 28.0497C100.094 26.6405 97.6874 29.5612 99.4528 31.3857C99.7737 31.7175 100.296 32.0454 100.614 32.1145C101.115 32.2235 101.191 32.3325 101.191 32.9399C101.191 33.6229 101.176 33.6365 100.535 33.5092C99.5745 33.3182 98.3336 32.4059 97.8023 31.5001C97.4257 30.8581 97.3505 30.4776 97.4047 29.4831ZM19.0909 35.4074C19.1363 35.4074 19.5503 34.7316 20.0107 33.9057L20.8482 32.4037L21.4308 32.7446L22.0136 33.0853L21.641 33.6965C21.4361 34.0326 20.8864 34.9826 20.4193 35.8073C19.9522 36.6321 19.5386 37.3387 19.4998 37.3775C19.3534 37.5245 13.5473 34.129 13.5473 33.8963C13.5473 33.7621 13.7157 33.4464 13.9217 33.1946L14.2959 32.737L16.652 34.0722C17.9479 34.8066 19.0455 35.4074 19.0909 35.4074ZM103.303 38.9725C101.208 37.1506 101.32 34.2094 103.536 32.8811C105.588 31.6511 108.189 32.7968 108.956 35.2691C109.639 37.4693 108.29 39.5467 106.04 39.7608C104.727 39.8858 104.169 39.7251 103.303 38.9725ZM10.8079 41.4994C10.1811 39.8744 10.9079 37.808 12.4324 36.8814C13.1157 36.4659 13.4439 36.3988 14.5043 36.4568C15.844 36.5301 16.5054 36.8688 17.2576 37.8664C17.8584 38.6629 17.9424 40.503 17.4305 41.6489C16.1158 44.5913 11.9643 44.4976 10.8079 41.4994ZM104.333 42.1346C104.327 42.0404 105.639 41.484 107.25 40.8979C108.86 40.3119 110.328 39.8264 110.511 39.8192C110.806 39.8078 111.417 40.9455 111.221 41.1397C111.092 41.267 105.132 43.4007 104.899 43.4031C104.7 43.4049 104.367 42.6599 104.333 42.1346ZM108.072 44.3236C109.534 43.9119 110.923 43.4976 111.161 43.4029C111.877 43.1165 112.047 43.1789 112.269 43.8083C112.468 44.3726 112.385 44.5487 110.98 46.545C110.155 47.7183 109.516 48.7152 109.562 48.7602C109.607 48.805 110.475 48.5998 111.491 48.3039C112.506 48.008 113.362 47.7971 113.393 47.835C113.425 47.873 113.551 48.2006 113.675 48.5629C113.846 49.0661 113.841 49.2412 113.654 49.304C113.457 49.3704 111.337 49.9885 107.425 51.1197C107.18 51.1907 107.062 51.0392 106.965 50.5297C106.848 49.9137 106.98 49.6374 108.263 47.7995C109.048 46.6748 109.652 45.7174 109.606 45.6718C109.528 45.5943 106.927 46.2329 106.206 46.5068C105.826 46.6512 105.731 46.5338 105.548 45.6882L105.415 45.0718L108.072 44.3236ZM9.99731 50.824C7.69857 49.7903 7.24703 46.7141 9.10937 44.7757C9.96117 43.8891 10.3004 43.8583 10.5648 44.6433C10.7083 45.0702 10.6364 45.2567 10.1378 45.7504C8.99504 46.8821 9.17762 48.6172 10.5115 49.3002C12.0876 50.1072 13.7268 49.1747 13.8171 47.4196C13.8476 46.8223 13.7807 46.7495 12.9415 46.467C12.4416 46.2989 12.0095 46.1405 11.9812 46.1153C11.8964 46.0395 12.3665 44.8049 12.4804 44.8049C12.5382 44.8049 13.1557 44.9986 13.8528 45.2356C15.0354 45.6373 15.1277 45.713 15.2354 46.3699C15.299 46.7569 15.2586 47.4855 15.1461 47.9888C14.5649 50.5855 12.2734 51.8473 9.99731 50.824ZM6.98611 65.8839C6.68582 63.3422 6.56262 56.5403 6.80556 55.9134C6.89805 55.6747 7.09194 55.6225 7.56327 55.7101C7.91163 55.7749 9.28706 55.9812 10.6195 56.1688L13.0424 56.5099L13.1727 61.1044C13.3405 67.029 13.8585 70.1459 15.4405 74.7507C19.8086 87.4644 28.7456 97.3403 40.848 102.827C42.2574 103.466 43.5016 103.989 43.6128 103.989C43.7241 103.989 43.8744 104.084 43.9469 104.2C44.0688 104.395 42.3254 109.696 42.0257 110.041C41.844 110.25 38.8386 109.031 35.9833 107.59C23.236 101.155 13.1101 89.2249 9.13298 75.9567C8.19151 72.8152 7.32457 68.7481 6.98611 65.8839ZM108.228 56.5892C108.301 56.5824 109.678 56.3675 111.289 56.1118C112.899 55.8561 114.272 55.6367 114.34 55.6243C114.603 55.5761 114.721 60.4544 114.525 63.2864C114.021 70.544 112.074 77.6929 108.885 83.9941C104.226 93.2022 97.0625 100.784 87.9666 106.136C85.1591 107.787 79.9144 110.182 79.6583 109.928C79.4895 109.761 77.5638 104.578 77.5638 104.29C77.5638 104.154 77.9955 103.883 78.523 103.686C80.8139 102.834 85.543 100.29 87.9639 98.6079C93.0986 95.0399 97.9243 89.9635 101.08 84.8101C104.252 79.6311 106.458 74.0081 107.444 68.5882C107.974 65.6774 108.336 60.9119 108.205 58.5619C108.145 57.4838 108.155 56.596 108.228 56.5892ZM72.3556 107.683C72.957 105.851 73.1523 105.472 73.552 105.361C74.2374 105.171 74.3327 105.169 74.3327 105.349C74.3327 105.438 74.638 106.84 75.011 108.466L75.0151 108.484C75.4925 110.563 75.6442 111.223 75.3897 111.466C75.2712 111.579 75.0648 111.601 74.7623 111.634L74.7563 111.634C74.3058 111.683 74.247 111.576 73.9326 110.138C73.5516 108.395 73.4207 108.152 73.2216 108.822C72.707 110.554 72.2278 111.587 71.9386 111.587C71.7623 111.587 71.0929 111.072 70.4511 110.443C69.8093 109.814 69.2855 109.387 69.2873 109.493C69.2889 109.6 69.422 110.227 69.5829 110.887C69.9935 112.57 69.9741 112.723 69.3345 112.847C69.029 112.907 68.7188 112.895 68.6449 112.821C68.5712 112.747 68.2313 111.386 67.89 109.797C67.2392 106.769 67.2539 106.598 68.1627 106.591C68.3977 106.589 69.1756 107.249 70.0965 108.23L71.6371 109.872L72.3556 107.683ZM46.0986 108.218C46.3306 107.313 47.075 106.454 47.9567 106.075C49.2647 105.511 51.2768 105.932 52.2033 106.963C52.5856 107.388 52.5856 107.398 52.2033 107.684C51.6898 108.069 51.5961 108.061 50.9157 107.563C50.5613 107.303 50.0066 107.129 49.4912 107.115C48.7798 107.097 48.5552 107.196 48.0607 107.744C47.0441 108.87 47.386 110.32 48.8066 110.908C49.1772 111.061 49.5678 111.187 49.6744 111.187C50.0207 111.187 50.5032 110.569 50.5062 110.123C50.5115 109.399 50.7849 109.149 51.4051 109.303C51.9564 109.44 51.9636 109.462 51.8328 110.565C51.7597 111.182 51.5697 111.816 51.4105 111.973C51.2496 112.133 50.6031 112.294 49.9539 112.336C47.3751 112.504 45.5103 110.512 46.0986 108.218ZM54.9548 112.991C52.5854 111.794 52.5695 108.461 54.9272 107.247C56.2616 106.559 57.8255 106.73 58.934 107.685L59.4897 108.164L59.0523 108.603L58.6149 109.043L58.0658 108.615C57.1851 107.929 55.6742 108.104 55.0029 108.97C54.8676 109.144 54.7539 109.674 54.7505 110.146C54.7404 111.489 55.9521 112.431 57.2683 112.104C57.7128 111.994 57.7732 111.872 57.7732 111.083C57.7732 110.192 57.7774 110.187 58.48 110.187C59.2682 110.187 59.3023 110.296 59.0598 112.048C58.9501 112.84 58.85 112.994 58.3229 113.176C57.3493 113.512 55.82 113.428 54.9548 112.991ZM61.3832 112.457C59.9786 110.866 60.3793 108.336 62.1853 107.391C63.2071 106.857 64.9315 106.861 65.8247 107.4L66.5051 107.811L66.0493 108.291C65.6349 108.728 65.5553 108.745 65.1725 108.48C63.9458 107.629 62.014 108.685 62.014 110.206C62.014 111.829 63.9077 112.729 65.2827 111.76L65.8873 111.334L66.307 111.749C66.6652 112.104 66.6868 112.212 66.455 112.489C65.3784 113.773 62.5294 113.755 61.3832 112.457ZM15.7842 38.5912C15.4595 38.2697 15.0581 38.0067 14.8921 38.0067C14.7259 38.0067 14.469 37.9689 14.3212 37.9226C13.6745 37.7204 12.6137 38.344 12.225 39.1548C11.5016 40.6642 12.5426 42.2056 14.2852 42.2056C15.0203 42.2056 15.3066 42.094 15.7842 41.6211C16.2675 41.1427 16.3745 40.868 16.3745 40.1062C16.3745 39.3444 16.2675 39.0696 15.7842 38.5912ZM22.6326 26.1088C23.9854 26.8016 24.1979 28.0155 23.2217 29.4749C22.878 29.9885 22.5306 30.4088 22.4496 30.4088C22.3686 30.4088 21.5538 29.8658 20.6388 29.2021L18.9752 27.9957L19.5976 27.1575C20.5899 25.8217 21.4746 25.516 22.6326 26.1088ZM43.6393 13.077C43.6369 13.686 43.7251 13.689 45.1476 13.1257L45.7494 12.8876L44.8257 11.9197L43.902 10.9519L43.7718 11.7327C43.7001 12.1622 43.6405 12.7672 43.6393 13.077ZM53.0131 8.72895C53.7553 9.46395 53.2414 10.5383 52.0123 10.8204C50.815 11.0953 50.7671 11.0761 50.63 10.2643C50.5603 9.85204 50.4493 9.31939 50.383 9.08105C50.2881 8.73875 50.3624 8.62878 50.7364 8.55839C51.7985 8.35845 52.7076 8.42664 53.0131 8.72895ZM61.4023 10.6142L60.9869 9.56452C60.6186 8.63357 60.1965 7.93177 60.1965 8.25008C60.1965 8.31326 59.9705 8.8711 59.6943 9.48973L59.1919 10.6142H60.2971H61.4023ZM94.2085 19.6839C95.1734 20.5849 95.2224 21.6818 94.3418 22.6577C93.5342 23.5527 92.376 23.5719 91.1488 22.7105C90.6793 22.3808 90.293 22.0383 90.2905 21.9493C90.2883 21.8604 90.8362 21.0724 91.5083 20.1982L91.5252 20.1762C92.2382 19.2488 92.5722 18.8143 92.9276 18.7964C93.241 18.7807 93.5709 19.0887 94.1917 19.6683L94.2085 19.6839ZM107.252 34.8576C107.032 34.5003 106.827 34.2078 106.797 34.2078C106.767 34.2078 106.47 34.1326 106.138 34.0406C105.28 33.8035 104.339 34.11 103.732 34.8244C102.256 36.5619 104.243 39.079 106.321 38.1027C107.61 37.4971 108.013 36.0931 107.252 34.8576Z" fill="#FEC267"/>
<path d="M197.48 76.36C196.36 77.64 195.08 78.76 193.64 79.72C192.2 80.6267 190.68 81.3733 189.08 81.96C187.533 82.4933 185.933 82.8933 184.28 83.16C182.68 83.4267 181.133 83.56 179.64 83.56C176.973 83.56 174.413 83.16 171.96 82.36C169.507 81.5067 167.347 80.3067 165.48 78.76C163.613 77.2133 162.12 75.32 161 73.08C159.88 70.84 159.32 68.3067 159.32 65.48V45.32C159.32 42.5467 159.88 40.0667 161 37.88C162.12 35.64 163.64 33.7467 165.56 32.2C167.48 30.6 169.693 29.4 172.2 28.6C174.76 27.7467 177.453 27.32 180.28 27.32C183.32 27.32 186.12 27.72 188.68 28.52C191.293 29.32 193.64 30.5733 195.72 32.28L192.04 38.04C190.6 36.8133 188.787 35.8533 186.6 35.16C184.467 34.4667 182.36 34.12 180.28 34.12C178.573 34.12 176.92 34.36 175.32 34.84C173.72 35.32 172.28 36.0667 171 37.08C169.72 38.0933 168.68 39.4 167.88 41C167.133 42.6 166.76 44.5467 166.76 46.84V64.04C166.76 66.28 167.107 68.2267 167.8 69.88C168.547 71.48 169.507 72.7867 170.68 73.8C171.907 74.8133 173.293 75.56 174.84 76.04C176.387 76.52 177.987 76.76 179.64 76.76C180.867 76.76 182.44 76.6 184.36 76.28C186.28 75.9067 188.227 74.9733 190.2 73.48V60.6H181.4V53.96H197.48V76.36ZM243.886 76.36C242.766 77.64 241.486 78.76 240.046 79.72C238.606 80.6267 237.086 81.3733 235.486 81.96C233.94 82.4933 232.34 82.8933 230.686 83.16C229.086 83.4267 227.54 83.56 226.046 83.56C223.38 83.56 220.82 83.16 218.366 82.36C215.913 81.5067 213.753 80.3067 211.886 78.76C210.02 77.2133 208.526 75.32 207.406 73.08C206.286 70.84 205.726 68.3067 205.726 65.48V45.32C205.726 42.5467 206.286 40.0667 207.406 37.88C208.526 35.64 210.046 33.7467 211.966 32.2C213.886 30.6 216.1 29.4 218.606 28.6C221.166 27.7467 223.86 27.32 226.686 27.32C229.726 27.32 232.526 27.72 235.086 28.52C237.7 29.32 240.046 30.5733 242.126 32.28L238.446 38.04C237.006 36.8133 235.193 35.8533 233.006 35.16C230.873 34.4667 228.766 34.12 226.686 34.12C224.98 34.12 223.326 34.36 221.726 34.84C220.126 35.32 218.686 36.0667 217.406 37.08C216.126 38.0933 215.086 39.4 214.286 41C213.54 42.6 213.166 44.5467 213.166 46.84V64.04C213.166 66.28 213.513 68.2267 214.206 69.88C214.953 71.48 215.913 72.7867 217.086 73.8C218.313 74.8133 219.7 75.56 221.246 76.04C222.793 76.52 224.393 76.76 226.046 76.76C227.273 76.76 228.846 76.6 230.766 76.28C232.686 75.9067 234.633 74.9733 236.606 73.48V60.6H227.806V53.96H243.886V76.36ZM272.053 27.32C275.039 27.32 277.839 27.72 280.453 28.52C283.066 29.32 285.413 30.5733 287.493 32.28L283.813 38.04C282.373 36.8133 280.559 35.8533 278.373 35.16C276.239 34.4667 274.133 34.12 272.053 34.12C270.506 34.12 268.986 34.36 267.493 34.84C265.999 35.32 264.666 36.0667 263.493 37.08C262.319 38.0933 261.359 39.4 260.613 41C259.919 42.6 259.572 44.5467 259.572 46.84V64.04C259.572 66.28 259.946 68.2267 260.693 69.88C261.439 71.48 262.399 72.7867 263.573 73.8C264.746 74.8133 266.053 75.56 267.493 76.04C268.986 76.52 270.453 76.76 271.893 76.76C273.973 76.76 276.079 76.4667 278.213 75.88C280.399 75.2933 282.346 74.3067 284.053 72.92L287.573 78.6C285.866 79.9867 283.653 81.16 280.933 82.12C278.213 83.08 275.253 83.56 272.053 83.56C269.386 83.56 266.826 83.16 264.373 82.36C261.973 81.5067 259.866 80.3067 258.053 78.76C256.239 77.2133 254.799 75.32 253.733 73.08C252.666 70.84 252.133 68.3067 252.133 65.48V45.32C252.133 42.5467 252.666 40.0667 253.733 37.88C254.853 35.64 256.319 33.7467 258.133 32.2C259.946 30.6 262.053 29.4 264.453 28.6C266.853 27.7467 269.386 27.32 272.053 27.32ZM333.859 34.68V83H326.419V34.68H310.499V27.88H349.699V34.68H333.859ZM384.453 69C384.453 71.2933 383.999 73.3467 383.093 75.16C382.239 76.92 381.039 78.4133 379.493 79.64C377.999 80.8667 376.266 81.8 374.293 82.44C372.319 83.08 370.213 83.4 367.973 83.4C365.679 83.4 363.546 83.08 361.573 82.44C359.599 81.8 357.866 80.8667 356.373 79.64C354.933 78.4133 353.786 76.92 352.933 75.16C352.079 73.3467 351.653 71.2933 351.653 69V57.48C351.653 55.1867 352.079 53.16 352.933 51.4C353.839 49.5867 355.013 48.0667 356.453 46.84C357.946 45.56 359.679 44.6 361.653 43.96C363.679 43.2667 365.813 42.92 368.053 42.92C370.453 42.92 372.639 43.2667 374.613 43.96C376.639 44.6 378.373 45.56 379.813 46.84C381.306 48.0667 382.453 49.5867 383.253 51.4C384.053 53.16 384.453 55.1867 384.453 57.48V69ZM377.653 58.68C377.653 56.9733 377.359 55.5333 376.773 54.36C376.186 53.1333 375.413 52.1467 374.453 51.4C373.546 50.6533 372.533 50.12 371.413 49.8C370.293 49.48 369.199 49.32 368.133 49.32C367.013 49.32 365.893 49.48 364.773 49.8C363.653 50.12 362.613 50.6533 361.653 51.4C360.746 52.1467 359.999 53.1333 359.413 54.36C358.826 55.5333 358.533 56.9733 358.533 58.68V67.64C358.533 69.3467 358.773 70.8133 359.253 72.04C359.786 73.2133 360.479 74.1733 361.333 74.92C362.186 75.6667 363.199 76.2 364.373 76.52C365.546 76.84 366.799 77 368.133 77C369.199 77 370.293 76.84 371.413 76.52C372.533 76.2 373.546 75.6667 374.453 74.92C375.413 74.1733 376.186 73.2133 376.773 72.04C377.359 70.8133 377.653 69.3467 377.653 67.64V58.68ZM391.883 83V25.72H398.683V56.92H404.523C406.176 56.92 407.67 56.6267 409.003 56.04C410.336 55.4 411.536 53.9867 412.603 51.8L417.003 43.16H424.683L419.883 53.24C419.136 54.7867 418.336 56.0933 417.483 57.16C416.63 58.2267 415.403 59.0533 413.803 59.64C414.923 60.0133 415.856 60.52 416.603 61.16C417.35 61.7467 417.963 62.4133 418.443 63.16C418.923 63.9067 419.323 64.7067 419.643 65.56C419.963 66.4133 420.256 67.2667 420.523 68.12L425.483 83H417.883L413.723 70.28C413.296 68.9467 412.816 67.8533 412.283 67C411.803 66.0933 411.243 65.4 410.603 64.92C410.016 64.3867 409.323 64.04 408.523 63.88C407.723 63.6667 406.79 63.56 405.723 63.56H398.683V83H391.883ZM437.359 65.72V68.36C437.359 69.96 437.625 71.32 438.159 72.44C438.692 73.5067 439.412 74.4133 440.319 75.16C441.279 75.8533 442.345 76.36 443.519 76.68C444.745 77 445.999 77.16 447.279 77.16C448.612 77.16 450.159 76.8933 451.919 76.36C453.679 75.8267 455.385 74.7867 457.039 73.24L461.359 77.96C459.332 80.04 457.065 81.48 454.559 82.28C452.105 83.0267 449.625 83.4 447.119 83.4C444.879 83.4 442.745 83.1067 440.719 82.52C438.692 81.88 436.905 80.9733 435.359 79.8C433.865 78.5733 432.665 77.0533 431.759 75.24C430.905 73.4267 430.479 71.32 430.479 68.92V58.44C430.479 56.0933 430.879 53.96 431.679 52.04C432.479 50.12 433.572 48.4933 434.959 47.16C436.399 45.8267 438.079 44.8133 439.999 44.12C441.972 43.3733 444.132 43 446.479 43C448.825 43 450.985 43.3467 452.959 44.04C454.932 44.7333 456.612 45.72 457.999 47C459.439 48.28 460.532 49.8533 461.279 51.72C462.079 53.5333 462.479 55.5867 462.479 57.88V65.72H437.359ZM455.519 58.6C455.519 56.9467 455.279 55.5333 454.799 54.36C454.319 53.1867 453.652 52.2267 452.799 51.48C451.999 50.68 451.039 50.12 449.919 49.8C448.852 49.4267 447.705 49.24 446.479 49.24C445.252 49.24 444.105 49.4267 443.039 49.8C441.972 50.1733 441.012 50.7333 440.159 51.48C439.305 52.2267 438.639 53.1867 438.159 54.36C437.679 55.48 437.439 56.8133 437.439 58.36V60.12H455.519V58.6ZM489.231 42.92C493.124 42.92 496.164 44.1467 498.351 46.6C500.537 49.0533 501.631 52.5467 501.631 57.08V83H494.751V57.96C494.751 54.8667 494.084 52.7067 492.751 51.48C491.417 50.2 489.737 49.5867 487.711 49.64C486.111 49.64 484.217 50.0667 482.031 50.92C479.897 51.72 477.817 52.76 475.791 54.04V83H468.911V43.32H474.991L475.791 47.72C477.497 46.6533 479.017 45.8 480.351 45.16C481.737 44.52 482.964 44.04 484.031 43.72C485.097 43.4 486.057 43.1867 486.911 43.08C487.764 42.9733 488.537 42.92 489.231 42.92Z" fill="#FEC267"/>
</svg>
