<svg width="310" height="88" viewBox="0 0 310 88" fill="none" xmlns="http://www.w3.org/2000/svg">
<g filter="url(#filter0_d_102_636)">
<path d="M126.857 54.466C125.981 55.5327 125.01 56.4279 123.943 57.1517C122.876 57.8374 121.772 58.4089 120.629 58.866C119.486 59.2851 118.324 59.5898 117.143 59.7803C116 59.9708 114.914 60.066 113.886 60.066C112.057 60.066 110.229 59.7993 108.4 59.266C106.61 58.7327 104.991 57.9517 103.543 56.9232C102.133 55.8565 100.972 54.5422 100.057 52.9803C99.1811 51.3803 98.743 49.5136 98.743 47.3803V32.8089C98.743 30.7136 99.162 28.866 100 27.266C100.876 25.6279 102.019 24.2755 103.429 23.2089C104.876 22.1041 106.514 21.2851 108.343 20.7517C110.172 20.1803 112.057 19.8946 114 19.8946C116.286 19.8946 118.514 20.2184 120.686 20.866C122.857 21.4755 124.705 22.447 126.229 23.7803L122.4 29.8374C121.181 28.8089 119.829 28.1041 118.343 27.7232C116.857 27.3041 115.448 27.0946 114.114 27.0946C113.2 27.0946 112.286 27.2279 111.372 27.4946C110.495 27.7232 109.695 28.1232 108.972 28.6946C108.286 29.266 107.714 30.0089 107.257 30.9232C106.8 31.8374 106.572 32.9422 106.572 34.2374V45.7232C106.572 47.0184 106.781 48.1232 107.2 49.0374C107.619 49.9136 108.172 50.6374 108.857 51.2089C109.543 51.7803 110.324 52.1993 111.2 52.466C112.076 52.7327 112.972 52.866 113.886 52.866C114.648 52.866 115.467 52.7708 116.343 52.5803C117.257 52.3517 118.153 51.8755 119.029 51.1517V44.5803H113.314V37.8946H126.857V54.466ZM161.511 54.466C160.635 55.5327 159.664 56.4279 158.597 57.1517C157.53 57.8374 156.426 58.4089 155.283 58.866C154.14 59.2851 152.978 59.5898 151.797 59.7803C150.654 59.9708 149.568 60.066 148.54 60.066C146.711 60.066 144.883 59.7993 143.054 59.266C141.264 58.7327 139.645 57.9517 138.197 56.9232C136.787 55.8565 135.626 54.5422 134.711 52.9803C133.835 51.3803 133.397 49.5136 133.397 47.3803V32.8089C133.397 30.7136 133.816 28.866 134.654 27.266C135.53 25.6279 136.673 24.2755 138.083 23.2089C139.53 22.1041 141.168 21.2851 142.997 20.7517C144.826 20.1803 146.711 19.8946 148.654 19.8946C150.94 19.8946 153.168 20.2184 155.34 20.866C157.511 21.4755 159.359 22.447 160.883 23.7803L157.054 29.8374C155.835 28.8089 154.483 28.1041 152.997 27.7232C151.511 27.3041 150.102 27.0946 148.768 27.0946C147.854 27.0946 146.94 27.2279 146.026 27.4946C145.149 27.7232 144.349 28.1232 143.626 28.6946C142.94 29.266 142.368 30.0089 141.911 30.9232C141.454 31.8374 141.226 32.9422 141.226 34.2374V45.7232C141.226 47.0184 141.435 48.1232 141.854 49.0374C142.273 49.9136 142.826 50.6374 143.511 51.2089C144.197 51.7803 144.978 52.1993 145.854 52.466C146.73 52.7327 147.626 52.866 148.54 52.866C149.302 52.866 150.121 52.7708 150.997 52.5803C151.911 52.3517 152.807 51.8755 153.683 51.1517V44.5803H147.968V37.8946H161.511V54.466ZM191.251 29.8374C190.032 28.8089 188.718 28.1041 187.308 27.7232C185.899 27.3041 184.527 27.0946 183.194 27.0946C182.318 27.0946 181.442 27.2279 180.565 27.4946C179.689 27.7232 178.908 28.1232 178.222 28.6946C177.537 29.266 176.965 30.0089 176.508 30.9232C176.089 31.8374 175.88 32.9422 175.88 34.2374V45.7232C175.88 47.0184 176.089 48.1232 176.508 49.0374C176.965 49.9136 177.537 50.6374 178.222 51.2089C178.946 51.7803 179.727 52.1993 180.565 52.466C181.442 52.7327 182.318 52.866 183.194 52.866C184.527 52.866 185.861 52.6755 187.194 52.2946C188.565 51.9136 189.937 51.1898 191.308 50.1232L195.022 56.1803C193.575 57.3993 191.803 58.3517 189.708 59.0374C187.613 59.7232 185.403 60.066 183.08 60.066C181.213 60.066 179.384 59.7993 177.594 59.266C175.803 58.7327 174.203 57.9517 172.794 56.9232C171.384 55.8565 170.242 54.5422 169.365 52.9803C168.489 51.3803 168.051 49.5136 168.051 47.3803V32.6374C168.051 30.5422 168.47 28.7136 169.308 27.1517C170.184 25.5517 171.308 24.2184 172.68 23.1517C174.089 22.0851 175.689 21.2851 177.48 20.7517C179.27 20.2184 181.099 19.9517 182.965 19.9517C185.251 19.9517 187.442 20.2565 189.537 20.866C191.67 21.4755 193.499 22.447 195.022 23.7803L191.251 29.8374Z" fill="#5A554F"/>
<path d="M236.305 51.5517H222.591L220.02 59.666H211.677L225.505 20.2946H233.505L247.22 59.666H238.705L236.305 51.5517ZM224.705 44.9803H234.191L232.648 39.9517L229.563 29.5517H229.334L226.305 39.7803L224.705 44.9803ZM275.374 49.7803C275.374 52.866 274.536 55.3613 272.86 57.266C271.183 59.1327 268.707 60.066 265.431 60.066C264.44 60.066 263.26 59.9708 261.888 59.7803C260.555 59.5898 259.202 59.1327 257.831 58.4089V70.9803H250.574V31.4374H257.26L257.831 34.0089C259.431 33.0184 260.936 32.2946 262.345 31.8374C263.755 31.3803 264.955 31.1517 265.945 31.1517C268.993 31.1517 271.317 31.9898 272.917 33.666C274.555 35.3422 275.374 37.9517 275.374 41.4946V49.7803ZM268.002 42.1232C268.002 40.4851 267.66 39.3803 266.974 38.8089C266.288 38.1993 265.45 37.8946 264.46 37.8946C264.002 37.8946 263.488 37.9708 262.917 38.1232C262.383 38.2374 261.812 38.4089 261.202 38.6374C260.593 38.866 260.002 39.1327 259.431 39.4374C258.86 39.7041 258.326 40.0089 257.831 40.3517V51.6089C259.126 52.2184 260.25 52.6374 261.202 52.866C262.155 53.0565 263.069 53.1517 263.945 53.1517C265.05 53.1898 266.002 52.8851 266.802 52.2374C267.602 51.5898 268.002 50.466 268.002 48.866V42.1232ZM305.396 49.7803C305.396 52.866 304.558 55.3613 302.882 57.266C301.206 59.1327 298.729 60.066 295.453 60.066C294.463 60.066 293.282 59.9708 291.91 59.7803C290.577 59.5898 289.225 59.1327 287.853 58.4089V70.9803H280.596V31.4374H287.282L287.853 34.0089C289.453 33.0184 290.958 32.2946 292.368 31.8374C293.777 31.3803 294.977 31.1517 295.968 31.1517C299.015 31.1517 301.339 31.9898 302.939 33.666C304.577 35.3422 305.396 37.9517 305.396 41.4946V49.7803ZM298.025 42.1232C298.025 40.4851 297.682 39.3803 296.996 38.8089C296.31 38.1993 295.472 37.8946 294.482 37.8946C294.025 37.8946 293.51 37.9708 292.939 38.1232C292.406 38.2374 291.834 38.4089 291.225 38.6374C290.615 38.866 290.025 39.1327 289.453 39.4374C288.882 39.7041 288.348 40.0089 287.853 40.3517V51.6089C289.148 52.2184 290.272 52.6374 291.225 52.866C292.177 53.0565 293.091 53.1517 293.968 53.1517C295.072 53.1898 296.025 52.8851 296.825 52.2374C297.625 51.5898 298.025 50.466 298.025 48.866V42.1232Z" fill="#D8D8D8"/>
<rect x="4" width="76" height="80" rx="11.4286" fill="url(#paint0_linear_102_636)"/>
<g filter="url(#filter1_d_102_636)">
<path fill-rule="evenodd" clip-rule="evenodd" d="M32.7665 10.054C32.7336 10.0922 32.6395 10.1053 32.398 10.1053C32.1428 10.1053 32.0737 10.1158 32.0737 10.1544C32.0737 10.1921 32.0008 10.2064 31.7627 10.2158C31.5103 10.2258 31.4455 10.2396 31.4182 10.2895C31.3933 10.3351 31.3409 10.3509 31.215 10.3509C31.087 10.3509 31.0453 10.3639 31.0453 10.4036C31.0453 10.44 31.0095 10.4562 30.929 10.4562C30.8551 10.4562 30.8051 10.4762 30.7921 10.511C30.7808 10.5412 30.7571 10.5568 30.7394 10.5456C30.7217 10.5344 30.6975 10.5413 30.6857 10.5609C30.6739 10.5805 30.6188 10.5966 30.5633 10.5966C30.4966 10.5966 30.4625 10.6144 30.4625 10.6492C30.4625 10.686 30.4263 10.7018 30.3425 10.7018C30.263 10.7018 30.2226 10.7183 30.2226 10.7506C30.2226 10.7785 30.1713 10.8091 30.1026 10.8223C30.0308 10.8361 29.9826 10.8659 29.9826 10.8964C29.9826 10.9298 29.9469 10.9475 29.8798 10.9475C29.8112 10.9475 29.7769 10.965 29.7769 11.0001C29.7769 11.0293 29.7464 11.0528 29.7084 11.0528C29.6707 11.0528 29.6398 11.0757 29.6398 11.1038C29.6398 11.1343 29.5916 11.1641 29.5198 11.1779C29.4511 11.1911 29.3998 11.2218 29.3998 11.2497C29.3998 11.28 29.3625 11.2984 29.301 11.2984C29.231 11.2984 29.1969 11.3189 29.1842 11.3686C29.1744 11.4072 29.1417 11.4388 29.1117 11.4388C29.0816 11.4388 29.057 11.4624 29.057 11.4914C29.057 11.5206 29.0266 11.544 28.9885 11.544C28.9508 11.544 28.9199 11.5665 28.9199 11.5939C28.9199 11.6213 28.8736 11.6542 28.8171 11.6669C28.7605 11.6796 28.7142 11.7124 28.7142 11.7398C28.7142 11.7673 28.6834 11.7897 28.6457 11.7897C28.6076 11.7897 28.5771 11.8131 28.5771 11.8423C28.5771 11.8713 28.5558 11.895 28.5297 11.895C28.5036 11.895 28.4742 11.9265 28.4643 11.9651C28.4545 12.0037 28.4218 12.0353 28.3918 12.0353C28.3617 12.0353 28.3372 12.059 28.3372 12.088C28.3372 12.1169 28.314 12.1406 28.2857 12.1406C28.2575 12.1406 28.2343 12.1658 28.2343 12.1965C28.2343 12.2273 28.2035 12.2607 28.1658 12.2708C28.1281 12.2809 28.0972 12.311 28.0972 12.3377C28.0972 12.3644 28.0741 12.3862 28.0458 12.3862C28.0175 12.3862 27.9944 12.4099 27.9944 12.4389C27.9944 12.4678 27.9712 12.4915 27.9429 12.4915C27.9144 12.4915 27.8915 12.5227 27.8915 12.5617C27.8915 12.6085 27.8687 12.6319 27.823 12.6319C27.7849 12.6319 27.7544 12.6553 27.7544 12.6845C27.7544 12.7135 27.7313 12.7372 27.703 12.7372C27.6744 12.7372 27.6516 12.7684 27.6516 12.8073C27.6516 12.8459 27.6297 12.8775 27.6029 12.8775C27.5761 12.8775 27.544 12.9249 27.5316 12.9828C27.5192 13.0407 27.4871 13.0881 27.4603 13.0881C27.4335 13.0881 27.4116 13.1197 27.4116 13.1583C27.4116 13.1969 27.3892 13.2284 27.3617 13.2284C27.3319 13.2284 27.3028 13.2777 27.2894 13.3513C27.2765 13.4216 27.2465 13.4741 27.2193 13.4741C27.1892 13.4741 27.1717 13.5129 27.1717 13.5794C27.1717 13.6495 27.1545 13.6846 27.1202 13.6846C27.0917 13.6846 27.0688 13.7158 27.0688 13.7548C27.0688 13.8016 27.0459 13.825 27.0003 13.825C26.9448 13.825 26.9317 13.8484 26.9317 13.9478C26.9317 14.0336 26.9162 14.0706 26.8803 14.0706C26.8459 14.0706 26.8289 14.1058 26.8289 14.177C26.8289 14.2383 26.8075 14.2918 26.7784 14.3032C26.7506 14.3141 26.718 14.3768 26.706 14.4425C26.6936 14.5102 26.6635 14.5619 26.6365 14.5619C26.6049 14.5619 26.5889 14.6033 26.5889 14.6847C26.5889 14.7654 26.5727 14.8076 26.5419 14.8076C26.5114 14.8076 26.4869 14.869 26.4722 14.9826C26.458 15.0919 26.4338 15.1546 26.4078 15.1493C26.3791 15.1436 26.3629 15.2149 26.3559 15.3778C26.3487 15.547 26.3327 15.6147 26.2999 15.6147C26.2686 15.6147 26.2463 15.6897 26.2294 15.8515C26.2158 15.9818 26.1872 16.0996 26.1657 16.1133C26.1437 16.1273 26.1213 16.2612 26.1142 16.4203C26.1048 16.6321 26.0898 16.7025 26.0539 16.7025C25.9819 16.7025 25.9821 33.9858 26.0542 34.0141C26.0895 34.028 26.1053 34.122 26.1142 34.3701C26.1231 34.6216 26.1392 34.7157 26.1775 34.7405C26.2232 34.77 26.2232 34.7739 26.1775 34.7753C26.137 34.7766 26.1388 34.7845 26.1861 34.8127C26.2334 34.8409 26.2461 34.8963 26.2461 35.0748C26.2461 35.2526 26.2571 35.3012 26.2975 35.3012C26.337 35.3012 26.3489 35.346 26.3489 35.4942C26.3489 35.6403 26.3611 35.6872 26.3992 35.6872C26.4336 35.6872 26.4566 35.7425 26.4721 35.8626C26.4869 35.9765 26.5114 36.0381 26.5419 36.0381C26.5755 36.0381 26.5889 36.0883 26.5889 36.2135C26.5889 36.3399 26.6022 36.389 26.6365 36.389C26.6638 36.389 26.6937 36.4415 26.7066 36.5118C26.7201 36.5853 26.7492 36.6346 26.779 36.6346C26.8131 36.6346 26.8289 36.6734 26.8289 36.7575C26.8289 36.8432 26.8443 36.8803 26.8803 36.8803C26.9086 36.8803 26.9317 36.9045 26.9317 36.934C26.9317 36.9636 26.9539 36.9965 26.981 37.0071C27.0081 37.0178 27.0402 37.0725 27.0523 37.1289C27.0644 37.1852 27.0962 37.2312 27.1229 37.2312C27.1497 37.2312 27.1717 37.2628 27.1717 37.3014C27.1717 37.34 27.1936 37.3716 27.2204 37.3716C27.2471 37.3716 27.2794 37.42 27.2921 37.4792C27.3048 37.5384 27.3369 37.5954 27.3634 37.6058C27.3899 37.6162 27.4116 37.645 27.4116 37.6698C27.4116 37.6947 27.4333 37.7235 27.4598 37.7339C27.4863 37.7443 27.5184 37.8013 27.5311 37.8605C27.5438 37.9197 27.5761 37.9681 27.6029 37.9681C27.6297 37.9681 27.6516 37.9918 27.6516 38.0208C27.6516 38.0497 27.6747 38.0734 27.703 38.0734C27.7313 38.0734 27.7544 38.0986 27.7544 38.1293C27.7544 38.1601 27.7853 38.1935 27.823 38.2036C27.8607 38.2137 27.8915 38.2438 27.8915 38.2705C27.8915 38.2972 27.9147 38.319 27.9429 38.319C27.9712 38.319 27.9946 38.3388 27.995 38.3629C27.9957 38.4164 28.1437 38.5647 28.1963 38.5647C28.2172 38.5647 28.2343 38.5884 28.2343 38.6173C28.2343 38.6463 28.2575 38.67 28.2857 38.67C28.314 38.67 28.3372 38.6951 28.3372 38.7259C28.3372 38.7566 28.368 38.7901 28.4057 38.8001C28.4434 38.8103 28.4743 38.8391 28.4743 38.8643C28.4743 38.8894 28.5206 38.9204 28.5771 38.9331C28.6337 38.9459 28.68 38.9787 28.68 39.0061C28.68 39.0335 28.7108 39.056 28.7485 39.056C28.7866 39.056 28.8171 39.0794 28.8171 39.1086C28.8171 39.1378 28.8476 39.1612 28.8856 39.1612C28.9234 39.1612 28.9542 39.1837 28.9542 39.2111C28.9542 39.2385 29.0005 39.2714 29.057 39.2841C29.1136 39.2968 29.1599 39.3296 29.1599 39.357C29.1599 39.3906 29.1991 39.4069 29.2799 39.4069C29.362 39.4069 29.3998 39.423 29.3998 39.4579C29.3998 39.4885 29.448 39.5182 29.5198 39.532C29.5886 39.5452 29.6398 39.5759 29.6398 39.6038C29.6398 39.6306 29.6707 39.6525 29.7084 39.6525C29.7464 39.6525 29.7769 39.6759 29.7769 39.7052C29.7769 39.74 29.811 39.7578 29.878 39.7578C29.9344 39.7578 29.9926 39.7823 30.0094 39.813C30.026 39.8433 30.1038 39.877 30.1825 39.8878C30.2712 39.9 30.3254 39.9256 30.3254 39.9554C30.3254 39.9879 30.369 40.0034 30.4601 40.0034C30.5358 40.0034 30.6179 40.0272 30.6477 40.0576C30.6768 40.0874 30.7781 40.1212 30.8729 40.1327C30.9854 40.1463 31.0453 40.1702 31.0453 40.2013C31.0453 40.2358 31.0977 40.2491 31.2338 40.2491C31.3694 40.2491 31.4224 40.2624 31.4224 40.2965C31.4224 40.3315 31.5056 40.3495 31.737 40.3649C31.9705 40.3803 32.0595 40.3998 32.0816 40.4402C32.1072 40.4871 32.2241 40.4947 32.9152 40.4947C33.6069 40.4947 33.7191 40.5021 33.7191 40.5474C33.7191 40.5854 33.7572 40.6 33.8562 40.6C33.9553 40.6 33.9933 40.5854 33.9933 40.5474C33.9933 40.5008 34.7111 40.4947 40.2477 40.4947C45.8004 40.4947 46.5054 40.4888 46.5312 40.4415C46.5517 40.404 46.643 40.3818 46.8414 40.3662C47.044 40.3502 47.1225 40.3307 47.1225 40.2965C47.1225 40.2615 47.1812 40.2491 47.3464 40.2491C47.5089 40.2491 47.5755 40.2353 47.5891 40.1989C47.6013 40.1666 47.6861 40.1402 47.828 40.1247C47.9812 40.1079 48.0481 40.0858 48.0481 40.052C48.0481 40.0199 48.0888 40.0034 48.1681 40.0034C48.2519 40.0034 48.2881 39.9876 48.2881 39.9508C48.2881 39.9156 48.3224 39.8982 48.392 39.8982C48.4519 39.8982 48.5041 39.8763 48.5153 39.8465C48.5259 39.8181 48.5871 39.7847 48.6513 39.7724C48.7175 39.7597 48.768 39.7289 48.768 39.7013C48.768 39.669 48.8084 39.6525 48.888 39.6525C48.9701 39.6525 49.0079 39.6364 49.0079 39.6015C49.0079 39.5709 49.0561 39.5412 49.1279 39.5274C49.1966 39.5142 49.2479 39.4835 49.2479 39.4556C49.2479 39.4249 49.2858 39.4069 49.3507 39.4069C49.4178 39.4069 49.4536 39.3892 49.4536 39.3558C49.4536 39.3253 49.5017 39.2955 49.5735 39.2817C49.6423 39.2686 49.6935 39.2379 49.6935 39.21C49.6935 39.1832 49.7244 39.1612 49.7621 39.1612C49.8002 39.1612 49.8306 39.1378 49.8306 39.1086C49.8306 39.0797 49.8538 39.056 49.8821 39.056C49.9103 39.056 49.9335 39.033 49.9335 39.0049C49.9335 38.9744 49.9817 38.9446 50.0535 38.9308C50.1222 38.9176 50.1734 38.887 50.1734 38.8591C50.1734 38.8323 50.1966 38.8103 50.2249 38.8103C50.2531 38.8103 50.2763 38.7885 50.2763 38.7618C50.2763 38.7351 50.3071 38.705 50.3448 38.6949C50.3826 38.6848 50.4134 38.6514 50.4134 38.6206C50.4134 38.5898 50.4365 38.5647 50.4648 38.5647C50.4931 38.5647 50.5162 38.541 50.5162 38.512C50.5162 38.4831 50.5394 38.4594 50.5677 38.4594C50.5959 38.4594 50.6191 38.4342 50.6191 38.4035C50.6191 38.3727 50.6499 38.3393 50.6876 38.3292C50.7254 38.3191 50.7562 38.289 50.7562 38.2623C50.7562 38.2356 50.7793 38.2138 50.8076 38.2138C50.8359 38.2138 50.859 38.1886 50.859 38.1578C50.859 38.1271 50.8899 38.0937 50.9276 38.0836C50.9653 38.0735 50.9962 38.0434 50.9962 38.0167C50.9962 37.99 51.0193 37.9681 51.0476 37.9681C51.0761 37.9681 51.099 37.9369 51.099 37.8979C51.099 37.859 51.1219 37.8278 51.1504 37.8278C51.1787 37.8278 51.2018 37.8039 51.2018 37.7748C51.2018 37.7456 51.2327 37.6948 51.2704 37.6617C51.3081 37.6286 51.339 37.5736 51.339 37.5392C51.339 37.5049 51.3621 37.4768 51.3904 37.4768C51.4187 37.4768 51.4418 37.4567 51.4418 37.432C51.4418 37.4073 51.4727 37.3601 51.5104 37.3271C51.5481 37.294 51.5789 37.2352 51.5789 37.1965C51.5789 37.1572 51.6017 37.1259 51.6303 37.1259C51.6663 37.1259 51.6818 37.0889 51.6818 37.0031C51.6818 36.919 51.6975 36.8803 51.7316 36.8803C51.7615 36.8803 51.7905 36.831 51.804 36.7575C51.8169 36.6871 51.8469 36.6346 51.8741 36.6346C51.9057 36.6346 51.9217 36.5932 51.9217 36.5118C51.9217 36.4312 51.9379 36.389 51.9687 36.389C51.9992 36.389 52.0237 36.3274 52.0385 36.2135C52.054 36.0934 52.077 36.0381 52.1114 36.0381C52.1489 36.0381 52.1617 35.9934 52.1617 35.8626C52.1617 35.73 52.1743 35.6872 52.2131 35.6872C52.2519 35.6872 52.2645 35.6445 52.2645 35.5135C52.2645 35.3921 52.2807 35.3305 52.3183 35.3089C52.3591 35.2856 52.377 35.1955 52.3919 34.9387C52.4064 34.6901 52.4239 34.5993 52.4572 34.5993C52.4948 34.5993 52.5044 33.9044 52.5122 30.6456C52.5196 27.5208 52.5306 26.6889 52.5645 26.6774C52.597 26.6663 52.6073 26.4777 52.6073 25.8937C52.6073 25.2334 52.6 25.1245 52.5559 25.1245C52.5151 25.1245 52.5045 25.0739 52.5045 24.8789C52.5045 24.6927 52.493 24.6333 52.4569 24.6333C52.4296 24.6333 52.3997 24.5808 52.3868 24.5104C52.3733 24.4369 52.3442 24.3876 52.3144 24.3876C52.2818 24.3876 52.2645 24.3511 52.2645 24.2823C52.2645 24.2178 52.2482 24.1805 52.2225 24.1858C52.1994 24.1906 52.1751 24.1591 52.1687 24.1157C52.1612 24.0652 52.133 24.0367 52.0907 24.0367C52.0474 24.0367 52.0246 24.0125 52.0246 23.9665C52.0246 23.9275 52.0017 23.8963 51.9731 23.8963C51.9449 23.8963 51.9217 23.8726 51.9217 23.8437C51.9217 23.8145 51.8912 23.7911 51.8532 23.7911C51.8155 23.7911 51.7846 23.7686 51.7846 23.7412C51.7846 23.7138 51.7383 23.6809 51.6818 23.6682C51.6252 23.6555 51.5789 23.6227 51.5789 23.5953C51.5789 23.5617 51.5397 23.5454 51.4589 23.5454C51.3791 23.5454 51.339 23.529 51.339 23.4964C51.339 23.4498 51.071 23.4263 50.1649 23.3934C50.0754 23.3902 50.0019 23.3717 50.0016 23.3524C50.0013 23.3331 49.9873 23.3395 49.9705 23.3666C49.9447 23.4084 49.4177 23.4153 46.4884 23.412C43.9134 23.4092 43.0245 23.3978 42.9886 23.3672C42.9529 23.3369 42.9284 23.3364 42.894 23.3657C42.8685 23.3873 42.7297 23.4153 42.5855 23.4278C42.3989 23.4439 42.3234 23.4641 42.3234 23.4979C42.3234 23.524 42.2925 23.5454 42.2548 23.5454C42.2091 23.5454 42.1862 23.5688 42.1862 23.6156C42.1862 23.6546 42.1634 23.6858 42.1348 23.6858C42.1065 23.6858 42.0834 23.7095 42.0834 23.7384C42.0834 23.7677 42.0529 23.7911 42.0148 23.7911C41.9691 23.7911 41.9463 23.8145 41.9463 23.8612C41.9463 23.9002 41.9234 23.9314 41.8949 23.9314C41.8666 23.9314 41.8434 23.9551 41.8434 23.9841C41.8434 24.013 41.8203 24.0367 41.792 24.0367C41.7637 24.0367 41.7406 24.0619 41.7406 24.0926C41.7406 24.1234 41.7097 24.1568 41.672 24.1669C41.6343 24.177 41.6035 24.2071 41.6035 24.2338C41.6035 24.2605 41.5803 24.2823 41.5521 24.2823C41.5238 24.2823 41.5006 24.3042 41.5006 24.3309C41.5006 24.3576 41.4698 24.3877 41.4321 24.3978C41.3944 24.4079 41.3635 24.4413 41.3635 24.472C41.3635 24.5028 41.3404 24.528 41.3121 24.528C41.2838 24.528 41.2607 24.5517 41.2607 24.5806C41.2607 24.6099 41.2302 24.6333 41.1921 24.6333C41.1464 24.6333 41.1236 24.6567 41.1236 24.7034C41.1236 24.7424 41.1007 24.7736 41.0721 24.7736C41.0439 24.7736 41.0207 24.7973 41.0207 24.8263C41.0207 24.8555 40.9902 24.8789 40.9522 24.8789C40.9145 24.8789 40.8854 24.8907 40.8876 24.9052C40.8988 24.9776 40.8786 25.0193 40.8322 25.0193C40.8039 25.0193 40.7808 25.043 40.7808 25.0719C40.7808 25.1009 40.7576 25.1245 40.7293 25.1245C40.7011 25.1245 40.6779 25.1497 40.6779 25.1805C40.6779 25.2112 40.6472 25.2446 40.6097 25.2546C40.5722 25.2647 40.5507 25.288 40.5618 25.3064C40.5729 25.3247 40.5496 25.3485 40.51 25.3591C40.4704 25.3697 40.438 25.4002 40.438 25.4269C40.438 25.4536 40.4148 25.4755 40.3865 25.4755C40.3583 25.4755 40.3351 25.5006 40.3351 25.5314C40.3351 25.5621 40.3043 25.5956 40.2666 25.6057C40.2289 25.6158 40.198 25.6459 40.198 25.6726C40.198 25.6992 40.1749 25.7211 40.1466 25.7211C40.1183 25.7211 40.0952 25.743 40.0952 25.7696C40.0952 25.7963 40.0643 25.8264 40.0266 25.8366C39.9889 25.8466 39.958 25.8801 39.958 25.9108C39.958 25.9416 39.9349 25.9667 39.9066 25.9667C39.8783 25.9667 39.8552 25.9904 39.8552 26.0194C39.8552 26.0486 39.8247 26.072 39.7866 26.072C39.7409 26.072 39.7181 26.0954 39.7181 26.1422C39.7181 26.1812 39.6952 26.2124 39.6667 26.2124C39.6384 26.2124 39.6152 26.2361 39.6152 26.265C39.6152 26.294 39.5921 26.3177 39.5638 26.3177C39.5355 26.3177 39.5124 26.3428 39.5124 26.3736C39.5124 26.4043 39.4816 26.4378 39.4438 26.4479C39.4061 26.458 39.3753 26.4881 39.3753 26.5148C39.3753 26.5414 39.3521 26.5633 39.3239 26.5633C39.2956 26.5633 39.2724 26.5852 39.2724 26.6118C39.2724 26.6385 39.2416 26.6687 39.2039 26.6788C39.1662 26.6888 39.1353 26.7223 39.1353 26.753C39.1353 26.7838 39.1122 26.8089 39.0839 26.8089C39.0556 26.8089 39.0325 26.8326 39.0325 26.8616C39.0325 26.8905 39.0093 26.9142 38.9811 26.9142C38.9528 26.9142 38.9296 26.9394 38.9296 26.9702C38.9296 27.0009 38.8988 27.0343 38.8611 27.0444C38.8125 27.0574 38.7925 27.0923 38.7925 27.164C38.7925 27.2651 38.7926 27.2651 39.0153 27.2651C39.1906 27.2651 39.2382 27.2539 39.2382 27.2125C39.2382 27.1799 39.2704 27.1599 39.3228 27.1599C39.3839 27.1599 39.4019 27.1745 39.3877 27.2125C39.3702 27.2591 39.8625 27.2651 43.6919 27.2651C47.5039 27.2651 48.0183 27.2589 48.0357 27.2125C48.0611 27.1447 48.1509 27.1439 48.1509 27.2115C48.1509 27.248 48.1863 27.2616 48.2724 27.2583C48.3528 27.2552 48.3885 27.2391 48.3778 27.2107C48.3674 27.1829 48.3849 27.174 48.4277 27.1855C48.464 27.1952 48.4937 27.2171 48.4937 27.2342C48.4937 27.2512 48.5246 27.2651 48.5623 27.2651C48.6004 27.2651 48.6309 27.2417 48.6309 27.2125C48.6309 27.1299 48.7234 27.151 48.7464 27.2388C48.7743 27.3455 48.7738 32.5534 48.7458 32.8921C48.73 33.0832 48.7103 33.1606 48.6772 33.1606C48.6426 33.1606 48.6309 33.2231 48.6309 33.4062C48.6309 33.6012 48.6202 33.6518 48.5794 33.6518C48.5406 33.6518 48.528 33.6947 48.528 33.8273C48.528 33.9575 48.5151 34.0028 48.4781 34.0028C48.4483 34.0028 48.4192 34.0521 48.4058 34.1256C48.3929 34.1959 48.3629 34.2484 48.3357 34.2484C48.3041 34.2484 48.2881 34.2898 48.2881 34.3712C48.2881 34.4553 48.2723 34.494 48.2382 34.494C48.2084 34.494 48.1793 34.5433 48.1658 34.6169C48.1529 34.6872 48.123 34.7397 48.0957 34.7397C48.0656 34.7397 48.0481 34.7785 48.0481 34.845C48.0481 34.9179 48.0313 34.9502 47.9935 34.9502C47.9634 34.9502 47.9308 34.9818 47.9209 35.0204C47.911 35.059 47.8816 35.0906 47.8555 35.0906C47.8295 35.0906 47.8081 35.1143 47.8081 35.1432C47.8081 35.1722 47.785 35.1959 47.7567 35.1959C47.7282 35.1959 47.7053 35.2271 47.7053 35.2661C47.7053 35.3128 47.6824 35.3362 47.6367 35.3362C47.5986 35.3362 47.5682 35.3596 47.5682 35.3889C47.5682 35.4178 47.545 35.4415 47.5168 35.4415C47.4885 35.4415 47.4653 35.4634 47.4653 35.4901C47.4653 35.5168 47.4345 35.5469 47.3968 35.557C47.3591 35.567 47.3282 35.6005 47.3282 35.6312C47.3282 35.67 47.2966 35.6872 47.2254 35.6872C47.1541 35.6872 47.1225 35.7044 47.1225 35.7431C47.1225 35.7738 47.0917 35.8073 47.054 35.8174C47.0163 35.8275 46.9854 35.8576 46.9854 35.8843C46.9854 35.9109 46.9623 35.9328 46.934 35.9328C46.9057 35.9328 46.8826 35.9565 46.8826 35.9854C46.8826 36.0222 46.8464 36.0381 46.7626 36.0381C46.6805 36.0381 46.6426 36.0542 46.6426 36.0891C46.6426 36.1197 46.5945 36.1494 46.5226 36.1632C46.4539 36.1764 46.4027 36.2071 46.4027 36.235C46.4027 36.2673 46.3622 36.2837 46.2827 36.2837C46.1989 36.2837 46.1627 36.2996 46.1627 36.3364C46.1627 36.3712 46.1286 36.389 46.0616 36.389C46.0025 36.389 45.947 36.4135 45.9282 36.4479C45.9053 36.4898 45.8357 36.5113 45.6866 36.5223C45.5519 36.5322 45.4771 36.5532 45.4771 36.5809C45.4771 36.6111 45.3611 36.6313 45.0921 36.648C44.8803 36.6612 44.6921 36.6872 44.6739 36.7059C44.6307 36.7502 34.0051 36.7526 33.9784 36.7084C33.9679 36.6911 33.752 36.6656 33.4985 36.6517C33.1554 36.6329 33.0331 36.614 33.0196 36.5779C33.0069 36.544 32.939 36.5294 32.7946 36.5294C32.6394 36.5294 32.5879 36.517 32.5879 36.4798C32.5879 36.4494 32.535 36.4211 32.4508 36.4065C32.3665 36.392 32.3136 36.3637 32.3136 36.3333C32.3136 36.3016 32.2765 36.2837 32.2108 36.2837C32.1459 36.2837 32.108 36.2658 32.108 36.235C32.108 36.2071 32.0567 36.1764 31.988 36.1632C31.9162 36.1494 31.868 36.1197 31.868 36.0891C31.868 36.0557 31.8322 36.0381 31.7641 36.0381C31.7033 36.0381 31.652 36.0162 31.6404 35.9854C31.6296 35.9565 31.5992 35.9328 31.5729 35.9328C31.5467 35.9328 31.5252 35.9076 31.5252 35.8769C31.5252 35.8461 31.4943 35.8127 31.4566 35.8026C31.4189 35.7925 31.3881 35.7624 31.3881 35.7357C31.3881 35.709 31.3645 35.6872 31.3356 35.6872C31.3067 35.6872 31.2742 35.6635 31.2634 35.6345C31.2525 35.6056 31.2221 35.5819 31.1959 35.5819C31.1696 35.5819 31.1481 35.5582 31.1481 35.5292C31.1481 35.5003 31.125 35.4766 31.0967 35.4766C31.0681 35.4766 31.0453 35.4454 31.0453 35.4064C31.0453 35.3656 31.0224 35.3362 30.9906 35.3362C30.9606 35.3362 30.9279 35.3047 30.9181 35.2661C30.9082 35.2275 30.8788 35.1959 30.8527 35.1959C30.8267 35.1959 30.8053 35.1722 30.8053 35.1432C30.8053 35.1143 30.7822 35.0906 30.7539 35.0906C30.7253 35.0906 30.7025 35.0594 30.7025 35.0204C30.7025 34.9818 30.6806 34.9502 30.6538 34.9502C30.627 34.9502 30.5949 34.9029 30.5825 34.845C30.5701 34.7871 30.538 34.7397 30.5112 34.7397C30.4844 34.7397 30.4625 34.7081 30.4625 34.6695C30.4625 34.6309 30.4401 34.5993 30.4126 34.5993C30.3828 34.5993 30.3537 34.55 30.3403 34.4765C30.3274 34.4061 30.2974 34.3537 30.2702 34.3537C30.2386 34.3537 30.2226 34.3123 30.2226 34.2309C30.2226 34.1451 30.2071 34.108 30.1711 34.108C30.1371 34.108 30.1197 34.0732 30.1197 34.0045C30.1197 33.9441 30.0958 33.8872 30.0622 33.868C30.0212 33.8445 30.0003 33.7733 29.9895 33.6206C29.9796 33.4794 29.9596 33.4062 29.931 33.4062C29.8999 33.4062 29.8838 33.3058 29.8737 33.0489C29.8644 32.8122 29.8458 32.6869 29.8183 32.6776C29.7579 32.657 29.7579 18.294 29.8183 18.2734C29.8458 18.264 29.8644 18.1388 29.8737 17.902C29.8845 17.6281 29.8988 17.5447 29.9352 17.5447C29.9707 17.5447 29.9826 17.4877 29.9826 17.3184C29.9826 17.147 29.996 17.0844 30.0377 17.0605C30.0708 17.0415 30.0998 16.9639 30.1107 16.8657C30.1223 16.7599 30.1452 16.7025 30.1756 16.7025C30.2064 16.7025 30.2226 16.6603 30.2226 16.5797C30.2226 16.497 30.2385 16.4569 30.2713 16.4569C30.298 16.4569 30.3301 16.4095 30.3425 16.3516C30.3549 16.2937 30.387 16.2463 30.4138 16.2463C30.4406 16.2463 30.4625 16.2147 30.4625 16.1761C30.4625 16.1375 30.4839 16.106 30.5101 16.106C30.5374 16.106 30.5673 16.0535 30.5802 15.9831C30.5937 15.9096 30.6228 15.8603 30.6526 15.8603C30.68 15.8603 30.7025 15.8366 30.7025 15.8077C30.7025 15.7787 30.7256 15.755 30.7539 15.755C30.7825 15.755 30.8053 15.7239 30.8053 15.6849C30.8053 15.6459 30.8282 15.6147 30.8567 15.6147C30.885 15.6147 30.9082 15.591 30.9082 15.562C30.9082 15.5328 30.9386 15.5094 30.9767 15.5094C31.0224 15.5094 31.0453 15.486 31.0453 15.4392C31.0453 15.4002 31.0681 15.369 31.0967 15.369C31.125 15.369 31.1481 15.3454 31.1481 15.3164C31.1481 15.2872 31.1786 15.2638 31.2167 15.2638C31.2548 15.2638 31.2852 15.2404 31.2852 15.2111C31.2852 15.1822 31.3084 15.1585 31.3367 15.1585C31.3652 15.1585 31.3881 15.1273 31.3881 15.0883C31.3881 15.0415 31.4109 15.0181 31.4566 15.0181C31.4947 15.0181 31.5252 14.9947 31.5252 14.9655C31.5252 14.9308 31.559 14.9128 31.624 14.9128C31.6941 14.9128 31.7281 14.8924 31.7408 14.8427C31.7507 14.8041 31.7833 14.7725 31.8134 14.7725C31.8434 14.7725 31.868 14.7488 31.868 14.7198C31.868 14.6831 31.9042 14.6672 31.988 14.6672C32.0688 14.6672 32.108 14.6509 32.108 14.6173C32.108 14.5899 32.1529 14.5574 32.2079 14.545C32.2629 14.5327 32.3164 14.4998 32.3268 14.4721C32.3375 14.4435 32.3909 14.4216 32.4497 14.4216C32.5192 14.4216 32.5536 14.4041 32.5536 14.3689C32.5536 14.3323 32.5896 14.3163 32.6719 14.3163C32.7469 14.3163 32.8019 14.2948 32.8223 14.2574C32.8453 14.2155 32.9149 14.194 33.064 14.183C33.2019 14.1728 33.2735 14.1523 33.2735 14.1231C33.2735 14.0934 33.3477 14.074 33.4986 14.0642C33.6456 14.0546 33.7345 14.0318 33.7545 13.9986C33.7811 13.9545 34.9262 13.9466 42.4249 13.9384C50.0284 13.9301 51.0647 13.9227 51.0647 13.877C51.0647 13.8449 51.0976 13.825 51.1504 13.825C51.2038 13.825 51.2361 13.8051 51.2361 13.7724C51.2361 13.7434 51.2593 13.7197 51.2875 13.7197C51.3161 13.7197 51.339 13.6885 51.339 13.6495C51.339 13.6106 51.3618 13.5794 51.3904 13.5794C51.4187 13.5794 51.4418 13.5557 51.4418 13.5267C51.4418 13.4975 51.4723 13.4741 51.5104 13.4741C51.5561 13.4741 51.5789 13.4507 51.5789 13.4039C51.5789 13.3649 51.6018 13.3337 51.6303 13.3337C51.6586 13.3337 51.6818 13.31 51.6818 13.2811C51.6818 13.2521 51.7049 13.2284 51.7332 13.2284C51.7615 13.2284 51.7846 13.2033 51.7846 13.1725C51.7846 13.1418 51.8155 13.1083 51.8532 13.0983C51.8909 13.0881 51.9217 13.058 51.9217 13.0313C51.9217 13.0047 51.9449 12.9828 51.9731 12.9828C52.0014 12.9828 52.0246 12.9609 52.0246 12.9343C52.0246 12.9076 52.0554 12.8775 52.0931 12.8673C52.1308 12.8573 52.1617 12.8238 52.1617 12.7931C52.1617 12.7623 52.1848 12.7372 52.2131 12.7372C52.2414 12.7372 52.2645 12.7153 52.2645 12.6886C52.2645 12.6619 52.2954 12.6318 52.3331 12.6217C52.3708 12.6116 52.4016 12.5782 52.4016 12.5475C52.4016 12.5167 52.4248 12.4915 52.4531 12.4915C52.4813 12.4915 52.5045 12.4678 52.5045 12.4389C52.5045 12.4096 52.535 12.3862 52.573 12.3862C52.6111 12.3862 52.6416 12.3628 52.6416 12.3336C52.6416 12.3047 52.6647 12.281 52.693 12.281C52.7216 12.281 52.7444 12.2498 52.7444 12.2108C52.7444 12.1718 52.7673 12.1406 52.7959 12.1406C52.8241 12.1406 52.8473 12.1169 52.8473 12.088C52.8473 12.0587 52.8778 12.0353 52.9158 12.0353C52.9615 12.0353 52.9844 12.0119 52.9844 11.9651C52.9844 11.9262 53.0073 11.895 53.0358 11.895C53.0641 11.895 53.0872 11.8731 53.0872 11.8464C53.0872 11.8197 53.1181 11.7896 53.1558 11.7795C53.1935 11.7694 53.2244 11.736 53.2244 11.7052C53.2244 11.6745 53.2475 11.6493 53.2758 11.6493C53.3041 11.6493 53.3272 11.6256 53.3272 11.5967C53.3272 11.5677 53.3503 11.544 53.3786 11.544C53.4069 11.544 53.43 11.5189 53.43 11.4881C53.43 11.4574 53.4609 11.4239 53.4986 11.4138C53.5363 11.4037 53.5672 11.3736 53.5672 11.3469C53.5672 11.3203 53.5903 11.2984 53.6186 11.2984C53.6469 11.2984 53.67 11.2747 53.67 11.2458C53.67 11.2165 53.7005 11.1931 53.7386 11.1931C53.7842 11.1931 53.8071 11.1697 53.8071 11.1229C53.8071 11.0839 53.83 11.0528 53.8585 11.0528C53.8868 11.0528 53.91 11.0309 53.91 11.0042C53.91 10.9775 53.9408 10.9474 53.9785 10.9373C54.0162 10.9272 54.0471 10.8938 54.0471 10.863C54.0471 10.8323 54.0702 10.8071 54.0985 10.8071C54.1268 10.8071 54.1499 10.7834 54.1499 10.7545C54.1499 10.7255 54.173 10.7018 54.2013 10.7018C54.2296 10.7018 54.2528 10.6767 54.2528 10.6459C54.2528 10.6152 54.2836 10.5817 54.3213 10.5716C54.359 10.5615 54.3899 10.5314 54.3899 10.5047C54.3899 10.4781 54.413 10.4562 54.4413 10.4562C54.4696 10.4562 54.4927 10.4343 54.4927 10.4077C54.4927 10.381 54.5236 10.3508 54.5613 10.3407C54.599 10.3307 54.6298 10.2972 54.6298 10.2665C54.6298 10.2357 54.653 10.2106 54.6812 10.2106C54.7155 10.2106 54.7327 10.1755 54.7327 10.1053V10L43.7717 10.0013C34.1995 10.0025 32.8051 10.0092 32.7665 10.054ZM55.1097 13.5267C55.1097 13.556 55.0793 13.5794 55.0412 13.5794C55.0025 13.5794 54.9726 13.6028 54.9726 13.6331C54.9726 13.6627 54.9495 13.6959 54.9212 13.707C54.8929 13.7181 54.8698 13.7492 54.8698 13.7761C54.8698 13.803 54.8389 13.825 54.8012 13.825C54.7635 13.825 54.7327 13.8469 54.7327 13.8735C54.7327 13.9002 54.7018 13.9303 54.6641 13.9405C54.6264 13.9505 54.5956 13.984 54.5956 14.0147C54.5956 14.0455 54.5724 14.0706 54.5441 14.0706C54.5158 14.0706 54.4927 14.0943 54.4927 14.1233C54.4927 14.1522 54.4696 14.1759 54.4413 14.1759C54.413 14.1759 54.3899 14.1978 54.3899 14.2245C54.3899 14.2512 54.359 14.2813 54.3213 14.2914C54.2836 14.3014 54.2528 14.3349 54.2528 14.3656C54.2528 14.3964 54.2296 14.4216 54.2013 14.4216C54.173 14.4216 54.1499 14.4434 54.1499 14.4701C54.1499 14.4968 54.1191 14.5269 54.0814 14.537C54.0436 14.5471 54.0128 14.5805 54.0128 14.6113C54.0128 14.642 53.9897 14.6672 53.9614 14.6672C53.9331 14.6672 53.91 14.6909 53.91 14.7198C53.91 14.7488 53.8886 14.7725 53.8625 14.7725C53.8365 14.7725 53.807 14.8041 53.7972 14.8427C53.7873 14.8813 53.7547 14.9128 53.7246 14.9128C53.6946 14.9128 53.67 14.9365 53.67 14.9655C53.67 14.9944 53.6469 15.0181 53.6186 15.0181C53.5903 15.0181 53.5672 15.04 53.5672 15.0667C53.5672 15.0934 53.5363 15.1235 53.4986 15.1336C53.4609 15.1436 53.43 15.1771 53.43 15.2078C53.43 15.2386 53.4069 15.2638 53.3786 15.2638C53.3503 15.2638 53.3272 15.2856 53.3272 15.3123C53.3272 15.339 53.2963 15.3691 53.2586 15.3792C53.2209 15.3893 53.1901 15.4227 53.1901 15.4535C53.1901 15.4842 53.1669 15.5094 53.1387 15.5094C53.1104 15.5094 53.0872 15.5331 53.0872 15.562C53.0872 15.591 53.0641 15.6147 53.0358 15.6147C53.0075 15.6147 52.9844 15.6398 52.9844 15.6706C52.9844 15.7014 52.9535 15.7348 52.9158 15.7449C52.8781 15.755 52.8473 15.7851 52.8473 15.8118C52.8473 15.8385 52.8241 15.8603 52.7959 15.8603C52.7676 15.8603 52.7444 15.8822 52.7444 15.9089C52.7444 15.9356 52.7136 15.9657 52.6759 15.9758C52.6382 15.9858 52.6073 16.0193 52.6073 16.05C52.6073 16.0808 52.5842 16.106 52.5559 16.106C52.5276 16.106 52.5045 16.1278 52.5045 16.1545C52.5045 16.1812 52.4736 16.2113 52.4359 16.2214C52.3982 16.2315 52.3674 16.2649 52.3674 16.2957C52.3674 16.3264 52.3442 16.3516 52.3159 16.3516C52.2877 16.3516 52.2645 16.3753 52.2645 16.4042C52.2645 16.4332 52.2414 16.4569 52.2131 16.4569C52.1848 16.4569 52.1617 16.4787 52.1617 16.5054C52.1617 16.5321 52.1308 16.5622 52.0931 16.5723C52.0554 16.5824 52.0246 16.6158 52.0246 16.6466C52.0246 16.6774 52.0014 16.7025 51.9731 16.7025C51.9449 16.7025 51.9217 16.7244 51.9217 16.7511C51.9217 16.7778 51.8909 16.8079 51.8532 16.818C51.8155 16.828 51.7846 16.8615 51.7846 16.8922C51.7846 16.923 51.7615 16.9482 51.7332 16.9482C51.7049 16.9482 51.6818 16.9719 51.6818 17.0008C51.6818 17.0298 51.6604 17.0534 51.6343 17.0534C51.6083 17.0534 51.5788 17.085 51.569 17.1236C51.5591 17.1622 51.5255 17.1938 51.4942 17.1938C51.4508 17.1938 51.44 17.2207 51.4482 17.3079L51.4589 17.4219L54.5013 17.4309C57.1739 17.4387 57.5436 17.4462 57.5436 17.4923C57.5436 17.5288 57.58 17.5447 57.6636 17.5447C57.7474 17.5447 57.7836 17.5606 57.7836 17.5974C57.7836 17.6263 57.8067 17.65 57.835 17.65C57.8636 17.65 57.8864 17.6812 57.8864 17.7202C57.8864 17.767 57.9093 17.7904 57.955 17.7904C58.0144 17.7904 58.0235 17.8138 58.0235 17.9658C58.0235 18.0984 58.0361 18.1413 58.075 18.1413C58.1203 18.1413 58.1264 18.5059 58.1264 21.2118C58.1264 23.6451 58.1353 24.2822 58.1692 24.2819C58.269 24.2808 58.3663 24.2356 58.3663 24.1905C58.3663 24.1638 58.3895 24.142 58.4178 24.142C58.446 24.142 58.4692 24.1183 58.4692 24.0893C58.4692 24.0601 58.4996 24.0367 58.5377 24.0367C58.5834 24.0367 58.6063 24.0133 58.6063 23.9665C58.6063 23.9275 58.6292 23.8963 58.6577 23.8963C58.686 23.8963 58.7091 23.8726 58.7091 23.8437C58.7091 23.8145 58.7396 23.7911 58.7777 23.7911C58.8234 23.7911 58.8463 23.7677 58.8463 23.7209C58.8463 23.6819 58.8691 23.6507 58.8977 23.6507C58.926 23.6507 58.9491 23.627 58.9491 23.5981C58.9491 23.5691 58.9722 23.5454 59.0005 23.5454C59.0288 23.5454 59.0519 23.5217 59.0519 23.4928C59.0519 23.4635 59.0824 23.4401 59.1205 23.4401C59.1662 23.4401 59.1891 23.4167 59.1891 23.37C59.1891 23.331 59.2119 23.2998 59.2405 23.2998C59.2688 23.2998 59.2919 23.2761 59.2919 23.2471C59.2919 23.2179 59.3224 23.1945 59.3605 23.1945C59.4061 23.1945 59.429 23.1711 59.429 23.1243C59.429 23.0853 59.4519 23.0541 59.4804 23.0541C59.5087 23.0541 59.5318 23.0323 59.5318 23.0056C59.5318 22.9789 59.5642 22.9484 59.6039 22.9378C59.6464 22.9264 59.666 22.9022 59.6518 22.8787C59.6376 22.8552 59.6572 22.831 59.6998 22.8196C59.7394 22.809 59.7718 22.7785 59.7718 22.7517C59.7718 22.7251 59.7949 22.7032 59.8232 22.7032C59.8515 22.7032 59.8746 22.6795 59.8746 22.6506C59.8746 22.6213 59.9051 22.5979 59.9432 22.5979C59.9889 22.5979 60.0118 22.5745 60.0118 22.5278C60.0118 22.4888 60.0346 22.4576 60.0632 22.4576C60.0915 22.4576 60.1146 22.4339 60.1146 22.4049C60.1146 22.3757 60.1451 22.3523 60.1832 22.3523C60.2289 22.3523 60.2517 22.3289 60.2517 22.2821C60.2517 22.2431 60.2746 22.2119 60.3031 22.2119C60.3314 22.2119 60.3546 22.1901 60.3546 22.1634C60.3546 22.1367 60.3854 22.1066 60.4231 22.0965C60.4608 22.0864 60.4917 22.053 60.4917 22.0222C60.4917 21.9914 60.5148 21.9663 60.5431 21.9663C60.5714 21.9663 60.5945 21.9426 60.5945 21.9136C60.5945 21.8847 60.6177 21.861 60.6459 21.861C60.6742 21.861 60.6974 21.8373 60.6974 21.8084C60.6974 21.7791 60.7278 21.7557 60.7659 21.7557C60.8116 21.7557 60.8345 21.7323 60.8345 21.6856C60.8345 21.6466 60.8573 21.6154 60.8859 21.6154C60.9142 21.6154 60.9373 21.5917 60.9373 21.5627C60.9373 21.5335 60.9678 21.5101 61.0059 21.5101C61.0516 21.5101 61.0744 21.4867 61.0744 21.4399C61.0744 21.4009 61.0973 21.3697 61.1259 21.3697C61.1541 21.3697 61.1773 21.346 61.1773 21.3171C61.1773 21.2881 61.2004 21.2645 61.2287 21.2645C61.257 21.2645 61.2801 21.2408 61.2801 21.2118C61.2801 21.1826 61.3106 21.1592 61.3487 21.1592C61.3944 21.1592 61.4172 21.1358 61.4172 21.089C61.4172 21.05 61.4401 21.0188 61.4687 21.0188C61.4969 21.0188 61.5201 20.9951 61.5201 20.9662C61.5201 20.9369 61.5506 20.9135 61.5886 20.9135C61.6343 20.9135 61.6572 20.8901 61.6572 20.8434C61.6572 20.8044 61.6801 20.7732 61.7086 20.7732C61.7369 20.7732 61.76 20.7495 61.76 20.7205C61.76 20.6916 61.7815 20.6679 61.8078 20.6679C61.8602 20.6679 61.8972 20.5942 61.8972 20.4896C61.8972 20.4525 61.9203 20.4222 61.9486 20.4222C61.9938 20.4222 62 20.1045 62 17.7728C62 15.4412 61.9938 15.1234 61.9486 15.1234C61.911 15.1234 61.897 15.0832 61.8967 14.9743C61.8961 14.7743 61.8649 14.6672 61.8074 14.6672C61.7761 14.6672 61.76 14.6255 61.76 14.5444C61.76 14.4586 61.7445 14.4216 61.7086 14.4216C61.6801 14.4216 61.6572 14.3904 61.6572 14.3514C61.6572 14.3128 61.6353 14.2812 61.6085 14.2812C61.5817 14.2812 61.5496 14.2338 61.5372 14.1759C61.5248 14.118 61.4927 14.0706 61.466 14.0706C61.4391 14.0706 61.4172 14.047 61.4172 14.018C61.4172 13.9891 61.3927 13.9654 61.3626 13.9654C61.3326 13.9654 61.2999 13.9338 61.2901 13.8952C61.2773 13.8455 61.2433 13.825 61.1733 13.825C61.1118 13.825 61.0744 13.8066 61.0744 13.7763C61.0744 13.7484 61.0232 13.7177 60.9545 13.7045C60.8826 13.6907 60.8345 13.6609 60.8345 13.6304C60.8345 13.5919 60.7881 13.5794 60.6459 13.5794C60.5012 13.5794 60.4574 13.5671 60.4574 13.5267C60.4574 13.4804 60.1375 13.4741 57.7836 13.4741C55.4297 13.4741 55.1097 13.4804 55.1097 13.5267ZM35.2617 16.7511C35.2617 16.7849 35.1942 16.807 35.0389 16.824C34.8804 16.8414 34.8161 16.8629 34.8161 16.8983C34.8161 16.9319 34.7769 16.9482 34.6961 16.9482C34.6166 16.9482 34.5761 16.9646 34.5761 16.9969C34.5761 17.0248 34.5249 17.0555 34.4561 17.0687C34.3843 17.0825 34.3361 17.1122 34.3361 17.1427C34.3361 17.1777 34.2983 17.1938 34.2162 17.1938C34.1324 17.1938 34.0962 17.2097 34.0962 17.2464C34.0962 17.2754 34.0726 17.2991 34.0437 17.2991C34.0148 17.2991 33.9827 17.3218 33.9723 17.3496C33.9618 17.3773 33.9084 17.4102 33.8533 17.4225C33.7984 17.4349 33.7534 17.4675 33.7534 17.4949C33.7534 17.5223 33.7288 17.5447 33.6987 17.5447C33.6687 17.5447 33.636 17.5763 33.6262 17.6149C33.6163 17.6535 33.5869 17.6851 33.5608 17.6851C33.5348 17.6851 33.5134 17.7088 33.5134 17.7377C33.5134 17.7667 33.4921 17.7904 33.466 17.7904C33.4399 17.7904 33.4105 17.822 33.4006 17.8606C33.3908 17.8992 33.3581 17.9307 33.3281 17.9307C33.2903 17.9307 33.2735 17.9631 33.2735 18.036C33.2735 18.1089 33.2567 18.1413 33.2188 18.1413C33.1888 18.1413 33.1561 18.1729 33.1463 18.2115C33.1364 18.2501 33.108 18.2817 33.0832 18.2817C33.0584 18.2817 33.0332 18.3251 33.0272 18.3782C33.0211 18.4324 32.9976 18.4708 32.9735 18.4659C32.9484 18.4607 32.9307 18.4934 32.9307 18.5448C32.9307 18.5961 32.911 18.6326 32.8833 18.6326C32.8313 18.6326 32.7947 18.7367 32.794 18.887C32.7937 18.9451 32.7749 18.9835 32.7466 18.9835C32.7162 18.9835 32.6933 19.0407 32.6818 19.1458C32.6719 19.235 32.6435 19.3209 32.6186 19.3367C32.5876 19.3563 32.5689 19.4765 32.5595 19.7183C32.5489 19.9887 32.5345 20.0713 32.4982 20.0713C32.458 20.0713 32.4508 20.8788 32.4508 25.3526C32.4508 30.0237 32.4567 30.6339 32.5022 30.6339C32.5415 30.6339 32.5536 30.6782 32.5536 30.822C32.5536 31.1212 32.5913 31.3358 32.644 31.3358C32.6757 31.3358 32.6907 31.381 32.6907 31.4762C32.6907 31.5775 32.705 31.6165 32.7421 31.6165C32.7765 31.6165 32.7936 31.6517 32.7936 31.7229C32.7936 31.7831 32.815 31.8377 32.8429 31.8486C32.87 31.8593 32.9021 31.9141 32.9141 31.9704C32.9262 32.0267 32.958 32.0727 32.9848 32.0727C33.0116 32.0727 33.0335 32.103 33.0335 32.14C33.0335 32.2446 33.0705 32.3184 33.1229 32.3184C33.1491 32.3184 33.1706 32.3516 33.1706 32.3923C33.1706 32.4436 33.1864 32.4601 33.222 32.446C33.257 32.4323 33.2735 32.4479 33.2735 32.4949C33.2735 32.5329 33.2954 32.564 33.3222 32.564C33.349 32.564 33.381 32.6114 33.3934 32.6693C33.4059 32.7272 33.4379 32.7745 33.4647 32.7745C33.4915 32.7745 33.5134 32.7999 33.5134 32.8309C33.5134 32.8665 33.5323 32.8799 33.5644 32.8673C33.5925 32.8563 33.6132 32.8585 33.6104 32.8723C33.5996 32.926 33.6603 33.0202 33.7056 33.0202C33.7319 33.0202 33.7534 33.0518 33.7534 33.0904C33.7534 33.1472 33.7763 33.1606 33.8734 33.1606C33.9571 33.1606 33.9933 33.1764 33.9933 33.2132C33.9933 33.2421 34.0165 33.2658 34.0448 33.2658C34.073 33.2658 34.0962 33.2888 34.0962 33.3169C34.0962 33.3474 34.1443 33.3772 34.2162 33.391C34.2849 33.4042 34.3361 33.4348 34.3361 33.4627C34.3361 33.4933 34.3739 33.5115 34.4373 33.5115C34.4945 33.5115 34.5518 33.5359 34.5692 33.5678C34.5878 33.6017 34.6636 33.6315 34.7595 33.6426C34.8539 33.6535 34.9189 33.6787 34.9189 33.7045C34.9189 33.7343 35.0077 33.7534 35.2 33.7648C35.3684 33.7747 35.4863 33.7976 35.4942 33.8219C35.514 33.8828 43.2375 33.88 43.2573 33.8191C43.2665 33.7909 43.3695 33.7712 43.5515 33.7627C43.749 33.7535 43.8317 33.7365 43.8317 33.705C43.8317 33.6754 43.9023 33.655 44.0412 33.6448C44.1903 33.6337 44.2599 33.6123 44.2828 33.5704C44.3016 33.536 44.3571 33.5115 44.4161 33.5115C44.4832 33.5115 44.5173 33.4937 44.5173 33.4588C44.5173 33.4296 44.5477 33.4062 44.5858 33.4062C44.6235 33.4062 44.6544 33.3832 44.6544 33.3551C44.6544 33.3246 44.7025 33.2949 44.7744 33.2811C44.8431 33.2679 44.8943 33.2372 44.8943 33.2093C44.8943 33.1785 44.9323 33.1606 44.9972 33.1606C45.0684 33.1606 45.1 33.1434 45.1 33.1046C45.1 33.0739 45.1309 33.0404 45.1686 33.0304C45.2063 33.0203 45.2371 32.9902 45.2371 32.9634C45.2371 32.9368 45.2603 32.9149 45.2886 32.9149C45.3168 32.9149 45.34 32.8947 45.34 32.8701C45.34 32.8454 45.3708 32.7982 45.4085 32.7651C45.4463 32.7321 45.4771 32.6733 45.4771 32.6345C45.4771 32.5952 45.4999 32.564 45.5285 32.564C45.5568 32.564 45.5799 32.533 45.5799 32.4952C45.5799 32.4573 45.6095 32.3981 45.6455 32.3636C45.6816 32.3291 45.7163 32.2534 45.7227 32.1955C45.7293 32.1345 45.7522 32.0939 45.7771 32.099C45.8056 32.1049 45.8199 32.061 45.8199 31.9674C45.8199 31.8696 45.8346 31.8271 45.8686 31.8271C45.9034 31.8271 45.9243 31.7598 45.9419 31.5916C45.9555 31.4621 45.9876 31.3346 46.0132 31.3083C46.0481 31.2726 46.0599 31.1373 46.0599 30.7718C46.0599 30.3607 46.0517 30.283 46.0084 30.283C45.9725 30.283 45.957 30.246 45.957 30.1602V30.0374H41.6035C37.9383 30.0374 37.2499 30.0298 37.2499 29.9893C37.2499 29.958 37.1896 29.933 37.0773 29.9177C36.9724 29.9035 36.9133 29.8801 36.9265 29.8582C36.9385 29.8383 36.9159 29.8134 36.8763 29.8028C36.8367 29.7922 36.8043 29.7617 36.8043 29.735C36.8043 29.7083 36.7734 29.6865 36.7357 29.6865C36.69 29.6865 36.6672 29.6631 36.6672 29.6163C36.6672 29.5773 36.6443 29.5461 36.6158 29.5461C36.5875 29.5461 36.5643 29.5224 36.5643 29.4935C36.5643 29.4645 36.5419 29.4408 36.5145 29.4408C36.4846 29.4408 36.4556 29.3915 36.4421 29.318C36.4292 29.2477 36.3992 29.1952 36.372 29.1952C36.3362 29.1952 36.3244 29.1383 36.3244 28.9671C36.3244 28.7877 36.3134 28.739 36.273 28.739C36.2276 28.739 36.2215 28.3761 36.2215 25.6837C36.2215 23.6447 36.2333 22.6058 36.257 22.5605C36.2815 22.5138 36.2815 22.4927 36.257 22.4927C36.2359 22.4927 36.2215 22.393 36.2215 22.247C36.2215 22.0521 36.2322 22.0014 36.273 22.0014C36.3138 22.0014 36.3244 21.9507 36.3244 21.7557C36.3244 21.5608 36.335 21.5101 36.3758 21.5101C36.4114 21.5101 36.4272 21.4735 36.4272 21.3914C36.4272 21.3021 36.4443 21.2681 36.4958 21.2543C36.5414 21.2421 36.5643 21.2064 36.5643 21.1477C36.5643 21.0782 36.5862 21.0546 36.6672 21.0364C36.7237 21.0237 36.77 20.9908 36.77 20.9634C36.77 20.936 36.8009 20.9135 36.8386 20.9135C36.8763 20.9135 36.9071 20.8916 36.9071 20.8648C36.9071 20.8369 36.9584 20.8062 37.0271 20.793C37.0989 20.7792 37.1471 20.7495 37.1471 20.719C37.1471 20.6781 37.2085 20.6679 37.4556 20.6679C37.6842 20.6679 37.7619 20.6565 37.7556 20.624C37.7488 20.5892 38.4367 20.5787 41.0893 20.5729C42.9275 20.5689 44.4817 20.5564 44.543 20.545C44.6083 20.5329 44.6544 20.5032 44.6544 20.4733C44.6544 20.4452 44.6775 20.4222 44.7058 20.4222C44.7341 20.4222 44.7572 20.3986 44.7572 20.3696C44.7572 20.3404 44.7877 20.317 44.8258 20.317C44.8715 20.317 44.8943 20.2936 44.8943 20.2468C44.8943 20.2078 44.9172 20.1766 44.9458 20.1766C44.974 20.1766 44.9972 20.1529 44.9972 20.124C44.9972 20.095 45.0203 20.0713 45.0486 20.0713C45.0769 20.0713 45.1 20.0462 45.1 20.0154C45.1 19.9847 45.1309 19.9512 45.1686 19.9411C45.2063 19.931 45.2371 19.9009 45.2371 19.8742C45.2371 19.8476 45.2603 19.8257 45.2886 19.8257C45.3168 19.8257 45.34 19.802 45.34 19.7731C45.34 19.7438 45.3705 19.7204 45.4085 19.7204C45.4542 19.7204 45.4771 19.697 45.4771 19.6502C45.4771 19.6112 45.5 19.58 45.5285 19.58C45.5568 19.58 45.5799 19.5564 45.5799 19.5274C45.5799 19.4982 45.6104 19.4748 45.6485 19.4748C45.6942 19.4748 45.7171 19.4514 45.7171 19.4046C45.7171 19.3656 45.7399 19.3344 45.7685 19.3344C45.7968 19.3344 45.8199 19.3107 45.8199 19.2818C45.8199 19.2528 45.843 19.2291 45.8713 19.2291C45.8996 19.2291 45.9227 19.204 45.9227 19.1732C45.9227 19.1425 45.9536 19.109 45.9913 19.0989C46.029 19.0888 46.0599 19.0587 46.0599 19.032C46.0599 19.0054 46.083 18.9835 46.1113 18.9835C46.1396 18.9835 46.1627 18.9616 46.1627 18.935C46.1627 18.9083 46.1936 18.8781 46.2313 18.868C46.269 18.858 46.2998 18.8245 46.2998 18.7938C46.2998 18.763 46.323 18.7378 46.3512 18.7378C46.3795 18.7378 46.4027 18.7142 46.4027 18.6852C46.4027 18.656 46.4331 18.6326 46.4712 18.6326C46.5166 18.6326 46.5398 18.6092 46.5398 18.5635C46.5398 18.5165 46.5562 18.5009 46.5912 18.5146C46.6269 18.5286 46.6426 18.5122 46.6426 18.4609C46.6426 18.4103 46.6643 18.3869 46.7112 18.3869C46.7493 18.3869 46.7797 18.3635 46.7797 18.3343C46.7797 18.3053 46.8029 18.2817 46.8312 18.2817C46.8597 18.2817 46.8826 18.2505 46.8826 18.2115C46.8826 18.1725 46.9054 18.1413 46.934 18.1413C46.9623 18.1413 46.9854 18.1194 46.9854 18.0928C46.9854 18.066 47.0163 18.0359 47.054 18.0258C47.0917 18.0158 47.1225 17.9823 47.1225 17.9516C47.1225 17.9208 47.1457 17.8956 47.174 17.8956C47.2022 17.8956 47.2254 17.872 47.2254 17.843C47.2254 17.8141 47.2485 17.7904 47.2768 17.7904C47.3051 17.7904 47.3282 17.7652 47.3282 17.7344C47.3282 17.7037 47.3591 17.6702 47.3968 17.6602C47.4345 17.6501 47.4653 17.62 47.4653 17.5933C47.4653 17.5666 47.4885 17.5447 47.5168 17.5447C47.545 17.5447 47.5682 17.521 47.5682 17.4921C47.5682 17.4629 47.5986 17.4395 47.6367 17.4395C47.6824 17.4395 47.7053 17.416 47.7053 17.3693C47.7053 17.3303 47.7282 17.2991 47.7567 17.2991C47.785 17.2991 47.8081 17.2754 47.8081 17.2464C47.8081 17.2172 47.8386 17.1938 47.8767 17.1938C47.9224 17.1938 47.9453 17.1704 47.9453 17.1236C47.9453 17.0846 47.9681 17.0534 47.9967 17.0534C48.025 17.0534 48.0481 17.0298 48.0481 17.0008C48.0481 16.9719 48.0695 16.9482 48.0955 16.9482C48.1396 16.9482 48.1837 16.8485 48.1847 16.7464C48.1851 16.7114 46.8703 16.7025 41.7235 16.7025C36.2444 16.7025 35.2617 16.7099 35.2617 16.7511Z" fill="#5A554F"/>
</g>
<path d="M30.8575 64.1051H24.2746L23.0403 68H19.0358L25.6735 49.1017H29.5135L36.0963 68H32.0095L30.8575 64.1051ZM25.2895 60.9509H29.8426L29.102 58.5371L27.6209 53.5451H27.5112L26.0575 58.4549L25.2895 60.9509ZM49.6103 63.2549C49.6103 64.736 49.208 65.9337 48.4034 66.848C47.5988 67.744 46.4103 68.192 44.8377 68.192C44.3622 68.192 43.7954 68.1463 43.1371 68.0549C42.4971 67.9634 41.848 67.744 41.1897 67.3966V73.4309H37.7063V54.4503H40.9154L41.1897 55.6846C41.9577 55.2091 42.68 54.8617 43.3565 54.6423C44.0331 54.4229 44.6091 54.3131 45.0845 54.3131C46.5474 54.3131 47.6628 54.7154 48.4308 55.52C49.2171 56.3246 49.6103 57.5771 49.6103 59.2777V63.2549ZM46.072 59.5794C46.072 58.7931 45.9074 58.2629 45.5783 57.9886C45.2491 57.696 44.8468 57.5497 44.3714 57.5497C44.152 57.5497 43.9051 57.5863 43.6308 57.6594C43.3748 57.7143 43.1005 57.7966 42.808 57.9063C42.5154 58.016 42.232 58.144 41.9577 58.2903C41.6834 58.4183 41.4274 58.5646 41.1897 58.7291V64.1326C41.8114 64.4251 42.3508 64.6263 42.808 64.736C43.2651 64.8274 43.704 64.8731 44.1245 64.8731C44.6548 64.8914 45.112 64.7451 45.496 64.4343C45.88 64.1234 46.072 63.584 46.072 62.816V59.5794ZM64.021 63.2549C64.021 64.736 63.6187 65.9337 62.8141 66.848C62.0095 67.744 60.821 68.192 59.2484 68.192C58.773 68.192 58.2061 68.1463 57.5478 68.0549C56.9078 67.9634 56.2587 67.744 55.6004 67.3966V73.4309H52.117V54.4503H55.3261L55.6004 55.6846C56.3684 55.2091 57.0907 54.8617 57.7673 54.6423C58.4438 54.4229 59.0198 54.3131 59.4953 54.3131C60.9581 54.3131 62.0735 54.7154 62.8415 55.52C63.6278 56.3246 64.021 57.5771 64.021 59.2777V63.2549ZM60.4827 59.5794C60.4827 58.7931 60.3181 58.2629 59.989 57.9886C59.6598 57.696 59.2575 57.5497 58.7821 57.5497C58.5627 57.5497 58.3158 57.5863 58.0415 57.6594C57.7855 57.7143 57.5113 57.7966 57.2187 57.9063C56.9261 58.016 56.6427 58.144 56.3684 58.2903C56.0941 58.4183 55.8381 58.5646 55.6004 58.7291V64.1326C56.2221 64.4251 56.7615 64.6263 57.2187 64.736C57.6758 64.8274 58.1147 64.8731 58.5353 64.8731C59.0655 64.8914 59.5227 64.7451 59.9067 64.4343C60.2907 64.1234 60.4827 63.584 60.4827 62.816V59.5794Z" fill="#D8D8D8"/>
</g>
<defs>
<filter id="filter0_d_102_636" x="0" y="0" width="309.396" height="88" filterUnits="userSpaceOnUse" color-interpolation-filters="sRGB">
<feFlood flood-opacity="0" result="BackgroundImageFix"/>
<feColorMatrix in="SourceAlpha" type="matrix" values="0 0 0 0 0 0 0 0 0 0 0 0 0 0 0 0 0 0 127 0" result="hardAlpha"/>
<feOffset dy="4"/>
<feGaussianBlur stdDeviation="2"/>
<feComposite in2="hardAlpha" operator="out"/>
<feColorMatrix type="matrix" values="0 0 0 0 0 0 0 0 0 0 0 0 0 0 0 0 0 0 0.25 0"/>
<feBlend mode="normal" in2="BackgroundImageFix" result="effect1_dropShadow_102_636"/>
<feBlend mode="normal" in="SourceGraphic" in2="effect1_dropShadow_102_636" result="shape"/>
</filter>
<filter id="filter1_d_102_636" x="20.0754" y="10" width="47.8491" height="42.4488" filterUnits="userSpaceOnUse" color-interpolation-filters="sRGB">
<feFlood flood-opacity="0" result="BackgroundImageFix"/>
<feColorMatrix in="SourceAlpha" type="matrix" values="0 0 0 0 0 0 0 0 0 0 0 0 0 0 0 0 0 0 127 0" result="hardAlpha"/>
<feOffset dy="5.92457"/>
<feGaussianBlur stdDeviation="2.96229"/>
<feComposite in2="hardAlpha" operator="out"/>
<feColorMatrix type="matrix" values="0 0 0 0 0 0 0 0 0 0 0 0 0 0 0 0 0 0 0.25 0"/>
<feBlend mode="normal" in2="BackgroundImageFix" result="effect1_dropShadow_102_636"/>
<feBlend mode="normal" in="SourceGraphic" in2="effect1_dropShadow_102_636" result="shape"/>
</filter>
<linearGradient id="paint0_linear_102_636" x1="79" y1="1" x2="4" y2="80" gradientUnits="userSpaceOnUse">
<stop stop-color="#343434"/>
<stop offset="1"/>
</linearGradient>
</defs>
</svg>
