<svg width="115" height="113" viewBox="0 0 115 113" fill="none" xmlns="http://www.w3.org/2000/svg">
<path fill-rule="evenodd" clip-rule="evenodd" d="M39.9238 0.547748C39.9238 0.85193 39.5917 1.0955 39.1768 1.0955C38.7551 1.0955 38.4297 1.33906 38.4297 1.65456C38.4297 1.9624 38.1776 2.30857 37.8695 2.42396C37.5613 2.53972 37.3092 2.86325 37.3092 3.14297C37.3092 3.42269 36.973 3.65165 36.5622 3.65165C36.1513 3.65165 35.8151 3.87914 35.8151 4.15667C35.8151 4.43456 35.479 4.74786 35.0681 4.85303C34.6573 4.95783 34.3211 5.30585 34.3211 5.62573C34.3211 5.94598 34.069 6.2078 33.7608 6.2078C33.4527 6.2078 33.2005 6.45429 33.2005 6.75555C33.2005 7.05681 32.9484 7.30329 32.6403 7.30329C32.3321 7.30329 32.08 7.53079 32.08 7.80831C32.08 8.0862 31.7438 8.39951 31.333 8.50468C30.9221 8.60948 30.5859 8.95749 30.5859 9.27738C30.5859 9.59763 30.3338 9.85945 30.0257 9.85945C29.7175 9.85945 29.4654 10.0869 29.4654 10.3645C29.4654 10.6424 29.1292 10.9557 28.7184 11.0608C28.3075 11.1656 27.9714 11.5136 27.9714 11.8335C27.9714 12.1538 27.7192 12.4156 27.4111 12.4156C27.1029 12.4156 26.8508 12.6621 26.8508 12.9633C26.8508 13.2646 26.6181 13.5111 26.3342 13.5111C26.05 13.5111 25.7295 13.8397 25.6219 14.2414C25.5147 14.6431 25.1588 14.9718 24.8316 14.9718C24.504 14.9718 24.2362 15.2182 24.2362 15.5195C24.2362 15.8208 23.9841 16.0672 23.676 16.0672C23.3678 16.0672 23.1157 16.2947 23.1157 16.5723C23.1157 16.8502 22.7795 17.1635 22.3687 17.2686C21.9578 17.3734 21.6216 17.7214 21.6216 18.0413C21.6216 18.3616 21.3695 18.6234 21.0614 18.6234C20.7532 18.6234 20.5011 18.8509 20.5011 19.1284C20.5011 19.4063 20.1649 19.7196 19.7541 19.8248C19.3432 19.9296 19.007 20.2776 19.007 20.5975C19.007 20.9177 18.7549 21.1796 18.4468 21.1796C18.1386 21.1796 17.8865 21.426 17.8865 21.7273C17.8865 22.0286 17.6344 22.275 17.3262 22.275C17.0181 22.275 16.7659 22.5369 16.7659 22.8571C16.7659 23.177 16.4298 23.525 16.0189 23.6298C15.608 23.735 15.2719 24.0483 15.2719 24.3262C15.2719 24.6037 15.0198 24.8312 14.7116 24.8312C14.4035 24.8312 14.1513 25.0587 14.1513 25.3362C14.1513 25.6141 13.8152 25.9274 13.4043 26.0326C12.9934 26.1374 12.6573 26.4854 12.6573 26.8053C12.6573 27.1255 12.4052 27.3874 12.097 27.3874C11.7889 27.3874 11.5367 27.6148 11.5367 27.8924C11.5367 28.1703 11.2006 28.4836 10.7897 28.5887C10.3789 28.6935 10.0427 29.0415 10.0427 29.3614C10.0427 29.6817 9.79058 29.9435 9.48243 29.9435C9.17428 29.9435 8.92215 30.19 8.92215 30.4912C8.92215 30.7925 8.67003 31.039 8.36188 31.039C8.05374 31.039 7.80162 31.2665 7.80162 31.544C7.80162 31.8219 7.46545 32.1352 7.05459 32.2404C6.64372 32.3452 6.30757 32.6932 6.30757 33.0131C6.30757 33.3333 6.05543 33.5951 5.74729 33.5951C5.43914 33.5951 5.18702 33.8226 5.18702 34.1002C5.18702 34.3781 4.85085 34.6914 4.43999 34.7965C4.02912 34.9013 3.69297 35.2493 3.69297 35.5692C3.69297 35.8895 3.44084 36.1513 3.13269 36.1513C2.82454 36.1513 2.57242 36.3978 2.57242 36.699C2.57242 37.0003 2.3397 37.2468 2.05583 37.2468C1.77159 37.2468 1.45113 37.5754 1.34356 37.9771C1.23636 38.3788 0.869967 38.7075 0.529322 38.7075C0.0560805 38.7075 -0.0619579 38.9868 0.0276854 39.8942L0.144579 41.081L33.2939 41.1741C62.4153 41.2563 66.4432 41.3337 66.4432 41.8132C66.4432 42.1937 66.8395 42.3591 67.7505 42.3591C68.6634 42.3591 69.0578 42.5242 69.0578 42.9068C69.0578 43.2081 69.31 43.4546 69.6181 43.4546C69.9293 43.4546 70.1784 43.7792 70.1784 44.1849C70.1784 44.6717 70.4275 44.9153 70.9254 44.9153C71.5727 44.9153 71.6724 45.1588 71.6724 46.7411C71.6724 48.1207 71.8095 48.5669 72.2327 48.5669C72.7265 48.5669 72.793 52.3606 72.793 80.5188C72.793 105.84 72.8897 112.47 73.2599 112.466C74.3468 112.454 75.4076 111.985 75.4076 111.515C75.4076 111.238 75.6597 111.01 75.9679 111.01C76.276 111.01 76.5281 110.764 76.5281 110.462C76.5281 110.158 76.8602 109.915 77.2752 109.915C77.773 109.915 78.0222 109.671 78.0222 109.184C78.0222 108.779 78.2713 108.454 78.5825 108.454C78.8906 108.454 79.1427 108.207 79.1427 107.906C79.1427 107.602 79.4748 107.358 79.8898 107.358C80.3877 107.358 80.6368 107.115 80.6368 106.628C80.6368 106.222 80.8859 105.898 81.1971 105.898C81.5052 105.898 81.7573 105.651 81.7573 105.35C81.7573 105.049 82.0094 104.802 82.3176 104.802C82.6257 104.802 82.8779 104.556 82.8779 104.255C82.8779 103.95 83.2099 103.707 83.6249 103.707C84.1228 103.707 84.3719 103.463 84.3719 102.976C84.3719 102.571 84.621 102.246 84.9322 102.246C85.2403 102.246 85.4925 102 85.4925 101.698C85.4925 101.394 85.8245 101.151 86.2395 101.151C86.7374 101.151 86.9865 100.907 86.9865 100.42C86.9865 100.015 87.2356 99.69 87.5468 99.69C87.8549 99.69 88.1071 99.4625 88.1071 99.1849C88.1071 98.907 88.46 98.5894 88.8918 98.4791C89.3553 98.3604 89.569 98.1088 89.4144 97.8641C89.2597 97.6195 89.4734 97.3679 89.9369 97.2492C90.3687 97.1389 90.7217 96.8212 90.7217 96.5433C90.7217 96.2658 90.9738 96.0383 91.2819 96.0383C91.5901 96.0383 91.8422 95.7918 91.8422 95.4906C91.8422 95.1864 92.1742 94.9428 92.5892 94.9428C93.0871 94.9428 93.3363 94.6992 93.3363 94.2125C93.3363 93.8068 93.5854 93.4822 93.8965 93.4822C94.2047 93.4822 94.4568 93.2357 94.4568 92.9344C94.4568 92.6302 94.7888 92.3867 95.2038 92.3867C95.7017 92.3867 95.9508 92.1431 95.9508 91.6563C95.9508 91.2506 96.2 90.926 96.5111 90.926C96.8193 90.926 97.0714 90.6985 97.0714 90.421C97.0714 90.1431 97.4075 89.8298 97.8184 89.7246C98.2293 89.6198 98.5654 89.2718 98.5654 88.9519C98.5654 88.6317 98.8176 88.3698 99.1257 88.3698C99.4339 88.3698 99.686 88.1234 99.686 87.8221C99.686 87.5208 99.9381 87.2744 100.246 87.2744C100.554 87.2744 100.807 87.0279 100.807 86.7266C100.807 86.4224 101.139 86.1789 101.554 86.1789C102.051 86.1789 102.301 85.9353 102.301 85.4485C102.301 85.0428 102.55 84.7182 102.861 84.7182C103.169 84.7182 103.421 84.4717 103.421 84.1704C103.421 83.8663 103.753 83.6227 104.168 83.6227C104.666 83.6227 104.915 83.3791 104.915 82.8924C104.915 82.4867 105.164 82.1621 105.475 82.1621C105.784 82.1621 106.036 81.9156 106.036 81.6143C106.036 81.313 106.288 81.0666 106.596 81.0666C106.904 81.0666 107.156 80.8201 107.156 80.5188C107.156 80.2146 107.488 79.9711 107.903 79.9711C108.401 79.9711 108.65 79.7275 108.65 79.2407C108.65 78.835 108.899 78.5104 109.211 78.5104C109.519 78.5104 109.771 78.2639 109.771 77.9627C109.771 77.6585 110.103 77.4149 110.518 77.4149C111.016 77.4149 111.265 77.1713 111.265 76.6846C111.265 76.2789 111.514 75.9542 111.825 75.9542C112.133 75.9542 112.385 75.7078 112.385 75.4065C112.385 75.1052 112.62 74.8588 112.906 74.8588C113.477 74.8588 113.879 74.0916 113.879 73.003C113.879 72.6177 114.132 72.3026 114.44 72.3026C114.933 72.3026 115 68.9957 115 44.7327C115 20.4697 114.933 17.1627 114.44 17.1627C114.03 17.1627 113.878 16.7446 113.874 15.6108C113.867 13.5304 113.528 12.4156 112.902 12.4156C112.561 12.4156 112.385 11.9821 112.385 11.1375C112.385 10.2451 112.217 9.85945 111.825 9.85945C111.514 9.85945 111.265 9.53481 111.265 9.12912C111.265 8.72743 111.026 8.39879 110.734 8.39879C110.442 8.39879 110.093 7.90582 109.958 7.30329C109.822 6.70077 109.473 6.2078 109.181 6.2078C108.889 6.2078 108.65 5.96131 108.65 5.66005C108.65 5.35879 108.382 5.11231 108.055 5.11231C107.728 5.11231 107.372 4.78366 107.265 4.38198C107.126 3.86454 106.755 3.65165 105.992 3.65165C105.322 3.65165 104.915 3.45994 104.915 3.14444C104.915 2.85413 104.357 2.53497 103.608 2.39766C102.825 2.25415 102.301 1.94451 102.301 1.62682C102.301 1.22623 101.795 1.0955 100.246 1.0955C98.6693 1.0955 98.1919 0.968417 98.1919 0.547748C98.1919 0.0653653 94.7059 0 69.0578 0C43.4098 0 39.9238 0.0653653 39.9238 0.547748Z" fill="#FEC267"/>
</svg>
