<svg width="15" height="16" viewBox="0 0 15 16" fill="none" xmlns="http://www.w3.org/2000/svg">
<path d="M7.6892 15.8148L14.2746 9.22947C14.3763 9.11073 14.4294 8.958 14.4234 8.80179C14.4173 8.64558 14.3526 8.4974 14.242 8.38686C14.1315 8.27632 13.9833 8.21156 13.8271 8.20553C13.6709 8.1995 13.5182 8.25263 13.3994 8.35431L8.30987 13.4377V0.620677C8.30987 0.456063 8.24448 0.298192 8.12808 0.181792C8.01168 0.0653927 7.85381 0 7.6892 0C7.52458 0 7.36671 0.0653927 7.25031 0.181792C7.13391 0.298192 7.06852 0.456063 7.06852 0.620677V13.4377L1.98518 8.35431C1.92953 8.28934 1.86106 8.23657 1.78406 8.19931C1.70705 8.16206 1.62318 8.14112 1.5377 8.13782C1.45222 8.13452 1.36698 8.14892 1.28733 8.18013C1.20768 8.21133 1.13535 8.25866 1.07486 8.31915C1.01437 8.37964 0.967039 8.45198 0.935835 8.53163C0.904631 8.61127 0.890227 8.69651 0.893529 8.78199C0.896831 8.86747 0.917766 8.95135 0.955021 9.02835C0.992276 9.10535 1.04505 9.17383 1.11002 9.22947L7.6892 15.8148Z" fill="#FEC267"/>
</svg>
