<svg width="30" height="30" viewBox="0 0 30 30" fill="none" xmlns="http://www.w3.org/2000/svg">
<path d="M28.0164 14.6087C25.2081 9.41706 20.2831 6.27539 14.8331 6.27539C9.38311 6.27539 4.44977 9.41706 1.66644 14.6087L1.43311 15.0004L1.64977 15.4004C4.45811 20.5921 9.38311 23.7337 14.8331 23.7337C20.2831 23.7337 25.2164 20.6337 28.0164 15.4004L28.2331 15.0004L28.0164 14.6087ZM14.8331 22.0254C10.1414 22.0254 5.83311 19.4087 3.33311 15.0004C5.83311 10.5921 10.1414 7.97539 14.8331 7.97539C19.5248 7.97539 23.7831 10.6004 26.3248 15.0004C23.7831 19.4087 19.5164 22.0254 14.8331 22.0254Z" fill="#FEC267"/>
<path d="M15.0749 9.30875C13.9449 9.31699 12.8428 9.6599 11.9077 10.2941C10.9726 10.9284 10.2464 11.8255 9.82082 12.8723C9.39527 13.919 9.28947 15.0684 9.51676 16.1752C9.74406 17.2821 10.2943 18.2967 11.0979 19.091C11.9015 19.8853 12.9225 20.4237 14.0319 20.6381C15.1413 20.8525 16.2894 20.7333 17.3311 20.2956C18.3728 19.8579 19.2614 19.1213 19.8847 18.1788C20.508 17.2364 20.8381 16.1303 20.8332 15.0004C20.8299 14.2483 20.6783 13.5042 20.3869 12.8108C20.0955 12.1173 19.6702 11.4882 19.1353 10.9595C18.6003 10.4308 17.9663 10.0128 17.2695 9.72951C16.5728 9.44624 15.827 9.30326 15.0749 9.30875ZM15.0749 19.0754C14.2767 19.0672 13.4988 18.8233 12.8389 18.3744C12.1789 17.9255 11.6663 17.2916 11.3654 16.5524C11.0645 15.8131 10.9888 15.0014 11.1477 14.2192C11.3066 13.437 11.6931 12.7192 12.2587 12.156C12.8242 11.5928 13.5436 11.2092 14.3264 11.0535C15.1092 10.8977 15.9206 10.9768 16.6586 11.2807C17.3967 11.5846 18.0285 12.0998 18.4747 12.7616C18.9209 13.4234 19.1615 14.2023 19.1665 15.0004C19.1687 15.5376 19.0643 16.0698 18.8593 16.5663C18.6542 17.0628 18.3526 17.5137 17.972 17.8927C17.5914 18.2718 17.1393 18.5715 16.642 18.7745C16.1447 18.9776 15.612 19.0798 15.0749 19.0754Z" fill="#FEC267"/>
</svg>
