<svg width="108" height="108" viewBox="0 0 108 108" fill="none" xmlns="http://www.w3.org/2000/svg">
<path d="M92.2319 53.9997C92.2319 75.1146 75.1146 92.2319 53.9997 92.2319C32.8849 92.2319 15.7676 75.1146 15.7676 53.9997C15.7676 32.8849 32.8849 15.7676 53.9997 15.7676C75.1146 15.7676 92.2319 32.8849 92.2319 53.9997Z" fill="#5A554F"/>
<path d="M71.9723 100.673C66.3947 102.822 60.3348 104 54 104C26.3859 104 4 81.6141 4 54C4 26.3859 26.3859 4 54 4C81.6141 4 104 26.3859 104 54" stroke="#FACD67" stroke-width="6.06076" stroke-miterlimit="10"/>
<path d="M88.9054 89.7998C85.2616 93.3531 81.0775 96.3541 76.4878 98.6693" stroke="#FACD67" stroke-width="6.06076" stroke-miterlimit="10"/>
<path d="M97.0722 79.4082C96.0969 81.058 95.0289 82.6477 93.8765 84.1685" stroke="#FACD67" stroke-width="6.06076" stroke-miterlimit="10"/>
<path d="M42.2381 36.7431C42.1972 36.7895 42.0805 36.8053 41.7809 36.8053C41.4643 36.8053 41.3786 36.818 41.3786 36.8649C41.3786 36.9105 41.2881 36.9279 40.9928 36.9393C40.6796 36.9514 40.5992 36.9681 40.5654 37.0286C40.5345 37.0838 40.4696 37.103 40.3133 37.103C40.1545 37.103 40.1028 37.1187 40.1028 37.1668C40.1028 37.211 40.0584 37.2306 39.9585 37.2306C39.8668 37.2306 39.8049 37.2549 39.7887 37.2971C39.7746 37.3336 39.7452 37.3525 39.7233 37.3389C39.7013 37.3253 39.6714 37.3337 39.6567 37.3575C39.642 37.3813 39.5737 37.4007 39.5049 37.4007C39.4221 37.4007 39.3798 37.4222 39.3798 37.4645C39.3798 37.509 39.3349 37.5283 39.231 37.5283C39.1323 37.5283 39.0821 37.5482 39.0821 37.5873C39.0821 37.6211 39.0186 37.6583 38.9333 37.6743C38.8442 37.691 38.7845 37.7271 38.7845 37.7641C38.7845 37.8045 38.7401 37.826 38.6569 37.826C38.5718 37.826 38.5293 37.8472 38.5293 37.8897C38.5293 37.9252 38.4915 37.9535 38.4442 37.9535C38.3975 37.9535 38.3592 37.9814 38.3592 38.0154C38.3592 38.0524 38.2994 38.0885 38.2103 38.1052C38.1251 38.1212 38.0615 38.1583 38.0615 38.1921C38.0615 38.2289 38.0151 38.2512 37.9389 38.2512C37.852 38.2512 37.8098 38.276 37.794 38.3363C37.7818 38.3831 37.7413 38.4213 37.704 38.4213C37.6667 38.4213 37.6362 38.45 37.6362 38.4851C37.6362 38.5205 37.5984 38.5489 37.5512 38.5489C37.5044 38.5489 37.4661 38.5761 37.4661 38.6093C37.4661 38.6425 37.4087 38.6824 37.3385 38.6977C37.2684 38.7131 37.211 38.7529 37.211 38.7862C37.211 38.8194 37.1727 38.8466 37.1259 38.8466C37.0787 38.8466 37.0409 38.875 37.0409 38.9104C37.0409 38.9455 37.0144 38.9742 36.982 38.9742C36.9497 38.9742 36.9132 39.0124 36.9009 39.0592C36.8887 39.106 36.8482 39.1443 36.811 39.1443C36.7737 39.1443 36.7432 39.173 36.7432 39.2081C36.7432 39.2432 36.7145 39.2719 36.6794 39.2719C36.6443 39.2719 36.6156 39.3024 36.6156 39.3396C36.6156 39.3769 36.5773 39.4174 36.5305 39.4296C36.4838 39.4419 36.4455 39.4784 36.4455 39.5107C36.4455 39.5431 36.4168 39.5695 36.3817 39.5695C36.3466 39.5695 36.3179 39.5983 36.3179 39.6333C36.3179 39.6684 36.2892 39.6971 36.2541 39.6971C36.2187 39.6971 36.1903 39.7349 36.1903 39.7822C36.1903 39.8389 36.162 39.8672 36.1053 39.8672C36.058 39.8672 36.0202 39.8956 36.0202 39.931C36.0202 39.9661 35.9915 39.9948 35.9564 39.9948C35.921 39.9948 35.8926 40.0326 35.8926 40.0799C35.8926 40.1266 35.8655 40.1649 35.8322 40.1649C35.799 40.1649 35.7592 40.2223 35.7438 40.2925C35.7284 40.3627 35.6886 40.4201 35.6554 40.4201C35.6221 40.4201 35.595 40.4584 35.595 40.5051C35.595 40.5519 35.5671 40.5902 35.5331 40.5902C35.4961 40.5902 35.46 40.6499 35.4433 40.739C35.4273 40.8243 35.3901 40.8879 35.3563 40.8879C35.319 40.8879 35.2973 40.9349 35.2973 41.0154C35.2973 41.1005 35.276 41.143 35.2335 41.143C35.1981 41.143 35.1697 41.1808 35.1697 41.2281C35.1697 41.2848 35.1413 41.3131 35.0846 41.3131C35.0158 41.3131 34.9996 41.3415 34.9996 41.462C34.9996 41.5659 34.9804 41.6108 34.9358 41.6108C34.8931 41.6108 34.872 41.6535 34.872 41.7397C34.872 41.8141 34.8455 41.8788 34.8094 41.8927C34.7749 41.9059 34.7345 41.9819 34.7196 42.0615C34.7042 42.1436 34.6669 42.2062 34.6334 42.2062C34.5942 42.2062 34.5743 42.2564 34.5743 42.355C34.5743 42.4528 34.5543 42.5039 34.516 42.5039C34.4782 42.5039 34.4478 42.5783 34.4296 42.716C34.412 42.8484 34.3819 42.9244 34.3496 42.918C34.3141 42.9111 34.294 42.9975 34.2853 43.1949C34.2763 43.4 34.2565 43.482 34.2159 43.482C34.177 43.482 34.1493 43.573 34.1283 43.769C34.1115 43.9269 34.0759 44.0696 34.0493 44.0862C34.0221 44.1032 33.9942 44.2655 33.9854 44.4583C33.9738 44.715 33.9551 44.8003 33.9106 44.8003C33.8213 44.8003 33.8216 65.7454 33.9109 65.7797C33.9548 65.7965 33.9744 65.9105 33.9854 66.2111C33.9964 66.5159 34.0164 66.6299 34.064 66.6599C34.1207 66.6957 34.1207 66.7004 34.064 66.7022C34.0137 66.7037 34.0159 66.7133 34.0746 66.7475C34.1333 66.7816 34.149 66.8488 34.149 67.0651C34.149 67.2806 34.1627 67.3394 34.2128 67.3394C34.2618 67.3394 34.2766 67.3938 34.2766 67.5733C34.2766 67.7504 34.2918 67.8072 34.339 67.8072C34.3816 67.8072 34.4102 67.8742 34.4295 68.0199C34.4478 68.1579 34.4782 68.2325 34.516 68.2325C34.5576 68.2325 34.5743 68.2933 34.5743 68.4451C34.5743 68.5982 34.5909 68.6578 34.6334 68.6578C34.6672 68.6578 34.7044 68.7213 34.7204 68.8066C34.7371 68.8957 34.7731 68.9554 34.8101 68.9554C34.8525 68.9554 34.872 69.0024 34.872 69.1043C34.872 69.2082 34.8912 69.2531 34.9358 69.2531C34.9709 69.2531 34.9996 69.2824 34.9996 69.3182C34.9996 69.3541 35.0271 69.3939 35.0608 69.4069C35.0944 69.4198 35.1342 69.4861 35.1492 69.5544C35.1642 69.6226 35.2036 69.6784 35.2368 69.6784C35.2701 69.6784 35.2973 69.7167 35.2973 69.7634C35.2973 69.8102 35.3244 69.8485 35.3577 69.8485C35.3909 69.8485 35.431 69.9072 35.4467 69.979C35.4625 70.0507 35.5023 70.1197 35.5352 70.1324C35.568 70.145 35.595 70.1799 35.595 70.21C35.595 70.24 35.6219 70.275 35.6547 70.2876C35.6876 70.3002 35.7274 70.3692 35.7432 70.441C35.7589 70.5128 35.799 70.5714 35.8322 70.5714C35.8655 70.5714 35.8926 70.6002 35.8926 70.6352C35.8926 70.6703 35.9213 70.699 35.9564 70.699C35.9915 70.699 36.0202 70.7295 36.0202 70.7668C36.0202 70.8041 36.0585 70.8446 36.1053 70.8568C36.1521 70.869 36.1903 70.9055 36.1903 70.9379C36.1903 70.9702 36.219 70.9967 36.2541 70.9967C36.2892 70.9967 36.3182 71.0207 36.3186 71.0499C36.3195 71.1147 36.5031 71.2944 36.5684 71.2944C36.5944 71.2944 36.6156 71.3231 36.6156 71.3582C36.6156 71.3933 36.6443 71.422 36.6794 71.422C36.7145 71.422 36.7432 71.4525 36.7432 71.4898C36.7432 71.527 36.7814 71.5675 36.8282 71.5798C36.875 71.592 36.9133 71.627 36.9133 71.6575C36.9133 71.6879 36.9707 71.7255 37.0409 71.7409C37.111 71.7563 37.1684 71.7961 37.1684 71.8293C37.1684 71.8626 37.2067 71.8898 37.2535 71.8898C37.3007 71.8898 37.3385 71.9181 37.3385 71.9536C37.3385 71.989 37.3764 72.0174 37.4236 72.0174C37.4704 72.0174 37.5087 72.0445 37.5087 72.0778C37.5087 72.111 37.5661 72.1508 37.6362 72.1662C37.7064 72.1816 37.7638 72.2214 37.7638 72.2546C37.7638 72.2953 37.8124 72.315 37.9127 72.315C38.0145 72.315 38.0615 72.3346 38.0615 72.3769C38.0615 72.4139 38.1212 72.45 38.2103 72.4667C38.2956 72.4827 38.3592 72.5198 38.3592 72.5537C38.3592 72.5861 38.3975 72.6127 38.4442 72.6127C38.4915 72.6127 38.5293 72.6411 38.5293 72.6765C38.5293 72.7188 38.5716 72.7403 38.6547 72.7403C38.7246 72.7403 38.7968 72.7699 38.8177 72.8072C38.8382 72.8439 38.9349 72.8847 39.0324 72.8978C39.1425 72.9126 39.2097 72.9437 39.2097 72.9798C39.2097 73.0192 39.2638 73.038 39.3768 73.038C39.4707 73.038 39.5726 73.0667 39.6095 73.1037C39.6456 73.1398 39.7714 73.1807 39.889 73.1946C40.0285 73.2112 40.1028 73.24 40.1028 73.2778C40.1028 73.3196 40.1678 73.3357 40.3367 73.3357C40.5049 73.3357 40.5706 73.3518 40.5706 73.3932C40.5706 73.4355 40.6738 73.4573 40.961 73.476C41.2505 73.4947 41.361 73.5183 41.3884 73.5673C41.4202 73.6241 41.5651 73.6334 42.4226 73.6334C43.2807 73.6334 43.4199 73.6423 43.4199 73.6972C43.4199 73.7432 43.4671 73.7609 43.59 73.7609C43.7128 73.7609 43.7601 73.7432 43.7601 73.6972C43.7601 73.6407 44.6505 73.6334 51.519 73.6334C58.4076 73.6334 59.2821 73.6261 59.3141 73.5689C59.3396 73.5234 59.4529 73.4965 59.699 73.4775C59.9504 73.4582 60.0478 73.4346 60.0478 73.3932C60.0478 73.3507 60.1205 73.3357 60.3255 73.3357C60.527 73.3357 60.6097 73.319 60.6266 73.2749C60.6416 73.2357 60.7469 73.2038 60.923 73.1849C61.113 73.1646 61.196 73.1378 61.196 73.0969C61.196 73.0579 61.2465 73.038 61.3448 73.038C61.4488 73.038 61.4937 73.0188 61.4937 72.9742C61.4937 72.9315 61.5363 72.9104 61.6226 72.9104C61.6969 72.9104 61.7617 72.8839 61.7755 72.8478C61.7888 72.8133 61.8647 72.7729 61.9443 72.758C62.0264 72.7426 62.089 72.7053 62.089 72.6718C62.089 72.6326 62.1392 72.6127 62.2379 72.6127C62.3398 72.6127 62.3867 72.5932 62.3867 72.5509C62.3867 72.5139 62.4465 72.4778 62.5356 72.4611C62.6208 72.4451 62.6844 72.4079 62.6844 72.3741C62.6844 72.3368 62.7315 72.315 62.812 72.315C62.8953 72.315 62.9396 72.2936 62.9396 72.2532C62.9396 72.2162 62.9993 72.1801 63.0884 72.1634C63.1737 72.1474 63.2373 72.1102 63.2373 72.0764C63.2373 72.0439 63.2755 72.0174 63.3223 72.0174C63.3696 72.0174 63.4074 71.989 63.4074 71.9536C63.4074 71.9185 63.4361 71.8898 63.4712 71.8898C63.5062 71.8898 63.5349 71.8619 63.5349 71.8279C63.5349 71.7909 63.5947 71.7548 63.6838 71.7381C63.7691 71.7221 63.8326 71.685 63.8326 71.6512C63.8326 71.6187 63.8613 71.5921 63.8964 71.5921C63.9315 71.5921 63.9602 71.5656 63.9602 71.5333C63.9602 71.5009 63.9985 71.4644 64.0453 71.4522C64.092 71.44 64.1303 71.3994 64.1303 71.3622C64.1303 71.3249 64.159 71.2944 64.1941 71.2944C64.2292 71.2944 64.2579 71.2657 64.2579 71.2306C64.2579 71.1955 64.2866 71.1668 64.3217 71.1668C64.3568 71.1668 64.3855 71.1363 64.3855 71.099C64.3855 71.0618 64.4237 71.0213 64.4705 71.009C64.5173 70.9968 64.5556 70.9603 64.5556 70.9279C64.5556 70.8956 64.5843 70.8691 64.6194 70.8691C64.6545 70.8691 64.6832 70.8386 64.6832 70.8013C64.6832 70.7641 64.7214 70.7236 64.7682 70.7114C64.815 70.6991 64.8533 70.6626 64.8533 70.6303C64.8533 70.5979 64.882 70.5714 64.9171 70.5714C64.9525 70.5714 64.9808 70.5336 64.9808 70.4864C64.9808 70.4391 65.0092 70.4013 65.0446 70.4013C65.0797 70.4013 65.1084 70.3725 65.1084 70.3371C65.1084 70.3018 65.1467 70.2402 65.1935 70.2001C65.2403 70.16 65.2785 70.0933 65.2785 70.0517C65.2785 70.0101 65.3072 69.9761 65.3423 69.9761C65.3774 69.9761 65.4061 69.9516 65.4061 69.9217C65.4061 69.8918 65.4444 69.8346 65.4912 69.7946C65.5379 69.7545 65.5762 69.6833 65.5762 69.6363C65.5762 69.5887 65.6045 69.5508 65.64 69.5508C65.6846 69.5508 65.7038 69.5059 65.7038 69.402C65.7038 69.3001 65.7233 69.2531 65.7657 69.2531C65.8027 69.2531 65.8387 69.1934 65.8554 69.1043C65.8714 69.019 65.9086 68.9554 65.9424 68.9554C65.9816 68.9554 66.0015 68.9053 66.0015 68.8066C66.0015 68.7089 66.0215 68.6578 66.0598 68.6578C66.0976 68.6578 66.128 68.5832 66.1463 68.4451C66.1656 68.2995 66.1942 68.2325 66.2368 68.2325C66.2833 68.2325 66.2992 68.1783 66.2992 68.0199C66.2992 67.8592 66.3148 67.8072 66.363 67.8072C66.4111 67.8072 66.4268 67.7555 66.4268 67.5967C66.4268 67.4496 66.4469 67.3749 66.4935 67.3488C66.544 67.3205 66.5662 67.2113 66.5848 66.9002C66.6028 66.5989 66.6245 66.4889 66.6658 66.4889C66.7124 66.4889 66.7244 65.6468 66.734 61.6975C66.7432 57.9106 66.7568 56.9025 66.7989 56.8885C66.8392 56.8751 66.852 56.6466 66.852 55.9388C66.852 55.1386 66.843 55.0067 66.7882 55.0067C66.7376 55.0067 66.7244 54.9453 66.7244 54.709C66.7244 54.4834 66.7102 54.4113 66.6654 54.4113C66.6316 54.4113 66.5944 54.3478 66.5784 54.2625C66.5617 54.1734 66.5256 54.1136 66.4886 54.1136C66.4482 54.1136 66.4268 54.0693 66.4268 53.9861C66.4268 53.9079 66.4066 53.8626 66.3746 53.8691C66.3459 53.8749 66.3159 53.8367 66.3078 53.7841C66.2985 53.7229 66.2636 53.6884 66.2111 53.6884C66.1574 53.6884 66.1291 53.659 66.1291 53.6033C66.1291 53.5561 66.1007 53.5183 66.0653 53.5183C66.0302 53.5183 66.0015 53.4896 66.0015 53.4545C66.0015 53.4191 65.9637 53.3907 65.9164 53.3907C65.8697 53.3907 65.8314 53.3635 65.8314 53.3303C65.8314 53.2971 65.774 53.2572 65.7038 53.2419C65.6336 53.2265 65.5762 53.1867 65.5762 53.1534C65.5762 53.1127 65.5276 53.093 65.4274 53.093C65.3283 53.093 65.2785 53.0731 65.2785 53.0336C65.2785 52.9771 64.9461 52.9486 63.8221 52.9088C63.711 52.9049 63.6198 52.8825 63.6194 52.8591C63.619 52.8357 63.6017 52.8435 63.5809 52.8763C63.5488 52.927 62.895 52.9353 59.2611 52.9314C56.0666 52.9279 54.9639 52.9141 54.9193 52.8771C54.875 52.8403 54.8446 52.8398 54.802 52.8752C54.7703 52.9014 54.5981 52.9353 54.4192 52.9504C54.1877 52.97 54.094 52.9945 54.094 53.0355C54.094 53.0671 54.0558 53.093 54.009 53.093C53.9523 53.093 53.9239 53.1214 53.9239 53.1781C53.9239 53.2253 53.8956 53.2631 53.8601 53.2631C53.8251 53.2631 53.7963 53.2918 53.7963 53.3269C53.7963 53.3623 53.7585 53.3907 53.7113 53.3907C53.6546 53.3907 53.6262 53.4191 53.6262 53.4757C53.6262 53.523 53.5979 53.5608 53.5625 53.5608C53.5274 53.5608 53.4987 53.5895 53.4987 53.6246C53.4987 53.6597 53.47 53.6884 53.4349 53.6884C53.3998 53.6884 53.3711 53.7189 53.3711 53.7562C53.3711 53.7934 53.3328 53.834 53.286 53.8462C53.2392 53.8584 53.201 53.8949 53.201 53.9273C53.201 53.9596 53.1723 53.9861 53.1372 53.9861C53.1021 53.9861 53.0734 54.0126 53.0734 54.0449C53.0734 54.0772 53.0351 54.1137 52.9883 54.126C52.9416 54.1382 52.9033 54.1787 52.9033 54.216C52.9033 54.2533 52.8746 54.2838 52.8395 54.2838C52.8044 54.2838 52.7757 54.3125 52.7757 54.3475C52.7757 54.383 52.7379 54.4113 52.6907 54.4113C52.634 54.4113 52.6056 54.4397 52.6056 54.4964C52.6056 54.5436 52.5772 54.5814 52.5418 54.5814C52.5067 54.5814 52.478 54.6101 52.478 54.6452C52.478 54.6807 52.4402 54.709 52.393 54.709C52.3462 54.709 52.3102 54.7234 52.3129 54.7409C52.3268 54.8286 52.3017 54.8791 52.2441 54.8791C52.209 54.8791 52.1803 54.9078 52.1803 54.9429C52.1803 54.978 52.1516 55.0067 52.1165 55.0067C52.0815 55.0067 52.0528 55.0372 52.0528 55.0745C52.0528 55.1117 52.0147 55.1522 51.9682 55.1644C51.9216 55.1765 51.8949 55.2048 51.9087 55.227C51.9225 55.2493 51.8935 55.2781 51.8444 55.291C51.7953 55.3038 51.7551 55.3408 51.7551 55.3732C51.7551 55.4055 51.7264 55.432 51.6913 55.432C51.6562 55.432 51.6275 55.4625 51.6275 55.4998C51.6275 55.537 51.5892 55.5775 51.5424 55.5897C51.4957 55.602 51.4574 55.6385 51.4574 55.6708C51.4574 55.7032 51.4287 55.7297 51.3936 55.7297C51.3585 55.7297 51.3298 55.7562 51.3298 55.7885C51.3298 55.8208 51.2915 55.8573 51.2447 55.8696C51.198 55.8818 51.1597 55.9223 51.1597 55.9596C51.1597 55.9969 51.131 56.0273 51.0959 56.0273C51.0608 56.0273 51.0321 56.0561 51.0321 56.0911C51.0321 56.1266 50.9943 56.1549 50.9471 56.1549C50.8904 56.1549 50.862 56.1833 50.862 56.24C50.862 56.2872 50.8336 56.325 50.7982 56.325C50.7631 56.325 50.7344 56.3537 50.7344 56.3888C50.7344 56.4239 50.7057 56.4526 50.6706 56.4526C50.6356 56.4526 50.6068 56.4831 50.6068 56.5204C50.6068 56.5577 50.5686 56.5982 50.5218 56.6104C50.475 56.6226 50.4367 56.6591 50.4367 56.6915C50.4367 56.7238 50.408 56.7503 50.373 56.7503C50.3379 56.7503 50.3092 56.7768 50.3092 56.8091C50.3092 56.8415 50.2709 56.878 50.2241 56.8902C50.1773 56.9024 50.1391 56.9429 50.1391 56.9802C50.1391 57.0175 50.1104 57.048 50.0753 57.048C50.0402 57.048 50.0115 57.0767 50.0115 57.1118C50.0115 57.1469 49.9828 57.1756 49.9477 57.1756C49.9126 57.1756 49.8839 57.2061 49.8839 57.2434C49.8839 57.2806 49.8456 57.3211 49.7988 57.3333C49.7386 57.3491 49.7138 57.3913 49.7138 57.4782C49.7138 57.6008 49.7139 57.6008 49.9902 57.6008C50.2076 57.6008 50.2666 57.5872 50.2666 57.537C50.2666 57.4976 50.3067 57.4733 50.3716 57.4733C50.4475 57.4733 50.4698 57.4909 50.4521 57.537C50.4304 57.5935 51.0411 57.6008 55.7919 57.6008C60.5209 57.6008 61.159 57.5933 61.1806 57.537C61.2121 57.4549 61.3236 57.4539 61.3236 57.5358C61.3236 57.58 61.3675 57.5966 61.4743 57.5926C61.574 57.5888 61.6183 57.5693 61.605 57.5349C61.5921 57.5011 61.6138 57.4904 61.667 57.5043C61.712 57.5161 61.7488 57.5426 61.7488 57.5633C61.7488 57.5839 61.7871 57.6008 61.8339 57.6008C61.8811 57.6008 61.9189 57.5725 61.9189 57.537C61.9189 57.4369 62.0337 57.4625 62.0622 57.5689C62.0969 57.6982 62.0962 64.0095 62.0615 64.4199C62.042 64.6516 62.0175 64.7453 61.9765 64.7453C61.9336 64.7453 61.9189 64.8211 61.9189 65.043C61.9189 65.2793 61.9057 65.3407 61.8551 65.3407C61.807 65.3407 61.7914 65.3926 61.7914 65.5533C61.7914 65.711 61.7754 65.7659 61.7295 65.7659C61.6925 65.7659 61.6564 65.8257 61.6397 65.9148C61.6237 66 61.5865 66.0636 61.5527 66.0636C61.5136 66.0636 61.4937 66.1138 61.4937 66.2125C61.4937 66.3144 61.4741 66.3613 61.4318 66.3613C61.3948 66.3613 61.3587 66.4211 61.342 66.5102C61.326 66.5954 61.2889 66.659 61.255 66.659C61.2178 66.659 61.196 66.7061 61.196 66.7866C61.196 66.875 61.1751 66.9142 61.1282 66.9142C61.0909 66.9142 61.0504 66.9524 61.0382 66.9992C61.026 67.046 60.9895 67.0843 60.9571 67.0843C60.9248 67.0843 60.8983 67.113 60.8983 67.1481C60.8983 67.1831 60.8696 67.2118 60.8345 67.2118C60.7991 67.2118 60.7707 67.2497 60.7707 67.2969C60.7707 67.3536 60.7423 67.382 60.6857 67.382C60.6384 67.382 60.6006 67.4103 60.6006 67.4457C60.6006 67.4808 60.5719 67.5095 60.5368 67.5095C60.5017 67.5095 60.473 67.536 60.473 67.5683C60.473 67.6007 60.4348 67.6372 60.388 67.6494C60.3412 67.6617 60.3029 67.7022 60.3029 67.7394C60.3029 67.7864 60.2637 67.8072 60.1753 67.8072C60.087 67.8072 60.0478 67.8281 60.0478 67.875C60.0478 67.9123 60.0095 67.9528 59.9627 67.965C59.9159 67.9772 59.8777 68.0137 59.8777 68.0461C59.8777 68.0784 59.8489 68.1049 59.8139 68.1049C59.7788 68.1049 59.7501 68.1336 59.7501 68.1687C59.7501 68.2133 59.7052 68.2325 59.6012 68.2325C59.4993 68.2325 59.4524 68.252 59.4524 68.2944C59.4524 68.3314 59.3926 68.3674 59.3035 68.3841C59.2183 68.4001 59.1547 68.4373 59.1547 68.4711C59.1547 68.5103 59.1045 68.5302 59.0059 68.5302C58.9019 68.5302 58.857 68.5494 58.857 68.594C58.857 68.6362 58.8147 68.6578 58.7316 68.6578C58.6583 68.6578 58.5894 68.6875 58.5661 68.7291C58.5377 68.7799 58.4514 68.8059 58.2664 68.8193C58.0993 68.8313 58.0065 68.8568 58.0065 68.8904C58.0065 68.9269 57.8626 68.9514 57.5288 68.9716C57.2661 68.9876 57.0327 69.0192 57.01 69.0419C56.9564 69.0954 43.7746 69.0984 43.7415 69.0449C43.7285 69.0239 43.4607 68.9929 43.1462 68.9761C42.7206 68.9533 42.5688 68.9304 42.552 68.8867C42.5363 68.8456 42.4521 68.8279 42.273 68.8279C42.0804 68.8279 42.0165 68.8129 42.0165 68.7678C42.0165 68.7309 41.9509 68.6967 41.8464 68.679C41.7418 68.6614 41.6763 68.6271 41.6763 68.5902C41.6763 68.5519 41.6302 68.5302 41.5487 68.5302C41.4682 68.5302 41.4211 68.5084 41.4211 68.4711C41.4211 68.4373 41.3575 68.4001 41.2723 68.3841C41.1832 68.3674 41.1234 68.3314 41.1234 68.2944C41.1234 68.2538 41.079 68.2325 40.9945 68.2325C40.9192 68.2325 40.8554 68.206 40.8411 68.1687C40.8276 68.1336 40.79 68.1049 40.7574 68.1049C40.7248 68.1049 40.6981 68.0744 40.6981 68.0371C40.6981 67.9999 40.6599 67.9593 40.6131 67.9471C40.5663 67.9349 40.528 67.8984 40.528 67.866C40.528 67.8337 40.4987 67.8072 40.4629 67.8072C40.4271 67.8072 40.3868 67.7785 40.3733 67.7434C40.3598 67.7083 40.3222 67.6796 40.2896 67.6796C40.257 67.6796 40.2304 67.6509 40.2304 67.6158C40.2304 67.5808 40.2017 67.5521 40.1666 67.5521C40.1311 67.5521 40.1028 67.5143 40.1028 67.467C40.1028 67.4175 40.0744 67.382 40.035 67.382C39.9977 67.382 39.9572 67.3437 39.945 67.2969C39.9328 67.2501 39.8963 67.2118 39.8639 67.2118C39.8316 67.2118 39.8051 67.1831 39.8051 67.1481C39.8051 67.113 39.7764 67.0843 39.7413 67.0843C39.7059 67.0843 39.6775 67.0465 39.6775 66.9992C39.6775 66.9524 39.6503 66.9142 39.6171 66.9142C39.5839 66.9142 39.5441 66.8567 39.5287 66.7866C39.5133 66.7164 39.4735 66.659 39.4403 66.659C39.407 66.659 39.3798 66.6207 39.3798 66.5739C39.3798 66.5272 39.352 66.4889 39.3179 66.4889C39.2809 66.4889 39.2449 66.4291 39.2282 66.34C39.2122 66.2548 39.175 66.1912 39.1412 66.1912C39.102 66.1912 39.0821 66.141 39.0821 66.0424C39.0821 65.9384 39.0629 65.8935 39.0183 65.8935C38.9761 65.8935 38.9546 65.8512 38.9546 65.7681C38.9546 65.6948 38.9248 65.6259 38.8832 65.6026C38.8324 65.5742 38.8064 65.4879 38.793 65.3029C38.7807 65.1317 38.7559 65.043 38.7205 65.043C38.6819 65.043 38.6619 64.9213 38.6494 64.61C38.6379 64.3231 38.6147 64.1713 38.5806 64.16C38.5057 64.135 38.5057 46.7289 38.5806 46.704C38.6147 46.6926 38.6379 46.5408 38.6494 46.2539C38.6627 45.922 38.6805 45.821 38.7256 45.821C38.7697 45.821 38.7845 45.7519 38.7845 45.5467C38.7845 45.339 38.801 45.2631 38.8527 45.2341C38.8938 45.2111 38.9299 45.1171 38.9433 44.9981C38.9578 44.8699 38.9861 44.8003 39.0239 44.8003C39.0621 44.8003 39.0821 44.7492 39.0821 44.6515C39.0821 44.5512 39.1019 44.5026 39.1426 44.5026C39.1758 44.5026 39.2156 44.4452 39.231 44.3751C39.2464 44.3049 39.2862 44.2475 39.3194 44.2475C39.3526 44.2475 39.3798 44.2092 39.3798 44.1624C39.3798 44.1156 39.4064 44.0774 39.4389 44.0774C39.4727 44.0774 39.5099 44.0138 39.5259 43.9285C39.5426 43.8394 39.5786 43.7797 39.6156 43.7797C39.6497 43.7797 39.6775 43.751 39.6775 43.7159C39.6775 43.6808 39.7062 43.6521 39.7413 43.6521C39.7767 43.6521 39.8051 43.6143 39.8051 43.567C39.8051 43.5198 39.8335 43.482 39.8689 43.482C39.904 43.482 39.9327 43.4533 39.9327 43.4182C39.9327 43.3828 39.9705 43.3544 40.0177 43.3544C40.0744 43.3544 40.1028 43.326 40.1028 43.2694C40.1028 43.2221 40.1311 43.1843 40.1666 43.1843C40.2017 43.1843 40.2304 43.1556 40.2304 43.1205C40.2304 43.0851 40.2682 43.0567 40.3154 43.0567C40.3627 43.0567 40.4005 43.0284 40.4005 42.9929C40.4005 42.9579 40.4292 42.9291 40.4643 42.9291C40.4997 42.9291 40.528 42.8913 40.528 42.8441C40.528 42.7874 40.5564 42.759 40.6131 42.759C40.6603 42.759 40.6981 42.7307 40.6981 42.6953C40.6981 42.6533 40.7401 42.6315 40.8208 42.6315C40.9076 42.6315 40.9499 42.6067 40.9656 42.5464C40.9778 42.4996 41.0184 42.4614 41.0556 42.4614C41.0929 42.4614 41.1234 42.4326 41.1234 42.3976C41.1234 42.353 41.1683 42.3338 41.2723 42.3338C41.3725 42.3338 41.4211 42.314 41.4211 42.2733C41.4211 42.2401 41.4769 42.2007 41.5451 42.1857C41.6134 42.1707 41.6797 42.1309 41.6926 42.0973C41.7059 42.0627 41.7721 42.0361 41.845 42.0361C41.9313 42.0361 41.9739 42.015 41.9739 41.9723C41.9739 41.9279 42.0186 41.9085 42.1207 41.9085C42.2138 41.9085 42.282 41.8824 42.3074 41.8371C42.3358 41.7863 42.4221 41.7603 42.6071 41.747C42.7782 41.7346 42.867 41.7098 42.867 41.6744C42.867 41.6384 42.959 41.6149 43.1463 41.603C43.3287 41.5913 43.4389 41.5638 43.4637 41.5236C43.4968 41.4701 44.9174 41.4604 54.22 41.4505C63.6527 41.4405 64.9383 41.4315 64.9383 41.3761C64.9383 41.3373 64.9791 41.3131 65.0446 41.3131C65.1108 41.3131 65.151 41.289 65.151 41.2493C65.151 41.2143 65.1797 41.1856 65.2147 41.1856C65.2502 41.1856 65.2785 41.1477 65.2785 41.1005C65.2785 41.0533 65.3069 41.0154 65.3423 41.0154C65.3774 41.0154 65.4061 40.9867 65.4061 40.9517C65.4061 40.9162 65.4439 40.8879 65.4912 40.8879C65.5479 40.8879 65.5762 40.8595 65.5762 40.8028C65.5762 40.7556 65.6046 40.7178 65.64 40.7178C65.6751 40.7178 65.7038 40.6891 65.7038 40.654C65.7038 40.6189 65.7325 40.5902 65.7676 40.5902C65.8027 40.5902 65.8314 40.5597 65.8314 40.5224C65.8314 40.4851 65.8697 40.4446 65.9164 40.4324C65.9632 40.4202 66.0015 40.3837 66.0015 40.3513C66.0015 40.319 66.0302 40.2925 66.0653 40.2925C66.1004 40.2925 66.1291 40.266 66.1291 40.2337C66.1291 40.2013 66.1673 40.1648 66.2141 40.1526C66.2609 40.1404 66.2992 40.0999 66.2992 40.0626C66.2992 40.0253 66.3279 39.9948 66.363 39.9948C66.398 39.9948 66.4268 39.9683 66.4268 39.936C66.4268 39.9036 66.465 39.8671 66.5118 39.8549C66.5586 39.8427 66.5969 39.8022 66.5969 39.7649C66.5969 39.7276 66.6256 39.6971 66.6606 39.6971C66.6957 39.6971 66.7244 39.6684 66.7244 39.6333C66.7244 39.5979 66.7622 39.5695 66.8095 39.5695C66.8567 39.5695 66.8945 39.5412 66.8945 39.5058C66.8945 39.4707 66.9232 39.442 66.9583 39.442C66.9938 39.442 67.0221 39.4042 67.0221 39.3569C67.0221 39.3097 67.0505 39.2719 67.0859 39.2719C67.121 39.2719 67.1497 39.2432 67.1497 39.2081C67.1497 39.1726 67.1875 39.1443 67.2348 39.1443C67.2914 39.1443 67.3198 39.1159 67.3198 39.0592C67.3198 39.012 67.3482 38.9742 67.3836 38.9742C67.4187 38.9742 67.4474 38.9477 67.4474 38.9154C67.4474 38.883 67.4857 38.8465 67.5324 38.8343C67.5792 38.8221 67.6175 38.7815 67.6175 38.7443C67.6175 38.707 67.6462 38.6765 67.6813 38.6765C67.7164 38.6765 67.7451 38.6478 67.7451 38.6127C67.7451 38.5776 67.7738 38.5489 67.8089 38.5489C67.844 38.5489 67.8727 38.5184 67.8727 38.4811C67.8727 38.4439 67.9109 38.4033 67.9577 38.3911C68.0045 38.3789 68.0428 38.3424 68.0428 38.31C68.0428 38.2777 68.0715 38.2512 68.1066 38.2512C68.1416 38.2512 68.1703 38.2225 68.1703 38.1874C68.1703 38.152 68.2081 38.1236 68.2554 38.1236C68.3121 38.1236 68.3405 38.0953 68.3405 38.0386C68.3405 37.9913 68.3688 37.9535 68.4042 37.9535C68.4393 37.9535 68.468 37.927 68.468 37.8947C68.468 37.8624 68.5063 37.8259 68.5531 37.8136C68.5999 37.8014 68.6381 37.7609 68.6381 37.7236C68.6381 37.6863 68.6668 37.6558 68.7019 37.6558C68.737 37.6558 68.7657 37.6271 68.7657 37.5921C68.7657 37.557 68.7944 37.5283 68.8295 37.5283C68.8646 37.5283 68.8933 37.4978 68.8933 37.4605C68.8933 37.4232 68.9316 37.3827 68.9783 37.3705C69.0251 37.3582 69.0634 37.3218 69.0634 37.2894C69.0634 37.2571 69.0921 37.2306 69.1272 37.2306C69.1623 37.2306 69.191 37.2041 69.191 37.1718C69.191 37.1394 69.2293 37.1029 69.276 37.0907C69.3228 37.0785 69.3611 37.0379 69.3611 37.0007C69.3611 36.9634 69.3898 36.9329 69.4249 36.9329C69.4674 36.9329 69.4887 36.8904 69.4887 36.8053V36.6777L55.8908 36.6794C44.0158 36.6808 42.286 36.6888 42.2381 36.7431ZM69.9565 40.9517C69.9565 40.9871 69.9187 41.0154 69.8714 41.0154C69.8234 41.0154 69.7864 41.0438 69.7864 41.0806C69.7864 41.1164 69.7576 41.1567 69.7226 41.1702C69.6875 41.1836 69.6588 41.2213 69.6588 41.2539C69.6588 41.2865 69.6205 41.3131 69.5737 41.3131C69.5269 41.3131 69.4887 41.3396 69.4887 41.3719C69.4887 41.4043 69.4504 41.4408 69.4036 41.453C69.3568 41.4653 69.3186 41.5058 69.3186 41.543C69.3186 41.5803 69.2899 41.6108 69.2548 41.6108C69.2197 41.6108 69.191 41.6395 69.191 41.6746C69.191 41.7097 69.1623 41.7384 69.1272 41.7384C69.0921 41.7384 69.0634 41.7649 69.0634 41.7972C69.0634 41.8296 69.0251 41.8661 68.9783 41.8783C68.9316 41.8905 68.8933 41.931 68.8933 41.9683C68.8933 42.0056 68.8646 42.0361 68.8295 42.0361C68.7944 42.0361 68.7657 42.0626 68.7657 42.0949C68.7657 42.1273 68.7274 42.1638 68.6807 42.176C68.6339 42.1882 68.5956 42.2287 68.5956 42.266C68.5956 42.3033 68.5669 42.3338 68.5318 42.3338C68.4967 42.3338 68.468 42.3625 68.468 42.3976C68.468 42.4326 68.4415 42.4614 68.4092 42.4614C68.3769 42.4614 68.3404 42.4996 68.3281 42.5464C68.3159 42.5932 68.2754 42.6315 68.2381 42.6315C68.2008 42.6315 68.1703 42.6602 68.1703 42.6953C68.1703 42.7303 68.1416 42.759 68.1066 42.759C68.0715 42.759 68.0428 42.7855 68.0428 42.8179C68.0428 42.8502 68.0045 42.8867 67.9577 42.899C67.9109 42.9112 67.8727 42.9517 67.8727 42.9889C67.8727 43.0262 67.844 43.0567 67.8089 43.0567C67.7738 43.0567 67.7451 43.0832 67.7451 43.1155C67.7451 43.1479 67.7068 43.1844 67.66 43.1966C67.6132 43.2088 67.575 43.2494 67.575 43.2866C67.575 43.3239 67.5463 43.3544 67.5112 43.3544C67.4761 43.3544 67.4474 43.3831 67.4474 43.4182C67.4474 43.4533 67.4187 43.482 67.3836 43.482C67.3485 43.482 67.3198 43.5125 67.3198 43.5498C67.3198 43.587 67.2815 43.6276 67.2348 43.6398C67.188 43.652 67.1497 43.6885 67.1497 43.7209C67.1497 43.7532 67.121 43.7797 67.0859 43.7797C67.0508 43.7797 67.0221 43.8062 67.0221 43.8385C67.0221 43.8709 66.9838 43.9073 66.9371 43.9196C66.8903 43.9318 66.852 43.9723 66.852 44.0096C66.852 44.0469 66.8233 44.0774 66.7882 44.0774C66.7531 44.0774 66.7244 44.1039 66.7244 44.1362C66.7244 44.1685 66.6862 44.205 66.6394 44.2173C66.5926 44.2295 66.5543 44.27 66.5543 44.3073C66.5543 44.3446 66.5256 44.3751 66.4905 44.3751C66.4555 44.3751 66.4268 44.4038 66.4268 44.4388C66.4268 44.4739 66.398 44.5026 66.363 44.5026C66.3279 44.5026 66.2992 44.5291 66.2992 44.5614C66.2992 44.5938 66.2609 44.6303 66.2141 44.6425C66.1673 44.6548 66.1291 44.6953 66.1291 44.7325C66.1291 44.7698 66.1004 44.8003 66.0653 44.8003C66.0302 44.8003 66.0015 44.8268 66.0015 44.8591C66.0015 44.8915 65.9632 44.928 65.9164 44.9402C65.8697 44.9524 65.8314 44.993 65.8314 45.0302C65.8314 45.0675 65.8027 45.098 65.7676 45.098C65.7325 45.098 65.7038 45.1267 65.7038 45.1618C65.7038 45.1969 65.6773 45.2256 65.645 45.2256C65.6126 45.2256 65.5761 45.2639 65.5639 45.3106C65.5517 45.3574 65.51 45.3957 65.4712 45.3957C65.4173 45.3957 65.4039 45.4282 65.4141 45.5339L65.4274 45.6721L69.2016 45.683C72.5172 45.6925 72.9759 45.7015 72.9759 45.7574C72.9759 45.8017 73.021 45.821 73.1247 45.821C73.2286 45.821 73.2735 45.8402 73.2735 45.8847C73.2735 45.9198 73.3022 45.9485 73.3373 45.9485C73.3728 45.9485 73.4011 45.9863 73.4011 46.0336C73.4011 46.0903 73.4295 46.1186 73.4862 46.1186C73.5599 46.1186 73.5712 46.147 73.5712 46.3313C73.5712 46.4919 73.5868 46.5439 73.635 46.5439C73.6912 46.5439 73.6988 46.9857 73.6988 50.265C73.6988 53.2138 73.7098 53.9859 73.752 53.9855C73.8757 53.9842 73.9965 53.9295 73.9965 53.8748C73.9965 53.8425 74.0252 53.816 74.0603 53.816C74.0954 53.816 74.1241 53.7873 74.1241 53.7522C74.1241 53.7167 74.1619 53.6884 74.2091 53.6884C74.2658 53.6884 74.2942 53.66 74.2942 53.6033C74.2942 53.5561 74.3225 53.5183 74.358 53.5183C74.3931 53.5183 74.4218 53.4896 74.4218 53.4545C74.4218 53.4191 74.4596 53.3907 74.5068 53.3907C74.5635 53.3907 74.5919 53.3623 74.5919 53.3056C74.5919 53.2584 74.6202 53.2206 74.6557 53.2206C74.6907 53.2206 74.7194 53.1919 74.7194 53.1568C74.7194 53.1217 74.7481 53.093 74.7832 53.093C74.8183 53.093 74.847 53.0643 74.847 53.0292C74.847 52.9938 74.8848 52.9654 74.9321 52.9654C74.9888 52.9654 75.0171 52.9371 75.0171 52.8804C75.0171 52.8331 75.0455 52.7953 75.0809 52.7953C75.116 52.7953 75.1447 52.7666 75.1447 52.7315C75.1447 52.6961 75.1825 52.6677 75.2298 52.6677C75.2864 52.6677 75.3148 52.6394 75.3148 52.5827C75.3148 52.5354 75.3432 52.4976 75.3786 52.4976C75.4137 52.4976 75.4424 52.4711 75.4424 52.4388C75.4424 52.4065 75.4826 52.3695 75.5317 52.3566C75.5845 52.3428 75.6088 52.3135 75.5912 52.285C75.5736 52.2565 75.598 52.2272 75.6507 52.2134C75.6999 52.2005 75.7401 52.1635 75.7401 52.1312C75.7401 52.0989 75.7688 52.0724 75.8039 52.0724C75.839 52.0724 75.8677 52.0437 75.8677 52.0086C75.8677 51.9732 75.9055 51.9448 75.9527 51.9448C76.0094 51.9448 76.0378 51.9164 76.0378 51.8597C76.0378 51.8125 76.0661 51.7747 76.1016 51.7747C76.1366 51.7747 76.1653 51.746 76.1653 51.7109C76.1653 51.6755 76.2032 51.6471 76.2504 51.6471C76.3071 51.6471 76.3355 51.6187 76.3355 51.5621C76.3355 51.5148 76.3638 51.477 76.3993 51.477C76.4342 51.477 76.4631 51.4505 76.4631 51.4182C76.4631 51.3858 76.5014 51.3493 76.5481 51.3371C76.5949 51.3249 76.6332 51.2844 76.6332 51.2471C76.6332 51.2098 76.6617 51.1793 76.697 51.1793C76.7318 51.1793 76.7608 51.1506 76.7608 51.1155C76.7608 51.0804 76.7893 51.0517 76.8246 51.0517C76.8594 51.0517 76.8883 51.023 76.8883 50.9879C76.8883 50.9525 76.9262 50.9242 76.9734 50.9242C77.03 50.9242 77.0584 50.8958 77.0584 50.8391C77.0584 50.7919 77.0869 50.754 77.1222 50.754C77.1571 50.754 77.186 50.7253 77.186 50.6903C77.186 50.6548 77.2239 50.6265 77.2711 50.6265C77.3276 50.6265 77.3561 50.5981 77.3561 50.5414C77.3561 50.4942 77.3846 50.4564 77.4199 50.4564C77.4548 50.4564 77.4837 50.4277 77.4837 50.3926C77.4837 50.3575 77.5122 50.3288 77.5475 50.3288C77.5824 50.3288 77.6113 50.3001 77.6113 50.265C77.6113 50.2296 77.6491 50.2012 77.6964 50.2012C77.7529 50.2012 77.7814 50.1728 77.7814 50.1161C77.7814 50.0689 77.8099 50.0311 77.8452 50.0311C77.8801 50.0311 77.909 50.0024 77.909 49.9673C77.909 49.9319 77.9468 49.9035 77.994 49.9035C78.0506 49.9035 78.0791 49.8751 78.0791 49.8185C78.0791 49.7712 78.1076 49.7334 78.1429 49.7334C78.1777 49.7334 78.2067 49.7047 78.2067 49.6696C78.2067 49.6345 78.2335 49.6058 78.2658 49.6058C78.3308 49.6058 78.3768 49.5165 78.3768 49.3897C78.3768 49.3448 78.4053 49.3081 78.4406 49.3081C78.4967 49.3081 78.5044 48.923 78.5044 46.0974C78.5044 43.2717 78.4967 42.8866 78.4406 42.8866C78.3938 42.8866 78.3764 42.8379 78.3759 42.7059C78.3755 42.4636 78.3368 42.3338 78.2654 42.3338C78.2267 42.3338 78.2067 42.2833 78.2067 42.1849C78.2067 42.081 78.1875 42.0361 78.1429 42.0361C78.1076 42.0361 78.0791 41.9983 78.0791 41.951C78.0791 41.9043 78.0519 41.866 78.0187 41.866C77.9855 41.866 77.9456 41.8086 77.9302 41.7384C77.9149 41.6682 77.875 41.6108 77.8418 41.6108C77.8086 41.6108 77.7814 41.5821 77.7814 41.547C77.7814 41.5119 77.7508 41.4832 77.7134 41.4832C77.6764 41.4832 77.636 41.445 77.6236 41.3982C77.6079 41.3379 77.5658 41.3131 77.4786 41.3131C77.4025 41.3131 77.3561 41.2908 77.3561 41.2541C77.3561 41.2203 77.2923 41.1831 77.2073 41.1671C77.118 41.1504 77.0584 41.1143 77.0584 41.0773C77.0584 41.0307 77.001 41.0154 76.8246 41.0154C76.6451 41.0154 76.5907 41.0007 76.5907 40.9517C76.5907 40.8955 76.1937 40.8879 73.2735 40.8879C70.3534 40.8879 69.9565 40.8955 69.9565 40.9517ZM45.3335 44.8592C45.3335 44.9002 45.2499 44.927 45.0571 44.9476C44.8605 44.9686 44.7807 44.9946 44.7807 45.0376C44.7807 45.0783 44.7321 45.098 44.6319 45.098C44.5332 45.098 44.483 45.1179 44.483 45.1571C44.483 45.1909 44.4194 45.2281 44.3342 45.244C44.2451 45.2608 44.1853 45.2968 44.1853 45.3338C44.1853 45.3762 44.1384 45.3957 44.0365 45.3957C43.9326 45.3957 43.8876 45.4149 43.8876 45.4595C43.8876 45.4946 43.8583 45.5233 43.8225 45.5233C43.7867 45.5233 43.7468 45.5508 43.7339 45.5845C43.721 45.6181 43.6546 45.6579 43.5864 45.6729C43.5182 45.6879 43.4624 45.7273 43.4624 45.7605C43.4624 45.7938 43.4319 45.821 43.3946 45.821C43.3573 45.821 43.3168 45.8592 43.3046 45.906C43.2924 45.9528 43.2559 45.9911 43.2235 45.9911C43.1912 45.9911 43.1647 46.0198 43.1647 46.0549C43.1647 46.0899 43.1382 46.1186 43.1059 46.1186C43.0735 46.1186 43.037 46.1569 43.0248 46.2037C43.0126 46.2505 42.972 46.2887 42.9348 46.2887C42.8878 46.2887 42.867 46.328 42.867 46.4163C42.867 46.5047 42.8462 46.5439 42.7992 46.5439C42.762 46.5439 42.7214 46.5822 42.7092 46.629C42.697 46.6757 42.6618 46.714 42.631 46.714C42.6002 46.714 42.5689 46.7666 42.5615 46.831C42.5539 46.8968 42.5248 46.9433 42.4949 46.9373C42.4637 46.931 42.4417 46.9706 42.4417 47.033C42.4417 47.0951 42.4173 47.1393 42.3829 47.1393C42.3185 47.1393 42.2731 47.2655 42.2722 47.4476C42.2718 47.518 42.2485 47.5645 42.2134 47.5645C42.1757 47.5645 42.1473 47.6338 42.133 47.7612C42.1207 47.8693 42.0855 47.9734 42.0546 47.9925C42.0161 48.0163 41.993 48.162 41.9812 48.4551C41.9681 48.7827 41.9503 48.8829 41.9052 48.8829C41.8554 48.8829 41.8464 49.8615 41.8464 55.2831C41.8464 60.9439 41.8537 61.6834 41.9102 61.6834C41.9589 61.6834 41.9739 61.7371 41.9739 61.9113C41.9739 62.2739 42.0208 62.5339 42.086 62.5339C42.1254 62.5339 42.1441 62.5887 42.1441 62.704C42.1441 62.8269 42.1618 62.8741 42.2078 62.8741C42.2505 62.8741 42.2716 62.9168 42.2716 63.003C42.2716 63.076 42.2982 63.1422 42.3328 63.1554C42.3665 63.1684 42.4063 63.2347 42.4212 63.303C42.4363 63.3712 42.4757 63.427 42.5089 63.427C42.5421 63.427 42.5693 63.4637 42.5693 63.5085C42.5693 63.6353 42.6152 63.7247 42.6802 63.7247C42.7128 63.7247 42.7394 63.765 42.7394 63.8143C42.7394 63.8764 42.7589 63.8964 42.8032 63.8794C42.8466 63.8627 42.867 63.8817 42.867 63.9386C42.867 63.9847 42.8942 64.0224 42.9274 64.0224C42.9606 64.0224 43.0005 64.0798 43.0158 64.1499C43.0312 64.2201 43.071 64.2775 43.1043 64.2775C43.1375 64.2775 43.1647 64.3083 43.1647 64.3458C43.1647 64.3889 43.1881 64.4052 43.228 64.3899C43.2628 64.3766 43.2884 64.3793 43.285 64.396C43.2716 64.461 43.3469 64.5752 43.4031 64.5752C43.4357 64.5752 43.4624 64.6135 43.4624 64.6602C43.4624 64.7291 43.4907 64.7453 43.6112 64.7453C43.7152 64.7453 43.7601 64.7645 43.7601 64.8091C43.7601 64.8442 43.7888 64.8729 43.8239 64.8729C43.8589 64.8729 43.8876 64.9007 43.8876 64.9348C43.8876 64.9718 43.9474 65.0078 44.0365 65.0245C44.1218 65.0405 44.1853 65.0777 44.1853 65.1115C44.1853 65.1485 44.2321 65.1706 44.3108 65.1706C44.3818 65.1706 44.4529 65.2002 44.4745 65.2389C44.4975 65.2799 44.5915 65.316 44.7105 65.3294C44.8277 65.3426 44.9083 65.3733 44.9083 65.4046C44.9083 65.4407 45.0185 65.4637 45.257 65.4775C45.466 65.4896 45.6121 65.5173 45.622 65.5468C45.6465 65.6205 55.228 65.6171 55.2527 65.5433C55.264 65.5092 55.3919 65.4853 55.6177 65.475C55.8626 65.4639 55.9652 65.4433 55.9652 65.4051C55.9652 65.3692 56.0528 65.3445 56.2251 65.3321C56.4101 65.3187 56.4964 65.2927 56.5249 65.2419C56.5482 65.2003 56.6171 65.1706 56.6903 65.1706C56.7735 65.1706 56.8157 65.149 56.8157 65.1068C56.8157 65.0714 56.8535 65.043 56.9008 65.043C56.9476 65.043 56.9858 65.0151 56.9858 64.9811C56.9858 64.9441 57.0456 64.9081 57.1347 64.8913C57.22 64.8753 57.2835 64.8382 57.2835 64.8044C57.2835 64.7671 57.3306 64.7453 57.4111 64.7453C57.4995 64.7453 57.5387 64.7245 57.5387 64.6775C57.5387 64.6403 57.577 64.5997 57.6237 64.5875C57.6705 64.5753 57.7088 64.5388 57.7088 64.5064C57.7088 64.4741 57.7375 64.4476 57.7726 64.4476C57.8077 64.4476 57.8364 64.4232 57.8364 64.3933C57.8364 64.3634 57.8746 64.3062 57.9214 64.2661C57.9682 64.2261 58.0065 64.1548 58.0065 64.1078C58.0065 64.0602 58.0347 64.0224 58.0703 64.0224C58.1054 64.0224 58.1341 63.9848 58.1341 63.939C58.1341 63.8931 58.1707 63.8213 58.2154 63.7795C58.2602 63.7376 58.3032 63.646 58.3111 63.5758C58.3194 63.5019 58.3478 63.4527 58.3786 63.4589C58.414 63.466 58.4317 63.4128 58.4317 63.2994C58.4317 63.1808 58.45 63.1293 58.4921 63.1293C58.5353 63.1293 58.5613 63.0478 58.5831 62.8439C58.5999 62.687 58.6397 62.5325 58.6716 62.5007C58.7148 62.4574 58.7294 62.2934 58.7294 61.8505C58.7294 61.3523 58.7193 61.2581 58.6656 61.2581C58.6211 61.2581 58.6019 61.2132 58.6019 61.1093V60.9604H53.201C48.6541 60.9604 47.8001 60.9512 47.8001 60.9021C47.8001 60.8642 47.7252 60.8339 47.586 60.8154C47.4558 60.7982 47.3824 60.7699 47.3989 60.7433C47.4137 60.7192 47.3857 60.689 47.3366 60.6762C47.2874 60.6633 47.2472 60.6263 47.2472 60.594C47.2472 60.5617 47.209 60.5352 47.1622 60.5352C47.1055 60.5352 47.0771 60.5068 47.0771 60.4501C47.0771 60.4029 47.0488 60.3651 47.0134 60.3651C46.9783 60.3651 46.9496 60.3364 46.9496 60.3013C46.9496 60.2662 46.9217 60.2375 46.8877 60.2375C46.8507 60.2375 46.8146 60.1777 46.7979 60.0886C46.7819 60.0034 46.7448 59.9398 46.7109 59.9398C46.6666 59.9398 46.6519 59.8709 46.6519 59.6634C46.6519 59.446 46.6382 59.3869 46.5881 59.3869C46.5319 59.3869 46.5243 58.9472 46.5243 55.6843C46.5243 53.2134 46.5389 51.9544 46.5683 51.8995C46.5987 51.8428 46.5987 51.8172 46.5683 51.8172C46.5422 51.8172 46.5243 51.6964 46.5243 51.5195C46.5243 51.2832 46.5375 51.2218 46.5881 51.2218C46.6387 51.2218 46.6519 51.1604 46.6519 50.9242C46.6519 50.6879 46.6651 50.6265 46.7157 50.6265C46.7598 50.6265 46.7795 50.5821 46.7795 50.4826C46.7795 50.3745 46.8006 50.3332 46.8645 50.3164C46.9211 50.3016 46.9496 50.2584 46.9496 50.1873C46.9496 50.1031 46.9767 50.0744 47.0771 50.0524C47.1473 50.037 47.2047 49.9972 47.2047 49.9639C47.2047 49.9307 47.243 49.9035 47.2898 49.9035C47.3366 49.9035 47.3748 49.8769 47.3748 49.8444C47.3748 49.8106 47.4384 49.7735 47.5237 49.7575C47.6128 49.7408 47.6725 49.7047 47.6725 49.6677C47.6725 49.6182 47.7487 49.6058 48.0553 49.6058C48.3388 49.6058 48.4352 49.592 48.4274 49.5527C48.4189 49.5105 49.2724 49.4977 52.5631 49.4907C54.8436 49.4859 56.7716 49.4707 56.8476 49.4569C56.9287 49.4422 56.9858 49.4063 56.9858 49.37C56.9858 49.336 57.0145 49.3081 57.0496 49.3081C57.0847 49.3081 57.1134 49.2794 57.1134 49.2443C57.1134 49.2089 57.1512 49.1806 57.1985 49.1806C57.2552 49.1806 57.2835 49.1522 57.2835 49.0955C57.2835 49.0483 57.3119 49.0105 57.3473 49.0105C57.3824 49.0105 57.4111 48.9817 57.4111 48.9467C57.4111 48.9116 57.4398 48.8829 57.4749 48.8829C57.51 48.8829 57.5387 48.8524 57.5387 48.8151C57.5387 48.7778 57.577 48.7373 57.6237 48.7251C57.6705 48.7129 57.7088 48.6764 57.7088 48.644C57.7088 48.6117 57.7375 48.5852 57.7726 48.5852C57.8077 48.5852 57.8364 48.5565 57.8364 48.5214C57.8364 48.486 57.8742 48.4576 57.9214 48.4576C57.9781 48.4576 58.0065 48.4292 58.0065 48.3726C58.0065 48.3253 58.0348 48.2875 58.0703 48.2875C58.1054 48.2875 58.1341 48.2588 58.1341 48.2237C58.1341 48.1883 58.1719 48.1599 58.2191 48.1599C58.2758 48.1599 58.3042 48.1316 58.3042 48.0749C58.3042 48.0276 58.3325 47.9898 58.368 47.9898C58.403 47.9898 58.4317 47.9611 58.4317 47.926C58.4317 47.8909 58.4605 47.8622 58.4955 47.8622C58.5306 47.8622 58.5593 47.8317 58.5593 47.7944C58.5593 47.7572 58.5976 47.7167 58.6444 47.7045C58.6912 47.6922 58.7294 47.6557 58.7294 47.6234C58.7294 47.591 58.7581 47.5645 58.7932 47.5645C58.8283 47.5645 58.857 47.5381 58.857 47.5057C58.857 47.4734 58.8953 47.4369 58.9421 47.4246C58.9888 47.4124 59.0271 47.3719 59.0271 47.3347C59.0271 47.2974 59.0558 47.2669 59.0909 47.2669C59.126 47.2669 59.1547 47.2382 59.1547 47.2031C59.1547 47.1676 59.1925 47.1393 59.2398 47.1393C59.296 47.1393 59.3248 47.1109 59.3248 47.0555C59.3248 46.9986 59.3452 46.9797 59.3886 46.9963C59.4329 47.0133 59.4524 46.9934 59.4524 46.9312C59.4524 46.87 59.4793 46.8416 59.5374 46.8416C59.5847 46.8416 59.6225 46.8132 59.6225 46.7778C59.6225 46.7427 59.6512 46.714 59.6863 46.714C59.7217 46.714 59.7501 46.6762 59.7501 46.629C59.7501 46.5817 59.7784 46.5439 59.8139 46.5439C59.8489 46.5439 59.8777 46.5174 59.8777 46.4851C59.8777 46.4527 59.9159 46.4162 59.9627 46.404C60.0095 46.3918 60.0478 46.3513 60.0478 46.314C60.0478 46.2767 60.0765 46.2462 60.1115 46.2462C60.1466 46.2462 60.1753 46.2175 60.1753 46.1824C60.1753 46.1473 60.204 46.1186 60.2391 46.1186C60.2742 46.1186 60.3029 46.0882 60.3029 46.0509C60.3029 46.0136 60.3412 45.9731 60.388 45.9609C60.4348 45.9486 60.473 45.9121 60.473 45.8798C60.473 45.8475 60.5017 45.821 60.5368 45.821C60.5719 45.821 60.6006 45.7923 60.6006 45.7572C60.6006 45.7217 60.6384 45.6934 60.6857 45.6934C60.7423 45.6934 60.7707 45.665 60.7707 45.6083C60.7707 45.5611 60.7991 45.5233 60.8345 45.5233C60.8696 45.5233 60.8983 45.4946 60.8983 45.4595C60.8983 45.4241 60.9361 45.3957 60.9833 45.3957C61.04 45.3957 61.0684 45.3673 61.0684 45.3106C61.0684 45.2634 61.0968 45.2256 61.1322 45.2256C61.1673 45.2256 61.196 45.1969 61.196 45.1618C61.196 45.1267 61.2225 45.098 61.2548 45.098C61.3095 45.098 61.3642 44.9772 61.3655 44.8535C61.366 44.8111 59.7348 44.8003 53.3498 44.8003C46.5526 44.8003 45.3335 44.8092 45.3335 44.8592Z" fill="#F9CD67"/>
</svg>
