<svg width="21" height="20" viewBox="0 0 21 20" fill="none" xmlns="http://www.w3.org/2000/svg">
<path d="M13.8655 11.6018L16.1316 13.8671L9.99875 20L3.86672 13.868L6.13287 11.6018L9.99958 15.4886L13.8655 11.6018ZM17.733 7.7351L20.0175 10.0004L17.753 12.2657L15.4869 10.0004L17.733 7.7351ZM9.99958 7.7351L12.2649 9.9804L9.99875 12.2465L7.73343 10.0004L9.99875 7.73594L9.99958 7.7351ZM2.26532 7.7351L4.51228 10.0004L2.26698 12.2457L0 10.0004L2.26532 7.7351ZM10.0004 0L16.1324 6.11368L13.8663 8.37816L9.99958 4.51145L6.1337 8.39818L3.86755 6.13287L9.99958 0.000834063L10.0004 0Z" fill="white"/>
</svg>
