<svg width="20" height="20" viewBox="0 0 20 20" fill="none" xmlns="http://www.w3.org/2000/svg">
<g filter="url(#filter0_d_317_63)">
<path fill-rule="evenodd" clip-rule="evenodd" d="M7.16049 5.65766C7.15039 5.66938 7.12154 5.6734 7.04748 5.6734C6.96923 5.6734 6.94802 5.67662 6.94802 5.68847C6.94802 5.70001 6.92566 5.70442 6.85267 5.70731C6.77525 5.71035 6.75537 5.7146 6.74702 5.72989C6.73938 5.74387 6.72332 5.74873 6.68469 5.74873C6.64545 5.74873 6.63265 5.7527 6.63265 5.76487C6.63265 5.77605 6.62168 5.78101 6.59698 5.78101C6.57433 5.78101 6.55901 5.78716 6.55501 5.79783C6.55154 5.80709 6.54426 5.81185 6.53884 5.80842C6.53341 5.80499 6.52601 5.80711 6.52238 5.81312C6.51875 5.81914 6.50187 5.82406 6.48486 5.82406C6.46438 5.82406 6.45394 5.82951 6.45394 5.8402C6.45394 5.85148 6.44284 5.85634 6.41715 5.85634C6.39276 5.85634 6.38035 5.86138 6.38035 5.87129C6.38035 5.87984 6.36464 5.88925 6.34356 5.89329C6.32154 5.89752 6.30677 5.90665 6.30677 5.91601C6.30677 5.92624 6.29581 5.93167 6.27523 5.93167C6.25421 5.93167 6.24369 5.93705 6.24369 5.94781C6.24369 5.95678 6.23435 5.96395 6.22267 5.96395C6.2111 5.96395 6.20164 5.971 6.20164 5.97961C6.20164 5.98897 6.18687 5.9981 6.16485 6.00233C6.14377 6.00638 6.12806 6.01578 6.12806 6.02434C6.12806 6.03363 6.1166 6.03928 6.09775 6.03928C6.07627 6.03928 6.06583 6.04556 6.06193 6.06081C6.05892 6.07264 6.0489 6.08233 6.03969 6.08233C6.03047 6.08233 6.02293 6.08959 6.02293 6.09847C6.02293 6.10744 6.01359 6.11461 6.00191 6.11461C5.99034 6.11461 5.98088 6.12149 5.98088 6.1299C5.98088 6.13831 5.96669 6.14838 5.94935 6.15228C5.932 6.15617 5.91781 6.16625 5.91781 6.17465C5.91781 6.18307 5.90835 6.18994 5.89678 6.18994C5.88511 6.18994 5.87576 6.19712 5.87576 6.20608C5.87576 6.21496 5.86921 6.22223 5.86122 6.22223C5.85322 6.22223 5.8442 6.23191 5.84117 6.24375C5.83816 6.25559 5.82814 6.26527 5.81893 6.26527C5.80971 6.26527 5.80217 6.27254 5.80217 6.28141C5.80217 6.29029 5.79508 6.29756 5.7864 6.29756C5.77773 6.29756 5.77064 6.30527 5.77064 6.31471C5.77064 6.32414 5.76117 6.33439 5.74961 6.33748C5.73805 6.34058 5.72859 6.34981 5.72859 6.358C5.72859 6.36618 5.72149 6.37289 5.71282 6.37289C5.70415 6.37289 5.69705 6.38015 5.69705 6.38903C5.69705 6.39791 5.68995 6.40517 5.68128 6.40517C5.67252 6.40517 5.66551 6.41474 5.66551 6.42669C5.66551 6.44104 5.6585 6.44822 5.64449 6.44822C5.63281 6.44822 5.62346 6.45539 5.62346 6.46436C5.62346 6.47324 5.61637 6.4805 5.60769 6.4805C5.59894 6.4805 5.59193 6.49007 5.59193 6.50202C5.59193 6.51386 5.58521 6.52354 5.57699 6.52354C5.56878 6.52354 5.55894 6.53807 5.55513 6.55583C5.55133 6.57358 5.54149 6.58811 5.53328 6.58811C5.52506 6.58811 5.51834 6.5978 5.51834 6.60964C5.51834 6.62147 5.51145 6.63116 5.50304 6.63116C5.4939 6.63116 5.48498 6.64628 5.48085 6.66882C5.4769 6.6904 5.46771 6.70649 5.45935 6.70649C5.45013 6.70649 5.44475 6.7184 5.44475 6.73877C5.44475 6.76029 5.4395 6.77106 5.42898 6.77106C5.42023 6.77106 5.41321 6.78062 5.41321 6.79258C5.41321 6.80692 5.4062 6.8141 5.39219 6.8141C5.37517 6.8141 5.37117 6.82128 5.37117 6.85177C5.37117 6.87807 5.36641 6.88943 5.3554 6.88943C5.34485 6.88943 5.33963 6.90022 5.33963 6.92205C5.33963 6.94086 5.33307 6.95725 5.32414 6.96076C5.31563 6.9641 5.30564 6.98332 5.30195 7.00347C5.29815 7.02424 5.28893 7.04009 5.28064 7.04009C5.27096 7.04009 5.26604 7.05279 5.26604 7.07775C5.26604 7.10248 5.26109 7.11542 5.25163 7.11542C5.24227 7.11542 5.23477 7.13426 5.23026 7.16911C5.22592 7.20261 5.21848 7.22183 5.2105 7.22022C5.20171 7.21846 5.19674 7.24034 5.1946 7.29029C5.19238 7.34218 5.18748 7.36293 5.17743 7.36293C5.16782 7.36293 5.16097 7.38595 5.1558 7.43557C5.15162 7.47552 5.14285 7.51163 5.13627 7.51583C5.12953 7.52012 5.12264 7.56119 5.12048 7.60999C5.1176 7.67495 5.11298 7.69653 5.10199 7.69653C5.07989 7.69653 5.07996 12.9967 5.10206 13.0054C5.1129 13.0096 5.11775 13.0385 5.12046 13.1145C5.12319 13.1917 5.12813 13.2205 5.13989 13.2281C5.15391 13.2372 5.15391 13.2384 5.13989 13.2388C5.12746 13.2392 5.12801 13.2416 5.14252 13.2503C5.15703 13.2589 5.16092 13.2759 5.16092 13.3306C5.16092 13.3852 5.1643 13.4001 5.17669 13.4001C5.1888 13.4001 5.19245 13.4138 5.19245 13.4592C5.19245 13.5041 5.1962 13.5184 5.20787 13.5184C5.21841 13.5184 5.22546 13.5354 5.23024 13.5722C5.23477 13.6072 5.24227 13.626 5.25163 13.626C5.26192 13.626 5.26604 13.6414 5.26604 13.6798C5.26604 13.7186 5.27013 13.7337 5.28064 13.7337C5.289 13.7337 5.29819 13.7497 5.30214 13.7713C5.30627 13.7939 5.31519 13.809 5.32433 13.809C5.3348 13.809 5.33963 13.8209 5.33963 13.8466C5.33963 13.8729 5.34438 13.8843 5.3554 13.8843C5.36407 13.8843 5.37117 13.8917 5.37117 13.9008C5.37117 13.9099 5.37798 13.9199 5.38629 13.9232C5.39461 13.9265 5.40445 13.9433 5.40815 13.9605C5.41186 13.9778 5.4216 13.9919 5.42981 13.9919C5.43803 13.9919 5.44475 14.0016 5.44475 14.0134C5.44475 14.0253 5.45147 14.035 5.45969 14.035C5.4679 14.035 5.4778 14.0498 5.4817 14.068C5.48559 14.0861 5.49543 14.1036 5.50356 14.1068C5.51168 14.11 5.51834 14.1188 5.51834 14.1264C5.51834 14.1341 5.52499 14.1429 5.53312 14.1461C5.54125 14.1493 5.55108 14.1667 5.55497 14.1849C5.55887 14.2031 5.56878 14.2179 5.57699 14.2179C5.58521 14.2179 5.59193 14.2252 5.59193 14.2341C5.59193 14.2429 5.59902 14.2502 5.60769 14.2502C5.61637 14.2502 5.62346 14.2579 5.62346 14.2674C5.62346 14.2768 5.63292 14.287 5.64449 14.2901C5.65605 14.2932 5.66551 14.3025 5.66551 14.3106C5.66551 14.3188 5.67261 14.3255 5.68128 14.3255C5.68995 14.3255 5.69713 14.3316 5.69723 14.339C5.69745 14.3554 5.74283 14.4009 5.75898 14.4009C5.76539 14.4009 5.77064 14.4081 5.77064 14.417C5.77064 14.4259 5.77773 14.4331 5.7864 14.4331C5.79508 14.4331 5.80217 14.4409 5.80217 14.4503C5.80217 14.4597 5.81163 14.47 5.8232 14.4731C5.83476 14.4762 5.84422 14.485 5.84422 14.4927C5.84422 14.5004 5.85841 14.51 5.87576 14.5139C5.89311 14.5177 5.9073 14.5278 5.9073 14.5362C5.9073 14.5446 5.91676 14.5515 5.92832 14.5515C5.94 14.5515 5.94935 14.5587 5.94935 14.5677C5.94935 14.5766 5.95869 14.5838 5.97037 14.5838C5.98193 14.5838 5.9914 14.5907 5.9914 14.5991C5.9914 14.6075 6.00559 14.6176 6.02293 14.6215C6.04028 14.6254 6.05447 14.6354 6.05447 14.6438C6.05447 14.6541 6.06649 14.6591 6.09126 14.6591C6.11645 14.6591 6.12806 14.6641 6.12806 14.6748C6.12806 14.6841 6.14283 14.6933 6.16485 14.6975C6.18593 14.7016 6.20164 14.711 6.20164 14.7195C6.20164 14.7277 6.2111 14.7345 6.22267 14.7345C6.23435 14.7345 6.24369 14.7416 6.24369 14.7506C6.24369 14.7613 6.25414 14.7667 6.27471 14.7667C6.29198 14.7667 6.30983 14.7742 6.31498 14.7837C6.32007 14.793 6.34395 14.8033 6.36805 14.8066C6.39527 14.8103 6.41189 14.8182 6.41189 14.8274C6.41189 14.8373 6.42525 14.8421 6.45319 14.8421C6.47641 14.8421 6.50159 14.8493 6.51072 14.8587C6.51964 14.8678 6.55073 14.8782 6.5798 14.8817C6.6143 14.8859 6.63265 14.8932 6.63265 14.9028C6.63265 14.9133 6.64871 14.9174 6.69047 14.9174C6.73205 14.9174 6.74829 14.9215 6.74829 14.932C6.74829 14.9427 6.7738 14.9482 6.84479 14.9529C6.91637 14.9577 6.94367 14.9636 6.95044 14.976C6.9583 14.9904 6.99414 14.9927 7.2061 14.9927C7.41822 14.9927 7.45262 14.995 7.45262 15.0089C7.45262 15.0205 7.4643 15.025 7.49467 15.025C7.52504 15.025 7.53672 15.0205 7.53672 15.0089C7.53672 14.9946 7.75684 14.9927 9.4547 14.9927C11.1575 14.9927 11.3737 14.9909 11.3816 14.9764C11.3879 14.9649 11.4159 14.9581 11.4767 14.9533C11.5389 14.9484 11.563 14.9424 11.563 14.932C11.563 14.9212 11.5809 14.9174 11.6316 14.9174C11.6814 14.9174 11.7019 14.9132 11.706 14.902C11.7098 14.8921 11.7358 14.884 11.7793 14.8793C11.8263 14.8741 11.8468 14.8673 11.8468 14.857C11.8468 14.8471 11.8593 14.8421 11.8836 14.8421C11.9093 14.8421 11.9204 14.8372 11.9204 14.8259C11.9204 14.8151 11.9309 14.8098 11.9522 14.8098C11.9706 14.8098 11.9866 14.8031 11.9901 14.7939C11.9933 14.7852 12.0121 14.775 12.0318 14.7712C12.0521 14.7673 12.0676 14.7579 12.0676 14.7494C12.0676 14.7395 12.08 14.7345 12.1043 14.7345C12.1295 14.7345 12.1411 14.7295 12.1411 14.7188C12.1411 14.7094 12.1559 14.7003 12.1779 14.6961C12.199 14.692 12.2147 14.6826 12.2147 14.6741C12.2147 14.6646 12.2264 14.6591 12.2463 14.6591C12.2668 14.6591 12.2778 14.6537 12.2778 14.6435C12.2778 14.6341 12.2926 14.625 12.3146 14.6208C12.3357 14.6167 12.3514 14.6073 12.3514 14.5987C12.3514 14.5905 12.3609 14.5838 12.3724 14.5838C12.3841 14.5838 12.3934 14.5766 12.3934 14.5677C12.3934 14.5588 12.4005 14.5515 12.4092 14.5515C12.4179 14.5515 12.425 14.5445 12.425 14.5359C12.425 14.5265 12.4397 14.5174 12.4618 14.5131C12.4828 14.5091 12.4986 14.4997 12.4986 14.4911C12.4986 14.4829 12.5057 14.4762 12.5143 14.4762C12.523 14.4762 12.5301 14.4695 12.5301 14.4613C12.5301 14.4531 12.5396 14.4439 12.5511 14.4408C12.5627 14.4377 12.5721 14.4274 12.5721 14.418C12.5721 14.4086 12.5792 14.4009 12.5879 14.4009C12.5966 14.4009 12.6037 14.3936 12.6037 14.3847C12.6037 14.3758 12.6108 14.3686 12.6195 14.3686C12.6281 14.3686 12.6352 14.3609 12.6352 14.3514C12.6352 14.342 12.6447 14.3317 12.6562 14.3286C12.6678 14.3256 12.6773 14.3163 12.6773 14.3081C12.6773 14.2999 12.6844 14.2932 12.693 14.2932C12.7017 14.2932 12.7088 14.2855 12.7088 14.2761C12.7088 14.2667 12.7183 14.2564 12.7298 14.2533C12.7414 14.2502 12.7509 14.241 12.7509 14.2328C12.7509 14.2246 12.758 14.2179 12.7666 14.2179C12.7754 14.2179 12.7824 14.2083 12.7824 14.1964C12.7824 14.1844 12.7894 14.1749 12.7982 14.1749C12.8068 14.1749 12.8139 14.1676 12.8139 14.1586C12.8139 14.1497 12.8234 14.1341 12.835 14.1239C12.8465 14.1138 12.856 14.0969 12.856 14.0864C12.856 14.0759 12.8631 14.0673 12.8718 14.0673C12.8804 14.0673 12.8875 14.0611 12.8875 14.0535C12.8875 14.0459 12.897 14.0315 12.9085 14.0213C12.9201 14.0112 12.9296 13.9932 12.9296 13.9813C12.9296 13.9692 12.9366 13.9596 12.9453 13.9596C12.9564 13.9596 12.9611 13.9483 12.9611 13.922C12.9611 13.8962 12.9659 13.8843 12.9764 13.8843C12.9855 13.8843 12.9945 13.8692 12.9986 13.8466C13.0025 13.8251 13.0117 13.809 13.0201 13.809C13.0298 13.809 13.0347 13.7963 13.0347 13.7713C13.0347 13.7466 13.0396 13.7337 13.0491 13.7337C13.0585 13.7337 13.066 13.7148 13.0705 13.6798C13.0753 13.643 13.0823 13.626 13.0929 13.626C13.1044 13.626 13.1083 13.6123 13.1083 13.5722C13.1083 13.5316 13.1121 13.5184 13.1241 13.5184C13.1359 13.5184 13.1398 13.5053 13.1398 13.4652C13.1398 13.4279 13.1448 13.409 13.1563 13.4024C13.1688 13.3953 13.1743 13.3676 13.1789 13.2889C13.1833 13.2127 13.1887 13.1848 13.1989 13.1848C13.2104 13.1848 13.2134 12.9717 13.2158 11.9724C13.2181 11.0141 13.2214 10.759 13.2318 10.7554C13.2418 10.752 13.2449 10.6942 13.2449 10.5151C13.2449 10.3126 13.2427 10.2793 13.2292 10.2793C13.2167 10.2793 13.2134 10.2637 13.2134 10.2039C13.2134 10.1468 13.2099 10.1286 13.1988 10.1286C13.1904 10.1286 13.1813 10.1125 13.1773 10.0909C13.1732 10.0684 13.1643 10.0533 13.1551 10.0533C13.1451 10.0533 13.1398 10.0421 13.1398 10.021C13.1398 10.0012 13.1348 9.98975 13.1269 9.99139C13.1198 9.99287 13.1124 9.98318 13.1104 9.96987C13.1081 9.95439 13.0995 9.94566 13.0865 9.94566C13.0732 9.94566 13.0662 9.93822 13.0662 9.92413C13.0662 9.91218 13.0592 9.90261 13.0505 9.90261C13.0418 9.90261 13.0347 9.89535 13.0347 9.88647C13.0347 9.8775 13.0253 9.87033 13.0137 9.87033C13.0021 9.87033 12.9926 9.86345 12.9926 9.85503C12.9926 9.84663 12.9785 9.83656 12.9611 9.83266C12.9438 9.82877 12.9296 9.81869 12.9296 9.81029C12.9296 9.79999 12.9176 9.795 12.8928 9.795C12.8683 9.795 12.856 9.78997 12.856 9.77997C12.856 9.76567 12.7738 9.75846 12.496 9.74838C12.4685 9.74739 12.446 9.74173 12.4459 9.73581C12.4458 9.72989 12.4415 9.73185 12.4363 9.74016C12.4284 9.75298 12.2668 9.75509 11.3685 9.75409C10.5788 9.75321 10.3063 9.74972 10.2952 9.74035C10.2843 9.73104 10.2768 9.73091 10.2662 9.73988C10.2584 9.74652 10.2158 9.75509 10.1716 9.75891C10.1144 9.76386 10.0912 9.77006 10.0912 9.78044C10.0912 9.78844 10.0818 9.795 10.0702 9.795C10.0562 9.795 10.0492 9.80217 10.0492 9.81652C10.0492 9.82848 10.0422 9.83804 10.0334 9.83804C10.0247 9.83804 10.0176 9.84531 10.0176 9.85418C10.0176 9.86315 10.0083 9.87033 9.99661 9.87033C9.9826 9.87033 9.97559 9.8775 9.97559 9.89185C9.97559 9.9038 9.96858 9.91337 9.95982 9.91337C9.95115 9.91337 9.94405 9.92064 9.94405 9.92951C9.94405 9.93839 9.93696 9.94566 9.92828 9.94566C9.91961 9.94566 9.91252 9.95337 9.91252 9.96281C9.91252 9.97224 9.90305 9.98249 9.89149 9.98558C9.87993 9.98868 9.87047 9.99791 9.87047 10.0061C9.87047 10.0143 9.86337 10.021 9.8547 10.021C9.84603 10.021 9.83893 10.0277 9.83893 10.0359C9.83893 10.0441 9.82947 10.0533 9.8179 10.0564C9.80634 10.0595 9.79688 10.0697 9.79688 10.0792C9.79688 10.0886 9.78978 10.0963 9.78111 10.0963C9.77244 10.0963 9.76534 10.1036 9.76534 10.1125C9.76534 10.1214 9.756 10.1286 9.74432 10.1286C9.7303 10.1286 9.72329 10.1358 9.72329 10.1501C9.72329 10.1621 9.71628 10.1716 9.70752 10.1716C9.69885 10.1716 9.69176 10.1789 9.69176 10.1878C9.69176 10.1968 9.68241 10.2039 9.67073 10.2039C9.65917 10.2039 9.65026 10.2076 9.65095 10.212C9.65437 10.2342 9.64816 10.247 9.63394 10.247C9.62527 10.247 9.61817 10.2542 9.61817 10.2631C9.61817 10.272 9.61107 10.2793 9.6024 10.2793C9.59373 10.2793 9.58663 10.287 9.58663 10.2964C9.58663 10.3058 9.57722 10.3161 9.56572 10.3191C9.55422 10.3222 9.54761 10.3294 9.55102 10.335C9.55442 10.3407 9.54727 10.3479 9.53513 10.3512C9.52298 10.3544 9.51305 10.3638 9.51305 10.372C9.51305 10.3802 9.50595 10.3869 9.49728 10.3869C9.4886 10.3869 9.48151 10.3946 9.48151 10.404C9.48151 10.4135 9.47205 10.4237 9.46048 10.4268C9.44892 10.4299 9.43946 10.4391 9.43946 10.4473C9.43946 10.4555 9.43236 10.4622 9.42369 10.4622C9.41502 10.4622 9.40792 10.4689 9.40792 10.4771C9.40792 10.4853 9.39846 10.4945 9.3869 10.4976C9.37533 10.5007 9.36587 10.511 9.36587 10.5204C9.36587 10.5298 9.35878 10.5375 9.3501 10.5375C9.34143 10.5375 9.33433 10.5448 9.33433 10.5537C9.33433 10.5626 9.32499 10.5698 9.31331 10.5698C9.2993 10.5698 9.29229 10.577 9.29229 10.5913C9.29229 10.6033 9.28527 10.6129 9.27652 10.6129C9.26784 10.6129 9.26075 10.6201 9.26075 10.629C9.26075 10.6379 9.25365 10.6451 9.24498 10.6451C9.23631 10.6451 9.22921 10.6529 9.22921 10.6623C9.22921 10.6717 9.21975 10.682 9.20819 10.6851C9.19662 10.6882 9.18716 10.6974 9.18716 10.7056C9.18716 10.7138 9.18007 10.7205 9.17139 10.7205C9.16272 10.7205 9.15562 10.7272 9.15562 10.7354C9.15562 10.7435 9.14616 10.7528 9.1346 10.7559C9.12304 10.759 9.11357 10.7692 9.11357 10.7786C9.11357 10.7881 9.10648 10.7958 9.09781 10.7958C9.08913 10.7958 9.08204 10.8031 9.08204 10.8119C9.08204 10.8208 9.07494 10.8281 9.06627 10.8281C9.0576 10.8281 9.0505 10.8358 9.0505 10.8452C9.0505 10.8547 9.04104 10.8649 9.02948 10.868C9.01458 10.872 9.00845 10.8827 9.00845 10.9047C9.00845 10.9357 9.00848 10.9357 9.07678 10.9357C9.13051 10.9357 9.14511 10.9322 9.14511 10.9196C9.14511 10.9096 9.155 10.9034 9.17107 10.9034C9.18981 10.9034 9.19533 10.9079 9.19097 10.9196C9.18561 10.9338 9.33656 10.9357 10.5109 10.9357C11.6799 10.9357 11.8377 10.9338 11.843 10.9196C11.8508 10.8988 11.8783 10.8985 11.8783 10.9192C11.8783 10.9304 11.8892 10.9346 11.9156 10.9336C11.9402 10.9327 11.9512 10.9277 11.9479 10.919C11.9447 10.9105 11.9501 10.9078 11.9632 10.9113C11.9744 10.9143 11.9835 10.921 11.9835 10.9262C11.9835 10.9314 11.9929 10.9357 12.0045 10.9357C12.0162 10.9357 12.0255 10.9285 12.0255 10.9196C12.0255 10.8942 12.0539 10.9007 12.0609 10.9276C12.0695 10.9603 12.0693 12.5574 12.0608 12.6613C12.0559 12.7199 12.0499 12.7436 12.0397 12.7436C12.0291 12.7436 12.0255 12.7628 12.0255 12.8189C12.0255 12.8787 12.0222 12.8943 12.0097 12.8943C11.9978 12.8943 11.994 12.9074 11.994 12.9481C11.994 12.988 11.99 13.0019 11.9787 13.0019C11.9695 13.0019 11.9606 13.017 11.9565 13.0395C11.9525 13.0611 11.9433 13.0772 11.935 13.0772C11.9253 13.0772 11.9204 13.0899 11.9204 13.1149C11.9204 13.1407 11.9156 13.1525 11.9051 13.1525C11.8959 13.1525 11.887 13.1677 11.8829 13.1902C11.8789 13.2118 11.8698 13.2279 11.8614 13.2279C11.8522 13.2279 11.8468 13.2398 11.8468 13.2602C11.8468 13.2825 11.8416 13.2924 11.83 13.2924C11.8208 13.2924 11.8108 13.3021 11.8078 13.314C11.8048 13.3258 11.7957 13.3355 11.7877 13.3355C11.7798 13.3355 11.7732 13.3427 11.7732 13.3516C11.7732 13.3605 11.7661 13.3678 11.7574 13.3678C11.7487 13.3678 11.7417 13.3773 11.7417 13.3893C11.7417 13.4036 11.7347 13.4108 11.7206 13.4108C11.709 13.4108 11.6996 13.418 11.6996 13.427C11.6996 13.4358 11.6925 13.4431 11.6839 13.4431C11.6752 13.4431 11.6681 13.4498 11.6681 13.458C11.6681 13.4662 11.6586 13.4754 11.6471 13.4785C11.6355 13.4816 11.626 13.4918 11.626 13.5013C11.626 13.5132 11.6163 13.5184 11.5945 13.5184C11.5727 13.5184 11.563 13.5237 11.563 13.5356C11.563 13.545 11.5535 13.5553 11.5419 13.5584C11.5304 13.5615 11.5209 13.5707 11.5209 13.5789C11.5209 13.5871 11.5138 13.5938 11.5051 13.5938C11.4965 13.5938 11.4894 13.601 11.4894 13.6099C11.4894 13.6212 11.4783 13.626 11.4526 13.626C11.4274 13.626 11.4158 13.631 11.4158 13.6417C11.4158 13.6511 11.401 13.6602 11.379 13.6644C11.3579 13.6685 11.3422 13.6779 11.3422 13.6864C11.3422 13.6963 11.3298 13.7014 11.3054 13.7014C11.2797 13.7014 11.2686 13.7062 11.2686 13.7175C11.2686 13.7282 11.2582 13.7337 11.2376 13.7337C11.2195 13.7337 11.2025 13.7412 11.1967 13.7517C11.1897 13.7646 11.1683 13.7711 11.1226 13.7745C11.0813 13.7776 11.0584 13.784 11.0584 13.7925C11.0584 13.8018 11.0228 13.808 10.9403 13.8131C10.8754 13.8171 10.8176 13.8251 10.812 13.8308C10.7988 13.8444 7.54031 13.8452 7.53212 13.8316C7.52892 13.8263 7.46271 13.8185 7.38498 13.8142C7.27976 13.8084 7.24224 13.8027 7.23809 13.7916C7.2342 13.7812 7.21339 13.7767 7.16911 13.7767C7.12152 13.7767 7.10571 13.7729 7.10571 13.7615C7.10571 13.7522 7.08951 13.7435 7.06366 13.739C7.03781 13.7346 7.02161 13.7259 7.02161 13.7166C7.02161 13.7069 7.01023 13.7014 6.99007 13.7014C6.97017 13.7014 6.95854 13.6959 6.95854 13.6864C6.95854 13.6779 6.94282 13.6685 6.92174 13.6644C6.89972 13.6602 6.88495 13.6511 6.88495 13.6417C6.88495 13.6314 6.87396 13.626 6.85309 13.626C6.83446 13.626 6.8187 13.6193 6.81517 13.6099C6.81184 13.601 6.80252 13.5938 6.79447 13.5938C6.78642 13.5938 6.77983 13.586 6.77983 13.5766C6.77983 13.5672 6.77036 13.5569 6.7588 13.5538C6.74724 13.5507 6.73778 13.5415 6.73778 13.5333C6.73778 13.5251 6.73053 13.5184 6.72168 13.5184C6.71282 13.5184 6.70285 13.5112 6.69953 13.5023C6.6962 13.4934 6.68689 13.4861 6.67883 13.4861C6.67078 13.4861 6.66419 13.4789 6.66419 13.47C6.66419 13.4611 6.65709 13.4539 6.64842 13.4539C6.63966 13.4539 6.63265 13.4443 6.63265 13.4323C6.63265 13.4198 6.62564 13.4108 6.6159 13.4108C6.60669 13.4108 6.59667 13.4011 6.59365 13.3893C6.59062 13.3775 6.5816 13.3678 6.5736 13.3678C6.56561 13.3678 6.55906 13.3605 6.55906 13.3516C6.55906 13.3427 6.55197 13.3355 6.5433 13.3355C6.53454 13.3355 6.52753 13.3259 6.52753 13.314C6.52753 13.3021 6.52081 13.2924 6.51259 13.2924C6.50438 13.2924 6.49454 13.2779 6.49073 13.2602C6.48693 13.2424 6.47709 13.2279 6.46888 13.2279C6.46066 13.2279 6.45394 13.2182 6.45394 13.2063C6.45394 13.1945 6.44706 13.1848 6.43865 13.1848C6.4295 13.1848 6.42059 13.1697 6.41645 13.1472C6.4125 13.1256 6.40331 13.1095 6.39496 13.1095C6.38527 13.1095 6.38035 13.0968 6.38035 13.0718C6.38035 13.0455 6.3756 13.0342 6.36459 13.0342C6.35414 13.0342 6.34882 13.0235 6.34882 13.0024C6.34882 12.9839 6.34147 12.9665 6.33118 12.9606C6.31862 12.9534 6.31219 12.9315 6.30889 12.8847C6.30583 12.8414 6.2997 12.8189 6.29096 12.8189C6.28141 12.8189 6.27647 12.7881 6.27338 12.7094C6.27053 12.6368 6.2648 12.5984 6.25638 12.5955C6.23787 12.5892 6.23787 8.18457 6.25638 8.17825C6.2648 8.17538 6.27053 8.13697 6.27338 8.06437C6.27667 7.98036 6.28106 7.95481 6.29222 7.95481C6.30311 7.95481 6.30677 7.93733 6.30677 7.88539C6.30677 7.83285 6.31087 7.81363 6.32365 7.80631C6.33381 7.80049 6.34272 7.77669 6.34604 7.74658C6.34962 7.71413 6.35662 7.69653 6.36595 7.69653C6.3754 7.69653 6.38035 7.68359 6.38035 7.65887C6.38035 7.6335 6.38523 7.6212 6.39529 7.6212C6.4035 7.6212 6.41334 7.60668 6.41715 7.58892C6.42095 7.57116 6.43079 7.55663 6.439 7.55663C6.44722 7.55663 6.45394 7.54695 6.45394 7.53511C6.45394 7.52327 6.46051 7.51359 6.46854 7.51359C6.4769 7.51359 6.48609 7.4975 6.49004 7.47592C6.49417 7.45338 6.50309 7.43826 6.51223 7.43826C6.52064 7.43826 6.52753 7.431 6.52753 7.42212C6.52753 7.41324 6.53462 7.40598 6.5433 7.40598C6.55205 7.40598 6.55906 7.39641 6.55906 7.38445C6.55906 7.3725 6.56608 7.36293 6.57483 7.36293C6.58351 7.36293 6.5906 7.35567 6.5906 7.34679C6.5906 7.33782 6.59995 7.33065 6.61163 7.33065C6.62564 7.33065 6.63265 7.32347 6.63265 7.30912C6.63265 7.29717 6.63966 7.2876 6.64842 7.2876C6.65709 7.2876 6.66419 7.28034 6.66419 7.27146C6.66419 7.26249 6.67353 7.25532 6.68521 7.25532C6.69689 7.25532 6.70624 7.24814 6.70624 7.23917C6.70624 7.2303 6.71333 7.22303 6.72201 7.22303C6.73076 7.22303 6.73778 7.21347 6.73778 7.20151C6.73778 7.18717 6.74479 7.17999 6.7588 7.17999C6.77048 7.17999 6.77983 7.17281 6.77983 7.16385C6.77983 7.15322 6.7902 7.1477 6.81013 7.1477C6.83161 7.1477 6.84205 7.14143 6.84595 7.12618C6.84897 7.11434 6.85898 7.10466 6.86819 7.10466C6.87741 7.10466 6.88495 7.09739 6.88495 7.08852C6.88495 7.07724 6.89605 7.07237 6.92174 7.07237C6.94652 7.07237 6.95854 7.06738 6.95854 7.05708C6.95854 7.04868 6.97233 7.0387 6.98919 7.0349C7.00606 7.03111 7.02246 7.02104 7.02566 7.01253C7.02894 7.00377 7.0453 6.99704 7.06333 6.99704C7.08465 6.99704 7.0952 6.9917 7.0952 6.9809C7.0952 6.96967 7.10623 6.96476 7.13146 6.96476C7.15449 6.96476 7.17135 6.95816 7.17761 6.9467C7.18465 6.93384 7.20599 6.92727 7.25172 6.92389C7.29401 6.92076 7.31596 6.91448 7.31596 6.90553C7.31596 6.89641 7.33871 6.89045 7.385 6.88744C7.43008 6.8845 7.45733 6.87753 7.46347 6.86735C7.47163 6.85382 7.8228 6.85138 10.1224 6.84887C12.4541 6.84632 12.7719 6.84406 12.7719 6.83004C12.7719 6.82021 12.782 6.8141 12.7982 6.8141C12.8145 6.8141 12.8244 6.808 12.8244 6.79796C12.8244 6.78908 12.8315 6.78182 12.8402 6.78182C12.849 6.78182 12.856 6.77225 12.856 6.76029C12.856 6.74834 12.863 6.73877 12.8718 6.73877C12.8804 6.73877 12.8875 6.73151 12.8875 6.72263C12.8875 6.71367 12.8969 6.70649 12.9085 6.70649C12.9226 6.70649 12.9296 6.69931 12.9296 6.68496C12.9296 6.67301 12.9366 6.66344 12.9453 6.66344C12.954 6.66344 12.9611 6.65618 12.9611 6.6473C12.9611 6.63842 12.9682 6.63116 12.9769 6.63116C12.9855 6.63116 12.9926 6.62344 12.9926 6.614C12.9926 6.60458 13.0021 6.59432 13.0137 6.59123C13.0252 6.58813 13.0347 6.5789 13.0347 6.57071C13.0347 6.56253 13.0418 6.55583 13.0505 6.55583C13.0591 6.55583 13.0662 6.54912 13.0662 6.54095C13.0662 6.53276 13.0757 6.52352 13.0873 6.52042C13.0988 6.51734 13.1083 6.50708 13.1083 6.49765C13.1083 6.48821 13.1154 6.4805 13.1241 6.4805C13.1327 6.4805 13.1398 6.47379 13.1398 6.46562C13.1398 6.45743 13.1493 6.44819 13.1608 6.44509C13.1724 6.44201 13.1819 6.43175 13.1819 6.42232C13.1819 6.41289 13.189 6.40517 13.1976 6.40517C13.2063 6.40517 13.2134 6.39791 13.2134 6.38903C13.2134 6.38006 13.2228 6.37289 13.2344 6.37289C13.2461 6.37289 13.2555 6.36571 13.2555 6.35674C13.2555 6.34787 13.2626 6.3406 13.2712 6.3406C13.28 6.3406 13.287 6.33103 13.287 6.31908C13.287 6.30712 13.294 6.29756 13.3028 6.29756C13.3114 6.29756 13.3185 6.29029 13.3185 6.28141C13.3185 6.27245 13.3279 6.26527 13.3396 6.26527C13.3536 6.26527 13.3606 6.25809 13.3606 6.24375C13.3606 6.23179 13.3676 6.22223 13.3763 6.22223C13.385 6.22223 13.3921 6.21552 13.3921 6.20734C13.3921 6.19915 13.4016 6.18992 13.4131 6.18682C13.4247 6.18373 13.4342 6.17348 13.4342 6.16405C13.4342 6.15461 13.4413 6.1469 13.4499 6.1469C13.4586 6.1469 13.4657 6.13963 13.4657 6.13076C13.4657 6.12188 13.4728 6.11461 13.4815 6.11461C13.4901 6.11461 13.4972 6.1069 13.4972 6.09746C13.4972 6.08803 13.5067 6.07778 13.5183 6.07469C13.5298 6.07159 13.5393 6.06236 13.5393 6.05417C13.5393 6.04599 13.5464 6.03928 13.5551 6.03928C13.5637 6.03928 13.5708 6.03202 13.5708 6.02314C13.5708 6.01418 13.5802 6.007 13.5919 6.007C13.6059 6.007 13.6129 5.99982 13.6129 5.98548C13.6129 5.97352 13.6199 5.96395 13.6286 5.96395C13.6373 5.96395 13.6444 5.95725 13.6444 5.94907C13.6444 5.94088 13.6539 5.93165 13.6654 5.92855C13.677 5.92546 13.6865 5.9152 13.6865 5.90578C13.6865 5.89634 13.6936 5.88862 13.7022 5.88862C13.7109 5.88862 13.718 5.88136 13.718 5.87248C13.718 5.8636 13.7251 5.85634 13.7338 5.85634C13.7424 5.85634 13.7495 5.84862 13.7495 5.83919C13.7495 5.82976 13.759 5.8195 13.7706 5.81642C13.7821 5.81332 13.7916 5.80408 13.7916 5.79589C13.7916 5.78772 13.7987 5.78101 13.8074 5.78101C13.816 5.78101 13.8231 5.77431 13.8231 5.76613C13.8231 5.75794 13.8326 5.74871 13.8441 5.74561C13.8557 5.74252 13.8652 5.73226 13.8652 5.72283C13.8652 5.7134 13.8723 5.70568 13.8809 5.70568C13.8915 5.70568 13.8967 5.69492 13.8967 5.6734V5.64111L10.5354 5.64152C7.59993 5.64188 7.17233 5.64392 7.16049 5.65766ZM14.0123 6.72263C14.0123 6.73159 14.003 6.73877 13.9913 6.73877C13.9795 6.73877 13.9703 6.74595 13.9703 6.75525C13.9703 6.76432 13.9632 6.77452 13.9545 6.77792C13.9459 6.78133 13.9388 6.79087 13.9388 6.79911C13.9388 6.80735 13.9293 6.8141 13.9177 6.8141C13.9062 6.8141 13.8967 6.82081 13.8967 6.82898C13.8967 6.83717 13.8872 6.84641 13.8757 6.84951C13.8641 6.85259 13.8547 6.86285 13.8547 6.87228C13.8547 6.88171 13.8476 6.88943 13.8389 6.88943C13.8302 6.88943 13.8231 6.89669 13.8231 6.90557C13.8231 6.91445 13.816 6.92171 13.8074 6.92171C13.7987 6.92171 13.7916 6.92842 13.7916 6.9366C13.7916 6.94479 13.7821 6.95402 13.7706 6.95712C13.759 6.96021 13.7495 6.97046 13.7495 6.97989C13.7495 6.98933 13.7424 6.99704 13.7338 6.99704C13.7251 6.99704 13.718 7.00375 13.718 7.01193C13.718 7.02012 13.7085 7.02935 13.697 7.03245C13.6854 7.03554 13.676 7.04579 13.676 7.05522C13.676 7.06466 13.6689 7.07237 13.6602 7.07237C13.6515 7.07237 13.6444 7.07964 13.6444 7.08852C13.6444 7.09739 13.6379 7.10466 13.6299 7.10466C13.6219 7.10466 13.6129 7.11434 13.6098 7.12618C13.6068 7.13802 13.5968 7.1477 13.5876 7.1477C13.5784 7.1477 13.5708 7.15497 13.5708 7.16385C13.5708 7.17272 13.5637 7.17999 13.5551 7.17999C13.5464 7.17999 13.5393 7.18669 13.5393 7.19487C13.5393 7.20306 13.5298 7.21229 13.5183 7.21539C13.5067 7.21848 13.4972 7.22874 13.4972 7.23816C13.4972 7.2476 13.4901 7.25532 13.4815 7.25532C13.4728 7.25532 13.4657 7.26202 13.4657 7.2702C13.4657 7.27839 13.4562 7.28762 13.4447 7.29072C13.4331 7.29381 13.4237 7.30407 13.4237 7.31349C13.4237 7.32293 13.4166 7.33065 13.4079 7.33065C13.3992 7.33065 13.3921 7.33791 13.3921 7.34679C13.3921 7.35567 13.385 7.36293 13.3763 7.36293C13.3677 7.36293 13.3606 7.37065 13.3606 7.38008C13.3606 7.38951 13.3511 7.39977 13.3396 7.40286C13.328 7.40595 13.3185 7.41519 13.3185 7.42338C13.3185 7.43156 13.3114 7.43826 13.3028 7.43826C13.2941 7.43826 13.287 7.44496 13.287 7.45314C13.287 7.46133 13.2775 7.47057 13.266 7.47366C13.2544 7.47675 13.2449 7.48701 13.2449 7.49644C13.2449 7.50587 13.2378 7.51359 13.2292 7.51359C13.2205 7.51359 13.2134 7.52029 13.2134 7.52847C13.2134 7.53666 13.2039 7.54589 13.1924 7.54899C13.1808 7.55208 13.1714 7.56234 13.1714 7.57177C13.1714 7.5812 13.1643 7.58892 13.1556 7.58892C13.1469 7.58892 13.1398 7.59618 13.1398 7.60506C13.1398 7.61394 13.1327 7.6212 13.1241 7.6212C13.1154 7.6212 13.1083 7.62791 13.1083 7.63609C13.1083 7.64428 13.0988 7.65351 13.0873 7.65661C13.0757 7.6597 13.0662 7.66995 13.0662 7.67938C13.0662 7.68882 13.0591 7.69653 13.0505 7.69653C13.0418 7.69653 13.0347 7.70324 13.0347 7.71142C13.0347 7.7196 13.0252 7.72884 13.0137 7.73194C13.0021 7.73503 12.9926 7.74528 12.9926 7.75471C12.9926 7.76415 12.9855 7.77186 12.9769 7.77186C12.9682 7.77186 12.9611 7.77913 12.9611 7.788C12.9611 7.79688 12.9546 7.80415 12.9466 7.80415C12.9386 7.80415 12.9295 7.81383 12.9265 7.82567C12.9235 7.83751 12.9132 7.84719 12.9036 7.84719C12.8903 7.84719 12.887 7.85542 12.8895 7.88217L12.8928 7.91714L13.8258 7.91988C14.6454 7.92231 14.7587 7.92459 14.7587 7.93872C14.7587 7.94993 14.7699 7.95481 14.7955 7.95481C14.8212 7.95481 14.8323 7.95967 14.8323 7.97095C14.8323 7.97983 14.8394 7.98709 14.8481 7.98709C14.8568 7.98709 14.8638 7.99666 14.8638 8.00861C14.8638 8.02296 14.8709 8.03013 14.8849 8.03013C14.9031 8.03013 14.9059 8.03731 14.9059 8.08394C14.9059 8.1246 14.9098 8.13775 14.9217 8.13775C14.9356 8.13775 14.9374 8.24955 14.9374 9.07937C14.9374 9.82557 14.9402 10.021 14.9506 10.0208C14.9812 10.0205 15.011 10.0067 15.011 9.99282C15.011 9.98464 15.0181 9.97794 15.0268 9.97794C15.0355 9.97794 15.0426 9.97068 15.0426 9.9618C15.0426 9.95283 15.0519 9.94566 15.0636 9.94566C15.0776 9.94566 15.0846 9.93848 15.0846 9.92413C15.0846 9.91218 15.0916 9.90261 15.1004 9.90261C15.1091 9.90261 15.1161 9.89535 15.1161 9.88647C15.1161 9.8775 15.1255 9.87033 15.1372 9.87033C15.1512 9.87033 15.1582 9.86315 15.1582 9.8488C15.1582 9.83685 15.1652 9.82728 15.174 9.82728C15.1826 9.82728 15.1897 9.82002 15.1897 9.81114C15.1897 9.80226 15.1968 9.795 15.2055 9.795C15.2142 9.795 15.2213 9.78773 15.2213 9.77885C15.2213 9.76989 15.2306 9.76271 15.2423 9.76271C15.2563 9.76271 15.2633 9.75554 15.2633 9.74119C15.2633 9.72923 15.2703 9.71967 15.2791 9.71967C15.2878 9.71967 15.2949 9.7124 15.2949 9.70353C15.2949 9.69456 15.3042 9.68738 15.3159 9.68738C15.3299 9.68738 15.3369 9.68021 15.3369 9.66586C15.3369 9.6539 15.3439 9.64434 15.3527 9.64434C15.3613 9.64434 15.3684 9.63763 15.3684 9.62946C15.3684 9.62127 15.3784 9.6119 15.3905 9.60865C15.4036 9.60516 15.4096 9.59774 15.4052 9.59053C15.4009 9.58332 15.4069 9.57591 15.4199 9.57241C15.4321 9.56916 15.442 9.5598 15.442 9.55161C15.442 9.54343 15.4491 9.53672 15.4578 9.53672C15.4665 9.53672 15.4736 9.52946 15.4736 9.52058C15.4736 9.51162 15.4829 9.50444 15.4946 9.50444C15.5086 9.50444 15.5156 9.49726 15.5156 9.48292C15.5156 9.47096 15.5226 9.46139 15.5314 9.46139C15.5401 9.46139 15.5472 9.45413 15.5472 9.44525C15.5472 9.43629 15.5565 9.42911 15.5682 9.42911C15.5822 9.42911 15.5892 9.42193 15.5892 9.40759C15.5892 9.39563 15.5962 9.38607 15.605 9.38607C15.6136 9.38607 15.6207 9.37936 15.6207 9.37118C15.6207 9.36299 15.6302 9.35376 15.6418 9.35066C15.6533 9.34757 15.6628 9.33732 15.6628 9.32789C15.6628 9.31845 15.6699 9.31074 15.6786 9.31074C15.6872 9.31074 15.6943 9.30347 15.6943 9.29459C15.6943 9.28572 15.7014 9.27845 15.7101 9.27845C15.7188 9.27845 15.7259 9.27119 15.7259 9.26231C15.7259 9.25335 15.7352 9.24617 15.7469 9.24617C15.7609 9.24617 15.7679 9.23899 15.7679 9.22465C15.7679 9.21269 15.7749 9.20312 15.7837 9.20312C15.7924 9.20312 15.7995 9.19586 15.7995 9.18698C15.7995 9.17802 15.8088 9.17084 15.8205 9.17084C15.8345 9.17084 15.8415 9.16366 15.8415 9.14932C15.8415 9.13736 15.8485 9.12779 15.8573 9.12779C15.8659 9.12779 15.873 9.12053 15.873 9.11165C15.873 9.10277 15.8801 9.09551 15.8888 9.09551C15.8975 9.09551 15.9046 9.08824 15.9046 9.07937C15.9046 9.0704 15.9139 9.06322 15.9256 9.06322C15.9396 9.06322 15.9466 9.05605 15.9466 9.0417C15.9466 9.02975 15.9536 9.02018 15.9624 9.02018C15.9711 9.02018 15.9782 9.01292 15.9782 9.00404C15.9782 8.99507 15.9875 8.9879 15.9992 8.9879C16.0132 8.9879 16.0202 8.98072 16.0202 8.96637C16.0202 8.95442 16.0272 8.94485 16.036 8.94485C16.0447 8.94485 16.0517 8.93759 16.0517 8.92871C16.0517 8.91983 16.0583 8.91257 16.0664 8.91257C16.0825 8.91257 16.0938 8.88996 16.0938 8.85788C16.0938 8.84652 16.1009 8.83724 16.1096 8.83724C16.1234 8.83724 16.1253 8.73978 16.1253 8.02475C16.1253 7.30973 16.1234 7.21227 16.1096 7.21227C16.098 7.21227 16.0938 7.19995 16.0937 7.16654C16.0935 7.10523 16.0839 7.07237 16.0663 7.07237C16.0567 7.07237 16.0517 7.0596 16.0517 7.03471C16.0517 7.00841 16.047 6.99704 16.036 6.99704C16.0272 6.99704 16.0202 6.98748 16.0202 6.97552C16.0202 6.96368 16.0135 6.954 16.0053 6.954C15.9971 6.954 15.9872 6.93947 15.9834 6.92171C15.9796 6.90396 15.9698 6.88943 15.9616 6.88943C15.9533 6.88943 15.9466 6.88217 15.9466 6.87329C15.9466 6.86441 15.9391 6.85715 15.9299 6.85715C15.9207 6.85715 15.9106 6.84746 15.9076 6.83562C15.9037 6.82038 15.8933 6.8141 15.8718 6.8141C15.853 6.8141 15.8415 6.80845 15.8415 6.79915C15.8415 6.7906 15.8258 6.78119 15.8047 6.77715C15.7827 6.77292 15.7679 6.76379 15.7679 6.75443C15.7679 6.74262 15.7537 6.73877 15.7101 6.73877C15.6657 6.73877 15.6523 6.73503 15.6523 6.72263C15.6523 6.70841 15.5542 6.70649 14.8323 6.70649C14.1105 6.70649 14.0123 6.70841 14.0123 6.72263ZM7.92567 7.71143C7.92567 7.7218 7.90499 7.72858 7.85734 7.7338C7.80875 7.73913 7.78901 7.7457 7.78901 7.75658C7.78901 7.76687 7.777 7.77186 7.75222 7.77186C7.72783 7.77186 7.71543 7.7769 7.71543 7.78681C7.71543 7.79536 7.69971 7.80477 7.67863 7.80882C7.65661 7.81305 7.64184 7.82217 7.64184 7.83153C7.64184 7.84225 7.63023 7.84719 7.60505 7.84719C7.57936 7.84719 7.56825 7.85206 7.56825 7.86333C7.56825 7.87221 7.56101 7.87948 7.55216 7.87948C7.5433 7.87948 7.53345 7.88645 7.53025 7.89496C7.52706 7.90347 7.51066 7.91355 7.49378 7.91733C7.47692 7.92113 7.46313 7.93111 7.46313 7.93951C7.46313 7.94793 7.45559 7.95481 7.44637 7.95481C7.43716 7.95481 7.42715 7.96449 7.42413 7.97633C7.4211 7.98817 7.41208 7.99785 7.40408 7.99785C7.39609 7.99785 7.38954 8.00511 7.38954 8.01399C7.38954 8.02287 7.38299 8.03013 7.375 8.03013C7.367 8.03013 7.35799 8.03982 7.35496 8.05166C7.35194 8.06349 7.34192 8.07318 7.33271 8.07318C7.32111 8.07318 7.31596 8.0831 7.31596 8.10546C7.31596 8.12783 7.31081 8.13775 7.2992 8.13775C7.28999 8.13775 7.27997 8.14743 7.27696 8.15927C7.27393 8.17111 7.26522 8.18079 7.25761 8.18079C7.24999 8.18079 7.24226 8.19411 7.24044 8.21039C7.23856 8.22704 7.23136 8.23881 7.22397 8.23729C7.21627 8.23571 7.21083 8.24572 7.21083 8.2615C7.21083 8.27724 7.2048 8.28841 7.19629 8.28841C7.18036 8.28841 7.16915 8.32035 7.16893 8.36643C7.16884 8.38424 7.16305 8.39602 7.15438 8.39602C7.14506 8.39602 7.13805 8.41355 7.1345 8.44578C7.13149 8.47315 7.12277 8.49949 7.11514 8.50432C7.10561 8.51034 7.09991 8.5472 7.09699 8.62136C7.09375 8.70428 7.08934 8.72962 7.07821 8.72962C7.06589 8.72962 7.06366 8.97725 7.06366 10.3492C7.06366 11.7817 7.06548 11.9688 7.07943 11.9688C7.09149 11.9688 7.0952 11.9824 7.0952 12.0265C7.0952 12.1182 7.10677 12.184 7.12291 12.184C7.13263 12.184 7.13725 12.1979 7.13725 12.2271C7.13725 12.2582 7.14163 12.2701 7.15301 12.2701C7.16356 12.2701 7.16878 12.2809 7.16878 12.3027C7.16878 12.3212 7.17535 12.3379 7.18391 12.3413C7.19223 12.3446 7.20207 12.3614 7.20577 12.3786C7.20948 12.3959 7.21922 12.41 7.22743 12.41C7.23565 12.41 7.24237 12.4193 7.24237 12.4306C7.24237 12.4627 7.2537 12.4853 7.26978 12.4853C7.27783 12.4853 7.28442 12.4955 7.28442 12.508C7.28442 12.5237 7.28924 12.5288 7.30019 12.5245C7.31091 12.5203 7.31596 12.5251 7.31596 12.5395C7.31596 12.5511 7.32267 12.5607 7.3309 12.5607C7.33911 12.5607 7.34894 12.5752 7.35275 12.5929C7.35656 12.6107 7.36639 12.6252 7.37461 12.6252C7.38283 12.6252 7.38954 12.633 7.38954 12.6425C7.38954 12.6534 7.39534 12.6575 7.40519 12.6537C7.41378 12.6503 7.42013 12.651 7.41928 12.6552C7.41598 12.6717 7.43458 12.7006 7.44849 12.7006C7.45654 12.7006 7.46313 12.7102 7.46313 12.7221C7.46313 12.7395 7.47014 12.7436 7.49992 12.7436C7.52562 12.7436 7.53672 12.7485 7.53672 12.7598C7.53672 12.7686 7.54381 12.7759 7.55249 12.7759C7.56116 12.7759 7.56825 12.7829 7.56825 12.7916C7.56825 12.8009 7.58302 12.81 7.60505 12.8143C7.62612 12.8183 7.64184 12.8277 7.64184 12.8363C7.64184 12.8456 7.6534 12.8512 7.67285 12.8512C7.6904 12.8512 7.70797 12.8587 7.71331 12.8685C7.719 12.8789 7.74224 12.888 7.77166 12.8914C7.80063 12.8948 7.82055 12.9025 7.82055 12.9104C7.82055 12.9196 7.84779 12.9254 7.90674 12.9289C7.95841 12.932 7.99454 12.939 7.99697 12.9464C8.00305 12.9651 10.3715 12.9642 10.3776 12.9455C10.3804 12.9369 10.412 12.9309 10.4679 12.9283C10.5284 12.9255 10.5538 12.9202 10.5538 12.9106C10.5538 12.9015 10.5754 12.8952 10.618 12.8921C10.6637 12.8887 10.6851 12.8821 10.6921 12.8693C10.6979 12.8587 10.7149 12.8512 10.733 12.8512C10.7536 12.8512 10.764 12.8458 10.764 12.8351C10.764 12.8261 10.7734 12.8189 10.785 12.8189C10.7966 12.8189 10.8061 12.8119 10.8061 12.8033C10.8061 12.7939 10.8208 12.7848 10.8429 12.7806C10.8639 12.7765 10.8797 12.7671 10.8797 12.7586C10.8797 12.7491 10.8913 12.7436 10.9112 12.7436C10.933 12.7436 10.9427 12.7383 10.9427 12.7265C10.9427 12.717 10.9522 12.7068 10.9638 12.7037C10.9753 12.7006 10.9848 12.6914 10.9848 12.6832C10.9848 12.675 10.9919 12.6683 11.0005 12.6683C11.0092 12.6683 11.0163 12.6621 11.0163 12.6545C11.0163 12.647 11.0258 12.6325 11.0373 12.6224C11.0489 12.6122 11.0584 12.5942 11.0584 12.5823C11.0584 12.5702 11.0653 12.5607 11.0741 12.5607C11.0828 12.5607 11.0899 12.5512 11.0899 12.5396C11.0899 12.528 11.099 12.5098 11.11 12.4992C11.1211 12.4886 11.1317 12.4654 11.1337 12.4477C11.1357 12.429 11.1427 12.4165 11.1503 12.4181C11.1591 12.4199 11.1635 12.4064 11.1635 12.3777C11.1635 12.3477 11.168 12.3347 11.1784 12.3347C11.1891 12.3347 11.1955 12.314 11.2009 12.2625C11.2051 12.2227 11.2149 12.1837 11.2228 12.1756C11.2335 12.1646 11.2371 12.1232 11.2371 12.0111C11.2371 11.885 11.2346 11.8612 11.2213 11.8612C11.2103 11.8612 11.2055 11.8498 11.2055 11.8235V11.7858H9.87047C8.74649 11.7858 8.53539 11.7835 8.53539 11.7711C8.53539 11.7615 8.51688 11.7538 8.48246 11.7492C8.4503 11.7448 8.43215 11.7376 8.43622 11.7309C8.43989 11.7248 8.43296 11.7172 8.42082 11.7139C8.40867 11.7107 8.39873 11.7013 8.39873 11.6931C8.39873 11.6849 8.38927 11.6782 8.37771 11.6782C8.36369 11.6782 8.35668 11.6711 8.35668 11.6567C8.35668 11.6448 8.34967 11.6352 8.34091 11.6352C8.33224 11.6352 8.32515 11.6279 8.32515 11.619C8.32515 11.6102 8.31826 11.6029 8.30985 11.6029C8.3007 11.6029 8.29179 11.5878 8.28766 11.5652C8.28371 11.5437 8.27452 11.5276 8.26616 11.5276C8.2552 11.5276 8.25156 11.5101 8.25156 11.4576C8.25156 11.4026 8.24818 11.3877 8.23579 11.3877C8.22189 11.3877 8.22002 11.2764 8.22002 10.4507C8.22002 9.82545 8.22364 9.50686 8.2309 9.49297C8.23841 9.47862 8.23841 9.47216 8.2309 9.47216C8.22444 9.47216 8.22002 9.44158 8.22002 9.39683C8.22002 9.33704 8.22328 9.3215 8.23579 9.3215C8.2483 9.3215 8.25156 9.30596 8.25156 9.24617C8.25156 9.18638 8.25482 9.17084 8.26733 9.17084C8.27824 9.17084 8.2831 9.15961 8.2831 9.13443C8.2831 9.10707 8.28832 9.09662 8.30412 9.09239C8.31811 9.08864 8.32515 9.07771 8.32515 9.05971C8.32515 9.0384 8.33184 9.03115 8.35668 9.02556C8.37403 9.02166 8.38822 9.01159 8.38822 9.00319C8.38822 8.99477 8.39768 8.9879 8.40924 8.9879C8.42081 8.9879 8.43027 8.98117 8.43027 8.97295C8.43027 8.96439 8.44599 8.95499 8.46706 8.95094C8.48909 8.94671 8.50386 8.93759 8.50386 8.92822C8.50386 8.91569 8.52268 8.91257 8.59847 8.91257C8.66855 8.91257 8.6924 8.90908 8.69045 8.89911C8.68837 8.88844 8.89934 8.8852 9.71278 8.88344C10.2765 8.88222 10.7531 8.87837 10.7719 8.87488C10.792 8.87117 10.8061 8.86207 10.8061 8.85289C10.8061 8.84429 10.8132 8.83724 10.8218 8.83724C10.8305 8.83724 10.8376 8.82997 10.8376 8.82109C10.8376 8.81213 10.847 8.80495 10.8586 8.80495C10.8726 8.80495 10.8797 8.79777 10.8797 8.78343C10.8797 8.77147 10.8867 8.76191 10.8954 8.76191C10.9041 8.76191 10.9112 8.75464 10.9112 8.74576C10.9112 8.73689 10.9183 8.72962 10.927 8.72962C10.9356 8.72962 10.9427 8.72191 10.9427 8.71247C10.9427 8.70304 10.9522 8.69279 10.9638 8.6897C10.9753 8.6866 10.9848 8.67737 10.9848 8.66918C10.9848 8.661 10.9919 8.65429 11.0005 8.65429C11.0092 8.65429 11.0163 8.64703 11.0163 8.63815C11.0163 8.62919 11.0257 8.62201 11.0373 8.62201C11.0514 8.62201 11.0584 8.61483 11.0584 8.60049C11.0584 8.58853 11.0654 8.57896 11.0741 8.57896C11.0828 8.57896 11.0899 8.5717 11.0899 8.56282C11.0899 8.55386 11.0992 8.54668 11.1109 8.54668C11.1249 8.54668 11.132 8.5395 11.132 8.52516C11.132 8.5132 11.139 8.50363 11.1477 8.50363C11.1564 8.50363 11.1635 8.49637 11.1635 8.48749C11.1635 8.47861 11.1706 8.47135 11.1793 8.47135C11.1879 8.47135 11.195 8.46363 11.195 8.4542C11.195 8.44477 11.2045 8.43451 11.2161 8.43143C11.2276 8.42833 11.2371 8.41909 11.2371 8.4109C11.2371 8.40272 11.2442 8.39602 11.2528 8.39602C11.2615 8.39602 11.2686 8.38932 11.2686 8.38114C11.2686 8.37295 11.2781 8.36372 11.2896 8.36062C11.3012 8.35753 11.3107 8.34727 11.3107 8.33784C11.3107 8.32841 11.3178 8.32069 11.3264 8.32069C11.3351 8.32069 11.3422 8.31343 11.3422 8.30455C11.3422 8.29558 11.3515 8.28841 11.3632 8.28841C11.3771 8.28841 11.3843 8.28123 11.3843 8.26722C11.3843 8.25281 11.3893 8.24802 11.4 8.25223C11.411 8.25653 11.4158 8.25148 11.4158 8.23575C11.4158 8.22026 11.4224 8.21308 11.4368 8.21308C11.4485 8.21308 11.4578 8.2059 11.4578 8.19694C11.4578 8.18806 11.4649 8.18079 11.4736 8.18079C11.4824 8.18079 11.4894 8.17123 11.4894 8.15927C11.4894 8.14731 11.4964 8.13775 11.5051 8.13775C11.5138 8.13775 11.5209 8.13104 11.5209 8.12287C11.5209 8.11468 11.5304 8.10544 11.5419 8.10234C11.5535 8.09925 11.563 8.089 11.563 8.07957C11.563 8.07013 11.5701 8.06242 11.5787 8.06242C11.5874 8.06242 11.5945 8.05515 11.5945 8.04628C11.5945 8.0374 11.6016 8.03013 11.6103 8.03013C11.6189 8.03013 11.626 8.02242 11.626 8.01298C11.626 8.00355 11.6355 7.9933 11.6471 7.99021C11.6586 7.98711 11.6681 7.97788 11.6681 7.96969C11.6681 7.96151 11.6752 7.95481 11.6839 7.95481C11.6925 7.95481 11.6996 7.94754 11.6996 7.93866C11.6996 7.9297 11.709 7.92252 11.7206 7.92252C11.7347 7.92252 11.7417 7.91534 11.7417 7.901C11.7417 7.88904 11.7487 7.87948 11.7574 7.87948C11.7661 7.87948 11.7732 7.87221 11.7732 7.86333C11.7732 7.85437 11.7826 7.84719 11.7942 7.84719C11.8082 7.84719 11.8153 7.84001 11.8153 7.82567C11.8153 7.81371 11.8223 7.80415 11.831 7.80415C11.8397 7.80415 11.8468 7.79688 11.8468 7.788C11.8468 7.77913 11.8533 7.77186 11.8613 7.77186C11.8749 7.77186 11.8884 7.7413 11.8887 7.70998C11.8888 7.69927 11.4856 7.69653 9.90726 7.69653C8.22702 7.69653 7.92567 7.69879 7.92567 7.71143Z" fill="#5A554F"/>
</g>
<circle cx="10.2776" cy="10.2781" r="8.61111" stroke="#5A554F" stroke-width="1.6"/>
<defs>
<filter id="filter0_d_317_63" x="3.49571" y="5.64111" width="14.2195" height="12.5633" filterUnits="userSpaceOnUse" color-interpolation-filters="sRGB">
<feFlood flood-opacity="0" result="BackgroundImageFix"/>
<feColorMatrix in="SourceAlpha" type="matrix" values="0 0 0 0 0 0 0 0 0 0 0 0 0 0 0 0 0 0 127 0" result="hardAlpha"/>
<feOffset dy="1.58974"/>
<feGaussianBlur stdDeviation="0.794872"/>
<feComposite in2="hardAlpha" operator="out"/>
<feColorMatrix type="matrix" values="0 0 0 0 0 0 0 0 0 0 0 0 0 0 0 0 0 0 0.25 0"/>
<feBlend mode="normal" in2="BackgroundImageFix" result="effect1_dropShadow_317_63"/>
<feBlend mode="normal" in="SourceGraphic" in2="effect1_dropShadow_317_63" result="shape"/>
</filter>
</defs>
</svg>
