<svg width="19" height="19" viewBox="0 0 19 19" fill="none" xmlns="http://www.w3.org/2000/svg">
<g filter="url(#filter0_d_204_63)">
<path fill-rule="evenodd" clip-rule="evenodd" d="M6.06754 5.01587C6.05748 5.02711 6.02874 5.03096 5.95494 5.03096C5.87697 5.03096 5.85584 5.03405 5.85584 5.04542C5.85584 5.05649 5.83357 5.06072 5.76083 5.06349C5.6837 5.06641 5.66389 5.07048 5.65556 5.08515C5.64796 5.09856 5.63195 5.10321 5.59346 5.10321C5.55436 5.10321 5.54161 5.10702 5.54161 5.11869C5.54161 5.12942 5.53068 5.13417 5.50607 5.13417C5.4835 5.13417 5.46824 5.14007 5.46425 5.15031C5.46079 5.15918 5.45354 5.16375 5.44814 5.16046C5.44273 5.15717 5.43536 5.1592 5.43174 5.16497C5.42812 5.17074 5.4113 5.17546 5.39435 5.17546C5.37395 5.17546 5.36355 5.18069 5.36355 5.19094C5.36355 5.20176 5.35249 5.20642 5.32689 5.20642C5.30259 5.20642 5.29023 5.21125 5.29023 5.22076C5.29023 5.22896 5.27457 5.23798 5.25357 5.24186C5.23162 5.24592 5.21691 5.25467 5.21691 5.26365C5.21691 5.27346 5.20599 5.27867 5.18548 5.27867C5.16453 5.27867 5.15406 5.28383 5.15406 5.29415C5.15406 5.30275 5.14475 5.30963 5.13311 5.30963C5.12159 5.30963 5.11216 5.31639 5.11216 5.32465C5.11216 5.33363 5.09745 5.34238 5.0755 5.34644C5.0545 5.35032 5.03884 5.35934 5.03884 5.36754C5.03884 5.37646 5.02742 5.38188 5.00864 5.38188C4.98724 5.38188 4.97684 5.3879 4.97296 5.40252C4.96995 5.41388 4.95997 5.42317 4.95079 5.42317C4.94161 5.42317 4.9341 5.43013 4.9341 5.43865C4.9341 5.44724 4.92479 5.45413 4.91315 5.45413C4.90163 5.45413 4.8922 5.46072 4.8922 5.46879C4.8922 5.47686 4.87806 5.48652 4.86078 5.49025C4.84349 5.49399 4.82935 5.50365 4.82935 5.51171C4.82935 5.51978 4.81993 5.52638 4.8084 5.52638C4.79677 5.52638 4.78746 5.53326 4.78746 5.54186C4.78746 5.55037 4.78093 5.55734 4.77297 5.55734C4.765 5.55734 4.75601 5.56663 4.75299 5.57798C4.74999 5.58933 4.74001 5.59862 4.73083 5.59862C4.72164 5.59862 4.71413 5.60559 4.71413 5.61411C4.71413 5.62262 4.70706 5.62959 4.69842 5.62959C4.68978 5.62959 4.68271 5.63699 4.68271 5.64604C4.68271 5.65508 4.67328 5.66492 4.66176 5.66788C4.65024 5.67085 4.64081 5.67971 4.64081 5.68756C4.64081 5.6954 4.63374 5.70183 4.6251 5.70183C4.61646 5.70183 4.60939 5.7088 4.60939 5.71732C4.60939 5.72583 4.60232 5.7328 4.59368 5.7328C4.58495 5.7328 4.57797 5.74197 4.57797 5.75344C4.57797 5.7672 4.57098 5.77408 4.55702 5.77408C4.54538 5.77408 4.53607 5.78097 4.53607 5.78956C4.53607 5.79808 4.529 5.80505 4.52036 5.80505C4.51163 5.80505 4.50465 5.81422 4.50465 5.82569C4.50465 5.83704 4.49795 5.84633 4.48976 5.84633C4.48158 5.84633 4.47178 5.86026 4.46799 5.87729C4.46419 5.89432 4.45439 5.90826 4.44621 5.90826C4.43802 5.90826 4.43133 5.91755 4.43133 5.9289C4.43133 5.94025 4.42446 5.94954 4.41609 5.94954C4.40697 5.94954 4.39809 5.96404 4.39397 5.98567C4.39004 6.00636 4.38088 6.02179 4.37255 6.02179C4.36337 6.02179 4.358 6.03321 4.358 6.05275C4.358 6.07339 4.35277 6.08372 4.34229 6.08372C4.33357 6.08372 4.32658 6.09289 4.32658 6.10436C4.32658 6.11812 4.3196 6.125 4.30563 6.125C4.28867 6.125 4.28468 6.13188 4.28468 6.16112C4.28468 6.18635 4.27995 6.19725 4.26897 6.19725C4.25847 6.19725 4.25326 6.2076 4.25326 6.22853C4.25326 6.24657 4.24672 6.26229 4.23783 6.26566C4.22935 6.26887 4.2194 6.2873 4.21572 6.30662C4.21193 6.32654 4.20274 6.34174 4.19449 6.34174C4.18484 6.34174 4.17994 6.35392 4.17994 6.37787C4.17994 6.40158 4.17501 6.41399 4.16558 6.41399C4.15626 6.41399 4.14878 6.43206 4.14429 6.46548C4.13996 6.49761 4.13255 6.51605 4.1246 6.51451C4.11584 6.51282 4.11089 6.5338 4.10876 6.58171C4.10655 6.63148 4.10166 6.65138 4.09165 6.65138C4.08208 6.65138 4.07525 6.67345 4.07009 6.72104C4.06594 6.75936 4.05719 6.79399 4.05063 6.79802C4.04392 6.80214 4.03706 6.84152 4.0349 6.88833C4.03203 6.95063 4.02743 6.97133 4.01648 6.97133C3.99446 6.97133 3.99453 12.0546 4.01655 12.063C4.02735 12.0671 4.03219 12.0947 4.03488 12.1677C4.0376 12.2416 4.04253 12.2693 4.05425 12.2766C4.06821 12.2853 4.06821 12.2864 4.05425 12.2869C4.04186 12.2872 4.04241 12.2895 4.05687 12.2978C4.07132 12.3061 4.0752 12.3224 4.0752 12.3749C4.0752 12.4272 4.07857 12.4415 4.09091 12.4415C4.10297 12.4415 4.10662 12.4547 4.10662 12.4983C4.10662 12.5413 4.11035 12.555 4.12197 12.555C4.13248 12.555 4.13951 12.5713 4.14426 12.6067C4.14878 12.6402 4.15626 12.6583 4.16558 12.6583C4.17583 12.6583 4.17994 12.673 4.17994 12.7099C4.17994 12.747 4.18401 12.7615 4.19449 12.7615C4.20282 12.7615 4.21197 12.7769 4.21591 12.7976C4.22003 12.8192 4.22891 12.8337 4.23802 12.8337C4.24845 12.8337 4.25326 12.8451 4.25326 12.8698C4.25326 12.8951 4.258 12.906 4.26897 12.906C4.27761 12.906 4.28468 12.9131 4.28468 12.9218C4.28468 12.9305 4.29147 12.9401 4.29976 12.9433C4.30804 12.9464 4.31785 12.9625 4.32153 12.9791C4.32523 12.9956 4.33494 13.0092 4.34312 13.0092C4.35131 13.0092 4.358 13.0185 4.358 13.0298C4.358 13.0412 4.3647 13.0505 4.37289 13.0505C4.38107 13.0505 4.39094 13.0647 4.39482 13.0821C4.3987 13.0995 4.4085 13.1163 4.4166 13.1194C4.4247 13.1224 4.43133 13.1309 4.43133 13.1382C4.43133 13.1455 4.43796 13.154 4.44605 13.157C4.45415 13.1601 4.46395 13.1768 4.46783 13.1943C4.47171 13.2117 4.48158 13.2259 4.48976 13.2259C4.49795 13.2259 4.50465 13.2329 4.50465 13.2414C4.50465 13.2499 4.51172 13.2569 4.52036 13.2569C4.529 13.2569 4.53607 13.2643 4.53607 13.2733C4.53607 13.2824 4.5455 13.2922 4.55702 13.2952C4.56854 13.2981 4.57797 13.307 4.57797 13.3149C4.57797 13.3227 4.58504 13.3291 4.59368 13.3291C4.60232 13.3291 4.60947 13.3349 4.60957 13.342C4.60979 13.3578 4.65501 13.4014 4.6711 13.4014C4.67748 13.4014 4.68271 13.4083 4.68271 13.4169C4.68271 13.4254 4.68978 13.4323 4.69842 13.4323C4.70706 13.4323 4.71413 13.4397 4.71413 13.4488C4.71413 13.4578 4.72356 13.4677 4.73508 13.4706C4.74661 13.4736 4.75603 13.4821 4.75603 13.4895C4.75603 13.4969 4.77017 13.506 4.78746 13.5097C4.80474 13.5135 4.81888 13.5231 4.81888 13.5312C4.81888 13.5393 4.82831 13.5459 4.83983 13.5459C4.85146 13.5459 4.86078 13.5528 4.86078 13.5614C4.86078 13.57 4.87009 13.5768 4.88172 13.5768C4.89325 13.5768 4.90267 13.5834 4.90267 13.5915C4.90267 13.5996 4.91681 13.6092 4.9341 13.613C4.95138 13.6167 4.96552 13.6264 4.96552 13.6344C4.96552 13.6443 4.97749 13.6491 5.00218 13.6491C5.02728 13.6491 5.03884 13.6538 5.03884 13.6641C5.03884 13.6731 5.05356 13.6818 5.0755 13.6859C5.0965 13.6898 5.11216 13.6988 5.11216 13.707C5.11216 13.7149 5.12159 13.7213 5.13311 13.7213C5.14475 13.7213 5.15406 13.7282 5.15406 13.7368C5.15406 13.7471 5.16447 13.7523 5.18496 13.7523C5.20217 13.7523 5.21995 13.7595 5.22509 13.7685C5.23016 13.7774 5.25395 13.7873 5.27797 13.7905C5.30509 13.7941 5.32165 13.8016 5.32165 13.8104C5.32165 13.82 5.33496 13.8245 5.3628 13.8245C5.38593 13.8245 5.41103 13.8315 5.42012 13.8405C5.42901 13.8492 5.45999 13.8592 5.48895 13.8626C5.52332 13.8666 5.54161 13.8736 5.54161 13.8827C5.54161 13.8929 5.55762 13.8968 5.59922 13.8968C5.64065 13.8968 5.65683 13.9007 5.65683 13.9107C5.65683 13.921 5.68225 13.9263 5.75299 13.9308C5.82431 13.9354 5.85151 13.9411 5.85825 13.953C5.86609 13.9668 5.9018 13.969 6.11299 13.969C6.32434 13.969 6.35862 13.9712 6.35862 13.9845C6.35862 13.9957 6.37025 14 6.40051 14C6.43077 14 6.44241 13.9957 6.44241 13.9845C6.44241 13.9708 6.66173 13.969 8.35347 13.969C10.0501 13.969 10.2655 13.9673 10.2734 13.9534C10.2797 13.9423 10.3076 13.9358 10.3682 13.9312C10.4301 13.9265 10.4541 13.9208 10.4541 13.9107C10.4541 13.9004 10.472 13.8968 10.5225 13.8968C10.5722 13.8968 10.5925 13.8927 10.5967 13.882C10.6004 13.8725 10.6263 13.8648 10.6697 13.8602C10.7165 13.8553 10.7369 13.8488 10.7369 13.8388C10.7369 13.8294 10.7494 13.8245 10.7736 13.8245C10.7992 13.8245 10.8102 13.8199 10.8102 13.8091C10.8102 13.7987 10.8207 13.7936 10.842 13.7936C10.8603 13.7936 10.8762 13.7871 10.8797 13.7784C10.8829 13.77 10.9016 13.7602 10.9212 13.7566C10.9415 13.7529 10.9569 13.7438 10.9569 13.7357C10.9569 13.7262 10.9692 13.7213 10.9935 13.7213C11.0186 13.7213 11.0302 13.7166 11.0302 13.7063C11.0302 13.6973 11.0449 13.6886 11.0669 13.6845C11.0879 13.6806 11.1035 13.6716 11.1035 13.6634C11.1035 13.6544 11.1151 13.6491 11.1349 13.6491C11.1555 13.6491 11.1664 13.6439 11.1664 13.6341C11.1664 13.6251 11.1811 13.6163 11.203 13.6123C11.224 13.6084 11.2397 13.5994 11.2397 13.5912C11.2397 13.5833 11.2491 13.5768 11.2606 13.5768C11.2723 13.5768 11.2816 13.57 11.2816 13.5614C11.2816 13.5528 11.2887 13.5459 11.2973 13.5459C11.3059 13.5459 11.313 13.5391 11.313 13.5309C11.313 13.5219 11.3277 13.5131 11.3497 13.5091C11.3707 13.5052 11.3863 13.4962 11.3863 13.488C11.3863 13.4801 11.3934 13.4736 11.402 13.4736C11.4107 13.4736 11.4178 13.4672 11.4178 13.4593C11.4178 13.4515 11.4272 13.4426 11.4387 13.4397C11.4502 13.4367 11.4597 13.4269 11.4597 13.4178C11.4597 13.4088 11.4667 13.4014 11.4754 13.4014C11.484 13.4014 11.4911 13.3944 11.4911 13.3859C11.4911 13.3774 11.4981 13.3704 11.5068 13.3704C11.5154 13.3704 11.5225 13.363 11.5225 13.354C11.5225 13.3449 11.5319 13.3351 11.5434 13.3321C11.555 13.3291 11.5644 13.3203 11.5644 13.3124C11.5644 13.3046 11.5715 13.2982 11.5801 13.2982C11.5887 13.2982 11.5958 13.2908 11.5958 13.2817C11.5958 13.2727 11.6052 13.2628 11.6168 13.2599C11.6283 13.2569 11.6377 13.248 11.6377 13.2402C11.6377 13.2323 11.6448 13.2259 11.6534 13.2259C11.6622 13.2259 11.6691 13.2167 11.6691 13.2053C11.6691 13.1938 11.6761 13.1846 11.6849 13.1846C11.6935 13.1846 11.7006 13.1776 11.7006 13.169C11.7006 13.1605 11.71 13.1455 11.7215 13.1358C11.733 13.1261 11.7425 13.1099 11.7425 13.0998C11.7425 13.0897 11.7495 13.0814 11.7582 13.0814C11.7668 13.0814 11.7739 13.0755 11.7739 13.0682C11.7739 13.061 11.7833 13.0471 11.7948 13.0374C11.8064 13.0276 11.8158 13.0104 11.8158 12.999C11.8158 12.9874 11.8227 12.9782 11.8315 12.9782C11.8425 12.9782 11.8472 12.9673 11.8472 12.9421C11.8472 12.9174 11.852 12.906 11.8624 12.906C11.8716 12.906 11.8804 12.8915 11.8846 12.8698C11.8885 12.8491 11.8976 12.8337 11.906 12.8337C11.9156 12.8337 11.9205 12.8215 11.9205 12.7976C11.9205 12.7739 11.9255 12.7615 11.9349 12.7615C11.9442 12.7615 11.9517 12.7434 11.9562 12.7099C11.961 12.6745 11.968 12.6583 11.9785 12.6583C11.9899 12.6583 11.9938 12.6451 11.9938 12.6067C11.9938 12.5677 11.9977 12.555 12.0096 12.555C12.0214 12.555 12.0253 12.5425 12.0253 12.504C12.0253 12.4683 12.0302 12.4501 12.0417 12.4438C12.0542 12.4369 12.0596 12.4104 12.0642 12.3349C12.0686 12.2618 12.074 12.2351 12.0842 12.2351C12.0956 12.2351 12.0986 12.0307 12.1009 11.0722C12.1032 10.1532 12.1066 9.9085 12.1169 9.9051C12.1269 9.90184 12.13 9.84639 12.13 9.6746C12.13 9.48041 12.1278 9.44839 12.1143 9.44839C12.1018 9.44839 12.0986 9.43349 12.0986 9.37615C12.0986 9.32138 12.0951 9.3039 12.084 9.3039C12.0757 9.3039 12.0666 9.28847 12.0626 9.26778C12.0585 9.24615 12.0496 9.23165 12.0405 9.23165C12.0306 9.23165 12.0253 9.2209 12.0253 9.20069C12.0253 9.18172 12.0203 9.17073 12.0124 9.17231C12.0054 9.17372 11.998 9.16443 11.996 9.15166C11.9937 9.13682 11.9851 9.12844 11.9722 9.12844C11.9589 9.12844 11.9519 9.12131 11.9519 9.1078C11.9519 9.09633 11.945 9.08716 11.9362 9.08716C11.9276 9.08716 11.9205 9.08019 11.9205 9.07167C11.9205 9.06308 11.9112 9.05619 11.8996 9.05619C11.8881 9.05619 11.8786 9.0496 11.8786 9.04153C11.8786 9.03347 11.8645 9.02381 11.8472 9.02007C11.8299 9.01633 11.8158 9.00667 11.8158 8.99861C11.8158 8.98873 11.8038 8.98394 11.7791 8.98394C11.7547 8.98394 11.7425 8.97912 11.7425 8.96954C11.7425 8.95582 11.6606 8.94891 11.3837 8.93923C11.3564 8.93828 11.3339 8.93286 11.3338 8.92718C11.3337 8.9215 11.3294 8.92338 11.3243 8.93135C11.3164 8.94365 11.1554 8.94567 10.2604 8.94471C9.47354 8.94387 9.20195 8.94052 9.19096 8.93153C9.18004 8.92261 9.17256 8.92248 9.16206 8.93108C9.15427 8.93745 9.11184 8.94567 9.06779 8.94934C9.01077 8.95409 8.98769 8.96003 8.98769 8.96998C8.98769 8.97766 8.97826 8.98394 8.96674 8.98394C8.95278 8.98394 8.94579 8.99083 8.94579 9.00459C8.94579 9.01605 8.93881 9.02523 8.93008 9.02523C8.92144 9.02523 8.91437 9.0322 8.91437 9.04071C8.91437 9.04931 8.90506 9.05619 8.89342 9.05619C8.87946 9.05619 8.87247 9.06308 8.87247 9.07683C8.87247 9.0883 8.86549 9.09748 8.85676 9.09748C8.84812 9.09748 8.84105 9.10444 8.84105 9.11296C8.84105 9.12147 8.83398 9.12844 8.82534 9.12844C8.8167 9.12844 8.80963 9.13584 8.80963 9.14489C8.80963 9.15393 8.8002 9.16377 8.78868 9.16673C8.77716 9.1697 8.76773 9.17856 8.76773 9.18641C8.76773 9.19426 8.76066 9.20069 8.75202 9.20069C8.74338 9.20069 8.73631 9.20712 8.73631 9.21496C8.73631 9.22282 8.72688 9.23167 8.71536 9.23464C8.70384 9.23761 8.69441 9.24744 8.69441 9.25648C8.69441 9.26554 8.68734 9.27294 8.6787 9.27294C8.67006 9.27294 8.66299 9.2799 8.66299 9.28842C8.66299 9.29701 8.65367 9.3039 8.64204 9.3039C8.62807 9.3039 8.62109 9.31078 8.62109 9.32454C8.62109 9.33601 8.6141 9.34518 8.60538 9.34518C8.59673 9.34518 8.58966 9.35215 8.58966 9.36067C8.58966 9.36926 8.58035 9.37615 8.56872 9.37615C8.55719 9.37615 8.54832 9.37962 8.549 9.38389C8.55242 9.40518 8.54623 9.41743 8.53206 9.41743C8.52341 9.41743 8.51634 9.4244 8.51634 9.43291C8.51634 9.44143 8.50927 9.44839 8.50063 9.44839C8.49199 9.44839 8.48492 9.45579 8.48492 9.46485C8.48492 9.47389 8.47555 9.4837 8.46409 9.48665C8.45263 9.48961 8.44604 9.49646 8.44943 9.50187C8.45283 9.50728 8.4457 9.51426 8.43361 9.51738C8.4215 9.5205 8.4116 9.52948 8.4116 9.53733C8.4116 9.54518 8.40453 9.55161 8.39589 9.55161C8.38725 9.55161 8.38018 9.55901 8.38018 9.56806C8.38018 9.5771 8.37075 9.58693 8.35923 9.5899C8.34771 9.59287 8.33828 9.60172 8.33828 9.60958C8.33828 9.61742 8.33121 9.62385 8.32257 9.62385C8.31393 9.62385 8.30686 9.63028 8.30686 9.63813C8.30686 9.64598 8.29743 9.65484 8.28591 9.65781C8.27438 9.66077 8.26496 9.67061 8.26496 9.67965C8.26496 9.6887 8.25789 9.6961 8.24925 9.6961C8.2406 9.6961 8.23353 9.70307 8.23353 9.71158C8.23353 9.72018 8.22422 9.72706 8.21259 9.72706C8.19862 9.72706 8.19164 9.73395 8.19164 9.74771C8.19164 9.75917 8.18465 9.76835 8.17593 9.76835C8.16728 9.76835 8.16021 9.77532 8.16021 9.78383C8.16021 9.79235 8.15314 9.79931 8.1445 9.79931C8.13586 9.79931 8.12879 9.80671 8.12879 9.81576C8.12879 9.8248 8.11936 9.83464 8.10784 9.8376C8.09632 9.84058 8.08689 9.84943 8.08689 9.85729C8.08689 9.86513 8.07982 9.87156 8.07118 9.87156C8.06254 9.87156 8.05547 9.87799 8.05547 9.88583C8.05547 9.89369 8.04604 9.90254 8.03452 9.90552C8.023 9.90848 8.01357 9.91831 8.01357 9.92736C8.01357 9.93641 8.0065 9.94381 7.99786 9.94381C7.98922 9.94381 7.98215 9.95077 7.98215 9.95929C7.98215 9.9678 7.97508 9.97477 7.96644 9.97477C7.9578 9.97477 7.95073 9.98217 7.95073 9.99122C7.95073 10.0003 7.9413 10.0101 7.92978 10.0131C7.91493 10.0169 7.90883 10.0271 7.90883 10.0482C7.90883 10.078 7.90886 10.078 7.97691 10.078C8.03045 10.078 8.045 10.0747 8.045 10.0625C8.045 10.0529 8.05485 10.047 8.07086 10.047C8.08953 10.047 8.09503 10.0513 8.09068 10.0625C8.08534 10.0762 8.23576 10.078 9.40587 10.078C10.5706 10.078 10.7278 10.0761 10.7331 10.0625C10.7409 10.0426 10.7683 10.0423 10.7683 10.0622C10.7683 10.0729 10.7792 10.0769 10.8055 10.076C10.83 10.0751 10.8409 10.0703 10.8377 10.062C10.8345 10.0538 10.8398 10.0512 10.8529 10.0546C10.864 10.0574 10.8731 10.0639 10.8731 10.0689C10.8731 10.0739 10.8825 10.078 10.894 10.078C10.9057 10.078 10.915 10.0711 10.915 10.0625C10.915 10.0382 10.9433 10.0444 10.9503 10.0702C10.9588 10.1016 10.9587 11.6333 10.9501 11.733C10.9453 11.7892 10.9393 11.8119 10.9292 11.8119C10.9186 11.8119 10.915 11.8303 10.915 11.8842C10.915 11.9415 10.9117 11.9564 10.8993 11.9564C10.8874 11.9564 10.8836 11.969 10.8836 12.008C10.8836 12.0463 10.8796 12.0596 10.8683 12.0596C10.8592 12.0596 10.8503 12.0741 10.8462 12.0958C10.8423 12.1165 10.8331 12.1319 10.8248 12.1319C10.8151 12.1319 10.8102 12.1441 10.8102 12.168C10.8102 12.1927 10.8054 12.2041 10.795 12.2041C10.7859 12.2041 10.777 12.2186 10.7729 12.2403C10.7689 12.2609 10.7598 12.2764 10.7515 12.2764C10.7423 12.2764 10.7369 12.2878 10.7369 12.3073C10.7369 12.3288 10.7318 12.3383 10.7202 12.3383C10.711 12.3383 10.7011 12.3476 10.6981 12.3589C10.695 12.3703 10.6861 12.3796 10.6781 12.3796C10.6701 12.3796 10.6636 12.3866 10.6636 12.3951C10.6636 12.4036 10.6565 12.4106 10.6479 12.4106C10.6392 12.4106 10.6322 12.4197 10.6322 12.4312C10.6322 12.445 10.6252 12.4518 10.6112 12.4518C10.5996 12.4518 10.5903 12.4587 10.5903 12.4673C10.5903 12.4758 10.5832 12.4828 10.5746 12.4828C10.5659 12.4828 10.5589 12.4892 10.5589 12.4971C10.5589 12.5049 10.5494 12.5138 10.5379 12.5168C10.5264 12.5197 10.517 12.5296 10.517 12.5386C10.517 12.55 10.5073 12.555 10.4855 12.555C10.4638 12.555 10.4541 12.5601 10.4541 12.5715C10.4541 12.5805 10.4447 12.5904 10.4332 12.5933C10.4216 12.5963 10.4122 12.6052 10.4122 12.613C10.4122 12.6209 10.4051 12.6273 10.3965 12.6273C10.3879 12.6273 10.3808 12.6343 10.3808 12.6428C10.3808 12.6536 10.3697 12.6583 10.3441 12.6583C10.319 12.6583 10.3075 12.663 10.3075 12.6733C10.3075 12.6823 10.2928 12.691 10.2708 12.6951C10.2498 12.6989 10.2341 12.708 10.2341 12.7162C10.2341 12.7257 10.2218 12.7305 10.1975 12.7305C10.1719 12.7305 10.1608 12.7352 10.1608 12.746C10.1608 12.7562 10.1504 12.7615 10.1299 12.7615C10.1119 12.7615 10.0949 12.7687 10.0892 12.7788C10.0822 12.7911 10.0609 12.7974 10.0153 12.8007C9.9742 12.8036 9.95134 12.8098 9.95134 12.8179C9.95134 12.8268 9.9159 12.8327 9.83369 12.8376C9.76899 12.8415 9.71148 12.8492 9.7059 12.8547C9.6927 12.8677 6.44599 12.8684 6.43783 12.8554C6.43464 12.8503 6.36867 12.8428 6.29122 12.8387C6.18639 12.8332 6.149 12.8276 6.14487 12.817C6.14099 12.8071 6.12025 12.8028 6.07613 12.8028C6.02871 12.8028 6.01296 12.7991 6.01296 12.7882C6.01296 12.7792 5.99682 12.7709 5.97106 12.7666C5.94531 12.7623 5.92917 12.754 5.92917 12.7451C5.92917 12.7358 5.91782 12.7305 5.89774 12.7305C5.87791 12.7305 5.86632 12.7252 5.86632 12.7162C5.86632 12.708 5.85066 12.6989 5.82966 12.6951C5.80771 12.691 5.793 12.6823 5.793 12.6733C5.793 12.6634 5.78205 12.6583 5.76125 12.6583C5.74269 12.6583 5.72699 12.6518 5.72347 12.6428C5.72015 12.6343 5.71087 12.6273 5.70285 12.6273C5.69482 12.6273 5.68825 12.6199 5.68825 12.6108C5.68825 12.6018 5.67883 12.592 5.66731 12.589C5.65578 12.586 5.64636 12.5772 5.64636 12.5693C5.64636 12.5615 5.63914 12.555 5.63032 12.555C5.62149 12.555 5.61156 12.5481 5.60825 12.5396C5.60493 12.531 5.59565 12.5241 5.58763 12.5241C5.5796 12.5241 5.57304 12.5171 5.57304 12.5086C5.57304 12.5001 5.56597 12.4931 5.55732 12.4931C5.5486 12.4931 5.54161 12.4839 5.54161 12.4725C5.54161 12.4605 5.53463 12.4518 5.52492 12.4518C5.51574 12.4518 5.50576 12.4425 5.50275 12.4312C5.49974 12.4198 5.49075 12.4106 5.48278 12.4106C5.47482 12.4106 5.46829 12.4036 5.46829 12.3951C5.46829 12.3866 5.46122 12.3796 5.45258 12.3796C5.44385 12.3796 5.43687 12.3704 5.43687 12.3589C5.43687 12.3476 5.43018 12.3383 5.42198 12.3383C5.4138 12.3383 5.404 12.3244 5.40021 12.3073C5.39642 12.2903 5.38661 12.2764 5.37843 12.2764C5.37024 12.2764 5.36355 12.2671 5.36355 12.2557C5.36355 12.2444 5.35669 12.2351 5.34831 12.2351C5.33919 12.2351 5.33031 12.2206 5.3262 12.199C5.32226 12.1783 5.3131 12.1628 5.30478 12.1628C5.29513 12.1628 5.29023 12.1507 5.29023 12.1267C5.29023 12.1015 5.28549 12.0906 5.27452 12.0906C5.2641 12.0906 5.2588 12.0803 5.2588 12.0601C5.2588 12.0424 5.25148 12.0257 5.24123 12.02C5.22871 12.0131 5.22231 11.9921 5.21902 11.9472C5.21597 11.9057 5.20987 11.8842 5.20115 11.8842C5.19164 11.8842 5.18672 11.8546 5.18364 11.7791C5.1808 11.7095 5.17509 11.6726 5.1667 11.6699C5.14826 11.6638 5.14826 7.4394 5.1667 7.43334C5.17509 7.43059 5.1808 7.39375 5.18364 7.32412C5.18692 7.24355 5.1913 7.21904 5.20241 7.21904C5.21326 7.21904 5.21691 7.20228 5.21691 7.15247C5.21691 7.10207 5.22099 7.08363 5.23373 7.07662C5.24385 7.07103 5.25273 7.04821 5.25604 7.01933C5.2596 6.98821 5.26658 6.97133 5.27588 6.97133C5.28529 6.97133 5.29023 6.95891 5.29023 6.93521C5.29023 6.91088 5.29509 6.89908 5.30511 6.89908C5.31329 6.89908 5.3231 6.88515 5.32689 6.86812C5.33068 6.85109 5.34048 6.83716 5.34866 6.83716C5.35685 6.83716 5.36355 6.82787 5.36355 6.81651C5.36355 6.80516 5.37009 6.79587 5.3781 6.79587C5.38642 6.79587 5.39558 6.78044 5.39952 6.75975C5.40363 6.73813 5.41252 6.72362 5.42163 6.72362C5.43001 6.72362 5.43687 6.71666 5.43687 6.70814C5.43687 6.69963 5.44394 6.69266 5.45258 6.69266C5.46131 6.69266 5.46829 6.68349 5.46829 6.67202C5.46829 6.66055 5.47528 6.65138 5.484 6.65138C5.49264 6.65138 5.49971 6.64441 5.49971 6.63589C5.49971 6.6273 5.50903 6.62041 5.52066 6.62041C5.53463 6.62041 5.54161 6.61353 5.54161 6.59977C5.54161 6.5883 5.5486 6.57913 5.55732 6.57913C5.56597 6.57913 5.57304 6.57216 5.57304 6.56365C5.57304 6.55505 5.58235 6.54817 5.59398 6.54817C5.60562 6.54817 5.61493 6.54128 5.61493 6.53268C5.61493 6.52417 5.622 6.5172 5.63064 6.5172C5.63937 6.5172 5.64636 6.50803 5.64636 6.49656C5.64636 6.4828 5.65334 6.47592 5.66731 6.47592C5.67894 6.47592 5.68825 6.46903 5.68825 6.46044C5.68825 6.45025 5.69859 6.44495 5.71845 6.44495C5.73985 6.44495 5.75025 6.43894 5.75414 6.42431C5.75714 6.41296 5.76713 6.40367 5.7763 6.40367C5.78549 6.40367 5.793 6.3967 5.793 6.38819C5.793 6.37737 5.80406 6.37271 5.82966 6.37271C5.85435 6.37271 5.86632 6.36792 5.86632 6.35804C5.86632 6.34998 5.88006 6.34041 5.89686 6.33677C5.91367 6.33314 5.93001 6.32348 5.9332 6.31531C5.93647 6.30691 5.95277 6.30046 5.97074 6.30046C5.99198 6.30046 6.00249 6.29533 6.00249 6.28498C6.00249 6.2742 6.01348 6.2695 6.03862 6.2695C6.06156 6.2695 6.07836 6.26317 6.08461 6.25218C6.09161 6.23984 6.11288 6.23354 6.15844 6.2303C6.20058 6.22729 6.22245 6.22127 6.22245 6.21269C6.22245 6.20395 6.24512 6.19823 6.29124 6.19534C6.33616 6.19252 6.36331 6.18583 6.36943 6.17607C6.37756 6.1631 6.72746 6.16075 9.01873 6.15835C11.342 6.1559 11.6587 6.15373 11.6587 6.14029C11.6587 6.13086 11.6687 6.125 11.6849 6.125C11.7011 6.125 11.711 6.11915 11.711 6.10952C11.711 6.101 11.7181 6.09404 11.7267 6.09404C11.7355 6.09404 11.7425 6.08486 11.7425 6.07339C11.7425 6.06193 11.7494 6.05275 11.7582 6.05275C11.7668 6.05275 11.7739 6.04579 11.7739 6.03727C11.7739 6.02867 11.7832 6.02179 11.7948 6.02179C11.8088 6.02179 11.8158 6.0149 11.8158 6.00115C11.8158 5.98968 11.8228 5.9805 11.8315 5.9805C11.8401 5.9805 11.8472 5.97354 11.8472 5.96502C11.8472 5.95651 11.8543 5.94954 11.8629 5.94954C11.8716 5.94954 11.8786 5.94214 11.8786 5.93309C11.8786 5.92405 11.8881 5.91421 11.8996 5.91125C11.9111 5.90828 11.9205 5.89942 11.9205 5.89157C11.9205 5.88372 11.9276 5.87729 11.9362 5.87729C11.9449 5.87729 11.9519 5.87086 11.9519 5.86302C11.9519 5.85517 11.9614 5.84631 11.9729 5.84334C11.9844 5.84038 11.9938 5.83054 11.9938 5.8215C11.9938 5.81245 12.0009 5.80505 12.0096 5.80505C12.0182 5.80505 12.0253 5.79862 12.0253 5.79077C12.0253 5.78292 12.0347 5.77406 12.0462 5.77109C12.0577 5.76813 12.0672 5.75829 12.0672 5.74925C12.0672 5.7402 12.0742 5.7328 12.0829 5.7328C12.0915 5.7328 12.0986 5.72583 12.0986 5.71732C12.0986 5.70872 12.1079 5.70183 12.1195 5.70183C12.1312 5.70183 12.1405 5.69495 12.1405 5.68635C12.1405 5.67784 12.1476 5.67087 12.1562 5.67087C12.1649 5.67087 12.1719 5.6617 12.1719 5.65023C12.1719 5.63876 12.1789 5.62959 12.1876 5.62959C12.1963 5.62959 12.2033 5.62262 12.2033 5.61411C12.2033 5.60551 12.2126 5.59862 12.2243 5.59862C12.2382 5.59862 12.2452 5.59174 12.2452 5.57798C12.2452 5.56651 12.2522 5.55734 12.2609 5.55734C12.2696 5.55734 12.2767 5.55091 12.2767 5.54307C12.2767 5.53521 12.2861 5.52636 12.2976 5.52338C12.3091 5.52042 12.3186 5.51058 12.3186 5.50154C12.3186 5.49249 12.3256 5.48509 12.3343 5.48509C12.3429 5.48509 12.35 5.47813 12.35 5.46961C12.35 5.4611 12.357 5.45413 12.3657 5.45413C12.3743 5.45413 12.3814 5.44673 12.3814 5.43768C12.3814 5.42864 12.3908 5.4188 12.4023 5.41584C12.4139 5.41286 12.4233 5.40401 12.4233 5.39615C12.4233 5.38831 12.4304 5.38188 12.439 5.38188C12.4477 5.38188 12.4547 5.37491 12.4547 5.3664C12.4547 5.3578 12.464 5.35092 12.4757 5.35092C12.4896 5.35092 12.4966 5.34403 12.4966 5.33028C12.4966 5.31881 12.5036 5.30963 12.5123 5.30963C12.521 5.30963 12.528 5.3032 12.528 5.29536C12.528 5.2875 12.5375 5.27865 12.549 5.27568C12.5605 5.27271 12.5699 5.26288 12.5699 5.25384C12.5699 5.24479 12.577 5.23739 12.5857 5.23739C12.5943 5.23739 12.6014 5.23042 12.6014 5.2219C12.6014 5.21339 12.6084 5.20642 12.6171 5.20642C12.6257 5.20642 12.6328 5.19902 12.6328 5.18997C12.6328 5.18093 12.6422 5.17109 12.6537 5.16813C12.6653 5.16516 12.6747 5.1563 12.6747 5.14845C12.6747 5.1406 12.6818 5.13417 12.6904 5.13417C12.699 5.13417 12.7061 5.12774 12.7061 5.1199C12.7061 5.11205 12.7155 5.10319 12.7271 5.10022C12.7386 5.09726 12.748 5.08742 12.748 5.07838C12.748 5.06933 12.7551 5.06193 12.7637 5.06193C12.7742 5.06193 12.7794 5.05161 12.7794 5.03096V5L9.43024 5.00039C6.50539 5.00073 6.07934 5.00269 6.06754 5.01587ZM12.8946 6.03727C12.8946 6.04587 12.8853 6.05275 12.8737 6.05275C12.8619 6.05275 12.8527 6.05964 12.8527 6.06855C12.8527 6.07725 12.8457 6.08704 12.837 6.0903C12.8284 6.09357 12.8213 6.10272 12.8213 6.11062C12.8213 6.11853 12.8119 6.125 12.8004 6.125C12.7889 6.125 12.7794 6.13143 12.7794 6.13927C12.7794 6.14713 12.77 6.15598 12.7585 6.15896C12.747 6.16192 12.7375 6.17175 12.7375 6.1808C12.7375 6.18985 12.7305 6.19725 12.7218 6.19725C12.7132 6.19725 12.7061 6.20421 12.7061 6.21273C12.7061 6.22124 12.699 6.22821 12.6904 6.22821C12.6818 6.22821 12.6747 6.23464 12.6747 6.24248C12.6747 6.25034 12.6653 6.25919 12.6537 6.26217C12.6422 6.26513 12.6328 6.27497 12.6328 6.28401C12.6328 6.29306 12.6257 6.30046 12.6171 6.30046C12.6084 6.30046 12.6014 6.30689 12.6014 6.31473C12.6014 6.32259 12.5919 6.33144 12.5804 6.33441C12.5689 6.33738 12.5595 6.34721 12.5595 6.35625C12.5595 6.36531 12.5524 6.37271 12.5438 6.37271C12.5351 6.37271 12.528 6.37967 12.528 6.38819C12.528 6.3967 12.5215 6.40367 12.5136 6.40367C12.5056 6.40367 12.4966 6.41296 12.4936 6.42431C12.4906 6.43567 12.4806 6.44495 12.4714 6.44495C12.4622 6.44495 12.4547 6.45192 12.4547 6.46044C12.4547 6.46895 12.4477 6.47592 12.439 6.47592C12.4304 6.47592 12.4233 6.48235 12.4233 6.49019C12.4233 6.49805 12.4139 6.5069 12.4023 6.50987C12.3908 6.51284 12.3814 6.52267 12.3814 6.53171C12.3814 6.54076 12.3743 6.54817 12.3657 6.54817C12.357 6.54817 12.35 6.5546 12.35 6.56244C12.35 6.57029 12.3405 6.57915 12.329 6.58212C12.3175 6.58508 12.3081 6.59492 12.3081 6.60396C12.3081 6.61301 12.301 6.62041 12.2924 6.62041C12.2837 6.62041 12.2767 6.62738 12.2767 6.63589C12.2767 6.64441 12.2696 6.65138 12.2609 6.65138C12.2523 6.65138 12.2452 6.65878 12.2452 6.66783C12.2452 6.67687 12.2358 6.68671 12.2243 6.68967C12.2128 6.69264 12.2033 6.7015 12.2033 6.70935C12.2033 6.71719 12.1963 6.72362 12.1876 6.72362C12.179 6.72362 12.1719 6.73005 12.1719 6.7379C12.1719 6.74575 12.1625 6.75461 12.151 6.75758C12.1394 6.76054 12.13 6.77038 12.13 6.77942C12.13 6.78847 12.1229 6.79587 12.1143 6.79587C12.1057 6.79587 12.0986 6.8023 12.0986 6.81015C12.0986 6.818 12.0892 6.82686 12.0776 6.82983C12.0661 6.83279 12.0567 6.84263 12.0567 6.85167C12.0567 6.86072 12.0496 6.86812 12.041 6.86812C12.0323 6.86812 12.0253 6.87509 12.0253 6.8836C12.0253 6.89212 12.0182 6.89908 12.0096 6.89908C12.0009 6.89908 11.9938 6.90551 11.9938 6.91336C11.9938 6.92121 11.9844 6.93007 11.9729 6.93304C11.9614 6.936 11.9519 6.94584 11.9519 6.95488C11.9519 6.96393 11.9449 6.97133 11.9362 6.97133C11.9276 6.97133 11.9205 6.97776 11.9205 6.9856C11.9205 6.99346 11.9111 7.00231 11.8996 7.00529C11.8881 7.00825 11.8786 7.01808 11.8786 7.02713C11.8786 7.03618 11.8716 7.04358 11.8629 7.04358C11.8543 7.04358 11.8472 7.05054 11.8472 7.05906C11.8472 7.06757 11.8407 7.07454 11.8327 7.07454C11.8247 7.07454 11.8158 7.08383 11.8127 7.09518C11.8097 7.10654 11.7995 7.11583 11.7899 7.11583C11.7766 7.11583 11.7733 7.12372 11.7758 7.14937L11.7791 7.18291L12.7087 7.18554C13.5254 7.18787 13.6383 7.19005 13.6383 7.20361C13.6383 7.21436 13.6494 7.21904 13.675 7.21904C13.7006 7.21904 13.7116 7.2237 13.7116 7.23452C13.7116 7.24303 13.7187 7.25 13.7274 7.25C13.7361 7.25 13.7431 7.25918 13.7431 7.27064C13.7431 7.2844 13.7501 7.29128 13.764 7.29128C13.7822 7.29128 13.785 7.29817 13.785 7.34289C13.785 7.38188 13.7888 7.3945 13.8007 7.3945C13.8145 7.3945 13.8164 7.50172 13.8164 8.29759C13.8164 9.01327 13.8191 9.20066 13.8295 9.20054C13.86 9.20022 13.8897 9.18695 13.8897 9.17368C13.8897 9.16583 13.8968 9.1594 13.9054 9.1594C13.9141 9.1594 13.9211 9.15244 13.9211 9.14392C13.9211 9.13532 13.9304 9.12844 13.9421 9.12844C13.956 9.12844 13.963 9.12156 13.963 9.1078C13.963 9.09633 13.97 9.08716 13.9787 9.08716C13.9874 9.08716 13.9945 9.08019 13.9945 9.07167C13.9945 9.06308 14.0038 9.05619 14.0154 9.05619C14.0294 9.05619 14.0364 9.04931 14.0364 9.03555C14.0364 9.02408 14.0433 9.01491 14.0521 9.01491C14.0607 9.01491 14.0678 9.00794 14.0678 8.99943C14.0678 8.99091 14.0748 8.98394 14.0835 8.98394C14.0921 8.98394 14.0992 8.97698 14.0992 8.96846C14.0992 8.95987 14.1085 8.95298 14.1202 8.95298C14.1341 8.95298 14.1411 8.9461 14.1411 8.93234C14.1411 8.92087 14.1481 8.9117 14.1568 8.9117C14.1655 8.9117 14.1725 8.90473 14.1725 8.89622C14.1725 8.88762 14.1818 8.88073 14.1935 8.88073C14.2074 8.88073 14.2144 8.87385 14.2144 8.86009C14.2144 8.84863 14.2214 8.83945 14.2301 8.83945C14.2388 8.83945 14.2458 8.83302 14.2458 8.82518C14.2458 8.81732 14.2557 8.80834 14.2679 8.80522C14.2808 8.80187 14.2868 8.79476 14.2825 8.78784C14.2782 8.78093 14.2842 8.77382 14.2972 8.77046C14.3093 8.76735 14.3192 8.75837 14.3192 8.75051C14.3192 8.74267 14.3262 8.73624 14.3349 8.73624C14.3435 8.73624 14.3506 8.72927 14.3506 8.72076C14.3506 8.71216 14.3599 8.70528 14.3715 8.70528C14.3855 8.70528 14.3925 8.69839 14.3925 8.68463C14.3925 8.67317 14.3995 8.66399 14.4082 8.66399C14.4168 8.66399 14.4239 8.65702 14.4239 8.64851C14.4239 8.63991 14.4332 8.63303 14.4449 8.63303C14.4588 8.63303 14.4658 8.62614 14.4658 8.61239C14.4658 8.60092 14.4728 8.59174 14.4815 8.59174C14.4902 8.59174 14.4972 8.58531 14.4972 8.57747C14.4972 8.56961 14.5067 8.56076 14.5182 8.55779C14.5297 8.55482 14.5391 8.54499 14.5391 8.53595C14.5391 8.5269 14.5462 8.5195 14.5548 8.5195C14.5635 8.5195 14.5706 8.51253 14.5706 8.50401C14.5706 8.4955 14.5776 8.48853 14.5863 8.48853C14.5949 8.48853 14.602 8.48157 14.602 8.47305C14.602 8.46445 14.6113 8.45757 14.6229 8.45757C14.6369 8.45757 14.6439 8.45068 14.6439 8.43693C14.6439 8.42546 14.6509 8.41628 14.6596 8.41628C14.6682 8.41628 14.6753 8.40932 14.6753 8.4008C14.6753 8.39221 14.6846 8.38532 14.6962 8.38532C14.7102 8.38532 14.7172 8.37844 14.7172 8.36468C14.7172 8.35321 14.7242 8.34404 14.7329 8.34404C14.7415 8.34404 14.7486 8.33707 14.7486 8.32855C14.7486 8.32004 14.7557 8.31307 14.7643 8.31307C14.773 8.31307 14.78 8.30611 14.78 8.29759C14.78 8.28899 14.7893 8.28211 14.801 8.28211C14.8149 8.28211 14.8219 8.27523 14.8219 8.26147C14.8219 8.25 14.8289 8.24083 14.8376 8.24083C14.8463 8.24083 14.8534 8.23386 14.8534 8.22534C14.8534 8.21675 14.8627 8.20986 14.8743 8.20986C14.8883 8.20986 14.8953 8.20298 14.8953 8.18922C14.8953 8.17775 14.9022 8.16858 14.911 8.16858C14.9196 8.16858 14.9267 8.16161 14.9267 8.1531C14.9267 8.14458 14.9332 8.13761 14.9413 8.13761C14.9573 8.13761 14.9686 8.11593 14.9686 8.08516C14.9686 8.07427 14.9756 8.06537 14.9843 8.06537C14.9981 8.06537 15 7.9719 15 7.28612C15 6.60035 14.9981 6.50688 14.9843 6.50688C14.9728 6.50688 14.9685 6.49506 14.9684 6.46302C14.9682 6.40422 14.9587 6.37271 14.9412 6.37271C14.9316 6.37271 14.9267 6.36046 14.9267 6.33658C14.9267 6.31136 14.9219 6.30046 14.911 6.30046C14.9022 6.30046 14.8953 6.29128 14.8953 6.27982C14.8953 6.26846 14.8886 6.25917 14.8804 6.25917C14.8722 6.25917 14.8624 6.24524 14.8586 6.22821C14.8548 6.21118 14.845 6.19725 14.8368 6.19725C14.8286 6.19725 14.8219 6.19028 14.8219 6.18177C14.8219 6.17325 14.8144 6.16628 14.8052 6.16628C14.7961 6.16628 14.7861 6.157 14.7831 6.14564C14.7792 6.13102 14.7688 6.125 14.7474 6.125C14.7286 6.125 14.7172 6.11958 14.7172 6.11066C14.7172 6.10246 14.7015 6.09344 14.6805 6.08956C14.6586 6.0855 14.6439 6.07675 14.6439 6.06777C14.6439 6.05645 14.6297 6.05275 14.5863 6.05275C14.542 6.05275 14.5287 6.04916 14.5287 6.03727C14.5287 6.02364 14.4309 6.02179 13.7116 6.02179C12.9924 6.02179 12.8946 6.02364 12.8946 6.03727ZM6.82996 6.98561C6.82996 6.99556 6.80935 7.00207 6.76188 7.00707C6.71346 7.01218 6.6938 7.01849 6.6938 7.02892C6.6938 7.03879 6.68182 7.04358 6.65714 7.04358C6.63284 7.04358 6.62048 7.04841 6.62048 7.05791C6.62048 7.06612 6.60482 7.07514 6.58382 7.07902C6.56187 7.08308 6.54716 7.09183 6.54716 7.10081C6.54716 7.11109 6.53559 7.11583 6.5105 7.11583C6.4849 7.11583 6.47383 7.12049 6.47383 7.13131C6.47383 7.13982 6.46662 7.14679 6.4578 7.14679C6.44897 7.14679 6.43915 7.15348 6.43597 7.16164C6.43279 7.16981 6.41645 7.17947 6.39963 7.1831C6.38283 7.18674 6.36909 7.19631 6.36909 7.20437C6.36909 7.21244 6.36158 7.21904 6.35239 7.21904C6.34322 7.21904 6.33324 7.22833 6.33023 7.23968C6.32721 7.25103 6.31823 7.26032 6.31026 7.26032C6.3023 7.26032 6.29577 7.26729 6.29577 7.2758C6.29577 7.28432 6.28924 7.29128 6.28128 7.29128C6.27331 7.29128 6.26433 7.30057 6.26131 7.31193C6.2583 7.32328 6.24832 7.33257 6.23915 7.33257C6.22758 7.33257 6.22245 7.34208 6.22245 7.36353C6.22245 7.38498 6.21732 7.3945 6.20575 7.3945C6.19658 7.3945 6.18659 7.40378 6.18359 7.41514C6.18057 7.42649 6.1719 7.43578 6.16432 7.43578C6.15672 7.43578 6.14902 7.44855 6.1472 7.46416C6.14534 7.48013 6.13816 7.49142 6.1308 7.48997C6.12312 7.48845 6.1177 7.49805 6.1177 7.51319C6.1177 7.52828 6.11169 7.53899 6.10322 7.53899C6.08734 7.53899 6.07617 7.56962 6.07595 7.61382C6.07586 7.6309 6.0701 7.6422 6.06146 7.6422C6.05217 7.6422 6.04518 7.65902 6.04165 7.68993C6.03864 7.71617 6.02996 7.74144 6.02236 7.74607C6.01287 7.75184 6.00718 7.78719 6.00428 7.85833C6.00104 7.93785 5.99665 7.96216 5.98556 7.96216C5.97328 7.96216 5.97106 8.19965 5.97106 9.51548C5.97106 10.8893 5.97288 11.0688 5.98677 11.0688C5.99879 11.0688 6.00249 11.0818 6.00249 11.1241C6.00249 11.2121 6.01402 11.2752 6.0301 11.2752C6.03979 11.2752 6.04438 11.2885 6.04438 11.3165C6.04438 11.3463 6.04875 11.3578 6.0601 11.3578C6.0706 11.3578 6.07581 11.3682 6.07581 11.3891C6.07581 11.4068 6.08235 11.4229 6.09088 11.4261C6.09917 11.4292 6.10897 11.4453 6.11266 11.4619C6.11635 11.4784 6.12606 11.492 6.13424 11.492C6.14243 11.492 6.14913 11.5009 6.14913 11.5118C6.14913 11.5425 6.16042 11.5642 6.17643 11.5642C6.18446 11.5642 6.19103 11.574 6.19103 11.586C6.19103 11.6011 6.19583 11.6059 6.20674 11.6018C6.21742 11.5977 6.22245 11.6023 6.22245 11.6161C6.22245 11.6273 6.22914 11.6365 6.23733 11.6365C6.24551 11.6365 6.25532 11.6504 6.25911 11.6674C6.2629 11.6845 6.27271 11.6984 6.28089 11.6984C6.28908 11.6984 6.29577 11.7059 6.29577 11.715C6.29577 11.7254 6.30154 11.7294 6.31136 11.7257C6.31992 11.7224 6.32625 11.7231 6.3254 11.7271C6.32211 11.7429 6.34064 11.7706 6.3545 11.7706C6.36252 11.7706 6.36909 11.7799 6.36909 11.7913C6.36909 11.808 6.37608 11.8119 6.40575 11.8119C6.43135 11.8119 6.44241 11.8166 6.44241 11.8274C6.44241 11.8359 6.44948 11.8429 6.45812 11.8429C6.46676 11.8429 6.47383 11.8496 6.47383 11.8579C6.47383 11.8669 6.48855 11.8756 6.5105 11.8797C6.5315 11.8836 6.54716 11.8926 6.54716 11.9008C6.54716 11.9098 6.55868 11.9151 6.57806 11.9151C6.59554 11.9151 6.61305 11.9223 6.61837 11.9317C6.62404 11.9417 6.6472 11.9504 6.6765 11.9537C6.70537 11.9569 6.72522 11.9643 6.72522 11.9719C6.72522 11.9807 6.75236 11.9863 6.8111 11.9896C6.86258 11.9926 6.89858 11.9993 6.901 12.0064C6.90706 12.0243 9.267 12.0235 9.27307 12.0056C9.27586 11.9973 9.30735 11.9915 9.36297 11.989C9.42329 11.9863 9.44857 11.9813 9.44857 11.972C9.44857 11.9633 9.47013 11.9574 9.51258 11.9543C9.55814 11.9511 9.5794 11.9448 9.58641 11.9325C9.59215 11.9224 9.60912 11.9151 9.62715 11.9151C9.64764 11.9151 9.65805 11.9099 9.65805 11.8997C9.65805 11.8911 9.66737 11.8842 9.679 11.8842C9.69052 11.8842 9.69995 11.8774 9.69995 11.8692C9.69995 11.8602 9.71467 11.8514 9.73661 11.8474C9.75761 11.8435 9.77327 11.8345 9.77327 11.8263C9.77327 11.8172 9.78487 11.8119 9.8047 11.8119C9.82646 11.8119 9.83612 11.8069 9.83612 11.7955C9.83612 11.7864 9.84555 11.7766 9.85707 11.7736C9.86859 11.7707 9.87802 11.7618 9.87802 11.754C9.87802 11.7461 9.88509 11.7397 9.89373 11.7397C9.90237 11.7397 9.90944 11.7337 9.90944 11.7265C9.90944 11.7192 9.91887 11.7054 9.93039 11.6956C9.94191 11.6859 9.95134 11.6686 9.95134 11.6572C9.95134 11.6457 9.95829 11.6365 9.96705 11.6365C9.97569 11.6365 9.98276 11.6274 9.98276 11.6162C9.98276 11.6051 9.99178 11.5877 10.0028 11.5775C10.0138 11.5674 10.0244 11.5451 10.0264 11.5281C10.0284 11.5102 10.0354 11.4982 10.043 11.4997C10.0517 11.5014 10.0561 11.4885 10.0561 11.461C10.0561 11.4322 10.0606 11.4197 10.071 11.4197C10.0816 11.4197 10.088 11.3999 10.0934 11.3505C10.0975 11.3124 10.1073 11.2749 10.1151 11.2672C10.1258 11.2567 10.1294 11.2169 10.1294 11.1094C10.1294 10.9884 10.1269 10.9656 10.1137 10.9656C10.1027 10.9656 10.098 10.9547 10.098 10.9295V10.8933H8.76773C7.64782 10.8933 7.43748 10.8911 7.43748 10.8792C7.43748 10.87 7.41903 10.8626 7.38474 10.8582C7.35269 10.854 7.33461 10.8471 7.33866 10.8406C7.34232 10.8348 7.33542 10.8275 7.32332 10.8244C7.31121 10.8212 7.30131 10.8123 7.30131 10.8044C7.30131 10.7966 7.29189 10.7901 7.28036 10.7901C7.2664 10.7901 7.25942 10.7833 7.25942 10.7695C7.25942 10.758 7.25243 10.7489 7.2437 10.7489C7.23506 10.7489 7.22799 10.7419 7.22799 10.7334C7.22799 10.7249 7.22113 10.7179 7.21275 10.7179C7.20364 10.7179 7.19476 10.7034 7.19064 10.6818C7.1867 10.6611 7.17755 10.6456 7.16922 10.6456C7.15829 10.6456 7.15467 10.6289 7.15467 10.5786C7.15467 10.5258 7.15131 10.5115 7.13896 10.5115C7.12511 10.5115 7.12325 10.4047 7.12325 9.61285C7.12325 9.01315 7.12685 8.7076 7.13409 8.69427C7.14157 8.68052 7.14157 8.67431 7.13409 8.67431C7.12765 8.67431 7.12325 8.64499 7.12325 8.60206C7.12325 8.54472 7.12649 8.52982 7.13896 8.52982C7.15142 8.52982 7.15467 8.51491 7.15467 8.45757C7.15467 8.40022 7.15792 8.38532 7.17038 8.38532C7.18125 8.38532 7.18609 8.37456 7.18609 8.3504C7.18609 8.32416 7.1913 8.31414 7.20704 8.31008C7.22098 8.30649 7.22799 8.296 7.22799 8.27873C7.22799 8.2583 7.23466 8.25134 7.25942 8.24599C7.2767 8.24225 7.29084 8.23259 7.29084 8.22453C7.29084 8.21646 7.30027 8.20986 7.31179 8.20986C7.32331 8.20986 7.33274 8.20341 7.33274 8.19553C7.33274 8.18732 7.34839 8.1783 7.3694 8.17442C7.39134 8.17036 7.40606 8.16161 7.40606 8.15263C7.40606 8.14061 7.42482 8.13761 7.50033 8.13761C7.57016 8.13761 7.59392 8.13427 7.59198 8.12471C7.5899 8.11447 7.80011 8.11137 8.61061 8.10968C9.1723 8.10851 9.64718 8.10481 9.66591 8.10147C9.68588 8.09791 9.69995 8.08919 9.69995 8.08038C9.69995 8.07213 9.70702 8.06537 9.71566 8.06537C9.7243 8.06537 9.73137 8.0584 9.73137 8.04989C9.73137 8.04129 9.74069 8.0344 9.75232 8.0344C9.76629 8.0344 9.77327 8.02752 9.77327 8.01376C9.77327 8.00229 9.78026 7.99312 9.78898 7.99312C9.79763 7.99312 9.8047 7.98615 9.8047 7.97764C9.8047 7.96912 9.81177 7.96216 9.82041 7.96216C9.82905 7.96216 9.83612 7.95476 9.83612 7.9457C9.83612 7.93666 9.84555 7.92683 9.85707 7.92386C9.86859 7.92089 9.87802 7.91204 9.87802 7.90418C9.87802 7.89634 9.88509 7.88991 9.89373 7.88991C9.90237 7.88991 9.90944 7.88294 9.90944 7.87443C9.90944 7.86583 9.91875 7.85894 9.93039 7.85894C9.94435 7.85894 9.95134 7.85206 9.95134 7.8383C9.95134 7.82684 9.95832 7.81766 9.96705 7.81766C9.97569 7.81766 9.98276 7.81069 9.98276 7.80218C9.98276 7.79358 9.99207 7.7867 10.0037 7.7867C10.0177 7.7867 10.0247 7.77981 10.0247 7.76605C10.0247 7.75459 10.0316 7.74541 10.0404 7.74541C10.049 7.74541 10.0561 7.73845 10.0561 7.72993C10.0561 7.72142 10.0632 7.71445 10.0718 7.71445C10.0804 7.71445 10.0875 7.70705 10.0875 7.698C10.0875 7.68896 10.0969 7.67912 10.1085 7.67616C10.12 7.67319 10.1294 7.66433 10.1294 7.65648C10.1294 7.64863 10.1365 7.6422 10.1451 7.6422C10.1538 7.6422 10.1608 7.63577 10.1608 7.62793C10.1608 7.62007 10.1703 7.61122 10.1818 7.60825C10.1933 7.60528 10.2027 7.59545 10.2027 7.58641C10.2027 7.57735 10.2098 7.56995 10.2184 7.56995C10.2271 7.56995 10.2341 7.56299 10.2341 7.55447C10.2341 7.54587 10.2435 7.53899 10.2551 7.53899C10.269 7.53899 10.276 7.53211 10.276 7.51867C10.276 7.50485 10.2811 7.50026 10.2918 7.50429C10.3027 7.50842 10.3075 7.50358 10.3075 7.48849C10.3075 7.47363 10.3141 7.46674 10.3284 7.46674C10.3401 7.46674 10.3494 7.45986 10.3494 7.45126C10.3494 7.44275 10.3564 7.43578 10.3651 7.43578C10.3738 7.43578 10.3808 7.4266 10.3808 7.41514C10.3808 7.40367 10.3878 7.3945 10.3965 7.3945C10.4051 7.3945 10.4122 7.38807 10.4122 7.38022C10.4122 7.37237 10.4216 7.36351 10.4332 7.36054C10.4447 7.35758 10.4541 7.34774 10.4541 7.3387C10.4541 7.32965 10.4612 7.32225 10.4698 7.32225C10.4785 7.32225 10.4855 7.31528 10.4855 7.30677C10.4855 7.29825 10.4926 7.29128 10.5012 7.29128C10.5099 7.29128 10.517 7.28388 10.517 7.27483C10.517 7.26579 10.5264 7.25596 10.5379 7.25299C10.5494 7.25002 10.5589 7.24117 10.5589 7.23331C10.5589 7.22547 10.5659 7.21904 10.5746 7.21904C10.5832 7.21904 10.5903 7.21207 10.5903 7.20355C10.5903 7.19496 10.5996 7.18807 10.6112 7.18807C10.6252 7.18807 10.6322 7.18119 10.6322 7.16743C10.6322 7.15596 10.6392 7.14679 10.6479 7.14679C10.6565 7.14679 10.6636 7.13982 10.6636 7.13131C10.6636 7.12271 10.6729 7.11583 10.6845 7.11583C10.6985 7.11583 10.7055 7.10894 10.7055 7.09518C10.7055 7.08372 10.7125 7.07454 10.7212 7.07454C10.7298 7.07454 10.7369 7.06757 10.7369 7.05906C10.7369 7.05054 10.7434 7.04358 10.7514 7.04358C10.7649 7.04358 10.7783 7.01427 10.7787 6.98423C10.7788 6.97395 10.377 6.97133 8.80439 6.97133C7.13022 6.97133 6.82996 6.9735 6.82996 6.98561Z" fill="#FEC267"/>
</g>
<circle cx="9.5" cy="9.5" r="8.5" stroke="#FEC267" stroke-width="1.6"/>
<defs>
<filter id="filter0_d_204_63" x="2.41026" y="5" width="14.1795" height="12.1795" filterUnits="userSpaceOnUse" color-interpolation-filters="sRGB">
<feFlood flood-opacity="0" result="BackgroundImageFix"/>
<feColorMatrix in="SourceAlpha" type="matrix" values="0 0 0 0 0 0 0 0 0 0 0 0 0 0 0 0 0 0 127 0" result="hardAlpha"/>
<feOffset dy="1.58974"/>
<feGaussianBlur stdDeviation="0.794872"/>
<feComposite in2="hardAlpha" operator="out"/>
<feColorMatrix type="matrix" values="0 0 0 0 0 0 0 0 0 0 0 0 0 0 0 0 0 0 0.25 0"/>
<feBlend mode="normal" in2="BackgroundImageFix" result="effect1_dropShadow_204_63"/>
<feBlend mode="normal" in="SourceGraphic" in2="effect1_dropShadow_204_63" result="shape"/>
</filter>
</defs>
</svg>
