<svg width="145" height="41" viewBox="0 0 145 41" fill="none" xmlns="http://www.w3.org/2000/svg">
<path d="M18.8174 0.239891C18.9169 0.45806 18.9717 0.450835 19.0729 0.206439C19.1886 -0.0728793 19.4328 -0.0679938 19.5799 0.216476L19.6889 0.427287L19.8223 0.216476C19.9886 -0.0461166 20.2229 -0.066189 20.3319 0.172988C20.3738 0.264979 20.4338 0.340244 20.4651 0.340244C20.4964 0.340244 20.5624 0.264979 20.6116 0.172988C20.7422 -0.0709391 20.9995 -0.0529423 21.09 0.206439C21.1752 0.450901 21.2308 0.45806 21.3476 0.239891C21.4861 -0.018822 21.7802 0.00887571 21.8799 0.290067L21.9569 0.507501L22.0927 0.323519C22.2785 0.0716973 22.5105 0.0791235 22.6187 0.340244C22.6644 0.450634 22.7147 0.540952 22.7304 0.540952C22.7461 0.540952 22.827 0.461803 22.9102 0.365129C23.1036 0.140269 23.3262 0.192326 23.3888 0.477063C23.4418 0.718515 23.4561 0.71978 23.6462 0.498934C23.8396 0.274074 24.0621 0.326131 24.1247 0.610869C24.1772 0.849644 24.2538 0.861145 24.3915 0.65087C24.4674 0.535061 24.5389 0.501549 24.6607 0.524831C24.7519 0.542293 24.8265 0.581163 24.8265 0.611269C24.8265 0.641442 24.8566 0.745007 24.8933 0.841614L24.96 1.01709L25.1146 0.837335C25.3233 0.594813 25.5408 0.6583 25.601 0.979299L25.6441 1.20944L25.8357 1.04828C26.0907 0.833652 26.2816 0.885232 26.3376 1.18389C26.3871 1.44762 26.4091 1.45571 26.5969 1.27923C26.8012 1.08735 27.011 1.16495 27.0649 1.45244L27.108 1.68251L27.3036 1.54329C27.5587 1.36165 27.7702 1.45424 27.7702 1.74754C27.7702 1.97842 27.8108 1.98892 28.0357 1.81605C28.2654 1.63956 28.4393 1.73972 28.4393 2.04861C28.4393 2.31454 28.489 2.3324 28.721 2.14983C28.8716 2.03134 28.9003 2.0286 29.0311 2.12019C29.1252 2.18609 29.1752 2.29206 29.1752 2.42573V2.63032L29.3487 2.51659C29.4554 2.44668 29.5843 2.41844 29.6832 2.44326C29.8147 2.47624 29.8442 2.52636 29.8442 2.71656C29.8442 2.9829 29.8556 2.98886 30.0825 2.84027C30.2374 2.73877 30.2581 2.73924 30.378 2.84775C30.4716 2.93252 30.4963 3.01729 30.4683 3.15765C30.4253 3.37228 30.4685 3.3894 30.7129 3.25412C30.9554 3.11985 31.1154 3.22856 31.1154 3.52762C31.1154 3.72899 31.1338 3.75904 31.2324 3.71843C31.639 3.55104 31.8107 3.64396 31.7448 3.99567C31.6973 4.24849 31.7162 4.25927 31.9729 4.12653C32.127 4.04685 32.174 4.04645 32.2799 4.12393C32.3776 4.19538 32.3963 4.2683 32.3655 4.45803C32.3314 4.66817 32.3413 4.69447 32.44 4.65379C32.8421 4.48787 33.0228 4.58629 32.9573 4.93552C32.9107 5.18393 32.9104 5.18366 33.1609 5.08846C33.4248 4.98811 33.6006 5.1573 33.5209 5.43508L33.4632 5.63626L33.7163 5.59351C34.0505 5.53704 34.1719 5.66516 34.0676 5.96428L33.9952 6.17201L34.2498 6.129C34.5879 6.07193 34.7074 6.19945 34.6013 6.50385C34.5606 6.62053 34.5274 6.72443 34.5274 6.73473C34.5274 6.7451 34.6245 6.7257 34.7433 6.69165C34.9192 6.64121 34.9823 6.65291 35.0845 6.75507C35.1852 6.85576 35.1953 6.90747 35.1362 7.01793C35.011 7.25189 35.0447 7.30755 35.2843 7.26259C35.6336 7.1971 35.732 7.37774 35.5661 7.77989C35.5258 7.87757 35.5513 7.88853 35.7456 7.85702C36.1038 7.79888 36.2002 7.97872 36.0313 8.38997C35.9867 8.49848 36.0072 8.50691 36.2187 8.46724C36.4169 8.43004 36.4684 8.4457 36.5307 8.56231C36.5886 8.67043 36.582 8.74723 36.5014 8.90318L36.3973 9.10449H36.6621C36.9579 9.10449 37.0674 9.26011 36.9396 9.49895C36.827 9.70929 36.8551 9.76047 37.0772 9.7499C37.3727 9.73592 37.4746 9.91214 37.3237 10.1762L37.2097 10.3756H37.4384C37.7399 10.3756 37.8648 10.5765 37.71 10.8126C37.5679 11.0296 37.5741 11.0447 37.807 11.0447C38.0768 11.0447 38.2202 11.3136 38.0504 11.5013C37.8783 11.6915 37.9161 11.7806 38.1691 11.7806C38.4713 11.7806 38.5403 11.9688 38.3408 12.249L38.1979 12.4496H38.4264C38.5982 12.4496 38.6722 12.487 38.7245 12.6002C38.7823 12.7249 38.7652 12.7817 38.6253 12.9311L38.4565 13.1116L38.6495 13.1541C38.7557 13.1776 38.8803 13.2083 38.9262 13.2225C39.0558 13.2624 39.0251 13.5288 38.8721 13.6915L38.7343 13.8382L38.9687 13.8821C39.2695 13.9386 39.3474 14.1395 39.15 14.3497C38.9667 14.5447 38.9723 14.5716 39.2076 14.6233C39.4701 14.681 39.5347 14.8896 39.3507 15.0856C39.1674 15.2807 39.173 15.3076 39.4083 15.3592C39.6972 15.4227 39.7449 15.6445 39.5125 15.8445C39.3053 16.0227 39.3048 16.0206 39.5785 16.1086C39.8518 16.1966 39.8809 16.4244 39.6427 16.6117L39.4626 16.7534L39.7045 16.8499C40.0058 16.97 40.0332 17.1944 39.7679 17.3682L39.5894 17.4852L39.7847 17.5855C40.0207 17.7066 39.9883 17.6739 40.0406 17.8442C40.075 17.9565 40.0376 18.0167 39.8649 18.127L39.6454 18.2671L39.8575 18.3482C40.1579 18.463 40.1979 18.7159 39.9391 18.8632C39.6968 19.0009 39.6978 19.0369 39.9465 19.1399C40.2128 19.2501 40.2212 19.4983 39.9633 19.6334L39.7795 19.7297L39.9633 19.8135C40.0973 19.8745 40.1472 19.9459 40.1472 20.0765C40.1472 20.2071 40.0973 20.2785 39.9633 20.3395L39.7795 20.4233L39.9633 20.5197C40.2212 20.6548 40.2128 20.9029 39.9465 21.0132C39.7021 21.1144 39.6949 21.1692 39.9131 21.2686C40.1744 21.3877 40.1455 21.6951 39.8629 21.8021L39.6454 21.8844L39.8462 22.0164C39.9565 22.089 40.0438 22.1789 40.0402 22.2163C40.0365 22.2537 40.029 22.3258 40.0234 22.3766C40.0179 22.4273 39.9188 22.508 39.8031 22.5559L39.5929 22.643L39.7756 22.7886C40.0278 22.9897 39.989 23.2177 39.6854 23.3195L39.4576 23.3958L39.6402 23.5394C39.8808 23.7287 39.853 23.9561 39.5785 24.0444C39.3048 24.1325 39.3053 24.1304 39.5125 24.3086C39.7449 24.5086 39.6972 24.7303 39.4083 24.7938C39.1748 24.8451 39.1631 24.8967 39.3473 25.0634C39.5442 25.2416 39.4903 25.4447 39.2262 25.5201C39.1059 25.5544 38.9939 25.5689 38.9772 25.5522C38.9606 25.5355 39.0339 25.1703 39.1401 24.7406C39.5363 23.1389 39.6457 22.1155 39.6428 20.0431C39.6404 18.4409 39.6183 18.0294 39.4894 17.1997C39.0258 14.2141 38.0052 11.599 36.3151 9.06622C35.681 8.116 35.0826 7.38777 34.1264 6.4029C31.1004 3.28624 27.2884 1.33 22.9535 0.66927C21.781 0.490573 19.5411 0.425748 18.3614 0.536338C11.488 1.18101 5.56785 5.22755 2.54733 11.3457C1.5749 13.3154 0.986087 15.1898 0.666359 17.3335C0.445581 18.8137 0.44411 21.3146 0.66315 22.806C0.841044 24.017 1.16866 25.3614 1.58393 26.5841C1.92152 27.5781 2.87475 29.5685 3.44971 30.4799C4.49185 32.1319 5.85158 33.7016 7.43182 35.077L7.86669 35.4555L7.63253 35.5548C7.31635 35.689 7.15646 35.5636 7.21145 35.2247L7.24845 34.9967L7.0377 35.0702C6.74413 35.1725 6.6035 35.0523 6.66064 34.7479L6.70245 34.5249L6.44507 34.566C6.11812 34.6183 5.99087 34.4971 6.09237 34.2302C6.18884 33.9763 6.18837 33.9758 5.9045 34.0238C5.57976 34.0786 5.45585 33.9614 5.55714 33.695C5.65402 33.4401 5.65061 33.4354 5.39544 33.4769C5.09967 33.5249 4.99289 33.4059 5.0515 33.0936C5.09478 32.8628 5.09458 32.8626 4.872 32.8988C4.57615 32.9468 4.43345 32.7939 4.54518 32.5487C4.65811 32.3009 4.64399 32.2771 4.40073 32.3055C4.10656 32.3398 3.96774 32.186 4.07686 31.9466C4.193 31.6917 4.17219 31.6503 3.95008 31.6947C3.6549 31.7538 3.53374 31.5757 3.66132 31.2703L3.75398 31.0486H3.48999C3.1718 31.0486 3.08088 30.8818 3.25456 30.6168C3.37197 30.4375 3.35893 30.4252 3.07124 30.4439C2.81333 30.4606 2.71057 30.2458 2.84866 29.9787L2.95276 29.7774H2.73298C2.4061 29.7774 2.29577 29.5693 2.48317 29.3061L2.62393 29.1084H2.38757C2.05486 29.1084 1.94387 28.8998 2.13729 28.6382C2.25631 28.4773 2.26105 28.4462 2.17194 28.4121C2.11514 28.3903 2.01197 28.3724 1.94266 28.3724C1.87342 28.3724 1.78296 28.3094 1.74175 28.2324C1.6802 28.1174 1.69184 28.0655 1.80624 27.9437C1.9933 27.7446 1.9826 27.7034 1.74369 27.7034C1.59276 27.7034 1.52211 27.6609 1.46504 27.5355C1.39968 27.3921 1.41019 27.3445 1.53697 27.2096C1.6677 27.0704 1.67238 27.0464 1.57597 27.0095C1.51583 26.9864 1.41085 26.9675 1.34274 26.9675C1.14899 26.9675 1.10625 26.7142 1.27049 26.5393C1.45802 26.3397 1.44912 26.3118 1.18258 26.2617C0.874832 26.204 0.819906 25.9957 1.04945 25.7562L1.21898 25.5791L0.987626 25.5357C0.674521 25.477 0.616656 25.2624 0.848741 25.0202L1.01827 24.8432L0.77956 24.7984C0.575507 24.7602 0.540851 24.7273 0.540851 24.572C0.540851 24.4629 0.59424 24.3572 0.674657 24.3069C0.862185 24.1898 0.841381 24.1085 0.610768 24.0579C0.316998 23.9933 0.274308 23.7724 0.515559 23.565C0.621399 23.4738 0.677935 23.3888 0.641205 23.376C0.209884 23.2255 0.0867869 22.973 0.370655 22.8211C0.593641 22.7018 0.585542 22.6275 0.340144 22.5419C0.0788887 22.4508 0.0692508 22.2128 0.3194 22.0306L0.499372 21.8995L0.285948 21.7891C0.0184048 21.6507 -0.00333463 21.4109 0.23979 21.2808C0.456956 21.1646 0.450667 21.1144 0.206338 21.0132C-0.0545821 20.9051 -0.0686355 20.6549 0.178971 20.5252L0.35232 20.4344L0.178971 20.3208C-0.0423427 20.1758 -0.0451488 19.963 0.172887 19.8636C0.264878 19.8218 0.340144 19.767 0.340144 19.742C0.340144 19.7171 0.264878 19.6623 0.172887 19.6204C-0.0716422 19.509 -0.0534447 19.2475 0.206338 19.1399C0.450667 19.0387 0.456956 18.9885 0.23979 18.8723C-0.00333463 18.7421 0.0184048 18.5023 0.285948 18.3639L0.499372 18.2536L0.3194 18.1225C0.062226 17.9351 0.0790225 17.7025 0.356869 17.604L0.574303 17.5268L0.385567 17.3624C0.151876 17.1588 0.175361 16.9973 0.457958 16.8638L0.674453 16.7616L0.500172 16.5874C0.280866 16.368 0.328238 16.1572 0.610768 16.0951C0.851684 16.0422 0.855898 16.0058 0.641475 15.8307C0.406178 15.6387 0.475352 15.4117 0.786918 15.3533L1.01827 15.3098L0.848741 15.1328C0.616656 14.8906 0.674521 14.6761 0.987626 14.6173L1.21898 14.5739L1.04945 14.3969C0.822114 14.1596 0.87543 13.9624 1.18867 13.8819L1.42497 13.8211L1.27939 13.6375C1.1128 13.4273 1.14672 13.1856 1.34274 13.1856C1.41085 13.1856 1.51583 13.1666 1.57597 13.1435C1.67238 13.1066 1.6677 13.0827 1.53697 12.9435C1.41019 12.8086 1.39968 12.7609 1.46504 12.6175C1.52211 12.4922 1.59276 12.4496 1.74369 12.4496C1.9826 12.4496 1.9933 12.4085 1.80624 12.2094C1.61691 12.0078 1.72751 11.7806 2.01505 11.7806C2.23911 11.7806 2.26011 11.7134 2.10831 11.4817C1.95169 11.2427 2.07828 11.0447 2.38757 11.0447H2.62393L2.49441 10.8607C2.30755 10.5954 2.41573 10.3756 2.73311 10.3756H2.96473L2.84973 10.2001C2.75673 10.0582 2.74917 9.99282 2.81039 9.85848C2.87655 9.71317 2.91509 9.69785 3.11841 9.73598C3.37592 9.78429 3.40121 9.74154 3.24613 9.52009C3.08168 9.28526 3.17728 9.11547 3.48744 9.09145L3.75124 9.07104L3.65329 8.88311C3.50925 8.6068 3.63871 8.41305 3.93616 8.45982C4.173 8.49701 4.19293 8.46116 4.07686 8.20646C3.96774 7.96701 4.10656 7.8132 4.40073 7.84753C4.64399 7.87596 4.65811 7.85214 4.54518 7.60433C4.43265 7.35733 4.57448 7.2074 4.86852 7.26259C5.10622 7.30715 5.12796 7.27236 5.02748 7.00802C4.93488 6.76437 5.12348 6.60963 5.4121 6.69239C5.64359 6.75875 5.66084 6.73085 5.55714 6.45802C5.45585 6.19168 5.57976 6.07441 5.9045 6.12927C6.18837 6.17724 6.18884 6.1767 6.09237 5.9228C5.99148 5.6576 6.11518 5.53918 6.43638 5.59351L6.68921 5.63619L6.65254 5.41032C6.60404 5.1114 6.75577 4.96824 7.00211 5.0805C7.24256 5.19009 7.25272 5.18259 7.21131 4.92722C7.16 4.61118 7.28744 4.50888 7.60931 4.6077L7.84836 4.68102L7.80688 4.47335C7.77797 4.32904 7.79858 4.22896 7.87432 4.14527C7.973 4.03622 8.00117 4.03407 8.17257 4.12272C8.43209 4.25692 8.43536 4.25485 8.43536 3.95747C8.43536 3.66337 8.59158 3.55418 8.82982 3.68169C9.02364 3.78539 9.03749 3.77463 9.03749 3.52046C9.03749 3.22877 9.19993 3.12125 9.43997 3.25412C9.68504 3.3898 9.72491 3.37268 9.69166 3.14621C9.64998 2.86201 9.86119 2.70318 10.0855 2.85016C10.314 2.99989 10.3755 2.9722 10.3755 2.71977C10.3755 2.43878 10.5646 2.34739 10.8113 2.50903C11.0325 2.65394 11.0446 2.64745 11.0446 2.38312C11.0446 2.06747 11.2313 1.96337 11.4661 2.14809C11.691 2.32498 11.7023 2.31983 11.7263 2.02954C11.744 1.81598 11.7728 1.77564 11.9201 1.75851C12.0163 1.74734 12.1312 1.78447 12.1791 1.84214C12.3091 1.99876 12.3633 1.96913 12.4109 1.7155C12.4667 1.41832 12.6688 1.34191 12.8783 1.53881C13.0511 1.70111 13.1185 1.66424 13.1185 1.40734C13.1185 1.15859 13.3542 1.09725 13.6047 1.28076L13.7898 1.41631L13.8317 1.2071C13.8919 0.905708 14.1054 0.842346 14.335 1.05784L14.5144 1.2263L14.5587 0.990136C14.6182 0.673151 14.8236 0.616753 15.0675 0.850377L15.2461 1.02151L15.2925 0.810237C15.36 0.503154 15.5767 0.440397 15.8107 0.660172L15.994 0.832247L16.0366 0.618823C16.0975 0.314349 16.3475 0.259631 16.543 0.50804L16.6868 0.690944L16.7929 0.466291C16.9323 0.170983 17.1093 0.142547 17.306 0.383798L17.4614 0.574404L17.5459 0.35697C17.6543 0.078053 17.9327 0.0513589 18.0693 0.306793C18.185 0.522822 18.2243 0.517536 18.3165 0.273342C18.416 0.00954474 18.7037 -0.00965631 18.8174 0.239891Z" fill="#44403D"/>
<path d="M37.7441 28.6066C38.1436 27.7733 38.7196 26.3106 38.8448 25.8116C38.901 25.5879 38.9446 25.5849 39.1383 25.791C39.3473 26.0134 39.2767 26.2131 38.9687 26.2709L38.7343 26.3149L38.8776 26.4674C39.094 26.6977 39.0313 26.9071 38.7196 26.9953L38.4629 27.0678L38.6313 27.2256C38.7737 27.359 38.7887 27.4075 38.7284 27.5399C38.6771 27.6524 38.5919 27.7022 38.4253 27.7167L38.1937 27.7369L38.3388 27.9205C38.5136 28.1418 38.4699 28.372 38.2527 28.3735C38.1724 28.3741 38.0627 28.4023 38.009 28.4363C37.9254 28.4892 37.9293 28.518 38.0363 28.6362C38.2195 28.8387 38.0886 29.1084 37.807 29.1084C37.5741 29.1084 37.5679 29.1234 37.71 29.3404C37.8659 29.5783 37.74 29.7774 37.4338 29.7774C37.2004 29.7774 37.2004 29.7774 37.3097 29.9442C37.3803 30.0519 37.4034 30.1728 37.3751 30.2857C37.3365 30.4393 37.3034 30.4571 37.1001 30.4334C36.8545 30.4047 36.8266 30.443 36.9396 30.6541C37.0669 30.8919 36.9578 31.0486 36.6649 31.0486H36.4028L36.5129 31.2795C36.6628 31.5937 36.5485 31.7476 36.212 31.6845C36.0073 31.6461 35.9869 31.655 36.0313 31.7631C36.2002 32.1743 36.1038 32.3542 35.7456 32.296C35.5513 32.2645 35.5258 32.2755 35.5661 32.3732C35.732 32.7753 35.6336 32.9559 35.2843 32.8905C35.0454 32.8456 35.0111 32.9012 35.1349 33.1325C35.2478 33.3436 35.0492 33.5242 34.7563 33.4767L34.5283 33.4397L34.6018 33.6505C34.7051 33.9468 34.5843 34.0847 34.2725 34.0263L34.0425 33.9831L34.0855 34.2126C34.1414 34.5107 34.0209 34.6184 33.6989 34.558L33.4623 34.5136L33.5249 34.7318C33.5756 34.9088 33.5657 34.967 33.472 35.0396C33.3577 35.1283 33.2729 35.1259 33.0313 35.0268C32.9201 34.9812 32.9118 34.999 32.954 35.191C32.9886 35.3486 32.9712 35.4394 32.8893 35.5299C32.7871 35.6428 32.7573 35.6452 32.5475 35.5575L32.3176 35.4615L32.3596 35.724C32.4119 36.0509 32.2544 36.1789 31.984 36.0292C31.735 35.8913 31.6985 35.9108 31.7448 36.1574C31.8107 36.5091 31.639 36.602 31.2324 36.4346C31.1341 36.3941 31.1154 36.4238 31.1154 36.6196C31.1154 36.9437 30.982 37.0412 30.722 36.9068C30.4469 36.7645 30.4237 36.7726 30.4683 36.9954C30.4963 37.1358 30.4716 37.2205 30.378 37.3053C30.2581 37.4138 30.2374 37.4143 30.0825 37.3128C29.8556 37.1642 29.8442 37.1701 29.8442 37.4365C29.8442 37.6267 29.8147 37.6768 29.6832 37.7098C29.5843 37.7346 29.4554 37.7064 29.3487 37.6365L29.1752 37.5227V37.7485C29.1752 38.078 28.9693 38.1933 28.7103 38.0088C28.4562 37.8279 28.4393 37.8339 28.4393 38.1044C28.4393 38.4133 28.2654 38.5135 28.0357 38.337C27.8108 38.1641 27.7702 38.1746 27.7702 38.4055C27.7702 38.7011 27.5468 38.8002 27.2969 38.6154L27.1072 38.4752L27.0637 38.7068C27.0082 39.0029 26.8138 39.0775 26.6061 38.8825C26.4084 38.6967 26.3875 38.7034 26.3376 38.9692C26.2816 39.2678 26.0907 39.3194 25.8357 39.1048L25.6441 38.9436L25.601 39.1737C25.5408 39.4947 25.3233 39.5582 25.1146 39.3157L24.96 39.136L24.8933 39.3114C24.8566 39.408 24.8265 39.5116 24.8265 39.5417C24.8265 39.5719 24.7587 39.6146 24.676 39.6366C24.5648 39.6663 24.4934 39.6334 24.4028 39.5107C24.2426 39.2936 24.1777 39.301 24.1247 39.5422C24.0623 39.826 23.856 39.8695 23.6243 39.6476L23.4383 39.4693L23.3912 39.6571C23.309 39.9845 23.032 40.0516 22.8863 39.7794C22.7701 39.5622 22.7199 39.5685 22.6187 39.8128C22.5105 40.0739 22.2785 40.0813 22.0927 39.8295L21.9569 39.6455L21.8799 39.863C21.7802 40.1442 21.4861 40.1719 21.3476 39.9132C21.2308 39.695 21.1752 39.7021 21.09 39.9466C20.9995 40.206 20.7422 40.224 20.6116 39.9801C20.5624 39.8881 20.4964 39.8128 20.4651 39.8128C20.4338 39.8128 20.3738 39.8881 20.3319 39.9801C20.2239 40.2169 19.982 40.2011 19.8322 39.9475L19.7141 39.7478L19.5876 39.9475C19.4171 40.2169 19.1847 40.2165 19.0729 39.9466C18.9717 39.7022 18.9169 39.695 18.8174 39.9132C18.7037 40.1627 18.416 40.1435 18.3165 39.8797C18.2243 39.6355 18.185 39.6302 18.0693 39.8463C17.9327 40.1017 17.6543 40.075 17.5459 39.7961L17.4614 39.5786L17.306 39.7692C17.1093 40.0105 16.9323 39.9821 16.7929 39.6868L16.6868 39.4621L16.543 39.645C16.43 39.7887 16.363 39.8188 16.2307 39.7856C16.1326 39.761 16.0619 39.695 16.0613 39.6275C16.0607 39.5639 16.0333 39.4693 16.0004 39.4173C15.952 39.3408 15.9109 39.3558 15.784 39.4962C15.5822 39.7194 15.36 39.6501 15.2925 39.3428L15.2461 39.1315L15.0675 39.3027C14.8236 39.5363 14.6182 39.4799 14.5587 39.1629L14.5144 38.9267L14.335 39.0952C14.1054 39.3107 13.8919 39.2473 13.8317 38.9459L13.7898 38.7367L13.6047 38.8723C13.3542 39.0558 13.1185 38.9945 13.1185 38.7457C13.1185 38.4888 13.0511 38.4519 12.8783 38.6142C12.6688 38.8111 12.4667 38.7347 12.4109 38.4375C12.3604 38.1681 12.3553 38.1663 12.1351 38.3395C11.9003 38.5242 11.7136 38.4201 11.7136 38.1044C11.7136 37.8353 11.6925 37.8269 11.4661 38.005C11.2313 38.1897 11.0446 38.0856 11.0446 37.7699C11.0446 37.5056 11.0325 37.4991 10.8113 37.644C10.5646 37.8057 10.3755 37.7143 10.3755 37.4333C10.3755 37.1769 10.3145 37.1528 10.0704 37.3128C9.91638 37.4137 9.89471 37.4137 9.78325 37.3129C9.70116 37.2386 9.67212 37.1398 9.6922 37.003C9.72531 36.7774 9.67018 36.7548 9.45496 36.9056C9.23117 37.0622 9.03749 36.9323 9.03749 36.6254C9.03749 36.423 9.01956 36.3942 8.92041 36.4373C8.85598 36.4653 8.72806 36.491 8.63607 36.4946C8.48594 36.5005 8.46674 36.4721 8.44827 36.2171L8.42767 35.933L8.23185 36.0343C8.07068 36.1176 8.0114 36.1205 7.8976 36.0507C7.784 35.9811 7.76694 35.9239 7.8022 35.7317C7.82581 35.603 7.85452 35.4881 7.86589 35.4764C7.87726 35.4649 8.14387 35.6455 8.45838 35.8779C10.7105 37.5423 13.479 38.7621 16.263 39.3165C20.4883 40.158 25.0328 39.5509 28.8469 37.6354C32.7016 35.6994 35.9 32.4537 37.7441 28.6066Z" fill="#44403D"/>
<path fill-rule="evenodd" clip-rule="evenodd" d="M18.7049 0.653548C16.3926 0.802674 13.5421 1.58912 11.3791 2.67481C7.6045 4.56936 4.65456 7.5092 2.74562 11.2788C1.52833 13.6826 0.856699 16.1303 0.666629 18.8555C0.407515 22.5717 1.31893 26.4902 3.20712 29.7774C6.36921 35.2825 11.9926 38.8839 18.3616 39.4827C19.4387 39.584 21.7834 39.5285 22.7525 39.3789C25.0187 39.0289 27.0438 38.3826 28.9955 37.3864C33.4913 35.0919 36.9657 31.029 38.5635 26.1981C38.891 25.2079 39.2445 23.7049 39.3897 22.6857C39.5731 21.398 39.5569 18.5612 39.359 17.3001C38.6238 12.6165 36.4523 8.58941 33.0072 5.52072C29.9167 2.76794 25.9044 1.045 21.7222 0.674758C21.0341 0.613809 19.4891 0.60297 18.7049 0.653548ZM31.3905 10.6444C29.0047 7.80885 25.7755 5.99881 22.1477 5.46372C21.4357 5.35868 19.762 5.28295 19.2067 5.33065C16.5391 5.55979 14.3625 6.25858 12.2544 7.56265C10.8974 8.40208 9.29787 9.87206 8.31982 11.1785C5.02072 15.5853 4.43994 21.4724 6.82014 26.3803C8.93754 30.7464 12.8478 33.6766 17.7014 34.5345C18.9537 34.7559 21.1863 34.7554 22.4515 34.5334C25.6776 33.9674 28.4706 32.4811 30.7096 30.1391C32.8799 27.869 34.2725 24.9116 34.6607 21.7491C34.8252 20.4082 34.7205 18.2652 34.4205 16.8355C33.9844 14.7568 32.78 12.2957 31.3905 10.6444ZM14.8915 11.114C12.5553 11.1598 12.3592 11.1879 11.5505 11.5932C10.3104 12.2147 9.35929 13.482 9.07314 14.8943C8.97714 15.3682 8.96724 16.0485 8.98771 20.7807C8.98874 21.0189 8.9897 21.247 8.99061 21.4654L8.99063 21.4682L8.99074 21.4956L8.99078 21.5038C9.00809 25.6366 9.01076 26.274 9.22841 26.8268C9.2681 26.9276 9.31494 27.0255 9.37032 27.1414C9.38722 27.1767 9.40492 27.2138 9.42345 27.253C9.94703 28.3625 10.8259 29.1195 12.0175 29.4872C12.389 29.6018 12.7495 29.6101 17.3334 29.6101C17.5425 29.6101 17.7432 29.6102 17.9358 29.6102C21.7912 29.6107 22.4369 29.6108 22.9896 29.3842C23.1008 29.3386 23.2082 29.2839 23.3373 29.2181C23.3693 29.2018 23.4026 29.1848 23.4377 29.1671C23.9959 28.8854 24.7969 28.0583 25.0861 27.4652C25.4687 26.6805 25.5034 26.287 25.4815 22.9752C25.4622 20.0611 25.4611 20.0416 25.3105 19.7993C25.0255 19.3411 25.022 19.3406 22.0155 19.3406H19.3251L18.162 20.4528C17.5223 21.0645 16.9989 21.5913 16.9989 21.6236C16.9989 21.6563 18.3898 21.6822 20.1463 21.6822H23.2937L23.274 23.5387C23.2552 25.3046 23.2467 25.4142 23.0981 25.7823C22.8842 26.3122 22.3218 26.9084 21.7931 27.1656C21.1099 27.498 20.7966 27.5164 16.8651 27.4551L13.2858 27.3993L12.8844 27.2046C12.4028 26.971 11.8492 26.4192 11.6151 25.9393C11.5001 25.7037 11.4267 25.3967 11.381 24.9604C11.297 24.1576 11.2936 16.3771 11.377 15.7998C11.5417 14.6599 12.4275 13.7339 13.5517 13.526C13.8151 13.4774 15.7243 13.4532 19.3033 13.4532H24.6607L25.8635 12.2489L27.0663 11.0447L22.0494 11.0584C19.29 11.0659 16.069 11.091 14.8915 11.114ZM26.6006 14.4612C25.9563 15.0968 25.4393 15.627 25.4518 15.6395C25.4643 15.652 26.3247 15.6727 27.364 15.6856L29.2535 15.7089L29.4318 15.887L29.61 16.0652L29.6435 17.95L29.677 19.8349L29.869 19.6045C29.9746 19.4777 30.4638 18.9616 30.9561 18.4574L31.8513 17.5408V15.9027C31.8513 14.2049 31.8259 14.0141 31.5625 13.7311C31.2336 13.378 31.1299 13.3588 29.3936 13.3313L27.772 13.3056L26.6006 14.4612ZM15.0189 15.1936C14.2107 15.3403 13.6479 15.7525 13.3053 16.4485L13.0851 16.896V20.4431V23.9903L13.2724 24.3719C13.5071 24.8496 14.0103 25.3104 14.4958 25.492C14.8419 25.6215 15.0043 25.6294 17.3192 25.6286C19.9729 25.6278 20.2474 25.599 20.746 25.269C21.1269 25.017 21.3724 24.4701 21.3772 23.8629L21.381 23.3882L18.6266 23.3548L15.8722 23.3213L15.691 23.154C15.3401 22.83 15.3263 22.7284 15.3263 20.4445C15.3263 18.1072 15.3409 18.0106 15.7369 17.7282L15.9619 17.5677L18.2678 17.5461L20.5738 17.5247L21.6799 16.3859C22.2882 15.7596 22.7934 15.2274 22.8025 15.2032C22.8287 15.1336 15.3993 15.1245 15.0189 15.1936ZM22.457 1.7733C29.4744 2.71462 35.2784 7.4627 37.5521 14.1222C38.9131 18.1082 38.8564 22.5805 37.3954 26.4925C36.383 29.203 34.8055 31.5832 32.7401 33.5164C29.8372 36.2334 26.4189 37.846 22.3511 38.4175C21.3812 38.5538 18.5702 38.5351 17.601 38.3859C15.4051 38.0478 13.7876 37.5433 11.8808 36.6019C7.4733 34.4257 4.18885 30.6611 2.59964 25.9641C1.50772 22.7368 1.34703 19.0652 2.15247 15.7479C2.78309 13.1503 3.97837 10.7067 5.68024 8.53582C6.19499 7.87917 8.02284 6.07159 8.70297 5.5466C11.6019 3.30898 14.9299 2.00499 18.5711 1.67991C19.4645 1.60016 21.5377 1.65 22.457 1.7733ZM18.7384 4.42739C18.7384 4.36905 19.5411 2.53057 19.6795 2.27206C19.7271 2.18321 19.8207 2.14662 20.0007 2.14662H20.2547L20.7509 3.26108C21.0239 3.87404 21.2573 4.4009 21.2695 4.43187C21.2818 4.46285 21.1667 4.48821 21.0137 4.48821C20.7526 4.48821 20.7286 4.47182 20.6234 4.22127L20.5113 3.95433L19.9941 3.95366L19.477 3.95299L19.3405 4.2206C19.2207 4.45536 19.1754 4.48821 18.9712 4.48821C18.8431 4.48821 18.7384 4.46084 18.7384 4.42739ZM21.8616 4.55411C21.5194 4.5517 21.5146 4.51858 21.6812 3.32343C21.7899 2.54455 21.8617 2.21352 21.9219 2.21352C22.1964 2.21352 22.3538 2.37295 22.7521 3.05428C23.2061 3.83123 23.2393 3.84079 23.3148 3.21706L23.3218 3.15877C23.3804 2.6738 23.3999 2.51275 23.4804 2.47189C23.5204 2.45158 23.5755 2.46097 23.658 2.47503L23.6582 2.47506L23.6586 2.47514L23.6666 2.4765L23.6777 2.47838C23.8883 2.51384 23.9213 2.54321 23.9093 2.68444C23.8927 2.88033 23.6126 4.78539 23.5985 4.79803C23.5932 4.80292 23.4963 4.79275 23.3834 4.77548C23.2032 4.74799 23.1216 4.65011 22.7199 3.98062C22.468 3.56067 22.2553 3.21706 22.2473 3.21706C22.2393 3.21706 22.1975 3.46547 22.1546 3.769C22.0501 4.50641 22.0319 4.55531 21.8616 4.55411ZM16.0884 2.67247C16.0635 2.58302 16.1542 2.54435 16.5786 2.4634C17.2761 2.33033 17.4188 2.32906 17.7283 2.4529C18.1924 2.63855 18.3502 3.24583 18.04 3.65246L17.8769 3.86635L18.1753 4.15918C18.4311 4.41027 18.4567 4.45871 18.3552 4.49885C18.0852 4.60556 17.9044 4.55236 17.6335 4.28656C17.3914 4.04886 17.3344 4.02303 17.1386 4.06217C16.9177 4.10639 16.9174 4.107 16.9594 4.42298C16.9978 4.71253 16.9884 4.74304 16.8496 4.78024L16.8448 4.78152C16.7308 4.81206 16.6543 4.83255 16.5962 4.80858C16.4777 4.75973 16.4354 4.52624 16.3067 3.81688L16.3041 3.80246C16.2022 3.24128 16.1051 2.73282 16.0884 2.67247ZM24.3856 3.08153C24.2119 3.03294 24.1343 3.01123 24.11 2.96278C24.0904 2.92363 24.1055 2.86703 24.1329 2.76471L24.1345 2.75897C24.1852 2.56917 24.2335 2.57566 25.3397 2.92101C26.1007 3.15851 26.1089 3.16327 26.0646 3.33956C26.04 3.43764 26.0094 3.52836 25.9966 3.54113C25.9838 3.55391 25.8209 3.51973 25.6346 3.46513L25.296 3.36585L25.0905 4.04411C24.787 5.04564 24.751 5.15723 24.731 5.15723C24.615 5.15723 24.2916 4.99205 24.2923 4.93324C24.2928 4.89083 24.3971 4.49771 24.5239 4.05963C24.6508 3.62148 24.7414 3.24174 24.7254 3.21578C24.7093 3.18976 24.5599 3.13035 24.3934 3.08372L24.3856 3.08153ZM14.1155 3.23057C14.1191 3.2196 14.22 3.16748 14.3395 3.11469L14.557 3.01889L15.4074 3.90408C15.8752 4.39093 16.2591 4.81329 16.2604 4.84266C16.2618 4.87203 16.1651 4.93873 16.0455 4.99092C15.8355 5.08251 15.8216 5.07862 15.6357 4.87684L15.4433 4.66798L14.9667 4.82085C14.4371 4.99065 14.3922 5.03085 14.3907 5.336C14.3898 5.51971 14.3575 5.55885 14.1511 5.62702C14.0198 5.67038 13.9042 5.69526 13.8941 5.68242C13.8793 5.66348 14.0927 3.29962 14.1155 3.23057ZM25.5141 5.39875C25.5026 5.38731 25.693 4.90548 25.937 4.32797C26.181 3.75047 26.403 3.28683 26.4304 3.29767C27.4959 3.7205 27.9695 3.93358 27.9701 3.99038C27.9706 4.02932 27.9286 4.11917 27.8768 4.18996C27.785 4.31546 27.7697 4.31325 27.2668 4.10331C26.983 3.9849 26.7273 3.90254 26.6984 3.92034C26.6696 3.9382 26.615 4.04177 26.5771 4.15049C26.517 4.32296 26.5254 4.35373 26.6432 4.39113C26.7174 4.41468 26.9398 4.50794 27.1374 4.59839C27.4782 4.75441 27.4927 4.7712 27.4219 4.92662C27.3299 5.12846 27.3251 5.12847 26.8606 4.92307C26.6526 4.83108 26.4439 4.75582 26.3969 4.75582C26.297 4.75582 26.1387 5.16192 26.2139 5.22514C26.242 5.24876 26.4957 5.36651 26.7777 5.4868C27.2897 5.70524 27.2903 5.70577 27.2227 5.89972C27.1855 6.0065 27.1493 6.09387 27.1423 6.09387C27.1157 6.09387 25.5339 5.41855 25.5141 5.39875ZM12.3161 3.8982L12.5334 3.76954C12.5468 3.76159 12.5594 3.75394 12.5713 3.74671C12.6361 3.70747 12.6803 3.68071 12.7217 3.68454C12.8103 3.69276 12.8858 3.84148 13.1233 4.3089C13.1438 4.34914 13.1654 4.39175 13.1884 4.43683C13.4166 4.88501 13.52 5.16861 13.52 5.34684C13.52 6.09748 12.4615 6.62675 11.8565 6.1787C11.6947 6.05881 10.983 4.81817 10.9793 4.64951C10.9778 4.58227 11.2526 4.42131 11.3688 4.42131C11.3965 4.42131 11.5791 4.7201 11.7745 5.08532C12.1938 5.86868 12.3655 5.99332 12.7319 5.78017C13.075 5.58053 13.0603 5.34711 12.6549 4.55785L12.3161 3.8982ZM27.4488 6.19476C27.46 6.14706 27.71 5.70008 28.0044 5.20139C28.2988 4.7027 28.5583 4.29312 28.5812 4.29111C28.6306 4.28683 29.9088 5.06123 29.9957 5.14814C30.0587 5.21116 29.9209 5.49175 29.8269 5.49175C29.7983 5.49175 29.5767 5.37132 29.3344 5.22414C29.0921 5.07695 28.8703 4.95653 28.8415 4.95653C28.8127 4.95653 28.7368 5.03641 28.6729 5.13402C28.5597 5.30676 28.5608 5.31472 28.7154 5.43314C28.8027 5.50004 29.002 5.62334 29.1585 5.70711C29.4645 5.87108 29.4896 5.92614 29.3452 6.11668C29.2563 6.23396 29.23 6.22707 28.7958 5.97264L28.3397 5.7055L28.2227 5.88293C28.1583 5.98054 28.1059 6.09053 28.1063 6.12732C28.1067 6.16412 28.2947 6.30702 28.524 6.44491C28.5719 6.47371 28.6161 6.50015 28.6567 6.5245L28.658 6.5253C28.9927 6.72577 29.0898 6.78391 29.0927 6.84646C29.0939 6.87201 29.0794 6.89829 29.059 6.93532C29.0528 6.94643 29.0462 6.95852 29.0392 6.97184C28.9937 7.05928 28.9481 7.1407 28.938 7.15268C28.89 7.20981 27.4308 6.27123 27.4488 6.19476ZM4.88216 20.0096C4.88986 12.2505 10.6805 5.77869 18.4039 4.89732C18.6798 4.86587 19.3933 4.83617 19.9894 4.83142C28.3878 4.76411 35.2633 11.6116 35.2633 20.0431C35.2633 22.7402 34.4246 25.7047 33.0211 27.9684C31.4808 30.4525 29.3494 32.3826 26.7332 33.6621C25.185 34.4194 23.6344 34.8842 21.9356 35.1004C20.6339 35.2662 18.5732 35.208 17.3234 34.9705C15.1478 34.5568 13.2427 33.7679 11.446 32.5364C8.61352 30.5951 6.46602 27.6468 5.52162 24.4026C5.04882 22.7785 4.88056 21.6223 4.88216 20.0096ZM8.97205 6.48291C8.97573 6.09641 9.35741 5.57163 9.80687 5.33513C9.91726 5.27706 10.1355 5.22829 10.2919 5.22682C10.5285 5.22461 10.5762 5.24568 10.5762 5.35245C10.5762 5.60227 10.499 5.69245 10.2847 5.69292C9.89691 5.69372 9.51309 6.05734 9.50841 6.42838C9.50527 6.67666 9.74679 7.02623 9.99232 7.12879C10.2712 7.24533 10.5093 7.1965 10.7854 6.96595L11.0073 6.78076L10.8252 6.50566C10.7251 6.35432 10.6431 6.2046 10.6431 6.17295C10.6431 6.12344 10.9275 5.96007 11.0136 5.96007C11.0298 5.96007 11.1536 6.12632 11.2886 6.32957C11.5146 6.66997 11.5267 6.71238 11.4432 6.86854C11.1744 7.37064 10.4784 7.75546 9.98402 7.67525C9.47937 7.59329 8.96724 6.98996 8.97205 6.48291ZM29.1894 7.39686L29.8639 6.47776C30.235 5.97224 30.5527 5.55865 30.5701 5.55865C30.6595 5.55865 31.5967 6.32054 31.7427 6.51195C31.9494 6.78297 32.0261 7.20519 31.9246 7.51287C31.8093 7.86211 31.3873 8.23797 31.0612 8.28166C30.6056 8.34281 30.3472 8.25021 29.7546 7.81347L29.1894 7.39686ZM6.0472 8.93723C6.33341 8.56913 6.55627 8.35505 6.76106 8.25148C7.13832 8.06074 7.31401 8.06295 7.7458 8.26399C8.1707 8.46182 8.36846 8.79105 8.36846 9.30065C8.36846 9.60198 8.32618 9.69785 7.95032 10.2483C7.72037 10.585 7.51371 10.8644 7.49116 10.869C7.43396 10.8808 5.62478 9.56458 5.62826 9.51373C5.62987 9.49105 5.8184 9.2316 6.0472 8.93723ZM32.2694 9.86517C32.2948 9.39324 32.4935 9.06649 32.8669 8.88251C32.989 8.8223 33.2419 8.77232 33.4288 8.77151C34.0146 8.7689 34.6055 9.29289 34.6718 9.87387C34.6923 10.0542 34.6741 10.0766 34.4929 10.0944C34.3096 10.1124 34.2821 10.0881 34.1919 9.82891C34.1268 9.64212 34.0117 9.48912 33.8584 9.38555C33.1602 8.91402 32.363 9.89133 32.9479 10.5018C33.0542 10.6128 33.2273 10.7225 33.3326 10.7457C33.4986 10.7821 33.5239 10.8186 33.5239 11.0219C33.5239 11.2504 33.5186 11.2549 33.3064 11.2123C32.9882 11.1484 32.5771 10.8432 32.4011 10.5401C32.2763 10.3253 32.2514 10.1979 32.2694 9.86517ZM6.32466 11.8475C6.33971 11.8475 6.47685 11.6214 6.62939 11.345L6.90684 10.8424L7.09985 10.9565L7.29293 11.0705L7.1695 11.275C7.10159 11.3875 6.91949 11.7053 6.76474 11.9813C6.60999 12.2573 6.47297 12.4937 6.46013 12.5067C6.41162 12.5559 4.48811 11.4197 4.48811 11.3418C4.48811 11.297 4.5439 11.1913 4.61214 11.1071L4.73612 10.9539L5.51667 11.4007C5.94598 11.6465 6.3096 11.8475 6.32466 11.8475ZM34.2236 13.0404C33.5293 12.4308 33.5664 11.4466 34.3006 11.0022C34.9805 10.5906 35.8421 10.9739 36.0963 11.8012C36.3224 12.5374 35.8756 13.2325 35.1303 13.3042C34.6952 13.346 34.5105 13.2922 34.2236 13.0404ZM3.58058 13.8859C3.37291 13.3422 3.61369 12.6507 4.11874 12.3407C4.34514 12.2017 4.45385 12.1792 4.80516 12.1986C5.24899 12.2232 5.4681 12.3365 5.71731 12.6703C5.91635 12.9368 5.94418 13.5525 5.77458 13.9359C5.33904 14.9205 3.96366 14.8891 3.58058 13.8859ZM34.5646 14.0984C34.5625 14.0669 34.9974 13.8807 35.5309 13.6846C36.0645 13.4886 36.5507 13.3261 36.6115 13.3237C36.709 13.3199 36.9115 13.7006 36.8465 13.7655C36.8039 13.8081 34.8294 14.5221 34.7521 14.5229C34.6862 14.5235 34.576 14.2742 34.5646 14.0984ZM35.8034 14.8309C36.2876 14.6931 36.748 14.5545 36.8266 14.5228C37.0639 14.427 37.1204 14.4479 37.1939 14.6585C37.2596 14.8473 37.2322 14.9062 36.7668 15.5742C36.4933 15.9668 36.2818 16.3003 36.2968 16.3154C36.3119 16.3304 36.5994 16.2617 36.9359 16.1627C37.2723 16.0637 37.556 15.9931 37.5663 16.0058C37.5766 16.0185 37.6186 16.1281 37.6594 16.2494C37.7163 16.4178 37.7147 16.4764 37.6527 16.4974C37.5873 16.5196 36.8849 16.7264 35.5889 17.1049C35.5077 17.1287 35.4686 17.0779 35.4367 16.9075C35.398 16.7013 35.4415 16.6089 35.8665 15.9939C36.1266 15.6176 36.3269 15.2973 36.3116 15.282C36.2857 15.2561 35.4239 15.4697 35.185 15.5614C35.0591 15.6097 35.0279 15.5704 34.9673 15.2875L34.9231 15.0812L35.8034 14.8309ZM3.31203 17.006C2.55047 16.6601 2.40088 15.6308 3.01786 14.9822C3.30005 14.6855 3.41244 14.6752 3.50002 14.9379C3.54759 15.0807 3.52377 15.1431 3.35859 15.3083C2.97998 15.687 3.04047 16.2676 3.48236 16.4961C4.00454 16.7661 4.54759 16.4541 4.57749 15.8668C4.5876 15.667 4.56545 15.6426 4.2874 15.5481C4.12182 15.4918 3.97864 15.4388 3.96928 15.4304C3.94118 15.405 4.09693 14.9919 4.13466 14.9919C4.1538 14.9919 4.35838 15.0568 4.58933 15.136C4.98111 15.2704 5.01169 15.2958 5.04735 15.5156C5.06842 15.6451 5.05504 15.8889 5.01778 16.0573C4.82523 16.9261 4.06609 17.3484 3.31203 17.006ZM2.31444 22.0451C2.21496 21.1946 2.17414 18.9186 2.25463 18.7089C2.28527 18.629 2.3495 18.6116 2.50565 18.6409C2.62106 18.6625 3.07673 18.7316 3.51815 18.7943L4.32085 18.9085L4.364 20.4458C4.4196 22.4282 4.5912 23.4712 5.11532 25.0119C6.56242 29.266 9.5232 32.5705 13.5326 34.4064C13.9995 34.6202 14.4117 34.7951 14.4486 34.7951C14.4854 34.7951 14.5352 34.8269 14.5592 34.8657C14.5996 34.9311 14.0221 36.7048 13.9228 36.8203C13.8626 36.8903 12.8669 36.4823 11.921 36C7.69789 33.8468 4.34326 29.8551 3.02568 25.4155C2.71378 24.3643 2.42657 23.0034 2.31444 22.0451ZM35.855 18.935C35.8792 18.9328 36.3354 18.8608 36.869 18.7753C37.4025 18.6897 37.8574 18.6163 37.8798 18.6122C37.9672 18.596 38.0062 20.2283 37.9411 21.1759C37.7741 23.6044 37.1292 25.9964 36.0728 28.1048C34.5291 31.1859 32.156 33.7227 29.1426 35.5135C28.2125 36.0662 26.475 36.8673 26.3902 36.7825C26.3342 36.7265 25.6962 34.9921 25.6962 34.8959C25.6962 34.8505 25.8393 34.7596 26.014 34.6939C26.773 34.4088 28.3397 33.5576 29.1417 32.9947C30.8428 31.8008 32.4415 30.1022 33.4871 28.3779C34.5379 26.645 35.2687 24.7635 35.5954 22.9499C35.7709 21.976 35.8907 20.3814 35.8473 19.5951C35.8274 19.2343 35.8309 18.9373 35.855 18.935ZM23.9708 36.0313C24.1701 35.4183 24.2348 35.2914 24.3672 35.2543C24.5942 35.1906 24.6258 35.1901 24.6258 35.2504C24.6258 35.28 24.727 35.7493 24.8505 36.2931L24.8519 36.2991C25.0101 36.9949 25.0603 37.2159 24.976 37.297C24.9367 37.3348 24.8684 37.3422 24.7681 37.3531L24.7662 37.3533C24.6169 37.3696 24.5974 37.3339 24.4933 36.8527C24.367 36.2694 24.3237 36.1883 24.2577 36.4125C24.0872 36.992 23.9285 37.3374 23.8327 37.3374C23.7743 37.3374 23.5525 37.1653 23.3399 36.9548C23.1273 36.7444 22.9537 36.6014 22.9543 36.637C22.9548 36.6727 22.9989 36.8825 23.0522 37.1032C23.1883 37.6666 23.1818 37.7177 22.97 37.7593C22.8687 37.7792 22.766 37.7751 22.7415 37.7504C22.7171 37.7256 22.6045 37.2704 22.4914 36.7388C22.2758 35.7255 22.2807 35.6683 22.5817 35.6658C22.6596 35.6652 22.9173 35.8859 23.2224 36.2144L23.7328 36.7638L23.9708 36.0313ZM15.2721 36.2102C15.3489 35.9076 15.5956 35.6201 15.8876 35.493C16.321 35.3044 16.9876 35.4452 17.2945 35.7903C17.4212 35.9326 17.4212 35.9359 17.2945 36.0317C17.1244 36.1605 17.0934 36.1576 16.868 35.9909C16.7506 35.9041 16.5668 35.8458 16.396 35.8413C16.1603 35.8352 16.0859 35.8682 15.9221 36.0515C15.5853 36.4285 15.6986 36.9136 16.1692 37.1103C16.292 37.1616 16.4214 37.2036 16.4567 37.2036C16.5715 37.2036 16.7313 36.9971 16.7323 36.8476C16.734 36.6053 16.8246 36.5219 17.0301 36.5734C17.2127 36.6193 17.2151 36.6264 17.1718 36.9955C17.1476 37.2019 17.0846 37.414 17.0319 37.4668C16.9786 37.5201 16.7644 37.574 16.5493 37.5882C15.695 37.6445 15.0772 36.978 15.2721 36.2102ZM18.2061 37.8073C17.4211 37.4068 17.4158 36.2917 18.1969 35.8852C18.639 35.6551 19.1571 35.7124 19.5243 36.0319L19.7085 36.1922L19.5635 36.3391L19.4186 36.4862L19.2367 36.3431C18.945 36.1136 18.4444 36.1722 18.222 36.4618C18.1772 36.5203 18.1395 36.6973 18.1384 36.8554C18.135 37.3048 18.5365 37.6201 18.9725 37.5106C19.1198 37.4737 19.1398 37.4329 19.1398 37.1689C19.1398 36.8709 19.1412 36.8691 19.3739 36.8691C19.6351 36.8691 19.6464 36.9057 19.566 37.4917C19.5297 37.7569 19.4965 37.8082 19.3219 37.8691C18.9994 37.9815 18.4927 37.9534 18.2061 37.8073ZM20.3357 37.6286C19.8704 37.0963 20.0032 36.2498 20.6015 35.9337C20.94 35.7548 21.5113 35.7562 21.8072 35.9366L22.0326 36.074L21.8816 36.2348C21.7443 36.3809 21.7179 36.3867 21.5911 36.2978C21.1847 36.0131 20.5447 36.3665 20.5447 36.8756C20.5447 37.4186 21.1721 37.7198 21.6276 37.3955L21.8279 37.2528L21.967 37.3918C22.0856 37.5105 22.0928 37.5467 22.016 37.6392C21.6593 38.069 20.7155 38.063 20.3357 37.6286ZM5.22919 12.9128C5.12161 12.8052 4.98861 12.7172 4.93362 12.7172C4.87855 12.7172 4.79345 12.7046 4.74448 12.6891C4.53026 12.6214 4.17882 12.8301 4.05003 13.1014C3.81038 13.6064 4.15527 14.1222 4.73257 14.1222C4.9761 14.1222 5.07096 14.0849 5.22919 13.9266C5.38929 13.7665 5.42474 13.6746 5.42474 13.4197C5.42474 13.1648 5.38929 13.0729 5.22919 12.9128ZM7.49799 8.73612C7.94617 8.96794 8.01655 9.37411 7.69315 9.86243C7.57928 10.0343 7.4642 10.1749 7.43738 10.1749C7.41055 10.1749 7.14059 9.99322 6.83746 9.77117L6.28632 9.36749L6.49251 9.08703C6.82127 8.64005 7.11437 8.53776 7.49799 8.73612ZM14.4573 4.37561C14.4565 4.5794 14.4858 4.5804 14.957 4.39194L15.1564 4.31225L14.8504 3.98838L14.5444 3.66457L14.5012 3.92582C14.4775 4.06953 14.4577 4.27198 14.4573 4.37561ZM17.5628 2.92075C17.8087 3.16668 17.6384 3.52615 17.2313 3.62055C16.8346 3.71254 16.8187 3.70612 16.7733 3.43449C16.7502 3.29654 16.7134 3.11831 16.6915 3.03856C16.66 2.92403 16.6847 2.88723 16.8086 2.86368C17.1604 2.79678 17.4616 2.81959 17.5628 2.92075ZM20.3421 3.55157L20.2045 3.20033C20.0824 2.88883 19.9426 2.65401 19.9426 2.76052C19.9426 2.78166 19.8677 2.96831 19.7762 3.17531L19.6098 3.55157H19.9759H20.3421ZM31.2105 6.58634C31.5302 6.8878 31.5464 7.25483 31.2547 7.58139C30.9871 7.88084 30.6034 7.88727 30.1969 7.59905C30.0413 7.48873 29.9133 7.37412 29.9125 7.34435C29.9118 7.31458 30.0933 7.05091 30.3159 6.75841L30.3215 6.75106C30.5577 6.44074 30.6684 6.29536 30.7862 6.28938C30.89 6.2841 30.9993 6.38717 31.2049 6.58109L31.2105 6.58634ZM35.5317 11.6635C35.4587 11.544 35.3909 11.4461 35.3809 11.4461C35.371 11.4461 35.2727 11.4209 35.1625 11.3901C34.8784 11.3108 34.5668 11.4134 34.3657 11.6524C33.8765 12.2338 34.5348 13.076 35.2232 12.7493C35.6502 12.5467 35.7837 12.0769 35.5317 11.6635Z" fill="#44403D"/>
<path d="M60.22 22.5C60.22 23.2067 60.0867 23.8467 59.82 24.42C59.5667 24.9933 59.2067 25.48 58.74 25.88C58.2867 26.28 57.7467 26.5933 57.12 26.82C56.5067 27.0333 55.84 27.14 55.12 27.14C54.3733 27.14 53.6867 27.0333 53.06 26.82C52.4333 26.5933 51.8933 26.28 51.44 25.88C51 25.48 50.6533 24.9933 50.4 24.42C50.16 23.8467 50.04 23.2067 50.04 22.5V17.74C50.04 17.0467 50.16 16.4133 50.4 15.84C50.6533 15.2667 51 14.78 51.44 14.38C51.8933 13.9667 52.4333 13.6467 53.06 13.42C53.6867 13.1933 54.3733 13.08 55.12 13.08C55.8533 13.08 56.5333 13.1933 57.16 13.42C57.7867 13.6467 58.3267 13.9667 58.78 14.38C59.2333 14.78 59.5867 15.2667 59.84 15.84C60.0933 16.4133 60.22 17.0467 60.22 17.74V22.5ZM58.36 17.96C58.36 17.4 58.2733 16.92 58.1 16.52C57.9267 16.12 57.6933 15.7933 57.4 15.54C57.1067 15.2733 56.76 15.08 56.36 14.96C55.9733 14.84 55.56 14.78 55.12 14.78C54.68 14.78 54.26 14.84 53.86 14.96C53.4733 15.08 53.1333 15.2733 52.84 15.54C52.56 15.7933 52.3333 16.12 52.16 16.52C51.9867 16.92 51.9 17.4 51.9 17.96V22.28C51.9 22.84 51.9867 23.32 52.16 23.72C52.3333 24.12 52.5667 24.4467 52.86 24.7C53.1533 24.9533 53.4933 25.14 53.88 25.26C54.28 25.38 54.6933 25.44 55.12 25.44C55.56 25.44 55.9733 25.38 56.36 25.26C56.7467 25.14 57.0867 24.9533 57.38 24.7C57.6867 24.4467 57.9267 24.12 58.1 23.72C58.2733 23.32 58.36 22.84 58.36 22.28V17.96ZM68.9056 27L68.7056 25.94C68.2923 26.1933 67.9256 26.4 67.6056 26.56C67.299 26.7067 67.019 26.82 66.7656 26.9C66.5256 26.98 66.3056 27.0333 66.1056 27.06C65.919 27.0867 65.739 27.1 65.5656 27.1C64.5123 27.1 63.6923 26.7933 63.1056 26.18C62.519 25.5667 62.2256 24.6933 62.2256 23.56V17.08H63.9456V23.38C63.9456 24.1533 64.1123 24.7 64.4456 25.02C64.7923 25.3267 65.219 25.4733 65.7256 25.46C66.1256 25.46 66.5856 25.3533 67.1056 25.14C67.639 24.9267 68.1723 24.6267 68.7056 24.24V17.08H70.4256V27H68.9056ZM77.9233 18.78C77.0299 18.86 76.2899 19.02 75.7033 19.26C75.1299 19.4867 74.6899 19.7 74.3833 19.9V27H72.6633V17.08H74.1833L74.3633 18.54H74.3833C74.5566 18.3667 74.7766 18.1867 75.0433 18C75.3099 17.8133 75.5966 17.6467 75.9033 17.5C76.2099 17.34 76.5366 17.2133 76.8833 17.12C77.2299 17.0133 77.5766 16.96 77.9233 16.96V18.78ZM88.9686 14.92V27H87.1086V14.92H83.1286V13.22H92.9286V14.92H88.9686ZM101.617 23.5C101.617 24.0733 101.504 24.5867 101.277 25.04C101.064 25.48 100.764 25.8533 100.377 26.16C100.004 26.4667 99.5704 26.7 99.077 26.86C98.5837 27.02 98.057 27.1 97.497 27.1C96.9237 27.1 96.3904 27.02 95.897 26.86C95.4037 26.7 94.9704 26.4667 94.597 26.16C94.237 25.8533 93.9504 25.48 93.737 25.04C93.5237 24.5867 93.417 24.0733 93.417 23.5V20.62C93.417 20.0467 93.5237 19.54 93.737 19.1C93.9637 18.6467 94.257 18.2667 94.617 17.96C94.9904 17.64 95.4237 17.4 95.917 17.24C96.4237 17.0667 96.957 16.98 97.517 16.98C98.117 16.98 98.6637 17.0667 99.157 17.24C99.6637 17.4 100.097 17.64 100.457 17.96C100.83 18.2667 101.117 18.6467 101.317 19.1C101.517 19.54 101.617 20.0467 101.617 20.62V23.5ZM99.917 20.92C99.917 20.4933 99.8437 20.1333 99.697 19.84C99.5504 19.5333 99.357 19.2867 99.117 19.1C98.8904 18.9133 98.637 18.78 98.357 18.7C98.077 18.62 97.8037 18.58 97.537 18.58C97.257 18.58 96.977 18.62 96.697 18.7C96.417 18.78 96.157 18.9133 95.917 19.1C95.6904 19.2867 95.5037 19.5333 95.357 19.84C95.2104 20.1333 95.137 20.4933 95.137 20.92V23.16C95.137 23.5867 95.197 23.9533 95.317 24.26C95.4504 24.5533 95.6237 24.7933 95.837 24.98C96.0504 25.1667 96.3037 25.3 96.597 25.38C96.8904 25.46 97.2037 25.5 97.537 25.5C97.8037 25.5 98.077 25.46 98.357 25.38C98.637 25.3 98.8904 25.1667 99.117 24.98C99.357 24.7933 99.5504 24.5533 99.697 24.26C99.8437 23.9533 99.917 23.5867 99.917 23.16V20.92ZM103.475 27V12.68H105.175V20.48H106.635C107.048 20.48 107.421 20.4067 107.755 20.26C108.088 20.1 108.388 19.7467 108.655 19.2L109.755 17.04H111.675L110.475 19.56C110.288 19.9467 110.088 20.2733 109.875 20.54C109.661 20.8067 109.355 21.0133 108.955 21.16C109.235 21.2533 109.468 21.38 109.655 21.54C109.841 21.6867 109.995 21.8533 110.115 22.04C110.235 22.2267 110.335 22.4267 110.415 22.64C110.495 22.8533 110.568 23.0667 110.635 23.28L111.875 27H109.975L108.935 23.82C108.828 23.4867 108.708 23.2133 108.575 23C108.455 22.7733 108.315 22.6 108.155 22.48C108.008 22.3467 107.835 22.26 107.635 22.22C107.435 22.1667 107.201 22.14 106.935 22.14H105.175V27H103.475ZM114.844 22.68V23.34C114.844 23.74 114.91 24.08 115.044 24.36C115.177 24.6267 115.357 24.8533 115.584 25.04C115.824 25.2133 116.09 25.34 116.384 25.42C116.69 25.5 117.004 25.54 117.324 25.54C117.657 25.54 118.044 25.4733 118.484 25.34C118.924 25.2067 119.35 24.9467 119.764 24.56L120.844 25.74C120.337 26.26 119.77 26.62 119.144 26.82C118.53 27.0067 117.91 27.1 117.284 27.1C116.724 27.1 116.19 27.0267 115.684 26.88C115.177 26.72 114.73 26.4933 114.344 26.2C113.97 25.8933 113.67 25.5133 113.444 25.06C113.23 24.6067 113.124 24.08 113.124 23.48V20.86C113.124 20.2733 113.224 19.74 113.424 19.26C113.624 18.78 113.897 18.3733 114.244 18.04C114.604 17.7067 115.024 17.4533 115.504 17.28C115.997 17.0933 116.537 17 117.124 17C117.71 17 118.25 17.0867 118.744 17.26C119.237 17.4333 119.657 17.68 120.004 18C120.364 18.32 120.637 18.7133 120.824 19.18C121.024 19.6333 121.124 20.1467 121.124 20.72V22.68H114.844ZM119.384 20.9C119.384 20.4867 119.324 20.1333 119.204 19.84C119.084 19.5467 118.917 19.3067 118.704 19.12C118.504 18.92 118.264 18.78 117.984 18.7C117.717 18.6067 117.43 18.56 117.124 18.56C116.817 18.56 116.53 18.6067 116.264 18.7C115.997 18.7933 115.757 18.9333 115.544 19.12C115.33 19.3067 115.164 19.5467 115.044 19.84C114.924 20.12 114.864 20.4533 114.864 20.84V21.28H119.384V20.9ZM127.812 16.98C128.785 16.98 129.545 17.2867 130.092 17.9C130.638 18.5133 130.912 19.3867 130.912 20.52V27H129.192V20.74C129.192 19.9667 129.025 19.4267 128.692 19.12C128.358 18.8 127.938 18.6467 127.432 18.66C127.032 18.66 126.558 18.7667 126.012 18.98C125.478 19.18 124.958 19.44 124.452 19.76V27H122.732V17.08H124.252L124.452 18.18C124.878 17.9133 125.258 17.7 125.592 17.54C125.938 17.38 126.245 17.26 126.512 17.18C126.778 17.1 127.018 17.0467 127.232 17.02C127.445 16.9933 127.638 16.98 127.812 16.98Z" fill="#5A554F"/>
</svg>
