<svg width="132" height="30" viewBox="0 0 132 30" fill="none" xmlns="http://www.w3.org/2000/svg">
<path d="M52.8545 22.725C52.4712 23.1917 52.0462 23.5833 51.5795 23.9C51.1128 24.2 50.6295 24.45 50.1295 24.65C49.6295 24.8333 49.1212 24.9667 48.6045 25.05C48.1045 25.1333 47.6295 25.175 47.1795 25.175C46.3795 25.175 45.5795 25.0583 44.7795 24.825C43.9962 24.5917 43.2878 24.25 42.6545 23.8C42.0378 23.3333 41.5295 22.7583 41.1295 22.075C40.7462 21.375 40.5545 20.5583 40.5545 19.625V13.25C40.5545 12.3333 40.7378 11.525 41.1045 10.825C41.4878 10.1083 41.9878 9.51667 42.6045 9.05C43.2378 8.56667 43.9545 8.20833 44.7545 7.975C45.5545 7.725 46.3795 7.6 47.2295 7.6C48.2295 7.6 49.2045 7.74167 50.1545 8.025C51.1045 8.29167 51.9128 8.71667 52.5795 9.3L50.9045 11.95C50.3712 11.5 49.7795 11.1917 49.1295 11.025C48.4795 10.8417 47.8628 10.75 47.2795 10.75C46.8795 10.75 46.4795 10.8083 46.0795 10.925C45.6962 11.025 45.3462 11.2 45.0295 11.45C44.7295 11.7 44.4795 12.025 44.2795 12.425C44.0795 12.825 43.9795 13.3083 43.9795 13.875V18.9C43.9795 19.4667 44.0712 19.95 44.2545 20.35C44.4378 20.7333 44.6795 21.05 44.9795 21.3C45.2795 21.55 45.6212 21.7333 46.0045 21.85C46.3878 21.9667 46.7795 22.025 47.1795 22.025C47.5128 22.025 47.8712 21.9833 48.2545 21.9C48.6545 21.8 49.0462 21.5917 49.4295 21.275V18.4H46.9295V15.475H52.8545V22.725ZM68.0156 22.725C67.6323 23.1917 67.2073 23.5833 66.7406 23.9C66.274 24.2 65.7906 24.45 65.2906 24.65C64.7906 24.8333 64.2823 24.9667 63.7656 25.05C63.2656 25.1333 62.7906 25.175 62.3406 25.175C61.5406 25.175 60.7406 25.0583 59.9406 24.825C59.1573 24.5917 58.449 24.25 57.8156 23.8C57.199 23.3333 56.6906 22.7583 56.2906 22.075C55.9073 21.375 55.7156 20.5583 55.7156 19.625V13.25C55.7156 12.3333 55.899 11.525 56.2656 10.825C56.649 10.1083 57.149 9.51667 57.7656 9.05C58.399 8.56667 59.1156 8.20833 59.9156 7.975C60.7156 7.725 61.5406 7.6 62.3906 7.6C63.3906 7.6 64.3656 7.74167 65.3156 8.025C66.2656 8.29167 67.074 8.71667 67.7406 9.3L66.0656 11.95C65.5323 11.5 64.9406 11.1917 64.2906 11.025C63.6406 10.8417 63.024 10.75 62.4406 10.75C62.0406 10.75 61.6406 10.8083 61.2406 10.925C60.8573 11.025 60.5073 11.2 60.1906 11.45C59.8906 11.7 59.6406 12.025 59.4406 12.425C59.2406 12.825 59.1406 13.3083 59.1406 13.875V18.9C59.1406 19.4667 59.2323 19.95 59.4156 20.35C59.599 20.7333 59.8406 21.05 60.1406 21.3C60.4406 21.55 60.7823 21.7333 61.1656 21.85C61.549 21.9667 61.9406 22.025 62.3406 22.025C62.674 22.025 63.0323 21.9833 63.4156 21.9C63.8156 21.8 64.2073 21.5917 64.5906 21.275V18.4H62.0906V15.475H68.0156V22.725ZM81.0268 11.95C80.4934 11.5 79.9184 11.1917 79.3018 11.025C78.6851 10.8417 78.0851 10.75 77.5018 10.75C77.1184 10.75 76.7351 10.8083 76.3518 10.925C75.9684 11.025 75.6268 11.2 75.3268 11.45C75.0268 11.7 74.7768 12.025 74.5768 12.425C74.3934 12.825 74.3018 13.3083 74.3018 13.875V18.9C74.3018 19.4667 74.3934 19.95 74.5768 20.35C74.7768 20.7333 75.0268 21.05 75.3268 21.3C75.6434 21.55 75.9851 21.7333 76.3518 21.85C76.7351 21.9667 77.1184 22.025 77.5018 22.025C78.0851 22.025 78.6684 21.9417 79.2518 21.775C79.8518 21.6083 80.4518 21.2917 81.0518 20.825L82.6768 23.475C82.0434 24.0083 81.2684 24.425 80.3518 24.725C79.4351 25.025 78.4684 25.175 77.4518 25.175C76.6351 25.175 75.8351 25.0583 75.0518 24.825C74.2684 24.5917 73.5684 24.25 72.9518 23.8C72.3351 23.3333 71.8351 22.7583 71.4518 22.075C71.0684 21.375 70.8768 20.5583 70.8768 19.625V13.175C70.8768 12.2583 71.0601 11.4583 71.4268 10.775C71.8101 10.075 72.3018 9.49167 72.9018 9.025C73.5184 8.55833 74.2184 8.20833 75.0018 7.975C75.7851 7.74167 76.5851 7.625 77.4018 7.625C78.4018 7.625 79.3601 7.75833 80.2768 8.025C81.2101 8.29167 82.0101 8.71667 82.6768 9.3L81.0268 11.95ZM100.738 21.45H94.7381L93.6131 25H89.9631L96.0131 7.775H99.5131L105.513 25H101.788L100.738 21.45ZM95.6631 18.575H99.8131L99.1381 16.375L97.7881 11.825H97.6881L96.3631 16.3L95.6631 18.575ZM117.83 20.675C117.83 22.025 117.464 23.1167 116.73 23.95C115.997 24.7667 114.914 25.175 113.48 25.175C113.047 25.175 112.53 25.1333 111.93 25.05C111.347 24.9667 110.755 24.7667 110.155 24.45V29.95H106.98V12.65H109.905L110.155 13.775C110.855 13.3417 111.514 13.025 112.13 12.825C112.747 12.625 113.272 12.525 113.705 12.525C115.039 12.525 116.055 12.8917 116.755 13.625C117.472 14.3583 117.83 15.5 117.83 17.05V20.675ZM114.605 17.325C114.605 16.6083 114.455 16.125 114.155 15.875C113.855 15.6083 113.489 15.475 113.055 15.475C112.855 15.475 112.63 15.5083 112.38 15.575C112.147 15.625 111.897 15.7 111.63 15.8C111.364 15.9 111.105 16.0167 110.855 16.15C110.605 16.2667 110.372 16.4 110.155 16.55V21.475C110.722 21.7417 111.214 21.925 111.63 22.025C112.047 22.1083 112.447 22.15 112.83 22.15C113.314 22.1667 113.73 22.0333 114.08 21.75C114.43 21.4667 114.605 20.975 114.605 20.275V17.325ZM130.965 20.675C130.965 22.025 130.599 23.1167 129.865 23.95C129.132 24.7667 128.049 25.175 126.615 25.175C126.182 25.175 125.665 25.1333 125.065 25.05C124.482 24.9667 123.89 24.7667 123.29 24.45V29.95H120.115V12.65H123.04L123.29 13.775C123.99 13.3417 124.649 13.025 125.265 12.825C125.882 12.625 126.407 12.525 126.84 12.525C128.174 12.525 129.19 12.8917 129.89 13.625C130.607 14.3583 130.965 15.5 130.965 17.05V20.675ZM127.74 17.325C127.74 16.6083 127.59 16.125 127.29 15.875C126.99 15.6083 126.624 15.475 126.19 15.475C125.99 15.475 125.765 15.5083 125.515 15.575C125.282 15.625 125.032 15.7 124.765 15.8C124.499 15.9 124.24 16.0167 123.99 16.15C123.74 16.2667 123.507 16.4 123.29 16.55V21.475C123.857 21.7417 124.349 21.925 124.765 22.025C125.182 22.1083 125.582 22.15 125.965 22.15C126.449 22.1667 126.865 22.0333 127.215 21.75C127.565 21.4667 127.74 20.975 127.74 20.275V17.325Z" fill="#44403D"/>
<rect width="28.5" height="30" rx="5" fill="url(#paint0_linear_81_129)"/>
<g filter="url(#filter0_d_81_129)">
<path fill-rule="evenodd" clip-rule="evenodd" d="M10.7874 3.77024C10.7751 3.78457 10.7398 3.78948 10.6492 3.78948C10.5536 3.78948 10.5276 3.79341 10.5276 3.80791C10.5276 3.82202 10.5003 3.82742 10.411 3.83094C10.3164 3.83467 10.292 3.83987 10.2818 3.85857C10.2725 3.87566 10.2529 3.88159 10.2056 3.88159C10.1576 3.88159 10.142 3.88645 10.142 3.90133C10.142 3.91501 10.1286 3.92107 10.0984 3.92107C10.0707 3.92107 10.0519 3.92859 10.047 3.94164C10.0428 3.95296 10.0339 3.95879 10.0273 3.95459C10.0206 3.95039 10.0116 3.95298 10.0071 3.96034C10.0027 3.9677 9.98205 3.97371 9.96125 3.97371C9.93621 3.97371 9.92344 3.98038 9.92344 3.99345C9.92344 4.00724 9.90987 4.01319 9.87845 4.01319C9.84863 4.01319 9.83346 4.01935 9.83346 4.03147C9.83346 4.04193 9.81424 4.05343 9.78847 4.05838C9.76154 4.06355 9.74348 4.07471 9.74348 4.08616C9.74348 4.09866 9.73008 4.1053 9.70491 4.1053C9.6792 4.1053 9.66635 4.11188 9.66635 4.12504C9.66635 4.136 9.65492 4.14478 9.64064 4.14478C9.6265 4.14478 9.61493 4.1534 9.61493 4.16393C9.61493 4.17538 9.59686 4.18654 9.56993 4.19171C9.54416 4.19666 9.52494 4.20816 9.52494 4.21862C9.52494 4.22999 9.51093 4.2369 9.48788 4.2369C9.46162 4.2369 9.44885 4.24457 9.44408 4.26322C9.44039 4.27769 9.42814 4.28954 9.41688 4.28954C9.40561 4.28954 9.39639 4.29842 9.39639 4.30927C9.39639 4.32024 9.38496 4.32901 9.37068 4.32901C9.35654 4.32901 9.34497 4.33742 9.34497 4.34771C9.34497 4.35799 9.32762 4.37031 9.30641 4.37507C9.2852 4.37984 9.26784 4.39215 9.26784 4.40243C9.26784 4.41272 9.25627 4.42113 9.24213 4.42113C9.22785 4.42113 9.21642 4.42991 9.21642 4.44087C9.21642 4.45173 9.20841 4.46061 9.19864 4.46061C9.18886 4.46061 9.17783 4.47245 9.17413 4.48693C9.17044 4.5014 9.15819 4.51325 9.14693 4.51325C9.13565 4.51325 9.12644 4.52213 9.12644 4.53298C9.12644 4.54384 9.11776 4.55272 9.10716 4.55272C9.09655 4.55272 9.08787 4.56216 9.08787 4.5737C9.08787 4.58523 9.0763 4.59777 9.06216 4.60155C9.04802 4.60533 9.03645 4.61663 9.03645 4.62664C9.03645 4.63664 9.02778 4.64484 9.01717 4.64484C9.00657 4.64484 8.99789 4.65372 8.99789 4.66458C8.99789 4.67544 8.98921 4.68432 8.97861 4.68432C8.9679 4.68432 8.95932 4.69602 8.95932 4.71064C8.95932 4.72818 8.95075 4.73696 8.93361 4.73696C8.91933 4.73696 8.9079 4.74573 8.9079 4.75669C8.9079 4.76755 8.89923 4.77643 8.88862 4.77643C8.87791 4.77643 8.86934 4.78813 8.86934 4.80275C8.86934 4.81723 8.86112 4.82907 8.85107 4.82907C8.84103 4.82907 8.829 4.84684 8.82435 4.86855C8.81969 4.89026 8.80766 4.90803 8.79762 4.90803C8.78757 4.90803 8.77935 4.91987 8.77935 4.93435C8.77935 4.94882 8.77093 4.96067 8.76065 4.96067C8.74947 4.96067 8.73857 4.97915 8.73351 5.00672C8.72868 5.03311 8.71744 5.05278 8.70722 5.05278C8.69595 5.05278 8.68937 5.06735 8.68937 5.09226C8.68937 5.11858 8.68294 5.13174 8.67009 5.13174C8.65938 5.13174 8.6508 5.14344 8.6508 5.15806C8.6508 5.1756 8.64223 5.18438 8.62509 5.18438C8.60428 5.18438 8.59938 5.19315 8.59938 5.23043C8.59938 5.26259 8.59357 5.27649 8.5801 5.27649C8.56721 5.27649 8.56082 5.28969 8.56082 5.31638C8.56082 5.33938 8.5528 5.35942 8.54188 5.36371C8.53147 5.3678 8.51926 5.39131 8.51475 5.41594C8.51009 5.44134 8.49882 5.46072 8.48869 5.46072C8.47685 5.46072 8.47084 5.47625 8.47084 5.50678C8.47084 5.53702 8.46478 5.55284 8.45321 5.55284C8.44177 5.55284 8.43259 5.57588 8.42708 5.61849C8.42177 5.65946 8.41268 5.68296 8.40292 5.681C8.39216 5.67884 8.3861 5.70559 8.38347 5.76668C8.38076 5.83013 8.37477 5.8555 8.36248 5.8555C8.35073 5.8555 8.34235 5.88365 8.33603 5.94433C8.33092 5.99318 8.32019 6.03734 8.31214 6.04247C8.3039 6.04772 8.29548 6.09794 8.29283 6.15762C8.28931 6.23705 8.28367 6.26345 8.27022 6.26345C8.2432 6.26345 8.24329 12.7447 8.27031 12.7553C8.28356 12.7605 8.2895 12.7958 8.29281 12.8888C8.29615 12.9831 8.30219 13.0184 8.31658 13.0277C8.33371 13.0388 8.33371 13.0402 8.31658 13.0407C8.30137 13.0412 8.30205 13.0442 8.31979 13.0548C8.33753 13.0653 8.34229 13.0861 8.34229 13.1531C8.34229 13.2197 8.34642 13.2379 8.36157 13.2379C8.37638 13.2379 8.38085 13.2547 8.38085 13.3103C8.38085 13.3651 8.38543 13.3827 8.3997 13.3827C8.41259 13.3827 8.42122 13.4034 8.42705 13.4485C8.43259 13.4912 8.44177 13.5143 8.45321 13.5143C8.4658 13.5143 8.47084 13.5331 8.47084 13.5801C8.47084 13.6275 8.47584 13.6459 8.48869 13.6459C8.49891 13.6459 8.51015 13.6655 8.51498 13.6919C8.52003 13.7195 8.53093 13.738 8.54212 13.738C8.55492 13.738 8.56082 13.7525 8.56082 13.784C8.56082 13.8162 8.56663 13.8301 8.5801 13.8301C8.59071 13.8301 8.59938 13.8392 8.59938 13.8503C8.59938 13.8613 8.60771 13.8737 8.61788 13.8777C8.62805 13.8817 8.64008 13.9022 8.64461 13.9233C8.64915 13.9444 8.66106 13.9617 8.6711 13.9617C8.68116 13.9617 8.68937 13.9735 8.68937 13.988C8.68937 14.0025 8.69758 14.0143 8.70764 14.0143C8.71768 14.0143 8.72979 14.0325 8.73455 14.0547C8.73931 14.0769 8.75134 14.0983 8.76128 14.1022C8.77122 14.1061 8.77935 14.1169 8.77935 14.1262C8.77935 14.1355 8.78749 14.1463 8.79743 14.1502C8.80737 14.1541 8.8194 14.1755 8.82415 14.1977C8.82892 14.2199 8.84103 14.238 8.85107 14.238C8.86112 14.238 8.86934 14.2469 8.86934 14.2578C8.86934 14.2686 8.87802 14.2775 8.88862 14.2775C8.89923 14.2775 8.9079 14.287 8.9079 14.2985C8.9079 14.31 8.91947 14.3226 8.93361 14.3263C8.94775 14.3301 8.95932 14.3414 8.95932 14.3514C8.95932 14.3614 8.968 14.3696 8.97861 14.3696C8.98921 14.3696 8.99799 14.3771 8.99811 14.3861C8.99838 14.4061 9.05387 14.4618 9.07362 14.4618C9.08146 14.4618 9.08787 14.4706 9.08787 14.4815C9.08787 14.4924 9.09655 14.5012 9.10716 14.5012C9.11776 14.5012 9.12644 14.5107 9.12644 14.5222C9.12644 14.5337 9.13801 14.5463 9.15215 14.5501C9.16629 14.5538 9.17786 14.5647 9.17786 14.5741C9.17786 14.5835 9.19521 14.5952 9.21642 14.5999C9.23763 14.6047 9.25499 14.617 9.25499 14.6273C9.25499 14.6376 9.26656 14.646 9.2807 14.646C9.29498 14.646 9.30641 14.6548 9.30641 14.6657C9.30641 14.6767 9.31784 14.6855 9.33212 14.6855C9.34626 14.6855 9.35783 14.6939 9.35783 14.7042C9.35783 14.7144 9.37518 14.7268 9.39639 14.7315C9.4176 14.7363 9.43496 14.7486 9.43496 14.7589C9.43496 14.7715 9.44965 14.7776 9.47995 14.7776C9.51075 14.7776 9.52494 14.7836 9.52494 14.7967C9.52494 14.8082 9.543 14.8193 9.56993 14.8245C9.59571 14.8295 9.61493 14.841 9.61493 14.8514C9.61493 14.8615 9.6265 14.8697 9.64064 14.8697C9.65492 14.8697 9.66635 14.8785 9.66635 14.8894C9.66635 14.9025 9.67912 14.9092 9.70427 14.9092C9.72539 14.9092 9.74722 14.9183 9.75352 14.9299C9.75974 14.9412 9.78894 14.9539 9.81842 14.9579C9.8517 14.9625 9.87203 14.9721 9.87203 14.9833C9.87203 14.9955 9.88836 15.0013 9.92253 15.0013C9.95092 15.0013 9.98172 15.0102 9.99287 15.0216C10.0038 15.0328 10.0418 15.0455 10.0773 15.0498C10.1195 15.0549 10.142 15.0638 10.142 15.0755C10.142 15.0884 10.1616 15.0934 10.2127 15.0934C10.2635 15.0934 10.2834 15.0984 10.2834 15.1112C10.2834 15.1243 10.3146 15.1311 10.4014 15.1368C10.4889 15.1426 10.5223 15.1499 10.5306 15.1651C10.5402 15.1827 10.584 15.1855 10.8432 15.1855C11.1026 15.1855 11.1447 15.1883 11.1447 15.2053C11.1447 15.2195 11.1589 15.225 11.1961 15.225C11.2332 15.225 11.2475 15.2195 11.2475 15.2053C11.2475 15.1878 11.5167 15.1855 13.5929 15.1855C15.6752 15.1855 15.9395 15.1833 15.9492 15.1656C15.9569 15.1515 15.9911 15.1432 16.0655 15.1373C16.1415 15.1313 16.171 15.124 16.171 15.1112C16.171 15.0981 16.1929 15.0934 16.2549 15.0934C16.3158 15.0934 16.3408 15.0883 16.3459 15.0746C16.3505 15.0625 16.3823 15.0526 16.4355 15.0468C16.4929 15.0405 16.518 15.0322 16.518 15.0195C16.518 15.0075 16.5333 15.0013 16.563 15.0013C16.5944 15.0013 16.608 14.9953 16.608 14.9816C16.608 14.9684 16.6209 14.9618 16.647 14.9618C16.6695 14.9618 16.689 14.9536 16.6932 14.9424C16.6972 14.9318 16.7202 14.9193 16.7442 14.9147C16.7691 14.9099 16.788 14.8983 16.788 14.888C16.788 14.8759 16.8032 14.8697 16.833 14.8697C16.8638 14.8697 16.878 14.8637 16.878 14.8506C16.878 14.8391 16.896 14.8279 16.923 14.8228C16.9487 14.8178 16.968 14.8063 16.968 14.7959C16.968 14.7843 16.9822 14.7776 17.0065 14.7776C17.0317 14.7776 17.0451 14.7709 17.0451 14.7584C17.0451 14.747 17.0632 14.7358 17.0901 14.7307C17.1159 14.7257 17.1351 14.7142 17.1351 14.7037C17.1351 14.6937 17.1466 14.6855 17.1608 14.6855C17.1751 14.6855 17.1865 14.6767 17.1865 14.6657C17.1865 14.6549 17.1952 14.646 17.2058 14.646C17.2164 14.646 17.2251 14.6374 17.2251 14.6268C17.2251 14.6154 17.2431 14.6042 17.2701 14.5991C17.2958 14.5941 17.315 14.5826 17.315 14.5722C17.315 14.5621 17.3237 14.5539 17.3343 14.5539C17.3449 14.5539 17.3536 14.5457 17.3536 14.5357C17.3536 14.5257 17.3652 14.5144 17.3793 14.5106C17.3935 14.5068 17.405 14.4943 17.405 14.4827C17.405 14.4712 17.4137 14.4618 17.4243 14.4618C17.4349 14.4618 17.4436 14.4529 17.4436 14.442C17.4436 14.4312 17.4523 14.4223 17.4629 14.4223C17.4735 14.4223 17.4822 14.4128 17.4822 14.4013C17.4822 14.3898 17.4937 14.3772 17.5079 14.3735C17.522 14.3697 17.5336 14.3584 17.5336 14.3484C17.5336 14.3384 17.5423 14.3302 17.5529 14.3302C17.5635 14.3302 17.5721 14.3207 17.5721 14.3092C17.5721 14.2977 17.5837 14.2851 17.5979 14.2813C17.612 14.2776 17.6236 14.2663 17.6236 14.2562C17.6236 14.2462 17.6322 14.238 17.6428 14.238C17.6536 14.238 17.6621 14.2263 17.6621 14.2117C17.6621 14.1971 17.6707 14.1854 17.6814 14.1854C17.692 14.1854 17.7007 14.1765 17.7007 14.1655C17.7007 14.1546 17.7123 14.1355 17.7264 14.1231C17.7405 14.1107 17.7521 14.0901 17.7521 14.0772C17.7521 14.0643 17.7608 14.0538 17.7714 14.0538C17.782 14.0538 17.7907 14.0462 17.7907 14.037C17.7907 14.0277 17.8022 14.01 17.8164 13.9977C17.8305 13.9853 17.8421 13.9632 17.8421 13.9487C17.8421 13.9339 17.8506 13.9222 17.8614 13.9222C17.8749 13.9222 17.8807 13.9083 17.8807 13.8762C17.8807 13.8446 17.8866 13.8301 17.8994 13.8301C17.9105 13.8301 17.9214 13.8116 17.9265 13.784C17.9313 13.7577 17.9426 13.738 17.9528 13.738C17.9646 13.738 17.9706 13.7225 17.9706 13.6919C17.9706 13.6617 17.9767 13.6459 17.9883 13.6459C17.9997 13.6459 18.0089 13.6228 18.0144 13.5801C18.0203 13.535 18.0289 13.5143 18.0418 13.5143C18.0558 13.5143 18.0606 13.4975 18.0606 13.4485C18.0606 13.3988 18.0653 13.3827 18.0799 13.3827C18.0945 13.3827 18.0992 13.3667 18.0992 13.3175C18.0992 13.272 18.1053 13.2489 18.1194 13.2408C18.1346 13.2321 18.1414 13.1983 18.147 13.102C18.1524 13.0088 18.159 12.9747 18.1715 12.9747C18.1855 12.9747 18.1892 12.7142 18.1921 11.4921C18.1949 10.3203 18.199 10.0083 18.2117 10.004C18.2239 9.99985 18.2277 9.92914 18.2277 9.71012C18.2277 9.46252 18.225 9.4217 18.2085 9.4217C18.1932 9.4217 18.1892 9.4027 18.1892 9.32959C18.1892 9.25976 18.1849 9.23747 18.1713 9.23747C18.1611 9.23747 18.1499 9.2178 18.145 9.19141C18.14 9.16385 18.1291 9.14536 18.1179 9.14536C18.1057 9.14536 18.0992 9.13164 18.0992 9.10588C18.0992 9.08169 18.0931 9.06768 18.0834 9.06969C18.0748 9.07149 18.0657 9.05965 18.0633 9.04337C18.0604 9.02445 18.0499 9.01376 18.034 9.01376C18.0178 9.01376 18.0092 9.00467 18.0092 8.98744C18.0092 8.97282 18.0006 8.96112 17.9899 8.96112C17.9793 8.96112 17.9706 8.95224 17.9706 8.94139C17.9706 8.93042 17.9592 8.92165 17.9449 8.92165C17.9308 8.92165 17.9192 8.91324 17.9192 8.90295C17.9192 8.89267 17.9019 8.88035 17.8807 8.87559C17.8594 8.87082 17.8421 8.85851 17.8421 8.84823C17.8421 8.83564 17.8274 8.82953 17.7971 8.82953C17.7672 8.82953 17.7521 8.82339 17.7521 8.81116C17.7521 8.79367 17.6516 8.78485 17.3119 8.77252C17.2783 8.77131 17.2507 8.76439 17.2506 8.75715C17.2505 8.74992 17.2452 8.75231 17.2389 8.76247C17.2292 8.77816 17.0316 8.78074 15.9332 8.77951C14.9675 8.77843 14.6342 8.77417 14.6207 8.76271C14.6073 8.75132 14.5981 8.75117 14.5853 8.76213C14.5757 8.77025 14.5236 8.78074 14.4696 8.78541C14.3996 8.79146 14.3713 8.79904 14.3713 8.81173C14.3713 8.82152 14.3597 8.82953 14.3455 8.82953C14.3284 8.82953 14.3198 8.83831 14.3198 8.85585C14.3198 8.87047 14.3113 8.88217 14.3006 8.88217C14.29 8.88217 14.2813 8.89105 14.2813 8.90191C14.2813 8.91287 14.2698 8.92165 14.2556 8.92165C14.2384 8.92165 14.2299 8.93042 14.2299 8.94797C14.2299 8.96259 14.2213 8.97428 14.2106 8.97428C14.2 8.97428 14.1913 8.98317 14.1913 8.99402C14.1913 9.00488 14.1826 9.01376 14.172 9.01376C14.1614 9.01376 14.1527 9.0232 14.1527 9.03474C14.1527 9.04627 14.1412 9.05881 14.127 9.06258C14.1129 9.06637 14.1013 9.07766 14.1013 9.08768C14.1013 9.09768 14.0926 9.10588 14.082 9.10588C14.0714 9.10588 14.0627 9.11408 14.0627 9.12408C14.0627 9.13409 14.0512 9.14538 14.037 9.14917C14.0229 9.15295 14.0113 9.16549 14.0113 9.17702C14.0113 9.18856 14.0026 9.19799 13.992 9.19799C13.9814 9.19799 13.9728 9.20688 13.9728 9.21773C13.9728 9.22869 13.9613 9.23747 13.947 9.23747C13.9299 9.23747 13.9213 9.24625 13.9213 9.26379C13.9213 9.27841 13.9128 9.29011 13.9021 9.29011C13.8914 9.29011 13.8828 9.29899 13.8828 9.30985C13.8828 9.32081 13.8713 9.32959 13.8571 9.32959C13.8429 9.32959 13.832 9.33402 13.8329 9.33946C13.8371 9.36661 13.8295 9.38223 13.8121 9.38223C13.8015 9.38223 13.7928 9.39111 13.7928 9.40197C13.7928 9.41282 13.7841 9.4217 13.7735 9.4217C13.7629 9.4217 13.7542 9.43114 13.7542 9.44268C13.7542 9.45421 13.7427 9.46672 13.7287 9.47049C13.7146 9.47425 13.7065 9.48299 13.7107 9.48988C13.7148 9.49678 13.7061 9.50569 13.6912 9.50966C13.6764 9.51364 13.6642 9.52508 13.6642 9.5351C13.6642 9.5451 13.6556 9.5533 13.645 9.5533C13.6343 9.5533 13.6257 9.56273 13.6257 9.57427C13.6257 9.5858 13.6141 9.59834 13.6 9.60212C13.5858 9.60591 13.5743 9.6172 13.5743 9.62721C13.5743 9.63722 13.5656 9.64541 13.555 9.64541C13.5444 9.64541 13.5357 9.65361 13.5357 9.66361C13.5357 9.67363 13.5241 9.68492 13.51 9.68871C13.4958 9.69248 13.4843 9.70503 13.4843 9.71655C13.4843 9.72809 13.4756 9.73753 13.465 9.73753C13.4544 9.73753 13.4457 9.74641 13.4457 9.75727C13.4457 9.76823 13.4343 9.77701 13.42 9.77701C13.4029 9.77701 13.3943 9.78579 13.3943 9.80333C13.3943 9.81795 13.3857 9.82965 13.375 9.82965C13.3644 9.82965 13.3557 9.83853 13.3557 9.84938C13.3557 9.86024 13.347 9.86912 13.3364 9.86912C13.3258 9.86912 13.3172 9.87856 13.3172 9.8901C13.3172 9.90163 13.3056 9.91417 13.2914 9.91795C13.2773 9.92174 13.2657 9.93303 13.2657 9.94304C13.2657 9.95304 13.2571 9.96124 13.2464 9.96124C13.2358 9.96124 13.2272 9.96944 13.2272 9.97944C13.2272 9.98945 13.2156 10.0007 13.2015 10.0045C13.1873 10.0083 13.1757 10.0209 13.1757 10.0324C13.1757 10.0439 13.1671 10.0534 13.1565 10.0534C13.1459 10.0534 13.1372 10.0622 13.1372 10.0731C13.1372 10.084 13.1285 10.0928 13.1179 10.0928C13.1073 10.0928 13.0986 10.1023 13.0986 10.1138C13.0986 10.1253 13.087 10.1379 13.0729 10.1417C13.0547 10.1465 13.0472 10.1596 13.0472 10.1865C13.0472 10.2244 13.0472 10.2244 13.1308 10.2244C13.1965 10.2244 13.2143 10.2202 13.2143 10.2047C13.2143 10.1925 13.2264 10.1849 13.2461 10.1849C13.269 10.1849 13.2757 10.1904 13.2704 10.2047C13.2638 10.2222 13.4484 10.2244 14.8845 10.2244C16.314 10.2244 16.5069 10.2221 16.5134 10.2047C16.5229 10.1793 16.5566 10.179 16.5566 10.2043C16.5566 10.218 16.5699 10.2231 16.6022 10.2219C16.6323 10.2207 16.6457 10.2147 16.6417 10.204C16.6378 10.1936 16.6443 10.1903 16.6604 10.1946C16.674 10.1982 16.6852 10.2064 16.6852 10.2128C16.6852 10.2192 16.6967 10.2244 16.7109 10.2244C16.7251 10.2244 16.7366 10.2157 16.7366 10.2047C16.7366 10.1737 16.7713 10.1816 16.7799 10.2146C16.7904 10.2546 16.7902 12.2075 16.7797 12.3345C16.7738 12.4062 16.7664 12.4352 16.754 12.4352C16.741 12.4352 16.7366 12.4587 16.7366 12.5273C16.7366 12.6004 16.7326 12.6194 16.7173 12.6194C16.7027 12.6194 16.698 12.6355 16.698 12.6852C16.698 12.734 16.6932 12.751 16.6793 12.751C16.6681 12.751 16.6572 12.7695 16.6522 12.7971C16.6473 12.8235 16.6361 12.8431 16.6259 12.8431C16.614 12.8431 16.608 12.8587 16.608 12.8892C16.608 12.9207 16.6021 12.9353 16.5893 12.9353C16.5781 12.9353 16.5672 12.9538 16.5622 12.9813C16.5573 13.0077 16.5461 13.0274 16.5359 13.0274C16.5246 13.0274 16.518 13.0419 16.518 13.0669C16.518 13.0942 16.5117 13.1063 16.4975 13.1063C16.4863 13.1063 16.474 13.1182 16.4703 13.1327C16.4666 13.1471 16.4556 13.159 16.4458 13.159C16.4361 13.159 16.4281 13.1679 16.4281 13.1787C16.4281 13.1896 16.4194 13.1985 16.4088 13.1985C16.3981 13.1985 16.3895 13.2102 16.3895 13.2248C16.3895 13.2423 16.3809 13.2511 16.3638 13.2511C16.3495 13.2511 16.3381 13.2599 16.3381 13.2708C16.3381 13.2817 16.3294 13.2906 16.3188 13.2906C16.3082 13.2906 16.2995 13.2988 16.2995 13.3088C16.2995 13.3188 16.2879 13.3301 16.2738 13.3339C16.2597 13.3376 16.2481 13.3502 16.2481 13.3617C16.2481 13.3762 16.2362 13.3827 16.2095 13.3827C16.1828 13.3827 16.171 13.3891 16.171 13.4037C16.171 13.4152 16.1594 13.4277 16.1452 13.4315C16.1311 13.4353 16.1195 13.4466 16.1195 13.4566C16.1195 13.4666 16.1109 13.4748 16.1002 13.4748C16.0896 13.4748 16.081 13.4837 16.081 13.4945C16.081 13.5083 16.0674 13.5143 16.036 13.5143C16.0052 13.5143 15.991 13.5203 15.991 13.5334C15.991 13.5449 15.9729 13.556 15.946 13.5612C15.9202 13.5662 15.901 13.5777 15.901 13.5881C15.901 13.6002 15.8858 13.6064 15.856 13.6064C15.8246 13.6064 15.811 13.6123 15.811 13.6261C15.811 13.6392 15.7982 13.6459 15.7731 13.6459C15.751 13.6459 15.7301 13.6551 15.7231 13.668C15.7145 13.6837 15.6884 13.6917 15.6325 13.6959C15.582 13.6996 15.5539 13.7075 15.5539 13.7179C15.5539 13.7292 15.5104 13.7367 15.4095 13.743C15.3301 13.748 15.2595 13.7577 15.2527 13.7647C15.2365 13.7813 11.2519 13.7822 11.2419 13.7657C11.238 13.7592 11.157 13.7496 11.062 13.7444C10.9333 13.7373 10.8874 13.7303 10.8823 13.7167C10.8776 13.704 10.8521 13.6985 10.798 13.6985C10.7398 13.6985 10.7205 13.6939 10.7205 13.6799C10.7205 13.6685 10.7006 13.6579 10.669 13.6525C10.6374 13.647 10.6176 13.6364 10.6176 13.625C10.6176 13.6131 10.6037 13.6064 10.579 13.6064C10.5547 13.6064 10.5405 13.5997 10.5405 13.5881C10.5405 13.5777 10.5213 13.5662 10.4955 13.5612C10.4686 13.556 10.4505 13.5449 10.4505 13.5334C10.4505 13.5209 10.4371 13.5143 10.4115 13.5143C10.3888 13.5143 10.3695 13.5061 10.3652 13.4945C10.3611 13.4837 10.3497 13.4748 10.3399 13.4748C10.33 13.4748 10.3219 13.4654 10.3219 13.4538C10.3219 13.4423 10.3104 13.4298 10.2962 13.426C10.2821 13.4222 10.2705 13.4109 10.2705 13.4009C10.2705 13.3909 10.2617 13.3827 10.2508 13.3827C10.24 13.3827 10.2278 13.3738 10.2238 13.3629C10.2197 13.3521 10.2083 13.3432 10.1985 13.3432C10.1886 13.3432 10.1805 13.3343 10.1805 13.3235C10.1805 13.3126 10.1719 13.3037 10.1613 13.3037C10.1506 13.3037 10.142 13.292 10.142 13.2774C10.142 13.2621 10.1334 13.2511 10.1215 13.2511C10.1102 13.2511 10.098 13.2392 10.0943 13.2248C10.0906 13.2103 10.0796 13.1985 10.0698 13.1985C10.06 13.1985 10.052 13.1896 10.052 13.1787C10.052 13.1679 10.0433 13.159 10.0327 13.159C10.022 13.159 10.0134 13.1473 10.0134 13.1327C10.0134 13.1182 10.0052 13.1063 9.99516 13.1063C9.98512 13.1063 9.97309 13.0886 9.96844 13.0669C9.96378 13.0451 9.95175 13.0274 9.94171 13.0274C9.93166 13.0274 9.92344 13.0155 9.92344 13.0011C9.92344 12.9866 9.91502 12.9747 9.90474 12.9747C9.89356 12.9747 9.88266 12.9563 9.8776 12.9287C9.87277 12.9023 9.86154 12.8826 9.85132 12.8826C9.83948 12.8826 9.83346 12.8671 9.83346 12.8366C9.83346 12.8044 9.82765 12.7905 9.81418 12.7905C9.8014 12.7905 9.7949 12.7774 9.7949 12.7517C9.7949 12.729 9.78591 12.7077 9.77332 12.7005C9.75796 12.6917 9.75011 12.665 9.74607 12.6077C9.74233 12.5548 9.73484 12.5273 9.72414 12.5273C9.71247 12.5273 9.70643 12.4897 9.70265 12.3933C9.69916 12.3046 9.69216 12.2576 9.68186 12.2541C9.65922 12.2464 9.65922 6.86024 9.68186 6.85251C9.69216 6.849 9.69916 6.80204 9.70265 6.71325C9.70667 6.61053 9.71205 6.57927 9.72568 6.57927C9.739 6.57927 9.74348 6.5579 9.74348 6.49439C9.74348 6.43014 9.74849 6.40663 9.76412 6.39769C9.77654 6.39057 9.78744 6.36147 9.7915 6.32465C9.79587 6.28496 9.80443 6.26345 9.81585 6.26345C9.82741 6.26345 9.83346 6.24762 9.83346 6.21739C9.83346 6.18637 9.83942 6.17133 9.85173 6.17133C9.86177 6.17133 9.8738 6.15357 9.87845 6.13185C9.88311 6.11014 9.89514 6.09237 9.90518 6.09237C9.91523 6.09237 9.92344 6.08053 9.92344 6.06606C9.92344 6.05158 9.93148 6.03974 9.9413 6.03974C9.95152 6.03974 9.96276 6.02006 9.96759 5.99368C9.97264 5.96611 9.98354 5.94762 9.99473 5.94762C10.005 5.94762 10.0134 5.93874 10.0134 5.92788C10.0134 5.91703 10.0221 5.90814 10.0327 5.90814C10.0434 5.90814 10.052 5.89644 10.052 5.88182C10.052 5.8672 10.0606 5.8555 10.0713 5.8555C10.0819 5.8555 10.0906 5.84662 10.0906 5.83577C10.0906 5.8248 10.102 5.81603 10.1163 5.81603C10.1334 5.81603 10.142 5.80725 10.142 5.78971C10.142 5.77509 10.1506 5.76339 10.1613 5.76339C10.1719 5.76339 10.1805 5.75451 10.1805 5.74365C10.1805 5.73269 10.192 5.72391 10.2063 5.72391C10.2205 5.72391 10.232 5.71513 10.232 5.70417C10.232 5.69332 10.2406 5.68443 10.2512 5.68443C10.262 5.68443 10.2705 5.67273 10.2705 5.65811C10.2705 5.64057 10.2791 5.6318 10.2962 5.6318C10.3105 5.6318 10.3219 5.62302 10.3219 5.61206C10.3219 5.59907 10.3346 5.59232 10.359 5.59232C10.3853 5.59232 10.398 5.58464 10.4028 5.566C10.4065 5.55152 10.4187 5.53968 10.43 5.53968C10.4413 5.53968 10.4505 5.5308 10.4505 5.51994C10.4505 5.50615 10.4641 5.5002 10.4955 5.5002C10.5258 5.5002 10.5405 5.49409 10.5405 5.4815C10.5405 5.47122 10.5573 5.45903 10.578 5.45438C10.5986 5.44975 10.6187 5.43743 10.6226 5.42702C10.6266 5.41631 10.6466 5.40809 10.6686 5.40809C10.6947 5.40809 10.7076 5.40155 10.7076 5.38835C10.7076 5.37461 10.7211 5.36861 10.7519 5.36861C10.7801 5.36861 10.8007 5.36054 10.8084 5.34653C10.817 5.3308 10.8431 5.32276 10.899 5.31863C10.9507 5.3148 10.9776 5.30713 10.9776 5.29618C10.9776 5.28503 11.0054 5.27774 11.062 5.27406C11.1171 5.27046 11.1504 5.26194 11.1579 5.24949C11.1679 5.23295 11.5973 5.22996 14.4093 5.22689C17.2607 5.22377 17.6493 5.22101 17.6493 5.20386C17.6493 5.19185 17.6616 5.18438 17.6814 5.18438C17.7014 5.18438 17.7135 5.17691 17.7135 5.16464C17.7135 5.15378 17.7222 5.1449 17.7328 5.1449C17.7435 5.1449 17.7521 5.1332 17.7521 5.11858C17.7521 5.10396 17.7607 5.09226 17.7714 5.09226C17.782 5.09226 17.7907 5.08338 17.7907 5.07252C17.7907 5.06156 17.8021 5.05278 17.8164 5.05278C17.8335 5.05278 17.8421 5.044 17.8421 5.02646C17.8421 5.01184 17.8507 5.00014 17.8614 5.00014C17.872 5.00014 17.8807 4.99126 17.8807 4.9804C17.8807 4.96955 17.8893 4.96067 17.8999 4.96067C17.9105 4.96067 17.9192 4.95123 17.9192 4.93969C17.9192 4.92816 17.9308 4.91562 17.9449 4.91184C17.9591 4.90805 17.9706 4.89676 17.9706 4.88675C17.9706 4.87675 17.9793 4.86855 17.9899 4.86855C18.0005 4.86855 18.0092 4.86035 18.0092 4.85035C18.0092 4.84034 18.0208 4.82905 18.0349 4.82526C18.0491 4.82148 18.0606 4.80894 18.0606 4.79741C18.0606 4.78587 18.0693 4.77643 18.0799 4.77643C18.0905 4.77643 18.0992 4.76824 18.0992 4.75823C18.0992 4.74822 18.1108 4.73693 18.1249 4.73314C18.139 4.72936 18.1506 4.71682 18.1506 4.70529C18.1506 4.69375 18.1593 4.68432 18.1699 4.68432C18.1805 4.68432 18.1892 4.67544 18.1892 4.66458C18.1892 4.65362 18.2006 4.64484 18.2149 4.64484C18.2292 4.64484 18.2406 4.63606 18.2406 4.6251C18.2406 4.61424 18.2493 4.60536 18.2599 4.60536C18.2706 4.60536 18.2792 4.59366 18.2792 4.57904C18.2792 4.56442 18.2877 4.55272 18.2984 4.55272C18.3091 4.55272 18.3177 4.54384 18.3177 4.53298C18.3177 4.52202 18.3292 4.51325 18.3434 4.51325C18.3606 4.51325 18.3691 4.50447 18.3691 4.48693C18.3691 4.47231 18.3777 4.46061 18.3884 4.46061C18.399 4.46061 18.4077 4.45241 18.4077 4.44241C18.4077 4.43239 18.4193 4.4211 18.4334 4.41731C18.4476 4.41354 18.4591 4.401 18.4591 4.38947C18.4591 4.37793 18.4678 4.36849 18.4784 4.36849C18.489 4.36849 18.4977 4.35961 18.4977 4.34875C18.4977 4.3379 18.5064 4.32901 18.517 4.32901C18.5276 4.32901 18.5363 4.31958 18.5363 4.30804C18.5363 4.29651 18.5478 4.28397 18.562 4.28019C18.5761 4.2764 18.5877 4.26511 18.5877 4.2551C18.5877 4.2451 18.5964 4.2369 18.607 4.2369C18.6176 4.2369 18.6262 4.22802 18.6262 4.21716C18.6262 4.2062 18.6377 4.19742 18.652 4.19742C18.6691 4.19742 18.6777 4.18864 18.6777 4.1711C18.6777 4.15648 18.6862 4.14478 18.6969 4.14478C18.7076 4.14478 18.7162 4.13658 18.7162 4.12658C18.7162 4.11657 18.7278 4.10528 18.7419 4.10149C18.7561 4.09771 18.7677 4.08517 18.7677 4.07364C18.7677 4.0621 18.7763 4.05267 18.7869 4.05267C18.7975 4.05267 18.8062 4.04378 18.8062 4.03293C18.8062 4.02207 18.8149 4.01319 18.8255 4.01319C18.8361 4.01319 18.8448 4.00375 18.8448 3.99221C18.8448 3.98068 18.8564 3.96814 18.8705 3.96437C18.8846 3.96058 18.8962 3.94929 18.8962 3.93927C18.8962 3.92927 18.9049 3.92107 18.9155 3.92107C18.9261 3.92107 18.9348 3.91287 18.9348 3.90287C18.9348 3.89286 18.9463 3.88157 18.9605 3.87778C18.9746 3.874 18.9862 3.86146 18.9862 3.84993C18.9862 3.83839 18.9949 3.82896 19.0055 3.82896C19.0183 3.82896 19.0248 3.8158 19.0248 3.78948V3.75L14.9144 3.7505C11.3248 3.75093 10.8019 3.75343 10.7874 3.77024ZM19.1662 5.07252C19.1662 5.08348 19.1547 5.09226 19.1404 5.09226C19.1259 5.09226 19.1147 5.10104 19.1147 5.11241C19.1147 5.1235 19.1061 5.13598 19.0955 5.14013C19.0848 5.1443 19.0762 5.15596 19.0762 5.16604C19.0762 5.17612 19.0646 5.18438 19.0505 5.18438C19.0363 5.18438 19.0248 5.19257 19.0248 5.20257C19.0248 5.21259 19.0132 5.22388 18.999 5.22767C18.9849 5.23145 18.9733 5.24399 18.9733 5.25552C18.9733 5.26706 18.9647 5.27649 18.954 5.27649C18.9434 5.27649 18.9348 5.28537 18.9348 5.29623C18.9348 5.30709 18.9261 5.31597 18.9155 5.31597C18.9049 5.31597 18.8962 5.32417 18.8962 5.33417C18.8962 5.34418 18.8846 5.35547 18.8705 5.35926C18.8564 5.36304 18.8448 5.37558 18.8448 5.38711C18.8448 5.39865 18.8361 5.40809 18.8255 5.40809C18.8149 5.40809 18.8062 5.41628 18.8062 5.42628C18.8062 5.4363 18.7946 5.44759 18.7805 5.45138C18.7664 5.45516 18.7548 5.4677 18.7548 5.47923C18.7548 5.49077 18.7461 5.5002 18.7355 5.5002C18.7249 5.5002 18.7162 5.50908 18.7162 5.51994C18.7162 5.5308 18.7082 5.53968 18.6985 5.53968C18.6887 5.53968 18.6776 5.55152 18.6739 5.566C18.6702 5.58047 18.658 5.59232 18.6467 5.59232C18.6355 5.59232 18.6262 5.6012 18.6262 5.61206C18.6262 5.62291 18.6176 5.6318 18.607 5.6318C18.5964 5.6318 18.5877 5.63999 18.5877 5.64999C18.5877 5.66001 18.5761 5.6713 18.562 5.67509C18.5478 5.67887 18.5363 5.69141 18.5363 5.70293C18.5363 5.71448 18.5276 5.72391 18.517 5.72391C18.5064 5.72391 18.4977 5.73211 18.4977 5.74211C18.4977 5.75212 18.4861 5.76342 18.472 5.7672C18.4578 5.77098 18.4463 5.78352 18.4463 5.79505C18.4463 5.80659 18.4376 5.81603 18.427 5.81603C18.4164 5.81603 18.4077 5.82491 18.4077 5.83577C18.4077 5.84662 18.399 5.8555 18.3884 5.8555C18.3778 5.8555 18.3691 5.86494 18.3691 5.87648C18.3691 5.88801 18.3576 5.90055 18.3434 5.90433C18.3293 5.90812 18.3177 5.91941 18.3177 5.92942C18.3177 5.93942 18.3091 5.94762 18.2984 5.94762C18.2878 5.94762 18.2792 5.95582 18.2792 5.96582C18.2792 5.97583 18.2676 5.98713 18.2535 5.99092C18.2393 5.99469 18.2277 6.00723 18.2277 6.01876C18.2277 6.0303 18.2191 6.03974 18.2085 6.03974C18.1979 6.03974 18.1892 6.04794 18.1892 6.05794C18.1892 6.06795 18.1776 6.07924 18.1635 6.08303C18.1493 6.08681 18.1378 6.09935 18.1378 6.11088C18.1378 6.12242 18.1291 6.13185 18.1185 6.13185C18.1079 6.13185 18.0992 6.14074 18.0992 6.15159C18.0992 6.16245 18.0905 6.17133 18.0799 6.17133C18.0693 6.17133 18.0606 6.17953 18.0606 6.18953C18.0606 6.19954 18.0491 6.21083 18.0349 6.21462C18.0208 6.2184 18.0092 6.23094 18.0092 6.24247C18.0092 6.25401 18.0005 6.26345 17.9899 6.26345C17.9793 6.26345 17.9706 6.27164 17.9706 6.28165C17.9706 6.29166 17.9591 6.30295 17.9449 6.30674C17.9308 6.31052 17.9192 6.32306 17.9192 6.33459C17.9192 6.34613 17.9105 6.35556 17.8999 6.35556C17.8893 6.35556 17.8807 6.36444 17.8807 6.3753C17.8807 6.38616 17.8727 6.39504 17.8629 6.39504C17.8531 6.39504 17.8421 6.40688 17.8384 6.42136C17.8347 6.43583 17.8221 6.44768 17.8103 6.44768C17.7941 6.44768 17.79 6.45775 17.7931 6.49045L17.7971 6.53321L18.938 6.53657C19.9402 6.53953 20.0789 6.54232 20.0789 6.5596C20.0789 6.57331 20.0925 6.57927 20.1238 6.57927C20.1553 6.57927 20.1688 6.58522 20.1688 6.59901C20.1688 6.60987 20.1775 6.61875 20.1881 6.61875C20.1988 6.61875 20.2074 6.63045 20.2074 6.64507C20.2074 6.66261 20.216 6.67139 20.2331 6.67139C20.2554 6.67139 20.2588 6.68017 20.2588 6.73719C20.2588 6.7869 20.2635 6.80298 20.2781 6.80298C20.2951 6.80298 20.2974 6.9397 20.2974 7.95443C20.2974 8.86692 20.3007 9.10584 20.3135 9.10569C20.3509 9.10529 20.3874 9.08836 20.3874 9.07144C20.3874 9.06144 20.3961 9.05324 20.4067 9.05324C20.4173 9.05324 20.4259 9.04436 20.4259 9.0335C20.4259 9.02254 20.4374 9.01376 20.4517 9.01376C20.4688 9.01376 20.4774 9.00498 20.4774 8.98744C20.4774 8.97282 20.4859 8.96112 20.4966 8.96112C20.5072 8.96112 20.5159 8.95224 20.5159 8.94139C20.5159 8.93042 20.5274 8.92165 20.5416 8.92165C20.5588 8.92165 20.5673 8.91287 20.5673 8.89533C20.5673 8.88071 20.5759 8.86901 20.5866 8.86901C20.5972 8.86901 20.6059 8.86013 20.6059 8.84927C20.6059 8.83841 20.6146 8.82953 20.6252 8.82953C20.6358 8.82953 20.6445 8.82065 20.6445 8.80979C20.6445 8.79883 20.6559 8.79005 20.6702 8.79005C20.6873 8.79005 20.6959 8.78128 20.6959 8.76373C20.6959 8.74911 20.7045 8.73741 20.7152 8.73741C20.7258 8.73741 20.7345 8.72853 20.7345 8.71768C20.7345 8.70671 20.7459 8.69794 20.7602 8.69794C20.7773 8.69794 20.7859 8.68916 20.7859 8.67162C20.7859 8.657 20.7945 8.6453 20.8052 8.6453C20.8158 8.6453 20.8244 8.6371 20.8244 8.6271C20.8244 8.61709 20.8366 8.60564 20.8515 8.60166C20.8674 8.59739 20.8748 8.58832 20.8694 8.5795C20.8641 8.57069 20.8715 8.56162 20.8874 8.55734C20.9023 8.55337 20.9144 8.54192 20.9144 8.5319C20.9144 8.5219 20.9231 8.5137 20.9337 8.5137C20.9443 8.5137 20.953 8.50482 20.953 8.49397C20.953 8.483 20.9644 8.47423 20.9787 8.47423C20.9958 8.47423 21.0044 8.46545 21.0044 8.44791C21.0044 8.43329 21.013 8.42159 21.0237 8.42159C21.0343 8.42159 21.043 8.41271 21.043 8.40185C21.043 8.39089 21.0544 8.38211 21.0687 8.38211C21.0858 8.38211 21.0944 8.37333 21.0944 8.35579C21.0944 8.34117 21.103 8.32947 21.1137 8.32947C21.1243 8.32947 21.133 8.32127 21.133 8.31127C21.133 8.30126 21.1445 8.28997 21.1587 8.28618C21.1728 8.2824 21.1844 8.26986 21.1844 8.25833C21.1844 8.24679 21.1931 8.23736 21.2037 8.23736C21.2143 8.23736 21.2229 8.22848 21.2229 8.21762C21.2229 8.20676 21.2316 8.19788 21.2422 8.19788C21.2528 8.19788 21.2615 8.189 21.2615 8.17814C21.2615 8.16718 21.2729 8.1584 21.2872 8.1584C21.3044 8.1584 21.3129 8.14962 21.3129 8.13208C21.3129 8.11746 21.3215 8.10576 21.3322 8.10576C21.3428 8.10576 21.3515 8.09688 21.3515 8.08602C21.3515 8.07506 21.3629 8.06629 21.3772 8.06629C21.3943 8.06629 21.4029 8.05751 21.4029 8.03997C21.4029 8.02535 21.4115 8.01365 21.4222 8.01365C21.4328 8.01365 21.4415 8.00477 21.4415 7.99391C21.4415 7.98305 21.4502 7.97417 21.4608 7.97417C21.4714 7.97417 21.48 7.96529 21.48 7.95443C21.48 7.94347 21.4915 7.93469 21.5058 7.93469C21.5229 7.93469 21.5315 7.92591 21.5315 7.90837C21.5315 7.89375 21.54 7.88205 21.5507 7.88205C21.5614 7.88205 21.57 7.87317 21.57 7.86231C21.57 7.85135 21.5815 7.84258 21.5957 7.84258C21.6129 7.84258 21.6215 7.8338 21.6215 7.81626C21.6215 7.80164 21.63 7.78994 21.6407 7.78994C21.6513 7.78994 21.66 7.78105 21.66 7.7702C21.66 7.75934 21.6681 7.75046 21.6779 7.75046C21.6976 7.75046 21.7114 7.72281 21.7114 7.68358C21.7114 7.6697 21.7201 7.65834 21.7307 7.65834C21.7477 7.65834 21.75 7.53917 21.75 6.66481C21.75 5.79044 21.7477 5.67127 21.7307 5.67127C21.7166 5.67127 21.7114 5.65621 21.7113 5.61535C21.711 5.54038 21.6994 5.5002 21.6778 5.5002C21.666 5.5002 21.66 5.48458 21.66 5.45414C21.66 5.42198 21.6542 5.40809 21.6407 5.40809C21.63 5.40809 21.6215 5.39639 21.6215 5.38177C21.6215 5.36729 21.6132 5.35545 21.6032 5.35545C21.5931 5.35545 21.5811 5.33768 21.5765 5.31597C21.5718 5.29426 21.5598 5.27649 21.5497 5.27649C21.5397 5.27649 21.5315 5.26761 21.5315 5.25675C21.5315 5.2459 21.5222 5.23701 21.511 5.23701C21.4997 5.23701 21.4875 5.22517 21.4838 5.21069C21.479 5.19205 21.4662 5.18438 21.44 5.18438C21.4169 5.18438 21.4029 5.17747 21.4029 5.1661C21.4029 5.15564 21.3837 5.14413 21.3579 5.13919C21.331 5.13401 21.3129 5.12286 21.3129 5.11141C21.3129 5.09697 21.2955 5.09226 21.2422 5.09226C21.188 5.09226 21.1715 5.08768 21.1715 5.07252C21.1715 5.05514 21.0516 5.05278 20.1688 5.05278C19.2861 5.05278 19.1662 5.05514 19.1662 5.07252ZM11.7231 6.28166C11.7231 6.29434 11.6978 6.30264 11.6396 6.30902C11.5802 6.31553 11.556 6.32357 11.556 6.33688C11.556 6.34946 11.5413 6.35556 11.511 6.35556C11.4812 6.35556 11.466 6.36172 11.466 6.37384C11.466 6.3843 11.4468 6.3958 11.421 6.40075C11.3941 6.40592 11.3761 6.41708 11.3761 6.42853C11.3761 6.44164 11.3619 6.44768 11.3311 6.44768C11.2996 6.44768 11.2861 6.45363 11.2861 6.46742C11.2861 6.47827 11.2772 6.48716 11.2664 6.48716C11.2556 6.48716 11.2435 6.49568 11.2396 6.50609C11.2357 6.5165 11.2156 6.52882 11.195 6.53345C11.1744 6.5381 11.1575 6.55029 11.1575 6.56057C11.1575 6.57086 11.1483 6.57927 11.137 6.57927C11.1258 6.57927 11.1135 6.59112 11.1098 6.60559C11.1061 6.62007 11.0951 6.63191 11.0853 6.63191C11.0755 6.63191 11.0675 6.64079 11.0675 6.65165C11.0675 6.66251 11.0595 6.67139 11.0498 6.67139C11.04 6.67139 11.0289 6.68323 11.0252 6.69771C11.0216 6.71218 11.0093 6.72403 10.998 6.72403C10.9838 6.72403 10.9776 6.73616 10.9776 6.7635C10.9776 6.79085 10.9713 6.80298 10.9571 6.80298C10.9458 6.80298 10.9335 6.81483 10.9299 6.8293C10.9262 6.84378 10.9155 6.85562 10.9062 6.85562C10.8969 6.85562 10.8874 6.8719 10.8852 6.89181C10.8829 6.91217 10.8741 6.92656 10.8651 6.92471C10.8556 6.92277 10.849 6.93501 10.849 6.95432C10.849 6.97355 10.8416 6.98721 10.8312 6.98721C10.8117 6.98721 10.798 7.02627 10.7978 7.08262C10.7976 7.1044 10.7906 7.11881 10.78 7.11881C10.7686 7.11881 10.76 7.14024 10.7557 7.17966C10.752 7.21312 10.7413 7.24534 10.732 7.25124C10.7203 7.2586 10.7134 7.30367 10.7098 7.39437C10.7058 7.49576 10.7004 7.52675 10.6868 7.52675C10.6718 7.52675 10.669 7.82956 10.669 9.50724C10.669 11.2589 10.6713 11.4877 10.6883 11.4877C10.7031 11.4877 10.7076 11.5043 10.7076 11.5583C10.7076 11.6705 10.7218 11.7509 10.7415 11.7509C10.7534 11.7509 10.759 11.7679 10.759 11.8036C10.759 11.8416 10.7644 11.8562 10.7783 11.8562C10.7912 11.8562 10.7976 11.8694 10.7976 11.8961C10.7976 11.9186 10.8056 11.9391 10.8161 11.9432C10.8262 11.9472 10.8383 11.9678 10.8428 11.9889C10.8473 12.01 10.8593 12.0273 10.8693 12.0273C10.8794 12.0273 10.8876 12.0386 10.8876 12.0525C10.8876 12.0917 10.9014 12.1194 10.9211 12.1194C10.9309 12.1194 10.939 12.1319 10.939 12.1471C10.939 12.1663 10.9449 12.1725 10.9583 12.1673C10.9714 12.1621 10.9776 12.168 10.9776 12.1856C10.9776 12.1998 10.9858 12.2115 10.9958 12.2115C11.0059 12.2115 11.0179 12.2293 11.0225 12.251C11.0272 12.2727 11.0392 12.2905 11.0493 12.2905C11.0593 12.2905 11.0675 12.3 11.0675 12.3116C11.0675 12.3249 11.0746 12.33 11.0867 12.3252C11.0972 12.3211 11.1049 12.3219 11.1039 12.3271C11.0999 12.3472 11.1226 12.3826 11.1396 12.3826C11.1495 12.3826 11.1575 12.3944 11.1575 12.4089C11.1575 12.4302 11.1661 12.4352 11.2025 12.4352C11.2339 12.4352 11.2475 12.4412 11.2475 12.4549C11.2475 12.4658 11.2562 12.4747 11.2668 12.4747C11.2774 12.4747 11.2861 12.4833 11.2861 12.4938C11.2861 12.5053 11.3041 12.5164 11.3311 12.5216C11.3568 12.5266 11.3761 12.5381 11.3761 12.5485C11.3761 12.56 11.3902 12.5668 11.414 12.5668C11.4354 12.5668 11.4569 12.576 11.4635 12.5879C11.4704 12.6006 11.4988 12.6118 11.5348 12.616C11.5702 12.62 11.5946 12.6295 11.5946 12.6392C11.5946 12.6504 11.6279 12.6575 11.7 12.6618C11.7632 12.6655 11.8074 12.6741 11.8103 12.6832C11.8178 12.706 14.714 12.705 14.7215 12.6821C14.7249 12.6716 14.7636 12.6642 14.8318 12.661C14.9059 12.6576 14.9369 12.6512 14.9369 12.6394C14.9369 12.6283 14.9633 12.6206 15.0154 12.6168C15.0714 12.6126 15.0974 12.6046 15.106 12.5889C15.1131 12.576 15.1339 12.5668 15.1561 12.5668C15.1812 12.5668 15.194 12.5601 15.194 12.5471C15.194 12.5361 15.2054 12.5273 15.2197 12.5273C15.2338 12.5273 15.2454 12.5187 15.2454 12.5082C15.2454 12.4967 15.2635 12.4856 15.2904 12.4804C15.3162 12.4754 15.3354 12.4639 15.3354 12.4535C15.3354 12.4419 15.3496 12.4352 15.3739 12.4352C15.4007 12.4352 15.4125 12.4288 15.4125 12.4142C15.4125 12.4027 15.4241 12.3902 15.4382 12.3864C15.4524 12.3826 15.4639 12.3713 15.4639 12.3613C15.4639 12.3513 15.4726 12.3431 15.4832 12.3431C15.4938 12.3431 15.5025 12.3355 15.5025 12.3263C15.5025 12.317 15.5141 12.2993 15.5282 12.2869C15.5423 12.2745 15.5539 12.2525 15.5539 12.2379C15.5539 12.2232 15.5624 12.2115 15.5732 12.2115C15.5838 12.2115 15.5925 12.1999 15.5925 12.1857C15.5925 12.1715 15.6035 12.1493 15.6171 12.1363C15.6306 12.1234 15.6436 12.095 15.646 12.0733C15.6485 12.0505 15.6571 12.0352 15.6664 12.0371C15.6771 12.0393 15.6825 12.0229 15.6825 11.9878C15.6825 11.9511 15.688 11.9352 15.7007 11.9352C15.7138 11.9352 15.7216 11.9099 15.7282 11.8469C15.7333 11.7983 15.7453 11.7505 15.755 11.7406C15.768 11.7272 15.7724 11.6765 15.7724 11.5394C15.7724 11.3853 15.7694 11.3561 15.7532 11.3561C15.7397 11.3561 15.7339 11.3422 15.7339 11.3101V11.264H14.1013C12.7269 11.264 12.4687 11.2612 12.4687 11.246C12.4687 11.2342 12.4461 11.2249 12.404 11.2191C12.3647 11.2138 12.3425 11.2051 12.3475 11.1968C12.3519 11.1894 12.3435 11.18 12.3286 11.1761C12.3138 11.1721 12.3016 11.1606 12.3016 11.1506C12.3016 11.1406 12.29 11.1324 12.2759 11.1324C12.2588 11.1324 12.2502 11.1236 12.2502 11.1061C12.2502 11.0915 12.2416 11.0798 12.2309 11.0798C12.2203 11.0798 12.2116 11.0709 12.2116 11.0601C12.2116 11.0492 12.2032 11.0403 12.1929 11.0403C12.1817 11.0403 12.1708 11.0218 12.1658 10.9943C12.161 10.9679 12.1497 10.9482 12.1395 10.9482C12.1261 10.9482 12.1216 10.9269 12.1216 10.8627C12.1216 10.7954 12.1175 10.7771 12.1024 10.7771C12.0854 10.7771 12.0831 10.641 12.0831 9.63139C12.0831 8.86677 12.0875 8.47719 12.0964 8.4602C12.1056 8.44266 12.1056 8.43475 12.0964 8.43475C12.0885 8.43475 12.0831 8.39736 12.0831 8.34263C12.0831 8.26952 12.0871 8.25052 12.1024 8.25052C12.1177 8.25052 12.1216 8.23151 12.1216 8.1584C12.1216 8.08529 12.1256 8.06629 12.1409 8.06629C12.1543 8.06629 12.1602 8.05256 12.1602 8.02177C12.1602 7.9883 12.1666 7.97553 12.1859 7.97035C12.203 7.96577 12.2116 7.9524 12.2116 7.93039C12.2116 7.90433 12.2198 7.89546 12.2502 7.88863C12.2714 7.88387 12.2888 7.87155 12.2888 7.86127C12.2888 7.85098 12.3003 7.84258 12.3145 7.84258C12.3286 7.84258 12.3402 7.83435 12.3402 7.8243C12.3402 7.81384 12.3594 7.80233 12.3852 7.79739C12.4121 7.79221 12.4302 7.78105 12.4302 7.76961C12.4302 7.75428 12.4532 7.75046 12.5459 7.75046C12.6316 7.75046 12.6607 7.7462 12.6583 7.73401C12.6558 7.72096 12.9138 7.717 13.9085 7.71484C14.5978 7.71335 15.1806 7.70864 15.2036 7.70438C15.2281 7.69984 15.2454 7.68872 15.2454 7.67749C15.2454 7.66696 15.2541 7.65834 15.2647 7.65834C15.2753 7.65834 15.284 7.64946 15.284 7.6386C15.284 7.62764 15.2954 7.61887 15.3097 7.61887C15.3268 7.61887 15.3354 7.61009 15.3354 7.59255C15.3354 7.57793 15.344 7.56623 15.3547 7.56623C15.3653 7.56623 15.3739 7.55735 15.3739 7.54649C15.3739 7.53563 15.3826 7.52675 15.3932 7.52675C15.4038 7.52675 15.4125 7.51731 15.4125 7.50577C15.4125 7.49425 15.4241 7.4817 15.4382 7.47793C15.4524 7.47414 15.4639 7.46285 15.4639 7.45283C15.4639 7.44283 15.4726 7.43463 15.4832 7.43463C15.4938 7.43463 15.5025 7.42575 15.5025 7.41489C15.5025 7.40393 15.5139 7.39516 15.5282 7.39516C15.5453 7.39516 15.5539 7.38638 15.5539 7.36884C15.5539 7.35422 15.5625 7.34252 15.5732 7.34252C15.5838 7.34252 15.5925 7.33364 15.5925 7.32278C15.5925 7.31182 15.6039 7.30304 15.6182 7.30304C15.6353 7.30304 15.6439 7.29426 15.6439 7.27672C15.6439 7.2621 15.6525 7.2504 15.6632 7.2504C15.6738 7.2504 15.6825 7.24152 15.6825 7.23066C15.6825 7.21981 15.6911 7.21092 15.7017 7.21092C15.7124 7.21092 15.721 7.20149 15.721 7.18995C15.721 7.17842 15.7326 7.16588 15.7467 7.1621C15.7609 7.15831 15.7724 7.14702 15.7724 7.13701C15.7724 7.12701 15.7811 7.11881 15.7917 7.11881C15.8023 7.11881 15.811 7.11061 15.811 7.10061C15.811 7.09059 15.8226 7.0793 15.8367 7.07551C15.8509 7.07174 15.8624 7.0592 15.8624 7.04767C15.8624 7.03613 15.8711 7.02669 15.8817 7.02669C15.8923 7.02669 15.901 7.01781 15.901 7.00695C15.901 6.99599 15.9124 6.98721 15.9267 6.98721C15.9437 6.98721 15.9524 6.97844 15.9524 6.9613C15.9524 6.94368 15.9586 6.93783 15.9717 6.94297C15.9851 6.94824 15.991 6.94206 15.991 6.92282C15.991 6.90388 15.9991 6.8951 16.0167 6.8951C16.031 6.8951 16.0424 6.88632 16.0424 6.87536C16.0424 6.8645 16.0511 6.85562 16.0617 6.85562C16.0724 6.85562 16.081 6.84392 16.081 6.8293C16.081 6.81468 16.0895 6.80298 16.1002 6.80298C16.1109 6.80298 16.1195 6.79478 16.1195 6.78478C16.1195 6.77477 16.1311 6.76348 16.1452 6.75969C16.1594 6.75591 16.171 6.74337 16.171 6.73184C16.171 6.7203 16.1796 6.71087 16.1902 6.71087C16.2008 6.71087 16.2095 6.70198 16.2095 6.69113C16.2095 6.68027 16.2182 6.67139 16.2288 6.67139C16.2394 6.67139 16.2481 6.66195 16.2481 6.65041C16.2481 6.63888 16.2597 6.62634 16.2738 6.62257C16.2879 6.61878 16.2995 6.60749 16.2995 6.59747C16.2995 6.58747 16.3082 6.57927 16.3188 6.57927C16.3294 6.57927 16.3381 6.57039 16.3381 6.55953C16.3381 6.54857 16.3495 6.53979 16.3638 6.53979C16.3809 6.53979 16.3895 6.53102 16.3895 6.51348C16.3895 6.49886 16.3981 6.48716 16.4088 6.48716C16.4194 6.48716 16.4281 6.47827 16.4281 6.46742C16.4281 6.45646 16.4395 6.44768 16.4538 6.44768C16.4709 6.44768 16.4795 6.4389 16.4795 6.42136C16.4795 6.40674 16.488 6.39504 16.4988 6.39504C16.5094 6.39504 16.518 6.38616 16.518 6.3753C16.518 6.36444 16.526 6.35556 16.5358 6.35556C16.5523 6.35556 16.5689 6.31819 16.5693 6.2799C16.5694 6.26679 16.0764 6.26345 14.1463 6.26345C12.0916 6.26345 11.7231 6.26621 11.7231 6.28166Z" fill="#D8D8D8"/>
</g>
<path d="M9.37514 24.546H6.49514L5.95514 26.25H4.20314L7.10714 17.982H8.78714L11.6671 26.25H9.87914L9.37514 24.546ZM6.93914 23.166H8.93114L8.60714 22.11L7.95914 19.926H7.91114L7.27514 22.074L6.93914 23.166ZM17.5795 24.174C17.5795 24.822 17.4035 25.346 17.0515 25.746C16.6995 26.138 16.1795 26.334 15.4915 26.334C15.2835 26.334 15.0355 26.314 14.7475 26.274C14.4675 26.234 14.1835 26.138 13.8955 25.986V28.626H12.3715V20.322H13.7755L13.8955 20.862C14.2315 20.654 14.5475 20.502 14.8435 20.406C15.1395 20.31 15.3915 20.262 15.5995 20.262C16.2395 20.262 16.7275 20.438 17.0635 20.79C17.4075 21.142 17.5795 21.69 17.5795 22.434V24.174ZM16.0315 22.566C16.0315 22.222 15.9595 21.99 15.8155 21.87C15.6715 21.742 15.4955 21.678 15.2875 21.678C15.1915 21.678 15.0835 21.694 14.9635 21.726C14.8515 21.75 14.7315 21.786 14.6035 21.834C14.4755 21.882 14.3515 21.938 14.2315 22.002C14.1115 22.058 13.9995 22.122 13.8955 22.194V24.558C14.1675 24.686 14.4035 24.774 14.6035 24.822C14.8035 24.862 14.9955 24.882 15.1795 24.882C15.4115 24.89 15.6115 24.826 15.7795 24.69C15.9475 24.554 16.0315 24.318 16.0315 23.982V22.566ZM23.8842 24.174C23.8842 24.822 23.7082 25.346 23.3562 25.746C23.0042 26.138 22.4842 26.334 21.7962 26.334C21.5882 26.334 21.3402 26.314 21.0522 26.274C20.7722 26.234 20.4882 26.138 20.2002 25.986V28.626H18.6762V20.322H20.0802L20.2002 20.862C20.5362 20.654 20.8522 20.502 21.1482 20.406C21.4442 20.31 21.6962 20.262 21.9042 20.262C22.5442 20.262 23.0322 20.438 23.3682 20.79C23.7122 21.142 23.8842 21.69 23.8842 22.434V24.174ZM22.3362 22.566C22.3362 22.222 22.2642 21.99 22.1202 21.87C21.9762 21.742 21.8002 21.678 21.5922 21.678C21.4962 21.678 21.3882 21.694 21.2682 21.726C21.1562 21.75 21.0362 21.786 20.9082 21.834C20.7802 21.882 20.6562 21.938 20.5362 22.002C20.4162 22.058 20.3042 22.122 20.2002 22.194V24.558C20.4722 24.686 20.7082 24.774 20.9082 24.822C21.1082 24.862 21.3002 24.882 21.4842 24.882C21.7162 24.89 21.9162 24.826 22.0842 24.69C22.2522 24.554 22.3362 24.318 22.3362 23.982V22.566Z" fill="#D8D8D8"/>
<defs>
<filter id="filter0_d_81_129" x="5.658" y="3.75" width="18.684" height="16.6591" filterUnits="userSpaceOnUse" color-interpolation-filters="sRGB">
<feFlood flood-opacity="0" result="BackgroundImageFix"/>
<feColorMatrix in="SourceAlpha" type="matrix" values="0 0 0 0 0 0 0 0 0 0 0 0 0 0 0 0 0 0 127 0" result="hardAlpha"/>
<feOffset dy="2.592"/>
<feGaussianBlur stdDeviation="1.296"/>
<feComposite in2="hardAlpha" operator="out"/>
<feColorMatrix type="matrix" values="0 0 0 0 0 0 0 0 0 0 0 0 0 0 0 0 0 0 0.25 0"/>
<feBlend mode="normal" in2="BackgroundImageFix" result="effect1_dropShadow_81_129"/>
<feBlend mode="normal" in="SourceGraphic" in2="effect1_dropShadow_81_129" result="shape"/>
</filter>
<linearGradient id="paint0_linear_81_129" x1="28.125" y1="0.375001" x2="-1.61827e-06" y2="30" gradientUnits="userSpaceOnUse">
<stop stop-color="#343434"/>
<stop offset="1"/>
</linearGradient>
</defs>
</svg>
