<svg width="113" height="30" viewBox="0 0 113 30" fill="none" xmlns="http://www.w3.org/2000/svg">
<path fill-rule="evenodd" clip-rule="evenodd" d="M70.7946 5.55241C72.6776 5.95863 74.0138 6.79956 74.6404 7.97257C74.9912 8.62959 75.2947 9.90724 75.2922 10.7161C75.2882 11.9251 74.8177 13.4627 74.245 14.138C73.6261 14.8678 73.0709 15.3122 72.3566 15.6497C70.8706 16.3516 70.444 16.435 68.0172 16.4983L65.7953 16.5564L65.7674 20.0179C65.7521 21.9218 65.7395 23.5423 65.7396 23.619C65.7397 23.7209 65.4547 23.7586 64.6843 23.7586H63.6289V14.5376V5.31669L66.8785 5.36259C68.937 5.39173 70.3724 5.46129 70.7946 5.55241ZM65.766 11.0859C65.7498 9.12114 65.7608 7.45045 65.7902 7.37318C65.8632 7.18212 68.9614 7.19306 70.017 7.38802C71.957 7.74645 72.9056 8.72194 73.0387 10.4954C73.1398 11.8445 72.6863 13.1368 71.9108 13.709C70.9767 14.3983 70.1132 14.5907 67.7922 14.627L65.7953 14.6581L65.766 11.0859Z" fill="#D8D8D8"/>
<path fill-rule="evenodd" clip-rule="evenodd" d="M85.0457 9.85252C86.6054 9.96396 87.7152 10.651 88.2898 11.8612C88.7742 12.8814 88.8603 14.0797 88.8234 19.2921L88.7923 23.7028H88.0171H87.2418L87.0362 22.81C86.9232 22.3189 86.8134 21.9 86.7925 21.8789C86.7715 21.8578 86.5696 22.0459 86.3438 22.2972C85.3106 23.4465 84.1413 23.9749 82.4301 24.0658C81.5672 24.1116 81.2706 24.0793 80.597 23.8664C80.1551 23.7267 79.7146 23.5448 79.618 23.4621C79.5216 23.3795 79.3884 23.312 79.322 23.312C79.0855 23.312 78.2971 22.2735 78.0629 21.6534C77.8861 21.1853 77.8227 20.7606 77.8169 20.0044C77.8102 19.1176 77.8475 18.9071 78.1062 18.3756C78.2698 18.0398 78.5162 17.6405 78.6541 17.4881C78.9639 17.1457 79.7917 16.5005 79.9206 16.5009C79.9729 16.501 80.2156 16.405 80.4601 16.2874C81.2175 15.9229 82.381 15.7245 84.4441 15.6078C85.5354 15.5461 86.4978 15.4956 86.5827 15.4956C86.7812 15.4956 86.7972 14.0014 86.6058 13.3311C86.1431 11.7111 84.6063 11.1227 82.3279 11.6931C81.3239 11.9444 80.5059 12.2279 80.3545 12.3769C80.0919 12.6354 79.8958 12.4545 79.6094 11.6893L79.3141 10.9007L79.8316 10.6776C80.9077 10.2138 81.7138 9.98059 82.682 9.85341C83.2319 9.78105 83.7818 9.7365 83.904 9.75437C84.0263 9.77223 84.54 9.81645 85.0457 9.85252ZM80.9348 17.9905C81.641 17.449 82.4441 17.2595 84.6262 17.1197C85.6955 17.0512 86.6079 17.0124 86.6537 17.0335C86.781 17.0924 86.7528 18.6476 86.6124 19.3146C86.3564 20.5305 85.7257 21.3535 84.6526 21.8725C83.9513 22.2116 83.8258 22.235 82.6639 22.2428C81.459 22.2509 81.4098 22.2416 80.9419 21.9147C80.2266 21.4152 79.9316 20.768 79.9921 19.8316C80.0492 18.9476 80.284 18.4894 80.9348 17.9905Z" fill="#D8D8D8"/>
<path d="M93.2608 10.2754C93.3699 10.6124 93.9226 12.0671 95.3076 15.6631C96.1519 17.8552 97.2912 21.2036 97.2912 21.4926C97.2912 22.0755 97.4943 21.6322 98.1596 19.5966C98.5456 18.4158 98.9992 17.0728 99.1675 16.6122C99.3358 16.1516 99.9429 14.4558 100.516 12.8436L101.559 9.91248H102.66C103.656 9.91248 103.755 9.93113 103.704 10.1079C103.647 10.3042 103.275 11.3218 102.653 12.9832C97.1121 27.7789 97.5077 26.7774 96.7505 27.9284C95.6216 29.6445 94.0086 30.2798 91.7733 29.8885L91.0698 29.7655V28.9344V28.1033L91.4649 28.1779C92.6914 28.4091 93.7054 28.2088 94.4898 27.5804C95.0688 27.1164 95.453 26.4602 96.008 24.987L96.4303 23.8664L93.7338 17.0848C92.2506 13.355 91.0137 10.2154 90.9849 10.1079C90.9378 9.93135 91.0396 9.91248 92.0381 9.91248H93.1433L93.2608 10.2754Z" fill="#D8D8D8"/>
<path fill-rule="evenodd" clip-rule="evenodd" d="M109.935 0.104742C111.415 0.474344 112.411 1.71938 112.494 3.30331C112.581 4.98182 111.727 6.2312 110.109 6.79085C109.325 7.06185 108.827 7.06644 108.119 6.80906C106.946 6.38284 106.446 5.95094 105.947 4.93224C105.583 4.19013 105.57 2.84471 105.918 2.08251C106.635 0.513095 108.296 -0.304611 109.935 0.104742ZM107.158 1.55378C107.444 1.2687 107.904 0.951138 108.179 0.848185C108.828 0.604985 109.085 0.603759 109.882 0.839925C110.682 1.07698 111.396 1.72764 111.682 2.48092C111.991 3.29382 111.864 4.30558 111.361 5.03664C110.908 5.69678 110.677 5.87053 109.901 6.13517C109.192 6.37681 108.973 6.38005 108.321 6.1584C106.274 5.46151 105.662 3.04156 107.158 1.55378Z" fill="#D8D8D8"/>
<path fill-rule="evenodd" clip-rule="evenodd" d="M109.938 1.90016C110.575 2.22509 110.642 3.10009 110.067 3.58649L109.75 3.8547L110.002 4.23156C110.141 4.43891 110.343 4.74665 110.451 4.9156L110.648 5.22267L110.219 5.21955C109.812 5.21653 109.766 5.17868 109.345 4.49843C109.016 3.96692 108.836 3.77921 108.651 3.77575C108.417 3.77139 108.401 3.81729 108.401 4.49686V5.22267H108.068H107.734L107.734 3.46399L107.734 1.70531L108.706 1.73658C109.241 1.75377 109.795 1.82735 109.938 1.90016ZM109.058 3.10109C108.402 3.10109 108.401 3.10053 108.401 2.7661C108.401 2.4348 108.407 2.43111 109.008 2.43111C109.474 2.43111 109.638 2.47656 109.715 2.62652C109.901 2.98965 109.747 3.10109 109.058 3.10109Z" fill="#D8D8D8"/>
<path d="M12.4626 5.40994C14.0951 5.81873 15.0779 6.26438 16.1431 7.07907C16.5751 7.40959 17.0452 7.81471 17.1877 7.97941L17.4468 8.27888L16.6799 8.99564C16.258 9.38981 15.6806 9.93339 15.3965 10.2034C15.1124 10.4735 14.832 10.6945 14.7733 10.6945C14.7146 10.6945 14.4971 10.5192 14.2899 10.3049C14.0828 10.0906 13.8508 9.91473 13.7744 9.91406C13.698 9.91339 13.6355 9.8751 13.6355 9.82887C13.6355 9.73653 12.9408 9.37083 12.2468 9.09782C10.6949 8.48736 8.18354 8.73658 6.71673 9.64663C4.15873 11.2338 3.42682 15.2533 5.21126 17.9151C5.55321 18.4251 6.40888 19.2893 6.57375 19.2912C6.63085 19.2919 6.78083 19.3837 6.90704 19.4951C7.44775 19.9729 8.9601 20.3609 10.1915 20.3374C11.0072 20.322 11.9139 20.1395 12.8023 19.8121L13.2467 19.6483L13.2764 16.9581L13.3062 14.2677H15.1928H17.0795V17.9449V21.6222L16.72 21.881C16.3117 22.175 16.1374 22.2757 15.3575 22.6686C12.7803 23.9665 9.27973 24.2812 6.58086 23.4573C5.71386 23.1926 4.52868 22.6436 4.1835 22.3465C4.08707 22.2636 3.95542 22.1957 3.89098 22.1957C3.82665 22.1957 3.32606 21.7561 2.77868 21.2186C1.6175 20.0788 0.881037 18.9125 0.469535 17.5617C-0.568108 14.1561 0.137353 10.673 2.3554 8.25085C2.7879 7.77852 3.8931 6.86736 4.35637 6.60138C5.64865 5.85905 7.25766 5.33178 8.5806 5.21732C9.77489 5.11392 11.6525 5.20716 12.4626 5.40994Z" fill="#44403D"/>
<path d="M31.4282 5.45495C31.8349 5.57309 32.2212 5.66967 32.2867 5.66967C32.4897 5.66967 34.1072 6.46314 34.6073 6.80795C34.8683 6.98795 35.3307 7.36571 35.635 7.64733C36.1638 8.13697 36.3061 8.39914 36.0871 8.47987C36.0316 8.50031 35.4771 8.99441 34.855 9.57785C34.2328 10.1613 33.678 10.6555 33.622 10.6762C33.5659 10.6968 33.2696 10.4872 32.9633 10.2105C31.7005 9.06934 29.8446 8.5692 27.9114 8.84914C26.3672 9.0728 25.5106 9.48026 24.5877 10.4304C23.9374 11.0999 23.3895 12.1005 23.1826 12.9965C22.9771 13.8866 23.0308 15.5545 23.2922 16.3973C23.6542 17.5646 24.5157 18.7362 25.4814 19.3742C26.4254 19.998 28.2974 20.4823 29.2667 20.3537C30.032 20.2521 31.2791 19.9744 31.5 19.8562C31.6038 19.8007 31.7761 19.7282 31.8831 19.6949C32.0612 19.6395 32.0775 19.409 32.0775 16.9485V14.2624L33.994 14.2929L35.9104 14.3235V18.0069V21.6902L35.6326 21.8367C35.4799 21.9172 35.2049 22.0794 35.0216 22.1971C32.136 24.0503 27.4845 24.4508 24.4119 23.1109C23.1736 22.5709 21.7366 21.5548 21.099 20.7687C20.8966 20.5192 20.6161 20.1806 20.4757 20.0164C20.0329 19.4984 19.3047 17.8716 19.0629 16.8603C18.7705 15.637 18.7476 13.5958 19.0127 12.3844C19.3375 10.8999 20.1571 9.29366 21.1202 8.2533C21.5141 7.82787 22.9139 6.67463 23.0363 6.67463C23.0805 6.67463 23.1957 6.60808 23.2921 6.52679C23.5124 6.3411 24.9205 5.76202 25.8006 5.49514C27.14 5.08903 30.0957 5.06793 31.4282 5.45495Z" fill="#44403D"/>
<path d="M50.1863 5.46422C51.0383 5.69178 51.2866 5.78714 52.2201 6.24518C53.1288 6.69083 53.2179 6.75346 54.0705 7.54649L54.8995 8.31741L54.0757 9.0872C52.8215 10.2592 52.7942 10.2847 52.4802 10.574L52.1869 10.8442L51.7747 10.4299C51.2932 9.94589 50.2722 9.24286 50.0509 9.24286C49.9664 9.24286 49.8431 9.18825 49.7767 9.12148C49.7103 9.05471 49.2003 8.93166 48.6435 8.84813C44.8266 8.27497 41.9068 10.7505 41.9223 14.5468C41.9339 17.4445 43.5868 19.5794 46.2979 20.1988C48.0847 20.6069 49.8981 20.1727 51.3405 18.991C51.7002 18.6962 52.0578 18.4081 52.1351 18.3508C52.2335 18.2777 52.4326 18.3944 52.8016 18.7416C53.4945 19.3935 53.832 19.7072 54.3899 20.2179C54.8323 20.623 54.8447 20.6521 54.6817 20.9021C54.4885 21.1984 53.6544 21.94 53.0748 22.3307C51.1265 23.6441 48.1711 24.2111 45.5758 23.7693C44.7335 23.626 43.6168 23.3085 43.2077 23.0962C43.1048 23.0429 42.791 22.8812 42.5106 22.737C40.2628 21.5814 38.6259 19.504 37.9489 16.9476C37.6342 15.7595 37.6085 13.5344 37.8955 12.3327C38.4029 10.2082 39.4597 8.55055 41.1577 7.21563C41.9216 6.61511 43.6597 5.66967 43.9999 5.66967C44.0875 5.66967 44.378 5.5885 44.6453 5.48923C45.7113 5.09372 48.7479 5.07999 50.1863 5.46422Z" fill="#44403D"/>
</svg>
