<svg width="120" height="30" viewBox="0 0 120 30" fill="none" xmlns="http://www.w3.org/2000/svg">
<path fill-rule="evenodd" clip-rule="evenodd" d="M5.63893 0.0674137C4.45134 0.315133 3.55147 0.736931 2.47659 1.54968C1.23705 2.48707 0.347339 4.00786 0.0952844 5.62027C0.00943454 6.1693 -0.0152356 8.84166 0.00861156 15.0086L0.0419999 23.6294L0.332205 24.4247C1.18801 26.7693 2.98972 28.3817 5.34831 28.914C5.99446 29.0597 6.99034 29.0824 12.771 29.0824C20.2109 29.0824 20.1449 29.0878 21.7156 28.3454C22.6685 27.8951 24.2721 26.3184 24.7065 25.4047C25.4639 23.8117 25.4281 24.1172 25.4654 18.9555L25.4993 14.2815L25.2635 13.8758C25.1338 13.6527 24.8961 13.3723 24.7351 13.2526C24.4504 13.0409 24.3232 13.0343 20.0094 13.006L15.5763 12.9769L13.8736 14.6679L12.171 16.3588L17.2256 16.3858L22.2801 16.4127V18.8288C22.2801 20.9531 22.2542 21.3385 22.0654 22.0216C21.6419 23.5533 20.7776 24.5823 19.2999 25.3139L18.5066 25.7067H12.7466H6.98682L6.20919 25.3293C4.72486 24.6088 3.81348 23.5575 3.41067 22.1016C3.21212 21.3839 3.20237 21.0392 3.20237 14.7659C3.20237 7.36417 3.18982 7.50615 3.95843 6.21323C4.66296 5.02833 5.28215 4.47432 6.34657 4.07672L7.25028 3.73916L15.6725 3.73884L24.0946 3.73864L25.9588 1.86926L27.8229 0L16.8347 0.012045C10.7911 0.0186924 5.75298 0.0435246 5.63893 0.0674137ZM29.3574 2.49963C29.3441 3.81737 29.2976 4.95708 29.2542 5.03228C29.2106 5.10758 28.1837 5.48722 26.9718 5.87599C25.7601 6.26475 24.7685 6.61654 24.7685 6.65788C24.7685 6.69922 24.9667 6.76653 25.2088 6.80756C25.577 6.86987 28.0569 7.69716 29.0436 8.08697L29.3269 8.19884L29.3547 10.6667L29.3824 13.1346L29.7218 12.6046C29.9085 12.3132 30.1577 11.9635 30.2757 11.8278C30.3937 11.692 30.8628 11.0552 31.3182 10.4126L32.1463 9.24414L32.5789 9.31269C32.8167 9.35029 33.8442 9.67747 34.862 10.0396C35.88 10.4018 36.7544 10.6982 36.8055 10.6982C36.8894 10.6982 36.6333 10.3212 35.9039 9.37169C35.7604 9.18483 35.3365 8.57722 34.962 8.02143C34.5873 7.46565 34.2191 6.96055 34.1434 6.89906C34.0334 6.80963 34.119 6.61779 34.5714 5.941C34.8823 5.47558 35.1369 5.06375 35.1369 5.02574C35.1369 4.98783 35.3827 4.64777 35.6832 4.27001C36.6666 3.03401 36.921 2.68742 36.8768 2.64317C36.8528 2.61918 35.8567 2.93005 34.6631 3.33388C33.4695 3.73771 32.4341 4.07589 32.3621 4.08545C32.2377 4.10186 31.4151 2.99143 30.0913 1.02017C29.7585 0.524419 29.4626 0.115501 29.4339 0.111346C29.405 0.107191 29.3706 1.18199 29.3574 2.49963ZM9.11233 6.44039C7.88202 6.66328 7.02187 7.33176 6.49629 8.47335C6.26114 8.98416 6.26103 8.98614 6.26103 14.4892C6.26103 19.6321 6.27399 20.0315 6.45834 20.5621C6.6965 21.2477 7.4648 22.0611 8.23102 22.439L8.74943 22.6946H12.7412H16.7331L17.196 22.4474C17.9034 22.0697 18.503 21.5213 18.7938 20.9862C19.0414 20.5305 19.3045 19.3848 19.1883 19.2684C19.159 19.2391 17.1895 19.2151 14.8116 19.2151C10.5314 19.2151 10.4853 19.2128 10.2019 18.9896C10.0445 18.8655 9.8293 18.5734 9.72364 18.3405C9.54956 17.9563 9.53162 17.6069 9.53162 14.5931C9.53162 11.5879 9.54987 11.2296 9.72209 10.854C9.94864 10.3598 10.1799 10.1383 10.6939 9.9231C11.012 9.78995 11.6623 9.76336 14.5941 9.76336H18.1125L19.7816 8.09247C20.6996 7.17357 21.4507 6.40673 21.4507 6.38845C21.4507 6.31274 9.54023 6.3628 9.11233 6.44039ZM30.9845 14.9876C30.08 15.2447 29.4522 15.7726 28.9975 16.6584C28.6921 17.253 28.6853 18.4563 28.9835 19.1166C29.2936 19.8031 29.7819 20.3093 30.4522 20.6391C30.9648 20.8912 31.163 20.9289 31.9767 20.9289C32.8261 20.9289 32.9762 20.8972 33.6097 20.5848L34.3074 20.2408V19.0528V17.8649H33.6853H33.0632V18.6856V19.5064L32.7367 19.6204C31.8478 19.9309 30.6395 19.5193 30.3135 18.7951C30.0516 18.2131 30.1337 17.134 30.4671 16.7785C30.8963 16.3208 31.5526 16.0685 32.1787 16.1206C32.6726 16.1616 32.8587 16.2425 33.4379 16.6681C33.5388 16.7423 33.6888 16.6597 33.9927 16.3624L34.4093 15.9549L34.1769 15.7051C33.541 15.0218 32.046 14.6858 30.9845 14.9876ZM37.6771 14.9437C36.8128 15.1737 35.9748 15.8666 35.5626 16.6922C35.2552 17.3079 35.2547 18.5805 35.5618 19.1648C35.8713 19.7535 36.4529 20.3315 37.055 20.6487C37.5056 20.886 37.6955 20.9212 38.5066 20.9181C39.6278 20.9137 40.1571 20.7094 40.8048 20.0311C41.4804 19.3235 41.7035 18.8004 41.7035 17.9238C41.7035 17.3511 41.6476 17.0657 41.4624 16.6943C41.1424 16.0525 40.4817 15.3935 39.9063 15.1426C39.3957 14.9198 38.1756 14.8109 37.6771 14.9437ZM59.4749 14.9592C58.5556 15.1916 57.7829 15.8234 57.3296 16.7135C57.0141 17.3332 57.0325 18.5341 57.3677 19.1967C57.6643 19.7832 58.3989 20.4911 58.9512 20.7228C59.9075 21.1242 61.4606 20.9775 62.3279 20.4041L62.7167 20.147V19.0059C62.7167 18.3194 62.6754 17.862 62.613 17.8575C62.556 17.8533 62.2877 17.8466 62.0168 17.8423L61.5243 17.8347L61.4939 18.6359L61.4635 19.4372L61.1084 19.5858C60.5828 19.8058 60.0236 19.7673 59.4278 19.4698C58.8363 19.1745 58.6183 18.9068 58.5133 18.3468C58.393 17.7038 58.5424 17.085 58.9036 16.7313C59.6116 16.0379 60.6768 15.9229 61.4772 16.4535L61.893 16.7292L62.303 16.3882C62.5285 16.2006 62.7138 15.9911 62.7148 15.9227C62.7173 15.758 62.1316 15.3165 61.6344 15.1085C61.148 14.9048 60.0033 14.8258 59.4749 14.9592ZM42.8094 17.9168V20.877H44.9868H47.1642V20.3057V19.7345H45.6607H44.1573V17.3455V14.9566H43.4834H42.8094V17.9168ZM47.9936 17.9269V20.8971L49.834 20.8586C51.4228 20.8253 51.7381 20.7906 52.141 20.6053C52.776 20.313 53.208 19.9282 53.5578 19.3431C53.8225 18.9005 53.8517 18.7585 53.8517 17.9168C53.8517 17.014 53.8386 16.9617 53.4668 16.3888C52.7137 15.2283 51.9869 14.9566 49.6361 14.9566H47.9936V17.9269ZM63.9633 16.8003C63.9663 18.8793 64.0441 19.3605 64.4804 19.9958C65.3261 21.2271 67.6678 21.3047 68.6677 20.1344C69.1801 19.5347 69.2487 19.1576 69.2487 16.944V14.9566H68.5748H67.9008V16.968C67.9008 18.8106 67.8837 19.0012 67.697 19.239C67.2199 19.8464 66.2439 19.8881 65.6813 19.3249L65.3606 19.0039L65.3268 16.9803L65.2929 14.9566H64.6269H63.9609L63.9633 16.8003ZM72.2115 15.4504C72.1018 15.7215 71.8334 16.3261 71.6153 16.7939C71.3971 17.2617 71.2187 17.6684 71.2187 17.6977C71.2187 17.7268 70.9454 18.349 70.6113 19.0802C69.7223 21.0262 69.7295 20.877 70.5242 20.877H71.1917L71.4614 20.2538L71.7312 19.6306H73.085H74.4388L74.7086 20.2538L74.9784 20.877H75.6854H76.3923L76.2313 20.4875C76.1427 20.2733 75.9615 19.8643 75.8286 19.5787C75.426 18.7138 74.4427 16.5101 74.1024 15.7097L73.7821 14.9566L73.0965 14.9571L72.4111 14.9574L72.2115 15.4504ZM77.025 17.9168V20.877H77.6989H78.3729V20.0461V19.2151H79.0337H79.6946L80.2392 20.0461L80.7837 20.877H81.5026C82.0491 20.877 82.2031 20.8458 82.1454 20.7471C81.8516 20.2453 81.2206 19.3484 81.085 19.2396C80.9407 19.1239 80.9673 19.0703 81.309 18.7881C82.3742 17.9085 82.3786 16.3707 81.3183 15.4952C80.7885 15.0576 80.2663 14.9566 78.5343 14.9566H77.025V17.9168ZM84.8301 15.7097C84.4797 16.5279 83.3594 19.0524 82.8481 20.1759L82.5289 20.877H83.2418H83.9549L84.1966 20.2512L84.4383 19.6254L85.8214 19.654L87.2044 19.6825L87.445 20.2538L87.6854 20.825L88.3689 20.8558C88.8351 20.8767 89.0523 20.8483 89.0523 20.7662C89.0523 20.7 88.8449 20.1954 88.5914 19.6449C87.631 17.5587 86.5639 15.1404 86.5639 15.0503C86.5639 14.9988 86.2463 14.9566 85.8582 14.9566H85.1525L84.8301 15.7097ZM89.778 17.9116V20.877H90.4495H91.121L91.1494 19.0994L91.1778 17.3219L91.902 18.2425C92.3003 18.7489 92.6581 19.1775 92.6971 19.195C92.736 19.2125 93.0546 19.5981 93.4051 20.0519L94.0423 20.877H94.606H95.1696V17.9168V14.9566H94.4956H93.8217L93.8168 16.7483L93.812 18.54L93.5317 18.1812C93.3775 17.9837 93.0182 17.5484 92.733 17.2139C92.4479 16.8792 91.9299 16.2461 91.5818 15.807L90.949 15.0086L90.3635 14.9774L89.778 14.9463V17.9116ZM95.9991 15.5279V16.0992H96.9322H97.8654V18.4881V20.877H98.5393H99.2132V18.4881V16.0992H100.146H101.08V15.5279V14.9566H98.5393H95.9991V15.5279ZM101.909 17.9168V20.877H104.19H106.471V20.3057V19.7345H104.864H103.257V19.1113V18.4881H104.605H105.953V17.9168V17.3455H104.605H103.257V16.7224V16.0992H104.812H106.367V15.5279V14.9566H104.138H101.909V17.9168ZM107.612 17.9168V20.877H109.893H112.174V20.3057V19.7345H110.567H108.959V19.1113V18.4881H110.307H111.655V17.9168V17.3455H110.307H108.959V16.7224V16.0992H110.515H112.07V15.5279V14.9566H109.841H107.612V17.9168ZM113.314 17.9067V20.877H114.954C117.277 20.877 118.038 20.5978 118.82 19.4592C119.122 19.0201 119.165 18.8679 119.205 18.1046C119.245 17.3326 119.222 17.1869 118.974 16.679C118.658 16.0322 118.148 15.5418 117.467 15.2298C117.059 15.0428 116.747 15.0085 115.155 14.975L113.314 14.9365V17.9067ZM39.2098 16.2419C39.974 16.5689 40.321 17.0951 40.321 17.9269C40.321 18.5994 40.0926 19.0535 39.5851 19.39C39.2212 19.6313 39.032 19.6825 38.5053 19.6825C37.4148 19.6825 36.6921 18.9995 36.6921 17.9687C36.6921 16.6406 38.0173 15.7317 39.2098 16.2419ZM51.4704 16.2497C52.2078 16.5583 52.6442 17.3725 52.513 18.1947C52.4163 18.8003 52.2499 19.0794 51.7983 19.3932C51.4241 19.6531 51.2781 19.6862 50.3617 19.7183L49.3415 19.7539V17.9266V16.0992H50.2261C50.7641 16.0992 51.2517 16.1582 51.4704 16.2497ZM80.4568 16.4218C80.7957 16.7851 80.8443 17.188 80.6052 17.651C80.4109 18.0275 79.9793 18.1765 79.0832 18.1765H78.3729V17.1378V16.0992H79.2645C80.1281 16.0992 80.1654 16.1092 80.4568 16.4218ZM117.113 16.4367C117.71 16.837 117.916 17.3161 117.85 18.1548C117.799 18.7993 117.561 19.169 116.985 19.4991C116.649 19.6915 116.421 19.7313 115.647 19.7327L114.714 19.7343V17.9167V16.0991H115.661C116.557 16.0992 116.636 16.1173 117.113 16.4367ZM73.6579 17.6571C73.8081 18.0285 73.9556 18.3907 73.9857 18.4621C74.0271 18.5605 73.8118 18.5919 73.0977 18.5919H72.1549L72.3673 18.0466C72.484 17.7467 72.696 17.2447 72.838 16.931L73.0964 16.3607L73.2406 16.6714C73.3199 16.8422 73.5076 17.2858 73.6579 17.6571ZM85.9758 16.6445C86.0067 16.7159 86.1952 17.1833 86.3945 17.6831L86.7572 18.5919H85.8199C85.0205 18.5919 84.8918 18.5686 84.9437 18.4327C85.2386 17.663 85.7747 16.5146 85.8393 16.5146C85.8835 16.5146 85.9449 16.5731 85.9758 16.6445ZM93.7374 24.4344C93.7645 24.7156 93.8175 24.7774 94.055 24.8048C94.3189 24.8352 94.3401 24.8101 94.3401 24.4672C94.3401 24.1232 94.3175 24.0968 94.0225 24.0968C93.7266 24.0968 93.7071 24.1199 93.7374 24.4344ZM116.651 24.4344C116.68 24.733 116.72 24.7719 116.995 24.7719C117.27 24.7719 117.31 24.733 117.338 24.4344C117.37 24.1096 117.357 24.0968 116.995 24.0968C116.633 24.0968 116.62 24.1096 116.651 24.4344ZM79.5469 24.994C79.1797 25.0754 78.398 25.8351 78.2645 26.2402C77.9526 27.187 78.3972 28.3592 79.2295 28.7847C80.1103 29.2347 81.3376 28.9362 81.8605 28.1447C82.2652 27.532 82.3176 26.6046 81.9801 26.0282C81.5801 25.3452 81.0836 25.0196 80.3803 24.979C80.0461 24.9597 79.671 24.9666 79.5469 24.994ZM87.0304 25.0753C86.8594 25.1521 86.5704 25.3635 86.3883 25.5452C85.4739 26.4578 85.7443 28.193 86.8924 28.7797C87.4771 29.0785 88.4531 29.028 88.9716 28.6721C90.2889 27.7678 90.1331 25.778 88.6936 25.123C88.2022 24.8993 87.4697 24.8783 87.0304 25.0753ZM110.236 25.1303C109.82 25.3847 109.685 25.6359 109.685 26.1598C109.685 26.6882 109.971 26.9281 110.954 27.2273C111.792 27.4824 112.037 27.7819 111.707 28.1471C111.458 28.4232 110.915 28.4169 110.325 28.1309C109.877 27.9137 109.858 27.9127 109.722 28.0989C109.645 28.2046 109.582 28.3296 109.582 28.3767C109.582 28.5018 110.209 28.8729 110.541 28.9436C110.697 28.977 110.826 29.0632 110.826 29.1351C110.826 29.207 110.919 29.2903 111.033 29.3202C111.147 29.35 111.241 29.449 111.241 29.54C111.241 29.7076 111.138 29.7461 110.788 29.7091C110.669 29.6964 110.613 29.7411 110.641 29.8269C110.701 30.0102 111.214 30.0648 111.402 29.9081C111.602 29.7424 111.591 29.4024 111.38 29.1685C111.218 28.9888 111.224 28.9785 111.494 28.9785C111.681 28.9785 111.902 28.856 112.132 28.6253C112.42 28.3368 112.485 28.1931 112.485 27.8395C112.485 27.6016 112.434 27.3125 112.373 27.1971C112.233 26.9367 111.503 26.5949 111.079 26.5919C110.433 26.5872 110.104 26.0009 110.574 25.6924C110.85 25.5115 111.572 25.5603 111.833 25.7776C111.935 25.8622 112.023 25.8437 112.176 25.705C112.469 25.4388 112.436 25.3581 111.94 25.1327C111.367 24.872 110.661 24.871 110.236 25.1303ZM28.5803 25.3692C28.6903 25.5548 28.8898 25.8937 29.024 26.1222C29.1581 26.3507 29.2961 26.561 29.3306 26.5896C29.3651 26.6181 29.4959 26.8106 29.6212 27.0173C29.8032 27.3175 29.849 27.5526 29.849 28.1858V28.9785H30.1601H30.4711V28.162C30.4711 27.3617 30.4811 27.3301 30.9706 26.5781C31.2452 26.1559 31.5757 25.6354 31.7047 25.4211L31.9396 25.0316H31.571C31.2193 25.0316 31.1806 25.0696 30.724 25.8625C30.4608 26.3195 30.2036 26.6934 30.1524 26.6934C30.1011 26.6934 29.8423 26.3195 29.5772 25.8625C29.1222 25.078 29.0753 25.0316 28.7378 25.0316H28.3806L28.5803 25.3692ZM32.9799 25.7846C32.8043 26.1987 32.4246 27.0729 32.1362 27.727C31.8476 28.3812 31.6116 28.9303 31.6116 28.9474C31.6116 28.9645 31.7711 28.9785 31.9659 28.9785C32.2903 28.9785 32.3353 28.939 32.4984 28.5111L32.6767 28.0437H33.6512H34.6258L34.8258 28.5111C35.0001 28.9184 35.0663 28.9785 35.3405 28.9785C35.5137 28.9785 35.6553 28.9466 35.6553 28.9077C35.6553 28.8066 34.8844 26.9475 34.5865 26.3299C34.4486 26.0443 34.2735 25.6354 34.1972 25.4211C34.0711 25.0672 34.0236 25.0316 33.6789 25.0316C33.3062 25.0316 33.2935 25.0452 32.9799 25.7846ZM36.07 25.3432V25.6548H37.1623C38.3935 25.6548 38.401 25.6648 37.7095 26.3819C36.9567 27.1625 36.07 28.4147 36.07 28.6971V28.9785H37.6771H39.2842V28.6703V28.3622L38.1413 28.3328L36.9984 28.3034L37.4251 27.7321C37.6596 27.4179 37.999 26.9989 38.1791 26.801C38.8952 26.0142 39.1786 25.5939 39.1795 25.3172L39.1805 25.0316H37.6253H36.07V25.3432ZM40.1137 27.005V28.9785H40.4247H40.7358V27.005V25.0316H40.4247H40.1137V27.005ZM41.7726 27.005V28.9785H43.0168H44.261V28.6709V28.3634L43.3538 28.3334L42.4466 28.3034L42.4181 26.6675L42.3894 25.0316H42.0811H41.7726V27.005ZM44.9868 27.005V28.9785H45.2978H45.6089V27.005V25.0316H45.2978H44.9868V27.005ZM46.6457 27.005V28.9785H46.9568H47.2678V27.5244C47.2678 26.7246 47.3029 26.0718 47.3456 26.0737C47.3883 26.0755 47.7033 26.6362 48.0455 27.3195C48.8673 28.9609 48.8856 28.96 49.7265 27.2355L50.3706 25.9145L50.3745 27.4465L50.3783 28.9785H50.685H50.9917L51.022 27.0049L51.0523 25.0314L50.5278 25.0315C50.0096 25.0316 50.0014 25.0368 49.8153 25.473C49.6318 25.9034 48.9324 27.3373 48.8753 27.3999C48.8597 27.4173 48.5817 26.8914 48.2577 26.2315L47.6686 25.0316H47.1572H46.6457V27.005ZM53.2815 25.1316C53.2815 25.2421 53.6236 26.1519 53.8512 26.6461C53.9313 26.8201 54.1348 27.3342 54.3036 27.7886C54.4724 28.2431 54.6431 28.6967 54.6829 28.7967C54.7338 28.9245 54.8674 28.9773 55.1329 28.9746L55.5107 28.9707L56.2101 27.183C56.5949 26.1997 56.9381 25.3134 56.9729 25.2134C57.0252 25.0636 56.9746 25.0316 56.6852 25.0316H56.334L55.7268 26.4822L55.1197 27.9328L54.6579 26.8197C54.4039 26.2076 54.1458 25.5548 54.0843 25.3692C53.988 25.0782 53.9247 25.0316 53.6269 25.0316C53.4369 25.0316 53.2815 25.0766 53.2815 25.1316ZM57.6362 27.005V28.9785H59.0111H60.386L60.3987 28.6669L60.4114 28.3553H59.3348H58.2583V27.784V27.2128H59.1914C60.1176 27.2128 60.1246 27.2108 60.1246 26.9531C60.1246 26.8103 60.0895 26.6913 60.0468 26.6887C60.0041 26.686 59.5841 26.6792 59.1137 26.6736L58.2583 26.6634V26.1591V25.6548H59.2951H60.3319V25.3432V25.0316H58.9841H57.6362V27.005ZM62.4056 25.3432C62.4056 25.6517 62.4114 25.6548 62.9759 25.6548H63.5461V27.3166V28.9785H63.909H64.2719V27.3166V25.6548H64.8422C65.4066 25.6548 65.4124 25.6517 65.4124 25.3432V25.0316H63.909H62.4056V25.3432ZM66.1382 27.005V28.9785H67.5379H68.9377V28.6705V28.3626L67.8749 28.333L66.8122 28.3034V27.784V27.2647L67.7204 27.2128C68.2201 27.1842 68.6283 27.1257 68.6277 27.0829C68.6271 27.0402 68.6267 26.9233 68.6268 26.8233C68.627 26.6619 68.529 26.6453 67.7495 26.675C66.8904 26.7078 66.8703 26.703 66.8074 26.4519C66.772 26.3107 66.7587 26.0853 66.7776 25.951C66.811 25.7149 66.848 25.7057 67.8749 25.6771L68.9377 25.6475V25.3396V25.0316H67.5379H66.1382V27.005ZM69.7671 27.005V28.9785H70.0782C70.3881 28.9785 70.3892 28.9763 70.3892 28.3747C70.3892 27.8492 70.4268 27.7349 70.6795 27.4925L70.9696 27.214L71.61 28.0963C72.2078 28.9198 72.2751 28.9785 72.622 28.9785C72.8904 28.9785 72.9726 28.9424 72.9181 28.8487C72.7779 28.6078 71.7129 27.0583 71.5794 26.9012C71.4677 26.7696 71.5659 26.6162 72.2114 25.9145L72.9756 25.0835L72.5951 25.0501C72.2375 25.0186 72.1615 25.0715 71.3279 25.9329L70.4411 26.8492L70.4111 25.9404L70.3812 25.0316H70.0741H69.7671V27.005ZM73.7071 27.005V28.9785H74.0182H74.3292L74.3307 27.5503L74.3321 26.1222L74.7195 26.5547C74.9325 26.7925 75.4334 27.4337 75.8326 27.9795C76.524 28.9249 76.5769 28.9721 76.9472 28.9752L77.336 28.9785V27.005V25.0316H76.9761H76.616L76.5872 26.4458L76.5584 27.86L76.2098 27.3735C76.0181 27.1058 75.7452 26.7616 75.6033 26.6084C75.4613 26.4552 75.131 26.0378 74.8691 25.6808C74.4515 25.1115 74.3507 25.0316 74.05 25.0316H73.7071V27.005ZM83.0386 27.005V28.9785H84.2828H85.527V28.6669V28.3553H84.6457H83.7644V26.6934V25.0316H83.4015H83.0386V27.005ZM90.756 25.2653C90.7799 25.3938 90.803 25.5341 90.8072 25.5769C90.8115 25.6197 91.0715 25.6548 91.3851 25.6548H91.9554V26.8331C91.9554 27.8428 91.9282 28.0361 91.7657 28.1834C91.5242 28.4024 91.2868 28.4009 90.91 28.1779C90.623 28.0081 90.6036 28.0091 90.4565 28.2039C90.2397 28.4912 90.2547 28.5399 90.6334 28.778C91.14 29.0967 92.0097 29.0133 92.3262 28.6157C92.6359 28.2266 92.6812 27.94 92.6812 26.3689V25.0316H91.6968C90.7323 25.0316 90.7134 25.0363 90.756 25.2653ZM93.718 27.005V28.9785H94.0291H94.3401V27.005V25.0316H94.0291H93.718V27.005ZM97.0359 27.005V28.9785H98.2282H99.4206V28.6669V28.3553H98.5393H97.658V26.6934V25.0316H97.3469H97.0359V27.005ZM99.3169 25.3432C99.3169 25.6517 99.3227 25.6548 99.8872 25.6548H100.457V27.3166V28.9785H100.82H101.183V27.3166V25.6548H101.753C102.318 25.6548 102.324 25.6517 102.324 25.3432V25.0316H100.82H99.3169V25.3432ZM103.05 26.9935V28.9785L103.905 28.9779C105.454 28.9768 106.134 28.6313 106.429 27.694C106.739 26.7079 106.427 25.758 105.641 25.2978C105.353 25.1287 105.052 25.0776 104.164 25.0471L103.05 25.0086V26.9935ZM112.899 25.3432V25.6548H113.522H114.144V27.3166V28.9785H114.455H114.766V27.3166V25.6548H115.336C115.9 25.6548 115.906 25.6517 115.906 25.3432V25.0316H114.403H112.899V25.3432ZM116.736 27.005V28.9785H117.047H117.358V27.005V25.0316H117.047H116.736V27.005ZM81.0788 25.9242C81.5418 26.3687 81.6606 26.8862 81.4349 27.4778C81.1321 28.2724 80.2693 28.5911 79.5001 28.1926C79.1704 28.0218 78.7939 27.3483 78.7899 26.9219C78.7857 26.4832 79.2754 25.7976 79.7207 25.6187C80.08 25.4746 80.7725 25.6303 81.0788 25.9242ZM88.7389 25.9123C89.6505 26.7871 89.0877 28.356 87.8627 28.3549C86.8539 28.3539 86.1557 27.2695 86.6059 26.4026C86.7641 26.098 87.1456 25.7183 87.3933 25.6187C87.7452 25.4775 88.445 25.6302 88.7389 25.9123ZM105.225 25.8368C105.662 26.056 105.845 26.3915 105.847 26.9742C105.851 27.8916 105.457 28.2552 104.378 28.3326L103.672 28.3832V27.019V25.6548L104.268 25.655C104.628 25.655 105.007 25.727 105.225 25.8368ZM34.2884 27.3702C34.255 27.4037 33.9448 27.417 33.599 27.3998L32.9702 27.3686L33.3019 26.6217L33.6335 25.8747L33.9913 26.5921C34.1882 26.9867 34.3218 27.3368 34.2884 27.3702ZM107.425 28.2722C107.057 28.6411 107.484 29.2122 107.907 28.9158C108.171 28.73 108.191 28.5349 107.967 28.3107C107.772 28.1156 107.594 28.1029 107.425 28.2722ZM118.312 28.2722C118.122 28.4626 118.163 28.742 118.407 28.9129C118.682 29.1061 118.897 29.0284 118.977 28.706C119.087 28.2693 118.619 27.9644 118.312 28.2722Z" fill="#44403D"/>
</svg>
