<svg width="72" height="60" viewBox="0 0 72 60" fill="none" xmlns="http://www.w3.org/2000/svg">
<path fill-rule="evenodd" clip-rule="evenodd" d="M13.533 0.105825C13.4671 0.180756 13.279 0.206422 12.796 0.206422C12.2856 0.206422 12.1473 0.226995 12.1473 0.302821C12.1473 0.376583 12.0015 0.404794 11.5254 0.423234C11.0206 0.442706 10.8909 0.469885 10.8364 0.567661C10.7866 0.657041 10.6819 0.688073 10.4299 0.688073C10.174 0.688073 10.0906 0.713463 10.0906 0.791284C10.0906 0.862775 10.019 0.894495 9.85793 0.894495C9.71018 0.894495 9.61029 0.933784 9.58417 1.00204C9.56155 1.06121 9.5141 1.0917 9.47873 1.06975C9.44335 1.0478 9.39509 1.06135 9.37136 1.09982C9.34771 1.13828 9.2376 1.16972 9.12667 1.16972C8.99312 1.16972 8.92504 1.20461 8.92504 1.27294C8.92504 1.34505 8.85264 1.37615 8.68508 1.37615C8.52602 1.37615 8.44512 1.40835 8.44512 1.47172C8.44512 1.52642 8.34262 1.58656 8.20516 1.61243C8.06153 1.63947 7.9652 1.69782 7.9652 1.75768C7.9652 1.82305 7.89376 1.8578 7.75952 1.8578C7.6224 1.8578 7.55384 1.8922 7.55384 1.96101C7.55384 2.01833 7.49289 2.06422 7.41672 2.06422C7.34131 2.06422 7.27961 2.10929 7.27961 2.16433C7.27961 2.2242 7.18328 2.28255 7.03965 2.30959C6.90218 2.33546 6.79969 2.3956 6.79969 2.4503C6.79969 2.50975 6.72496 2.54587 6.60203 2.54587C6.46196 2.54587 6.39388 2.58599 6.36845 2.68349C6.34877 2.75917 6.28343 2.8211 6.22337 2.8211C6.16325 2.8211 6.11409 2.86755 6.11409 2.92431C6.11409 2.98163 6.05314 3.02752 5.97697 3.02752C5.90155 3.02752 5.83985 3.07149 5.83985 3.1253C5.83985 3.17904 5.74729 3.24344 5.63417 3.26835C5.52105 3.29326 5.42849 3.35766 5.42849 3.4114C5.42849 3.46521 5.36679 3.50917 5.29137 3.50917C5.2152 3.50917 5.15425 3.55507 5.15425 3.61239C5.15425 3.66915 5.11154 3.7156 5.05944 3.7156C5.00726 3.7156 4.94844 3.77752 4.92869 3.85321C4.90901 3.9289 4.84368 3.99083 4.78362 3.99083C4.72349 3.99083 4.67433 4.03727 4.67433 4.09404C4.67433 4.1508 4.62806 4.19725 4.5715 4.19725C4.51493 4.19725 4.46866 4.24658 4.46866 4.30693C4.46866 4.3672 4.40695 4.43277 4.33154 4.45252C4.25612 4.47234 4.19442 4.53138 4.19442 4.58374C4.19442 4.63603 4.14814 4.6789 4.09158 4.6789C4.03501 4.6789 3.98874 4.72534 3.98874 4.78211C3.98874 4.83888 3.94246 4.88532 3.8859 4.88532C3.82879 4.88532 3.78306 4.94649 3.78306 5.02294C3.78306 5.11466 3.73733 5.16055 3.64594 5.16055C3.56977 5.16055 3.50882 5.20645 3.50882 5.26376C3.50882 5.32053 3.46254 5.36697 3.40598 5.36697C3.34887 5.36697 3.30314 5.42814 3.30314 5.50459C3.30314 5.58028 3.25933 5.6422 3.20572 5.6422C3.15217 5.6422 3.088 5.73509 3.06318 5.84862C3.03836 5.96216 2.97419 6.05505 2.92064 6.05505C2.86703 6.05505 2.82322 6.11697 2.82322 6.19266C2.82322 6.26835 2.77832 6.33028 2.72347 6.33028C2.66382 6.33028 2.60568 6.42695 2.57874 6.5711C2.55296 6.70906 2.49304 6.81193 2.43853 6.81193C2.37841 6.81193 2.3433 6.8881 2.3433 7.01835C2.3433 7.15596 2.30902 7.22477 2.24046 7.22477C2.18335 7.22477 2.13762 7.28594 2.13762 7.36239C2.13762 7.45411 2.09189 7.5 2.0005 7.5C1.88951 7.5 1.86339 7.54589 1.86339 7.74083C1.86339 7.90899 1.8324 7.98165 1.76055 7.98165C1.69178 7.98165 1.65771 8.05067 1.65771 8.19021C1.65771 8.31048 1.61493 8.41527 1.55672 8.43771C1.50118 8.45911 1.43605 8.58199 1.41199 8.7108C1.38717 8.8436 1.32704 8.94495 1.27302 8.94495C1.20987 8.94495 1.17779 9.02615 1.17779 9.18578C1.17779 9.3439 1.1455 9.42661 1.08379 9.42661C1.02277 9.42661 0.973823 9.54709 0.944411 9.76989C0.916096 9.98408 0.867624 10.107 0.815587 10.0967C0.758203 10.0854 0.725843 10.2253 0.711856 10.5447C0.69739 10.8765 0.665442 11.0092 0.599899 11.0092C0.537235 11.0092 0.492533 11.1564 0.458802 11.4736C0.431583 11.729 0.374336 11.96 0.331418 11.9868C0.287471 12.0142 0.242565 12.2768 0.228442 12.5889C0.209657 13.0042 0.179559 13.1422 0.107845 13.1422C-0.0362674 13.1422 -0.0357883 47.031 0.108324 47.0865C0.179009 47.1137 0.210684 47.2981 0.228304 47.7845C0.246129 48.2776 0.278352 48.4621 0.355071 48.5107C0.446461 48.5686 0.446461 48.5762 0.355071 48.579C0.273965 48.5815 0.277598 48.597 0.372211 48.6523C0.466823 48.7076 0.49219 48.8162 0.49219 49.1663C0.49219 49.5149 0.514266 49.6101 0.59503 49.6101C0.674011 49.6101 0.697869 49.698 0.697869 49.9885C0.697869 50.2751 0.722277 50.367 0.798378 50.367C0.867144 50.367 0.913147 50.4754 0.944273 50.711C0.973822 50.9344 1.02277 51.055 1.08379 51.055C1.15091 51.055 1.17779 51.1535 1.17779 51.3991C1.17779 51.6468 1.20446 51.7431 1.27302 51.7431C1.32752 51.7431 1.38744 51.846 1.41322 51.9839C1.44017 52.1281 1.49831 52.2248 1.55795 52.2248C1.62624 52.2248 1.65771 52.3007 1.65771 52.4656C1.65771 52.6338 1.68869 52.7064 1.76055 52.7064C1.81711 52.7064 1.86339 52.7538 1.86339 52.8118C1.86339 52.8698 1.90781 52.9342 1.96204 52.9552C2.01627 52.9761 2.08045 53.0834 2.10458 53.1939C2.12878 53.3042 2.19234 53.3945 2.24588 53.3945C2.29949 53.3945 2.3433 53.4564 2.3433 53.5321C2.3433 53.6078 2.38711 53.6697 2.44073 53.6697C2.49427 53.6697 2.55886 53.7647 2.58429 53.8808C2.60966 53.9969 2.67383 54.1086 2.72683 54.129C2.77982 54.1494 2.82322 54.2059 2.82322 54.2546C2.82322 54.3032 2.86662 54.3598 2.91962 54.3802C2.97261 54.4006 3.03678 54.5123 3.06215 54.6284C3.08759 54.7445 3.15217 54.8395 3.20572 54.8395C3.25933 54.8395 3.30314 54.8859 3.30314 54.9427C3.30314 54.9994 3.34942 55.0459 3.40598 55.0459C3.46254 55.0459 3.50882 55.0952 3.50882 55.1556C3.50882 55.2158 3.57052 55.2814 3.64594 55.3011C3.72135 55.321 3.78306 55.38 3.78306 55.4324C3.78306 55.4847 3.82934 55.5275 3.8859 55.5275C3.94246 55.5275 3.98929 55.5663 3.9899 55.6135C3.99134 55.7184 4.28731 56.0092 4.39262 56.0092C4.43444 56.0092 4.46866 56.0556 4.46866 56.1124C4.46866 56.1692 4.51493 56.2156 4.5715 56.2156C4.62806 56.2156 4.67433 56.2649 4.67433 56.3253C4.67433 56.3856 4.73604 56.4511 4.81145 56.4709C4.88687 56.4907 4.94857 56.5472 4.94857 56.5966C4.94857 56.6459 5.04113 56.7067 5.15425 56.7317C5.26738 56.7566 5.35993 56.821 5.35993 56.8747C5.35993 56.9285 5.42164 56.9725 5.49705 56.9725C5.57322 56.9725 5.63417 57.0184 5.63417 57.0757C5.63417 57.133 5.69512 57.1789 5.77129 57.1789C5.84671 57.1789 5.90841 57.2229 5.90841 57.2767C5.90841 57.3304 6.00097 57.3948 6.11409 57.4197C6.22721 57.4446 6.31977 57.509 6.31977 57.5628C6.31977 57.6286 6.39813 57.6606 6.55973 57.6606C6.724 57.6606 6.79969 57.6921 6.79969 57.7607C6.79969 57.8205 6.89601 57.8789 7.03965 57.9059C7.17711 57.9318 7.27961 57.9919 7.27961 58.0466C7.27961 58.0992 7.34131 58.1422 7.41672 58.1422C7.49289 58.1422 7.55384 58.1881 7.55384 58.2454C7.55384 58.3138 7.62199 58.3486 7.7561 58.3486C7.86874 58.3486 7.98515 58.3966 8.01875 58.4568C8.05193 58.5163 8.2077 58.5823 8.3649 58.6035C8.54241 58.6274 8.6508 58.6777 8.6508 58.7361C8.6508 58.7998 8.73794 58.8303 8.92017 58.8303C9.07155 58.8303 9.23582 58.8768 9.29533 58.9365C9.35354 58.9949 9.55627 59.0612 9.74584 59.0837C9.97085 59.1105 10.0906 59.1572 10.0906 59.2183C10.0906 59.2859 10.1953 59.3119 10.4676 59.3119C10.7388 59.3119 10.8447 59.3381 10.8447 59.405C10.8447 59.4734 11.0111 59.5088 11.4741 59.5389C11.9409 59.5693 12.119 59.6075 12.1631 59.6867C12.2144 59.7786 12.4481 59.7936 13.8305 59.7936C15.2139 59.7936 15.4382 59.808 15.4382 59.8968C15.4382 59.9713 15.5144 60 15.7125 60C15.9105 60 15.9867 59.9713 15.9867 59.8968C15.9867 59.8054 17.4223 59.7936 28.4954 59.7936C39.6009 59.7936 41.0107 59.7819 41.0624 59.6893C41.1034 59.6156 41.286 59.5722 41.6828 59.5415C42.0881 59.5101 42.2451 59.472 42.2451 59.405C42.2451 59.3363 42.3624 59.3119 42.6928 59.3119C43.0177 59.3119 43.151 59.285 43.1782 59.2136C43.2025 59.1502 43.3722 59.0985 43.656 59.068C43.9624 59.035 44.0962 58.9917 44.0962 58.9255C44.0962 58.8625 44.1776 58.8303 44.3361 58.8303C44.5037 58.8303 44.5761 58.7992 44.5761 58.7271C44.5761 58.6581 44.6449 58.6239 44.7839 58.6239C44.9038 58.6239 45.0082 58.5809 45.0305 58.5225C45.0518 58.4668 45.1743 58.4014 45.3026 58.3773C45.435 58.3523 45.5359 58.292 45.5359 58.2378C45.5359 58.1744 45.6168 58.1422 45.7759 58.1422C45.9402 58.1422 46.0159 58.1106 46.0159 58.0421C46.0159 57.9822 46.1122 57.9239 46.2558 57.8968C46.3933 57.871 46.4958 57.8108 46.4958 57.7561C46.4958 57.6958 46.5717 57.6606 46.7015 57.6606C46.8357 57.6606 46.9071 57.6258 46.9071 57.5604C46.9071 57.5006 47.0035 57.4422 47.1471 57.4152C47.2846 57.3893 47.3871 57.3292 47.3871 57.2745C47.3871 57.2219 47.4488 57.1789 47.5242 57.1789C47.6003 57.1789 47.6613 57.133 47.6613 57.0757C47.6613 57.0189 47.7076 56.9725 47.7641 56.9725C47.8207 56.9725 47.867 56.9274 47.867 56.8724C47.867 56.8125 47.9633 56.7542 48.1069 56.7271C48.2444 56.7012 48.3469 56.6411 48.3469 56.5864C48.3469 56.5338 48.3932 56.4908 48.4497 56.4908C48.5063 56.4908 48.5526 56.448 48.5526 56.3957C48.5526 56.3433 48.6143 56.2843 48.6897 56.2644C48.7651 56.2447 48.8268 56.1791 48.8268 56.1189C48.8268 56.0585 48.8731 56.0092 48.9297 56.0092C48.9862 56.0092 49.0325 55.9627 49.0325 55.906C49.0325 55.8492 49.0788 55.8028 49.1353 55.8028C49.1919 55.8028 49.2382 55.7534 49.2382 55.6931C49.2382 55.6328 49.2999 55.5672 49.3753 55.5475C49.4507 55.5277 49.5124 55.4686 49.5124 55.4163C49.5124 55.364 49.5587 55.3211 49.6152 55.3211C49.6718 55.3211 49.7181 55.2718 49.7181 55.2114C49.7181 55.1511 49.7798 55.0856 49.8552 55.0658C49.9306 55.046 49.9923 54.987 49.9923 54.9346C49.9923 54.8823 50.0386 54.8395 50.0952 54.8395C50.1523 54.8395 50.198 54.7783 50.198 54.7018C50.198 54.6254 50.2437 54.5642 50.3008 54.5642C50.3574 54.5642 50.4037 54.5175 50.4037 54.4603C50.4037 54.4032 50.4654 54.3034 50.5408 54.2386C50.6162 54.1738 50.6779 54.0658 50.6779 53.9985C50.6779 53.9312 50.7242 53.8761 50.7808 53.8761C50.8373 53.8761 50.8836 53.8366 50.8836 53.7882C50.8836 53.7398 50.9453 53.6473 51.0207 53.5825C51.0961 53.5177 51.1578 53.4024 51.1578 53.3264C51.1578 53.2493 51.2034 53.1881 51.2607 53.1881C51.3325 53.1881 51.3635 53.1154 51.3635 52.9472C51.3635 52.7824 51.395 52.7064 51.4633 52.7064C51.5229 52.7064 51.5811 52.6097 51.608 52.4656C51.6338 52.3276 51.6937 52.2248 51.7482 52.2248C51.8114 52.2248 51.8434 52.1436 51.8434 51.9839C51.8434 51.8258 51.8757 51.7431 51.9374 51.7431C51.9985 51.7431 52.0474 51.6224 52.077 51.3991C52.1081 51.1635 52.1541 51.055 52.2229 51.055C52.2977 51.055 52.3234 50.9674 52.3234 50.711C52.3234 50.4511 52.3485 50.367 52.4262 50.367C52.5037 50.367 52.529 50.2832 52.529 50.0264C52.529 49.7884 52.5615 49.6675 52.6367 49.6253C52.7181 49.5795 52.7539 49.4028 52.7839 48.8994C52.8129 48.412 52.8478 48.2339 52.9145 48.2339C52.9895 48.2339 53.0088 46.8714 53.0244 40.4816C53.0393 34.3545 53.0612 32.7233 53.1289 32.7007C53.194 32.6789 53.2146 32.3092 53.2146 31.164C53.2146 29.8694 53.2001 29.656 53.1118 29.656C53.0302 29.656 53.009 29.5566 53.009 29.1743C53.009 28.8092 52.9859 28.6927 52.9137 28.6927C52.8592 28.6927 52.7993 28.5898 52.7735 28.4518C52.7466 28.3077 52.6884 28.211 52.6288 28.211C52.5637 28.211 52.529 28.1393 52.529 28.0046C52.529 27.8781 52.4965 27.8048 52.445 27.8154C52.3987 27.8248 52.3503 27.7629 52.3373 27.6778C52.3223 27.5788 52.266 27.5229 52.1814 27.5229C52.0949 27.5229 52.0491 27.4754 52.0491 27.3853C52.0491 27.3089 52.0034 27.2477 51.9463 27.2477C51.8897 27.2477 51.8434 27.2013 51.8434 27.1445C51.8434 27.0872 51.7825 27.0413 51.7063 27.0413C51.6309 27.0413 51.5692 26.9973 51.5692 26.9435C51.5692 26.8898 51.4766 26.8254 51.3635 26.8005C51.2504 26.7756 51.1578 26.7111 51.1578 26.6574C51.1578 26.5916 51.0795 26.5596 50.9179 26.5596C50.7582 26.5596 50.6779 26.5275 50.6779 26.4636C50.6779 26.3721 50.1419 26.326 48.3299 26.2616C48.1508 26.2552 48.0038 26.219 48.0032 26.1812C48.0025 26.1433 47.9745 26.1559 47.941 26.209C47.8893 26.291 46.8354 26.3045 40.9769 26.2981C35.8268 26.2925 34.0491 26.2702 33.9772 26.2102C33.9057 26.1507 33.8568 26.1499 33.788 26.2072C33.737 26.2497 33.4593 26.3045 33.171 26.3289C32.7977 26.3606 32.6467 26.4002 32.6467 26.4665C32.6467 26.5177 32.585 26.5596 32.5096 26.5596C32.4182 26.5596 32.3725 26.6055 32.3725 26.6972C32.3725 26.7737 32.3267 26.8349 32.2696 26.8349C32.2131 26.8349 32.1668 26.8813 32.1668 26.9381C32.1668 26.9954 32.1058 27.0413 32.0297 27.0413C31.9383 27.0413 31.8926 27.0872 31.8926 27.1789C31.8926 27.2553 31.8468 27.3165 31.7897 27.3165C31.7332 27.3165 31.6869 27.363 31.6869 27.4197C31.6869 27.4765 31.6406 27.5229 31.584 27.5229C31.5275 27.5229 31.4812 27.5723 31.4812 27.6326C31.4812 27.6929 31.4195 27.7585 31.3441 27.7782C31.2687 27.798 31.207 27.8571 31.207 27.9094C31.207 27.9617 31.1607 28.0046 31.1041 28.0046C31.0476 28.0046 31.0013 28.0475 31.0013 28.0997C31.0013 28.1521 30.9396 28.2111 30.8642 28.231C30.7887 28.2507 30.727 28.3163 30.727 28.3766C30.727 28.4369 30.6808 28.4862 30.6242 28.4862C30.5676 28.4862 30.5214 28.5327 30.5214 28.5895C30.5214 28.6468 30.4604 28.6927 30.3842 28.6927C30.2928 28.6927 30.2471 28.7386 30.2471 28.8303C30.2471 28.9067 30.2014 28.9679 30.1443 28.9679C30.0877 28.9679 30.0414 29.0143 30.0414 29.0711C30.0414 29.1284 29.9805 29.1743 29.9043 29.1743C29.8289 29.1743 29.7708 29.1975 29.7753 29.2259C29.7976 29.3679 29.7571 29.4495 29.6644 29.4495C29.6078 29.4495 29.5615 29.496 29.5615 29.5528C29.5615 29.6095 29.5152 29.656 29.4587 29.656C29.4021 29.656 29.3558 29.7053 29.3558 29.7656C29.3558 29.8259 29.2945 29.8914 29.2195 29.911C29.1445 29.9307 29.1013 29.9764 29.1236 30.0125C29.1458 30.0485 29.0992 30.0951 29.02 30.1159C28.9407 30.1367 28.8759 30.1965 28.8759 30.2489C28.8759 30.3012 28.8296 30.344 28.7731 30.344C28.7165 30.344 28.6702 30.3934 28.6702 30.4537C28.6702 30.514 28.6085 30.5796 28.5331 30.5993C28.4577 30.6191 28.396 30.6782 28.396 30.7305C28.396 30.7828 28.3497 30.8257 28.2932 30.8257C28.2366 30.8257 28.1903 30.8686 28.1903 30.9208C28.1903 30.9732 28.1286 31.0322 28.0532 31.0521C27.9778 31.0718 27.9161 31.1374 27.9161 31.1977C27.9161 31.258 27.8698 31.3073 27.8132 31.3073C27.7567 31.3073 27.7104 31.3538 27.7104 31.4106C27.7104 31.4679 27.6495 31.5138 27.5733 31.5138C27.4819 31.5138 27.4362 31.5597 27.4362 31.6514C27.4362 31.7278 27.3904 31.789 27.3333 31.789C27.2768 31.789 27.2305 31.8354 27.2305 31.8922C27.2305 31.949 27.1842 31.9954 27.1276 31.9954C27.0711 31.9954 27.0248 32.0447 27.0248 32.1051C27.0248 32.1654 26.9631 32.2309 26.8877 32.2507C26.8123 32.2705 26.7506 32.3295 26.7506 32.3819C26.7506 32.4342 26.7043 32.4771 26.6477 32.4771C26.5912 32.4771 26.5449 32.5199 26.5449 32.5722C26.5449 32.6246 26.4832 32.6836 26.4078 32.7034C26.3324 32.7232 26.2707 32.7888 26.2707 32.849C26.2707 32.9094 26.2244 32.9587 26.1678 32.9587C26.1113 32.9587 26.065 33.0052 26.065 33.0619C26.065 33.1187 26.0187 33.1651 25.9621 33.1651C25.9056 33.1651 25.8593 33.2145 25.8593 33.2748C25.8593 33.3351 25.7976 33.4007 25.7222 33.4204C25.625 33.4459 25.5851 33.5143 25.5851 33.6548C25.5851 33.8531 25.5853 33.8532 26.0307 33.8532C26.3811 33.8532 26.4763 33.8311 26.4763 33.75C26.4763 33.6861 26.5408 33.6468 26.6456 33.6468C26.7678 33.6468 26.8038 33.6754 26.7754 33.75C26.7404 33.8414 27.7249 33.8532 35.3839 33.8532C43.0078 33.8532 44.0366 33.841 44.0714 33.75C44.1222 33.6171 44.3019 33.6155 44.3019 33.7479C44.3019 33.8196 44.3727 33.8463 44.5448 33.8399C44.7056 33.8338 44.777 33.8022 44.7557 33.7465C44.7348 33.6919 44.7699 33.6745 44.8555 33.697C44.9281 33.7161 44.9875 33.759 44.9875 33.7925C44.9875 33.8258 45.0492 33.8532 45.1246 33.8532C45.2008 33.8532 45.2617 33.8073 45.2617 33.75C45.2617 33.588 45.4467 33.6294 45.4927 33.8016C45.5486 34.0108 45.5475 44.2223 45.4916 44.8864C45.46 45.2612 45.4206 45.4128 45.3545 45.4128C45.2853 45.4128 45.2617 45.5355 45.2617 45.8945C45.2617 46.2768 45.2405 46.3761 45.1589 46.3761C45.0812 46.3761 45.056 46.4602 45.056 46.7202C45.056 46.9754 45.0302 47.0642 44.9563 47.0642C44.8966 47.0642 44.8385 47.1609 44.8115 47.305C44.7858 47.443 44.7258 47.5459 44.6713 47.5459C44.6082 47.5459 44.5761 47.6271 44.5761 47.7867C44.5761 47.9516 44.5446 48.0275 44.4764 48.0275C44.4167 48.0275 44.3586 48.1242 44.3316 48.2683C44.3058 48.4063 44.2459 48.5092 44.1914 48.5092C44.1313 48.5092 44.0962 48.5853 44.0962 48.7156C44.0962 48.8586 44.0626 48.922 43.9869 48.922C43.9268 48.922 43.8615 48.9839 43.8418 49.0596C43.8221 49.1353 43.7633 49.1972 43.7111 49.1972C43.659 49.1972 43.6163 49.2437 43.6163 49.3005C43.6163 49.3572 43.57 49.4037 43.5134 49.4037C43.4563 49.4037 43.4106 49.4648 43.4106 49.5413C43.4106 49.633 43.3649 49.6789 43.2735 49.6789C43.1973 49.6789 43.1364 49.7248 43.1364 49.7821C43.1364 49.8389 43.0901 49.8853 43.0335 49.8853C42.977 49.8853 42.9307 49.9282 42.9307 49.9805C42.9307 50.0328 42.869 50.0919 42.7936 50.1117C42.7181 50.1314 42.6564 50.197 42.6564 50.2573C42.6564 50.3333 42.5932 50.367 42.4508 50.367C42.3083 50.367 42.2451 50.4007 42.2451 50.4767C42.2451 50.5369 42.1834 50.6025 42.108 50.6222C42.0325 50.6421 41.9708 50.7011 41.9708 50.7535C41.9708 50.8058 41.9246 50.8486 41.868 50.8486C41.8114 50.8486 41.7652 50.8951 41.7652 50.9518C41.7652 51.0239 41.6928 51.055 41.5252 51.055C41.3609 51.055 41.2852 51.0866 41.2852 51.1552C41.2852 51.215 41.1889 51.2734 41.0453 51.3004C40.9078 51.3263 40.8053 51.3864 40.8053 51.4411C40.8053 51.5045 40.7244 51.5367 40.5654 51.5367C40.3978 51.5367 40.3254 51.5678 40.3254 51.6399C40.3254 51.7083 40.2573 51.7431 40.1232 51.7431C40.0051 51.7431 39.894 51.7912 39.8565 51.8586C39.8106 51.9408 39.6714 51.9828 39.3732 52.0044C39.1039 52.024 38.9542 52.0651 38.9542 52.1195C38.9542 52.1786 38.7223 52.2182 38.1841 52.251C37.7607 52.2769 37.3843 52.3279 37.3477 52.3646C37.2613 52.4513 16.0101 52.4561 15.9567 52.3695C15.9358 52.3355 15.504 52.2854 14.9971 52.2581C14.3109 52.2213 14.0662 52.1843 14.0391 52.1135C14.0137 52.047 13.878 52.0183 13.5892 52.0183C13.2789 52.0183 13.1757 51.9941 13.1757 51.9212C13.1757 51.8615 13.0701 51.8061 12.9015 51.7775C12.7329 51.749 12.6273 51.6936 12.6273 51.6339C12.6273 51.5718 12.553 51.5367 12.4216 51.5367C12.2918 51.5367 12.2159 51.5015 12.2159 51.4411C12.2159 51.3864 12.1134 51.3263 11.9759 51.3004C11.8323 51.2734 11.736 51.215 11.736 51.1552C11.736 51.0896 11.6643 51.055 11.5282 51.055C11.4067 51.055 11.3039 51.0122 11.2809 50.9518C11.2592 50.8951 11.1984 50.8486 11.1459 50.8486C11.0934 50.8486 11.0504 50.7993 11.0504 50.7389C11.0504 50.6787 10.9887 50.6131 10.9133 50.5934C10.8379 50.5735 10.7762 50.5145 10.7762 50.4621C10.7762 50.4098 10.7289 50.367 10.6712 50.367C10.6134 50.367 10.5484 50.3205 10.5267 50.2638C10.505 50.207 10.4443 50.1606 10.3917 50.1606C10.3392 50.1606 10.2962 50.1141 10.2962 50.0573C10.2962 50.0006 10.25 49.9541 10.1934 49.9541C10.1363 49.9541 10.0906 49.893 10.0906 49.8165C10.0906 49.7365 10.0448 49.6789 9.98127 49.6789C9.92121 49.6789 9.85588 49.617 9.8362 49.5413C9.81645 49.4656 9.75763 49.4037 9.70545 49.4037C9.65335 49.4037 9.61064 49.3572 9.61064 49.3005C9.61064 49.2437 9.56436 49.1972 9.5078 49.1972C9.45069 49.1972 9.40496 49.1361 9.40496 49.0596C9.40496 48.9839 9.36115 48.922 9.30753 48.922C9.25399 48.922 9.18982 48.8291 9.165 48.7156C9.14018 48.6021 9.07601 48.5092 9.02246 48.5092C8.96885 48.5092 8.92504 48.4472 8.92504 48.3716C8.92504 48.2959 8.88013 48.2339 8.82529 48.2339C8.76564 48.2339 8.7075 48.1373 8.68055 47.9931C8.65478 47.8552 8.59486 47.7523 8.54035 47.7523C8.47721 47.7523 8.44512 47.6711 8.44512 47.5115C8.44512 47.3433 8.41413 47.2706 8.34228 47.2706C8.27413 47.2706 8.23944 47.2023 8.23944 47.0677C8.23944 46.9492 8.19152 46.8377 8.1244 46.8C8.04247 46.754 8.00058 46.6143 7.97905 46.315C7.9591 46.0381 7.91913 45.8945 7.86209 45.8945C7.79984 45.8945 7.76761 45.6976 7.74746 45.194C7.72888 44.7297 7.69151 44.4841 7.6366 44.4658C7.51586 44.4254 7.51586 16.2627 7.6366 16.2223C7.69151 16.2039 7.72888 15.9584 7.74746 15.4941C7.76892 14.957 7.79757 14.7936 7.87032 14.7936C7.94134 14.7936 7.9652 14.6818 7.9652 14.3498C7.9652 14.0138 7.99194 13.8909 8.07531 13.8441C8.14154 13.8069 8.19968 13.6547 8.22134 13.4622C8.24465 13.2547 8.29031 13.1422 8.35119 13.1422C8.41283 13.1422 8.44512 13.0594 8.44512 12.9014C8.44512 12.7392 8.47693 12.6606 8.54254 12.6606C8.59609 12.6606 8.66026 12.5677 8.68508 12.4541C8.7099 12.3406 8.77407 12.2477 8.82762 12.2477C8.88123 12.2477 8.92504 12.1858 8.92504 12.1101C8.92504 12.0344 8.96789 11.9725 9.02027 11.9725C9.07477 11.9725 9.13469 11.8696 9.16047 11.7317C9.18742 11.5875 9.24556 11.4908 9.3052 11.4908C9.36005 11.4908 9.40496 11.4444 9.40496 11.3876C9.40496 11.3308 9.45123 11.2844 9.5078 11.2844C9.56491 11.2844 9.61064 11.2232 9.61064 11.1468C9.61064 11.0703 9.65637 11.0092 9.71348 11.0092C9.77004 11.0092 9.81632 10.9627 9.81632 10.906C9.81632 10.8486 9.87727 10.8028 9.95344 10.8028C10.0448 10.8028 10.0906 10.7569 10.0906 10.6651C10.0906 10.5887 10.1363 10.5275 10.1934 10.5275C10.25 10.5275 10.2962 10.4811 10.2962 10.4243C10.2962 10.367 10.3572 10.3211 10.4334 10.3211C10.5095 10.3211 10.5705 10.2752 10.5705 10.2179C10.5705 10.1611 10.6168 10.1147 10.6733 10.1147C10.7304 10.1147 10.7762 10.0535 10.7762 9.97706C10.7762 9.88534 10.8219 9.83945 10.9133 9.83945C10.9894 9.83945 11.0504 9.79356 11.0504 9.73624C11.0504 9.66833 11.1181 9.63303 11.248 9.63303C11.3881 9.63303 11.4562 9.59291 11.4816 9.49541C11.5013 9.41973 11.5666 9.3578 11.6267 9.3578C11.6868 9.3578 11.736 9.31135 11.736 9.25459C11.736 9.18248 11.8084 9.15138 11.9759 9.15138C12.1375 9.15138 12.2159 9.11945 12.2159 9.0536C12.2159 8.99986 12.3059 8.93608 12.4158 8.91179C12.5259 8.88757 12.6328 8.82317 12.6537 8.76874C12.6751 8.71273 12.7818 8.66972 12.8994 8.66972C13.0384 8.66972 13.1072 8.63553 13.1072 8.56651C13.1072 8.49468 13.1792 8.4633 13.3437 8.4633C13.4939 8.4633 13.6038 8.42113 13.6447 8.34785C13.6906 8.26562 13.8297 8.22358 14.128 8.20197C14.4038 8.18195 14.5469 8.14183 14.5469 8.08459C14.5469 8.02631 14.6953 7.98819 14.9972 7.96892C15.2912 7.95014 15.4689 7.90555 15.509 7.84046C15.5622 7.75397 17.8525 7.73835 32.8499 7.72232C48.0569 7.70601 50.1294 7.69156 50.1294 7.60191C50.1294 7.53908 50.1952 7.5 50.3008 7.5C50.4075 7.5 50.4722 7.46099 50.4722 7.39679C50.4722 7.34002 50.5185 7.29358 50.5751 7.29358C50.6322 7.29358 50.6779 7.23241 50.6779 7.15596C50.6779 7.07952 50.7237 7.01835 50.7808 7.01835C50.8373 7.01835 50.8836 6.9719 50.8836 6.91514C50.8836 6.85782 50.9446 6.81193 51.0207 6.81193C51.1121 6.81193 51.1578 6.76603 51.1578 6.67431C51.1578 6.59787 51.2036 6.5367 51.2607 6.5367C51.3172 6.5367 51.3635 6.49025 51.3635 6.43349C51.3635 6.37672 51.4098 6.33028 51.4664 6.33028C51.5229 6.33028 51.5692 6.28094 51.5692 6.2206C51.5692 6.16032 51.6309 6.09475 51.7063 6.075C51.7817 6.05518 51.8434 5.99615 51.8434 5.94378C51.8434 5.89149 51.8897 5.84862 51.9463 5.84862C52.0028 5.84862 52.0491 5.80576 52.0491 5.75346C52.0491 5.7011 52.1108 5.64207 52.1862 5.62225C52.2617 5.6025 52.3234 5.53693 52.3234 5.47665C52.3234 5.41631 52.3696 5.36697 52.4262 5.36697C52.4828 5.36697 52.529 5.32411 52.529 5.27181C52.529 5.21945 52.5907 5.16041 52.6662 5.1406C52.7416 5.12085 52.8033 5.05527 52.8033 4.995C52.8033 4.93466 52.8496 4.88532 52.9061 4.88532C52.9627 4.88532 53.009 4.83888 53.009 4.78211C53.009 4.72479 53.0699 4.6789 53.1461 4.6789C53.2222 4.6789 53.2832 4.633 53.2832 4.57569C53.2832 4.51892 53.3295 4.47248 53.386 4.47248C53.4431 4.47248 53.4889 4.41131 53.4889 4.33486C53.4889 4.25842 53.5346 4.19725 53.5917 4.19725C53.6483 4.19725 53.6946 4.1508 53.6946 4.09404C53.6946 4.03672 53.7555 3.99083 53.8317 3.99083C53.9231 3.99083 53.9688 3.94493 53.9688 3.85321C53.9688 3.77677 54.0145 3.7156 54.0716 3.7156C54.1282 3.7156 54.1745 3.67273 54.1745 3.62044C54.1745 3.56807 54.2362 3.50904 54.3116 3.48922C54.387 3.46947 54.4487 3.4039 54.4487 3.34362C54.4487 3.28328 54.495 3.23395 54.5515 3.23395C54.6081 3.23395 54.6544 3.1875 54.6544 3.13073C54.6544 3.07397 54.7007 3.02752 54.7572 3.02752C54.8138 3.02752 54.8601 2.97819 54.8601 2.91784C54.8601 2.85757 54.9218 2.792 54.9972 2.77225C55.0726 2.75243 55.1343 2.69339 55.1343 2.64103C55.1343 2.58874 55.1806 2.54587 55.2371 2.54587C55.2937 2.54587 55.34 2.49943 55.34 2.44266C55.34 2.38534 55.4009 2.33945 55.4771 2.33945C55.5685 2.33945 55.6142 2.29356 55.6142 2.20183C55.6142 2.12539 55.66 2.06422 55.7171 2.06422C55.7736 2.06422 55.8199 2.02135 55.8199 1.96906C55.8199 1.9167 55.8816 1.85766 55.957 1.83784C56.0324 1.8181 56.0941 1.75252 56.0941 1.69225C56.0941 1.6319 56.1404 1.58257 56.197 1.58257C56.2535 1.58257 56.2998 1.53612 56.2998 1.47936C56.2998 1.42259 56.3461 1.37615 56.4027 1.37615C56.4592 1.37615 56.5055 1.32681 56.5055 1.26647C56.5055 1.20619 56.5672 1.14062 56.6426 1.12087C56.718 1.10106 56.7797 1.04202 56.7797 0.989656C56.7797 0.937362 56.826 0.894495 56.8826 0.894495C56.9391 0.894495 56.9854 0.851629 56.9854 0.799335C56.9854 0.746973 57.0471 0.687935 57.1225 0.668119C57.198 0.648371 57.2597 0.582798 57.2597 0.522523C57.2597 0.462179 57.3059 0.412844 57.3625 0.412844C57.4311 0.412844 57.4653 0.344037 57.4653 0.206422V0L35.5434 0.00261429C16.3989 0.00488493 13.6102 0.0179583 13.533 0.105825ZM58.2195 6.91514C58.2195 6.97245 58.1585 7.01835 58.0824 7.01835C58.005 7.01835 57.9453 7.06424 57.9453 7.12369C57.9453 7.1817 57.899 7.24693 57.8424 7.26867C57.7859 7.29048 57.7396 7.35144 57.7396 7.40415C57.7396 7.45686 57.6779 7.5 57.6025 7.5C57.527 7.5 57.4653 7.54287 57.4653 7.59516C57.4653 7.64752 57.4036 7.70656 57.3282 7.72637C57.2528 7.74612 57.1911 7.8117 57.1911 7.87197C57.1911 7.93232 57.1448 7.98165 57.0883 7.98165C57.0317 7.98165 56.9854 8.0281 56.9854 8.08486C56.9854 8.14163 56.9391 8.18807 56.8826 8.18807C56.826 8.18807 56.7797 8.23094 56.7797 8.28323C56.7797 8.3356 56.718 8.39463 56.6426 8.41445C56.5672 8.4342 56.5055 8.49977 56.5055 8.56005C56.5055 8.62039 56.4592 8.66972 56.4027 8.66972C56.3461 8.66972 56.2998 8.71259 56.2998 8.76489C56.2998 8.81725 56.2381 8.87628 56.1627 8.8961C56.0873 8.91585 56.0256 8.98142 56.0256 9.0417C56.0256 9.10204 55.9793 9.15138 55.9227 9.15138C55.8662 9.15138 55.8199 9.19782 55.8199 9.25459C55.8199 9.31135 55.7772 9.3578 55.7251 9.3578C55.6729 9.3578 55.6141 9.41973 55.5943 9.49541C55.5747 9.5711 55.5093 9.63303 55.4493 9.63303C55.3891 9.63303 55.34 9.67947 55.34 9.73624C55.34 9.793 55.2937 9.83945 55.2371 9.83945C55.1806 9.83945 55.1343 9.88232 55.1343 9.93461C55.1343 9.98697 55.0726 10.046 54.9972 10.0658C54.9218 10.0856 54.8601 10.1511 54.8601 10.2114C54.8601 10.2718 54.8138 10.3211 54.7572 10.3211C54.7007 10.3211 54.6544 10.364 54.6544 10.4163C54.6544 10.4686 54.5927 10.5277 54.5173 10.5475C54.4419 10.5672 54.3801 10.6328 54.3801 10.6931C54.3801 10.7534 54.3339 10.8028 54.2773 10.8028C54.2207 10.8028 54.1745 10.8492 54.1745 10.906C54.1745 10.9627 54.1282 11.0092 54.0716 11.0092C54.0151 11.0092 53.9688 11.0585 53.9688 11.1189C53.9688 11.1791 53.9071 11.2447 53.8317 11.2645C53.7563 11.2843 53.6946 11.3433 53.6946 11.3957C53.6946 11.448 53.6483 11.4908 53.5917 11.4908C53.5352 11.4908 53.4889 11.5337 53.4889 11.586C53.4889 11.6383 53.4272 11.6974 53.3518 11.7172C53.2763 11.7369 53.2146 11.8025 53.2146 11.8628C53.2146 11.9231 53.1684 11.9725 53.1118 11.9725C53.0552 11.9725 53.009 12.0153 53.009 12.0676C53.009 12.12 52.9473 12.179 52.8718 12.1989C52.7964 12.2186 52.7347 12.2842 52.7347 12.3445C52.7347 12.4048 52.6884 12.4541 52.6319 12.4541C52.5753 12.4541 52.529 12.5006 52.529 12.5573C52.529 12.6141 52.4828 12.6606 52.4262 12.6606C52.3696 12.6606 52.3234 12.7034 52.3234 12.7557C52.3234 12.8081 52.2617 12.8671 52.1862 12.8869C52.1108 12.9067 52.0491 12.9722 52.0491 13.0325C52.0491 13.0929 52.0028 13.1422 51.9463 13.1422C51.8897 13.1422 51.8434 13.1851 51.8434 13.2374C51.8434 13.2897 51.7817 13.3488 51.7063 13.3686C51.6309 13.3883 51.5692 13.4539 51.5692 13.5142C51.5692 13.5745 51.5229 13.6239 51.4664 13.6239C51.4098 13.6239 51.3635 13.6703 51.3635 13.7271C51.3635 13.7838 51.3208 13.8303 51.2687 13.8303C51.2165 13.8303 51.1577 13.8922 51.138 13.9679C51.1183 14.0436 51.051 14.1055 50.9885 14.1055C50.9016 14.1055 50.88 14.1581 50.8964 14.3291L50.9179 14.5528L57.0026 14.5703C62.3479 14.5858 63.0872 14.6004 63.0872 14.6907C63.0872 14.7624 63.16 14.7936 63.3272 14.7936C63.4948 14.7936 63.5672 14.8247 63.5672 14.8968C63.5672 14.9536 63.6134 15 63.67 15C63.7271 15 63.7728 15.0612 63.7728 15.1376C63.7728 15.2293 63.8186 15.2752 63.91 15.2752C64.0288 15.2752 64.0471 15.3211 64.0471 15.6193C64.0471 15.8792 64.0722 15.9633 64.1499 15.9633C64.2405 15.9633 64.2528 16.6781 64.2528 21.9839C64.2528 26.7551 64.2705 28.0044 64.3385 28.0036C64.538 28.0015 64.7327 27.913 64.7327 27.8245C64.7327 27.7722 64.7789 27.7294 64.8355 27.7294C64.8921 27.7294 64.9384 27.6829 64.9384 27.6261C64.9384 27.5688 64.9993 27.5229 65.0755 27.5229C65.1669 27.5229 65.2126 27.477 65.2126 27.3853C65.2126 27.3089 65.2583 27.2477 65.3154 27.2477C65.372 27.2477 65.4183 27.2013 65.4183 27.1445C65.4183 27.0872 65.4792 27.0413 65.5554 27.0413C65.6468 27.0413 65.6925 26.9954 65.6925 26.9037C65.6925 26.8272 65.7382 26.7661 65.7953 26.7661C65.8519 26.7661 65.8982 26.7196 65.8982 26.6628C65.8982 26.6061 65.9445 26.5596 66.001 26.5596C66.0576 26.5596 66.1039 26.5132 66.1039 26.4564C66.1039 26.3991 66.1648 26.3532 66.241 26.3532C66.3324 26.3532 66.3781 26.3073 66.3781 26.2156C66.3781 26.1392 66.4238 26.078 66.4809 26.078C66.5375 26.078 66.5838 26.0315 66.5838 25.9748C66.5838 25.9175 66.6447 25.8716 66.7209 25.8716C66.8123 25.8716 66.858 25.8257 66.858 25.7339C66.858 25.6575 66.9038 25.5963 66.9609 25.5963C67.0174 25.5963 67.0637 25.5535 67.0637 25.5012C67.0637 25.4488 67.1285 25.3889 67.2077 25.3682C67.2928 25.3458 67.332 25.2984 67.3037 25.2523C67.2753 25.2062 67.3145 25.1588 67.3996 25.1364C67.4788 25.1156 67.5436 25.0558 67.5436 25.0034C67.5436 24.9511 67.5899 24.9083 67.6465 24.9083C67.703 24.9083 67.7493 24.8618 67.7493 24.805C67.7493 24.7477 67.8102 24.7018 67.8864 24.7018C67.9778 24.7018 68.0235 24.6559 68.0235 24.5642C68.0235 24.4878 68.0693 24.4266 68.1264 24.4266C68.1829 24.4266 68.2292 24.3802 68.2292 24.3234C68.2292 24.2661 68.2902 24.2202 68.3663 24.2202C68.4577 24.2202 68.5035 24.1743 68.5035 24.0826C68.5035 24.0061 68.5492 23.945 68.6063 23.945C68.6629 23.945 68.7091 23.9021 68.7091 23.8498C68.7091 23.7974 68.7708 23.7384 68.8463 23.7186C68.9217 23.6988 68.9834 23.6333 68.9834 23.573C68.9834 23.5126 69.0297 23.4633 69.0862 23.4633C69.1428 23.4633 69.1891 23.4169 69.1891 23.3601C69.1891 23.3033 69.2353 23.2569 69.2919 23.2569C69.3485 23.2569 69.3947 23.2104 69.3947 23.1537C69.3947 23.0964 69.4557 23.0505 69.5319 23.0505C69.6232 23.0505 69.669 23.0046 69.669 22.9128C69.669 22.8364 69.7147 22.7752 69.7718 22.7752C69.8284 22.7752 69.8747 22.7288 69.8747 22.672C69.8747 22.6147 69.9356 22.5688 70.0118 22.5688C70.1032 22.5688 70.1489 22.5229 70.1489 22.4312C70.1489 22.3547 70.1946 22.2936 70.2517 22.2936C70.3083 22.2936 70.3546 22.2471 70.3546 22.1904C70.3546 22.1336 70.4008 22.0872 70.4574 22.0872C70.514 22.0872 70.5602 22.0407 70.5602 21.9839C70.5602 21.9266 70.6212 21.8807 70.6974 21.8807C70.7888 21.8807 70.8345 21.8348 70.8345 21.7431C70.8345 21.6667 70.8802 21.6055 70.9373 21.6055C70.9939 21.6055 71.0402 21.5591 71.0402 21.5023C71.0402 21.445 71.1011 21.3991 71.1773 21.3991C71.2687 21.3991 71.3144 21.3532 71.3144 21.2615C71.3144 21.185 71.3601 21.1239 71.4172 21.1239C71.4738 21.1239 71.5201 21.0774 71.5201 21.0206C71.5201 20.9639 71.5631 20.9174 71.6156 20.9174C71.7204 20.9174 71.7943 20.7729 71.7943 20.5678C71.7943 20.4952 71.8406 20.4358 71.8972 20.4358C71.9877 20.4358 72 19.8127 72 15.2408C72 10.669 71.9877 10.0459 71.8972 10.0459C71.822 10.0459 71.794 9.96709 71.7934 9.75344C71.7921 9.36145 71.7299 9.15138 71.6149 9.15138C71.5522 9.15138 71.5201 9.0697 71.5201 8.91055C71.5201 8.74239 71.4891 8.66972 71.4172 8.66972C71.3601 8.66972 71.3144 8.60856 71.3144 8.53211C71.3144 8.45642 71.2706 8.3945 71.217 8.3945C71.1634 8.3945 71.0993 8.30161 71.0744 8.18807C71.0496 8.07454 70.9855 7.98165 70.9319 7.98165C70.8783 7.98165 70.8345 7.93521 70.8345 7.87844C70.8345 7.82167 70.7853 7.77523 70.7252 7.77523C70.6651 7.77523 70.5998 7.7133 70.5801 7.63761C70.5547 7.54011 70.4866 7.5 70.3465 7.5C70.2236 7.5 70.1489 7.46388 70.1489 7.40443C70.1489 7.34973 70.0464 7.28959 69.9089 7.26371C69.7653 7.23667 69.669 7.17833 69.669 7.11846C69.669 7.04298 69.5761 7.01835 69.2919 7.01835C69.0024 7.01835 68.9148 6.9944 68.9148 6.91514C68.9148 6.82424 68.2749 6.81193 63.5672 6.81193C58.8594 6.81193 58.2195 6.82424 58.2195 6.91514ZM18.5234 13.2374C18.5234 13.3038 18.3885 13.3471 18.0778 13.3805C17.7608 13.4145 17.6321 13.4566 17.6321 13.5261C17.6321 13.5919 17.5538 13.6239 17.3922 13.6239C17.2331 13.6239 17.1522 13.6561 17.1522 13.7194C17.1522 13.7741 17.0497 13.8343 16.9122 13.8601C16.7686 13.8872 16.6723 13.9455 16.6723 14.0054C16.6723 14.0739 16.5966 14.1055 16.4323 14.1055C16.2648 14.1055 16.1924 14.1366 16.1924 14.2087C16.1924 14.2655 16.1451 14.3119 16.0874 14.3119C16.0296 14.3119 15.9654 14.3565 15.9445 14.4109C15.9237 14.4654 15.8167 14.5298 15.7067 14.554C15.5967 14.5783 15.5068 14.6421 15.5068 14.6958C15.5068 14.7496 15.4576 14.7936 15.3975 14.7936C15.3374 14.7936 15.2721 14.8555 15.2524 14.9312C15.2327 15.0069 15.1738 15.0688 15.1217 15.0688C15.0696 15.0688 15.0269 15.1153 15.0269 15.172C15.0269 15.2288 14.9841 15.2752 14.932 15.2752C14.8799 15.2752 14.821 15.3372 14.8013 15.4128C14.7816 15.4885 14.7163 15.5505 14.6562 15.5505C14.5805 15.5505 14.5469 15.6139 14.5469 15.7569C14.5469 15.8999 14.5133 15.9633 14.4377 15.9633C14.3776 15.9633 14.3123 16.0252 14.2926 16.1009C14.2728 16.1766 14.2161 16.2385 14.1664 16.2385C14.1167 16.2385 14.0663 16.3236 14.0544 16.4278C14.0422 16.5342 13.9952 16.6095 13.947 16.5998C13.8968 16.5897 13.8613 16.6536 13.8613 16.7546C13.8613 16.8552 13.822 16.9266 13.7665 16.9266C13.6626 16.9266 13.5895 17.1308 13.5881 17.4255C13.5874 17.5393 13.5497 17.6147 13.4932 17.6147C13.4324 17.6147 13.3866 17.7268 13.3635 17.9328C13.3439 18.1078 13.287 18.2763 13.2372 18.3072C13.1751 18.3456 13.1379 18.5813 13.1189 19.0555C13.0977 19.5857 13.069 19.7477 12.9964 19.7477C12.916 19.7477 12.9015 21.331 12.9015 30.1032C12.9015 39.2622 12.9134 40.4587 13.0043 40.4587C13.083 40.4587 13.1072 40.5456 13.1072 40.8275C13.1072 41.4142 13.1827 41.8349 13.2879 41.8349C13.3513 41.8349 13.3814 41.9235 13.3814 42.1101C13.3814 42.3089 13.41 42.3853 13.4843 42.3853C13.553 42.3853 13.5871 42.4543 13.5871 42.5939C13.5871 42.7119 13.63 42.819 13.6858 42.8405C13.74 42.8614 13.8042 42.9687 13.8283 43.0792C13.8525 43.1895 13.916 43.2798 13.9696 43.2798C14.0232 43.2798 14.067 43.3392 14.067 43.4118C14.067 43.6169 14.1409 43.7615 14.2458 43.7615C14.2983 43.7615 14.3413 43.8267 14.3413 43.9064C14.3413 44.007 14.3727 44.0393 14.4441 44.0118C14.514 43.9849 14.5469 44.0155 14.5469 44.1076C14.5469 44.1822 14.5907 44.2431 14.6444 44.2431C14.6979 44.2431 14.7621 44.336 14.7869 44.4495C14.8117 44.5631 14.8759 44.656 14.9294 44.656C14.983 44.656 15.0269 44.7057 15.0269 44.7665C15.0269 44.8362 15.0646 44.8626 15.1289 44.8378C15.185 44.8162 15.2264 44.8206 15.2208 44.8477C15.1993 44.9529 15.3206 45.1376 15.4113 45.1376C15.4638 45.1376 15.5068 45.1995 15.5068 45.2752C15.5068 45.3866 15.5525 45.4128 15.7467 45.4128C15.9143 45.4128 15.9867 45.4439 15.9867 45.5161C15.9867 45.5728 16.033 45.6193 16.0895 45.6193C16.1461 45.6193 16.1924 45.6643 16.1924 45.7194C16.1924 45.7792 16.2887 45.8376 16.4323 45.8646C16.5698 45.8905 16.6723 45.9506 16.6723 46.0053C16.6723 46.0653 16.7477 46.1009 16.8745 46.1009C16.989 46.1009 17.1036 46.1489 17.1384 46.2114C17.1755 46.2779 17.3271 46.3362 17.5189 46.358C17.7079 46.3793 17.8378 46.4289 17.8378 46.4795C17.8378 46.5379 18.0154 46.5752 18.3999 46.5976C18.7369 46.6171 18.9725 46.662 18.9884 46.7096C19.028 46.829 34.4749 46.8235 34.5146 46.704C34.5329 46.6488 34.739 46.6101 35.1031 46.5935C35.4979 46.5756 35.6633 46.5421 35.6633 46.4803C35.6633 46.4223 35.8045 46.3824 36.0823 46.3622C36.3805 46.3406 36.5197 46.2986 36.5656 46.2164C36.6032 46.149 36.7142 46.1009 36.8323 46.1009C36.9664 46.1009 37.0345 46.0661 37.0345 45.9977C37.0345 45.9404 37.0955 45.8945 37.1717 45.8945C37.2471 45.8945 37.3088 45.8494 37.3088 45.7944C37.3088 45.7345 37.4051 45.6762 37.5487 45.6491C37.6862 45.6233 37.7887 45.5631 37.7887 45.5084C37.7887 45.4481 37.8646 45.4128 37.9944 45.4128C38.1368 45.4128 38.2001 45.3791 38.2001 45.3032C38.2001 45.2429 38.2618 45.1773 38.3372 45.1576C38.4126 45.1378 38.4743 45.0787 38.4743 45.0264C38.4743 44.9741 38.5206 44.9312 38.5771 44.9312C38.6337 44.9312 38.68 44.8916 38.68 44.8433C38.68 44.7949 38.7417 44.7023 38.8171 44.6375C38.8925 44.5727 38.9542 44.4575 38.9542 44.3814C38.9542 44.3044 38.9997 44.2431 39.057 44.2431C39.1136 44.2431 39.1599 44.1824 39.1599 44.1082C39.1599 44.0339 39.2189 43.9179 39.291 43.8502C39.3632 43.7825 39.4326 43.6342 39.4453 43.5206C39.4587 43.4011 39.5045 43.3214 39.5541 43.3314C39.6112 43.3429 39.6398 43.2569 39.6398 43.0734C39.6398 42.8815 39.6693 42.7982 39.7372 42.7982C39.8067 42.7982 39.8486 42.6663 39.8838 42.3365C39.911 42.0825 39.9751 41.8326 40.0264 41.7811C40.0962 41.711 40.1197 41.4457 40.1197 40.7291C40.1197 39.923 40.1034 39.7706 40.0169 39.7706C39.945 39.7706 39.914 39.698 39.914 39.5298V39.289H31.207C23.8766 39.289 22.4999 39.2741 22.4999 39.1947C22.4999 39.1333 22.3791 39.0842 22.1547 39.0544C21.9449 39.0264 21.8265 38.9807 21.8531 38.9377C21.877 38.8987 21.8318 38.8499 21.7526 38.8291C21.6734 38.8083 21.6086 38.7484 21.6086 38.6961C21.6086 38.6438 21.5469 38.6009 21.4715 38.6009C21.3801 38.6009 21.3344 38.555 21.3344 38.4633C21.3344 38.3869 21.2886 38.3257 21.2315 38.3257C21.175 38.3257 21.1287 38.2792 21.1287 38.2225C21.1287 38.1657 21.0838 38.1193 21.0289 38.1193C20.9693 38.1193 20.9111 38.0226 20.8842 37.8784C20.8584 37.7405 20.7985 37.6376 20.744 37.6376C20.6725 37.6376 20.6488 37.5261 20.6488 37.1904C20.6488 36.8387 20.6267 36.7431 20.5459 36.7431C20.4553 36.7431 20.4431 36.0316 20.4431 30.7523C20.4431 26.7544 20.4667 24.7173 20.514 24.6285C20.563 24.5368 20.563 24.4954 20.514 24.4954C20.4719 24.4954 20.4431 24.2999 20.4431 24.0138C20.4431 23.6315 20.4643 23.5321 20.5459 23.5321C20.6275 23.5321 20.6488 23.4328 20.6488 23.0505C20.6488 22.6682 20.67 22.5688 20.7516 22.5688C20.8228 22.5688 20.8544 22.497 20.8544 22.336C20.8544 22.1611 20.8885 22.0942 20.9916 22.0672C21.0828 22.0433 21.1287 21.9733 21.1287 21.8582C21.1287 21.722 21.1723 21.6756 21.3344 21.6399C21.4475 21.615 21.54 21.5506 21.54 21.4969C21.54 21.4431 21.6017 21.3991 21.6772 21.3991C21.7526 21.3991 21.8143 21.3561 21.8143 21.3035C21.8143 21.2488 21.9168 21.1887 22.0542 21.1628C22.1979 21.1358 22.2942 21.0774 22.2942 21.0175C22.2942 20.9374 22.417 20.9174 22.9112 20.9174C23.3683 20.9174 23.5238 20.8951 23.5111 20.8314C23.4975 20.7632 24.8735 20.7425 30.1786 20.7312C33.8551 20.7234 36.9634 20.6988 37.086 20.6765C37.2167 20.6527 37.3088 20.5946 37.3088 20.5359C37.3088 20.4809 37.3551 20.4358 37.4116 20.4358C37.4682 20.4358 37.5145 20.3893 37.5145 20.3326C37.5145 20.2753 37.5754 20.2294 37.6516 20.2294C37.743 20.2294 37.7887 20.1835 37.7887 20.0917C37.7887 20.0153 37.8344 19.9541 37.8915 19.9541C37.9481 19.9541 37.9944 19.9077 37.9944 19.8509C37.9944 19.7942 38.0406 19.7477 38.0972 19.7477C38.1538 19.7477 38.2001 19.6984 38.2001 19.638C38.2001 19.5778 38.2618 19.5122 38.3372 19.4924C38.4126 19.4726 38.4743 19.4136 38.4743 19.3612C38.4743 19.3089 38.5206 19.2661 38.5771 19.2661C38.6337 19.2661 38.68 19.2196 38.68 19.1628C38.68 19.1055 38.7409 19.0596 38.8171 19.0596C38.9085 19.0596 38.9542 19.0137 38.9542 18.922C38.9542 18.8456 38.9999 18.7844 39.057 18.7844C39.1136 18.7844 39.1599 18.738 39.1599 18.6812C39.1599 18.6239 39.2208 18.578 39.297 18.578C39.3884 18.578 39.4341 18.5321 39.4341 18.4404C39.4341 18.3639 39.4799 18.3028 39.537 18.3028C39.5935 18.3028 39.6398 18.2563 39.6398 18.1995C39.6398 18.1428 39.6861 18.0963 39.7426 18.0963C39.7992 18.0963 39.8455 18.047 39.8455 17.9867C39.8455 17.9264 39.9072 17.8608 39.9826 17.8411C40.058 17.8212 40.1197 17.7622 40.1197 17.7098C40.1197 17.6575 40.166 17.6147 40.2226 17.6147C40.2791 17.6147 40.3254 17.5718 40.3254 17.5195C40.3254 17.4672 40.3871 17.4081 40.4625 17.3883C40.5379 17.3686 40.5996 17.303 40.5996 17.2427C40.5996 17.1824 40.6459 17.133 40.7025 17.133C40.759 17.133 40.8053 17.0866 40.8053 17.0298C40.8053 16.9725 40.8663 16.9266 40.9424 16.9266C41.0331 16.9266 41.0796 16.8807 41.0796 16.7911C41.0796 16.699 41.1125 16.6684 41.1824 16.6953C41.2538 16.7228 41.2852 16.6905 41.2852 16.5899C41.2852 16.4908 41.3286 16.445 41.4224 16.445C41.4985 16.445 41.5595 16.3991 41.5595 16.3417C41.5595 16.285 41.6058 16.2385 41.6623 16.2385C41.7194 16.2385 41.7652 16.1774 41.7652 16.1009C41.7652 16.0245 41.8109 15.9633 41.868 15.9633C41.9246 15.9633 41.9708 15.9204 41.9708 15.8681C41.9708 15.8158 42.0325 15.7567 42.108 15.7369C42.1834 15.7172 42.2451 15.6516 42.2451 15.5913C42.2451 15.531 42.2914 15.4817 42.3479 15.4817C42.4045 15.4817 42.4508 15.4352 42.4508 15.3784C42.4508 15.3217 42.497 15.2752 42.5536 15.2752C42.6102 15.2752 42.6564 15.2259 42.6564 15.1656C42.6564 15.1053 42.7181 15.0397 42.7936 15.02C42.869 15.0001 42.9307 14.9411 42.9307 14.8887C42.9307 14.8364 42.977 14.7936 43.0335 14.7936C43.0901 14.7936 43.1364 14.7471 43.1364 14.6904C43.1364 14.6331 43.1973 14.5872 43.2735 14.5872C43.3649 14.5872 43.4106 14.5413 43.4106 14.4495C43.4106 14.3731 43.4563 14.3119 43.5134 14.3119C43.57 14.3119 43.6163 14.2655 43.6163 14.2087C43.6163 14.1514 43.6772 14.1055 43.7534 14.1055C43.8448 14.1055 43.8905 14.0596 43.8905 13.9679C43.8905 13.8914 43.9362 13.8303 43.9933 13.8303C44.0499 13.8303 44.0962 13.7838 44.0962 13.7271C44.0962 13.6703 44.1389 13.6239 44.191 13.6239C44.2792 13.6239 44.3673 13.4284 44.3695 13.2282C44.3702 13.1597 41.7405 13.1422 31.4469 13.1422C20.4887 13.1422 18.5234 13.1566 18.5234 13.2374Z" fill="#FEC267"/>
</svg>
