<svg width="244" height="62" viewBox="0 0 244 62" fill="none" xmlns="http://www.w3.org/2000/svg">
<path fill-rule="evenodd" clip-rule="evenodd" d="M11.526 0.137794C9.09859 0.644135 7.25925 1.50629 5.06217 3.16756C2.52854 5.08359 0.709964 8.1921 0.194762 11.4879C0.0192843 12.6101 -0.0311418 18.0724 0.0176021 30.6777L0.0858481 48.2988L0.67903 49.9244C2.4283 54.7167 6.11102 58.0125 10.932 59.1005C12.2527 59.3984 14.2883 59.4446 26.1041 59.4446C41.3113 59.4446 41.1763 59.4557 44.3869 57.9384C46.3347 57.0178 49.6124 53.7951 50.5004 51.9274C52.0485 48.6714 51.9752 49.2957 52.0515 38.7452L52.1208 29.1916L51.6389 28.3623C51.3738 27.9063 50.8878 27.3331 50.5589 27.0885C49.9769 26.6558 49.7169 26.6422 40.8993 26.5845L31.8381 26.5248L28.3577 29.9813L24.8776 33.4376L35.2092 33.4928L45.5408 33.5478V38.4862C45.5408 42.8284 45.4878 43.616 45.1019 45.0123C44.2364 48.1432 42.4697 50.2464 39.4493 51.7419L37.8276 52.5448H26.0543H14.2811L12.6917 51.7733C9.65766 50.3006 7.7948 48.1519 6.97145 45.1758C6.56561 43.709 6.54568 43.0044 6.54568 30.1817C6.54568 15.0524 6.52003 15.3426 8.09107 12.6999C9.53114 10.278 10.7968 9.14556 12.9724 8.33286L14.8196 7.64288L32.0347 7.64223L49.2496 7.64182L53.0601 3.82079L56.8704 0L34.4102 0.02462C22.057 0.0382074 11.7592 0.0889648 11.526 0.137794ZM60.0067 5.10928C59.9796 7.80275 59.8846 10.1323 59.7958 10.286C59.7068 10.44 57.6077 11.2159 55.1306 12.0106C52.6538 12.8052 50.6271 13.5243 50.6271 13.6088C50.6271 13.6933 51.0321 13.8309 51.527 13.9147C52.2798 14.0421 57.3485 15.7331 59.3654 16.5299L59.9444 16.7585L60.0012 21.8028L60.058 26.8473L60.7517 25.7639C61.1333 25.1682 61.6426 24.4536 61.8838 24.1761C62.125 23.8987 63.084 22.597 64.0148 21.2835L65.7074 18.8951L66.5916 19.0352C67.0778 19.1121 69.1778 19.7808 71.2583 20.5211C73.3391 21.2614 75.1265 21.8671 75.2307 21.8671C75.4024 21.8671 74.8789 21.0967 73.388 19.1558C73.0947 18.7739 72.2281 17.5319 71.4626 16.3959C70.6969 15.2599 69.9441 14.2274 69.7894 14.1017C69.5646 13.919 69.7396 13.5268 70.6643 12.1435C71.2998 11.1921 71.8201 10.3504 71.8201 10.2727C71.8201 10.1952 72.3226 9.50009 72.9368 8.72795C74.947 6.20155 75.4668 5.49311 75.3765 5.40267C75.3276 5.35363 73.2915 5.98905 70.8518 6.81448C68.4121 7.63991 66.2956 8.33116 66.1485 8.35069C65.8942 8.38424 64.2127 6.11452 61.507 2.08524C60.8267 1.07192 60.2218 0.236085 60.1631 0.227593C60.1042 0.219101 60.0339 2.41601 60.0067 5.10928ZM18.6257 13.1642C16.1109 13.6198 14.3528 14.9862 13.2785 17.3196C12.7978 18.3637 12.7976 18.3678 12.7976 29.6162C12.7976 40.1283 12.8241 40.9446 13.2009 42.0291C13.6877 43.4305 15.2581 45.0932 16.8243 45.8656L17.8839 46.3881H26.0432H34.2025L35.1488 45.8828C36.5948 45.1106 37.8204 43.9897 38.4147 42.8961C38.9207 41.9645 39.4586 39.6228 39.2211 39.3848C39.1613 39.325 35.1355 39.2759 30.2751 39.2759C21.5264 39.2759 21.4321 39.2712 20.8529 38.815C20.5312 38.5613 20.0912 37.9643 19.8752 37.4881C19.5194 36.7028 19.4827 35.9886 19.4827 29.8285C19.4827 23.6857 19.52 22.9535 19.872 22.1856C20.3351 21.1755 20.8077 20.7228 21.8585 20.2829C22.5087 20.0108 23.8379 19.9564 29.8304 19.9564H37.0221L40.4337 16.5411C42.3101 14.6629 43.8454 13.0954 43.8454 13.0581C43.8454 12.9033 19.5003 13.0056 18.6257 13.1642ZM63.3326 30.6348C61.4839 31.1602 60.2006 32.2394 59.2711 34.0499C58.647 35.2653 58.633 37.7248 59.2425 39.0745C59.8764 40.4778 60.8746 41.5125 62.2447 42.1866C63.2923 42.7018 63.6975 42.7789 65.3607 42.7789C67.0969 42.7789 67.4037 42.7142 68.6986 42.0756L70.1247 41.3724V38.9441V36.516H68.8531H67.5815V38.1936V39.8712L66.9142 40.1043C65.0973 40.7389 62.6275 39.8976 61.9611 38.4174C61.4258 37.2279 61.5937 35.022 62.275 34.2955C63.1524 33.3599 64.4939 32.8442 65.7736 32.9506C66.7832 33.0345 67.1636 33.1998 68.3475 34.0699C68.5537 34.2214 68.8603 34.0527 69.4815 33.4448L70.333 32.612L69.8579 32.1014C68.5581 30.7047 65.5023 30.0178 63.3326 30.6348ZM77.0124 30.545C75.2458 31.0152 73.5329 32.4315 72.6903 34.1191C72.0619 35.3776 72.0611 37.9788 72.6886 39.173C73.3212 40.3763 74.5102 41.5577 75.7408 42.2061C76.6619 42.6912 77.0499 42.7632 78.7079 42.7568C80.9997 42.7479 82.0816 42.3303 83.4055 40.9438C84.7864 39.4973 85.2423 38.4282 85.2423 36.6364C85.2423 35.4657 85.1281 34.8825 84.7496 34.1233C84.0956 32.8115 82.7449 31.4645 81.5689 30.9516C80.5252 30.4962 78.0314 30.2737 77.0124 30.545ZM121.567 30.5768C119.688 31.0518 118.109 32.3432 117.182 34.1626C116.537 35.4292 116.575 37.8839 117.26 39.2383C117.866 40.437 119.368 41.8841 120.497 42.3577C122.452 43.178 125.626 42.8783 127.399 41.7062L128.194 41.1807V38.8483C128.194 37.445 128.109 36.51 127.982 36.5009C127.865 36.4924 127.317 36.4786 126.763 36.4699L125.756 36.4542L125.694 38.0919L125.632 39.7298L124.906 40.0336C123.832 40.4833 122.689 40.4045 121.471 39.7965C120.262 39.1929 119.816 38.6456 119.602 37.5011C119.356 36.1867 119.661 34.9218 120.4 34.1989C121.847 32.7816 124.024 32.5466 125.66 33.6312L126.51 34.1947L127.348 33.4977C127.809 33.1143 128.188 32.6861 128.19 32.5462C128.195 32.2094 126.998 31.3072 125.981 30.8819C124.987 30.4656 122.647 30.304 121.567 30.5768ZM87.503 36.6221V42.6728H91.9535H96.404V41.5051V40.3374H93.331H90.258V35.4545V30.5715H88.8805H87.503V36.6221ZM98.0995 36.6427V42.7139L101.861 42.6352C105.109 42.567 105.753 42.4961 106.577 42.1174C107.875 41.52 108.758 40.7334 109.473 39.5375C110.014 38.6329 110.074 38.3426 110.074 36.6221C110.074 34.7768 110.047 34.6698 109.287 33.499C107.747 31.1269 106.262 30.5715 101.457 30.5715H98.0995V36.6427ZM130.742 34.3399C130.748 38.5896 130.907 39.5731 131.799 40.8716C133.527 43.3884 138.314 43.547 140.357 41.155C141.405 39.9292 141.545 39.1583 141.545 34.6337V30.5715H140.168H138.79V34.6828C138.79 38.449 138.755 38.8386 138.373 39.3247C137.398 40.5663 135.403 40.6514 134.253 39.5003L133.598 38.8441L133.529 34.7078L133.459 30.5715H132.098H130.737L130.742 34.3399ZM147.601 31.5808C147.377 32.1349 146.828 33.3707 146.382 34.3269C145.937 35.2831 145.572 36.1143 145.572 36.1742C145.572 36.2338 145.013 37.5055 144.33 39.0002C142.513 42.9778 142.528 42.6728 144.152 42.6728H145.516L146.068 41.3989L146.619 40.1251H149.387H152.154L152.705 41.3989L153.257 42.6728H154.702H156.147L155.818 41.8766C155.637 41.4389 155.266 40.6028 154.994 40.019C154.171 38.2511 152.162 33.7467 151.466 32.1107L150.811 30.5715L149.41 30.5724L148.009 30.573L147.601 31.5808ZM157.44 36.6221V42.6728H158.817H160.195V40.9743V39.2759H161.546H162.897L164.01 40.9743L165.123 42.6728H166.592C167.709 42.6728 168.024 42.6091 167.906 42.4074C167.305 41.3815 166.016 39.5483 165.739 39.326C165.444 39.0895 165.498 38.98 166.196 38.4032C168.374 36.6052 168.383 33.4618 166.215 31.6723C165.133 30.7779 164.065 30.5715 160.525 30.5715H157.44V36.6221ZM173.394 32.1107C172.677 33.7832 170.388 38.9432 169.342 41.2397L168.69 42.6728H170.147H171.605L172.099 41.3936L172.593 40.1145L175.42 40.1729L178.247 40.2313L178.738 41.3989L179.23 42.5666L180.627 42.6295C181.58 42.6721 182.024 42.6142 182.024 42.4462C182.024 42.311 181.6 41.2796 181.082 40.1544C179.119 35.8901 176.937 30.9471 176.937 30.763C176.937 30.6577 176.288 30.5715 175.495 30.5715H174.053L173.394 32.1107ZM183.507 36.6115V42.6728H184.88H186.252L186.31 39.0394L186.368 35.4061L187.849 37.2879C188.663 38.3229 189.394 39.1991 189.474 39.2347C189.553 39.2706 190.205 40.0587 190.921 40.9862L192.224 42.6728H193.376H194.528V36.6221V30.5715H193.15H191.773L191.763 34.2337L191.753 37.896L191.18 37.1625C190.865 36.7589 190.13 35.8691 189.547 35.1853C188.964 34.5013 187.906 33.2073 187.194 32.3097L185.901 30.6777L184.704 30.614L183.507 30.5503V36.6115ZM196.223 31.7392V32.9069H198.13H200.038V37.7898V42.6728H201.415H202.793V37.7898V32.9069H204.7H206.608V31.7392V30.5715H201.415H196.223V31.7392ZM208.303 36.6221V42.6728H212.966H217.628V41.5051V40.3374H214.343H211.058V39.0636V37.7898H213.813H216.568V36.6221V35.4545H213.813H211.058V34.1807V32.9069H214.237H217.416V31.7392V30.5715H212.86H208.303V36.6221ZM219.959 36.6221V42.6728H224.622H229.284V41.5051V40.3374H225.999H222.714V39.0636V37.7898H225.469H228.225V36.6221V35.4545H225.469H222.714V34.1807V32.9069H225.893H229.072V31.7392V30.5715H224.516H219.959V36.6221ZM231.615 36.6015V42.6728H234.968C239.715 42.6728 241.271 42.1021 242.87 39.7748C243.486 38.8772 243.574 38.5662 243.656 37.006C243.739 35.4279 243.691 35.1303 243.184 34.0921C242.538 32.7699 241.496 31.7676 240.103 31.1299C239.269 30.7477 238.632 30.6775 235.377 30.6091L231.615 30.5303V36.6015ZM80.1452 33.1986C81.7073 33.8671 82.4166 34.9426 82.4166 36.6427C82.4166 38.0174 81.9498 38.9456 80.9124 39.6334C80.1685 40.1266 79.7817 40.2313 78.7053 40.2313C76.4762 40.2313 74.9991 38.8352 74.9991 36.7283C74.9991 34.0136 77.7078 32.1557 80.1452 33.1986ZM105.206 33.2145C106.713 33.8454 107.605 35.5095 107.337 37.1901C107.14 38.428 106.799 38.9984 105.876 39.6398C105.111 40.1712 104.813 40.2387 102.94 40.3043L100.855 40.3771V36.6421V32.9069H102.663C103.762 32.9069 104.759 33.0274 105.206 33.2145ZM164.455 33.5663C165.147 34.3089 165.247 35.1324 164.758 36.0789C164.361 36.8485 163.479 37.1529 161.647 37.1529H160.195V35.0299V32.9069H162.017C163.783 32.9069 163.859 32.9274 164.455 33.5663ZM239.379 33.5968C240.601 34.4151 241.021 35.3942 240.886 37.1085C240.783 38.4259 240.297 39.1817 239.119 39.8564C238.433 40.2495 237.965 40.3311 236.384 40.3338L234.476 40.337V36.6219V32.9066H236.413C238.245 32.9069 238.405 32.944 239.379 33.5968ZM150.557 36.0914C150.865 36.8504 151.166 37.5909 151.228 37.7367C151.312 37.9378 150.872 38.0021 149.412 38.0021H147.485L147.92 36.8875C148.158 36.2744 148.591 35.2483 148.882 34.6072L149.41 33.4414L149.705 34.0764C149.867 34.4257 150.25 35.3324 150.557 36.0914ZM175.735 34.0214C175.799 34.1675 176.184 35.1229 176.591 36.1445L177.333 38.0021H175.417C173.783 38.0021 173.52 37.9543 173.626 37.6767C174.229 36.1033 175.324 33.7561 175.456 33.7561C175.547 33.7561 175.672 33.8756 175.735 34.0214ZM191.6 49.9441C191.656 50.519 191.764 50.6454 192.249 50.7012C192.789 50.7634 192.832 50.712 192.832 50.0112C192.832 49.3081 192.786 49.2541 192.183 49.2541C191.578 49.2541 191.538 49.3013 191.6 49.9441ZM238.437 49.9441C238.495 50.5545 238.576 50.6341 239.139 50.6341C239.701 50.6341 239.782 50.5545 239.841 49.9441C239.905 49.2802 239.878 49.2541 239.139 49.2541C238.399 49.2541 238.373 49.2802 238.437 49.9441ZM162.595 51.088C161.844 51.2544 160.246 52.8072 159.974 53.6352C159.336 55.5705 160.245 57.9666 161.946 58.8362C163.746 59.7561 166.255 59.1459 167.324 57.528C168.151 56.2756 168.258 54.3802 167.568 53.2019C166.751 51.8058 165.736 51.1402 164.298 51.0574C163.615 51.0179 162.848 51.0319 162.595 51.088ZM177.891 51.2542C177.541 51.4111 176.951 51.8434 176.579 52.2147C174.71 54.08 175.262 57.6267 177.609 58.826C178.804 59.4368 180.799 59.3336 181.859 58.6061C184.551 56.7578 184.233 52.6905 181.291 51.3517C180.286 50.8944 178.789 50.8515 177.891 51.2542ZM225.324 51.3665C224.472 51.8867 224.198 52.4 224.198 53.4709C224.198 54.5509 224.781 55.0413 226.791 55.6529C228.504 56.1743 229.006 56.7864 228.331 57.5331C227.821 58.0974 226.71 58.0844 225.505 57.4999C224.59 57.0558 224.55 57.0539 224.273 57.4343C224.115 57.6505 223.986 57.9061 223.986 58.0023C223.986 58.2579 225.269 59.0164 225.946 59.161C226.267 59.2294 226.529 59.4056 226.529 59.5525C226.529 59.6994 226.72 59.8697 226.953 59.9308C227.186 59.9917 227.377 60.1941 227.377 60.38C227.377 60.7227 227.167 60.8013 226.453 60.7257C226.208 60.6998 226.094 60.7911 226.151 60.9664C226.274 61.3411 227.322 61.4528 227.707 61.1324C228.115 60.7938 228.094 60.0987 227.662 59.6206C227.33 59.2533 227.343 59.2323 227.895 59.2323C228.276 59.2323 228.729 58.982 229.199 58.5105C229.788 57.9207 229.92 57.6269 229.92 56.9042C229.92 56.4179 229.817 55.827 229.691 55.5911C229.406 55.0589 227.913 54.3602 227.046 54.354C225.726 54.3445 225.054 53.1461 226.014 52.5155C226.578 52.1457 228.055 52.2455 228.589 52.6896C228.797 52.8626 228.975 52.8248 229.288 52.5412C229.888 51.9971 229.821 51.8321 228.807 51.3714C227.635 50.8385 226.192 50.8366 225.324 51.3665ZM58.4185 51.8548C58.6432 52.2342 59.0511 52.927 59.3254 53.394C59.5994 53.8611 59.8815 54.291 59.9521 54.3494C60.0226 54.4078 60.2899 54.8012 60.5461 55.2237C60.918 55.8372 61.0117 56.3179 61.0117 57.6121V59.2323H61.6475H62.2833V57.5634C62.2833 55.9276 62.3036 55.8631 63.3042 54.3258C63.8656 53.463 64.541 52.399 64.8048 51.961L65.2848 51.1648H64.5314C63.8126 51.1648 63.7335 51.2426 62.8002 52.8633C62.2623 53.7974 61.7365 54.5617 61.6318 54.5617C61.5269 54.5617 60.9979 53.7974 60.456 52.8633C59.5261 51.2598 59.4303 51.1648 58.7404 51.1648H58.0101L58.4185 51.8548ZM67.4114 52.704C67.0524 53.5505 66.2763 55.3372 65.6867 56.6743C65.0969 58.0114 64.6145 59.1338 64.6145 59.1689C64.6145 59.2037 64.9405 59.2323 65.3387 59.2323C66.0018 59.2323 66.0938 59.1517 66.4271 58.277L66.7915 57.3216H68.7834H70.7755L71.1843 58.277C71.5406 59.1094 71.6758 59.2323 72.2364 59.2323C72.5903 59.2323 72.8798 59.1672 72.8798 59.0875C72.8798 58.881 71.3041 55.081 70.6952 53.8186C70.4133 53.2348 70.0554 52.399 69.8994 51.961C69.6417 51.2377 69.5446 51.1648 68.84 51.1648C68.0783 51.1648 68.0522 51.1927 67.4114 52.704ZM73.7275 51.8018V52.4387H75.9602C78.4766 52.4387 78.4921 52.459 77.0785 53.9248C75.5399 55.5204 73.7275 58.08 73.7275 58.6572V59.2323H77.0124H80.2973V58.6024V57.9725L77.9612 57.9124L75.6252 57.8524L76.4972 56.6847C76.9766 56.0425 77.6703 55.1861 78.0384 54.7814C79.5022 53.1732 80.0814 52.3143 80.0833 51.7487L80.0854 51.1648H76.9065H73.7275V51.8018ZM81.9928 55.1986V59.2323H82.6286H83.2644V55.1986V51.1648H82.6286H81.9928V55.1986ZM85.3837 55.1986V59.2323H87.9268H90.47V58.6037V57.9751L88.6156 57.9137L86.7612 57.8524L86.7029 54.5086L86.6444 51.1648H86.0142H85.3837V55.1986ZM91.9535 55.1986V59.2323H92.5893H93.2251V55.1986V51.1648H92.5893H91.9535V55.1986ZM95.3444 55.1986V59.2323H95.9802H96.616V56.2601C96.616 54.6254 96.6876 53.291 96.7749 53.2949C96.8622 53.2987 97.5061 54.4447 98.2054 55.8414C99.8852 59.1964 99.9227 59.1945 101.641 55.6697L102.958 52.9694L102.966 56.1009L102.974 59.2323H103.601H104.228L104.29 55.1984L104.351 51.1644L103.279 51.1646C102.22 51.1649 102.203 51.1755 101.823 52.0671C101.448 52.9469 100.018 55.8778 99.9017 56.0058C99.8697 56.0412 99.3016 54.9663 98.6393 53.6174L97.4351 51.1648H96.3898H95.3444V55.1986ZM108.908 51.3693C108.908 51.5952 109.607 53.4547 110.072 54.4649C110.236 54.8205 110.652 55.8714 110.997 56.8002C111.342 57.7292 111.691 58.6564 111.772 58.8608C111.876 59.1219 112.15 59.23 112.692 59.2245L113.464 59.2164L114.894 55.5623C115.681 53.5524 116.382 51.7408 116.453 51.5364C116.56 51.2302 116.457 51.1648 115.865 51.1648H115.147L113.906 54.1299L112.665 57.0949L111.721 54.8198C111.202 53.5685 110.675 52.2342 110.549 51.8548C110.352 51.2602 110.223 51.1648 109.614 51.1648C109.226 51.1648 108.908 51.2568 108.908 51.3693ZM117.809 55.1986V59.2323H120.619H123.43L123.456 58.5954L123.481 57.9585H121.281H119.081V56.7909V55.6232H120.988C122.881 55.6232 122.895 55.6192 122.895 55.0924C122.895 54.8005 122.824 54.5572 122.736 54.5519C122.649 54.5464 121.79 54.5326 120.829 54.5211L119.081 54.5003V53.4694V52.4387H121.2H123.319V51.8018V51.1648H120.564H117.809V55.1986ZM127.558 51.8018C127.558 52.4323 127.57 52.4387 128.723 52.4387H129.889V55.8355V59.2323H130.631H131.372V55.8355V52.4387H132.538C133.692 52.4387 133.704 52.4323 133.704 51.8018V51.1648H130.631H127.558V51.8018ZM135.187 55.1986V59.2323H138.048H140.909V58.6029V57.9734L138.737 57.9129L136.565 57.8524V56.7909V55.7294L138.421 55.6232C139.443 55.5648 140.277 55.4453 140.276 55.3578C140.275 55.2704 140.274 55.0315 140.274 54.8271C140.274 54.4971 140.074 54.4632 138.481 54.5239C136.725 54.591 136.684 54.5812 136.555 54.0679C136.483 53.7793 136.455 53.3187 136.494 53.0442C136.562 52.5616 136.638 52.5427 138.737 52.4843L140.909 52.4238V51.7943V51.1648H138.048H135.187V55.1986ZM142.605 55.1986V59.2323H143.241C143.874 59.2323 143.876 59.2279 143.876 57.9982C143.876 56.924 143.953 56.6904 144.47 56.1949L145.063 55.6257L146.372 57.429C147.594 59.1124 147.731 59.2323 148.44 59.2323C148.989 59.2323 149.157 59.1587 149.045 58.967C148.759 58.4746 146.582 55.3075 146.309 54.9863C146.081 54.7173 146.282 54.4037 147.601 52.9694L149.163 51.271L148.385 51.2026C147.654 51.1383 147.499 51.2464 145.795 53.0072L143.982 54.8801L143.921 53.0225L143.86 51.1648H143.232H142.605V55.1986ZM150.658 55.1986V59.2323H151.294H151.93L151.933 56.3132L151.936 53.394L152.727 54.278C153.163 54.7642 154.187 56.0748 155.003 57.1904C156.416 59.1228 156.524 59.2192 157.281 59.2255L158.076 59.2323V55.1986V51.1648H157.34H156.604L156.545 54.0555L156.486 56.946L155.774 55.9516C155.382 55.4045 154.824 54.701 154.534 54.3878C154.244 54.0747 153.569 53.2216 153.033 52.4917C152.18 51.3281 151.974 51.1648 151.359 51.1648H150.658V55.1986ZM169.732 55.1986V59.2323H172.275H174.818V58.5954V57.9585H173.017H171.215V54.5617V51.1648H170.474H169.732V55.1986ZM185.506 51.6425C185.555 51.9051 185.602 52.192 185.611 52.2794C185.62 52.3669 186.151 52.4387 186.792 52.4387H187.958V54.8472C187.958 56.911 187.902 57.3061 187.57 57.6072C187.076 58.0549 186.591 58.0517 185.821 57.5959C185.234 57.2488 185.195 57.2509 184.894 57.649C184.451 58.2362 184.482 58.3358 185.256 58.8226C186.291 59.4739 188.069 59.3034 188.716 58.4908C189.349 57.6955 189.441 57.1097 189.441 53.8982V51.1648H187.429C185.458 51.1648 185.419 51.1744 185.506 51.6425ZM191.561 55.1986V59.2323H192.196H192.832V55.1986V51.1648H192.196H191.561V55.1986ZM198.342 55.1986V59.2323H200.78H203.217V58.5954V57.9585H201.415H199.614V54.5617V51.1648H198.978H198.342V55.1986ZM203.005 51.8018C203.005 52.4323 203.017 52.4387 204.17 52.4387H205.336V55.8355V59.2323H206.078H206.82V55.8355V52.4387H207.985C209.139 52.4387 209.151 52.4323 209.151 51.8018V51.1648H206.078H203.005V51.8018ZM210.634 55.175V59.2323L212.383 59.2311C215.55 59.2289 216.938 58.5226 217.541 56.6068C218.175 54.5912 217.537 52.6497 215.932 51.709C215.342 51.3633 214.727 51.2589 212.913 51.1965L210.634 51.1179V55.175ZM230.768 51.8018V52.4387H232.039H233.311V55.8355V59.2323H233.947H234.582V55.8355V52.4387H235.748C236.902 52.4387 236.914 52.4323 236.914 51.8018V51.1648H233.841H230.768V51.8018ZM238.609 55.1986V59.2323H239.245H239.881V55.1986V51.1648H239.245H238.609V55.1986ZM165.726 52.9894C166.672 53.8978 166.915 54.9557 166.454 56.165C165.835 57.7891 164.071 58.4404 162.499 57.626C161.825 57.2768 161.056 55.9002 161.047 55.0287C161.039 54.132 162.04 52.7306 162.95 52.365C163.684 52.0703 165.1 52.3886 165.726 52.9894ZM181.383 52.965C183.247 54.7532 182.096 57.96 179.592 57.9577C177.53 57.9558 176.103 55.7391 177.023 53.9672C177.347 53.3445 178.127 52.5684 178.633 52.365C179.352 52.0763 180.783 52.3883 181.383 52.965ZM215.082 52.8106C215.974 53.2588 216.349 53.9445 216.353 55.1355C216.36 57.0108 215.556 57.7539 213.349 57.912L211.906 58.0156V55.2271V52.4387L213.124 52.4391C213.861 52.4391 214.635 52.5862 215.082 52.8106ZM70.0859 55.945C70.0176 56.0134 69.3836 56.0406 68.6768 56.0056L67.3914 55.9417L68.0694 54.415L68.7472 52.8881L69.4785 54.3545C69.881 55.161 70.1541 55.8767 70.0859 55.945ZM219.578 57.7887C218.825 58.5428 219.699 59.71 220.562 59.1041C221.103 58.7245 221.143 58.3256 220.686 57.8675C220.288 57.4685 219.923 57.4426 219.578 57.7887ZM241.83 57.7887C241.442 58.1778 241.527 58.7489 242.024 59.0982C242.588 59.4933 243.026 59.3344 243.191 58.6755C243.415 57.7827 242.458 57.1596 241.83 57.7887Z" fill="#FDC56F"/>
</svg>
