<svg width="60" height="60" viewBox="0 0 60 60" fill="none" xmlns="http://www.w3.org/2000/svg">
<g clip-path="url(#clip0_69_208)">
<path fill-rule="evenodd" clip-rule="evenodd" d="M58.5416 34.2807C58.4269 34.1659 58.4603 33.9488 58.6168 33.7922C58.7759 33.6332 58.8067 33.4186 58.6877 33.2995C58.5716 33.1834 58.5361 32.9577 58.6088 32.7979C58.6814 32.638 58.6545 32.4209 58.549 32.3153C58.4434 32.2098 58.4839 31.9966 58.6389 31.8416C58.7939 31.6867 58.8349 31.474 58.7302 31.3693C58.6253 31.2645 58.634 31.0195 58.7493 30.8248C58.8647 30.6303 58.8603 30.3722 58.7396 30.2515C58.6188 30.1307 58.6151 29.9368 58.7314 29.8206C58.8476 29.7043 58.8497 29.5162 58.7361 29.4026C58.6224 29.2889 58.6246 29.1009 58.7408 28.9846C58.8571 28.8684 58.8664 28.6874 58.7617 28.5827C58.6568 28.4779 58.6654 28.2329 58.7808 28.0382C58.8962 27.8437 58.8918 27.5856 58.7711 27.4649C58.6503 27.3441 58.6466 27.1502 58.7629 27.034C58.8791 26.9178 58.8884 26.7368 58.7837 26.6321C58.6789 26.5273 58.6875 26.2823 58.8028 26.0876C58.9183 25.8931 58.9138 25.635 58.7931 25.5143C58.6723 25.3935 58.6687 25.1996 58.7849 25.0834C58.9012 24.9671 58.9033 24.7791 58.7896 24.6654C58.676 24.5518 58.6708 24.371 58.7779 24.2639C58.8851 24.1567 58.882 23.9118 58.7711 23.7197C58.66 23.5277 58.6703 23.2695 58.7937 23.146C58.9173 23.0225 58.9253 22.8284 58.8117 22.7148C58.698 22.6011 58.7002 22.4131 58.8164 22.2968C58.9326 22.1806 58.9419 21.9996 58.8372 21.8949C58.7324 21.7901 58.741 21.5451 58.8564 21.3504C58.9718 21.1559 58.9674 20.8978 58.8467 20.7771C58.7259 20.6563 58.7222 20.4624 58.8385 20.3462C58.9547 20.23 58.964 20.049 58.8593 19.9443C58.7545 19.8395 58.7631 19.5945 58.8784 19.3998C58.9939 19.2053 58.9894 18.9472 58.8687 18.8265C58.7479 18.7057 58.7443 18.5118 58.8605 18.3956C58.9767 18.2794 58.9789 18.0913 58.8652 17.9776C58.7516 17.864 58.7537 17.6759 58.87 17.5596C58.9862 17.4434 58.9825 17.2495 58.8617 17.1287C58.741 17.008 58.7366 16.7499 58.852 16.5554C58.9674 16.3607 58.976 16.1157 58.8712 16.0109C58.7665 15.9062 58.7758 15.7253 58.892 15.609C59.0082 15.4928 59.0175 15.3118 58.9128 15.2071C58.808 15.1023 58.8166 14.8573 58.932 14.6626C59.0474 14.4681 59.0429 14.21 58.9223 14.0893C58.8015 13.9685 58.7978 13.7747 58.914 13.6584C59.0303 13.5422 59.0396 13.3612 58.9349 13.2565C58.8301 13.1517 58.8387 12.9067 58.954 12.712C59.0695 12.5175 59.065 12.2594 58.9443 12.1387C58.8235 12.0179 58.8198 11.824 58.9361 11.7078C59.0523 11.5916 59.0545 11.4035 58.9408 11.2898C58.8272 11.1762 58.8293 10.9881 58.9455 10.8718C59.0618 10.7556 59.0711 10.5747 58.9664 10.47C58.8615 10.3651 58.8702 10.1201 58.9855 9.92545C59.101 9.73092 59.0965 9.47283 58.9758 9.35216C58.855 9.23134 58.8513 9.03746 58.9676 8.92122C59.0838 8.80497 59.0931 8.62404 58.9884 8.51935C58.8836 8.41452 58.8922 8.16951 59.0075 7.97484C59.123 7.78031 59.1185 7.52222 58.9979 7.40155C58.877 7.28074 58.8734 7.08685 58.9896 6.97061C59.1059 6.85436 59.108 6.66627 58.9944 6.55262C58.8807 6.43898 58.8755 6.2582 58.9826 6.15111C59.0898 6.04389 59.0867 5.79902 58.9758 5.60691C58.8647 5.41494 58.8789 5.15274 59.0074 5.02424C59.186 4.84571 59.1251 4.6958 58.749 4.3873L58.2572 3.9837L45.7168 16.4538C34.7001 27.4085 33.1514 28.8988 32.9705 28.7179C32.827 28.5744 32.6151 28.6615 32.2714 29.0052C31.9271 29.3495 31.716 29.4361 31.5716 29.2917C31.458 29.178 31.2699 29.1802 31.1537 29.2964C31.0363 29.4138 30.8198 29.3853 30.6668 29.2323C30.4832 29.0486 30.2973 29.0507 30.1095 29.2386C29.8653 29.4828 29.7358 29.4285 29.1389 28.8316C28.6185 28.3112 28.3984 28.1945 28.2388 28.3542C28.0525 28.5405 26.5963 27.1344 15.9739 16.512C6.42189 6.96 3.88433 4.49544 3.74621 4.63659C3.34045 5.05089 3.11744 5.62821 3.29459 5.80536C3.39928 5.91006 3.38999 6.09099 3.27374 6.20723C3.15749 6.32348 3.15537 6.51158 3.26902 6.62523C3.38377 6.73998 3.35039 6.95712 3.19384 7.11366C3.00601 7.30149 3.00392 7.48735 3.18755 7.67097C3.34059 7.82402 3.36906 8.04047 3.25169 8.15784C3.13545 8.27409 3.13332 8.46219 3.24697 8.57584C3.36172 8.69059 3.32834 8.90773 3.17179 9.06427C2.98397 9.2521 2.98187 9.43796 3.16549 9.62158C3.31854 9.77463 3.34702 9.99108 3.22964 10.1085C3.1134 10.2247 3.11128 10.4128 3.22493 10.5264C3.33857 10.6401 3.33645 10.8282 3.2202 10.9444C3.10396 11.0607 3.10182 11.2488 3.21547 11.3624C3.33022 11.4772 3.29685 11.6943 3.1403 11.8509C2.95248 12.0387 2.95038 12.2245 3.13401 12.4082C3.28705 12.5612 3.31553 12.7777 3.19815 12.895C3.08191 13.0113 3.07978 13.1994 3.19342 13.313C3.30817 13.4278 3.2748 13.6449 3.11825 13.8015C2.93043 13.9893 2.92833 14.1751 3.11195 14.3588C3.265 14.5118 3.29347 14.7283 3.1761 14.8456C3.05985 14.9619 3.05056 15.1428 3.15526 15.2475C3.26009 15.3523 3.2468 15.6053 3.12551 15.8098C2.99542 16.0294 3.00972 16.205 3.16035 16.2389C3.31098 16.2729 3.3253 16.4484 3.19521 16.668C3.07392 16.8725 3.06061 17.1255 3.16545 17.2304C3.27014 17.3351 3.26086 17.516 3.14461 17.6322C3.02836 17.7485 3.02624 17.9366 3.13989 18.0502C3.25464 18.165 3.22125 18.3821 3.06471 18.5386C2.87688 18.7265 2.87477 18.9123 3.0584 19.096C3.21144 19.249 3.23994 19.4655 3.12256 19.5828C3.00632 19.6991 3.00419 19.8872 3.11783 20.0008C3.23258 20.1156 3.19921 20.3327 3.04266 20.4893C2.85484 20.6771 2.85274 20.8629 3.03637 21.0466C3.18941 21.1996 3.21789 21.4161 3.10052 21.5334C2.98427 21.6497 2.97497 21.8306 3.07967 21.9353C3.1845 22.0401 3.17588 22.2851 3.06056 22.4798C2.9451 22.6743 2.94958 22.9324 3.07025 23.0531C3.19106 23.1739 3.19472 23.3678 3.07847 23.484C2.96223 23.6003 2.96009 23.7884 3.07374 23.902C3.18739 24.0157 3.18527 24.2038 3.06902 24.32C2.95278 24.4363 2.95065 24.6244 3.0643 24.738C3.17904 24.8528 3.14566 25.0699 2.98912 25.2264C2.80129 25.4143 2.79919 25.6001 2.98281 25.7838C3.13586 25.9368 3.16435 26.1532 3.04697 26.2706C2.93073 26.3869 2.9286 26.575 3.04225 26.6886C3.157 26.8034 3.12362 27.0205 2.96707 27.177C2.77925 27.3649 2.77714 27.5507 2.96076 27.7344C3.11381 27.8874 3.1423 28.1039 3.02493 28.2212C2.90868 28.3375 2.90657 28.5256 3.02022 28.6392C3.13386 28.7529 3.13173 28.941 3.01548 29.0572C2.89924 29.1734 2.8971 29.3615 3.01075 29.4752C3.1255 29.5899 3.09213 29.8071 2.93558 29.9636C2.74776 30.1515 2.74566 30.3373 2.92929 30.5209C3.08233 30.674 3.11081 30.8904 2.99344 31.0078C2.87719 31.1241 2.87506 31.3122 2.98871 31.4258C3.10346 31.5405 3.07008 31.7577 2.91353 31.9142C2.72571 32.1021 2.72362 32.2879 2.90724 32.4715C3.06029 32.6246 3.08876 32.841 2.97139 32.9584C2.85514 33.0747 2.85301 33.2628 2.96666 33.3764C3.08031 33.4901 3.08496 33.6714 2.97703 33.7793C2.76159 33.9947 2.8991 34.4361 3.30975 34.8467C3.45508 34.992 3.47885 35.206 3.3626 35.3223C3.17661 35.5083 4.39876 36.7811 13.5517 45.9341C22.7047 55.087 23.9775 56.3092 24.1635 56.1232C24.3179 55.9688 24.5332 56.069 24.9623 56.4953C25.7496 57.2776 26.2981 57.5702 26.5344 57.3339C26.6632 57.2051 26.8928 57.3025 27.2114 57.6212C27.5481 57.9578 27.7572 58.0396 27.9049 57.8919C28.0223 57.7746 28.2387 57.803 28.3918 57.9561C28.5433 58.1076 28.7573 58.1416 28.8675 58.0314C28.9776 57.9213 29.2954 57.9754 29.5737 58.1517C29.852 58.328 30.1699 58.3821 30.2799 58.272C30.3901 58.1618 30.5731 58.1648 30.6868 58.2784C30.8004 58.3921 30.9944 58.384 31.118 58.2605C31.2414 58.137 31.4997 58.1267 31.6917 58.2378C31.9391 58.3808 32.1594 58.3212 32.4472 58.0333C32.6999 57.7806 32.9258 57.6994 33.0448 57.8184C33.1543 57.9279 33.4854 57.8377 33.8197 57.6069C34.169 57.3659 34.4838 57.2847 34.6036 57.4046C34.7547 57.5557 34.9949 57.4142 35.579 56.83C36.1739 56.2351 36.4019 56.103 36.5606 56.2617C36.7426 56.4437 38.0823 55.1533 47.7578 45.4778C57.4332 35.8024 58.7236 34.4627 58.5416 34.2807Z" fill="#D8D8D8"/>
</g>
<defs>
<clipPath id="clip0_69_208">
<rect width="60" height="60" fill="white"/>
</clipPath>
</defs>
</svg>
