<svg width="255" height="71" viewBox="0 0 255 71" fill="none" xmlns="http://www.w3.org/2000/svg">
<path d="M33.6569 0.42029C33.8311 0.802525 33.9271 0.789866 34.1044 0.361683C34.3071 -0.127685 34.7349 -0.119126 34.9926 0.379268L35.1836 0.74861L35.4174 0.379268C35.7087 -0.0807967 36.1192 -0.115964 36.3101 0.303076C36.3836 0.464246 36.4887 0.596111 36.5436 0.596111C36.5985 0.596111 36.7141 0.464246 36.8003 0.303076C37.029 -0.124286 37.4799 -0.0927554 37.6384 0.361683C37.7876 0.789983 37.8851 0.802525 38.0897 0.42029C38.3323 -0.0329763 38.8477 0.0155503 39.0222 0.508201L39.1573 0.889146L39.3952 0.566808C39.7207 0.125614 40.1272 0.138625 40.3167 0.596111C40.3968 0.789514 40.4849 0.947753 40.5124 0.947753C40.5399 0.947753 40.6816 0.809083 40.8274 0.639709C41.1663 0.245753 41.5563 0.336956 41.6659 0.835819C41.7588 1.25884 41.7839 1.26106 42.1168 0.874137C42.4557 0.480181 42.8456 0.571384 42.9552 1.07025C43.0471 1.48858 43.1813 1.50873 43.4227 1.14033C43.5557 0.937432 43.6809 0.878718 43.8942 0.919509C44.0541 0.950102 44.1848 1.0182 44.1848 1.07095C44.1848 1.12381 44.2374 1.30526 44.3018 1.47452L44.4186 1.78196L44.6895 1.46702C45.0551 1.04212 45.4362 1.15335 45.5417 1.71574L45.6173 2.11895L45.9529 1.83659C46.3997 1.46057 46.7341 1.55094 46.8323 2.07418C46.9189 2.53624 46.9575 2.55042 47.2865 2.24121C47.6445 1.90504 48.012 2.04101 48.1064 2.54468L48.182 2.94777L48.5247 2.70386C48.9716 2.38562 49.3422 2.54785 49.3422 3.06171C49.3422 3.46622 49.4133 3.48461 49.8073 3.18173C50.2097 2.87252 50.5144 3.048 50.5144 3.58918C50.5144 4.0551 50.6015 4.08639 51.0081 3.76651C51.2719 3.55893 51.3222 3.55412 51.5512 3.71459C51.7161 3.83004 51.8037 4.01571 51.8037 4.24991V4.60835L52.1078 4.40909C52.2947 4.2866 52.5205 4.23713 52.6938 4.28061C52.9242 4.3384 52.9759 4.4262 52.9759 4.75944C52.9759 5.22607 52.9959 5.2365 53.3933 4.97617C53.6647 4.79836 53.7009 4.79917 53.911 4.98929C54.0751 5.1378 54.1183 5.28632 54.0692 5.53224C53.994 5.90826 54.0697 5.93825 54.4978 5.70125C54.9227 5.466 55.2029 5.65647 55.2029 6.18042C55.2029 6.53323 55.2352 6.58587 55.408 6.51472C56.1204 6.22145 56.4212 6.38425 56.3057 7.00044C56.2226 7.4434 56.2556 7.46227 56.7054 7.22972C56.9753 7.09012 57.0576 7.08942 57.2431 7.22516C57.4144 7.35034 57.4471 7.47809 57.3932 7.81051C57.3334 8.17868 57.3509 8.22475 57.5236 8.15348C58.2282 7.86279 58.5447 8.03522 58.4299 8.64708C58.3484 9.08229 58.3478 9.08183 58.7867 8.91503C59.2491 8.73921 59.5571 9.03563 59.4175 9.5223L59.3164 9.87478L59.7597 9.79987C60.3453 9.70094 60.5581 9.92541 60.3753 10.4495L60.2484 10.8134L60.6945 10.7381C61.2868 10.6381 61.4963 10.8615 61.3104 11.3948C61.2391 11.5992 61.1808 11.7813 61.1808 11.7993C61.1808 11.8175 61.351 11.7835 61.5591 11.7238C61.8674 11.6355 61.9779 11.656 62.1569 11.8349C62.3333 12.0114 62.3511 12.102 62.2475 12.2955C62.0282 12.7054 62.0871 12.8029 62.507 12.7241C63.1188 12.6094 63.2913 12.9259 63.0006 13.6304C62.93 13.8016 62.9748 13.8208 63.3151 13.7656C63.9426 13.6637 64.1117 13.9788 63.8157 14.6993C63.7376 14.8894 63.7735 14.9042 64.144 14.8347C64.4913 14.7695 64.5814 14.7969 64.6907 15.0012C64.7921 15.1907 64.7805 15.3252 64.6392 15.5984L64.4568 15.9511H64.9208C65.4391 15.9511 65.631 16.2238 65.407 16.6422C65.2098 17.0108 65.2589 17.1004 65.6481 17.0819C66.1658 17.0574 66.3443 17.3662 66.08 17.8288L65.8803 18.1782H66.2809C66.8092 18.1782 67.0279 18.5301 66.7568 18.9439C66.5078 19.324 66.5188 19.3504 66.9268 19.3504C67.3995 19.3504 67.6507 19.8215 67.3532 20.1503C67.0516 20.4836 67.118 20.6397 67.5611 20.6397C68.0906 20.6397 68.2116 20.9694 67.862 21.4603L67.6117 21.8118H68.012C68.3128 21.8118 68.4426 21.8774 68.5343 22.0756C68.6354 22.2941 68.6055 22.3936 68.3604 22.6554L68.0646 22.9716L68.4029 23.0461C68.5889 23.0873 68.8071 23.1411 68.8877 23.1659C69.1146 23.2359 69.0608 23.7025 68.7928 23.9877L68.5514 24.2446L68.962 24.3216C69.4891 24.4206 69.6255 24.7726 69.2796 25.1407C68.9586 25.4825 68.9684 25.5296 69.3805 25.6201C69.8405 25.7212 69.9537 26.0868 69.6313 26.4301C69.3102 26.7719 69.3201 26.819 69.7322 26.9095C70.2384 27.0207 70.322 27.4093 69.9148 27.7596C69.5518 28.0719 69.5509 28.0682 70.0305 28.2224C70.5093 28.3765 70.5602 28.7757 70.1429 29.1039L69.8274 29.3521L70.2512 29.5211C70.779 29.7316 70.8271 30.1248 70.3623 30.4293L70.0495 30.6342L70.3916 30.8099C70.8052 31.0221 70.7484 30.9647 70.84 31.2632C70.9003 31.46 70.8348 31.5653 70.5322 31.7586L70.1477 32.0042L70.5193 32.1463C71.0455 32.3473 71.1157 32.7905 70.6622 33.0485C70.2377 33.2898 70.2395 33.3527 70.6752 33.5332C71.1417 33.7264 71.1564 34.1612 70.7046 34.3978L70.3825 34.5666L70.7046 34.7135C70.9394 34.8204 71.0268 34.9454 71.0268 35.1742C71.0268 35.403 70.9394 35.5281 70.7046 35.635L70.3825 35.7819L70.7046 35.9507C71.1564 36.1873 71.1417 36.6221 70.6752 36.8152C70.247 36.9926 70.2343 37.0886 70.6166 37.2628C71.0744 37.4714 71.0238 38.01 70.5287 38.1974L70.1477 38.3417L70.4994 38.5729C70.6928 38.7 70.8457 38.8577 70.8393 38.9232C70.8328 38.9887 70.8197 39.115 70.81 39.2039C70.8002 39.2928 70.6266 39.4342 70.424 39.5181L70.0557 39.6707L70.3758 39.9259C70.8176 40.2782 70.7496 40.6776 70.2177 40.856L69.8187 40.9896L70.1386 41.2412C70.5601 41.5728 70.5114 41.9714 70.0305 42.1261C69.5509 42.2803 69.5518 42.2766 69.9148 42.5888C70.322 42.9392 70.2384 43.3278 69.7322 43.439C69.3231 43.5288 69.3026 43.6193 69.6254 43.9114C69.9702 44.2235 69.8759 44.5794 69.4131 44.7115C69.2025 44.7716 69.0063 44.7969 68.977 44.7677C68.9478 44.7384 69.0763 44.0986 69.2624 43.3458C69.9564 40.5395 70.1482 38.7466 70.143 35.1156C70.1389 32.3086 70.1001 31.5877 69.8744 30.134C69.0621 24.9032 67.274 20.3216 64.3129 15.8841C63.202 14.2193 62.1535 12.9434 60.4783 11.2179C55.1768 5.75752 48.498 2.33017 40.9033 1.17257C38.8491 0.859488 34.9247 0.745914 32.8579 0.939669C20.8156 2.06914 10.4435 9.15871 5.15148 19.8778C3.44777 23.3287 2.41617 26.6127 1.856 30.3685C1.4692 32.9618 1.46662 37.3433 1.85038 39.9563C2.16205 42.078 2.73604 44.4333 3.46359 46.5757C4.05505 48.3171 5.72513 51.8042 6.73246 53.401C8.55831 56.2954 10.9406 59.0456 13.7092 61.4552L14.471 62.1184L14.0608 62.2924C13.5068 62.5274 13.2267 62.3078 13.3231 61.714L13.3879 61.3146L13.0187 61.4433C12.5043 61.6225 12.2579 61.4119 12.358 60.8786L12.4313 60.4879L11.9804 60.56C11.4075 60.6515 11.1846 60.4393 11.3624 59.9717C11.5314 59.5269 11.5306 59.5259 11.0333 59.61C10.4643 59.7061 10.2472 59.5006 10.4247 59.034C10.5944 58.5873 10.5885 58.5792 10.1414 58.6517C9.6232 58.7359 9.43612 58.5275 9.5388 57.9803C9.61464 57.576 9.61429 57.5756 9.22432 57.6389C8.706 57.7231 8.45598 57.4552 8.65173 57.0256C8.84959 56.5915 8.82485 56.5497 8.39866 56.5996C7.88327 56.6597 7.64005 56.3902 7.83123 55.9707C8.03471 55.5241 7.99826 55.4516 7.60911 55.5294C7.09196 55.6329 6.87968 55.3209 7.10321 54.7859L7.26555 54.3973H6.80303C6.24556 54.3973 6.08626 54.1051 6.39055 53.6408C6.59626 53.3268 6.57341 53.3053 6.06939 53.338C5.61753 53.3673 5.43748 52.9909 5.67941 52.523L5.8618 52.1703H5.47675C4.90404 52.1703 4.71075 51.8056 5.03907 51.3445L5.28569 50.9981H4.87158C4.28867 50.9981 4.09422 50.6328 4.43308 50.1744C4.64161 49.8925 4.64992 49.8381 4.49379 49.7782C4.39428 49.7401 4.21353 49.7088 4.0921 49.7088C3.97078 49.7088 3.8123 49.5984 3.7401 49.4633C3.63226 49.262 3.65266 49.171 3.85309 48.9576C4.18082 48.6087 4.16208 48.5366 3.74351 48.5366C3.47907 48.5366 3.35529 48.4621 3.2553 48.2424C3.14079 47.9912 3.1592 47.9078 3.38132 47.6714C3.61035 47.4276 3.61856 47.3856 3.44965 47.3209C3.34428 47.2805 3.16036 47.2473 3.04104 47.2473C2.70159 47.2473 2.62669 46.8035 2.91445 46.4971C3.243 46.1475 3.22742 46.0985 2.76044 46.0108C2.22125 45.9096 2.12502 45.5446 2.52718 45.125L2.82419 44.8149L2.41887 44.7388C1.87031 44.6359 1.76892 44.26 2.17554 43.8357L2.47255 43.5255L2.05433 43.4471C1.69683 43.38 1.63611 43.3224 1.63611 43.0504C1.63611 42.8593 1.72965 42.674 1.87054 42.5859C2.19909 42.3807 2.16264 42.2384 1.75861 42.1497C1.24392 42.0365 1.16913 41.6495 1.5918 41.286C1.77723 41.1264 1.87629 40.9774 1.81194 40.955C1.05626 40.6913 0.840589 40.2489 1.33793 39.9828C1.7286 39.7737 1.71441 39.6435 1.28447 39.4936C0.826751 39.3341 0.809866 38.917 1.24813 38.5977L1.56344 38.3681L1.18952 38.1747C0.720783 37.9323 0.682695 37.5121 1.10865 37.2841C1.48913 37.0805 1.47811 36.9926 1.05004 36.8152C0.592909 36.6259 0.568288 36.1876 1.0021 35.9603L1.30581 35.8012L1.0021 35.6022C0.614353 35.3482 0.609437 34.9753 0.991437 34.8013C1.15261 34.7279 1.28447 34.6319 1.28447 34.5882C1.28447 34.5445 1.15261 34.4485 0.991437 34.3751C0.56302 34.1799 0.594902 33.7217 1.05004 33.5332C1.47811 33.3559 1.48913 33.268 1.10865 33.0644C0.682695 32.8364 0.720783 32.4162 1.18952 32.1738L1.56344 31.9804L1.24813 31.7508C0.797558 31.4225 0.826986 31.015 1.31378 30.8424L1.69472 30.7071L1.36406 30.4191C0.954627 30.0624 0.995772 29.7794 1.49088 29.5455L1.87018 29.3664L1.56484 29.0612C1.18062 28.677 1.26361 28.3076 1.75861 28.1988C2.1807 28.1061 2.18808 28.0422 1.81241 27.7356C1.40017 27.3991 1.52136 27.0014 2.06722 26.8991L2.47255 26.823L2.17554 26.5128C1.76892 26.0885 1.87031 25.7126 2.41887 25.6097L2.82419 25.5336L2.52718 25.2235C2.12889 24.8078 2.2223 24.4622 2.7711 24.3212L3.18509 24.2147L2.93003 23.893C2.63817 23.5248 2.6976 23.1012 3.04104 23.1012C3.16036 23.1012 3.34428 23.068 3.44965 23.0276C3.61856 22.9629 3.61035 22.9209 3.38132 22.6771C3.1592 22.4407 3.14079 22.3572 3.2553 22.1061C3.35529 21.8864 3.47907 21.8118 3.74351 21.8118C4.16208 21.8118 4.18082 21.7398 3.85309 21.3909C3.52138 21.0378 3.71514 20.6397 4.21893 20.6397C4.61148 20.6397 4.64827 20.5219 4.38232 20.116C4.10792 19.6973 4.3297 19.3504 4.87158 19.3504H5.28569L5.05876 19.028C4.73138 18.5633 4.92091 18.1782 5.47698 18.1782H5.88278L5.68129 17.8706C5.51836 17.622 5.50511 17.5075 5.61236 17.2722C5.72829 17.0176 5.7958 16.9907 6.15202 17.0575C6.60317 17.1422 6.64749 17.0673 6.37578 16.6793C6.08767 16.2679 6.25516 15.9704 6.79857 15.9283L7.26074 15.8925L7.08914 15.5633C6.83678 15.0792 7.06359 14.7397 7.58473 14.8217C7.99966 14.8868 8.0346 14.824 7.83123 14.3778C7.64005 13.9583 7.88327 13.6888 8.39866 13.7489C8.82485 13.7987 8.84959 13.757 8.65173 13.3229C8.45457 12.8901 8.70307 12.6274 9.21822 12.7241C9.63469 12.8022 9.67278 12.7412 9.49672 12.2781C9.3345 11.8512 9.66493 11.5801 10.1706 11.7251C10.5761 11.8414 10.6064 11.7925 10.4247 11.3145C10.2472 10.8479 10.4643 10.6424 11.0333 10.7385C11.5306 10.8226 11.5314 10.8216 11.3624 10.3768C11.1857 9.91216 11.4024 9.70469 11.9651 9.79987L12.4081 9.87466L12.3439 9.47894C12.2589 8.95522 12.5247 8.70439 12.9563 8.90108C13.3776 9.09308 13.3954 9.07995 13.3228 8.63254C13.2329 8.07882 13.4562 7.8996 14.0201 8.07273L14.4389 8.20119L14.3663 7.83735C14.3156 7.58452 14.3517 7.40918 14.4844 7.26254C14.6573 7.07149 14.7067 7.06773 15.007 7.22304C15.4616 7.45817 15.4674 7.45454 15.4674 6.93352C15.4674 6.41825 15.7411 6.22695 16.1585 6.45036C16.498 6.63204 16.5223 6.61318 16.5223 6.16788C16.5223 5.65683 16.8069 5.46846 17.2275 5.70125C17.6568 5.93896 17.7267 5.90896 17.6684 5.51219C17.5954 5.01426 17.9654 4.73599 18.3585 4.99351C18.7587 5.25584 18.8666 5.20731 18.8666 4.76506C18.8666 4.27277 19.1978 4.11265 19.6301 4.39584C20.0176 4.64972 20.0387 4.63836 20.0387 4.17525C20.0387 3.62223 20.3659 3.43984 20.7773 3.76347C21.1712 4.07338 21.191 4.06436 21.2331 3.55577C21.2641 3.18162 21.3146 3.11094 21.5726 3.08093C21.7411 3.06135 21.9425 3.12641 22.0264 3.22745C22.2542 3.50184 22.3492 3.44992 22.4326 3.00557C22.5303 2.4849 22.8843 2.35104 23.2514 2.69601C23.5542 2.98037 23.6723 2.91577 23.6723 2.46567C23.6723 2.02987 24.0853 1.92239 24.5241 2.2439L24.8484 2.48138L24.9217 2.11486C25.0273 1.58681 25.4013 1.4758 25.8035 1.85334L26.1179 2.1485L26.1955 1.73473C26.2997 1.17937 26.6597 1.08056 27.0869 1.48987L27.3999 1.7897L27.4812 1.41954C27.5994 0.88153 27.979 0.771579 28.389 1.15663L28.7101 1.4581L28.7849 1.08418C28.8915 0.550743 29.3296 0.454875 29.672 0.890091L29.924 1.21054L30.1099 0.816946C30.3541 0.299564 30.6642 0.249744 31.0088 0.672418L31.2811 1.00636L31.4291 0.625415C31.619 0.13675 32.1067 0.0899812 32.3462 0.537504C32.5487 0.915988 32.6177 0.906729 32.7792 0.478897C32.9536 0.0167225 33.4576 -0.0169179 33.6569 0.42029Z" fill="#FEC267"/>
<path d="M66.8166 50.119C67.5165 48.659 68.5256 46.0965 68.745 45.2222C68.8435 44.8302 68.9199 44.825 69.2592 45.1861C69.6253 45.5757 69.5016 45.9256 68.962 46.0269L68.5514 46.1039L68.8024 46.3711C69.1816 46.7747 69.0718 47.1414 68.5257 47.2959L68.0758 47.4231L68.3709 47.6995C68.6204 47.9332 68.6467 48.0182 68.5411 48.2502C68.4511 48.4473 68.3019 48.5344 68.0101 48.5599L67.6042 48.5952L67.8584 48.917C68.1647 49.3047 68.0881 49.708 67.7077 49.7105C67.5669 49.7116 67.3748 49.7611 67.2807 49.8206C67.1341 49.9133 67.1411 49.9638 67.3285 50.171C67.6495 50.5256 67.4201 50.9981 66.9268 50.9981C66.5188 50.9981 66.5078 51.0245 66.7568 51.4046C67.0299 51.8215 66.8093 52.1703 66.2729 52.1703C65.864 52.1703 65.864 52.1703 66.0554 52.4625C66.1791 52.6512 66.2196 52.863 66.17 53.0608C66.1024 53.33 66.0445 53.3612 65.6883 53.3196C65.2579 53.2693 65.2091 53.3364 65.407 53.7063C65.6301 54.1229 65.439 54.3973 64.9257 54.3973H64.4666L64.6595 54.802C64.9221 55.3525 64.7218 55.6221 64.1323 55.5116C63.7736 55.4443 63.738 55.4598 63.8157 55.6492C64.1117 56.3697 63.9426 56.6848 63.3151 56.5829C62.9748 56.5277 62.93 56.5469 63.0006 56.7181C63.2913 57.4226 63.1188 57.7391 62.507 57.6244C62.0884 57.5458 62.0283 57.6432 62.2451 58.0485C62.443 58.4183 62.095 58.7347 61.5818 58.6515L61.1825 58.5867L61.3112 58.9559C61.4922 59.4752 61.2805 59.7168 60.7342 59.6143L60.3313 59.5387L60.4066 59.9407C60.5046 60.4631 60.2934 60.6518 59.7293 60.5459L59.3148 60.4681L59.4244 60.8504C59.5134 61.1605 59.4959 61.2625 59.3318 61.3898C59.1316 61.5452 58.9829 61.5408 58.5597 61.3672C58.3649 61.2874 58.3502 61.3185 58.4242 61.6549C58.4848 61.931 58.4544 62.0901 58.3109 62.2487C58.1319 62.4466 58.0796 62.4508 57.712 62.2971L57.3093 62.1289L57.3829 62.5889C57.4744 63.1616 57.1985 63.3857 56.7248 63.1235C56.2886 62.8819 56.2247 62.9161 56.3057 63.3481C56.4212 63.9642 56.1204 64.127 55.408 63.8338C55.2357 63.7629 55.2029 63.8148 55.2029 64.1579C55.2029 64.7258 54.9692 64.8964 54.5138 64.661C54.0318 64.4116 53.9912 64.4259 54.0692 64.8163C54.1183 65.0622 54.0751 65.2107 53.911 65.3592C53.7009 65.5493 53.6647 65.5501 53.3933 65.3723C52.9959 65.112 52.9759 65.1224 52.9759 65.5891C52.9759 65.9223 52.9242 66.0101 52.6938 66.0679C52.5205 66.1114 52.2947 66.0619 52.1078 65.9394L51.8037 65.7402V66.1356C51.8037 66.713 51.4431 66.915 50.9892 66.5918C50.544 66.2749 50.5144 66.2853 50.5144 66.7593C50.5144 67.3005 50.2097 67.476 49.8073 67.1668C49.4133 66.8639 49.3422 66.8823 49.3422 67.2868C49.3422 67.8046 48.9507 67.9782 48.5129 67.6546L48.1805 67.4088L48.1044 67.8147C48.0071 68.3335 47.6665 68.4642 47.3027 68.1224C46.9562 67.7969 46.9196 67.8086 46.8323 68.2743C46.7341 68.7976 46.3997 68.8879 45.9529 68.5119L45.6173 68.2295L45.5417 68.6328C45.4362 69.1952 45.0551 69.3064 44.6895 68.8815L44.4186 68.5665L44.3018 68.874C44.2374 69.0432 44.1848 69.2247 44.1848 69.2774C44.1848 69.3303 44.0661 69.4051 43.9211 69.4438C43.7263 69.4958 43.6012 69.4381 43.4425 69.223C43.1618 68.8428 43.0481 68.8557 42.9552 69.2783C42.846 69.7756 42.4845 69.8518 42.0786 69.4629L41.7526 69.1506L41.6701 69.4796C41.5262 70.0533 41.0409 70.1707 40.7856 69.6938C40.582 69.3133 40.4941 69.3243 40.3167 69.7524C40.1272 70.2099 39.7207 70.2229 39.3952 69.7817L39.1573 69.4594L39.0222 69.8403C38.8477 70.3329 38.3323 70.3815 38.0897 69.9282C37.8851 69.546 37.7876 69.5585 37.6384 69.9868C37.4799 70.4413 37.029 70.4728 36.8003 70.0454C36.7141 69.8842 36.5985 69.7524 36.5436 69.7524C36.4887 69.7524 36.3836 69.8842 36.3101 70.0454C36.1211 70.4604 35.6971 70.4327 35.4347 69.9885L35.2279 69.6385L35.0062 69.9885C34.7075 70.4604 34.3003 70.4597 34.1044 69.9868C33.9271 69.5586 33.8311 69.546 33.6569 69.9282C33.4576 70.3654 32.9536 70.3318 32.7792 69.8696C32.6177 69.4418 32.5487 69.4325 32.3462 69.811C32.1067 70.2585 31.619 70.2117 31.4291 69.7231L31.2811 69.3421L31.0088 69.6761C30.6642 70.0988 30.3541 70.0489 30.1099 69.5315L29.924 69.138L29.672 69.4584C29.474 69.7102 29.3566 69.7629 29.1248 69.7048C28.953 69.6617 28.8291 69.5461 28.828 69.4278C28.827 69.3162 28.779 69.1505 28.7215 69.0594C28.6366 68.9254 28.5645 68.9517 28.3423 69.1976C27.9886 69.5888 27.5994 69.4673 27.4812 68.929L27.3999 68.5588L27.0869 68.8586C26.6597 69.2679 26.2997 69.1691 26.1955 68.6138L26.1179 68.2L25.8035 68.4952C25.4013 68.8727 25.0273 68.7617 24.9217 68.2336L24.8484 67.8671L24.5241 68.1046C24.0853 68.4261 23.6723 68.3186 23.6723 67.8828C23.6723 67.4327 23.5542 67.3681 23.2514 67.6525C22.8843 67.9975 22.5303 67.8636 22.4326 67.3429C22.3441 66.8709 22.3351 66.8678 21.9494 67.1711C21.538 67.4947 21.2109 67.3123 21.2109 66.7593C21.2109 66.2878 21.1739 66.273 20.7773 66.585C20.3659 66.9087 20.0387 66.7263 20.0387 66.1732C20.0387 65.7101 20.0176 65.6988 19.6301 65.9527C19.1978 66.2358 18.8666 66.0757 18.8666 65.5834C18.8666 65.1343 18.7597 65.0921 18.332 65.3723C18.0621 65.5491 18.0242 65.5491 17.8289 65.3725C17.6851 65.2423 17.6342 65.0692 17.6694 64.8296C17.7274 64.4344 17.6308 64.3947 17.2537 64.6589C16.8616 64.9334 16.5223 64.7057 16.5223 64.1681C16.5223 63.8135 16.4909 63.763 16.3172 63.8385C16.2043 63.8875 15.9802 63.9326 15.819 63.9389C15.556 63.9491 15.5223 63.8994 15.49 63.4526L15.4539 62.9549L15.1108 63.1324C14.8284 63.2783 14.7246 63.2835 14.5252 63.1612C14.3262 63.0392 14.2963 62.939 14.3581 62.6023C14.3994 62.3767 14.4497 62.1754 14.4696 62.155C14.4896 62.1348 14.9567 62.4512 15.5077 62.8583C19.4535 65.7745 24.3039 67.9115 29.1814 68.8829C36.5842 70.3572 44.5463 69.2935 51.2285 65.9375C57.9821 62.5456 63.5857 56.8592 66.8166 50.119Z" fill="#FEC267"/>
<path fill-rule="evenodd" clip-rule="evenodd" d="M33.4597 1.14502C29.4086 1.40629 24.4144 2.78415 20.6248 4.6863C14.0117 8.00556 8.84336 13.1562 5.4989 19.7606C3.36619 23.9721 2.18948 28.2604 1.85648 33.0351C1.40251 39.5457 2.99932 46.4111 6.30745 52.1703C11.8475 61.8152 21.6998 68.1249 32.8582 69.1741C34.7453 69.3515 38.8533 69.2543 40.5512 68.9921C44.5214 68.379 48.0695 67.2467 51.489 65.5014C59.3657 61.4813 65.4528 54.3631 68.2521 45.8993C68.8259 44.1644 69.4452 41.5311 69.6996 39.7456C70.0209 37.4895 69.9925 32.5195 69.6458 30.3099C68.3578 22.1043 64.5533 15.0487 58.5174 9.67234C53.1029 4.84945 46.0732 1.83084 38.746 1.18218C37.5405 1.0754 34.8336 1.05641 33.4597 1.14502ZM55.685 18.6491C51.5051 13.6812 45.8475 10.51 39.4916 9.57248C38.244 9.38846 35.3118 9.25577 34.3388 9.33934C29.6653 9.7408 25.8517 10.9651 22.1583 13.2498C19.781 14.7205 16.9785 17.2959 15.2649 19.5848C9.48488 27.3056 8.46735 37.6199 12.6375 46.2185C16.3472 53.8679 23.198 59.0017 31.7015 60.5048C33.8956 60.8926 37.8072 60.8917 40.0237 60.5028C45.6759 59.5112 50.5692 56.9072 54.492 52.8039C58.2943 48.8267 60.7342 43.6454 61.4143 38.1046C61.7027 35.7554 61.5191 32.0008 60.9936 29.4959C60.2295 25.854 58.1193 21.5423 55.685 18.6491ZM26.7785 19.4719C22.6855 19.5521 22.342 19.6013 20.9252 20.3114C18.7524 21.4002 17.0861 23.6206 16.5848 26.095C16.4166 26.9253 16.3992 28.117 16.4351 36.4079C16.4369 36.8254 16.4386 37.225 16.4402 37.6076L16.4402 37.6125L16.4404 37.6604L16.4405 37.6748C16.4708 44.9156 16.4755 46.0323 16.8568 47.0007C16.9263 47.1773 17.0084 47.349 17.1054 47.5519C17.135 47.6139 17.166 47.6787 17.1985 47.7476C18.1158 49.6914 19.6557 51.0176 21.7434 51.6618C22.3942 51.8626 23.0258 51.8772 31.0568 51.8772C31.4231 51.8772 31.7747 51.8773 32.1122 51.8773C38.8669 51.8783 39.9981 51.8784 40.9665 51.4814C41.1613 51.4016 41.3495 51.3056 41.5756 51.1904C41.6317 51.1618 41.6901 51.1321 41.7516 51.1011C42.7296 50.6075 44.133 49.1585 44.6396 48.1194C45.3099 46.7446 45.3707 46.0551 45.3323 40.2528C45.2986 35.1472 45.2967 35.1131 45.0327 34.6885C44.5335 33.8857 44.5273 33.8849 39.2599 33.8849H34.5463L32.5085 35.8335C31.3877 36.9051 30.4708 37.8282 30.4708 37.8847C30.4708 37.942 32.9076 37.9874 35.9851 37.9874H41.4993L41.4649 41.2401C41.4319 44.3339 41.4169 44.5258 41.1566 45.1708C40.7818 46.0992 39.7966 47.1437 38.8702 47.5944C37.6732 48.1767 37.1243 48.2089 30.2363 48.1017L23.9654 48.0039L23.2621 47.6627C22.4183 47.2534 21.4484 46.2866 21.0383 45.4459C20.8368 45.0331 20.7082 44.4952 20.6282 43.7309C20.481 42.3243 20.475 28.6928 20.6211 27.6813C20.9097 25.6844 22.4616 24.0619 24.4312 23.6977C24.8927 23.6125 28.2377 23.5701 34.5081 23.5701H43.8942L46.0016 21.4602L48.109 19.3504L39.3192 19.3744C34.4848 19.3876 28.8415 19.4315 26.7785 19.4719ZM47.293 25.3362C46.1642 26.4498 45.2585 27.3787 45.2803 27.4006C45.3022 27.4224 46.8097 27.4588 48.6305 27.4813L51.941 27.5222L52.2534 27.8342L52.5656 28.1463L52.6242 31.4486L52.6828 34.7509L53.0192 34.3472C53.2043 34.1252 54.0614 33.2209 54.924 32.3375L56.4923 30.7316V27.8617C56.4923 24.8872 56.4477 24.5528 55.9863 24.0571C55.4102 23.4383 55.2285 23.4048 52.1863 23.3566L49.3454 23.3116L47.293 25.3362ZM27.0017 26.6193C25.5859 26.8763 24.5999 27.5985 23.9996 28.818L23.6137 29.6019V35.8166V42.0313L23.9419 42.6997C24.353 43.5366 25.2347 44.344 26.0853 44.6623C26.6917 44.8892 26.9763 44.9029 31.032 44.9016C35.6813 44.9001 36.1622 44.8497 37.0357 44.2716C37.703 43.83 38.1332 42.8718 38.1416 41.808L38.1483 40.9763L33.3225 40.9177L28.4968 40.8591L28.1793 40.5661C27.5644 39.9984 27.5404 39.8204 27.5404 35.8189C27.5404 31.7241 27.566 31.5547 28.2597 31.0599L28.6539 30.7787L32.694 30.741L36.734 30.7034L38.6719 28.7083C39.7377 27.611 40.6228 26.6786 40.6387 26.6361C40.6846 26.5142 27.6683 26.4982 27.0017 26.6193ZM40.0333 3.10684C52.3279 4.75604 62.4966 13.0747 66.4802 24.7422C68.8646 31.7257 68.7653 39.5612 66.2056 46.4151C64.4319 51.164 61.6681 55.334 58.0495 58.721C52.9636 63.4812 46.9747 66.3065 39.8479 67.3079C38.1486 67.5467 33.2238 67.5138 31.5257 67.2524C27.6784 66.6602 24.8445 65.7762 21.5039 64.1268C13.7818 60.3141 8.02744 53.7186 5.24313 45.4893C3.33009 39.8351 3.04854 33.4024 4.45968 27.5904C5.56454 23.0394 7.65868 18.7583 10.6404 14.9548C11.5422 13.8044 14.7446 10.6375 15.9362 9.7177C21.0152 5.79736 26.8458 3.51275 33.2253 2.94321C34.7905 2.80349 38.4228 2.89082 40.0333 3.10684ZM33.5183 7.75683C33.5183 7.65461 34.9248 4.43358 35.1672 3.98067C35.2505 3.82501 35.4146 3.76089 35.7299 3.76089H36.175L37.0444 5.71344C37.5226 6.78735 37.9314 7.71041 37.9529 7.76468C37.9745 7.81895 37.7727 7.86338 37.5047 7.86338C37.0473 7.86338 37.0052 7.83466 36.821 7.3957L36.6245 6.92801L35.7184 6.92684L34.8125 6.92567L34.5733 7.39452C34.3634 7.80583 34.2841 7.86338 33.9262 7.86338C33.7019 7.86338 33.5183 7.81543 33.5183 7.75683ZM38.9902 7.97883C38.3908 7.97461 38.3822 7.91659 38.6742 5.82268C38.8646 4.45807 38.9903 3.8781 39.096 3.8781C39.5768 3.8781 39.8526 4.15743 40.5504 5.35113C41.3459 6.71234 41.404 6.7291 41.5362 5.63631L41.5486 5.5342C41.6513 4.68452 41.6854 4.40236 41.8264 4.33077C41.8965 4.29518 41.993 4.31164 42.1375 4.33627L42.1378 4.33633L42.1387 4.33647L42.1526 4.33885L42.1721 4.34215C42.5411 4.40428 42.5989 4.45573 42.5779 4.70317C42.5487 5.04637 42.058 8.38404 42.0333 8.4062C42.024 8.41475 41.8543 8.39693 41.6564 8.36669C41.3408 8.31852 41.1977 8.14703 40.4941 6.97407C40.0527 6.23832 39.68 5.63631 39.666 5.63631C39.6519 5.63631 39.5788 6.07153 39.5035 6.60333C39.3205 7.89526 39.2887 7.98094 38.9902 7.97883ZM28.8755 4.68219C28.832 4.52548 28.9908 4.45773 29.7343 4.3159C30.9565 4.08276 31.2065 4.08053 31.7487 4.2975C32.5617 4.62277 32.8383 5.68672 32.2948 6.39915L32.009 6.77387L32.5317 7.28693C32.98 7.72683 33.0249 7.8117 32.8469 7.88202C32.374 8.06898 32.0571 7.97578 31.5825 7.51009C31.1583 7.09363 31.0585 7.04839 30.7155 7.11696C30.3286 7.19444 30.328 7.1955 30.4015 7.7491C30.4688 8.2564 30.4524 8.30985 30.2091 8.37502L30.2008 8.37726C30.0011 8.43077 29.8671 8.46667 29.7652 8.42467C29.5577 8.3391 29.4834 7.93002 29.258 6.68721L29.2534 6.66194C29.0749 5.67875 28.9049 4.78792 28.8755 4.68219ZM43.4123 5.39887C43.108 5.31374 42.9721 5.2757 42.9295 5.19081C42.8951 5.12223 42.9216 5.02307 42.9697 4.84379L42.9723 4.83374C43.0613 4.50121 43.1458 4.51258 45.084 5.11764C46.4171 5.53375 46.4316 5.54208 46.354 5.85094C46.3108 6.02278 46.2573 6.18171 46.2348 6.2041C46.2124 6.22649 45.927 6.16659 45.6006 6.07094L45.0073 5.897L44.6473 7.08532C44.1157 8.84001 44.0526 9.03552 44.0174 9.03552C43.8143 9.03552 43.2476 8.74612 43.2489 8.64309C43.2498 8.56877 43.4324 7.88002 43.6547 7.11251C43.8769 6.34487 44.0357 5.67956 44.0076 5.63408C43.9795 5.58849 43.7177 5.4844 43.426 5.4027L43.4123 5.39887ZM25.4191 5.65999C25.4254 5.64077 25.602 5.54946 25.8115 5.45697L26.1924 5.28912L27.6825 6.83999C28.502 7.69296 29.1746 8.43292 29.177 8.48438C29.1794 8.53583 29.0099 8.6527 28.8005 8.74413C28.4324 8.9046 28.4081 8.89779 28.0824 8.54427L27.7454 8.17834L26.9103 8.44617C25.9825 8.74366 25.9038 8.8141 25.9012 9.34872C25.8997 9.67059 25.843 9.73915 25.4813 9.85859C25.2513 9.93455 25.0488 9.97815 25.0311 9.95565C25.0052 9.92248 25.3791 5.78096 25.4191 5.65999ZM45.3894 9.45866C45.3694 9.43862 45.7028 8.59444 46.1303 7.58265C46.5578 6.57086 46.9468 5.75856 46.9948 5.77755C48.8615 6.51834 49.6914 6.89167 49.6925 6.99119C49.6933 7.0594 49.6197 7.21683 49.5289 7.34084C49.3681 7.56073 49.3413 7.55686 48.4602 7.18904C47.963 6.98157 47.515 6.83728 47.4645 6.86846C47.4139 6.89976 47.3183 7.08121 47.2518 7.27169C47.1466 7.57386 47.1613 7.62777 47.3676 7.6933C47.4977 7.73456 47.8874 7.89795 48.2335 8.05643C48.8306 8.32977 48.856 8.35919 48.732 8.63148C48.5708 8.98512 48.5623 8.98512 47.7486 8.62527C47.3842 8.4641 47.0186 8.33224 46.9362 8.33224C46.7612 8.33224 46.4837 9.04373 46.6155 9.15449C46.6647 9.19587 47.1092 9.40217 47.6032 9.61292C48.5004 9.99562 48.5014 9.99656 48.3829 10.3364C48.3178 10.5234 48.2544 10.6765 48.2421 10.6765C48.1954 10.6765 45.4241 9.49336 45.3894 9.45866ZM22.2664 6.82967L22.6471 6.60427C22.6706 6.59033 22.6927 6.57693 22.7136 6.56427C22.8272 6.49552 22.9046 6.44864 22.977 6.45535C23.1322 6.46975 23.2646 6.7303 23.6807 7.54923C23.7166 7.61974 23.7545 7.69438 23.7947 7.77337C24.1945 8.55858 24.3756 9.05544 24.3756 9.3677C24.3756 10.6828 22.5212 11.6101 21.4612 10.8251C21.1777 10.6151 19.9308 8.44148 19.9243 8.14598C19.9217 8.02818 20.4031 7.74617 20.6067 7.74617C20.6553 7.74617 20.9751 8.26965 21.3175 8.90952C22.0521 10.282 22.353 10.5003 22.995 10.1269C23.596 9.77714 23.5704 9.36818 22.86 7.9854L22.2664 6.82967ZM48.7791 10.8533C48.7987 10.7697 49.2367 9.9866 49.7525 9.11289C50.2682 8.23917 50.7229 7.52158 50.763 7.51806C50.8496 7.51056 53.089 8.86732 53.2412 9.01958C53.3516 9.13 53.1102 9.62159 52.9455 9.62159C52.8954 9.62159 52.5071 9.41061 52.0827 9.15273C51.6581 8.89486 51.2696 8.68388 51.2192 8.68388C51.1686 8.68388 51.0357 8.82383 50.9237 8.99484C50.7253 9.29749 50.7273 9.31144 50.9981 9.51891C51.1511 9.63613 51.5004 9.85215 51.7744 9.9989C52.3105 10.2862 52.3545 10.3827 52.1016 10.7165C51.9459 10.922 51.8997 10.9099 51.139 10.4641L50.3399 9.99608L50.1349 10.3069C50.0221 10.478 49.9304 10.6707 49.9311 10.7351C49.9318 10.7996 50.2612 11.05 50.6629 11.2915C50.7468 11.342 50.8241 11.3883 50.8954 11.431L50.8977 11.4324C51.4841 11.7836 51.6542 11.8855 51.6593 11.9951C51.6614 12.0398 51.636 12.0859 51.6001 12.1507C51.5894 12.1702 51.5777 12.1914 51.5655 12.2147C51.4857 12.3679 51.4059 12.5106 51.3882 12.5316C51.3041 12.6317 48.7476 10.9873 48.7791 10.8533ZM9.24213 35.057C9.25561 21.4629 19.4008 10.1243 32.9323 8.58014C33.4158 8.52505 34.6657 8.47301 35.7101 8.46469C50.4242 8.34677 62.4702 20.3436 62.4702 35.1156C62.4702 39.841 61.0007 45.0349 58.5418 49.0008C55.8431 53.3531 52.1089 56.7346 47.5254 58.9763C44.8128 60.303 42.0963 61.1175 39.1199 61.4963C36.8393 61.7866 33.2289 61.6848 31.0394 61.2685C27.2277 60.5438 23.8899 59.1616 20.742 57.0041C15.7795 53.6029 12.0171 48.4374 10.3625 42.7537C9.53411 39.9082 9.23932 37.8825 9.24213 35.057ZM16.4077 11.3581C16.4141 10.681 17.0828 9.76155 17.8703 9.3472C18.0637 9.24546 18.446 9.16001 18.7201 9.15743C19.1346 9.15356 19.2182 9.19047 19.2182 9.37755C19.2182 9.81522 19.0829 9.97323 18.7075 9.97405C18.028 9.97545 17.3556 10.6125 17.3474 11.2626C17.3418 11.6976 17.765 12.31 18.1952 12.4897C18.6838 12.6939 19.101 12.6083 19.5847 12.2044L19.9734 11.8799L19.6544 11.398C19.479 11.1328 19.3354 10.8705 19.3354 10.8151C19.3354 10.7283 19.8336 10.4421 19.9844 10.4421C20.0129 10.4421 20.2298 10.7334 20.4662 11.0895C20.8621 11.6858 20.8835 11.7602 20.7371 12.0337C20.2662 12.9134 19.0467 13.5876 18.1806 13.4471C17.2965 13.3035 16.3992 12.2465 16.4077 11.3581ZM51.8286 12.9594L53.0104 11.3491C53.6605 10.4634 54.2171 9.7388 54.2476 9.7388C54.4043 9.7388 56.0462 11.0736 56.302 11.409C56.6641 11.8838 56.7985 12.6236 56.6207 13.1626C56.4188 13.7745 55.6794 14.433 55.1081 14.5095C54.3099 14.6167 53.8572 14.4544 52.8189 13.6893L51.8286 12.9594ZM11.2833 15.6581C11.7847 15.0132 12.1752 14.6381 12.534 14.4567C13.1949 14.1225 13.5027 14.1264 14.2592 14.4786C15.0037 14.8252 15.3502 15.402 15.3502 16.2948C15.3502 16.8228 15.2761 16.9907 14.6176 17.955C14.2147 18.5451 13.8526 19.0345 13.8131 19.0426C13.7129 19.0632 10.5432 16.7572 10.5493 16.6681C10.5521 16.6284 10.8824 16.1739 11.2833 15.6581ZM57.2247 17.2839C57.2693 16.457 57.6174 15.8846 58.2716 15.5622C58.4856 15.4567 58.9286 15.3692 59.2561 15.3678C60.2824 15.3632 61.3176 16.2812 61.4338 17.2991C61.4698 17.615 61.4379 17.6543 61.1205 17.6854C60.7993 17.717 60.7511 17.6744 60.593 17.2203C60.479 16.8931 60.2774 16.625 60.0087 16.4436C58.7856 15.6174 57.3888 17.3297 58.4135 18.3993C58.5998 18.5937 58.9031 18.786 59.0875 18.8265C59.3783 18.8904 59.4226 18.9543 59.4226 19.3104C59.4226 19.7108 59.4135 19.7188 59.0417 19.6441C58.4842 19.5322 57.7639 18.9973 57.4555 18.4663C57.2369 18.09 57.1933 17.8669 57.2247 17.2839ZM11.7694 20.7569C11.7958 20.7569 12.036 20.3607 12.3033 19.8765L12.7894 18.996L13.1275 19.1959L13.4658 19.3956L13.2496 19.7539C13.1306 19.951 12.8115 20.5078 12.5404 20.9914C12.2693 21.4749 12.0292 21.8891 12.0067 21.9118C11.9218 21.998 8.55174 20.0075 8.55174 19.871C8.55174 19.7924 8.6495 19.6073 8.76906 19.4597L8.98626 19.1914L10.3538 19.9742C11.106 20.4047 11.743 20.7569 11.7694 20.7569ZM60.6486 22.8468C59.4321 21.7788 59.4972 20.0546 60.7835 19.2759C61.9747 18.5548 63.4842 19.2265 63.9295 20.6758C64.3257 21.9656 63.5429 23.1835 62.2372 23.309C61.4748 23.3823 61.1512 23.288 60.6486 22.8468ZM6.96174 24.3282C6.59791 23.3756 7.01975 22.1642 7.9046 21.621C8.30126 21.3774 8.49173 21.3381 9.10722 21.3721C9.88482 21.4151 10.2687 21.6136 10.7053 22.1984C11.054 22.6654 11.1028 23.7441 10.8056 24.4159C10.0426 26.1408 7.63291 26.0858 6.96174 24.3282ZM61.246 24.7006C61.2424 24.6454 62.0043 24.3192 62.939 23.9756C63.8738 23.6321 64.7257 23.3475 64.8323 23.3432C65.0031 23.3366 65.3577 24.0035 65.2439 24.1173C65.1693 24.192 61.7099 25.4428 61.5744 25.4442C61.459 25.4452 61.2661 25.0085 61.246 24.7006ZM63.4165 25.9838C64.2647 25.7425 65.0714 25.4996 65.209 25.4441C65.6249 25.2762 65.7238 25.3128 65.8525 25.6818C65.9677 26.0126 65.9197 26.1158 65.1043 27.2861C64.6252 27.9739 64.2547 28.5583 64.2809 28.5847C64.3073 28.611 64.8111 28.4907 65.4005 28.3172C65.99 28.1437 66.487 28.0201 66.505 28.0424C66.5231 28.0646 66.5966 28.2566 66.6682 28.469C66.7678 28.7641 66.765 28.8667 66.6564 28.9035C66.5419 28.9424 65.3112 29.3048 63.0407 29.968C62.8984 30.0096 62.8299 29.9207 62.7739 29.622C62.7061 29.2609 62.7823 29.0989 63.527 28.0215C63.9826 27.3622 64.3335 26.801 64.3068 26.7742C64.2613 26.7287 62.7515 27.1031 62.333 27.2637C62.1124 27.3483 62.0577 27.2795 61.9515 26.7838L61.8742 26.4225L63.4165 25.9838ZM6.49124 29.7946C5.15699 29.1886 4.8949 27.3853 5.97585 26.2489C6.47026 25.7291 6.66717 25.7111 6.8206 26.1713C6.90394 26.4215 6.86221 26.5309 6.57281 26.8203C5.9095 27.4837 6.01547 28.5009 6.78967 28.9013C7.70452 29.3744 8.65595 28.8277 8.70835 27.7988C8.72605 27.4487 8.68724 27.406 8.2001 27.2404C7.90999 27.1418 7.65916 27.049 7.64275 27.0342C7.59352 26.9898 7.8664 26.266 7.9325 26.266C7.96603 26.266 8.32446 26.3796 8.72908 26.5185C9.41548 26.7539 9.46906 26.7984 9.53153 27.1834C9.56846 27.4103 9.54501 27.8375 9.47972 28.1325C9.14238 29.6547 7.81236 30.3945 6.49124 29.7946ZM4.74346 38.6231C4.56916 37.1331 4.49766 33.1456 4.63866 32.7782C4.69235 32.6382 4.80488 32.6076 5.07846 32.659C5.28065 32.6969 6.07899 32.8179 6.85237 32.9278L8.25871 33.1278L8.33431 35.8213C8.43172 39.2944 8.73237 41.1217 9.65062 43.8211C12.186 51.2743 17.3733 57.0638 24.3978 60.2803C25.2158 60.6548 25.938 60.9613 26.0026 60.9613C26.0671 60.9613 26.1544 61.017 26.1964 61.085C26.2672 61.1996 25.2553 64.3072 25.0814 64.5095C24.9759 64.6321 23.2315 63.9174 21.5742 63.0724C14.1753 59.2999 8.29797 52.3064 5.98956 44.5282C5.44311 42.6865 4.93991 40.3022 4.74346 38.6231ZM63.5068 33.1743C63.5491 33.1704 64.3485 33.0444 65.2833 32.8944C66.2181 32.7445 67.0151 32.6159 67.0542 32.6087C67.2074 32.5804 67.2757 35.4402 67.1617 37.1004C66.8691 41.3551 65.7392 45.5459 63.8884 49.2399C61.1838 54.638 57.0262 59.0825 51.7466 62.22C50.1171 63.1883 47.073 64.5918 46.9243 64.4433C46.8263 64.3452 45.7086 61.3065 45.7086 61.138C45.7086 61.0584 45.9592 60.8991 46.2654 60.784C47.595 60.2845 50.3399 58.7932 51.7451 57.807C54.7254 55.7153 57.5263 52.7394 59.3583 49.7183C61.1992 46.6822 62.4797 43.3858 63.052 40.2085C63.3595 38.5021 63.5693 35.7084 63.4934 34.3308C63.4585 33.6987 63.4646 33.1783 63.5068 33.1743ZM42.6856 63.1271C43.0347 62.0532 43.148 61.8308 43.38 61.7658C43.7778 61.6542 43.8332 61.6534 43.8332 61.759C43.8332 61.8109 44.0104 62.633 44.2269 63.5859L44.2293 63.5963C44.5064 64.8154 44.5944 65.2026 44.4467 65.3447C44.3779 65.4108 44.2581 65.4239 44.0825 65.443L44.0791 65.4434C43.8176 65.4718 43.7835 65.4093 43.601 64.5663C43.3798 63.5443 43.3038 63.4022 43.1883 63.795C42.8896 64.8103 42.6114 65.4155 42.4436 65.4155C42.3413 65.4155 41.9527 65.1139 41.5802 64.7451C41.2077 64.3765 40.9036 64.126 40.9047 64.1884C40.9056 64.2508 40.9829 64.6184 41.0763 65.0052C41.3146 65.9922 41.3033 66.0818 40.9321 66.1546C40.7548 66.1894 40.5747 66.1824 40.5318 66.139C40.489 66.0957 40.2918 65.298 40.0937 64.3666C39.7159 62.5914 39.7245 62.4911 40.2519 62.4869C40.3884 62.4858 40.8399 62.8724 41.3744 63.4479L42.2686 64.4106L42.6856 63.1271ZM27.4453 63.4406C27.58 62.9104 28.0121 62.4068 28.5238 62.1841C29.283 61.8537 30.4509 62.1003 30.9887 62.7049C31.2106 62.9542 31.2106 62.9601 30.9887 63.1279C30.6907 63.3536 30.6363 63.3484 30.2414 63.0564C30.0357 62.9043 29.7137 62.8022 29.4145 62.7943C29.0016 62.7835 28.8713 62.8413 28.5842 63.1626C27.9942 63.823 28.1926 64.673 29.0172 65.0176C29.2323 65.1075 29.459 65.181 29.5209 65.181C29.7219 65.181 30.0019 64.8192 30.0037 64.5573C30.0067 64.1328 30.1654 63.9866 30.5254 64.077C30.8454 64.1573 30.8496 64.1698 30.7736 64.8164C30.7312 65.1781 30.6209 65.5497 30.5286 65.6422C30.4351 65.7356 30.0599 65.8301 29.6831 65.8549C28.1863 65.9535 27.1039 64.7858 27.4453 63.4406ZM32.5858 66.2387C31.2105 65.537 31.2012 63.5834 32.5697 62.8712C33.3443 62.4681 34.252 62.5685 34.8954 63.1283L35.2179 63.409L34.964 63.6665L34.7102 63.9241L34.3915 63.6734C33.8803 63.2714 33.0033 63.3741 32.6137 63.8815C32.5351 63.9838 32.4691 64.2941 32.4671 64.5709C32.4613 65.3583 33.1646 65.9107 33.9286 65.7189C34.1866 65.6542 34.2216 65.5827 34.2216 65.1202C34.2216 64.5981 34.2241 64.595 34.6319 64.595C35.0893 64.595 35.1092 64.6591 34.9684 65.6859C34.9047 66.1504 34.8466 66.2403 34.5407 66.347C33.9756 66.544 33.0879 66.4948 32.5858 66.2387ZM36.3169 65.9256C35.5017 64.993 35.7343 63.5099 36.7825 62.9561C37.3756 62.6428 38.3765 62.6451 38.8949 62.9612L39.2898 63.202L39.0253 63.4837C38.7848 63.7397 38.7386 63.7497 38.5163 63.5941C37.8044 63.0953 36.6831 63.7145 36.6831 64.6063C36.6831 65.5578 37.7822 66.0855 38.5803 65.5172L38.9313 65.2673L39.1748 65.5108C39.3828 65.7187 39.3953 65.7821 39.2608 65.9442C38.6359 66.6972 36.9822 66.6867 36.3169 65.9256ZM9.85012 22.6233C9.66164 22.4348 9.42863 22.2807 9.33228 22.2807C9.23581 22.2807 9.08671 22.2585 9.00091 22.2314C8.62559 22.1129 8.00986 22.4784 7.78423 22.9537C7.36437 23.8386 7.96861 24.7422 8.98005 24.7422C9.40671 24.7422 9.57291 24.6768 9.85012 24.3996C10.1306 24.1191 10.1927 23.958 10.1927 23.5115C10.1927 23.0649 10.1306 22.9038 9.85012 22.6233ZM13.8251 15.3058C14.6103 15.7119 14.7336 16.4235 14.167 17.2791C13.9675 17.5802 13.7659 17.8266 13.7189 17.8266C13.6719 17.8266 13.1989 17.5082 12.6678 17.1192L11.7022 16.4119L12.0635 15.9206C12.6395 15.1374 13.153 14.9582 13.8251 15.3058ZM26.0179 7.66611C26.0165 8.02314 26.0677 8.02491 26.8934 7.69471L27.2427 7.55511L26.7065 6.98768L26.1704 6.42035L26.0948 6.87808C26.0532 7.12985 26.0186 7.48455 26.0179 7.66611ZM31.4588 5.11718C31.8895 5.54806 31.5912 6.17784 30.8778 6.34323C30.1829 6.5044 30.1551 6.49315 30.0755 6.01726C30.0351 5.77556 29.9706 5.46331 29.9322 5.32359C29.8771 5.12292 29.9202 5.05845 30.1373 5.01719C30.7537 4.89998 31.2814 4.93995 31.4588 5.11718ZM36.3281 6.22238L36.0869 5.60701C35.8731 5.06126 35.6282 4.64984 35.6282 4.83645C35.6282 4.87349 35.497 5.20051 35.3367 5.56317L35.045 6.22238H35.6866H36.3281ZM55.3696 11.5393C55.9296 12.0675 55.9581 12.7105 55.447 13.2827C54.9782 13.8073 54.306 13.8186 53.5937 13.3136C53.3212 13.1203 53.0969 12.9195 53.0955 12.8674C53.0942 12.8152 53.4122 12.3533 53.8023 11.8408L53.8121 11.8279C54.226 11.2842 54.4199 11.0295 54.6262 11.019C54.808 11.0098 54.9995 11.1904 55.3598 11.5301L55.3696 11.5393ZM62.9403 20.4346C62.8126 20.2251 62.6937 20.0536 62.6763 20.0536C62.6588 20.0536 62.4866 20.0096 62.2936 19.9556C61.7959 19.8166 61.2499 19.9963 60.8975 20.4151C60.0405 21.4337 61.1938 22.9093 62.3999 22.337C63.148 21.9819 63.3819 21.1588 62.9403 20.4346Z" fill="#FEC267"/>
<path d="M106.195 37.884C106.195 39.1221 105.961 40.2434 105.494 41.2479C105.05 42.2524 104.419 43.105 103.602 43.8058C102.807 44.5066 101.861 45.0556 100.763 45.4527C99.6888 45.8265 98.5208 46.0133 97.2593 46.0133C95.9512 46.0133 94.7481 45.8265 93.6502 45.4527C92.5523 45.0556 91.6062 44.5066 90.812 43.8058C90.0411 43.105 89.4337 42.2524 88.9899 41.2479C88.5694 40.2434 88.3591 39.1221 88.3591 37.884V29.5445C88.3591 28.3297 88.5694 27.2201 88.9899 26.2156C89.4337 25.2112 90.0411 24.3585 90.812 23.6577C91.6062 22.9335 92.5523 22.3729 93.6502 21.9758C94.7481 21.5787 95.9512 21.3801 97.2593 21.3801C98.5442 21.3801 99.7355 21.5787 100.833 21.9758C101.931 22.3729 102.877 22.9335 103.672 23.6577C104.466 24.3585 105.085 25.2112 105.529 26.2156C105.973 27.2201 106.195 28.3297 106.195 29.5445V37.884ZM102.936 29.9299C102.936 28.9488 102.784 28.1078 102.48 27.407C102.177 26.7062 101.768 26.1339 101.254 25.69C100.74 25.2228 100.133 24.8841 99.4318 24.6739C98.7544 24.4636 98.0302 24.3585 97.2593 24.3585C96.4885 24.3585 95.7526 24.4636 95.0518 24.6739C94.3744 24.8841 93.7787 25.2228 93.2648 25.69C92.7742 26.1339 92.3771 26.7062 92.0734 27.407C91.7697 28.1078 91.6179 28.9488 91.6179 29.9299V37.4986C91.6179 38.4797 91.7697 39.3207 92.0734 40.0215C92.3771 40.7223 92.7859 41.2946 93.2998 41.7384C93.8137 42.1823 94.4094 42.5093 95.0869 42.7196C95.7877 42.9298 96.5118 43.0349 97.2593 43.0349C98.0302 43.0349 98.7544 42.9298 99.4318 42.7196C100.109 42.5093 100.705 42.1823 101.219 41.7384C101.756 41.2946 102.177 40.7223 102.48 40.0215C102.784 39.3207 102.936 38.4797 102.936 37.4986V29.9299ZM121.412 45.7681L121.061 43.9109C120.337 44.3548 119.695 44.7169 119.134 44.9972C118.597 45.2541 118.106 45.4527 117.663 45.5929C117.242 45.733 116.857 45.8265 116.506 45.8732C116.179 45.9199 115.864 45.9433 115.56 45.9433C113.715 45.9433 112.278 45.406 111.25 44.3314C110.222 43.2569 109.708 41.7268 109.708 39.7412V28.3881H112.722V39.4258C112.722 40.7807 113.014 41.7384 113.598 42.2991C114.205 42.8364 114.953 43.0933 115.84 43.07C116.541 43.07 117.347 42.8831 118.258 42.5093C119.193 42.1356 120.127 41.61 121.061 40.9325V28.3881H124.075V45.7681H121.412ZM137.211 31.3666C135.646 31.5067 134.349 31.787 133.321 32.2075C132.317 32.6046 131.546 32.9784 131.009 33.3288V45.7681H127.995V28.3881H130.658L130.974 30.9461H131.009C131.312 30.6424 131.698 30.327 132.165 30C132.632 29.6729 133.135 29.3809 133.672 29.124C134.209 28.8437 134.781 28.6217 135.389 28.4582C135.996 28.2713 136.604 28.1779 137.211 28.1779V31.3666ZM156.562 24.6038V45.7681H153.304V24.6038H146.331V21.6254H163.5V24.6038H156.562ZM178.723 39.636C178.723 40.6405 178.524 41.5399 178.127 42.3341C177.753 43.105 177.228 43.7591 176.55 44.2964C175.896 44.8337 175.137 45.2425 174.272 45.5228C173.408 45.8031 172.485 45.9433 171.504 45.9433C170.5 45.9433 169.565 45.8031 168.701 45.5228C167.837 45.2425 167.078 44.8337 166.423 44.2964C165.793 43.7591 165.291 43.105 164.917 42.3341C164.543 41.5399 164.356 40.6405 164.356 39.636V34.5902C164.356 33.5858 164.543 32.6981 164.917 31.9272C165.314 31.1329 165.828 30.4672 166.459 29.9299C167.113 29.3693 167.872 28.9488 168.736 28.6685C169.624 28.3648 170.558 28.2129 171.539 28.2129C172.591 28.2129 173.548 28.3648 174.413 28.6685C175.3 28.9488 176.06 29.3693 176.69 29.9299C177.344 30.4672 177.847 31.1329 178.197 31.9272C178.547 32.6981 178.723 33.5858 178.723 34.5902V39.636ZM175.744 35.1158C175.744 34.3683 175.616 33.7376 175.359 33.2237C175.102 32.6864 174.763 32.2542 174.343 31.9272C173.945 31.6002 173.502 31.3666 173.011 31.2264C172.52 31.0862 172.042 31.0161 171.574 31.0161C171.084 31.0161 170.593 31.0862 170.103 31.2264C169.612 31.3666 169.157 31.6002 168.736 31.9272C168.339 32.2542 168.012 32.6864 167.755 33.2237C167.498 33.7376 167.37 34.3683 167.37 35.1158V39.0404C167.37 39.7879 167.475 40.4303 167.685 40.9676C167.919 41.4815 168.222 41.902 168.596 42.229C168.97 42.556 169.414 42.7897 169.927 42.9298C170.441 43.07 170.99 43.1401 171.574 43.1401C172.042 43.1401 172.52 43.07 173.011 42.9298C173.502 42.7897 173.945 42.556 174.343 42.229C174.763 41.902 175.102 41.4815 175.359 40.9676C175.616 40.4303 175.744 39.7879 175.744 39.0404V35.1158ZM181.977 45.7681V20.6793H184.956V34.345H187.514C188.238 34.345 188.892 34.2165 189.476 33.9595C190.06 33.6792 190.585 33.0602 191.053 32.1024L192.98 28.3181H196.344L194.241 32.7331C193.914 33.4106 193.564 33.9829 193.19 34.4501C192.816 34.9173 192.279 35.2794 191.578 35.5363C192.069 35.6999 192.478 35.9218 192.805 36.2021C193.132 36.4591 193.4 36.7511 193.611 37.0781C193.821 37.4051 193.996 37.7555 194.136 38.1293C194.276 38.5031 194.405 38.8768 194.522 39.2506L196.694 45.7681H193.365L191.543 40.1967C191.356 39.6127 191.146 39.1338 190.912 38.76C190.702 38.3629 190.457 38.0592 190.177 37.849C189.92 37.6154 189.616 37.4635 189.266 37.3935C188.915 37.3 188.506 37.2533 188.039 37.2533H184.956V45.7681H181.977ZM201.896 38.1994V39.3557C201.896 40.0565 202.012 40.6522 202.246 41.1428C202.48 41.61 202.795 42.0071 203.192 42.3341C203.613 42.6378 204.08 42.8597 204.594 42.9999C205.131 43.1401 205.68 43.2101 206.241 43.2101C206.825 43.2101 207.502 43.0933 208.273 42.8597C209.044 42.6261 209.791 42.1706 210.516 41.4932L212.408 43.5605C211.52 44.4716 210.527 45.1023 209.429 45.4527C208.355 45.7797 207.268 45.9433 206.171 45.9433C205.189 45.9433 204.255 45.8148 203.367 45.5578C202.48 45.2775 201.697 44.8804 201.02 44.3665C200.366 43.8292 199.84 43.1634 199.443 42.3692C199.069 41.5749 198.882 40.6522 198.882 39.601V35.0107C198.882 33.9829 199.057 33.0485 199.408 32.2075C199.758 31.3666 200.237 30.6541 200.844 30.0701C201.475 29.4861 202.211 29.0422 203.052 28.7385C203.916 28.4115 204.862 28.248 205.89 28.248C206.918 28.248 207.864 28.3998 208.728 28.7035C209.593 29.0072 210.329 29.4393 210.936 30C211.567 30.5606 212.046 31.2497 212.373 32.0674C212.723 32.8616 212.898 33.761 212.898 34.7654V38.1994H201.896ZM209.85 35.0808C209.85 34.3566 209.745 33.7376 209.534 33.2237C209.324 32.7098 209.032 32.2893 208.658 31.9622C208.308 31.6118 207.888 31.3666 207.397 31.2264C206.93 31.0629 206.427 30.9811 205.89 30.9811C205.353 30.9811 204.851 31.0629 204.383 31.2264C203.916 31.3899 203.496 31.6352 203.122 31.9622C202.748 32.2893 202.456 32.7098 202.246 33.2237C202.036 33.7142 201.931 34.2982 201.931 34.9757V35.7466H209.85V35.0808ZM224.616 28.2129C226.321 28.2129 227.652 28.7502 228.61 29.8248C229.568 30.8993 230.047 32.4294 230.047 34.415V45.7681H227.033V34.8005C227.033 33.4456 226.741 32.4995 226.157 31.9622C225.573 31.4016 224.838 31.1329 223.95 31.1563C223.249 31.1563 222.42 31.3432 221.462 31.717C220.528 32.0674 219.617 32.5229 218.729 33.0835V45.7681H215.715V28.3881H218.378L218.729 30.3153C219.476 29.8481 220.142 29.4744 220.726 29.1941C221.334 28.9137 221.871 28.7035 222.338 28.5633C222.805 28.4232 223.226 28.3297 223.599 28.283C223.973 28.2363 224.312 28.2129 224.616 28.2129Z" fill="#FEC267"/>
</svg>
