<svg width="234" height="62" viewBox="0 0 234 62" fill="none" xmlns="http://www.w3.org/2000/svg">
<path d="M94.8128 41.189C94.1412 42.0066 93.3966 42.6928 92.579 43.2476C91.7614 43.7732 90.9146 44.2112 90.0386 44.5616C89.1626 44.8828 88.2719 45.1164 87.3667 45.2624C86.4907 45.4084 85.6585 45.4814 84.8701 45.4814C83.4685 45.4814 82.0669 45.277 80.6653 44.8682C79.2929 44.4594 78.0519 43.8608 76.9423 43.0724C75.8619 42.2548 74.9713 41.2474 74.2705 40.0502C73.5989 38.8238 73.2631 37.393 73.2631 35.7578V24.5887C73.2631 22.9827 73.5843 21.5665 74.2267 20.3401C74.8983 19.0845 75.7743 18.0479 76.8547 17.2303C77.9643 16.3835 79.2199 15.7557 80.6215 15.3468C82.0231 14.9088 83.4685 14.6898 84.9577 14.6898C86.7097 14.6898 88.4179 14.938 90.0824 15.4345C91.7468 15.9017 93.163 16.6463 94.331 17.6683L91.3964 22.3111C90.462 21.5227 89.4254 20.9825 88.2865 20.6905C87.1477 20.3693 86.0673 20.2087 85.0453 20.2087C84.3445 20.2087 83.6437 20.3109 82.9429 20.5153C82.2713 20.6905 81.6581 20.9971 81.1033 21.4351C80.5777 21.8731 80.1397 22.4425 79.7893 23.1433C79.4389 23.8441 79.2637 24.6909 79.2637 25.6837V34.4875C79.2637 35.4804 79.4243 36.3272 79.7455 37.028C80.0667 37.6996 80.4901 38.2544 81.0157 38.6924C81.5413 39.1304 82.1399 39.4516 82.8115 39.656C83.4831 39.8604 84.1693 39.9626 84.8701 39.9626C85.4541 39.9626 86.0819 39.8896 86.7535 39.7436C87.4543 39.5684 88.1405 39.2034 88.8121 38.6486V33.6115H84.4321V28.4869H94.8128V41.189ZM121.375 41.189C120.704 42.0066 119.959 42.6928 119.141 43.2476C118.324 43.7732 117.477 44.2112 116.601 44.5616C115.725 44.8828 114.834 45.1164 113.929 45.2624C113.053 45.4084 112.221 45.4814 111.433 45.4814C110.031 45.4814 108.629 45.277 107.228 44.8682C105.855 44.4594 104.614 43.8608 103.505 43.0724C102.424 42.2548 101.534 41.2474 100.833 40.0502C100.161 38.8238 99.8255 37.393 99.8255 35.7578V24.5887C99.8255 22.9827 100.147 21.5665 100.789 20.3401C101.461 19.0845 102.337 18.0479 103.417 17.2303C104.527 16.3835 105.782 15.7557 107.184 15.3468C108.586 14.9088 110.031 14.6898 111.52 14.6898C113.272 14.6898 114.98 14.938 116.645 15.4345C118.309 15.9017 119.725 16.6463 120.893 17.6683L117.959 22.3111C117.024 21.5227 115.988 20.9825 114.849 20.6905C113.71 20.3693 112.63 20.2087 111.608 20.2087C110.907 20.2087 110.206 20.3109 109.505 20.5153C108.834 20.6905 108.221 20.9971 107.666 21.4351C107.14 21.8731 106.702 22.4425 106.352 23.1433C106.001 23.8441 105.826 24.6909 105.826 25.6837V34.4875C105.826 35.4804 105.987 36.3272 106.308 37.028C106.629 37.6996 107.053 38.2544 107.578 38.6924C108.104 39.1304 108.702 39.4516 109.374 39.656C110.046 39.8604 110.732 39.9626 111.433 39.9626C112.017 39.9626 112.644 39.8896 113.316 39.7436C114.017 39.5684 114.703 39.2034 115.375 38.6486V33.6115H110.995V28.4869H121.375V41.189ZM144.171 22.3111C143.236 21.5227 142.229 20.9825 141.149 20.6905C140.068 20.3693 139.017 20.2087 137.995 20.2087C137.323 20.2087 136.652 20.3109 135.98 20.5153C135.309 20.6905 134.71 20.9971 134.184 21.4351C133.659 21.8731 133.221 22.4425 132.87 23.1433C132.549 23.8441 132.389 24.6909 132.389 25.6837V34.4875C132.389 35.4804 132.549 36.3272 132.87 37.028C133.221 37.6996 133.659 38.2544 134.184 38.6924C134.739 39.1304 135.338 39.4516 135.98 39.656C136.652 39.8604 137.323 39.9626 137.995 39.9626C139.017 39.9626 140.039 39.8166 141.061 39.5246C142.112 39.2326 143.163 38.6778 144.215 37.8602L147.062 42.503C145.952 43.4374 144.594 44.1674 142.988 44.693C141.382 45.2186 139.689 45.4814 137.907 45.4814C136.477 45.4814 135.075 45.277 133.703 44.8682C132.33 44.4594 131.104 43.8608 130.023 43.0724C128.943 42.2548 128.067 41.2474 127.395 40.0502C126.724 38.8238 126.388 37.393 126.388 35.7578V24.4573C126.388 22.8513 126.709 21.4497 127.352 20.2525C128.023 19.0261 128.885 18.0041 129.936 17.1865C131.016 16.3689 132.243 15.7557 133.615 15.3468C134.987 14.938 136.389 14.7336 137.82 14.7336C139.572 14.7336 141.251 14.9672 142.857 15.4345C144.492 15.9017 145.894 16.6463 147.062 17.6683L144.171 22.3111Z" fill="#FEC267"/>
<path d="M178.705 38.9552H168.193L166.222 45.1748H159.827L170.427 14.9964H176.559L187.071 45.1748H180.545L178.705 38.9552ZM169.814 33.9181H177.085L175.902 30.0637L173.537 22.0921H173.362L171.04 29.9323L169.814 33.9181ZM208.651 37.5974C208.651 39.9626 208.009 41.8752 206.724 43.3352C205.439 44.766 203.541 45.4814 201.03 45.4814C200.271 45.4814 199.366 45.4084 198.314 45.2624C197.292 45.1164 196.256 44.766 195.205 44.2112V53.8472H189.642V23.5375H194.767L195.205 25.5085C196.431 24.7493 197.584 24.1945 198.665 23.8441C199.745 23.4937 200.665 23.3185 201.424 23.3185C203.76 23.3185 205.541 23.9609 206.768 25.2457C208.023 26.5305 208.651 28.5307 208.651 31.2463V37.5974ZM203.001 31.7281C203.001 30.4725 202.738 29.6257 202.213 29.1877C201.687 28.7205 201.045 28.4869 200.285 28.4869C199.935 28.4869 199.541 28.5453 199.103 28.6621C198.694 28.7497 198.256 28.8811 197.789 29.0563C197.322 29.2315 196.869 29.4359 196.431 29.6695C195.993 29.8739 195.584 30.1075 195.205 30.3703V38.999C196.197 39.4662 197.059 39.7874 197.789 39.9626C198.519 40.1086 199.22 40.1816 199.891 40.1816C200.738 40.2108 201.468 39.9772 202.081 39.4808C202.694 38.9844 203.001 38.123 203.001 36.8966V31.7281ZM231.663 37.5974C231.663 39.9626 231.021 41.8752 229.736 43.3352C228.451 44.766 226.553 45.4814 224.042 45.4814C223.283 45.4814 222.378 45.4084 221.327 45.2624C220.305 45.1164 219.268 44.766 218.217 44.2112V53.8472H212.654V23.5375H217.779L218.217 25.5085C219.443 24.7493 220.597 24.1945 221.677 23.8441C222.757 23.4937 223.677 23.3185 224.436 23.3185C226.772 23.3185 228.554 23.9609 229.78 25.2457C231.036 26.5305 231.663 28.5307 231.663 31.2463V37.5974ZM226.013 31.7281C226.013 30.4725 225.75 29.6257 225.225 29.1877C224.699 28.7205 224.057 28.4869 223.298 28.4869C222.947 28.4869 222.553 28.5453 222.115 28.6621C221.706 28.7497 221.268 28.8811 220.801 29.0563C220.334 29.2315 219.881 29.4359 219.443 29.6695C219.005 29.8739 218.596 30.1075 218.217 30.3703V38.999C219.21 39.4662 220.071 39.7874 220.801 39.9626C221.531 40.1086 222.232 40.1816 222.903 40.1816C223.75 40.2108 224.48 39.9772 225.093 39.4808C225.707 38.9844 226.013 38.123 226.013 36.8966V31.7281Z" fill="#D8D8D8"/>
<rect x="0.642334" width="58.2543" height="61.3203" rx="8.76005" fill="url(#paint0_linear_249_5044)"/>
<g filter="url(#filter0_d_249_5044)">
<path fill-rule="evenodd" clip-rule="evenodd" d="M22.6919 7.70641C22.6667 7.7357 22.5946 7.74573 22.4095 7.74573C22.2139 7.74573 22.1609 7.75378 22.1609 7.78342C22.1609 7.81225 22.105 7.82328 21.9225 7.83049C21.729 7.8381 21.6793 7.84873 21.6584 7.88695C21.6394 7.92189 21.5992 7.93402 21.5027 7.93402C21.4046 7.93402 21.3726 7.94394 21.3726 7.97437C21.3726 8.00231 21.3452 8.01471 21.2834 8.01471C21.2268 8.01471 21.1885 8.03007 21.1785 8.05675C21.1699 8.07989 21.1517 8.0918 21.1381 8.08322C21.1246 8.07464 21.1061 8.07994 21.097 8.09498C21.0879 8.11001 21.0457 8.1223 21.0032 8.1223C20.952 8.1223 20.9259 8.13594 20.9259 8.16265C20.9259 8.19084 20.8982 8.203 20.8339 8.203C20.773 8.203 20.742 8.21559 20.742 8.24036C20.742 8.26174 20.7027 8.28525 20.65 8.29537C20.595 8.30594 20.5581 8.32875 20.5581 8.35215C20.5581 8.3777 20.5307 8.39128 20.4792 8.39128C20.4267 8.39128 20.4004 8.40473 20.4004 8.43163C20.4004 8.45404 20.377 8.47198 20.3478 8.47198C20.3189 8.47198 20.2953 8.4896 20.2953 8.51111C20.2953 8.53452 20.2584 8.55733 20.2033 8.5679C20.1506 8.57801 20.1114 8.60152 20.1114 8.6229C20.1114 8.64614 20.0827 8.66026 20.0356 8.66026C19.9819 8.66026 19.9558 8.67595 19.9461 8.71406C19.9385 8.74365 19.9135 8.76786 19.8905 8.76786C19.8674 8.76786 19.8486 8.78601 19.8486 8.8082C19.8486 8.83061 19.8252 8.84855 19.7961 8.84855C19.7672 8.84855 19.7435 8.86574 19.7435 8.88677C19.7435 8.90778 19.708 8.93296 19.6647 8.94269C19.6213 8.95243 19.5859 8.97761 19.5859 8.99861C19.5859 9.01965 19.5622 9.03684 19.5333 9.03684C19.5041 9.03684 19.4807 9.05478 19.4807 9.07718C19.4807 9.09937 19.4644 9.11753 19.4444 9.11753C19.4244 9.11753 19.4019 9.14174 19.3943 9.17133C19.3868 9.20091 19.3617 9.22512 19.3387 9.22512C19.3157 9.22512 19.2968 9.24328 19.2968 9.26547C19.2968 9.28766 19.2791 9.30581 19.2574 9.30581C19.2357 9.30581 19.218 9.3251 19.218 9.34869C19.218 9.37225 19.1943 9.39789 19.1654 9.40561C19.1365 9.41335 19.1129 9.43643 19.1129 9.4569C19.1129 9.47734 19.0952 9.4941 19.0735 9.4941C19.0518 9.4941 19.0341 9.51226 19.0341 9.53445C19.0341 9.55664 19.0163 9.57479 18.9946 9.57479C18.9728 9.57479 18.9552 9.59871 18.9552 9.62859C18.9552 9.66445 18.9377 9.68239 18.9027 9.68239C18.8735 9.68239 18.8501 9.70033 18.8501 9.72273C18.8501 9.74492 18.8324 9.76308 18.8107 9.76308C18.7888 9.76308 18.7713 9.78699 18.7713 9.81688C18.7713 9.84646 18.7545 9.87067 18.734 9.87067C18.7134 9.87067 18.6889 9.90698 18.6793 9.95137C18.6698 9.99575 18.6452 10.0321 18.6247 10.0321C18.6042 10.0321 18.5874 10.0563 18.5874 10.0859C18.5874 10.1154 18.5702 10.1397 18.5491 10.1397C18.5263 10.1397 18.504 10.1774 18.4937 10.2338C18.4838 10.2877 18.4608 10.3279 18.4399 10.3279C18.4169 10.3279 18.4034 10.3577 18.4034 10.4086C18.4034 10.4624 18.3903 10.4893 18.364 10.4893C18.3421 10.4893 18.3246 10.5132 18.3246 10.5431C18.3246 10.579 18.3071 10.5969 18.2721 10.5969C18.2295 10.5969 18.2195 10.6149 18.2195 10.6911C18.2195 10.7568 18.2076 10.7852 18.1801 10.7852C18.1537 10.7852 18.1407 10.8122 18.1407 10.8667C18.1407 10.9137 18.1243 10.9547 18.102 10.9635C18.0807 10.9718 18.0557 11.0199 18.0465 11.0702C18.037 11.1222 18.014 11.1618 17.9933 11.1618C17.9691 11.1618 17.9568 11.1935 17.9568 11.2559C17.9568 11.3177 17.9444 11.3501 17.9207 11.3501C17.8974 11.3501 17.8786 11.3972 17.8673 11.4843C17.8565 11.568 17.8379 11.616 17.8179 11.612C17.796 11.6076 17.7836 11.6623 17.7782 11.7872C17.7726 11.9169 17.7604 11.9687 17.7353 11.9687C17.7113 11.9687 17.6941 12.0262 17.6812 12.1503C17.6708 12.2501 17.6488 12.3404 17.6324 12.3509C17.6155 12.3616 17.5983 12.4643 17.5929 12.5862C17.5857 12.7486 17.5742 12.8026 17.5467 12.8026C17.4915 12.8026 17.4917 26.0503 17.5469 26.072C17.574 26.0826 17.5861 26.1547 17.5929 26.3448C17.5997 26.5376 17.6121 26.6097 17.6415 26.6287C17.6765 26.6513 17.6765 26.6543 17.6415 26.6554C17.6104 26.6564 17.6118 26.6624 17.648 26.6841C17.6843 26.7057 17.694 26.7481 17.694 26.885C17.694 27.0213 17.7025 27.0585 17.7334 27.0585C17.7637 27.0585 17.7728 27.0928 17.7728 27.2064C17.7728 27.3184 17.7822 27.3543 17.8114 27.3543C17.8377 27.3543 17.8553 27.3967 17.8673 27.4888C17.8786 27.5762 17.8974 27.6233 17.9207 27.6233C17.9465 27.6233 17.9568 27.6618 17.9568 27.7578C17.9568 27.8547 17.967 27.8923 17.9933 27.8923C18.0141 27.8923 18.0371 27.9325 18.047 27.9865C18.0573 28.0428 18.0796 28.0806 18.1025 28.0806C18.1286 28.0806 18.1407 28.1103 18.1407 28.1747C18.1407 28.2405 18.1526 28.2689 18.1801 28.2689C18.2018 28.2689 18.2195 28.2874 18.2195 28.3101C18.2195 28.3327 18.2365 28.3579 18.2573 28.3661C18.2781 28.3743 18.3027 28.4163 18.312 28.4594C18.3212 28.5026 18.3456 28.5379 18.3661 28.5379C18.3867 28.5379 18.4034 28.5621 18.4034 28.5917C18.4034 28.6212 18.4202 28.6455 18.4408 28.6455C18.4613 28.6455 18.4861 28.6826 18.4958 28.728C18.5055 28.7734 18.5301 28.817 18.5504 28.825C18.5707 28.833 18.5874 28.8551 18.5874 28.8741C18.5874 28.8931 18.604 28.9152 18.6243 28.9232C18.6446 28.9312 18.6692 28.9748 18.6789 29.0202C18.6887 29.0656 18.7134 29.1027 18.734 29.1027C18.7545 29.1027 18.7713 29.1209 18.7713 29.1431C18.7713 29.1653 18.789 29.1834 18.8107 29.1834C18.8324 29.1834 18.8501 29.2027 18.8501 29.2263C18.8501 29.2498 18.8738 29.2755 18.9027 29.2832C18.9316 29.2909 18.9552 29.314 18.9552 29.3345C18.9552 29.3549 18.973 29.3717 18.9946 29.3717C19.0163 29.3717 19.0343 29.3868 19.0345 29.4053C19.0351 29.4463 19.1485 29.56 19.1889 29.56C19.2049 29.56 19.218 29.5781 19.218 29.6003C19.218 29.6225 19.2357 29.6407 19.2574 29.6407C19.2791 29.6407 19.2968 29.66 19.2968 29.6836C19.2968 29.7071 19.3205 29.7327 19.3494 29.7405C19.3783 29.7482 19.4019 29.7703 19.4019 29.7896C19.4019 29.8089 19.4374 29.8327 19.4807 29.8424C19.5241 29.8521 19.5596 29.8773 19.5596 29.8983C19.5596 29.9194 19.5832 29.9366 19.6121 29.9366C19.6413 29.9366 19.6647 29.9545 19.6647 29.9769C19.6647 29.9993 19.688 30.0172 19.7172 30.0172C19.7461 30.0172 19.7698 30.0344 19.7698 30.0555C19.7698 30.0765 19.8053 30.1017 19.8486 30.1114C19.892 30.1211 19.9274 30.1463 19.9274 30.1673C19.9274 30.1931 19.9575 30.2055 20.0194 30.2055C20.0824 30.2055 20.1114 30.2179 20.1114 30.2447C20.1114 30.2681 20.1483 30.2909 20.2033 30.3015C20.256 30.3116 20.2953 30.3351 20.2953 30.3565C20.2953 30.377 20.3189 30.3938 20.3478 30.3938C20.377 30.3938 20.4004 30.4118 20.4004 30.4342C20.4004 30.4609 20.4265 30.4745 20.4779 30.4745C20.5211 30.4745 20.5657 30.4933 20.5786 30.5168C20.5913 30.5401 20.651 30.5659 20.7112 30.5741C20.7793 30.5835 20.8208 30.6031 20.8208 30.626C20.8208 30.6509 20.8542 30.6628 20.924 30.6628C20.9821 30.6628 21.045 30.681 21.0678 30.7043C21.0901 30.7272 21.1678 30.7531 21.2405 30.7619C21.3267 30.7723 21.3726 30.7906 21.3726 30.8145C21.3726 30.8409 21.4127 30.8511 21.5171 30.8511C21.621 30.8511 21.6616 30.8613 21.6616 30.8875C21.6616 30.9142 21.7254 30.928 21.9028 30.9398C22.0817 30.9517 22.15 30.9666 22.1669 30.9976C22.1866 31.0335 22.2761 31.0394 22.8059 31.0394C23.3361 31.0394 23.4221 31.045 23.4221 31.0797C23.4221 31.1088 23.4513 31.1201 23.5272 31.1201C23.6031 31.1201 23.6323 31.1088 23.6323 31.0797C23.6323 31.044 24.1825 31.0394 28.4263 31.0394C32.6825 31.0394 33.2228 31.0348 33.2426 30.9986C33.2583 30.9698 33.3283 30.9528 33.4804 30.9408C33.6357 30.9286 33.6959 30.9137 33.6959 30.8875C33.6959 30.8606 33.7408 30.8511 33.8675 30.8511C33.992 30.8511 34.0431 30.8405 34.0535 30.8127C34.0628 30.7879 34.1279 30.7676 34.2366 30.7557C34.354 30.7428 34.4053 30.7259 34.4053 30.7C34.4053 30.6754 34.4365 30.6628 34.4973 30.6628C34.5615 30.6628 34.5893 30.6506 34.5893 30.6225C34.5893 30.5955 34.6156 30.5821 34.6689 30.5821C34.7148 30.5821 34.7548 30.5653 34.7634 30.5425C34.7716 30.5207 34.8185 30.4951 34.8677 30.4857C34.9184 30.476 34.9571 30.4524 34.9571 30.4312C34.9571 30.4064 34.9881 30.3938 35.0491 30.3938C35.112 30.3938 35.141 30.3815 35.141 30.3547C35.141 30.3313 35.178 30.3085 35.233 30.2979C35.2857 30.2878 35.325 30.2643 35.325 30.2429C35.325 30.2193 35.3541 30.2055 35.4038 30.2055C35.4552 30.2055 35.4826 30.192 35.4826 30.1664C35.4826 30.143 35.5195 30.1202 35.5746 30.1096C35.6273 30.0995 35.6666 30.076 35.6666 30.0546C35.6666 30.0341 35.6902 30.0172 35.7191 30.0172C35.7483 30.0172 35.7717 29.9993 35.7717 29.9769C35.7717 29.9547 35.7894 29.9366 35.8111 29.9366C35.8327 29.9366 35.8505 29.9189 35.8505 29.8974C35.8505 29.874 35.8874 29.8512 35.9424 29.8406C35.9951 29.8305 36.0344 29.807 36.0344 29.7856C36.0344 29.7651 36.0522 29.7483 36.0738 29.7483C36.0955 29.7483 36.1132 29.7315 36.1132 29.7111C36.1132 29.6906 36.1369 29.6675 36.1658 29.6598C36.1947 29.6521 36.2183 29.6264 36.2183 29.6029C36.2183 29.5793 36.2361 29.56 36.2578 29.56C36.2794 29.56 36.2972 29.5418 36.2972 29.5196C36.2972 29.4974 36.3149 29.4793 36.3366 29.4793C36.3583 29.4793 36.376 29.46 36.376 29.4364C36.376 29.4129 36.3996 29.3872 36.4285 29.3795C36.4575 29.3718 36.4811 29.3487 36.4811 29.3282C36.4811 29.3078 36.4988 29.291 36.5205 29.291C36.5422 29.291 36.5599 29.2717 36.5599 29.2481C36.5599 29.2246 36.5836 29.1989 36.6125 29.1912C36.6414 29.1835 36.665 29.1604 36.665 29.1399C36.665 29.1195 36.6828 29.1027 36.7044 29.1027C36.7263 29.1027 36.7439 29.0788 36.7439 29.0489C36.7439 29.019 36.7614 28.9951 36.7833 28.9951C36.8049 28.9951 36.8227 28.9769 36.8227 28.9545C36.8227 28.9322 36.8463 28.8932 36.8752 28.8678C36.9041 28.8425 36.9278 28.8003 36.9278 28.774C36.9278 28.7477 36.9455 28.7261 36.9672 28.7261C36.9889 28.7261 37.0066 28.7107 37.0066 28.6918C37.0066 28.6729 37.0303 28.6367 37.0592 28.6113C37.0881 28.586 37.1117 28.541 37.1117 28.5112C37.1117 28.4811 37.1292 28.4572 37.1511 28.4572C37.1787 28.4572 37.1905 28.4288 37.1905 28.363C37.1905 28.2986 37.2026 28.2689 37.2288 28.2689C37.2516 28.2689 37.2739 28.2311 37.2842 28.1747C37.2941 28.1208 37.3171 28.0806 37.338 28.0806C37.3622 28.0806 37.3745 28.0489 37.3745 27.9865C37.3745 27.9246 37.3868 27.8923 37.4105 27.8923C37.4339 27.8923 37.4526 27.8451 37.464 27.7578C37.4759 27.6657 37.4935 27.6233 37.5199 27.6233C37.5486 27.6233 37.5584 27.5891 37.5584 27.4888C37.5584 27.3872 37.568 27.3543 37.5978 27.3543C37.6275 27.3543 37.6372 27.3216 37.6372 27.2212C37.6372 27.1282 37.6497 27.0809 37.6785 27.0644C37.7097 27.0465 37.7234 26.9775 37.7349 26.7806C37.746 26.5901 37.7594 26.5205 37.7849 26.5205C37.8137 26.5205 37.8211 25.9879 37.8271 23.49C37.8328 21.0948 37.8412 20.4571 37.8671 20.4483C37.8921 20.4398 37.9 20.2953 37.9 19.8476C37.9 19.3415 37.8944 19.2581 37.8606 19.2581C37.8293 19.2581 37.8212 19.2192 37.8212 19.0698C37.8212 18.9271 37.8123 18.8815 37.7847 18.8815C37.7638 18.8815 37.7408 18.8413 37.7309 18.7873C37.7206 18.731 37.6983 18.6932 37.6755 18.6932C37.6505 18.6932 37.6372 18.6652 37.6372 18.6125C37.6372 18.5631 37.6247 18.5344 37.605 18.5385C37.5873 18.5422 37.5687 18.518 37.5638 18.4847C37.558 18.4461 37.5364 18.4242 37.504 18.4242C37.4708 18.4242 37.4533 18.4056 37.4533 18.3704C37.4533 18.3405 37.4358 18.3166 37.4139 18.3166C37.3922 18.3166 37.3745 18.2985 37.3745 18.2763C37.3745 18.2539 37.3511 18.2359 37.3219 18.2359C37.293 18.2359 37.2694 18.2188 37.2694 18.1977C37.2694 18.1767 37.2339 18.1515 37.1905 18.1418C37.1472 18.1321 37.1117 18.1069 37.1117 18.0859C37.1117 18.0601 37.0817 18.0477 37.0198 18.0477C36.9586 18.0477 36.9278 18.0351 36.9278 18.0101C36.9278 17.9744 36.7224 17.9563 36.0279 17.9311C35.9593 17.9287 35.9029 17.9145 35.9027 17.8997C35.9024 17.8849 35.8917 17.8898 35.8789 17.9106C35.859 17.9426 35.4551 17.9479 33.2098 17.9454C31.2361 17.9432 30.5548 17.9345 30.5272 17.9111C30.4998 17.8878 30.4811 17.8875 30.4547 17.9099C30.4351 17.9265 30.3287 17.9479 30.2182 17.9575C30.0752 17.9698 30.0173 17.9853 30.0173 18.0113C30.0173 18.0313 29.9936 18.0477 29.9647 18.0477C29.9297 18.0477 29.9122 18.0656 29.9122 18.1014C29.9122 18.1313 29.8947 18.1552 29.8728 18.1552C29.8511 18.1552 29.8334 18.1734 29.8334 18.1956C29.8334 18.218 29.81 18.2359 29.7808 18.2359C29.7458 18.2359 29.7283 18.2539 29.7283 18.2897C29.7283 18.3196 29.7107 18.3435 29.6888 18.3435C29.6672 18.3435 29.6494 18.3617 29.6494 18.3839C29.6494 18.4061 29.6317 18.4242 29.61 18.4242C29.5883 18.4242 29.5706 18.4435 29.5706 18.4671C29.5706 18.4907 29.547 18.5163 29.518 18.524C29.4891 18.5318 29.4655 18.5548 29.4655 18.5753C29.4655 18.5958 29.4478 18.6125 29.4261 18.6125C29.4044 18.6125 29.3867 18.6293 29.3867 18.6497C29.3867 18.6702 29.363 18.6933 29.3341 18.701C29.3052 18.7087 29.2816 18.7344 29.2816 18.7579C29.2816 18.7815 29.2638 18.8008 29.2422 18.8008C29.2205 18.8008 29.2027 18.819 29.2027 18.8411C29.2027 18.8636 29.1794 18.8815 29.1502 18.8815C29.1152 18.8815 29.0976 18.8994 29.0976 18.9353C29.0976 18.9652 29.0801 18.9891 29.0582 18.9891C29.0365 18.9891 29.0188 19.0072 29.0188 19.0294C29.0188 19.0518 28.9955 19.0698 28.9663 19.0698C28.9374 19.0698 28.9151 19.0788 28.9168 19.0899C28.9254 19.1454 28.9098 19.1774 28.8743 19.1774C28.8526 19.1774 28.8349 19.1955 28.8349 19.2177C28.8349 19.2399 28.8171 19.2581 28.7955 19.2581C28.7738 19.2581 28.7561 19.2773 28.7561 19.3009C28.7561 19.3245 28.7325 19.3501 28.7038 19.3578C28.675 19.3655 28.6585 19.3833 28.667 19.3974C28.6755 19.4115 28.6577 19.4297 28.6273 19.4378C28.597 19.446 28.5721 19.4694 28.5721 19.4898C28.5721 19.5103 28.5544 19.527 28.5327 19.527C28.511 19.527 28.4933 19.5463 28.4933 19.5699C28.4933 19.5935 28.4697 19.6191 28.4407 19.6268C28.4118 19.6346 28.3882 19.6577 28.3882 19.6781C28.3882 19.6986 28.3705 19.7153 28.3488 19.7153C28.3271 19.7153 28.3094 19.7321 28.3094 19.7525C28.3094 19.773 28.2857 19.7961 28.2568 19.8038C28.2279 19.8115 28.2043 19.8372 28.2043 19.8607C28.2043 19.8843 28.1865 19.9036 28.1649 19.9036C28.1432 19.9036 28.1254 19.9218 28.1254 19.944C28.1254 19.9664 28.1021 19.9843 28.0729 19.9843C28.0379 19.9843 28.0203 20.0022 28.0203 20.0381C28.0203 20.068 28.0028 20.0919 27.9809 20.0919C27.9592 20.0919 27.9415 20.1101 27.9415 20.1322C27.9415 20.1544 27.9238 20.1726 27.9021 20.1726C27.8804 20.1726 27.8627 20.1919 27.8627 20.2155C27.8627 20.239 27.839 20.2647 27.8101 20.2724C27.7812 20.2801 27.7576 20.3032 27.7576 20.3237C27.7576 20.3441 27.7398 20.3609 27.7182 20.3609C27.6965 20.3609 27.6788 20.3776 27.6788 20.3981C27.6788 20.4185 27.6551 20.4416 27.6262 20.4494C27.5973 20.4571 27.5737 20.4827 27.5737 20.5063C27.5737 20.5299 27.5559 20.5492 27.5342 20.5492C27.5126 20.5492 27.4948 20.5673 27.4948 20.5895C27.4948 20.6117 27.4771 20.6299 27.4554 20.6299C27.4337 20.6299 27.416 20.6491 27.416 20.6727C27.416 20.6963 27.3923 20.7219 27.3634 20.7297C27.3262 20.7396 27.3109 20.7663 27.3109 20.8213C27.3109 20.8988 27.311 20.8988 27.4817 20.8988C27.616 20.8988 27.6525 20.8902 27.6525 20.8585C27.6525 20.8335 27.6772 20.8181 27.7174 20.8181C27.7642 20.8181 27.778 20.8293 27.7671 20.8585C27.7537 20.8942 28.131 20.8988 31.0663 20.8988C33.9882 20.8988 34.3825 20.8941 34.3958 20.8585C34.4153 20.8065 34.4841 20.8059 34.4841 20.8577C34.4841 20.8857 34.5113 20.8961 34.5773 20.8936C34.6389 20.8913 34.6662 20.8789 34.6581 20.8571C34.6501 20.8358 34.6635 20.829 34.6963 20.8378C34.7242 20.8452 34.7469 20.862 34.7469 20.8751C34.7469 20.8881 34.7706 20.8988 34.7995 20.8988C34.8286 20.8988 34.852 20.8809 34.852 20.8585C34.852 20.7952 34.9229 20.8113 34.9406 20.8787C34.9619 20.9604 34.9616 24.9523 34.9401 25.2119C34.928 25.3584 34.9129 25.4177 34.8876 25.4177C34.861 25.4177 34.852 25.4656 34.852 25.606C34.852 25.7554 34.8439 25.7943 34.8126 25.7943C34.7828 25.7943 34.7732 25.8271 34.7732 25.9288C34.7732 26.0285 34.7633 26.0632 34.735 26.0632C34.7121 26.0632 34.6898 26.101 34.6795 26.1574C34.6696 26.2113 34.6466 26.2515 34.6257 26.2515C34.6015 26.2515 34.5893 26.2833 34.5893 26.3457C34.5893 26.4101 34.5772 26.4398 34.551 26.4398C34.5282 26.4398 34.5059 26.4776 34.4956 26.534C34.4857 26.5879 34.4627 26.6281 34.4418 26.6281C34.4188 26.6281 34.4053 26.6579 34.4053 26.7088C34.4053 26.7647 34.3924 26.7895 34.3634 26.7895C34.3404 26.7895 34.3154 26.8137 34.3078 26.8433C34.3003 26.8729 34.2777 26.8971 34.2577 26.8971C34.2378 26.8971 34.2214 26.9152 34.2214 26.9374C34.2214 26.9596 34.2037 26.9778 34.182 26.9778C34.1601 26.9778 34.1426 27.0017 34.1426 27.0316C34.1426 27.0674 34.125 27.0854 34.09 27.0854C34.0608 27.0854 34.0375 27.1033 34.0375 27.1257C34.0375 27.1479 34.0197 27.1661 33.9981 27.1661C33.9764 27.1661 33.9586 27.1828 33.9586 27.2033C33.9586 27.2237 33.935 27.2468 33.9061 27.2546C33.8772 27.2623 33.8535 27.2879 33.8535 27.3115C33.8535 27.3412 33.8293 27.3543 33.7747 27.3543C33.7201 27.3543 33.6959 27.3675 33.6959 27.3972C33.6959 27.4208 33.6722 27.4464 33.6433 27.4541C33.6144 27.4619 33.5908 27.485 33.5908 27.5054C33.5908 27.5259 33.573 27.5426 33.5514 27.5426C33.5297 27.5426 33.512 27.5608 33.512 27.583C33.512 27.6112 33.4842 27.6233 33.42 27.6233C33.357 27.6233 33.328 27.6357 33.328 27.6625C33.328 27.6859 33.2911 27.7087 33.2361 27.7192C33.1834 27.7294 33.1441 27.7529 33.1441 27.7743C33.1441 27.799 33.1131 27.8116 33.0521 27.8116C32.9879 27.8116 32.9602 27.8238 32.9602 27.852C32.9602 27.8787 32.934 27.8923 32.8826 27.8923C32.8374 27.8923 32.7948 27.9111 32.7804 27.9374C32.7629 27.9696 32.7095 27.986 32.5952 27.9945C32.492 28.0021 32.4346 28.0182 32.4346 28.0394C32.4346 28.0625 32.3458 28.078 32.1395 28.0908C31.9772 28.101 31.833 28.1209 31.819 28.1353C31.7858 28.1691 23.6413 28.171 23.6208 28.1372C23.6128 28.1239 23.4473 28.1043 23.253 28.0936C22.99 28.0792 22.8963 28.0648 22.8859 28.0371C22.8762 28.0111 22.8241 27.9999 22.7135 27.9999C22.5945 27.9999 22.555 27.9904 22.555 27.9619C22.555 27.9386 22.5145 27.9169 22.4499 27.9058C22.3853 27.8946 22.3448 27.8729 22.3448 27.8496C22.3448 27.8253 22.3163 27.8116 22.266 27.8116C22.2162 27.8116 22.1871 27.7978 22.1871 27.7743C22.1871 27.7529 22.1479 27.7294 22.0952 27.7192C22.0401 27.7087 22.0032 27.6859 22.0032 27.6625C22.0032 27.6368 21.9758 27.6233 21.9236 27.6233C21.877 27.6233 21.8376 27.6066 21.8288 27.583C21.8205 27.5608 21.7972 27.5426 21.7771 27.5426C21.7569 27.5426 21.7405 27.5233 21.7405 27.4998C21.7405 27.4762 21.7168 27.4506 21.6879 27.4428C21.659 27.4351 21.6354 27.412 21.6354 27.3916C21.6354 27.3711 21.6172 27.3543 21.5951 27.3543C21.573 27.3543 21.5481 27.3362 21.5398 27.314C21.5314 27.2918 21.5082 27.2737 21.488 27.2737C21.4679 27.2737 21.4514 27.2555 21.4514 27.2333C21.4514 27.2111 21.4337 27.193 21.412 27.193C21.3901 27.193 21.3726 27.1691 21.3726 27.1392C21.3726 27.1079 21.3551 27.0854 21.3307 27.0854C21.3077 27.0854 21.2827 27.0612 21.2751 27.0316C21.2675 27.002 21.245 26.9778 21.225 26.9778C21.205 26.9778 21.1887 26.9596 21.1887 26.9374C21.1887 26.9152 21.1709 26.8971 21.1493 26.8971C21.1274 26.8971 21.1098 26.8732 21.1098 26.8433C21.1098 26.8137 21.093 26.7895 21.0725 26.7895C21.052 26.7895 21.0274 26.7532 21.0179 26.7088C21.0084 26.6644 20.9838 26.6281 20.9632 26.6281C20.9427 26.6281 20.9259 26.6039 20.9259 26.5743C20.9259 26.5447 20.9087 26.5205 20.8877 26.5205C20.8648 26.5205 20.8425 26.4827 20.8322 26.4264C20.8223 26.3724 20.7994 26.3322 20.7785 26.3322C20.7543 26.3322 20.742 26.3005 20.742 26.2381C20.742 26.1723 20.7301 26.1439 20.7026 26.1439C20.6764 26.1439 20.6632 26.1172 20.6632 26.0646C20.6632 26.0183 20.6448 25.9747 20.6191 25.96C20.5877 25.942 20.5716 25.8874 20.5634 25.7704C20.5557 25.6621 20.5404 25.606 20.5185 25.606C20.4947 25.606 20.4823 25.529 20.4746 25.3321C20.4675 25.1507 20.4532 25.0547 20.4321 25.0475C20.3858 25.0317 20.3858 14.0224 20.4321 14.0066C20.4532 13.9994 20.4675 13.9034 20.4746 13.722C20.4828 13.512 20.4938 13.4481 20.5217 13.4481C20.5489 13.4481 20.5581 13.4044 20.5581 13.2746C20.5581 13.1433 20.5683 13.0952 20.6002 13.0769C20.6256 13.0624 20.6479 13.0029 20.6562 12.9277C20.6652 12.8465 20.6827 12.8026 20.706 12.8026C20.7296 12.8026 20.742 12.7702 20.742 12.7084C20.742 12.645 20.7542 12.6143 20.7793 12.6143C20.7998 12.6143 20.8244 12.578 20.8339 12.5336C20.8435 12.4892 20.8681 12.4529 20.8886 12.4529C20.9091 12.4529 20.9259 12.4287 20.9259 12.3991C20.9259 12.3695 20.9423 12.3453 20.9624 12.3453C20.9833 12.3453 21.0063 12.3051 21.0161 12.2511C21.0265 12.1948 21.0487 12.157 21.0716 12.157C21.0926 12.157 21.1098 12.1388 21.1098 12.1167C21.1098 12.0945 21.1276 12.0763 21.1493 12.0763C21.1711 12.0763 21.1887 12.0524 21.1887 12.0225C21.1887 11.9926 21.2062 11.9687 21.2281 11.9687C21.2498 11.9687 21.2675 11.9506 21.2675 11.9284C21.2675 11.906 21.2909 11.888 21.32 11.888C21.3551 11.888 21.3726 11.8701 21.3726 11.8342C21.3726 11.8043 21.3901 11.7804 21.412 11.7804C21.4337 11.7804 21.4514 11.7623 21.4514 11.7401C21.4514 11.7177 21.4748 11.6997 21.504 11.6997C21.5332 11.6997 21.5565 11.6818 21.5565 11.6594C21.5565 11.6372 21.5743 11.619 21.5959 11.619C21.6178 11.619 21.6354 11.5951 21.6354 11.5652C21.6354 11.5294 21.6529 11.5114 21.6879 11.5114C21.7171 11.5114 21.7405 11.4935 21.7405 11.4711C21.7405 11.4446 21.7664 11.4308 21.8162 11.4308C21.8699 11.4308 21.896 11.4151 21.9057 11.377C21.9133 11.3474 21.9383 11.3232 21.9613 11.3232C21.9844 11.3232 22.0032 11.305 22.0032 11.2828C22.0032 11.2546 22.031 11.2425 22.0952 11.2425C22.1571 11.2425 22.1871 11.23 22.1871 11.2042C22.1871 11.1832 22.2216 11.1583 22.2638 11.1488C22.3059 11.1393 22.3469 11.1142 22.3549 11.0929C22.3631 11.071 22.404 11.0542 22.4491 11.0542C22.5024 11.0542 22.5287 11.0408 22.5287 11.0138C22.5287 10.9858 22.5563 10.9735 22.6194 10.9735C22.6769 10.9735 22.7191 10.957 22.7347 10.9284C22.7523 10.8962 22.8056 10.8798 22.9199 10.8713C23.0257 10.8635 23.0805 10.8478 23.0805 10.8254C23.0805 10.8027 23.1374 10.7878 23.2531 10.7802C23.3658 10.7729 23.4339 10.7555 23.4492 10.73C23.4696 10.6962 24.3474 10.6901 30.0951 10.6838C35.9233 10.6775 36.7176 10.6718 36.7176 10.6368C36.7176 10.6122 36.7428 10.5969 36.7833 10.5969C36.8242 10.5969 36.849 10.5817 36.849 10.5566C36.849 10.5344 36.8667 10.5162 36.8884 10.5162C36.9103 10.5162 36.9278 10.4923 36.9278 10.4624C36.9278 10.4325 36.9453 10.4086 36.9672 10.4086C36.9889 10.4086 37.0066 10.3905 37.0066 10.3683C37.0066 10.3459 37.03 10.3279 37.0592 10.3279C37.0942 10.3279 37.1117 10.31 37.1117 10.2741C37.1117 10.2443 37.1292 10.2203 37.1511 10.2203C37.1728 10.2203 37.1905 10.2022 37.1905 10.18C37.1905 10.1578 37.2083 10.1397 37.23 10.1397C37.2516 10.1397 37.2694 10.1204 37.2694 10.0968C37.2694 10.0732 37.293 10.0476 37.3219 10.0399C37.3508 10.0321 37.3745 10.009 37.3745 9.98857C37.3745 9.96812 37.3922 9.95137 37.4139 9.95137C37.4356 9.95137 37.4533 9.93461 37.4533 9.91417C37.4533 9.8937 37.4769 9.87062 37.5059 9.86287C37.5348 9.85515 37.5584 9.82952 37.5584 9.80596C37.5584 9.78237 37.5761 9.76308 37.5978 9.76308C37.6195 9.76308 37.6372 9.74632 37.6372 9.72588C37.6372 9.70541 37.6609 9.68233 37.6898 9.67459C37.7187 9.66687 37.7423 9.64123 37.7423 9.61767C37.7423 9.59408 37.7601 9.57479 37.7817 9.57479C37.8034 9.57479 37.8212 9.55664 37.8212 9.53445C37.8212 9.51204 37.8445 9.4941 37.8737 9.4941C37.9029 9.4941 37.9263 9.47616 37.9263 9.45375C37.9263 9.43156 37.944 9.41341 37.9657 9.41341C37.9876 9.41341 38.0051 9.38949 38.0051 9.35961C38.0051 9.32973 38.0226 9.30581 38.0445 9.30581C38.0662 9.30581 38.0839 9.28766 38.0839 9.26547C38.0839 9.24306 38.1073 9.22512 38.1365 9.22512C38.1715 9.22512 38.189 9.20718 38.189 9.17133C38.189 9.14144 38.2065 9.11753 38.2284 9.11753C38.2501 9.11753 38.2678 9.10077 38.2678 9.08033C38.2678 9.05986 38.2915 9.03678 38.3204 9.02903C38.3493 9.02131 38.3729 8.99568 38.3729 8.97212C38.3729 8.94853 38.3907 8.92924 38.4124 8.92924C38.434 8.92924 38.4518 8.91109 38.4518 8.8889C38.4518 8.86671 38.4695 8.84855 38.4912 8.84855C38.5129 8.84855 38.5306 8.82926 38.5306 8.80567C38.5306 8.78211 38.5542 8.75648 38.5832 8.74876C38.6121 8.74101 38.6357 8.71793 38.6357 8.69746C38.6357 8.67702 38.6534 8.66026 38.6751 8.66026C38.6968 8.66026 38.7145 8.64211 38.7145 8.61992C38.7145 8.59751 38.7379 8.57957 38.7671 8.57957C38.8021 8.57957 38.8196 8.56163 38.8196 8.52577C38.8196 8.49589 38.8372 8.47198 38.859 8.47198C38.8807 8.47198 38.8985 8.45522 38.8985 8.43478C38.8985 8.41431 38.9221 8.39123 38.951 8.38348C38.9799 8.37576 39.0036 8.35013 39.0036 8.32657C39.0036 8.30298 39.0213 8.28369 39.043 8.28369C39.0647 8.28369 39.0824 8.26554 39.0824 8.24335C39.0824 8.22115 39.1001 8.203 39.1218 8.203C39.1435 8.203 39.1612 8.18371 39.1612 8.16012C39.1612 8.13656 39.1849 8.11093 39.2138 8.10321C39.2427 8.09546 39.2663 8.07238 39.2663 8.05191C39.2663 8.03147 39.2841 8.01471 39.3057 8.01471C39.3274 8.01471 39.3451 7.99796 39.3451 7.97751C39.3451 7.95704 39.3688 7.93396 39.3977 7.92622C39.4266 7.9185 39.4502 7.89286 39.4502 7.8693C39.4502 7.84571 39.468 7.82643 39.4897 7.82643C39.5159 7.82643 39.5291 7.79953 39.5291 7.74573V7.66504L31.1274 7.66606C23.7903 7.66695 22.7215 7.67206 22.6919 7.70641ZM39.8181 10.3683C39.8181 10.3907 39.7948 10.4086 39.7656 10.4086C39.7359 10.4086 39.713 10.4266 39.713 10.4498C39.713 10.4725 39.6953 10.498 39.6736 10.5065C39.6519 10.515 39.6342 10.5388 39.6342 10.5594C39.6342 10.5801 39.6105 10.5969 39.5816 10.5969C39.5527 10.5969 39.5291 10.6137 39.5291 10.6341C39.5291 10.6546 39.5054 10.6777 39.4765 10.6854C39.4476 10.6931 39.424 10.7188 39.424 10.7423C39.424 10.7659 39.4062 10.7852 39.3846 10.7852C39.3629 10.7852 39.3451 10.8034 39.3451 10.8256C39.3451 10.8477 39.3274 10.8659 39.3057 10.8659C39.2841 10.8659 39.2663 10.8827 39.2663 10.9031C39.2663 10.9236 39.2427 10.9466 39.2138 10.9544C39.1849 10.9621 39.1612 10.9877 39.1612 11.0113C39.1612 11.0349 39.1435 11.0542 39.1218 11.0542C39.1001 11.0542 39.0824 11.0709 39.0824 11.0914C39.0824 11.1119 39.0587 11.1349 39.0298 11.1427C39.0009 11.1504 38.9773 11.176 38.9773 11.1996C38.9773 11.2232 38.9596 11.2425 38.9379 11.2425C38.9162 11.2425 38.8985 11.2606 38.8985 11.2828C38.8985 11.305 38.8821 11.3232 38.8621 11.3232C38.8421 11.3232 38.8196 11.3474 38.812 11.377C38.8045 11.4065 38.7794 11.4308 38.7564 11.4308C38.7334 11.4308 38.7145 11.4489 38.7145 11.4711C38.7145 11.4933 38.6968 11.5114 38.6751 11.5114C38.6534 11.5114 38.6357 11.5282 38.6357 11.5486C38.6357 11.5691 38.6121 11.5922 38.5832 11.5999C38.5542 11.6077 38.5306 11.6333 38.5306 11.6569C38.5306 11.6804 38.5129 11.6997 38.4912 11.6997C38.4695 11.6997 38.4518 11.7165 38.4518 11.7369C38.4518 11.7574 38.4281 11.7805 38.3992 11.7882C38.3703 11.7959 38.3467 11.8216 38.3467 11.8451C38.3467 11.8687 38.3289 11.888 38.3073 11.888C38.2856 11.888 38.2678 11.9062 38.2678 11.9284C38.2678 11.9506 38.2501 11.9687 38.2284 11.9687C38.2068 11.9687 38.189 11.988 38.189 12.0116C38.189 12.0352 38.1654 12.0608 38.1365 12.0685C38.1076 12.0763 38.0839 12.0993 38.0839 12.1198C38.0839 12.1402 38.0662 12.157 38.0445 12.157C38.0228 12.157 38.0051 12.1738 38.0051 12.1942C38.0051 12.2147 37.9814 12.2377 37.9525 12.2455C37.9236 12.2532 37.9 12.2788 37.9 12.3024C37.9 12.326 37.8822 12.3453 37.8606 12.3453C37.8389 12.3453 37.8212 12.362 37.8212 12.3825C37.8212 12.403 37.7975 12.426 37.7686 12.4338C37.7397 12.4415 37.7161 12.4671 37.7161 12.4907C37.7161 12.5143 37.6983 12.5336 37.6766 12.5336C37.655 12.5336 37.6372 12.5517 37.6372 12.5739C37.6372 12.5961 37.6195 12.6143 37.5978 12.6143C37.5761 12.6143 37.5584 12.631 37.5584 12.6515C37.5584 12.6719 37.5348 12.695 37.5059 12.7028C37.4769 12.7105 37.4533 12.7361 37.4533 12.7597C37.4533 12.7833 37.4356 12.8026 37.4139 12.8026C37.3922 12.8026 37.3745 12.8193 37.3745 12.8398C37.3745 12.8602 37.3508 12.8833 37.3219 12.891C37.293 12.8988 37.2694 12.9244 37.2694 12.948C37.2694 12.9716 37.2516 12.9908 37.23 12.9908C37.2083 12.9908 37.1905 13.009 37.1905 13.0312C37.1905 13.0534 37.1742 13.0715 37.1542 13.0715C37.1342 13.0715 37.1117 13.0957 37.1041 13.1253C37.0966 13.1549 37.0708 13.1791 37.0468 13.1791C37.0135 13.1791 37.0052 13.1997 37.0115 13.2665L37.0198 13.354L39.3517 13.3608C41.4003 13.3669 41.6837 13.3726 41.6837 13.4079C41.6837 13.4359 41.7116 13.4481 41.7756 13.4481C41.8399 13.4481 41.8676 13.4603 41.8676 13.4884C41.8676 13.5106 41.8853 13.5288 41.907 13.5288C41.9289 13.5288 41.9464 13.5527 41.9464 13.5826C41.9464 13.6184 41.964 13.6364 41.999 13.6364C42.0445 13.6364 42.0515 13.6543 42.0515 13.7709C42.0515 13.8725 42.0612 13.9054 42.091 13.9054C42.1257 13.9054 42.1304 14.1848 42.1304 16.2589C42.1304 18.1241 42.1372 18.6124 42.1632 18.6121C42.2397 18.6113 42.3143 18.5767 42.3143 18.5421C42.3143 18.5217 42.332 18.5049 42.3537 18.5049C42.3754 18.5049 42.3931 18.4868 42.3931 18.4646C42.3931 18.4422 42.4165 18.4242 42.4457 18.4242C42.4807 18.4242 42.4982 18.4063 42.4982 18.3704C42.4982 18.3405 42.5158 18.3166 42.5376 18.3166C42.5593 18.3166 42.5771 18.2985 42.5771 18.2763C42.5771 18.2539 42.6004 18.2359 42.6296 18.2359C42.6646 18.2359 42.6822 18.218 42.6822 18.1821C42.6822 18.1523 42.6997 18.1283 42.7216 18.1283C42.7432 18.1283 42.761 18.1102 42.761 18.088C42.761 18.0658 42.7787 18.0477 42.8004 18.0477C42.8221 18.0477 42.8398 18.0295 42.8398 18.0073C42.8398 17.9849 42.8632 17.967 42.8924 17.967C42.9274 17.967 42.9449 17.949 42.9449 17.9132C42.9449 17.8833 42.9624 17.8594 42.9843 17.8594C43.006 17.8594 43.0237 17.8412 43.0237 17.819C43.0237 17.7966 43.0471 17.7787 43.0763 17.7787C43.1113 17.7787 43.1288 17.7607 43.1288 17.7249C43.1288 17.695 43.1464 17.6711 43.1683 17.6711C43.1899 17.6711 43.2077 17.6543 43.2077 17.6339C43.2077 17.6134 43.2325 17.59 43.2629 17.5819C43.2955 17.5731 43.3105 17.5546 43.2996 17.5366C43.2888 17.5186 43.3038 17.5 43.3364 17.4913C43.3668 17.4832 43.3916 17.4598 43.3916 17.4393C43.3916 17.4189 43.4093 17.4021 43.431 17.4021C43.4527 17.4021 43.4704 17.3839 43.4704 17.3618C43.4704 17.3393 43.4938 17.3214 43.523 17.3214C43.558 17.3214 43.5755 17.3035 43.5755 17.2676C43.5755 17.2377 43.5931 17.2138 43.6149 17.2138C43.6366 17.2138 43.6544 17.1957 43.6544 17.1735C43.6544 17.1511 43.6777 17.1331 43.7069 17.1331C43.7419 17.1331 43.7595 17.1152 43.7595 17.0793C43.7595 17.0494 43.777 17.0255 43.7989 17.0255C43.8205 17.0255 43.8383 17.0088 43.8383 16.9883C43.8383 16.9679 43.8619 16.9448 43.8908 16.937C43.9197 16.9293 43.9434 16.9037 43.9434 16.8801C43.9434 16.8565 43.9611 16.8372 43.9828 16.8372C44.0045 16.8372 44.0222 16.8191 44.0222 16.7969C44.0222 16.7747 44.0399 16.7566 44.0616 16.7566C44.0833 16.7566 44.101 16.7384 44.101 16.7162C44.101 16.6938 44.1244 16.6759 44.1536 16.6759C44.1886 16.6759 44.2061 16.6579 44.2061 16.6221C44.2061 16.5922 44.2237 16.5683 44.2456 16.5683C44.2672 16.5683 44.285 16.5501 44.285 16.5279C44.285 16.5055 44.3083 16.4876 44.3375 16.4876C44.3725 16.4876 44.3901 16.4696 44.3901 16.4338C44.3901 16.4039 44.4076 16.38 44.4295 16.38C44.4512 16.38 44.4689 16.3618 44.4689 16.3396C44.4689 16.3174 44.4866 16.2993 44.5083 16.2993C44.53 16.2993 44.5477 16.2811 44.5477 16.2589C44.5477 16.2365 44.5711 16.2186 44.6003 16.2186C44.6353 16.2186 44.6528 16.2007 44.6528 16.1648C44.6528 16.1349 44.6704 16.111 44.6922 16.111C44.7139 16.111 44.7317 16.0928 44.7317 16.0707C44.7317 16.0482 44.755 16.0303 44.7842 16.0303C44.8192 16.0303 44.8368 16.0124 44.8368 15.9765C44.8368 15.9466 44.8543 15.9227 44.8762 15.9227C44.8978 15.9227 44.9156 15.9046 44.9156 15.8824C44.9156 15.8602 44.9321 15.842 44.9522 15.842C44.9924 15.842 45.0207 15.7855 45.0207 15.7053C45.0207 15.6769 45.0384 15.6537 45.0601 15.6537C45.0948 15.6537 45.0995 15.4101 45.0995 13.6229C45.0995 11.8357 45.0948 11.5921 45.0601 11.5921C45.0313 11.5921 45.0206 11.5613 45.0203 11.4778C45.0198 11.3246 44.996 11.2425 44.9519 11.2425C44.9279 11.2425 44.9156 11.2105 44.9156 11.1483C44.9156 11.0826 44.9037 11.0542 44.8762 11.0542C44.8543 11.0542 44.8368 11.0303 44.8368 11.0004C44.8368 10.9708 44.82 10.9466 44.7994 10.9466C44.7789 10.9466 44.7543 10.9103 44.7448 10.8659C44.7353 10.8215 44.7107 10.7852 44.6902 10.7852C44.6696 10.7852 44.6528 10.767 44.6528 10.7449C44.6528 10.7227 44.634 10.7045 44.6109 10.7045C44.5879 10.7045 44.5629 10.6803 44.5553 10.6507C44.5456 10.6126 44.5195 10.5969 44.4658 10.5969C44.4187 10.5969 44.3901 10.5828 44.3901 10.5596C44.3901 10.5382 44.3508 10.5147 44.2981 10.5045C44.2431 10.494 44.2061 10.4712 44.2061 10.4478C44.2061 10.4183 44.1706 10.4086 44.0616 10.4086C43.9507 10.4086 43.9171 10.3993 43.9171 10.3683C43.9171 10.3328 43.6719 10.3279 41.8676 10.3279C40.0633 10.3279 39.8181 10.3328 39.8181 10.3683ZM24.6045 12.8398C24.6045 12.8657 24.5528 12.8827 24.4337 12.8957C24.3122 12.909 24.2629 12.9254 24.2629 12.9526C24.2629 12.9784 24.2329 12.9908 24.171 12.9908C24.11 12.9908 24.079 13.0034 24.079 13.0282C24.079 13.0496 24.0397 13.0731 23.987 13.0832C23.932 13.0938 23.8951 13.1166 23.8951 13.14C23.8951 13.1668 23.8661 13.1791 23.8031 13.1791C23.7389 13.1791 23.7111 13.1913 23.7111 13.2195C23.7111 13.2417 23.693 13.2598 23.6709 13.2598C23.6488 13.2598 23.6241 13.2772 23.6161 13.2985C23.6082 13.3198 23.5672 13.345 23.525 13.3544C23.4828 13.3639 23.4484 13.3889 23.4484 13.4099C23.4484 13.4309 23.4295 13.4481 23.4065 13.4481C23.3835 13.4481 23.3584 13.4723 23.3509 13.5019C23.3433 13.5315 23.3208 13.5557 23.3008 13.5557C23.2808 13.5557 23.2644 13.5738 23.2644 13.596C23.2644 13.6182 23.2481 13.6364 23.2281 13.6364C23.2081 13.6364 23.1856 13.6606 23.178 13.6902C23.1705 13.7198 23.1454 13.744 23.1224 13.744C23.0934 13.744 23.0805 13.7688 23.0805 13.8247C23.0805 13.8806 23.0676 13.9054 23.0386 13.9054C23.0156 13.9054 22.9906 13.9296 22.983 13.9592C22.9755 13.9888 22.9537 14.013 22.9347 14.013C22.9156 14.013 22.8963 14.0462 22.8917 14.0869C22.8871 14.1285 22.8691 14.158 22.8506 14.1542C22.8313 14.1502 22.8178 14.1752 22.8178 14.2147C22.8178 14.254 22.8027 14.2819 22.7814 14.2819C22.7416 14.2819 22.7136 14.3618 22.713 14.4769C22.7128 14.5215 22.6983 14.5509 22.6767 14.5509C22.6534 14.5509 22.6358 14.5947 22.627 14.6753C22.6194 14.7437 22.5976 14.8095 22.5786 14.8216C22.5548 14.8367 22.5405 14.9288 22.5332 15.1142C22.5251 15.3214 22.5141 15.3848 22.4863 15.3848C22.4555 15.3848 22.4499 16.0037 22.4499 19.4329C22.4499 23.0133 22.4544 23.481 22.4893 23.481C22.5195 23.481 22.5287 23.515 22.5287 23.6252C22.5287 23.8545 22.5577 24.019 22.598 24.019C22.6223 24.019 22.6338 24.0536 22.6338 24.1266C22.6338 24.2043 22.6448 24.2342 22.6732 24.2342C22.6996 24.2342 22.7127 24.2612 22.7127 24.3157C22.7127 24.3618 22.7291 24.4037 22.7505 24.4121C22.7713 24.4203 22.7958 24.4623 22.8051 24.5054C22.8144 24.5486 22.8387 24.5839 22.8592 24.5839C22.8798 24.5839 22.8966 24.6071 22.8966 24.6354C22.8966 24.7156 22.9249 24.7721 22.9651 24.7721C22.9852 24.7721 23.0017 24.7976 23.0017 24.8288C23.0017 24.8681 23.0137 24.8808 23.0411 24.87C23.0679 24.8595 23.0805 24.8715 23.0805 24.9075C23.0805 24.9366 23.0973 24.9604 23.1179 24.9604C23.1384 24.9604 23.163 24.9967 23.1725 25.0411C23.182 25.0855 23.2066 25.1218 23.2271 25.1218C23.2477 25.1218 23.2644 25.1413 23.2644 25.165C23.2644 25.1923 23.2789 25.2026 23.3035 25.1929C23.325 25.1845 23.3409 25.1862 23.3388 25.1968C23.3305 25.2379 23.377 25.3101 23.4118 25.3101C23.4319 25.3101 23.4484 25.3343 23.4484 25.3639C23.4484 25.4074 23.4659 25.4177 23.5403 25.4177C23.6046 25.4177 23.6323 25.4299 23.6323 25.458C23.6323 25.4802 23.65 25.4984 23.6717 25.4984C23.6934 25.4984 23.7111 25.516 23.7111 25.5375C23.7111 25.5609 23.748 25.5837 23.8031 25.5943C23.8558 25.6044 23.8951 25.6279 23.8951 25.6493C23.8951 25.6727 23.924 25.6867 23.9726 25.6867C24.0164 25.6867 24.0604 25.7054 24.0737 25.7299C24.0879 25.7559 24.146 25.7787 24.2195 25.7872C24.292 25.7955 24.3417 25.8149 24.3417 25.8347C24.3417 25.8575 24.4098 25.8721 24.5572 25.8808C24.6863 25.8885 24.7766 25.906 24.7827 25.9246C24.7979 25.9713 30.718 25.9691 30.7332 25.9224C30.7402 25.9009 30.8192 25.8857 30.9587 25.8792C31.11 25.8722 31.1734 25.8591 31.1734 25.835C31.1734 25.8123 31.2275 25.7967 31.334 25.7888C31.4483 25.7804 31.5016 25.764 31.5192 25.7318C31.5336 25.7055 31.5762 25.6867 31.6214 25.6867C31.6728 25.6867 31.6989 25.6731 31.6989 25.6463C31.6989 25.6239 31.7223 25.606 31.7515 25.606C31.7804 25.606 31.804 25.5884 31.804 25.5668C31.804 25.5434 31.841 25.5206 31.896 25.5101C31.9487 25.5 31.988 25.4764 31.988 25.4551C31.988 25.4315 32.017 25.4177 32.0668 25.4177C32.1214 25.4177 32.1456 25.4045 32.1456 25.3748C32.1456 25.3513 32.1693 25.3256 32.1982 25.3179C32.2271 25.3102 32.2507 25.2871 32.2507 25.2666C32.2507 25.2462 32.2685 25.2294 32.2901 25.2294C32.3118 25.2294 32.3295 25.2139 32.3295 25.195C32.3295 25.1761 32.3532 25.1399 32.3821 25.1146C32.411 25.0893 32.4346 25.0442 32.4346 25.0145C32.4346 24.9844 32.4521 24.9604 32.4741 24.9604C32.4957 24.9604 32.5135 24.9367 32.5135 24.9077C32.5135 24.8787 32.5361 24.8333 32.5637 24.8068C32.5914 24.7803 32.618 24.7224 32.6229 24.678C32.628 24.6313 32.6455 24.6001 32.6646 24.604C32.6864 24.6085 32.6974 24.5749 32.6974 24.5032C32.6974 24.4281 32.7087 24.3956 32.7347 24.3956C32.7614 24.3956 32.7774 24.344 32.7909 24.2151C32.8013 24.1158 32.8259 24.0181 32.8456 23.998C32.8723 23.9706 32.8813 23.8669 32.8813 23.5867C32.8813 23.2716 32.8751 23.2121 32.8419 23.2121C32.8144 23.2121 32.8025 23.1837 32.8025 23.1179V23.0238H29.4655C26.6561 23.0238 26.1285 23.0179 26.1285 22.9869C26.1285 22.9629 26.0822 22.9437 25.9962 22.9321C25.9158 22.9211 25.8704 22.9032 25.8806 22.8864C25.8898 22.8712 25.8725 22.8521 25.8421 22.844C25.8117 22.8359 25.7869 22.8125 25.7869 22.792C25.7869 22.7716 25.7633 22.7548 25.7344 22.7548C25.6993 22.7548 25.6818 22.7369 25.6818 22.701C25.6818 22.6711 25.6643 22.6472 25.6424 22.6472C25.6207 22.6472 25.603 22.6291 25.603 22.6069C25.603 22.5847 25.5858 22.5665 25.5647 22.5665C25.5419 22.5665 25.5196 22.5287 25.5093 22.4724C25.4994 22.4184 25.4764 22.3782 25.4555 22.3782C25.4281 22.3782 25.419 22.3347 25.419 22.2034C25.419 22.0659 25.4106 22.0286 25.3796 22.0286C25.3449 22.0286 25.3402 21.7504 25.3402 19.6867C25.3402 18.1238 25.3493 17.3275 25.3674 17.2927C25.3862 17.2569 25.3862 17.2407 25.3674 17.2407C25.3513 17.2407 25.3402 17.1643 25.3402 17.0524C25.3402 16.903 25.3484 16.8641 25.3796 16.8641C25.4109 16.8641 25.419 16.8253 25.419 16.6759C25.419 16.5264 25.4272 16.4876 25.4585 16.4876C25.4857 16.4876 25.4979 16.4595 25.4979 16.3966C25.4979 16.3282 25.5109 16.3021 25.5504 16.2915C25.5854 16.2821 25.603 16.2548 25.603 16.2098C25.603 16.1565 25.6197 16.1384 25.6818 16.1244C25.7252 16.1147 25.7606 16.0895 25.7606 16.0685C25.7606 16.0475 25.7843 16.0303 25.8132 16.0303C25.8421 16.0303 25.8657 16.0135 25.8657 15.9929C25.8657 15.9716 25.905 15.9481 25.9577 15.9379C26.0127 15.9274 26.0497 15.9046 26.0497 15.8812C26.0497 15.8498 26.0967 15.842 26.2861 15.842C26.4613 15.842 26.5209 15.8333 26.5161 15.8084C26.5109 15.7817 27.0382 15.7736 29.0714 15.7692C30.4804 15.7662 31.6717 15.7565 31.7186 15.7478C31.7687 15.7385 31.804 15.7158 31.804 15.6929C31.804 15.6714 31.8218 15.6537 31.8434 15.6537C31.8651 15.6537 31.8829 15.6356 31.8829 15.6134C31.8829 15.591 31.9062 15.573 31.9354 15.573C31.9704 15.573 31.988 15.5551 31.988 15.5192C31.988 15.4894 32.0055 15.4654 32.0274 15.4654C32.0491 15.4654 32.0668 15.4473 32.0668 15.4251C32.0668 15.4029 32.0845 15.3848 32.1062 15.3848C32.1279 15.3848 32.1456 15.3655 32.1456 15.3419C32.1456 15.3183 32.1693 15.2927 32.1982 15.285C32.2271 15.2772 32.2507 15.2541 32.2507 15.2337C32.2507 15.2132 32.2685 15.1965 32.2901 15.1965C32.3118 15.1965 32.3295 15.1783 32.3295 15.1561C32.3295 15.1337 32.3529 15.1158 32.3821 15.1158C32.4171 15.1158 32.4346 15.0978 32.4346 15.062C32.4346 15.0321 32.4522 15.0082 32.4741 15.0082C32.4957 15.0082 32.5135 14.99 32.5135 14.9678C32.5135 14.9454 32.5368 14.9275 32.566 14.9275C32.6011 14.9275 32.6186 14.9095 32.6186 14.8737C32.6186 14.8438 32.6361 14.8199 32.658 14.8199C32.6797 14.8199 32.6974 14.8017 32.6974 14.7796C32.6974 14.7574 32.7151 14.7392 32.7368 14.7392C32.7585 14.7392 32.7762 14.7199 32.7762 14.6963C32.7762 14.6728 32.7999 14.6471 32.8288 14.6394C32.8577 14.6317 32.8813 14.6086 32.8813 14.5881C32.8813 14.5677 32.8991 14.5509 32.9207 14.5509C32.9424 14.5509 32.9602 14.5342 32.9602 14.5137C32.9602 14.4932 32.9838 14.4702 33.0127 14.4624C33.0416 14.4547 33.0653 14.4291 33.0653 14.4055C33.0653 14.3819 33.083 14.3626 33.1047 14.3626C33.1264 14.3626 33.1441 14.3445 33.1441 14.3223C33.1441 14.2999 33.1674 14.2819 33.1966 14.2819C33.2314 14.2819 33.2492 14.264 33.2492 14.229C33.2492 14.193 33.2618 14.181 33.2886 14.1915C33.316 14.2023 33.328 14.1897 33.328 14.1503C33.328 14.1116 33.3447 14.0937 33.3806 14.0937C33.4098 14.0937 33.4331 14.0757 33.4331 14.0533C33.4331 14.0311 33.4509 14.013 33.4725 14.013C33.4944 14.013 33.512 13.989 33.512 13.9592C33.512 13.9293 33.5295 13.9054 33.5514 13.9054C33.573 13.9054 33.5908 13.8886 33.5908 13.8682C33.5908 13.8477 33.6144 13.8246 33.6433 13.8169C33.6722 13.8092 33.6959 13.7835 33.6959 13.76C33.6959 13.7364 33.7136 13.7171 33.7353 13.7171C33.757 13.7171 33.7747 13.6989 33.7747 13.6767C33.7747 13.6545 33.7924 13.6364 33.8141 13.6364C33.8358 13.6364 33.8535 13.6171 33.8535 13.5935C33.8535 13.5699 33.8772 13.5443 33.9061 13.5366C33.935 13.5288 33.9586 13.5058 33.9586 13.4853C33.9586 13.4649 33.9764 13.4481 33.9981 13.4481C34.0197 13.4481 34.0375 13.4299 34.0375 13.4078C34.0375 13.3853 34.0608 13.3674 34.09 13.3674C34.125 13.3674 34.1426 13.3495 34.1426 13.3136C34.1426 13.2837 34.1601 13.2598 34.182 13.2598C34.2037 13.2598 34.2214 13.2417 34.2214 13.2195C34.2214 13.1971 34.2448 13.1791 34.2739 13.1791C34.309 13.1791 34.3265 13.1612 34.3265 13.1253C34.3265 13.0954 34.344 13.0715 34.3659 13.0715C34.3876 13.0715 34.4053 13.0534 34.4053 13.0312C34.4053 13.009 34.4217 12.9908 34.4417 12.9908C34.4755 12.9908 34.5092 12.9144 34.5101 12.8362C34.5103 12.8094 33.5025 12.8026 29.5575 12.8026C25.3577 12.8026 24.6045 12.8082 24.6045 12.8398Z" fill="#FEC267"/>
</g>
<path d="M21.2288 49.4057H16.183L15.2369 52.3911H12.1674L17.2553 37.9055H20.1986L25.2444 52.3911H22.1118L21.2288 49.4057ZM16.9609 46.9879H20.4509L19.8833 45.1378L18.748 41.3114H18.6639L17.5496 45.0747L16.9609 46.9879ZM35.6029 48.7539C35.6029 49.8892 35.2945 50.8073 34.6778 51.5081C34.0611 52.1949 33.1501 52.5383 31.9447 52.5383C31.5803 52.5383 31.1458 52.5032 30.6412 52.4332C30.1506 52.3631 29.6531 52.1949 29.1485 51.9286V56.5539H26.4784V42.0052H28.9383L29.1485 42.9513C29.7372 42.5869 30.2908 42.3206 30.8094 42.1524C31.328 41.9842 31.7695 41.9001 32.1339 41.9001C33.2552 41.9001 34.1102 42.2084 34.6989 42.8251C35.3015 43.4419 35.6029 44.402 35.6029 45.7054V48.7539ZM32.8908 45.9367C32.8908 45.334 32.7646 44.9276 32.5123 44.7173C32.2601 44.4931 31.9517 44.3809 31.5873 44.3809C31.4191 44.3809 31.2299 44.409 31.0196 44.465C30.8234 44.5071 30.6132 44.5701 30.3889 44.6542C30.1647 44.7383 29.9474 44.8365 29.7372 44.9486C29.5269 45.0467 29.3307 45.1588 29.1485 45.285V49.4267C29.625 49.651 30.0385 49.8051 30.3889 49.8892C30.7393 49.9593 31.0757 49.9944 31.3981 49.9944C31.8045 50.0084 32.1549 49.8963 32.4493 49.658C32.7436 49.4197 32.8908 49.0062 32.8908 48.4176V45.9367ZM46.6488 48.7539C46.6488 49.8892 46.3404 50.8073 45.7237 51.5081C45.107 52.1949 44.1959 52.5383 42.9906 52.5383C42.6261 52.5383 42.1917 52.5032 41.6871 52.4332C41.1965 52.3631 40.6989 52.1949 40.1944 51.9286V56.5539H37.5243V42.0052H39.9841L40.1944 42.9513C40.783 42.5869 41.3367 42.3206 41.8553 42.1524C42.3739 41.9842 42.8154 41.9001 43.1798 41.9001C44.3011 41.9001 45.156 42.2084 45.7447 42.8251C46.3474 43.4419 46.6488 44.402 46.6488 45.7054V48.7539ZM43.9367 45.9367C43.9367 45.334 43.8105 44.9276 43.5582 44.7173C43.3059 44.4931 42.9976 44.3809 42.6332 44.3809C42.465 44.3809 42.2757 44.409 42.0655 44.465C41.8693 44.5071 41.659 44.5701 41.4348 44.6542C41.2105 44.7383 40.9933 44.8365 40.783 44.9486C40.5728 45.0467 40.3766 45.1588 40.1944 45.285V49.4267C40.6709 49.651 41.0844 49.8051 41.4348 49.8892C41.7852 49.9593 42.1216 49.9944 42.4439 49.9944C42.8504 50.0084 43.2008 49.8963 43.4951 49.658C43.7895 49.4197 43.9367 49.0062 43.9367 48.4176V45.9367Z" fill="#D8D8D8"/>
<defs>
<filter id="filter0_d_249_5044" x="12.9642" y="7.66504" width="36.6765" height="32.5375" filterUnits="userSpaceOnUse" color-interpolation-filters="sRGB">
<feFlood flood-opacity="0" result="BackgroundImageFix"/>
<feColorMatrix in="SourceAlpha" type="matrix" values="0 0 0 0 0 0 0 0 0 0 0 0 0 0 0 0 0 0 127 0" result="hardAlpha"/>
<feOffset dy="4.54121"/>
<feGaussianBlur stdDeviation="2.2706"/>
<feComposite in2="hardAlpha" operator="out"/>
<feColorMatrix type="matrix" values="0 0 0 0 0 0 0 0 0 0 0 0 0 0 0 0 0 0 0.25 0"/>
<feBlend mode="normal" in2="BackgroundImageFix" result="effect1_dropShadow_249_5044"/>
<feBlend mode="normal" in="SourceGraphic" in2="effect1_dropShadow_249_5044" result="shape"/>
</filter>
<linearGradient id="paint0_linear_249_5044" x1="58.1301" y1="0.766506" x2="0.642329" y2="61.3203" gradientUnits="userSpaceOnUse">
<stop stop-color="#343434"/>
<stop offset="1"/>
</linearGradient>
</defs>
</svg>
