<svg width="231" height="62" viewBox="0 0 231 62" fill="none" xmlns="http://www.w3.org/2000/svg">
<path fill-rule="evenodd" clip-rule="evenodd" d="M145.396 11.3492C149.245 12.1795 151.976 13.8984 153.257 16.296C153.974 17.639 154.594 20.2505 154.589 21.9039C154.581 24.375 153.619 27.5179 152.449 28.8982C151.184 30.39 150.049 31.2984 148.589 31.9881C145.552 33.4228 144.68 33.5933 139.719 33.7227L135.178 33.8414L135.121 40.9168C135.089 44.8083 135.064 48.1207 135.064 48.2775C135.064 48.4857 134.481 48.5628 132.907 48.5628H130.749V29.7151V10.8674L137.392 10.9612C141.599 11.0208 144.533 11.1629 145.396 11.3492ZM135.118 22.6598C135.084 18.6437 135.107 15.2288 135.167 15.0708C135.316 14.6803 141.649 14.7027 143.807 15.1012C147.772 15.8338 149.711 17.8277 149.983 21.4526C150.19 24.2102 149.263 26.8518 147.678 28.0213C145.768 29.4303 144.003 29.8235 139.259 29.8977L135.178 29.9614L135.118 22.6598Z" fill="#D8D8D8"/>
<path fill-rule="evenodd" clip-rule="evenodd" d="M174.525 20.1387C177.713 20.3664 179.982 21.7708 181.157 24.2445C182.147 26.3296 182.323 28.7791 182.247 39.4333L182.184 48.4487H180.599H179.014L178.594 46.624C178.363 45.6202 178.139 44.7638 178.096 44.7207C178.053 44.6775 177.64 45.0621 177.179 45.5756C175.067 47.9249 172.677 49.0049 169.179 49.1907C167.416 49.2843 166.809 49.2183 165.432 48.7831C164.529 48.4976 163.629 48.1258 163.431 47.9569C163.234 47.788 162.962 47.6499 162.826 47.6499C162.343 47.6499 160.731 45.5273 160.253 44.2598C159.891 43.3031 159.762 42.4349 159.75 40.8892C159.736 39.0766 159.812 38.6463 160.341 37.5599C160.675 36.8736 161.179 36.0574 161.461 35.7459C162.094 35.0461 163.786 33.7271 164.05 33.728C164.157 33.7282 164.653 33.5319 165.152 33.2916C166.701 32.5466 169.079 32.1411 173.296 31.9025C175.526 31.7763 177.494 31.6732 177.667 31.6732C178.073 31.6732 178.106 28.6191 177.714 27.249C176.769 23.9377 173.627 22.7349 168.97 23.9007C166.918 24.4145 165.246 24.994 164.937 25.2984C164.4 25.8268 163.999 25.4571 163.414 23.893L162.81 22.2811L163.868 21.8251C166.067 20.877 167.715 20.4004 169.694 20.1405C170.818 19.9926 171.942 19.9015 172.192 19.938C172.442 19.9745 173.492 20.0649 174.525 20.1387ZM166.123 36.7727C167.566 35.666 169.208 35.2787 173.668 34.9929C175.854 34.8528 177.719 34.7735 177.812 34.8167C178.073 34.937 178.015 38.1159 177.728 39.4792C177.205 41.9645 175.915 43.6468 173.722 44.7077C172.289 45.4008 172.032 45.4485 169.657 45.4645C167.194 45.4812 167.094 45.462 166.137 44.7939C164.675 43.7728 164.072 42.4499 164.196 40.5359C164.313 38.7292 164.792 37.7925 166.123 36.7727Z" fill="#D8D8D8"/>
<path d="M191.317 21.003C191.54 21.6918 192.67 24.6653 195.501 32.0155C197.227 36.4963 199.555 43.3403 199.555 43.9312C199.555 45.1226 199.971 44.2165 201.331 40.0557C202.119 37.6421 203.047 34.897 203.391 33.9556C203.735 33.0141 204.975 29.5478 206.148 26.2525L208.279 20.2612H210.529C212.565 20.2612 212.768 20.2993 212.663 20.6606C212.546 21.0619 211.786 23.1418 210.514 26.5378C199.189 56.7803 199.998 54.7333 198.45 57.086C196.143 60.5938 192.846 61.8922 188.277 61.0925L186.839 60.841V59.1422V57.4434L187.647 57.5959C190.154 58.0685 192.226 57.6591 193.829 56.3745C195.013 55.4262 195.798 54.0848 196.933 51.0737L197.796 48.7831L192.284 34.9215C189.252 27.2978 186.724 20.8804 186.665 20.6606C186.569 20.2998 186.777 20.2612 188.818 20.2612H191.077L191.317 21.003Z" fill="#D8D8D8"/>
<path fill-rule="evenodd" clip-rule="evenodd" d="M225.399 0.214095C228.425 0.969565 230.461 3.51443 230.63 6.752C230.809 10.1829 229.062 12.7366 225.755 13.8806C224.152 14.4345 223.136 14.4439 221.687 13.9178C219.289 13.0466 218.268 12.1638 217.248 10.0816C216.505 8.56468 216.477 5.81463 217.189 4.25667C218.654 1.04877 222.049 -0.622629 225.399 0.214095ZM219.722 3.17593C220.308 2.59324 221.248 1.94414 221.81 1.7337C223.137 1.2366 223.663 1.23409 225.292 1.71682C226.927 2.20137 228.385 3.53132 228.97 5.07102C229.601 6.7326 229.342 8.80066 228.315 10.2949C227.388 11.6443 226.916 11.9994 225.329 12.5404C223.88 13.0343 223.433 13.0409 222.101 12.5878C217.916 11.1634 216.666 6.21699 219.722 3.17593Z" fill="#D8D8D8"/>
<path fill-rule="evenodd" clip-rule="evenodd" d="M225.405 3.88394C226.708 4.54812 226.845 6.33661 225.67 7.33082L225.022 7.87904L225.536 8.64935C225.82 9.07319 226.233 9.70221 226.454 10.0475L226.858 10.6752L225.98 10.6688C225.148 10.6626 225.054 10.5853 224.194 9.19484C223.522 8.10843 223.153 7.72474 222.775 7.71767C222.296 7.70877 222.264 7.80258 222.264 9.19164V10.6752H221.582H220.901L220.901 7.08043L220.9 3.48567L222.888 3.54958C223.981 3.58473 225.114 3.73513 225.405 3.88394ZM223.607 6.33865C222.266 6.33865 222.264 6.33751 222.264 5.65394C222.264 4.97675 222.277 4.96922 223.505 4.96922C224.457 4.96922 224.793 5.06211 224.95 5.36864C225.33 6.11087 225.015 6.33865 223.607 6.33865Z" fill="#D8D8D8"/>
<path d="M26.1649 11.0578C29.5017 11.8933 31.5105 12.8042 33.6878 14.4695C34.5709 15.1451 35.5317 15.9731 35.823 16.3098L36.3526 16.9219L34.785 18.387C33.9228 19.1927 32.7424 20.3037 32.1617 20.8556C31.5811 21.4077 31.0079 21.8594 30.888 21.8594C30.7679 21.8594 30.3233 21.5011 29.8998 21.0631C29.4765 20.6251 29.0023 20.2656 28.8461 20.2642C28.6901 20.2629 28.5623 20.1846 28.5623 20.0901C28.5623 19.9014 27.1423 19.1539 25.7237 18.5958C22.5516 17.348 17.4184 17.8575 14.4202 19.7176C9.19165 22.9618 7.69562 31.1777 11.343 36.6185C12.042 37.6608 13.791 39.4274 14.128 39.4313C14.2447 39.4327 14.5513 39.6203 14.8092 39.848C15.9144 40.8247 19.0057 41.6176 21.5227 41.5697C23.1899 41.5382 25.0434 41.1652 26.8591 40.496L27.7675 40.1612L27.8283 34.6622L27.8892 29.163H31.7455H35.6018V36.6794V44.1958L34.867 44.7248C34.0325 45.3258 33.6762 45.5316 32.082 46.3346C26.8142 48.9876 19.659 49.6308 14.1425 47.9469C12.3703 47.4057 9.94783 46.2835 9.24229 45.6763C9.04518 45.5068 8.77607 45.368 8.64437 45.368C8.51289 45.368 7.48966 44.4694 6.37082 43.3709C3.99735 41.0411 2.49201 38.6571 1.6509 35.8961C-0.470057 28.935 0.971914 21.8156 5.50562 16.8646C6.38966 15.8992 8.6487 14.0367 9.59564 13.4931C12.2371 11.9758 15.5259 10.898 18.23 10.6641C20.6711 10.4527 24.5091 10.6433 26.1649 11.0578Z" fill="#FEC267"/>
<path d="M64.9307 11.1498C65.7621 11.3912 66.5516 11.5887 66.6856 11.5887C67.1005 11.5887 70.4066 13.2105 71.4289 13.9153C71.9623 14.2832 72.9074 15.0554 73.5294 15.631C74.6103 16.6318 74.9013 17.1677 74.4537 17.3327C74.3401 17.3745 73.2067 18.3845 71.9351 19.577C70.6634 20.7696 69.5294 21.7798 69.4149 21.822C69.3003 21.8642 68.6946 21.4358 68.0685 20.8702C65.4873 18.5376 61.6939 17.5153 57.7424 18.0875C54.586 18.5447 52.8352 19.3775 50.9488 21.3196C49.6194 22.6881 48.4995 24.7334 48.0766 26.5648C47.6565 28.3841 47.7664 31.7933 48.3008 33.516C49.0406 35.902 50.8016 38.2967 52.7754 39.6009C54.7049 40.8758 58.5313 41.8659 60.5126 41.603C62.077 41.3953 64.626 40.8276 65.0774 40.5862C65.2897 40.4727 65.6419 40.3244 65.8606 40.2564C66.2246 40.1432 66.258 39.6721 66.258 34.6426V29.1523L70.1752 29.2146L74.0924 29.2772V36.8061V44.3348L73.5247 44.6342C73.2124 44.7988 72.6504 45.1304 72.2757 45.371C66.3775 49.1588 56.8697 49.9775 50.5893 47.2387C48.0582 46.1349 45.1209 44.0581 43.8177 42.4513C43.404 41.9412 42.8308 41.2492 42.5437 40.9135C41.6386 39.8547 40.1501 36.5295 39.6559 34.4625C39.0583 31.9619 39.0115 27.7897 39.5533 25.3136C40.2173 22.2794 41.8925 18.9961 43.8611 16.8696C44.6663 16 47.5273 13.6428 47.7776 13.6428C47.8679 13.6428 48.1034 13.5068 48.3005 13.3406C48.7508 12.9611 51.6289 11.7774 53.4278 11.2319C56.1655 10.4018 62.2071 10.3587 64.9307 11.1498Z" fill="#FEC267"/>
<path d="M103.273 11.1687C105.014 11.6339 105.522 11.8288 107.43 12.765C109.287 13.6759 109.469 13.8039 111.212 15.4249L112.906 17.0007L111.222 18.5741C108.659 20.9697 108.603 21.0218 107.961 21.6131L107.362 22.1655L106.519 21.3187C105.535 20.3293 103.448 18.8923 102.996 18.8923C102.823 18.8923 102.571 18.7807 102.435 18.6442C102.299 18.5077 101.257 18.2562 100.119 18.0855C92.3171 16.9139 86.3492 21.974 86.3807 29.7336C86.4046 35.6564 89.7831 40.0204 95.3246 41.2864C98.9768 42.1206 102.683 41.233 105.632 38.8176C106.367 38.215 107.098 37.6261 107.256 37.5091C107.457 37.3596 107.864 37.5981 108.618 38.3079C110.035 39.6404 110.724 40.2815 111.865 41.3254C112.769 42.1535 112.794 42.2128 112.461 42.7239C112.066 43.3296 110.361 44.8453 109.177 45.6439C105.194 48.3285 99.1535 49.4875 93.8486 48.5846C92.1268 48.2915 89.8444 47.6426 89.0081 47.2087C88.7978 47.0996 88.1565 46.7692 87.5833 46.4745C82.9888 44.1125 79.643 39.8661 78.2591 34.6408C77.6158 32.2123 77.5633 27.6642 78.1499 25.2079C79.1872 20.8654 81.3472 17.4772 84.8179 14.7486C86.3793 13.5211 89.9321 11.5887 90.6274 11.5887C90.8066 11.5887 91.4002 11.4227 91.9465 11.2198C94.1256 10.4114 100.332 10.3833 103.273 11.1687Z" fill="#FEC267"/>
</svg>
