<svg width="60" height="60" viewBox="0 0 60 60" fill="none" xmlns="http://www.w3.org/2000/svg">
<g clip-path="url(#clip0_249_5001)">
<path fill-rule="evenodd" clip-rule="evenodd" d="M1.45836 25.7193C1.57311 25.8341 1.53972 26.0512 1.38318 26.2078C1.2241 26.3668 1.19326 26.5814 1.31228 26.7005C1.4284 26.8166 1.46388 27.0423 1.39116 27.2021C1.31859 27.362 1.34553 27.5791 1.45105 27.6847C1.55657 27.7902 1.51613 28.0034 1.36114 28.1584C1.20614 28.3134 1.16515 28.526 1.26984 28.6307C1.37467 28.7355 1.36605 28.9805 1.25073 29.1752C1.13527 29.3697 1.13974 29.6278 1.26041 29.7485C1.38122 29.8693 1.38488 30.0632 1.26864 30.1794C1.15239 30.2957 1.15026 30.4838 1.26391 30.5974C1.37755 30.7111 1.37543 30.8991 1.25919 31.0154C1.14294 31.1316 1.13365 31.3126 1.23834 31.4173C1.34317 31.5221 1.33455 31.7671 1.21923 31.9618C1.10377 32.1563 1.10824 32.4144 1.22891 32.5351C1.34972 32.6559 1.35338 32.8498 1.23714 32.966C1.12089 33.0822 1.1116 33.2632 1.2163 33.3679C1.32113 33.4727 1.3125 33.7177 1.19718 33.9124C1.08172 34.1069 1.0862 34.365 1.20687 34.4857C1.32768 34.6065 1.33133 34.8004 1.21509 34.9166C1.09884 35.0329 1.09672 35.2209 1.21037 35.3346C1.32401 35.4482 1.32921 35.629 1.22212 35.7361C1.11489 35.8433 1.11798 36.0882 1.22892 36.2803C1.34002 36.4723 1.32972 36.7305 1.20629 36.854C1.08272 36.9775 1.07467 37.1716 1.18832 37.2852C1.30197 37.3989 1.29984 37.5869 1.1836 37.7032C1.06735 37.8194 1.05806 38.0004 1.16275 38.1051C1.26758 38.2099 1.25896 38.4549 1.14364 38.6496C1.02818 38.8441 1.03265 39.1022 1.15332 39.2229C1.27413 39.3437 1.2778 39.5376 1.16155 39.6538C1.0453 39.77 1.03601 39.951 1.1407 40.0557C1.24553 40.1605 1.23692 40.4055 1.12159 40.6002C1.00614 40.7947 1.0106 41.0528 1.13127 41.1735C1.25208 41.2943 1.25575 41.4882 1.1395 41.6044C1.02326 41.7207 1.02113 41.9087 1.13478 42.0224C1.24843 42.136 1.2463 42.3241 1.13005 42.4404C1.0138 42.5566 1.01747 42.7505 1.13828 42.8713C1.25895 42.992 1.26342 43.2501 1.14796 43.4446C1.03264 43.6393 1.02402 43.8843 1.12885 43.9891C1.23354 44.0938 1.22425 44.2747 1.108 44.391C0.991757 44.5072 0.98247 44.6882 1.08716 44.7929C1.19199 44.8977 1.18337 45.1427 1.06805 45.3374C0.952588 45.5319 0.957061 45.79 1.07773 45.9107C1.19854 46.0315 1.20221 46.2253 1.08596 46.3416C0.969715 46.4578 0.960421 46.6388 1.06511 46.7435C1.16995 46.8483 1.16133 47.0933 1.046 47.288C0.930546 47.4825 0.935014 47.7406 1.05569 47.8613C1.1765 47.9821 1.18016 48.176 1.06391 48.2922C0.947666 48.4084 0.945536 48.5965 1.05918 48.7102C1.17283 48.8238 1.17071 49.0119 1.05446 49.1282C0.938217 49.2444 0.928929 49.4253 1.03362 49.53C1.13845 49.6349 1.12983 49.8799 1.01451 50.0745C0.899047 50.2691 0.903523 50.5272 1.02419 50.6478C1.14501 50.7687 1.14866 50.9625 1.03241 51.0788C0.916168 51.195 0.906881 51.376 1.01157 51.4807C1.1164 51.5855 1.10778 51.8305 0.992458 52.0252C0.877 52.2197 0.881473 52.4778 1.00215 52.5985C1.12296 52.7193 1.12661 52.9131 1.01036 53.0294C0.894119 53.1456 0.891996 53.3337 1.00564 53.4474C1.11929 53.561 1.12448 53.7418 1.0174 53.8489C0.910168 53.9561 0.913257 54.201 1.02421 54.3931C1.1353 54.5851 1.12106 54.8473 0.992556 54.9758C0.814031 55.1543 0.874883 55.3042 1.25102 55.6127L1.74282 56.0163L14.2832 43.5462C25.2999 32.5915 26.8486 31.1012 27.0295 31.2821C27.173 31.4256 27.3849 31.3385 27.7286 30.9948C28.0729 30.6505 28.284 30.5639 28.4284 30.7083C28.542 30.822 28.7301 30.8198 28.8463 30.7036C28.9637 30.5862 29.1802 30.6147 29.3332 30.7677C29.5168 30.9514 29.7027 30.9493 29.8905 30.7614C30.1347 30.5173 30.2642 30.5715 30.8611 31.1684C31.3815 31.6888 31.6016 31.8055 31.7612 31.6458C31.9475 31.4595 33.4037 32.8656 44.0261 43.488C53.5781 53.04 56.1157 55.5046 56.2538 55.3634C56.6596 54.9491 56.8826 54.3718 56.7054 54.1946C56.6007 54.0899 56.61 53.909 56.7263 53.7928C56.8425 53.6765 56.8446 53.4884 56.731 53.3748C56.6162 53.26 56.6496 53.0429 56.8062 52.8863C56.994 52.6985 56.9961 52.5127 56.8125 52.329C56.6594 52.176 56.6309 51.9595 56.7483 51.8422C56.8646 51.7259 56.8667 51.5378 56.753 51.4242C56.6383 51.3094 56.6717 51.0923 56.8282 50.9357C57.016 50.7479 57.0181 50.562 56.8345 50.3784C56.6815 50.2254 56.653 50.0089 56.7704 49.8916C56.8866 49.7753 56.8887 49.5872 56.7751 49.4736C56.6614 49.3599 56.6636 49.1718 56.7798 49.0556C56.896 48.9393 56.8982 48.7512 56.7845 48.6376C56.6698 48.5228 56.7032 48.3057 56.8597 48.1492C57.0475 47.9613 57.0496 47.7755 56.866 47.5918C56.7129 47.4388 56.6845 47.2223 56.8018 47.105C56.9181 46.9887 56.9202 46.8006 56.8066 46.687C56.6918 46.5722 56.7252 46.3551 56.8817 46.1985C57.0696 46.0107 57.0717 45.8249 56.888 45.6412C56.735 45.4882 56.7065 45.2717 56.8239 45.1544C56.9401 45.0381 56.9494 44.8572 56.8447 44.7525C56.7399 44.6477 56.7532 44.3947 56.8745 44.1902C57.0046 43.9706 56.9903 43.795 56.8397 43.7611C56.689 43.7271 56.6747 43.5516 56.8048 43.332C56.9261 43.1275 56.9394 42.8745 56.8346 42.7696C56.7299 42.6649 56.7391 42.484 56.8554 42.3678C56.9716 42.2515 56.9738 42.0634 56.8601 41.9498C56.7454 41.835 56.7787 41.6179 56.9353 41.4614C57.1231 41.2735 57.1252 41.0877 56.9416 40.904C56.7886 40.751 56.7601 40.5346 56.8774 40.4172C56.9937 40.3009 56.9958 40.1128 56.8822 39.9992C56.7674 39.8844 56.8008 39.6673 56.9573 39.5108C57.1452 39.3229 57.1473 39.1371 56.9636 38.9534C56.8106 38.8004 56.7821 38.5839 56.8995 38.4666C57.0157 38.3503 57.025 38.1694 56.9203 38.0647C56.8155 37.9599 56.8241 37.7149 56.9394 37.5202C57.0549 37.3257 57.0504 37.0676 56.9298 36.9469C56.8089 36.8261 56.8053 36.6322 56.9215 36.516C57.0378 36.3997 57.0399 36.2116 56.9263 36.098C56.8126 35.9843 56.8147 35.7962 56.931 35.68C57.0472 35.5638 57.0494 35.3756 56.9357 35.262C56.821 35.1473 56.8543 34.9301 57.0109 34.7736C57.1987 34.5857 57.2008 34.3999 57.0172 34.2162C56.8641 34.0632 56.8357 33.8468 56.953 33.7294C57.0693 33.6131 57.0714 33.425 56.9578 33.3114C56.843 33.1966 56.8764 32.9795 57.0329 32.823C57.2208 32.6351 57.2229 32.4493 57.0392 32.2656C56.8862 32.1126 56.8577 31.8961 56.9751 31.7788C57.0913 31.6625 57.0934 31.4744 56.9798 31.3608C56.8661 31.2471 56.8683 31.0591 56.9845 30.9428C57.1008 30.8266 57.1029 30.6385 56.9892 30.5248C56.8745 30.4101 56.9079 30.1929 57.0644 30.0364C57.2522 29.8486 57.2543 29.6627 57.0707 29.4791C56.9177 29.326 56.8892 29.1096 57.0066 28.9922C57.1228 28.876 57.1249 28.6879 57.0113 28.5742C56.8965 28.4595 56.9299 28.2423 57.0865 28.0858C57.2743 27.8979 57.2764 27.7121 57.0928 27.5285C56.9397 27.3754 56.9112 27.159 57.0286 27.0416C57.1449 26.9253 57.147 26.7372 57.0333 26.6236C56.9197 26.51 56.915 26.3286 57.023 26.2207C57.2384 26.0053 57.1009 25.5639 56.6903 25.1533C56.5449 25.008 56.5212 24.794 56.6374 24.6777C56.8234 24.4917 55.6012 23.2189 46.4483 14.0659C37.2953 4.91297 36.0225 3.69082 35.8365 3.87681C35.6821 4.03125 35.4668 3.93102 35.0377 3.5047C34.2504 2.72245 33.7019 2.42981 33.4656 2.6661C33.3368 2.79488 33.1072 2.69747 32.7886 2.37884C32.4519 2.04217 32.2428 1.96039 32.0951 2.10806C31.9777 2.22543 31.7613 2.19696 31.6082 2.04391C31.4567 1.89238 31.2427 1.85844 31.1325 1.96862C31.0224 2.07867 30.7046 2.02459 30.4263 1.8483C30.148 1.67201 29.8301 1.61792 29.7201 1.72797C29.6099 1.83816 29.4269 1.83522 29.3132 1.72157C29.1996 1.60792 29.0056 1.61596 28.882 1.73954C28.7586 1.86297 28.5003 1.87326 28.3083 1.76217C28.0609 1.61925 27.8406 1.67885 27.5528 1.96672C27.3001 2.21936 27.0742 2.30063 26.9552 2.18161C26.8457 2.07209 26.5146 2.16234 26.1803 2.39306C25.831 2.63411 25.5162 2.71527 25.3964 2.59543C25.2453 2.44431 25.0052 2.58579 24.421 3.16997C23.8261 3.76487 23.5981 3.897 23.4394 3.73831C23.2574 3.55634 21.9177 4.84674 12.2422 14.5222C2.56678 24.1976 1.27638 25.5373 1.45836 25.7193Z" fill="#D8D8D8"/>
</g>
<defs>
<clipPath id="clip0_249_5001">
<rect width="60" height="60" fill="white" transform="translate(60 60) rotate(-180)"/>
</clipPath>
</defs>
</svg>
