<svg width="21" height="20" viewBox="0 0 21 20" fill="none" xmlns="http://www.w3.org/2000/svg">
<path d="M4.9835 17.5557C4.6785 17.5557 4.38599 17.4345 4.17032 17.2188C3.95466 17.0032 3.8335 16.7107 3.8335 16.4057V3.51122C3.83343 3.31493 3.88361 3.1219 3.97925 2.9505C4.07489 2.77909 4.21281 2.63502 4.37987 2.53199C4.54694 2.42897 4.7376 2.37042 4.9337 2.36192C5.1298 2.35342 5.32481 2.39525 5.50016 2.48344L18.3946 8.93344C18.5852 9.02911 18.7454 9.1759 18.8574 9.3574C18.9694 9.5389 19.0287 9.74795 19.0287 9.96122C19.0287 10.1745 18.9694 10.3835 18.8574 10.565C18.7454 10.7465 18.5852 10.8933 18.3946 10.989L5.50016 17.4334C5.3399 17.5141 5.16292 17.556 4.9835 17.5557ZM4.9835 3.47788L4.94461 3.51122V16.4057L5.00016 16.439L17.8946 10.0001C17.8975 9.99504 17.8991 9.98929 17.8991 9.98344C17.8991 9.97759 17.8975 9.97184 17.8946 9.96677L4.9835 3.47788Z" fill="#FEC267"/>
</svg>
