<svg width="132" height="129" viewBox="0 0 132 129" fill="none" xmlns="http://www.w3.org/2000/svg">
<path d="M7.02146 8.4483L80.3504 26.7543C89.1801 28.9683 96.4044 38.2179 96.4044 47.3218V113.519C96.4044 122.623 89.1529 128.361 80.2969 126.271L18.7321 111.796C9.87612 109.711 2.625 100.558 2.625 91.4536V19.7399C2.625 10.6355 10.0701 3.19043 19.1745 3.19043H112.954C122.058 3.19043 129.503 10.6355 129.503 19.7399V80.4208C129.503 89.5248 122.058 96.9703 112.954 96.9703H96.4044" stroke="black" stroke-width="4.42" stroke-linecap="round" stroke-linejoin="round"/>
<path d="M82.6141 74.9048C82.6141 80.9922 77.6685 85.9377 71.5812 85.9377C65.4883 85.9377 60.5483 80.9922 60.5483 74.9048C60.5483 68.8119 65.4883 63.8711 71.5812 63.8711C77.6685 63.8711 82.6141 68.8119 82.6141 74.9048Z" stroke="black" stroke-width="4.42" stroke-linecap="round" stroke-linejoin="round"/>
<path d="M96.4048 47.3228H107.438" stroke="black" stroke-width="4.42" stroke-linecap="round" stroke-linejoin="round"/>
<path d="M52.2734 19.7397H107.438" stroke="black" stroke-width="4.42" stroke-linecap="round" stroke-linejoin="round"/>
</svg>
